<?xml version="1.0" encoding="us-ascii" standalone="no"?><svg xmlns="http://www.w3.org/2000/svg" xmlns:xlink="http://www.w3.org/1999/xlink" contentStyleType="text/css" height="319px" preserveAspectRatio="none" style="width:309px;height:319px;background:#FFFFFF;" version="1.1" viewBox="0 0 309 319" width="309px" zoomAndPan="magnify"><defs/><g><!--class EndRemoteServiceData--><g id="elem_EndRemoteServiceData"><rect codeLine="77" fill="#E9F7EF" height="159.7266" id="EndRemoteServiceData" rx="2.5" ry="2.5" style="stroke:#27AE60;stroke-width:2.0;" width="295" x="7" y="7"/><ellipse cx="74.75" cy="23" fill="#ADD1B2" rx="11" ry="11" style="stroke:#181818;stroke-width:1.0;"/><path d="M77.5156,18.875 Q77.6719,18.6563 77.8594,18.5469 Q78.0469,18.4375 78.2656,18.4375 Q78.6406,18.4375 78.875,18.7031 Q79.1094,18.9531 79.1094,19.5625 L79.1094,21.0156 Q79.1094,21.625 78.875,21.8906 Q78.6406,22.1563 78.2656,22.1563 Q77.9219,22.1563 77.7188,21.9531 Q77.5156,21.7656 77.4063,21.25 Q77.3594,20.8906 77.1719,20.7031 Q76.8438,20.3281 76.2344,20.1094 Q75.625,19.8906 75,19.8906 Q74.2344,19.8906 73.5938,20.2188 Q72.9688,20.5469 72.4688,21.2969 Q71.9844,22.0469 71.9844,23.0781 L71.9844,24.1719 Q71.9844,25.4063 72.875,26.2344 Q73.7656,27.0469 75.3594,27.0469 Q76.2969,27.0469 76.9531,26.7969 Q77.3438,26.6406 77.7656,26.2031 Q78.0313,25.9375 78.1719,25.8594 Q78.3281,25.7813 78.5313,25.7813 Q78.8594,25.7813 79.1094,26.0469 Q79.375,26.2969 79.375,26.6406 Q79.375,26.9844 79.0313,27.3906 Q78.5313,27.9688 77.7344,28.2969 Q76.6563,28.75 75.3594,28.75 Q73.8438,28.75 72.6406,28.125 Q71.6563,27.625 70.9688,26.5625 Q70.2813,25.4844 70.2813,24.2031 L70.2813,23.0469 Q70.2813,21.7188 70.8906,20.5781 Q71.5156,19.4219 72.6094,18.8125 Q73.7031,18.1875 74.9375,18.1875 Q75.6719,18.1875 76.3125,18.3594 Q76.9688,18.5156 77.5156,18.875 Z " fill="#000000"/><text fill="#000000" font-family="sans-serif" font-size="14" lengthAdjust="spacing" textLength="151" x="95.25" y="28.7969">EndRemoteServiceData</text><line style="stroke:#27AE60;stroke-width:2.0;" x1="8" x2="301" y1="39" y2="39"/><text fill="#000000" font-family="sans-serif" font-size="14" font-weight="bold" lengthAdjust="spacing" textLength="43" x="13" y="58.1074">action</text><text fill="#000000" font-family="sans-serif" font-size="14" lengthAdjust="spacing" textLength="66" x="60" y="58.1074">: String = "</text><text fill="#000000" font-family="sans-serif" font-size="14" font-weight="bold" lengthAdjust="spacing" textLength="165" x="126" y="58.1074">END_REMOTE_SERVICE</text><text fill="#000000" font-family="sans-serif" font-size="14" lengthAdjust="spacing" textLength="5" x="291" y="58.1074">"</text><text fill="#000000" font-family="sans-serif" font-size="14" font-weight="bold" lengthAdjust="spacing" textLength="89" x="13" y="76.7285">clientNodeId</text><text fill="#000000" font-family="sans-serif" font-size="14" lengthAdjust="spacing" textLength="45" x="106" y="76.7285">: String</text><text fill="#000000" font-family="sans-serif" font-size="14" font-weight="bold" lengthAdjust="spacing" textLength="97" x="13" y="95.3496">serverNodeId</text><text fill="#000000" font-family="sans-serif" font-size="14" lengthAdjust="spacing" textLength="45" x="114" y="95.3496">: String</text><text fill="#000000" font-family="sans-serif" font-size="14" font-weight="bold" lengthAdjust="spacing" textLength="140" x="13" y="113.9707">remoteReaderName</text><text fill="#000000" font-family="sans-serif" font-size="14" lengthAdjust="spacing" textLength="45" x="157" y="113.9707">: String</text><text fill="#000000" font-family="sans-serif" font-size="14" font-weight="bold" lengthAdjust="spacing" textLength="68" x="13" y="132.5918">sessionId</text><text fill="#000000" font-family="sans-serif" font-size="14" lengthAdjust="spacing" textLength="45" x="85" y="132.5918">: String</text><text fill="#000000" font-family="sans-serif" font-size="14" font-weight="bold" lengthAdjust="spacing" textLength="34" x="13" y="151.2129">body</text><text fill="#000000" font-family="sans-serif" font-size="14" lengthAdjust="spacing" textLength="161" x="51" y="151.2129">: EndRemoteServiceBody</text><line style="stroke:#27AE60;stroke-width:2.0;" x1="8" x2="301" y1="158.7266" y2="158.7266"/></g><!--class EndRemoteServiceBody--><g id="elem_EndRemoteServiceBody"><rect codeLine="78" fill="#E9F7EF" height="66.6211" id="EndRemoteServiceBody" rx="2.5" ry="2.5" style="stroke:#27AE60;stroke-width:2.0;" width="185" x="62" y="246"/><ellipse cx="77" cy="262" fill="#ADD1B2" rx="11" ry="11" style="stroke:#181818;stroke-width:1.0;"/><path d="M79.7656,257.875 Q79.9219,257.6563 80.1094,257.5469 Q80.2969,257.4375 80.5156,257.4375 Q80.8906,257.4375 81.125,257.7031 Q81.3594,257.9531 81.3594,258.5625 L81.3594,260.0156 Q81.3594,260.625 81.125,260.8906 Q80.8906,261.1563 80.5156,261.1563 Q80.1719,261.1563 79.9688,260.9531 Q79.7656,260.7656 79.6563,260.25 Q79.6094,259.8906 79.4219,259.7031 Q79.0938,259.3281 78.4844,259.1094 Q77.875,258.8906 77.25,258.8906 Q76.4844,258.8906 75.8438,259.2188 Q75.2188,259.5469 74.7188,260.2969 Q74.2344,261.0469 74.2344,262.0781 L74.2344,263.1719 Q74.2344,264.4063 75.125,265.2344 Q76.0156,266.0469 77.6094,266.0469 Q78.5469,266.0469 79.2031,265.7969 Q79.5938,265.6406 80.0156,265.2031 Q80.2813,264.9375 80.4219,264.8594 Q80.5781,264.7813 80.7813,264.7813 Q81.1094,264.7813 81.3594,265.0469 Q81.625,265.2969 81.625,265.6406 Q81.625,265.9844 81.2813,266.3906 Q80.7813,266.9688 79.9844,267.2969 Q78.9063,267.75 77.6094,267.75 Q76.0938,267.75 74.8906,267.125 Q73.9063,266.625 73.2188,265.5625 Q72.5313,264.4844 72.5313,263.2031 L72.5313,262.0469 Q72.5313,260.7188 73.1406,259.5781 Q73.7656,258.4219 74.8594,257.8125 Q75.9531,257.1875 77.1875,257.1875 Q77.9219,257.1875 78.5625,257.3594 Q79.2188,257.5156 79.7656,257.875 Z " fill="#000000"/><text fill="#000000" font-family="sans-serif" font-size="14" lengthAdjust="spacing" textLength="153" x="91" y="267.7969">EndRemoteServiceBody</text><line style="stroke:#27AE60;stroke-width:2.0;" x1="63" x2="246" y1="278" y2="278"/><text fill="#000000" font-family="sans-serif" font-size="14" font-weight="bold" lengthAdjust="spacing" textLength="77" x="68" y="297.1074">outputData</text><text fill="#000000" font-family="sans-serif" font-size="14" lengthAdjust="spacing" textLength="57" x="149" y="297.1074">: Object?</text><line style="stroke:#27AE60;stroke-width:2.0;" x1="63" x2="246" y1="304.6211" y2="304.6211"/></g><!--reverse link EndRemoteServiceData to EndRemoteServiceBody--><g id="link_EndRemoteServiceData_EndRemoteServiceBody"><path codeLine="70" d="M154.5,180.17 C154.5,203.75 154.5,227.58 154.5,245.88 " fill="none" id="EndRemoteServiceData-backto-EndRemoteServiceBody" style="stroke:#3498DB;stroke-width:2.0;"/><polygon fill="#3498DB" points="154.5,167.13,150.5,173.13,154.5,179.13,158.5,173.13,154.5,167.13" style="stroke:#3498DB;stroke-width:2.0;"/><text fill="#000000" font-family="sans-serif" font-size="13" lengthAdjust="spacing" textLength="61" x="155.5" y="212.0283">JsonString</text><text fill="#000000" font-family="sans-serif" font-size="13" lengthAdjust="spacing" textLength="7" x="146.8109" y="234.6819">1</text></g><!--SRC=[dLHTRzfA47tthvZIX_HQSaYCAI5gMjcxwvOsXGfefJn5Ypq9BiQBTjU9q5N_UzSV4A0kN5q_sMVFp9cFzJdJYKxHEWFpVC7rAaMWYT8ocUKQO_Wy6Gt1_pQe295OhjA4PngU4ps7rg8CS1JAfoH2voT_uawQp5hmX58b8WFt_FBSgsBPaDwFsTVHbDrFsFZ7W31uurwu7UUYuxZkFzOPPZ5KnPY0cnkOVc9VcNandqJaAUPIGQ9KZWfYX6kOQxrIr-tsN2_JIAH2HY96TMvgR3_8jkQp57dknEX4LNG3P5vLyfWvgvJhjlKgneSaGo3t7yVixXB2gx0VzWzW5q8tx8JU0Tm1rcKzTiZsWFPeGEa1t0NYav2w1_1R22ZfaDuEV3iOVe6Erx-YmGxwVSB0xVdixKKnAyU1YLwdPYvwpZN48Zip2n9oKMqfm-VjFiG3c5updIzJ4sQfHPAjkEHBK1eb2hrUeHy86QCanKJXjT-dX8QDnC4UCV3y7kis4ib-Hael0xUHoFQ8BEXtZ7JPdxayHRqxKIJbIbNywJo95Xag1RjfVId5y-wHoNI7QIgU_yZ2eyMZ57aMryeX2nbXpM8rXNe-kQ0cvHZZ4_dUlPCOltzlqb966JcITijaFS_S0skUc8k-0L_6P5I_vTByU2U5LoMjrFOO2Nj7jL_8LyppVBgHt-9x5SpI_BH-GIhx2S9k61nLtr3hkrvhr-YUyaU9c9sKVYnOfNO_xB7mgFQMM_zJjVW6FbHV_nVnTQdjctl4JccNL9TqM7TNUhslN7aY6GsdR3YjNB71Kgse402MnMDS2esJofafrnp-jGeRjcqUQMC5jcqiT69yFdk46sZPzf_9RBjLXqHfWfaU6dyTn3k1zMbX_oZ_TYhBGiR8JSz3liIcU5MOKrFmJCJh4ZtiA307rg-_j5iSRjiLkLxbkfX0cMWq-ucH_c1YpG1zfKIKy68Uoh8QfsORzsbTjferNjS6VGsVbSZgogjDtVfte- -RHPdloVJkblsllMqluh5kNqY_0G00]--></g></svg>