<svg xmlns="http://www.w3.org/2000/svg" xmlns:xlink="http://www.w3.org/1999/xlink" contentStyleType="text/css" height="665px" preserveAspectRatio="none" style="width:707px;height:665px;background:#FFFFFF;" version="1.1" viewBox="0 0 707 665" width="707px" zoomAndPan="magnify"><defs/><g><rect fill="#D3D3D3" height="416.7832" style="stroke:#181818;stroke-width:1.0;" width="10" x="33.1724" y="176.4941"/><rect fill="#D3D3D3" height="527.6563" style="stroke:#181818;stroke-width:1.0;" width="10" x="250.7021" y="65.6211"/><rect fill="#D3D3D3" height="31.291" style="stroke:#181818;stroke-width:1.0;" width="10" x="658.6572" y="88.9121"/><rect fill="#D3D3D3" height="189.7461" style="stroke:#181818;stroke-width:1.0;" width="10" x="658.6572" y="372.2402"/><rect fill="#F5F5F5" height="144.4551" rx="5" ry="5" style="stroke:#000000;stroke-width:1.5;" width="691.2744" x="10" y="387.2402"/><line style="stroke:#181818;stroke-width:0.5;stroke-dasharray:5.0,5.0;" x1="38" x2="38" y1="55.6211" y2="611.2773"/><line style="stroke:#181818;stroke-width:0.5;stroke-dasharray:5.0,5.0;" x1="255.4746" x2="255.4746" y1="55.6211" y2="611.2773"/><line style="stroke:#181818;stroke-width:0.5;stroke-dasharray:5.0,5.0;" x1="663.04" x2="663.04" y1="55.6211" y2="611.2773"/><text fill="#000000" font-family="sans-serif" font-size="14" lengthAdjust="spacing" textLength="30.3447" x="20" y="52.1074">Card</text><ellipse cx="38.1724" cy="21" fill="#E2E2F0" rx="12" ry="12" style="stroke:#181818;stroke-width:0.5;"/><line style="stroke:#181818;stroke-width:0.5;" x1="26.1724" x2="50.1724" y1="35" y2="35"/><text fill="#000000" font-family="sans-serif" font-size="14" lengthAdjust="spacing" textLength="30.3447" x="20" y="625.3848">Card</text><ellipse cx="38.1724" cy="644.8984" fill="#E2E2F0" rx="12" ry="12" style="stroke:#181818;stroke-width:0.5;"/><line style="stroke:#181818;stroke-width:0.5;" x1="26.1724" x2="50.1724" y1="658.8984" y2="658.8984"/><rect fill="#E2E2F0" height="32.6211" rx="5" ry="5" style="stroke:#181818;stroke-width:0.5;" width="68.4551" x="221.4746" y="22"/><text fill="#000000" font-family="sans-serif" font-size="14" lengthAdjust="spacing" textLength="54.4551" x="228.4746" y="44.1074">Terminal</text><rect fill="#E2E2F0" height="32.6211" rx="5" ry="5" style="stroke:#181818;stroke-width:0.5;" width="68.4551" x="221.4746" y="610.2773"/><text fill="#000000" font-family="sans-serif" font-size="14" lengthAdjust="spacing" textLength="54.4551" x="228.4746" y="632.3848">Terminal</text><rect fill="#E2E2F0" height="32.6211" rx="5" ry="5" style="stroke:#181818;stroke-width:0.5;" width="55.2344" x="636.04" y="22"/><text fill="#000000" font-family="sans-serif" font-size="14" lengthAdjust="spacing" textLength="41.2344" x="643.04" y="44.1074">Server</text><rect fill="#E2E2F0" height="32.6211" rx="5" ry="5" style="stroke:#181818;stroke-width:0.5;" width="55.2344" x="636.04" y="610.2773"/><text fill="#000000" font-family="sans-serif" font-size="14" lengthAdjust="spacing" textLength="41.2344" x="643.04" y="632.3848">Server</text><rect fill="#D3D3D3" height="416.7832" style="stroke:#181818;stroke-width:1.0;" width="10" x="33.1724" y="176.4941"/><rect fill="#D3D3D3" height="527.6563" style="stroke:#181818;stroke-width:1.0;" width="10" x="250.7021" y="65.6211"/><rect fill="#D3D3D3" height="31.291" style="stroke:#181818;stroke-width:1.0;" width="10" x="658.6572" y="88.9121"/><rect fill="#D3D3D3" height="189.7461" style="stroke:#181818;stroke-width:1.0;" width="10" x="658.6572" y="372.2402"/><polygon fill="#181818" points="646.6572,84.9121,656.6572,88.9121,646.6572,92.9121,650.6572,88.9121" style="stroke:#181818;stroke-width:1.0;"/><line style="stroke:#181818;stroke-width:1.0;" x1="260.7021" x2="652.6572" y1="88.9121" y2="88.9121"/><text fill="#000000" font-family="sans-serif" font-size="13" lengthAdjust="spacing" textLength="184.9771" x="267.7021" y="83.6494">Retrieve card selection scenario</text><polygon fill="#181818" points="271.7021,116.2031,261.7021,120.2031,271.7021,124.2031,267.7021,120.2031" style="stroke:#181818;stroke-width:1.0;"/><line style="stroke:#181818;stroke-width:1.0;stroke-dasharray:2.0,2.0;" x1="265.7021" x2="662.6572" y1="120.2031" y2="120.2031"/><text fill="#27AE60" font-family="sans-serif" font-size="13" font-weight="bold" lengthAdjust="spacing" textLength="210.2217" x="277.7021" y="114.9404">CardSelectionScenarioJsonString</text><line style="stroke:#181818;stroke-width:1.0;" x1="248.7021" x2="238.7021" y1="176.4941" y2="172.4941"/><line style="stroke:#181818;stroke-width:1.0;" x1="248.7021" x2="238.7021" y1="176.4941" y2="180.4941"/><line style="stroke:#181818;stroke-width:1.0;stroke-dasharray:2.0,2.0;" x1="43.1724" x2="249.7021" y1="176.4941" y2="176.4941"/><text fill="#000000" font-family="sans-serif" font-size="13" lengthAdjust="spacing" textLength="113.4517" x="50.1724" y="171.2314">Card inserted event</text><polygon fill="#181818" points="54.1724,228.7852,44.1724,232.7852,54.1724,236.7852,50.1724,232.7852" style="stroke:#181818;stroke-width:1.0;"/><line style="stroke:#181818;stroke-width:1.0;" x1="48.1724" x2="249.7021" y1="232.7852" y2="232.7852"/><text fill="#000000" font-family="sans-serif" font-size="13" lengthAdjust="spacing" textLength="183.5298" x="60.1724" y="227.5225">Process card selection scenario</text><polygon fill="#181818" points="238.7021,260.0762,248.7021,264.0762,238.7021,268.0762,242.7021,264.0762" style="stroke:#181818;stroke-width:1.0;"/><line style="stroke:#181818;stroke-width:1.0;stroke-dasharray:2.0,2.0;" x1="43.1724" x2="244.7021" y1="264.0762" y2="264.0762"/><text fill="#000000" font-family="sans-serif" font-size="13" lengthAdjust="spacing" textLength="86.709" x="50.1724" y="258.8135">selection result</text><polygon fill="#181818" points="646.6572,368.2402,656.6572,372.2402,646.6572,376.2402,650.6572,372.2402" style="stroke:#181818;stroke-width:1.0;"/><line style="stroke:#181818;stroke-width:1.0;" x1="260.7021" x2="652.6572" y1="372.2402" y2="372.2402"/><text fill="#000000" font-family="sans-serif" font-size="13" font-weight="bold" lengthAdjust="spacing" textLength="151.0234" x="267.7021" y="315.1045">Execute Remote Service</text><text fill="#000000" font-family="sans-serif" font-size="13" lengthAdjust="spacing" textLength="4.3291" x="422.3374" y="315.1045">(</text><text fill="#000000" font-family="sans-serif" font-size="13" lengthAdjust="spacing" textLength="66.8535" x="296.5967" y="332.3955">inputData =</text><text fill="#3498DB" font-family="sans-serif" font-size="13" font-weight="bold" lengthAdjust="spacing" textLength="275.9834" x="367.062" y="332.3955">ProcessedCardSelectionScenarioJsonString</text><text fill="#000000" font-family="sans-serif" font-size="13" lengthAdjust="spacing" textLength="3.6118" x="643.0454" y="332.3955">,</text><text fill="#000000" font-family="sans-serif" font-size="13" lengthAdjust="spacing" textLength="10.8354" x="296.5967" y="349.6865">...</text><text fill="#000000" font-family="sans-serif" font-size="13" lengthAdjust="spacing" textLength="4.3291" x="267.7021" y="366.9775">)</text><path d="M15,387.2402 L82.4346,387.2402 L82.4346,396.5313 L72.4346,406.5313 L10,406.5313 L10,392.2402 A5,5 0 0 1 15,387.2402 " fill="#EEEEEE" style="stroke:#000000;stroke-width:1.5;"/><rect fill="none" height="144.4551" rx="5" ry="5" style="stroke:#000000;stroke-width:1.5;" width="691.2744" x="10" y="387.2402"/><text fill="#000000" font-family="sans-serif" font-size="13" font-weight="bold" lengthAdjust="spacing" textLength="27.4346" x="25" y="402.2686">loop</text><text fill="#000000" font-family="sans-serif" font-size="11" font-weight="bold" lengthAdjust="spacing" textLength="408.4932" x="97.4346" y="401.1104">[while there are actions to be performed with the card or the terminal's reader]</text><polygon fill="#181818" points="271.7021,425.8223,261.7021,429.8223,271.7021,433.8223,267.7021,429.8223" style="stroke:#181818;stroke-width:1.0;"/><line style="stroke:#181818;stroke-width:1.0;stroke-dasharray:2.0,2.0;" x1="265.7021" x2="657.6572" y1="429.8223" y2="429.8223"/><text fill="#000000" font-family="sans-serif" font-size="13" font-weight="bold" lengthAdjust="spacing" textLength="63.5591" x="277.7021" y="424.5596">Command</text><polygon fill="#181818" points="54.1724,457.1133,44.1724,461.1133,54.1724,465.1133,50.1724,461.1133" style="stroke:#181818;stroke-width:1.0;"/><line style="stroke:#181818;stroke-width:1.0;" x1="48.1724" x2="249.7021" y1="461.1133" y2="461.1133"/><text fill="#000000" font-family="sans-serif" font-size="13" lengthAdjust="spacing" textLength="57.0781" x="60.1724" y="455.8506">command</text><polygon fill="#181818" points="238.7021,488.4043,248.7021,492.4043,238.7021,496.4043,242.7021,492.4043" style="stroke:#181818;stroke-width:1.0;"/><line style="stroke:#181818;stroke-width:1.0;stroke-dasharray:2.0,2.0;" x1="43.1724" x2="244.7021" y1="492.4043" y2="492.4043"/><text fill="#000000" font-family="sans-serif" font-size="13" lengthAdjust="spacing" textLength="53.479" x="50.1724" y="487.1416">response</text><polygon fill="#181818" points="646.6572,519.6953,656.6572,523.6953,646.6572,527.6953,650.6572,523.6953" style="stroke:#181818;stroke-width:1.0;"/><line style="stroke:#181818;stroke-width:1.0;" x1="260.7021" x2="652.6572" y1="523.6953" y2="523.6953"/><text fill="#000000" font-family="sans-serif" font-size="13" font-weight="bold" lengthAdjust="spacing" textLength="62.1309" x="267.7021" y="518.4326">Response</text><polygon fill="#181818" points="271.7021,557.9863,261.7021,561.9863,271.7021,565.9863,267.7021,561.9863" style="stroke:#181818;stroke-width:1.0;"/><line style="stroke:#181818;stroke-width:1.0;stroke-dasharray:2.0,2.0;" x1="265.7021" x2="662.6572" y1="561.9863" y2="561.9863"/><text fill="#000000" font-family="sans-serif" font-size="13" font-weight="bold" lengthAdjust="spacing" textLength="125.7153" x="277.7021" y="556.7236">End Remote Service</text><line style="stroke:#181818;stroke-width:1.0;" x1="253.7021" x2="243.7021" y1="593.2773" y2="589.2773"/><line style="stroke:#181818;stroke-width:1.0;" x1="253.7021" x2="243.7021" y1="593.2773" y2="597.2773"/><line style="stroke:#181818;stroke-width:1.0;stroke-dasharray:2.0,2.0;" x1="38.1724" x2="254.7021" y1="593.2773" y2="593.2773"/><text fill="#000000" font-family="sans-serif" font-size="13" lengthAdjust="spacing" textLength="117.7808" x="45.1724" y="588.0146">Card removed event</text><!--SRC=[XLDTRzCm57tthxXg7mePAMEChwgDDBeEXCP0RHxxOfpBOYsnoxNJCga_dcitNJhAHA8eLpx79_USN0zWCe7yy-phZ0iXt9qsAqcoXhbjJ36rP93WrQaOT8Z3NmqQXHT4TfENMjqPT0xEX1W4iUctctnsaqSvD5xxU-XD9HKza0uK5u9bl5Pw9Os7NevKQoEh7LnftlAOi41Q8qNOnL88gRnUIuyj7_hN-hRqdmZlHRkIPYqPJauEO1Z173rfN6DiXKaLifWru1GQITeAGj-GWR6obQLH_-pTnUpjQPOamSDYJr-qx2-EQnOqjqaYn7Qx5IBgfccM7NV7dmyge0qtvx40xeFjTdO2U62c5Nom5F4HV2UhGk9FEMWtZDDqlwCZ4RgcyaVAJuIL9BFVg1fkROwrvLVu6LfXai2pfLbw7ed6NqelOR8F3Fglpp-yl_p8YRLzOl7VwCOlu-RiHH0T3eTByro8ojeLzA_UX1isfQuGV8c48CCJjHnu2pyGLaW_BTMSw4RxCj1spYt5shSpDd3iNnOyGi3NGKoj_M1uQkjQce9_P-G4bN6wvuv0xU0EJDEiGpdT5NU5X_fTka5-tZ9O7rb673V1LGpU54UX_sEu8ZiE5J5v_J1J1VvrI1wjX5Fu1m00]--></g></svg>