<?xml version="1.0" encoding="us-ascii" standalone="no"?><svg xmlns="http://www.w3.org/2000/svg" xmlns:xlink="http://www.w3.org/1999/xlink" contentStyleType="text/css" height="924px" preserveAspectRatio="none" style="width:2004px;height:924px;background:#FFFFFF;" version="1.1" viewBox="0 0 2004 924" width="2004px" zoomAndPan="magnify"><defs><filter height="1" id="b13s6e8w6h4xes0" width="1" x="0" y="0"><feFlood flood-color="#FEFECE" result="flood"/><feComposite in="SourceGraphic" in2="flood" operator="over"/></filter><filter height="1" id="b13s6e8w6h4xes1" width="1" x="0" y="0"><feFlood flood-color="#ADD8E6" result="flood"/><feComposite in="SourceGraphic" in2="flood" operator="over"/></filter><filter height="1" id="b13s6e8w6h4xes2" width="1" x="0" y="0"><feFlood flood-color="#DDA0DD" result="flood"/><feComposite in="SourceGraphic" in2="flood" operator="over"/></filter></defs><g><rect fill="#DDDDDD" height="84.4844" id="_legend" rx="7.5" ry="7.5" style="stroke:#000000;stroke-width:1.0;" width="188" x="901" y="12"/><text fill="#000000" font-family="sans-serif" font-size="14" lengthAdjust="spacing" text-decoration="underline" textLength="88" x="906" y="32.1074">Colors legend</text><text fill="#000000" font-family="sans-serif" font-size="14" lengthAdjust="spacing" textLength="4" x="998" y="32.1074">:</text><ellipse cx="911.5" cy="46.7422" fill="#000000" rx="2.5" ry="2.5" style="stroke:#000000;stroke-width:0.0;"/><text fill="#000000" filter="url(#b13s6e8w6h4xes0)" font-family="sans-serif" font-size="14" lengthAdjust="spacing" textLength="166" x="918" y="50.7285">Public API (for application)</text><ellipse cx="911.5" cy="65.3633" fill="#000000" rx="2.5" ry="2.5" style="stroke:#000000;stroke-width:0.0;"/><text fill="#000000" filter="url(#b13s6e8w6h4xes1)" font-family="sans-serif" font-size="14" lengthAdjust="spacing" textLength="104" x="918" y="69.3496">Private adapters</text><ellipse cx="911.5" cy="83.9844" fill="#000000" rx="2.5" ry="2.5" style="stroke:#000000;stroke-width:0.0;"/><text fill="#000000" filter="url(#b13s6e8w6h4xes2)" font-family="sans-serif" font-size="14" lengthAdjust="spacing" textLength="124" x="918" y="87.9707">Keypop internal API</text><!--cluster commonApi--><g id="cluster_commonApi"><path d="M114.5,115.498 L343.5,115.498 A3.75,3.75 0 0 1 346,117.998 L353,158.7402 L353.5,158.7402 A2.5,2.5 0 0 1 356,161.2402 L356,291.998 A2.5,2.5 0 0 1 353.5,294.498 L114.5,294.498 A2.5,2.5 0 0 1 112,291.998 L112,117.998 A2.5,2.5 0 0 1 114.5,115.498 " fill="#F8F9F9" style="stroke:#000000;stroke-width:1.5;"/><line style="stroke:#000000;stroke-width:1.5;" x1="112" x2="353" y1="158.7402" y2="158.7402"/><text fill="#000000" font-family="sans-serif" font-size="14" font-weight="bold" lengthAdjust="spacing" textLength="87" x="186.5" y="132.6055">Common API</text><text fill="#000000" font-family="sans-serif" font-size="14" font-weight="bold" lengthAdjust="spacing" textLength="228" x="116" y="151.2266">org.eclipse.keyple.core.common</text></g><!--cluster readerSelectionSpi--><g id="cluster_readerSelectionSpi"><path d="M545.5,115.498 L825.5,115.498 A3.75,3.75 0 0 1 828,117.998 L835,158.7402 L912.5,158.7402 A2.5,2.5 0 0 1 915,161.2402 L915,291.998 A2.5,2.5 0 0 1 912.5,294.498 L545.5,294.498 A2.5,2.5 0 0 1 543,291.998 L543,117.998 A2.5,2.5 0 0 1 545.5,115.498 " fill="#F8F9F9" style="stroke:#000000;stroke-width:1.5;"/><line style="stroke:#000000;stroke-width:1.5;" x1="543" x2="835" y1="158.7402" y2="158.7402"/><text fill="#000000" font-family="sans-serif" font-size="14" font-weight="bold" lengthAdjust="spacing" textLength="134" x="619.5" y="132.6055">Keypop Reader API</text><text fill="#000000" font-family="sans-serif" font-size="14" font-weight="bold" lengthAdjust="spacing" textLength="279" x="547" y="151.2266">org.eclipse.keypop.reader.selection.spi</text></g><!--cluster cardSpi--><g id="cluster_cardSpi"><path d="M690.5,738.498 L885.5,738.498 A3.75,3.75 0 0 1 888,740.998 L895,781.7402 L1703.5,781.7402 A2.5,2.5 0 0 1 1706,784.2402 L1706,914.998 A2.5,2.5 0 0 1 1703.5,917.498 L690.5,917.498 A2.5,2.5 0 0 1 688,914.998 L688,740.998 A2.5,2.5 0 0 1 690.5,738.498 " fill="#F8F9F9" style="stroke:#000000;stroke-width:1.5;"/><line style="stroke:#000000;stroke-width:1.5;" x1="688" x2="895" y1="781.7402" y2="781.7402"/><text fill="#000000" font-family="sans-serif" font-size="14" font-weight="bold" lengthAdjust="spacing" textLength="116" x="731" y="755.6055">Keypop Card API</text><text fill="#000000" font-family="sans-serif" font-size="14" font-weight="bold" lengthAdjust="spacing" textLength="194" x="692" y="774.2266">org.eclipse.keypop.card.spi</text></g><!--cluster specificExtension--><g id="cluster_specificExtension"><path d="M8.5,327.498 L201.5,327.498 A3.75,3.75 0 0 1 204,329.998 L211,370.7402 L1994.5,370.7402 A2.5,2.5 0 0 1 1997,373.2402 L1997,702.998 A2.5,2.5 0 0 1 1994.5,705.498 L8.5,705.498 A2.5,2.5 0 0 1 6,702.998 L6,329.998 A2.5,2.5 0 0 1 8.5,327.498 " fill="#F8F9F9" style="stroke:#000000;stroke-width:1.5;"/><line style="stroke:#000000;stroke-width:1.5;" x1="6" x2="211" y1="370.7402" y2="370.7402"/><text fill="#000000" font-family="sans-serif" font-size="14" font-weight="bold" lengthAdjust="spacing" textLength="136" x="38" y="344.6055">Card extension Xxx</text><text fill="#000000" font-family="sans-serif" font-size="14" font-weight="bold" lengthAdjust="spacing" textLength="192" x="10" y="363.2266">org.eclipse.keyple.card.xxx</text></g><!--class KeypleCardExtension--><g id="elem_KeypleCardExtension"><rect codeLine="59" fill="#FEFECE" height="66.6211" id="KeypleCardExtension" rx="2.5" ry="2.5" style="stroke:#D4AC0D;stroke-width:2.0;" width="178" x="145" y="211.498"/><ellipse cx="160" cy="227.498" fill="#B4A7E5" rx="11" ry="11" style="stroke:#181818;stroke-width:1.0;"/><path d="M160.9531,224.1387 L160.9531,230.7949 L162.6719,230.7949 Q163.2813,230.7949 163.5469,231.0293 Q163.8125,231.2637 163.8125,231.6543 Q163.8125,232.0293 163.5469,232.2637 Q163.2813,232.498 162.6719,232.498 L157.5313,232.498 Q156.9219,232.498 156.6563,232.2637 Q156.3906,232.0293 156.3906,231.6387 Q156.3906,231.2637 156.6563,231.0293 Q156.9219,230.7949 157.5313,230.7949 L159.25,230.7949 L159.25,224.1387 L157.5313,224.1387 Q156.9219,224.1387 156.6563,223.9043 Q156.3906,223.6699 156.3906,223.2793 Q156.3906,222.9043 156.6563,222.6699 Q156.9219,222.4355 157.5313,222.4355 L162.6719,222.4355 Q163.2813,222.4355 163.5469,222.6699 Q163.8125,222.9043 163.8125,223.2793 Q163.8125,223.6699 163.5469,223.9043 Q163.2813,224.1387 162.6719,224.1387 L160.9531,224.1387 Z " fill="#000000"/><ellipse cx="179" cy="226.998" fill="#84BE84" rx="3" ry="3" style="stroke:#038048;stroke-width:1.0;"/><text fill="#000000" font-family="sans-serif" font-size="14" font-style="italic" lengthAdjust="spacing" textLength="135" x="185" y="233.2949">KeypleCardExtension</text><line style="stroke:#D4AC0D;stroke-width:2.0;" x1="146" x2="322" y1="243.498" y2="243.498"/><line style="stroke:#D4AC0D;stroke-width:1.0;" x1="146" x2="322" y1="251.498" y2="251.498"/><text fill="#000000" font-family="sans-serif" font-size="14" lengthAdjust="spacing" textLength="12" x="151" y="270.6055">...</text></g><!--class CardSelectionExtension--><g id="elem_CardSelectionExtension"><rect codeLine="65" fill="#FEFECE" height="48" id="CardSelectionExtension" rx="2.5" ry="2.5" style="stroke:#D4AC0D;stroke-width:2.0;" width="193" x="559.5" y="220.998"/><ellipse cx="574.5" cy="236.998" fill="#B4A7E5" rx="11" ry="11" style="stroke:#181818;stroke-width:1.0;"/><path d="M575.4531,233.6387 L575.4531,240.2949 L577.1719,240.2949 Q577.7813,240.2949 578.0469,240.5293 Q578.3125,240.7637 578.3125,241.1543 Q578.3125,241.5293 578.0469,241.7637 Q577.7813,241.998 577.1719,241.998 L572.0313,241.998 Q571.4219,241.998 571.1563,241.7637 Q570.8906,241.5293 570.8906,241.1387 Q570.8906,240.7637 571.1563,240.5293 Q571.4219,240.2949 572.0313,240.2949 L573.75,240.2949 L573.75,233.6387 L572.0313,233.6387 Q571.4219,233.6387 571.1563,233.4043 Q570.8906,233.1699 570.8906,232.7793 Q570.8906,232.4043 571.1563,232.1699 Q571.4219,231.9355 572.0313,231.9355 L577.1719,231.9355 Q577.7813,231.9355 578.0469,232.1699 Q578.3125,232.4043 578.3125,232.7793 Q578.3125,233.1699 578.0469,233.4043 Q577.7813,233.6387 577.1719,233.6387 L575.4531,233.6387 Z " fill="#000000"/><ellipse cx="593.5" cy="236.498" fill="#84BE84" rx="3" ry="3" style="stroke:#038048;stroke-width:1.0;"/><text fill="#000000" font-family="sans-serif" font-size="14" font-style="italic" lengthAdjust="spacing" textLength="150" x="599.5" y="242.7949">CardSelectionExtension</text><line style="stroke:#D4AC0D;stroke-width:2.0;" x1="560.5" x2="751.5" y1="252.998" y2="252.998"/><line style="stroke:#D4AC0D;stroke-width:2.0;" x1="560.5" x2="751.5" y1="260.998" y2="260.998"/></g><!--class SmartCard--><g id="elem_SmartCard"><rect codeLine="67" fill="#FEFECE" height="66.6211" id="SmartCard" rx="2.5" ry="2.5" style="stroke:#D4AC0D;stroke-width:2.0;" width="111" x="787.5" y="211.498"/><ellipse cx="802.5" cy="227.498" fill="#B4A7E5" rx="11" ry="11" style="stroke:#181818;stroke-width:1.0;"/><path d="M803.4531,224.1387 L803.4531,230.7949 L805.1719,230.7949 Q805.7813,230.7949 806.0469,231.0293 Q806.3125,231.2637 806.3125,231.6543 Q806.3125,232.0293 806.0469,232.2637 Q805.7813,232.498 805.1719,232.498 L800.0313,232.498 Q799.4219,232.498 799.1563,232.2637 Q798.8906,232.0293 798.8906,231.6387 Q798.8906,231.2637 799.1563,231.0293 Q799.4219,230.7949 800.0313,230.7949 L801.75,230.7949 L801.75,224.1387 L800.0313,224.1387 Q799.4219,224.1387 799.1563,223.9043 Q798.8906,223.6699 798.8906,223.2793 Q798.8906,222.9043 799.1563,222.6699 Q799.4219,222.4355 800.0313,222.4355 L805.1719,222.4355 Q805.7813,222.4355 806.0469,222.6699 Q806.3125,222.9043 806.3125,223.2793 Q806.3125,223.6699 806.0469,223.9043 Q805.7813,224.1387 805.1719,224.1387 L803.4531,224.1387 Z " fill="#000000"/><ellipse cx="821.5" cy="226.998" fill="#84BE84" rx="3" ry="3" style="stroke:#038048;stroke-width:1.0;"/><text fill="#000000" font-family="sans-serif" font-size="14" font-style="italic" lengthAdjust="spacing" textLength="68" x="827.5" y="233.2949">SmartCard</text><line style="stroke:#D4AC0D;stroke-width:2.0;" x1="788.5" x2="897.5" y1="243.498" y2="243.498"/><line style="stroke:#D4AC0D;stroke-width:1.0;" x1="788.5" x2="897.5" y1="251.498" y2="251.498"/><text fill="#000000" font-family="sans-serif" font-size="14" lengthAdjust="spacing" textLength="12" x="793.5" y="270.6055">...</text></g><!--class CardSelectionExtensionSpi--><g id="elem_CardSelectionExtensionSpi"><rect codeLine="169" fill="#F4ECF7" height="66.6211" id="CardSelectionExtensionSpi" rx="2.5" ry="2.5" style="stroke:#8E44AD;stroke-width:2.0;" width="213" x="704.5" y="834.498"/><ellipse cx="719.5" cy="850.498" fill="#B4A7E5" rx="11" ry="11" style="stroke:#181818;stroke-width:1.0;"/><path d="M720.4531,847.1387 L720.4531,853.7949 L722.1719,853.7949 Q722.7813,853.7949 723.0469,854.0293 Q723.3125,854.2637 723.3125,854.6543 Q723.3125,855.0293 723.0469,855.2637 Q722.7813,855.498 722.1719,855.498 L717.0313,855.498 Q716.4219,855.498 716.1563,855.2637 Q715.8906,855.0293 715.8906,854.6387 Q715.8906,854.2637 716.1563,854.0293 Q716.4219,853.7949 717.0313,853.7949 L718.75,853.7949 L718.75,847.1387 L717.0313,847.1387 Q716.4219,847.1387 716.1563,846.9043 Q715.8906,846.6699 715.8906,846.2793 Q715.8906,845.9043 716.1563,845.6699 Q716.4219,845.4355 717.0313,845.4355 L722.1719,845.4355 Q722.7813,845.4355 723.0469,845.6699 Q723.3125,845.9043 723.3125,846.2793 Q723.3125,846.6699 723.0469,846.9043 Q722.7813,847.1387 722.1719,847.1387 L720.4531,847.1387 Z " fill="#000000"/><ellipse cx="738.5" cy="849.998" fill="#84BE84" rx="3" ry="3" style="stroke:#038048;stroke-width:1.0;"/><text fill="#000000" font-family="sans-serif" font-size="14" font-style="italic" lengthAdjust="spacing" textLength="170" x="744.5" y="856.2949">CardSelectionExtensionSpi</text><line style="stroke:#8E44AD;stroke-width:2.0;" x1="705.5" x2="916.5" y1="866.498" y2="866.498"/><line style="stroke:#8E44AD;stroke-width:1.0;" x1="705.5" x2="916.5" y1="874.498" y2="874.498"/><text fill="#000000" font-family="sans-serif" font-size="14" lengthAdjust="spacing" textLength="12" x="710.5" y="893.6055">...</text></g><!--class SmartCardSpi--><g id="elem_SmartCardSpi"><rect codeLine="170" fill="#F4ECF7" height="48" id="SmartCardSpi" rx="2.5" ry="2.5" style="stroke:#8E44AD;stroke-width:2.0;" width="131" x="952.5" y="843.998"/><ellipse cx="967.5" cy="859.998" fill="#B4A7E5" rx="11" ry="11" style="stroke:#181818;stroke-width:1.0;"/><path d="M968.4531,856.6387 L968.4531,863.2949 L970.1719,863.2949 Q970.7813,863.2949 971.0469,863.5293 Q971.3125,863.7637 971.3125,864.1543 Q971.3125,864.5293 971.0469,864.7637 Q970.7813,864.998 970.1719,864.998 L965.0313,864.998 Q964.4219,864.998 964.1563,864.7637 Q963.8906,864.5293 963.8906,864.1387 Q963.8906,863.7637 964.1563,863.5293 Q964.4219,863.2949 965.0313,863.2949 L966.75,863.2949 L966.75,856.6387 L965.0313,856.6387 Q964.4219,856.6387 964.1563,856.4043 Q963.8906,856.1699 963.8906,855.7793 Q963.8906,855.4043 964.1563,855.1699 Q964.4219,854.9355 965.0313,854.9355 L970.1719,854.9355 Q970.7813,854.9355 971.0469,855.1699 Q971.3125,855.4043 971.3125,855.7793 Q971.3125,856.1699 971.0469,856.4043 Q970.7813,856.6387 970.1719,856.6387 L968.4531,856.6387 Z " fill="#000000"/><ellipse cx="986.5" cy="859.498" fill="#84BE84" rx="3" ry="3" style="stroke:#038048;stroke-width:1.0;"/><text fill="#000000" font-family="sans-serif" font-size="14" font-style="italic" lengthAdjust="spacing" textLength="88" x="992.5" y="865.7949">SmartCardSpi</text><line style="stroke:#8E44AD;stroke-width:2.0;" x1="953.5" x2="1082.5" y1="875.998" y2="875.998"/><line style="stroke:#8E44AD;stroke-width:2.0;" x1="953.5" x2="1082.5" y1="883.998" y2="883.998"/></g><!--class CardSelectionRequestSpi--><g id="elem_CardSelectionRequestSpi"><rect codeLine="171" fill="#F4ECF7" height="66.6211" id="CardSelectionRequestSpi" rx="2.5" ry="2.5" style="stroke:#8E44AD;stroke-width:2.0;" width="205" x="1118.5" y="834.498"/><ellipse cx="1133.5" cy="850.498" fill="#B4A7E5" rx="11" ry="11" style="stroke:#181818;stroke-width:1.0;"/><path d="M1134.4531,847.1387 L1134.4531,853.7949 L1136.1719,853.7949 Q1136.7813,853.7949 1137.0469,854.0293 Q1137.3125,854.2637 1137.3125,854.6543 Q1137.3125,855.0293 1137.0469,855.2637 Q1136.7813,855.498 1136.1719,855.498 L1131.0313,855.498 Q1130.4219,855.498 1130.1563,855.2637 Q1129.8906,855.0293 1129.8906,854.6387 Q1129.8906,854.2637 1130.1563,854.0293 Q1130.4219,853.7949 1131.0313,853.7949 L1132.75,853.7949 L1132.75,847.1387 L1131.0313,847.1387 Q1130.4219,847.1387 1130.1563,846.9043 Q1129.8906,846.6699 1129.8906,846.2793 Q1129.8906,845.9043 1130.1563,845.6699 Q1130.4219,845.4355 1131.0313,845.4355 L1136.1719,845.4355 Q1136.7813,845.4355 1137.0469,845.6699 Q1137.3125,845.9043 1137.3125,846.2793 Q1137.3125,846.6699 1137.0469,846.9043 Q1136.7813,847.1387 1136.1719,847.1387 L1134.4531,847.1387 Z " fill="#000000"/><ellipse cx="1152.5" cy="849.998" fill="#84BE84" rx="3" ry="3" style="stroke:#038048;stroke-width:1.0;"/><text fill="#000000" font-family="sans-serif" font-size="14" font-style="italic" lengthAdjust="spacing" textLength="162" x="1158.5" y="856.2949">CardSelectionRequestSpi</text><line style="stroke:#8E44AD;stroke-width:2.0;" x1="1119.5" x2="1322.5" y1="866.498" y2="866.498"/><line style="stroke:#8E44AD;stroke-width:1.0;" x1="1119.5" x2="1322.5" y1="874.498" y2="874.498"/><text fill="#000000" font-family="sans-serif" font-size="14" lengthAdjust="spacing" textLength="12" x="1124.5" y="893.6055">...</text></g><!--class CardRequestSpi--><g id="elem_CardRequestSpi"><rect codeLine="172" fill="#F4ECF7" height="66.6211" id="CardRequestSpi" rx="2.5" ry="2.5" style="stroke:#8E44AD;stroke-width:2.0;" width="147" x="1358.5" y="834.498"/><ellipse cx="1373.5" cy="850.498" fill="#B4A7E5" rx="11" ry="11" style="stroke:#181818;stroke-width:1.0;"/><path d="M1374.4531,847.1387 L1374.4531,853.7949 L1376.1719,853.7949 Q1376.7813,853.7949 1377.0469,854.0293 Q1377.3125,854.2637 1377.3125,854.6543 Q1377.3125,855.0293 1377.0469,855.2637 Q1376.7813,855.498 1376.1719,855.498 L1371.0313,855.498 Q1370.4219,855.498 1370.1563,855.2637 Q1369.8906,855.0293 1369.8906,854.6387 Q1369.8906,854.2637 1370.1563,854.0293 Q1370.4219,853.7949 1371.0313,853.7949 L1372.75,853.7949 L1372.75,847.1387 L1371.0313,847.1387 Q1370.4219,847.1387 1370.1563,846.9043 Q1369.8906,846.6699 1369.8906,846.2793 Q1369.8906,845.9043 1370.1563,845.6699 Q1370.4219,845.4355 1371.0313,845.4355 L1376.1719,845.4355 Q1376.7813,845.4355 1377.0469,845.6699 Q1377.3125,845.9043 1377.3125,846.2793 Q1377.3125,846.6699 1377.0469,846.9043 Q1376.7813,847.1387 1376.1719,847.1387 L1374.4531,847.1387 Z " fill="#000000"/><ellipse cx="1392.5" cy="849.998" fill="#84BE84" rx="3" ry="3" style="stroke:#038048;stroke-width:1.0;"/><text fill="#000000" font-family="sans-serif" font-size="14" font-style="italic" lengthAdjust="spacing" textLength="104" x="1398.5" y="856.2949">CardRequestSpi</text><line style="stroke:#8E44AD;stroke-width:2.0;" x1="1359.5" x2="1504.5" y1="866.498" y2="866.498"/><line style="stroke:#8E44AD;stroke-width:1.0;" x1="1359.5" x2="1504.5" y1="874.498" y2="874.498"/><text fill="#000000" font-family="sans-serif" font-size="14" lengthAdjust="spacing" textLength="12" x="1364.5" y="893.6055">...</text></g><!--class ApduRequestSpi--><g id="elem_ApduRequestSpi"><rect codeLine="173" fill="#F4ECF7" height="66.6211" id="ApduRequestSpi" rx="2.5" ry="2.5" style="stroke:#8E44AD;stroke-width:2.0;" width="149" x="1540.5" y="834.498"/><ellipse cx="1555.5" cy="850.498" fill="#B4A7E5" rx="11" ry="11" style="stroke:#181818;stroke-width:1.0;"/><path d="M1556.4531,847.1387 L1556.4531,853.7949 L1558.1719,853.7949 Q1558.7813,853.7949 1559.0469,854.0293 Q1559.3125,854.2637 1559.3125,854.6543 Q1559.3125,855.0293 1559.0469,855.2637 Q1558.7813,855.498 1558.1719,855.498 L1553.0313,855.498 Q1552.4219,855.498 1552.1563,855.2637 Q1551.8906,855.0293 1551.8906,854.6387 Q1551.8906,854.2637 1552.1563,854.0293 Q1552.4219,853.7949 1553.0313,853.7949 L1554.75,853.7949 L1554.75,847.1387 L1553.0313,847.1387 Q1552.4219,847.1387 1552.1563,846.9043 Q1551.8906,846.6699 1551.8906,846.2793 Q1551.8906,845.9043 1552.1563,845.6699 Q1552.4219,845.4355 1553.0313,845.4355 L1558.1719,845.4355 Q1558.7813,845.4355 1559.0469,845.6699 Q1559.3125,845.9043 1559.3125,846.2793 Q1559.3125,846.6699 1559.0469,846.9043 Q1558.7813,847.1387 1558.1719,847.1387 L1556.4531,847.1387 Z " fill="#000000"/><ellipse cx="1574.5" cy="849.998" fill="#84BE84" rx="3" ry="3" style="stroke:#038048;stroke-width:1.0;"/><text fill="#000000" font-family="sans-serif" font-size="14" font-style="italic" lengthAdjust="spacing" textLength="106" x="1580.5" y="856.2949">ApduRequestSpi</text><line style="stroke:#8E44AD;stroke-width:2.0;" x1="1541.5" x2="1688.5" y1="866.498" y2="866.498"/><line style="stroke:#8E44AD;stroke-width:1.0;" x1="1541.5" x2="1688.5" y1="874.498" y2="874.498"/><text fill="#000000" font-family="sans-serif" font-size="14" lengthAdjust="spacing" textLength="12" x="1546.5" y="893.6055">...</text></g><!--class XxxCardExtensionService--><g id="elem_XxxCardExtensionService"><rect codeLine="94" fill="#FEFECE" height="111.8633" id="XxxCardExtensionService" rx="2.5" ry="2.5" style="stroke:#D4AC0D;stroke-width:2.0;" width="424" x="22" y="423.498"/><ellipse cx="127.75" cy="439.498" fill="#ADD1B2" rx="11" ry="11" style="stroke:#181818;stroke-width:1.0;"/><path d="M130.5156,435.373 Q130.6719,435.1543 130.8594,435.0449 Q131.0469,434.9355 131.2656,434.9355 Q131.6406,434.9355 131.875,435.2012 Q132.1094,435.4512 132.1094,436.0605 L132.1094,437.5137 Q132.1094,438.123 131.875,438.3887 Q131.6406,438.6543 131.2656,438.6543 Q130.9219,438.6543 130.7188,438.4512 Q130.5156,438.2637 130.4063,437.748 Q130.3594,437.3887 130.1719,437.2012 Q129.8438,436.8262 129.2344,436.6074 Q128.625,436.3887 128,436.3887 Q127.2344,436.3887 126.5938,436.7168 Q125.9688,437.0449 125.4688,437.7949 Q124.9844,438.5449 124.9844,439.5762 L124.9844,440.6699 Q124.9844,441.9043 125.875,442.7324 Q126.7656,443.5449 128.3594,443.5449 Q129.2969,443.5449 129.9531,443.2949 Q130.3438,443.1387 130.7656,442.7012 Q131.0313,442.4355 131.1719,442.3574 Q131.3281,442.2793 131.5313,442.2793 Q131.8594,442.2793 132.1094,442.5449 Q132.375,442.7949 132.375,443.1387 Q132.375,443.4824 132.0313,443.8887 Q131.5313,444.4668 130.7344,444.7949 Q129.6563,445.248 128.3594,445.248 Q126.8438,445.248 125.6406,444.623 Q124.6563,444.123 123.9688,443.0605 Q123.2813,441.9824 123.2813,440.7012 L123.2813,439.5449 Q123.2813,438.2168 123.8906,437.0762 Q124.5156,435.9199 125.6094,435.3105 Q126.7031,434.6855 127.9375,434.6855 Q128.6719,434.6855 129.3125,434.8574 Q129.9688,435.0137 130.5156,435.373 Z " fill="#000000"/><ellipse cx="153.25" cy="438.998" fill="#84BE84" rx="3" ry="3" style="stroke:#038048;stroke-width:1.0;"/><text fill="#000000" font-family="sans-serif" font-size="14" font-weight="bold" lengthAdjust="spacing" textLength="30" x="159.25" y="445.2949">final</text><text fill="#000000" font-family="sans-serif" font-size="14" lengthAdjust="spacing" textLength="159" x="193.25" y="445.2949">XxxCardExtensionService</text><line style="stroke:#D4AC0D;stroke-width:2.0;" x1="23" x2="445" y1="455.498" y2="455.498"/><line style="stroke:#D4AC0D;stroke-width:1.0;" x1="23" x2="445" y1="463.498" y2="463.498"/><ellipse cx="33" cy="478.3086" fill="#84BE84" rx="3" ry="3" style="stroke:#038048;stroke-width:1.0;"/><text fill="#000000" font-family="sans-serif" font-size="14" lengthAdjust="spacing" text-decoration="underline" textLength="250" x="42" y="482.6055">XxxCardExtensionService getInstance ()</text><line style="stroke:#D4AC0D;stroke-width:1.0;stroke-dasharray:1.0,2.0;" x1="23" x2="445" y1="490.1191" y2="490.1191"/><ellipse cx="33" cy="504.9297" fill="#84BE84" rx="3" ry="3" style="stroke:#038048;stroke-width:1.0;"/><text fill="#000000" font-family="sans-serif" font-size="14" lengthAdjust="spacing" textLength="398" x="42" y="509.2266">XxxCardSelectionExtension createXxxCardSelectionExtension ()</text><text fill="#000000" font-family="sans-serif" font-size="14" lengthAdjust="spacing" textLength="12" x="42" y="527.8477">...</text></g><!--class XxxCardSelectionExtension--><g id="elem_XxxCardSelectionExtension"><rect codeLine="103" fill="#FEFECE" height="66.6211" id="XxxCardSelectionExtension" rx="2.5" ry="2.5" style="stroke:#D4AC0D;stroke-width:2.0;" width="214" x="504" y="445.998"/><ellipse cx="519" cy="461.998" fill="#B4A7E5" rx="11" ry="11" style="stroke:#181818;stroke-width:1.0;"/><path d="M519.9531,458.6387 L519.9531,465.2949 L521.6719,465.2949 Q522.2813,465.2949 522.5469,465.5293 Q522.8125,465.7637 522.8125,466.1543 Q522.8125,466.5293 522.5469,466.7637 Q522.2813,466.998 521.6719,466.998 L516.5313,466.998 Q515.9219,466.998 515.6563,466.7637 Q515.3906,466.5293 515.3906,466.1387 Q515.3906,465.7637 515.6563,465.5293 Q515.9219,465.2949 516.5313,465.2949 L518.25,465.2949 L518.25,458.6387 L516.5313,458.6387 Q515.9219,458.6387 515.6563,458.4043 Q515.3906,458.1699 515.3906,457.7793 Q515.3906,457.4043 515.6563,457.1699 Q515.9219,456.9355 516.5313,456.9355 L521.6719,456.9355 Q522.2813,456.9355 522.5469,457.1699 Q522.8125,457.4043 522.8125,457.7793 Q522.8125,458.1699 522.5469,458.4043 Q522.2813,458.6387 521.6719,458.6387 L519.9531,458.6387 Z " fill="#000000"/><ellipse cx="538" cy="461.498" fill="#84BE84" rx="3" ry="3" style="stroke:#038048;stroke-width:1.0;"/><text fill="#000000" font-family="sans-serif" font-size="14" font-style="italic" lengthAdjust="spacing" textLength="171" x="544" y="467.7949">XxxCardSelectionExtension</text><line style="stroke:#D4AC0D;stroke-width:2.0;" x1="505" x2="717" y1="477.998" y2="477.998"/><line style="stroke:#D4AC0D;stroke-width:1.0;" x1="505" x2="717" y1="485.998" y2="485.998"/><text fill="#000000" font-family="sans-serif" font-size="14" lengthAdjust="spacing" textLength="174" x="510" y="505.1055">custom settings... (optional)</text></g><!--class XxxSmartCard--><g id="elem_XxxSmartCard"><rect codeLine="107" fill="#FEFECE" height="66.6211" id="XxxSmartCard" rx="2.5" ry="2.5" style="stroke:#D4AC0D;stroke-width:2.0;" width="186" x="777" y="445.998"/><ellipse cx="816.3" cy="461.998" fill="#B4A7E5" rx="11" ry="11" style="stroke:#181818;stroke-width:1.0;"/><path d="M817.2531,458.6387 L817.2531,465.2949 L818.9719,465.2949 Q819.5813,465.2949 819.8469,465.5293 Q820.1125,465.7637 820.1125,466.1543 Q820.1125,466.5293 819.8469,466.7637 Q819.5813,466.998 818.9719,466.998 L813.8313,466.998 Q813.2219,466.998 812.9563,466.7637 Q812.6906,466.5293 812.6906,466.1387 Q812.6906,465.7637 812.9563,465.5293 Q813.2219,465.2949 813.8313,465.2949 L815.55,465.2949 L815.55,458.6387 L813.8313,458.6387 Q813.2219,458.6387 812.9563,458.4043 Q812.6906,458.1699 812.6906,457.7793 Q812.6906,457.4043 812.9563,457.1699 Q813.2219,456.9355 813.8313,456.9355 L818.9719,456.9355 Q819.5813,456.9355 819.8469,457.1699 Q820.1125,457.4043 820.1125,457.7793 Q820.1125,458.1699 819.8469,458.4043 Q819.5813,458.6387 818.9719,458.6387 L817.2531,458.6387 Z " fill="#000000"/><ellipse cx="840.7" cy="461.498" fill="#84BE84" rx="3" ry="3" style="stroke:#038048;stroke-width:1.0;"/><text fill="#000000" font-family="sans-serif" font-size="14" font-style="italic" lengthAdjust="spacing" textLength="89" x="846.7" y="467.7949">XxxSmartCard</text><line style="stroke:#D4AC0D;stroke-width:2.0;" x1="778" x2="962" y1="477.998" y2="477.998"/><line style="stroke:#D4AC0D;stroke-width:1.0;" x1="778" x2="962" y1="485.998" y2="485.998"/><text fill="#000000" font-family="sans-serif" font-size="14" lengthAdjust="spacing" textLength="174" x="783" y="505.1055">custom settings... (optional)</text></g><!--class CardSelectionAdapter--><g id="elem_CardSelectionAdapter"><rect codeLine="164" fill="#EBF5FB" height="66.6211" id="CardSelectionAdapter" rx="2.5" ry="2.5" style="stroke:#3498DB;stroke-width:2.0;" width="297" x="462.5" y="614.498"/><ellipse cx="477.5" cy="630.498" fill="#ADD1B2" rx="11" ry="11" style="stroke:#181818;stroke-width:1.0;"/><path d="M480.2656,626.373 Q480.4219,626.1543 480.6094,626.0449 Q480.7969,625.9355 481.0156,625.9355 Q481.3906,625.9355 481.625,626.2012 Q481.8594,626.4512 481.8594,627.0605 L481.8594,628.5137 Q481.8594,629.123 481.625,629.3887 Q481.3906,629.6543 481.0156,629.6543 Q480.6719,629.6543 480.4688,629.4512 Q480.2656,629.2637 480.1563,628.748 Q480.1094,628.3887 479.9219,628.2012 Q479.5938,627.8262 478.9844,627.6074 Q478.375,627.3887 477.75,627.3887 Q476.9844,627.3887 476.3438,627.7168 Q475.7188,628.0449 475.2188,628.7949 Q474.7344,629.5449 474.7344,630.5762 L474.7344,631.6699 Q474.7344,632.9043 475.625,633.7324 Q476.5156,634.5449 478.1094,634.5449 Q479.0469,634.5449 479.7031,634.2949 Q480.0938,634.1387 480.5156,633.7012 Q480.7813,633.4355 480.9219,633.3574 Q481.0781,633.2793 481.2813,633.2793 Q481.6094,633.2793 481.8594,633.5449 Q482.125,633.7949 482.125,634.1387 Q482.125,634.4824 481.7813,634.8887 Q481.2813,635.4668 480.4844,635.7949 Q479.4063,636.248 478.1094,636.248 Q476.5938,636.248 475.3906,635.623 Q474.4063,635.123 473.7188,634.0605 Q473.0313,632.9824 473.0313,631.7012 L473.0313,630.5449 Q473.0313,629.2168 473.6406,628.0762 Q474.2656,626.9199 475.3594,626.3105 Q476.4531,625.6855 477.6875,625.6855 Q478.4219,625.6855 479.0625,625.8574 Q479.7188,626.0137 480.2656,626.373 Z " fill="#000000"/><polygon fill="#4177AF" points="496.5,625.998,492.5,631.998,500.5,631.998" style="stroke:#1963A0;stroke-width:1.0;"/><text fill="#000000" font-family="sans-serif" font-size="14" font-weight="bold" lengthAdjust="spacing" textLength="30" x="502.5" y="636.2949">final</text><text fill="#000000" font-family="sans-serif" font-size="14" lengthAdjust="spacing" textLength="220" x="536.5" y="636.2949">XxxCardSelectionExtensionAdapter</text><line style="stroke:#3498DB;stroke-width:2.0;" x1="463.5" x2="758.5" y1="646.498" y2="646.498"/><line style="stroke:#3498DB;stroke-width:1.0;" x1="463.5" x2="758.5" y1="654.498" y2="654.498"/><text fill="#000000" font-family="sans-serif" font-size="14" lengthAdjust="spacing" textLength="12" x="468.5" y="673.6055">...</text></g><!--class SmartCardAdapter--><g id="elem_SmartCardAdapter"><rect codeLine="165" fill="#EBF5FB" height="66.6211" id="SmartCardAdapter" rx="2.5" ry="2.5" style="stroke:#3498DB;stroke-width:2.0;" width="215" x="849.5" y="614.498"/><ellipse cx="864.5" cy="630.498" fill="#ADD1B2" rx="11" ry="11" style="stroke:#181818;stroke-width:1.0;"/><path d="M867.2656,626.373 Q867.4219,626.1543 867.6094,626.0449 Q867.7969,625.9355 868.0156,625.9355 Q868.3906,625.9355 868.625,626.2012 Q868.8594,626.4512 868.8594,627.0605 L868.8594,628.5137 Q868.8594,629.123 868.625,629.3887 Q868.3906,629.6543 868.0156,629.6543 Q867.6719,629.6543 867.4688,629.4512 Q867.2656,629.2637 867.1563,628.748 Q867.1094,628.3887 866.9219,628.2012 Q866.5938,627.8262 865.9844,627.6074 Q865.375,627.3887 864.75,627.3887 Q863.9844,627.3887 863.3438,627.7168 Q862.7188,628.0449 862.2188,628.7949 Q861.7344,629.5449 861.7344,630.5762 L861.7344,631.6699 Q861.7344,632.9043 862.625,633.7324 Q863.5156,634.5449 865.1094,634.5449 Q866.0469,634.5449 866.7031,634.2949 Q867.0938,634.1387 867.5156,633.7012 Q867.7813,633.4355 867.9219,633.3574 Q868.0781,633.2793 868.2813,633.2793 Q868.6094,633.2793 868.8594,633.5449 Q869.125,633.7949 869.125,634.1387 Q869.125,634.4824 868.7813,634.8887 Q868.2813,635.4668 867.4844,635.7949 Q866.4063,636.248 865.1094,636.248 Q863.5938,636.248 862.3906,635.623 Q861.4063,635.123 860.7188,634.0605 Q860.0313,632.9824 860.0313,631.7012 L860.0313,630.5449 Q860.0313,629.2168 860.6406,628.0762 Q861.2656,626.9199 862.3594,626.3105 Q863.4531,625.6855 864.6875,625.6855 Q865.4219,625.6855 866.0625,625.8574 Q866.7188,626.0137 867.2656,626.373 Z " fill="#000000"/><polygon fill="#4177AF" points="883.5,625.998,879.5,631.998,887.5,631.998" style="stroke:#1963A0;stroke-width:1.0;"/><text fill="#000000" font-family="sans-serif" font-size="14" font-weight="bold" lengthAdjust="spacing" textLength="30" x="889.5" y="636.2949">final</text><text fill="#000000" font-family="sans-serif" font-size="14" lengthAdjust="spacing" textLength="138" x="923.5" y="636.2949">XxxSmartCardAdapter</text><line style="stroke:#3498DB;stroke-width:2.0;" x1="850.5" x2="1063.5" y1="646.498" y2="646.498"/><line style="stroke:#3498DB;stroke-width:1.0;" x1="850.5" x2="1063.5" y1="654.498" y2="654.498"/><text fill="#000000" font-family="sans-serif" font-size="14" lengthAdjust="spacing" textLength="12" x="855.5" y="673.6055">...</text></g><!--class CardSelectionRequestAdapter--><g id="elem_CardSelectionRequestAdapter"><rect codeLine="166" fill="#EBF5FB" height="66.6211" id="CardSelectionRequestAdapter" rx="2.5" ry="2.5" style="stroke:#3498DB;stroke-width:2.0;" width="269" x="1099.5" y="614.498"/><ellipse cx="1114.5" cy="630.498" fill="#ADD1B2" rx="11" ry="11" style="stroke:#181818;stroke-width:1.0;"/><path d="M1117.2656,626.373 Q1117.4219,626.1543 1117.6094,626.0449 Q1117.7969,625.9355 1118.0156,625.9355 Q1118.3906,625.9355 1118.625,626.2012 Q1118.8594,626.4512 1118.8594,627.0605 L1118.8594,628.5137 Q1118.8594,629.123 1118.625,629.3887 Q1118.3906,629.6543 1118.0156,629.6543 Q1117.6719,629.6543 1117.4688,629.4512 Q1117.2656,629.2637 1117.1563,628.748 Q1117.1094,628.3887 1116.9219,628.2012 Q1116.5938,627.8262 1115.9844,627.6074 Q1115.375,627.3887 1114.75,627.3887 Q1113.9844,627.3887 1113.3438,627.7168 Q1112.7188,628.0449 1112.2188,628.7949 Q1111.7344,629.5449 1111.7344,630.5762 L1111.7344,631.6699 Q1111.7344,632.9043 1112.625,633.7324 Q1113.5156,634.5449 1115.1094,634.5449 Q1116.0469,634.5449 1116.7031,634.2949 Q1117.0938,634.1387 1117.5156,633.7012 Q1117.7813,633.4355 1117.9219,633.3574 Q1118.0781,633.2793 1118.2813,633.2793 Q1118.6094,633.2793 1118.8594,633.5449 Q1119.125,633.7949 1119.125,634.1387 Q1119.125,634.4824 1118.7813,634.8887 Q1118.2813,635.4668 1117.4844,635.7949 Q1116.4063,636.248 1115.1094,636.248 Q1113.5938,636.248 1112.3906,635.623 Q1111.4063,635.123 1110.7188,634.0605 Q1110.0313,632.9824 1110.0313,631.7012 L1110.0313,630.5449 Q1110.0313,629.2168 1110.6406,628.0762 Q1111.2656,626.9199 1112.3594,626.3105 Q1113.4531,625.6855 1114.6875,625.6855 Q1115.4219,625.6855 1116.0625,625.8574 Q1116.7188,626.0137 1117.2656,626.373 Z " fill="#000000"/><polygon fill="#4177AF" points="1133.5,625.998,1129.5,631.998,1137.5,631.998" style="stroke:#1963A0;stroke-width:1.0;"/><text fill="#000000" font-family="sans-serif" font-size="14" font-weight="bold" lengthAdjust="spacing" textLength="30" x="1139.5" y="636.2949">final</text><text fill="#000000" font-family="sans-serif" font-size="14" lengthAdjust="spacing" textLength="192" x="1173.5" y="636.2949">CardSelectionRequestAdapter</text><line style="stroke:#3498DB;stroke-width:2.0;" x1="1100.5" x2="1367.5" y1="646.498" y2="646.498"/><line style="stroke:#3498DB;stroke-width:1.0;" x1="1100.5" x2="1367.5" y1="654.498" y2="654.498"/><text fill="#000000" font-family="sans-serif" font-size="14" lengthAdjust="spacing" textLength="12" x="1105.5" y="673.6055">...</text></g><!--class CardRequestAdapter--><g id="elem_CardRequestAdapter"><rect codeLine="167" fill="#EBF5FB" height="66.6211" id="CardRequestAdapter" rx="2.5" ry="2.5" style="stroke:#3498DB;stroke-width:2.0;" width="211" x="1458.5" y="614.498"/><ellipse cx="1473.5" cy="630.498" fill="#ADD1B2" rx="11" ry="11" style="stroke:#181818;stroke-width:1.0;"/><path d="M1476.2656,626.373 Q1476.4219,626.1543 1476.6094,626.0449 Q1476.7969,625.9355 1477.0156,625.9355 Q1477.3906,625.9355 1477.625,626.2012 Q1477.8594,626.4512 1477.8594,627.0605 L1477.8594,628.5137 Q1477.8594,629.123 1477.625,629.3887 Q1477.3906,629.6543 1477.0156,629.6543 Q1476.6719,629.6543 1476.4688,629.4512 Q1476.2656,629.2637 1476.1563,628.748 Q1476.1094,628.3887 1475.9219,628.2012 Q1475.5938,627.8262 1474.9844,627.6074 Q1474.375,627.3887 1473.75,627.3887 Q1472.9844,627.3887 1472.3438,627.7168 Q1471.7188,628.0449 1471.2188,628.7949 Q1470.7344,629.5449 1470.7344,630.5762 L1470.7344,631.6699 Q1470.7344,632.9043 1471.625,633.7324 Q1472.5156,634.5449 1474.1094,634.5449 Q1475.0469,634.5449 1475.7031,634.2949 Q1476.0938,634.1387 1476.5156,633.7012 Q1476.7813,633.4355 1476.9219,633.3574 Q1477.0781,633.2793 1477.2813,633.2793 Q1477.6094,633.2793 1477.8594,633.5449 Q1478.125,633.7949 1478.125,634.1387 Q1478.125,634.4824 1477.7813,634.8887 Q1477.2813,635.4668 1476.4844,635.7949 Q1475.4063,636.248 1474.1094,636.248 Q1472.5938,636.248 1471.3906,635.623 Q1470.4063,635.123 1469.7188,634.0605 Q1469.0313,632.9824 1469.0313,631.7012 L1469.0313,630.5449 Q1469.0313,629.2168 1469.6406,628.0762 Q1470.2656,626.9199 1471.3594,626.3105 Q1472.4531,625.6855 1473.6875,625.6855 Q1474.4219,625.6855 1475.0625,625.8574 Q1475.7188,626.0137 1476.2656,626.373 Z " fill="#000000"/><polygon fill="#4177AF" points="1492.5,625.998,1488.5,631.998,1496.5,631.998" style="stroke:#1963A0;stroke-width:1.0;"/><text fill="#000000" font-family="sans-serif" font-size="14" font-weight="bold" lengthAdjust="spacing" textLength="30" x="1498.5" y="636.2949">final</text><text fill="#000000" font-family="sans-serif" font-size="14" lengthAdjust="spacing" textLength="134" x="1532.5" y="636.2949">CardRequestAdapter</text><line style="stroke:#3498DB;stroke-width:2.0;" x1="1459.5" x2="1668.5" y1="646.498" y2="646.498"/><line style="stroke:#3498DB;stroke-width:1.0;" x1="1459.5" x2="1668.5" y1="654.498" y2="654.498"/><text fill="#000000" font-family="sans-serif" font-size="14" lengthAdjust="spacing" textLength="12" x="1464.5" y="673.6055">...</text></g><!--class ApduRequestAdapter--><g id="elem_ApduRequestAdapter"><rect codeLine="168" fill="#EBF5FB" height="66.6211" id="ApduRequestAdapter" rx="2.5" ry="2.5" style="stroke:#3498DB;stroke-width:2.0;" width="213" x="1759.5" y="614.498"/><ellipse cx="1774.5" cy="630.498" fill="#ADD1B2" rx="11" ry="11" style="stroke:#181818;stroke-width:1.0;"/><path d="M1777.2656,626.373 Q1777.4219,626.1543 1777.6094,626.0449 Q1777.7969,625.9355 1778.0156,625.9355 Q1778.3906,625.9355 1778.625,626.2012 Q1778.8594,626.4512 1778.8594,627.0605 L1778.8594,628.5137 Q1778.8594,629.123 1778.625,629.3887 Q1778.3906,629.6543 1778.0156,629.6543 Q1777.6719,629.6543 1777.4688,629.4512 Q1777.2656,629.2637 1777.1563,628.748 Q1777.1094,628.3887 1776.9219,628.2012 Q1776.5938,627.8262 1775.9844,627.6074 Q1775.375,627.3887 1774.75,627.3887 Q1773.9844,627.3887 1773.3438,627.7168 Q1772.7188,628.0449 1772.2188,628.7949 Q1771.7344,629.5449 1771.7344,630.5762 L1771.7344,631.6699 Q1771.7344,632.9043 1772.625,633.7324 Q1773.5156,634.5449 1775.1094,634.5449 Q1776.0469,634.5449 1776.7031,634.2949 Q1777.0938,634.1387 1777.5156,633.7012 Q1777.7813,633.4355 1777.9219,633.3574 Q1778.0781,633.2793 1778.2813,633.2793 Q1778.6094,633.2793 1778.8594,633.5449 Q1779.125,633.7949 1779.125,634.1387 Q1779.125,634.4824 1778.7813,634.8887 Q1778.2813,635.4668 1777.4844,635.7949 Q1776.4063,636.248 1775.1094,636.248 Q1773.5938,636.248 1772.3906,635.623 Q1771.4063,635.123 1770.7188,634.0605 Q1770.0313,632.9824 1770.0313,631.7012 L1770.0313,630.5449 Q1770.0313,629.2168 1770.6406,628.0762 Q1771.2656,626.9199 1772.3594,626.3105 Q1773.4531,625.6855 1774.6875,625.6855 Q1775.4219,625.6855 1776.0625,625.8574 Q1776.7188,626.0137 1777.2656,626.373 Z " fill="#000000"/><polygon fill="#4177AF" points="1793.5,625.998,1789.5,631.998,1797.5,631.998" style="stroke:#1963A0;stroke-width:1.0;"/><text fill="#000000" font-family="sans-serif" font-size="14" font-weight="bold" lengthAdjust="spacing" textLength="30" x="1799.5" y="636.2949">final</text><text fill="#000000" font-family="sans-serif" font-size="14" lengthAdjust="spacing" textLength="136" x="1833.5" y="636.2949">ApduRequestAdapter</text><line style="stroke:#3498DB;stroke-width:2.0;" x1="1760.5" x2="1971.5" y1="646.498" y2="646.498"/><line style="stroke:#3498DB;stroke-width:1.0;" x1="1760.5" x2="1971.5" y1="654.498" y2="654.498"/><text fill="#000000" font-family="sans-serif" font-size="14" lengthAdjust="spacing" textLength="12" x="1765.5" y="673.6055">...</text></g><!--reverse link KeypleCardExtension to XxxCardExtensionService--><g id="link_KeypleCardExtension_XxxCardExtensionService"><path d="M234,296.816 C234,334.368 234,378.469 234,423.459 " fill="none" id="KeypleCardExtension-backto-XxxCardExtensionService" style="stroke:#181818;stroke-width:2.0;stroke-dasharray:7.0,7.0;"/><polygon fill="none" points="234,278.816,228,296.816,240,296.816,234,278.816" style="stroke:#181818;stroke-width:2.0;"/></g><!--reverse link CardSelectionExtension to XxxCardSelectionExtension--><g id="link_CardSelectionExtension_XxxCardSelectionExtension"><path d="M648.1004,286.813 C640.0524,328.392 626.549,398.16 617.324,445.825 " fill="none" id="CardSelectionExtension-backto-XxxCardSelectionExtension" style="stroke:#181818;stroke-width:2.0;"/><polygon fill="none" points="651.521,269.141,642.2098,285.6729,653.9911,287.9532,651.521,269.141" style="stroke:#181818;stroke-width:2.0;"/></g><!--reverse link SmartCard to XxxSmartCard--><g id="link_SmartCard_XxxSmartCard"><path d="M848.8874,296.6959 C854.0334,341.0079 861.072,401.621 866.208,445.846 " fill="none" id="SmartCard-backto-XxxSmartCard" style="stroke:#181818;stroke-width:2.0;"/><polygon fill="none" points="846.811,278.816,842.9275,297.388,854.8473,296.0037,846.811,278.816" style="stroke:#181818;stroke-width:2.0;"/></g><!--reverse link XxxCardSelectionExtension to CardSelectionAdapter--><g id="link_XxxCardSelectionExtension_CardSelectionAdapter"><path d="M598.6784,531.2897 C595.5274,560.5747 597.465,585.278 600.642,614.455 " fill="none" id="XxxCardSelectionExtension-backto-CardSelectionAdapter" style="stroke:#181818;stroke-width:2.0;stroke-dasharray:7.0,7.0;"/><polygon fill="none" points="600.604,513.393,592.7128,530.6479,604.6439,531.9316,600.604,513.393" style="stroke:#181818;stroke-width:2.0;"/></g><!--link XxxCardSelectionExtension to CardSelectionAdapter--><!--reverse link CardSelectionExtensionSpi to CardSelectionAdapter--><g id="link_CardSelectionExtensionSpi_CardSelectionAdapter"><path d="M785.9821,818.5168 C769.1201,787.2117 749.266,755.636 716,721.498 C701.545,706.664 683.642,692.994 666.738,681.617 " fill="none" id="CardSelectionExtensionSpi-backto-CardSelectionAdapter" style="stroke:#181818;stroke-width:2.0;stroke-dasharray:7.0,7.0;"/><polygon fill="none" points="794.518,834.3641,791.2645,815.6715,780.6996,821.3621,794.518,834.3641" style="stroke:#181818;stroke-width:2.0;"/></g><!--link CardSelectionAdapter to CardSelectionExtensionSpi--><!--reverse link XxxSmartCard to SmartCardAdapter--><g id="link_XxxSmartCard_SmartCardAdapter"><path d="M895.524,529.3465 C910.826,558.6315 924.75,585.278 939.996,614.455 " fill="none" id="XxxSmartCard-backto-SmartCardAdapter" style="stroke:#181818;stroke-width:2.0;stroke-dasharray:7.0,7.0;"/><polygon fill="none" points="887.188,513.393,890.2062,532.1251,900.8418,526.5678,887.188,513.393" style="stroke:#181818;stroke-width:2.0;"/></g><!--reverse link SmartCardSpi to SmartCardAdapter--><g id="link_SmartCardSpi_SmartCardAdapter"><path d="M1006.6727,826.5178 C995.7827,787.573 978.596,726.177 966.132,681.635 " fill="none" id="SmartCardSpi-backto-SmartCardAdapter" style="stroke:#181818;stroke-width:2.0;stroke-dasharray:7.0,7.0;"/><polygon fill="none" points="1011.52,843.8528,1012.451,824.902,1000.8943,828.1336,1011.52,843.8528" style="stroke:#181818;stroke-width:2.0;"/></g><!--link SmartCardAdapter to SmartCardSpi--><!--reverse link CardSelectionRequestSpi to CardSelectionRequestAdapter--><g id="link_CardSelectionRequestSpi_CardSelectionRequestAdapter"><path d="M1226.1111,816.4139 C1228.9711,787.1544 1231.14,760.968 1233,722.498 C1233.65,709.114 1233.93,694.344 1234.04,681.577 " fill="none" id="CardSelectionRequestSpi-backto-CardSelectionRequestAdapter" style="stroke:#181818;stroke-width:2.0;stroke-dasharray:7.0,7.0;"/><polygon fill="none" points="1224.36,834.3285,1232.0826,816.9976,1220.1395,815.8302,1224.36,834.3285" style="stroke:#181818;stroke-width:2.0;"/></g><!--link CardSelectionRequestAdapter to CardSelectionRequestSpi--><!--reverse link CardRequestSpi to CardRequestAdapter--><g id="link_CardRequestSpi_CardRequestAdapter"><path d="M1461.0037,819.0976 C1485.9237,777.945 1519.28,722.851 1544.24,681.635 " fill="none" id="CardRequestSpi-backto-CardRequestAdapter" style="stroke:#181818;stroke-width:2.0;stroke-dasharray:7.0,7.0;"/><polygon fill="none" points="1451.68,834.4946,1466.136,822.2055,1455.8713,815.9897,1451.68,834.4946" style="stroke:#181818;stroke-width:2.0;"/></g><!--link CardRequestAdapter to CardRequestSpi--><!--reverse link ApduRequestSpi to ApduRequestAdapter--><g id="link_ApduRequestSpi_ApduRequestAdapter"><path d="M1666.0109,822.6926 C1713.4009,781.54 1780.97,722.851 1828.42,681.635 " fill="none" id="ApduRequestSpi-backto-ApduRequestAdapter" style="stroke:#181818;stroke-width:2.0;stroke-dasharray:7.0,7.0;"/><polygon fill="none" points="1652.42,834.4946,1669.9449,827.2229,1662.0768,818.1623,1652.42,834.4946" style="stroke:#181818;stroke-width:2.0;"/></g><!--link ApduRequestAdapter to ApduRequestSpi--><!--link XxxCardExtensionService to CardSelectionAdapter--><g id="link_XxxCardExtensionService_CardSelectionAdapter"><path codeLine="138" d="M358.75,535.593 C417.927,561.728 481.1154,589.6351 531.8554,612.0441 " fill="none" id="XxxCardExtensionService-to-CardSelectionAdapter" style="stroke:#3498DB;stroke-width:2.0;stroke-dasharray:7.0,7.0;"/><polygon fill="#3498DB" points="537.344,614.468,530.7272,607.173,532.7702,612.4481,527.4952,614.4911,537.344,614.468" style="stroke:#3498DB;stroke-width:2.0;"/><polygon fill="#000000" points="477.5738,577.1635,470.487,570.8209,468.1124,576.1978,477.5738,577.1635" style="stroke:#000000;stroke-width:1.0;"/><text fill="#000000" font-family="sans-serif" font-size="13" lengthAdjust="spacing" textLength="40" x="482" y="580.5264">provide</text></g><!--link CardSelectionAdapter to SmartCardAdapter--><g id="link_CardSelectionAdapter_SmartCardAdapter"><path codeLine="140" d="M759.743,647.998 C789.873,647.998 815.004,647.998 843.383,647.998 " fill="none" id="CardSelectionAdapter-to-SmartCardAdapter" style="stroke:#3498DB;stroke-width:2.0;stroke-dasharray:7.0,7.0;"/><polygon fill="#3498DB" points="849.383,647.998,840.383,643.998,844.383,647.998,840.383,651.998,849.383,647.998" style="stroke:#3498DB;stroke-width:2.0;"/><polygon fill="#000000" points="787,635.6436,777.9549,632.7046,777.9549,638.5825,787,635.6436" style="stroke:#000000;stroke-width:1.0;"/><text fill="#000000" font-family="sans-serif" font-size="13" lengthAdjust="spacing" textLength="40" x="791" y="641.0264">provide</text></g><!--link CardSelectionAdapter to CardSelectionRequestAdapter--><g id="link_CardSelectionAdapter_CardSelectionRequestAdapter"><path codeLine="141" d="M748.42,614.467 C862.274,588.819 1014.87,559.96 1075.5,573.498 C1111.41,581.516 1143.4926,595.7619 1172.9226,611.5479 " fill="none" id="CardSelectionAdapter-to-CardSelectionRequestAdapter" style="stroke:#3498DB;stroke-width:2.0;stroke-dasharray:7.0,7.0;"/><polygon fill="#3498DB" points="1178.21,614.384,1172.1697,606.605,1173.8038,612.0206,1168.3882,613.6548,1178.21,614.384" style="stroke:#3498DB;stroke-width:2.0;"/><polygon fill="#000000" points="1030.4999,575.1092,1021.4348,572.2325,1021.4752,578.1102,1030.4999,575.1092" style="stroke:#000000;stroke-width:1.0;"/><text fill="#000000" font-family="sans-serif" font-size="13" lengthAdjust="spacing" textLength="40" x="1034.5" y="580.5264">provide</text></g><!--link CardSelectionRequestAdapter to CardRequestAdapter--><g id="link_CardSelectionRequestAdapter_CardRequestAdapter"><path codeLine="143" d="M1368.7,647.998 C1398.55,647.998 1423.77,647.998 1452.27,647.998 " fill="none" id="CardSelectionRequestAdapter-to-CardRequestAdapter" style="stroke:#3498DB;stroke-width:2.0;stroke-dasharray:7.0,7.0;"/><polygon fill="#3498DB" points="1458.27,647.998,1449.27,643.998,1453.27,647.998,1449.27,651.998,1458.27,647.998" style="stroke:#3498DB;stroke-width:2.0;"/><polygon fill="#000000" points="1396,635.6436,1386.9549,632.7046,1386.9549,638.5825,1396,635.6436" style="stroke:#000000;stroke-width:1.0;"/><text fill="#000000" font-family="sans-serif" font-size="13" lengthAdjust="spacing" textLength="40" x="1400" y="641.0264">provide</text></g><!--link CardRequestAdapter to ApduRequestAdapter--><g id="link_CardRequestAdapter_ApduRequestAdapter"><path codeLine="145" d="M1669.62,647.998 C1698.71,647.998 1724.27,647.998 1753.41,647.998 " fill="none" id="CardRequestAdapter-to-ApduRequestAdapter" style="stroke:#3498DB;stroke-width:2.0;stroke-dasharray:7.0,7.0;"/><polygon fill="#3498DB" points="1759.41,647.998,1750.41,643.998,1754.41,647.998,1750.41,651.998,1759.41,647.998" style="stroke:#3498DB;stroke-width:2.0;"/><polygon fill="#000000" points="1697,635.6436,1687.9549,632.7046,1687.9549,638.5825,1697,635.6436" style="stroke:#000000;stroke-width:1.0;"/><text fill="#000000" font-family="sans-serif" font-size="13" lengthAdjust="spacing" textLength="40" x="1701" y="641.0264">provide</text></g><!--SRC=[hLXHK-Cs47xthzZ20tVGE7T9k126ounZorS62WpXfcNQ3cDiaNXmBDTI81ac_UsL53kM7Ja9xUM1SLRVxlTfjLflE82lN-7k5_GhuW-6SM2JQOIdAOMGqYcc460uXJ5Z2JrjDiTi4laa8gbF0anDdqoQJscJUOyHzgQD03VyfRV6n1zfE8eRIUInfl5JW9_268FzyEqMtNy6zyJjkRsAkGLkossxdOgv3UWOTL4LtG6dwmmSfs8-1jkoNQTLCN-1WMEtxQvYlZo_ke1sftVY31Jhzo62LjT2NpufndjqUNdz6xZ8HJRYIOD60uPi7l5yiR77823n0ODNaZx3QyZ64EDNUC4f3KaCv0bu3c8sdKJSpQ3FOPnugJS1od2A2Pids1gGDC2fBJ8D-rRFiHrN2pml0GSTgukEjK2x7D5nFWzQMY0g0T6Wr-RKSd_eoX5w5IyxyYXTuk_6eVySOqf13MkbANbLbtYaUnn5v7KjYkS_Zr8oZOECEKkjbYo3E1tB_kJmaBSus1Blx2p5GR_Fmph8GVQ6i2iawdPuVHZZa5-0t5YaYRFUJDCambk94mcJt1rakzsDt0Nu17KwbfFJh-mb1O_HT3k_0Cdz3DnZTx2HFOTcTo3Zpgmbvcyfnl5Mwf50IUwUsqNkHkuLDhjh6NbkhhBFTo6VIswBrn7QnYsXBRkDZbNgUPcPK_DUQLzVtQ6hEzaj8pp2SG2C90RmpyE3Z4XXQNzuW5DfFuIpHwxlD6yS_PlfOnJwODsSmuSdNijUal3l7kFzuUDPKs3x9SSe78tPG1p4JHg-U0o35tW9LqPrw2IQJleNU9wG1CAOes8l4bmvLaXUAZICX5ky4OOzcqmcl3jns9ynIKSczgCmeTXyvd4Yp5jzAlu8p1vu59QFLXB2c-G-aaHFde_XGdhONXgW6SEnR7fBaFZm5f8_cgOfdnV6ej2HwRx57ZyWlHoIcAbSDYcEi2-oPj8abBgM2yFSFjG95D9MYAh6HHKzd7Wf4oxltuJqgjk2pnTNiiMNTsWjeBLgwdPHk2usSjtYl_dhdxsVIKJvpyvM4antTrwezIjoZLU7-VjifgzZaVNPR2QpJXFiXq-XNws18r_q2DWxFEJlUoywF1JXIWKznEbBw6CPfMODmWaddE2OARV5tFbo7BrHnXk2lwYDFyBiFEQWc3z_-AYafuYHkMgAtUSNXU7wzL90zR0EmCfQZ_pA29SnvZUrs8HodFNnvKa5kljgRhoUcao9Zp-bZF0v1ZCMnYFA9SC7aeW0NbJiP56ZiRZY6sJf-i0FKF9FNQsjfo1Bl2ow4Y9RK2kkDiZFUQynTsajcWsQIe5jsSOgPQhogh6YUhLS2DNqhfsrBUggT5smhltLfhoyNhhhklHgUzh_IAxIPAiITrFsemKfZLiLj6xM2Qhj-ZiUyKACPXQbn0_b34KDewvfccPVVtVsin-0fv2av4MCW7t3q29vXBKQrddNEM-ge-qgAWvPl5t3h7jhJaZhBMVVI-l- -ljozDNkhl477vu37F_Lg1zSZBNaALxgLT-uxpgceenq-wruAM1D6XHmkK1NrQLvIzNfoe9cUHpUtLyk_z-Ipo_5FBsV_q_ahHWermSL7IeV8dLhchbOXHdB2xt6OsgFEVzHMEkrTiHRFJQTzKxEx_NH7FZAfnWEjhyhYn_d6hVIcsiZikvjiTLfLsobnohOVm40]--></g></svg>