<?xml version="1.0" encoding="us-ascii" standalone="no"?><svg xmlns="http://www.w3.org/2000/svg" xmlns:xlink="http://www.w3.org/1999/xlink" contentStyleType="text/css" height="2348px" preserveAspectRatio="none" style="width:1062px;height:2348px;background:#FFFFFF;" version="1.1" viewBox="0 0 1062 2348" width="1062px" zoomAndPan="magnify"><defs><filter height="1" id="b1ap42w496qf930" width="1" x="0" y="0"><feFlood flood-color="#E9F7EF" result="flood"/><feComposite in="SourceGraphic" in2="flood" operator="over"/></filter><filter height="1" id="b1ap42w496qf931" width="1" x="0" y="0"><feFlood flood-color="#F4ECF7" result="flood"/><feComposite in="SourceGraphic" in2="flood" operator="over"/></filter><filter height="1" id="b1ap42w496qf932" width="1" x="0" y="0"><feFlood flood-color="#FEFECE" result="flood"/><feComposite in="SourceGraphic" in2="flood" operator="over"/></filter></defs><g><rect fill="#DDDDDD" height="84.4844" id="_legend" rx="7.5" ry="7.5" style="stroke:#000000;stroke-width:1.0;" width="110" x="474.875" y="22"/><text fill="#000000" font-family="sans-serif" font-size="14" lengthAdjust="spacing" text-decoration="underline" textLength="88" x="479.875" y="42.1074">Colors legend</text><text fill="#000000" font-family="sans-serif" font-size="14" lengthAdjust="spacing" textLength="4" x="571.875" y="42.1074">:</text><ellipse cx="485.375" cy="56.7422" fill="#000000" rx="2.5" ry="2.5" style="stroke:#000000;stroke-width:0.0;"/><text fill="#000000" filter="url(#b1ap42w496qf930)" font-family="sans-serif" font-size="14" lengthAdjust="spacing" textLength="81" x="491.875" y="60.7285">Common API</text><ellipse cx="485.375" cy="75.3633" fill="#000000" rx="2.5" ry="2.5" style="stroke:#000000;stroke-width:0.0;"/><text fill="#000000" filter="url(#b1ap42w496qf931)" font-family="sans-serif" font-size="14" lengthAdjust="spacing" textLength="88" x="491.875" y="79.3496">Plugin Xxx API</text><ellipse cx="485.375" cy="93.9844" fill="#000000" rx="2.5" ry="2.5" style="stroke:#000000;stroke-width:0.0;"/><text fill="#000000" filter="url(#b1ap42w496qf932)" font-family="sans-serif" font-size="14" lengthAdjust="spacing" textLength="64" x="491.875" y="97.9707">Plugin API</text><ellipse cx="628.25" cy="129.4844" fill="#222222" rx="10" ry="10" style="stroke:#222222;stroke-width:1.0;"/><polygon fill="#EBF5FB" points="539.25,159.4844,717.25,159.4844,729.25,191.4063,717.25,223.3281,539.25,223.3281,527.25,191.4063,539.25,159.4844" style="stroke:#181818;stroke-width:0.5;"/><text fill="#000000" font-family="sans-serif" font-size="12" lengthAdjust="spacing" textLength="3" x="539.25" y="172.4336">&#160;</text><text fill="#000000" font-family="sans-serif" font-size="12" lengthAdjust="spacing" textLength="172" x="539.25" y="188.3945">Does the plugin have to provide</text><text fill="#000000" font-family="sans-serif" font-size="12" lengthAdjust="spacing" textLength="178" x="539.25" y="204.3555">a reader allocation mechanism?</text><text fill="#000000" font-family="sans-serif" font-size="12" lengthAdjust="spacing" textLength="3" x="539.25" y="220.3164">&#160;</text><text fill="#000000" font-family="sans-serif" font-size="12" lengthAdjust="spacing" textLength="19" x="508.25" y="188.3945">yes</text><text fill="#000000" font-family="sans-serif" font-size="12" lengthAdjust="spacing" textLength="14" x="729.25" y="188.3945">no</text><rect fill="#F8F9F9" height="198.5039" rx="3" ry="3" style="stroke:#000000;stroke-width:1.5;" width="211" x="272.75" y="233.3281"/><path d="M426.75,233.3281 L426.75,244.9492 L416.75,254.9492 L272.75,254.9492 " fill="none" style="stroke:#000000;stroke-width:1.5;"/><text fill="#000000" font-family="sans-serif" font-size="14" lengthAdjust="spacing" textLength="128" x="283.75" y="249.4355">Plugin factory object</text><rect fill="#E9F7EF" height="35.9609" rx="12.5" ry="12.5" style="stroke:#181818;stroke-width:0.5;" width="191" x="282.75" y="271.9492"/><text fill="#000000" font-family="sans-serif" font-size="12" font-weight="bold" lengthAdjust="spacing" textLength="171" x="292.75" y="294.8984">KeyplePluginExtensionFactory</text><rect fill="#F4ECF7" height="35.9609" rx="12.5" ry="12.5" style="stroke:#181818;stroke-width:0.5;" width="164" x="296.25" y="327.9102"/><text fill="#000000" font-family="sans-serif" font-size="12" lengthAdjust="spacing" textLength="42" x="306.25" y="350.8594">specific</text><text fill="#000000" font-family="sans-serif" font-size="12" font-weight="bold" lengthAdjust="spacing" textLength="99" x="351.25" y="350.8594">XxxPluginFactory</text><rect fill="#FEFECE" height="35.9609" rx="12.5" ry="12.5" style="stroke:#181818;stroke-width:0.5;" width="140" x="308.25" y="383.8711"/><text fill="#000000" font-family="sans-serif" font-size="12" font-weight="bold" lengthAdjust="spacing" textLength="120" x="318.25" y="406.8203">PoolPluginFactorySpi</text><rect fill="#F8F9F9" height="206.5039" rx="3" ry="3" style="stroke:#000000;stroke-width:1.5;" width="169" x="293.75" y="441.832"/><path d="M400.75,441.832 L400.75,453.4531 L390.75,463.4531 L293.75,463.4531 " fill="none" style="stroke:#000000;stroke-width:1.5;"/><text fill="#000000" font-family="sans-serif" font-size="14" lengthAdjust="spacing" textLength="81" x="304.75" y="457.9395">Plugin object</text><rect fill="#E9F7EF" height="35.9609" rx="12.5" ry="12.5" style="stroke:#181818;stroke-width:0.5;" width="149" x="303.75" y="480.4531"/><text fill="#000000" font-family="sans-serif" font-size="12" font-weight="bold" lengthAdjust="spacing" textLength="129" x="313.75" y="503.4023">KeyplePluginExtension</text><rect fill="#F4ECF7" height="35.9609" rx="12.5" ry="12.5" style="stroke:#181818;stroke-width:0.5;" width="122" x="317.25" y="536.4141"/><text fill="#000000" font-family="sans-serif" font-size="12" lengthAdjust="spacing" textLength="42" x="327.25" y="559.3633">specific</text><text fill="#000000" font-family="sans-serif" font-size="12" font-weight="bold" lengthAdjust="spacing" textLength="57" x="372.25" y="559.3633">XxxPlugin</text><rect fill="#FEFECE" height="35.9609" rx="12.5" ry="12.5" style="stroke:#181818;stroke-width:0.5;" width="98" x="329.25" y="592.375"/><text fill="#000000" font-family="sans-serif" font-size="12" font-weight="bold" lengthAdjust="spacing" textLength="78" x="339.25" y="615.3242">PoolPluginSpi</text><rect fill="#F8F9F9" height="198.5039" rx="3" ry="3" style="stroke:#000000;stroke-width:1.5;" width="211" x="772.75" y="233.3281"/><path d="M926.75,233.3281 L926.75,244.9492 L916.75,254.9492 L772.75,254.9492 " fill="none" style="stroke:#000000;stroke-width:1.5;"/><text fill="#000000" font-family="sans-serif" font-size="14" lengthAdjust="spacing" textLength="128" x="783.75" y="249.4355">Plugin factory object</text><rect fill="#E9F7EF" height="35.9609" rx="12.5" ry="12.5" style="stroke:#181818;stroke-width:0.5;" width="191" x="782.75" y="271.9492"/><text fill="#000000" font-family="sans-serif" font-size="12" font-weight="bold" lengthAdjust="spacing" textLength="171" x="792.75" y="294.8984">KeyplePluginExtensionFactory</text><rect fill="#F4ECF7" height="35.9609" rx="12.5" ry="12.5" style="stroke:#181818;stroke-width:0.5;" width="164" x="796.25" y="327.9102"/><text fill="#000000" font-family="sans-serif" font-size="12" lengthAdjust="spacing" textLength="42" x="806.25" y="350.8594">specific</text><text fill="#000000" font-family="sans-serif" font-size="12" font-weight="bold" lengthAdjust="spacing" textLength="99" x="851.25" y="350.8594">XxxPluginFactory</text><rect fill="#FEFECE" height="35.9609" rx="12.5" ry="12.5" style="stroke:#181818;stroke-width:0.5;" width="115" x="820.75" y="383.8711"/><text fill="#000000" font-family="sans-serif" font-size="12" font-weight="bold" lengthAdjust="spacing" textLength="95" x="830.75" y="406.8203">PluginFactorySpi</text><rect fill="#F8F9F9" height="382.3086" rx="3" ry="3" style="stroke:#000000;stroke-width:1.5;" width="548" x="503.75" y="441.832"/><path d="M610.75,441.832 L610.75,453.4531 L600.75,463.4531 L503.75,463.4531 " fill="none" style="stroke:#000000;stroke-width:1.5;"/><text fill="#000000" font-family="sans-serif" font-size="14" lengthAdjust="spacing" textLength="81" x="514.75" y="457.9395">Plugin object</text><rect fill="#E9F7EF" height="35.9609" rx="12.5" ry="12.5" style="stroke:#181818;stroke-width:0.5;" width="149" x="803.75" y="480.4531"/><text fill="#000000" font-family="sans-serif" font-size="12" font-weight="bold" lengthAdjust="spacing" textLength="129" x="813.75" y="503.4023">KeyplePluginExtension</text><rect fill="#F4ECF7" height="35.9609" rx="12.5" ry="12.5" style="stroke:#181818;stroke-width:0.5;" width="122" x="817.25" y="536.4141"/><text fill="#000000" font-family="sans-serif" font-size="12" lengthAdjust="spacing" textLength="42" x="827.25" y="559.3633">specific</text><text fill="#000000" font-family="sans-serif" font-size="12" font-weight="bold" lengthAdjust="spacing" textLength="57" x="872.25" y="559.3633">XxxPlugin</text><polygon fill="#EBF5FB" points="809.75,592.375,946.75,592.375,958.75,604.375,946.75,616.375,809.75,616.375,797.75,604.375,809.75,592.375" style="stroke:#181818;stroke-width:0.5;"/><text fill="#000000" font-family="sans-serif" font-size="12" lengthAdjust="spacing" textLength="137" x="809.75" y="609.3438">Is the reader removable?</text><text fill="#000000" font-family="sans-serif" font-size="12" lengthAdjust="spacing" textLength="19" x="778.75" y="601.3633">yes</text><text fill="#000000" font-family="sans-serif" font-size="12" lengthAdjust="spacing" textLength="14" x="958.75" y="601.3633">no</text><polygon fill="#EBF5FB" points="660.75,626.375,845.75,626.375,857.75,666.2773,845.75,706.1797,660.75,706.1797,648.75,666.2773,660.75,626.375" style="stroke:#181818;stroke-width:0.5;"/><text fill="#000000" font-family="sans-serif" font-size="12" lengthAdjust="spacing" textLength="3" x="660.75" y="639.3242">&#160;</text><text fill="#000000" font-family="sans-serif" font-size="12" lengthAdjust="spacing" textLength="116" x="660.75" y="655.2852">Does the plugin work</text><text fill="#000000" font-family="sans-serif" font-size="12" lengthAdjust="spacing" textLength="166" x="660.75" y="671.2461">autonomously to detect reader</text><text fill="#000000" font-family="sans-serif" font-size="12" lengthAdjust="spacing" textLength="185" x="660.75" y="687.207">connections and disconnections?</text><text fill="#000000" font-family="sans-serif" font-size="12" lengthAdjust="spacing" textLength="3" x="660.75" y="703.168">&#160;</text><text fill="#000000" font-family="sans-serif" font-size="12" lengthAdjust="spacing" textLength="19" x="629.75" y="663.2656">yes</text><text fill="#000000" font-family="sans-serif" font-size="12" lengthAdjust="spacing" textLength="14" x="857.75" y="663.2656">no</text><rect fill="#FEFECE" height="35.9609" rx="12.5" ry="12.5" style="stroke:#181818;stroke-width:0.5;" width="210" x="533.75" y="716.1797"/><text fill="#000000" font-family="sans-serif" font-size="12" font-weight="bold" lengthAdjust="spacing" textLength="190" x="543.75" y="739.1289">AutonomousObservablePluginSpi</text><rect fill="#FEFECE" height="35.9609" rx="12.5" ry="12.5" style="stroke:#181818;stroke-width:0.5;" width="138" x="798.75" y="716.1797"/><text fill="#000000" font-family="sans-serif" font-size="12" font-weight="bold" lengthAdjust="spacing" textLength="118" x="808.75" y="739.1289">ObservablePluginSpi</text><polygon fill="#EBF5FB" points="753.25,758.1406,765.25,770.1406,753.25,782.1406,741.25,770.1406,753.25,758.1406" style="stroke:#181818;stroke-width:0.5;"/><rect fill="#FEFECE" height="35.9609" rx="12.5" ry="12.5" style="stroke:#181818;stroke-width:0.5;" width="73" x="966.75" y="626.375"/><text fill="#000000" font-family="sans-serif" font-size="12" font-weight="bold" lengthAdjust="spacing" textLength="53" x="976.75" y="649.3242">PluginSpi</text><polygon fill="#EBF5FB" points="878.25,788.1406,890.25,800.1406,878.25,812.1406,866.25,800.1406,878.25,788.1406" style="stroke:#181818;stroke-width:0.5;"/><polygon fill="#EBF5FB" points="628.25,830.1406,640.25,842.1406,628.25,854.1406,616.25,842.1406,628.25,830.1406" style="stroke:#181818;stroke-width:0.5;"/><rect fill="#F8F9F9" height="1431.3516" rx="3" ry="3" style="stroke:#000000;stroke-width:1.5;" width="889.75" x="11" y="864.1406"/><path d="M126,864.1406 L126,875.7617 L116,885.7617 L11,885.7617 " fill="none" style="stroke:#000000;stroke-width:1.5;"/><text fill="#000000" font-family="sans-serif" font-size="14" lengthAdjust="spacing" textLength="89" x="22" y="880.248">Reader object</text><rect fill="#E9F7EF" height="35.9609" rx="12.5" ry="12.5" style="stroke:#181818;stroke-width:0.5;" width="155" x="550.75" y="902.7617"/><text fill="#000000" font-family="sans-serif" font-size="12" font-weight="bold" lengthAdjust="spacing" textLength="135" x="560.75" y="925.7109">KeypleReaderExtension</text><rect fill="#F4ECF7" height="35.9609" rx="12.5" ry="12.5" style="stroke:#181818;stroke-width:0.5;" width="128" x="564.25" y="958.7227"/><text fill="#000000" font-family="sans-serif" font-size="12" lengthAdjust="spacing" textLength="42" x="574.25" y="981.6719">specific</text><text fill="#000000" font-family="sans-serif" font-size="12" font-weight="bold" lengthAdjust="spacing" textLength="63" x="619.25" y="981.6719">XxxReader</text><rect fill="#FEFECE" height="35.9609" rx="12.5" ry="12.5" style="stroke:#181818;stroke-width:0.5;" width="104" x="576.25" y="1064.6641"/><text fill="#000000" font-family="sans-serif" font-size="12" font-weight="bold" lengthAdjust="spacing" textLength="84" x="586.25" y="1087.6133">PoolReaderSpi</text><polygon fill="#EBF5FB" points="398.75,1014.6836,857.75,1014.6836,869.75,1026.6836,857.75,1038.6836,398.75,1038.6836,386.75,1026.6836,398.75,1014.6836" style="stroke:#181818;stroke-width:0.5;"/><text fill="#000000" font-family="sans-serif" font-size="12" lengthAdjust="spacing" textLength="19" x="632.25" y="1051.6328">yes</text><text fill="#000000" font-family="sans-serif" font-size="12" lengthAdjust="spacing" textLength="459" x="398.75" y="1031.6523">Is the reader associated with a plugin that provides a reader allocation mechanism?</text><text fill="#000000" font-family="sans-serif" font-size="12" lengthAdjust="spacing" textLength="14" x="869.75" y="1023.6719">no</text><polygon fill="#EBF5FB" points="628.25,1120.625,640.25,1132.625,628.25,1144.625,616.25,1132.625,628.25,1120.625" style="stroke:#181818;stroke-width:0.5;"/><rect fill="#FEFECE" height="35.9609" rx="12.5" ry="12.5" style="stroke:#181818;stroke-width:0.5;" width="151" x="552.75" y="1214.6055"/><text fill="#000000" font-family="sans-serif" font-size="12" font-weight="bold" lengthAdjust="spacing" textLength="131" x="562.75" y="1237.5547">ConfigurableReaderSpi</text><polygon fill="#EBF5FB" points="512.75,1164.625,743.75,1164.625,755.75,1176.625,743.75,1188.625,512.75,1188.625,500.75,1176.625,512.75,1164.625" style="stroke:#181818;stroke-width:0.5;"/><text fill="#000000" font-family="sans-serif" font-size="12" lengthAdjust="spacing" textLength="19" x="632.25" y="1201.5742">yes</text><text fill="#000000" font-family="sans-serif" font-size="12" lengthAdjust="spacing" textLength="231" x="512.75" y="1181.5938">Can the reader handle multiple protocols?</text><text fill="#000000" font-family="sans-serif" font-size="12" lengthAdjust="spacing" textLength="14" x="755.75" y="1173.6133">no</text><polygon fill="#EBF5FB" points="628.25,1270.5664,640.25,1282.5664,628.25,1294.5664,616.25,1282.5664,628.25,1270.5664" style="stroke:#181818;stroke-width:0.5;"/><rect fill="#FEFECE" height="35.9609" rx="12.5" ry="12.5" style="stroke:#181818;stroke-width:0.5;" width="204" x="526.25" y="1364.5469"/><text fill="#000000" font-family="sans-serif" font-size="12" font-weight="bold" lengthAdjust="spacing" textLength="184" x="536.25" y="1387.4961">AutonomousSelectionReaderSpi</text><polygon fill="#EBF5FB" points="447.75,1314.5664,808.75,1314.5664,820.75,1326.5664,808.75,1338.5664,447.75,1338.5664,435.75,1326.5664,447.75,1314.5664" style="stroke:#181818;stroke-width:0.5;"/><text fill="#000000" font-family="sans-serif" font-size="12" lengthAdjust="spacing" textLength="19" x="632.25" y="1351.5156">yes</text><text fill="#000000" font-family="sans-serif" font-size="12" lengthAdjust="spacing" textLength="361" x="447.75" y="1331.5352">Is the reader autonomous to open a logical channel with the card?</text><text fill="#000000" font-family="sans-serif" font-size="12" lengthAdjust="spacing" textLength="14" x="820.75" y="1323.5547">no</text><polygon fill="#EBF5FB" points="628.25,1420.5078,640.25,1432.5078,628.25,1444.5078,616.25,1432.5078,628.25,1420.5078" style="stroke:#181818;stroke-width:0.5;"/><polygon fill="#EBF5FB" points="565.75,1464.5078,690.75,1464.5078,702.75,1476.5078,690.75,1488.5078,565.75,1488.5078,553.75,1476.5078,565.75,1464.5078" style="stroke:#181818;stroke-width:0.5;"/><text fill="#000000" font-family="sans-serif" font-size="12" lengthAdjust="spacing" textLength="125" x="565.75" y="1481.4766">Is the card removable?</text><text fill="#000000" font-family="sans-serif" font-size="12" lengthAdjust="spacing" textLength="19" x="534.75" y="1473.4961">yes</text><text fill="#000000" font-family="sans-serif" font-size="12" lengthAdjust="spacing" textLength="14" x="702.75" y="1473.4961">no</text><rect fill="#FEFECE" height="35.9609" rx="12.5" ry="12.5" style="stroke:#181818;stroke-width:0.5;" width="144" x="370.625" y="1498.5078"/><text fill="#000000" font-family="sans-serif" font-size="12" font-weight="bold" lengthAdjust="spacing" textLength="124" x="380.625" y="1521.457">ObservableReaderSpi</text><polygon fill="#EBF5FB" points="343.125,1554.4688,542.125,1554.4688,554.125,1586.3906,542.125,1618.3125,343.125,1618.3125,331.125,1586.3906,343.125,1554.4688" style="stroke:#181818;stroke-width:0.5;"/><text fill="#000000" font-family="sans-serif" font-size="12" lengthAdjust="spacing" textLength="3" x="343.125" y="1567.418">&#160;</text><text fill="#000000" font-family="sans-serif" font-size="12" lengthAdjust="spacing" textLength="199" x="343.125" y="1583.3789">Does the reader work autonomously</text><text fill="#000000" font-family="sans-serif" font-size="12" lengthAdjust="spacing" textLength="138" x="343.125" y="1599.3398">to detect card insertions?</text><text fill="#000000" font-family="sans-serif" font-size="12" lengthAdjust="spacing" textLength="3" x="343.125" y="1615.3008">&#160;</text><text fill="#000000" font-family="sans-serif" font-size="12" lengthAdjust="spacing" textLength="19" x="312.125" y="1583.3789">yes</text><text fill="#000000" font-family="sans-serif" font-size="12" lengthAdjust="spacing" textLength="14" x="554.125" y="1583.3789">no</text><polygon fill="#EBF5FB" points="190.75,1628.3125,325.75,1628.3125,337.75,1668.2148,325.75,1708.1172,190.75,1708.1172,178.75,1668.2148,190.75,1628.3125" style="stroke:#181818;stroke-width:0.5;"/><text fill="#000000" font-family="sans-serif" font-size="12" lengthAdjust="spacing" textLength="3" x="190.75" y="1641.2617">&#160;</text><text fill="#000000" font-family="sans-serif" font-size="12" lengthAdjust="spacing" textLength="118" x="190.75" y="1657.2227">Does the reader have</text><text fill="#000000" font-family="sans-serif" font-size="12" lengthAdjust="spacing" textLength="129" x="190.75" y="1673.1836">a built-in card presence</text><text fill="#000000" font-family="sans-serif" font-size="12" lengthAdjust="spacing" textLength="135" x="190.75" y="1689.1445">notification mechanism?</text><text fill="#000000" font-family="sans-serif" font-size="12" lengthAdjust="spacing" textLength="3" x="190.75" y="1705.1055">&#160;</text><text fill="#000000" font-family="sans-serif" font-size="12" lengthAdjust="spacing" textLength="19" x="159.75" y="1665.2031">yes</text><text fill="#000000" font-family="sans-serif" font-size="12" lengthAdjust="spacing" textLength="14" x="337.75" y="1665.2031">no</text><rect fill="#FEFECE" height="35.9609" rx="12.5" ry="12.5" style="stroke:#181818;stroke-width:0.5;" width="231" x="23" y="1718.1172"/><text fill="#000000" font-family="sans-serif" font-size="12" font-weight="bold" lengthAdjust="spacing" textLength="211" x="33" y="1741.0664">WaitForCardInsertionAutonomousSpi</text><rect fill="#FEFECE" height="35.9609" rx="12.5" ry="12.5" style="stroke:#181818;stroke-width:0.5;" width="208" x="274" y="1718.1172"/><text fill="#000000" font-family="sans-serif" font-size="12" font-weight="bold" lengthAdjust="spacing" textLength="188" x="284" y="1741.0664">WaitForCardInsertionBlockingSpi</text><polygon fill="#EBF5FB" points="258.25,1760.0781,270.25,1772.0781,258.25,1784.0781,246.25,1772.0781,258.25,1760.0781" style="stroke:#181818;stroke-width:0.5;"/><rect fill="#FEFECE" height="35.9609" rx="12.5" ry="12.5" style="stroke:#181818;stroke-width:0.5;" width="230" x="512" y="1628.3125"/><text fill="#000000" font-family="sans-serif" font-size="12" font-weight="bold" lengthAdjust="spacing" textLength="210" x="522" y="1651.2617">WaitForCardInsertionNonBlockingSpi</text><polygon fill="#EBF5FB" points="442.625,1790.0781,454.625,1802.0781,442.625,1814.0781,430.625,1802.0781,442.625,1790.0781" style="stroke:#181818;stroke-width:0.5;"/><polygon fill="#EBF5FB" points="328.125,1834.0781,557.125,1834.0781,569.125,1866,557.125,1897.9219,328.125,1897.9219,316.125,1866,328.125,1834.0781" style="stroke:#181818;stroke-width:0.5;"/><text fill="#000000" font-family="sans-serif" font-size="12" lengthAdjust="spacing" textLength="3" x="328.125" y="1847.0273">&#160;</text><text fill="#000000" font-family="sans-serif" font-size="12" lengthAdjust="spacing" textLength="229" x="328.125" y="1862.9883">Is the reader able to detect a card removal</text><text fill="#000000" font-family="sans-serif" font-size="12" lengthAdjust="spacing" textLength="164" x="328.125" y="1878.9492">between two APDU transfers?</text><text fill="#000000" font-family="sans-serif" font-size="12" lengthAdjust="spacing" textLength="3" x="328.125" y="1894.9102">&#160;</text><text fill="#000000" font-family="sans-serif" font-size="12" lengthAdjust="spacing" textLength="19" x="297.125" y="1862.9883">yes</text><text fill="#000000" font-family="sans-serif" font-size="12" lengthAdjust="spacing" textLength="14" x="569.125" y="1862.9883">no</text><rect fill="#FEFECE" height="35.9609" rx="12.5" ry="12.5" style="stroke:#181818;stroke-width:0.5;" width="309" x="129.375" y="1907.9219"/><text fill="#000000" font-family="sans-serif" font-size="12" font-weight="bold" lengthAdjust="spacing" textLength="289" x="139.375" y="1930.8711">WaitForCardRemovalBlockingDuringProcessingSpi</text><rect fill="#FEFECE" height="35.9609" rx="12.5" ry="12.5" style="stroke:#181818;stroke-width:0.5;" width="286" x="458.375" y="1907.9219"/><text fill="#000000" font-family="sans-serif" font-size="12" font-weight="bold" lengthAdjust="spacing" textLength="266" x="468.375" y="1930.8711">DontWaitForCardRemovalDuringProcessingSpi</text><polygon fill="#EBF5FB" points="442.625,1949.8828,454.625,1961.8828,442.625,1973.8828,430.625,1961.8828,442.625,1949.8828" style="stroke:#181818;stroke-width:0.5;"/><polygon fill="#EBF5FB" points="343.125,1993.8828,542.125,1993.8828,554.125,2025.8047,542.125,2057.7266,343.125,2057.7266,331.125,2025.8047,343.125,1993.8828" style="stroke:#181818;stroke-width:0.5;"/><text fill="#000000" font-family="sans-serif" font-size="12" lengthAdjust="spacing" textLength="3" x="343.125" y="2006.832">&#160;</text><text fill="#000000" font-family="sans-serif" font-size="12" lengthAdjust="spacing" textLength="199" x="343.125" y="2022.793">Does the reader work autonomously</text><text fill="#000000" font-family="sans-serif" font-size="12" lengthAdjust="spacing" textLength="134" x="343.125" y="2038.7539">to detect card removals?</text><text fill="#000000" font-family="sans-serif" font-size="12" lengthAdjust="spacing" textLength="3" x="343.125" y="2054.7148">&#160;</text><text fill="#000000" font-family="sans-serif" font-size="12" lengthAdjust="spacing" textLength="19" x="312.125" y="2022.793">yes</text><text fill="#000000" font-family="sans-serif" font-size="12" lengthAdjust="spacing" textLength="14" x="554.125" y="2022.793">no</text><polygon fill="#EBF5FB" points="191.5,2067.7266,326.5,2067.7266,338.5,2107.6289,326.5,2147.5313,191.5,2147.5313,179.5,2107.6289,191.5,2067.7266" style="stroke:#181818;stroke-width:0.5;"/><text fill="#000000" font-family="sans-serif" font-size="12" lengthAdjust="spacing" textLength="3" x="191.5" y="2080.6758">&#160;</text><text fill="#000000" font-family="sans-serif" font-size="12" lengthAdjust="spacing" textLength="118" x="191.5" y="2096.6367">Does the reader have</text><text fill="#000000" font-family="sans-serif" font-size="12" lengthAdjust="spacing" textLength="122" x="191.5" y="2112.5977">a built-in missing card</text><text fill="#000000" font-family="sans-serif" font-size="12" lengthAdjust="spacing" textLength="135" x="191.5" y="2128.5586">notification mechanism?</text><text fill="#000000" font-family="sans-serif" font-size="12" lengthAdjust="spacing" textLength="3" x="191.5" y="2144.5195">&#160;</text><text fill="#000000" font-family="sans-serif" font-size="12" lengthAdjust="spacing" textLength="19" x="160.5" y="2104.6172">yes</text><text fill="#000000" font-family="sans-serif" font-size="12" lengthAdjust="spacing" textLength="14" x="338.5" y="2104.6172">no</text><rect fill="#FEFECE" height="35.9609" rx="12.5" ry="12.5" style="stroke:#181818;stroke-width:0.5;" width="230" x="24.75" y="2157.5313"/><text fill="#000000" font-family="sans-serif" font-size="12" font-weight="bold" lengthAdjust="spacing" textLength="210" x="34.75" y="2180.4805">WaitForCardRemovalAutonomousSpi</text><rect fill="#FEFECE" height="35.9609" rx="12.5" ry="12.5" style="stroke:#181818;stroke-width:0.5;" width="207" x="274.75" y="2157.5313"/><text fill="#000000" font-family="sans-serif" font-size="12" font-weight="bold" lengthAdjust="spacing" textLength="187" x="284.75" y="2180.4805">WaitForCardRemovalBlockingSpi</text><polygon fill="#EBF5FB" points="259,2199.4922,271,2211.4922,259,2223.4922,247,2211.4922,259,2199.4922" style="stroke:#181818;stroke-width:0.5;"/><rect fill="#FEFECE" height="35.9609" rx="12.5" ry="12.5" style="stroke:#181818;stroke-width:0.5;" width="229" x="511.75" y="2067.7266"/><text fill="#000000" font-family="sans-serif" font-size="12" font-weight="bold" lengthAdjust="spacing" textLength="209" x="521.75" y="2090.6758">WaitForCardRemovalNonBlockingSpi</text><polygon fill="#EBF5FB" points="442.625,2229.4922,454.625,2241.4922,442.625,2253.4922,430.625,2241.4922,442.625,2229.4922" style="stroke:#181818;stroke-width:0.5;"/><rect fill="#FEFECE" height="35.9609" rx="12.5" ry="12.5" style="stroke:#181818;stroke-width:0.5;" width="79" x="774.375" y="1498.5078"/><text fill="#000000" font-family="sans-serif" font-size="12" font-weight="bold" lengthAdjust="spacing" textLength="59" x="784.375" y="1521.457">ReaderSpi</text><polygon fill="#EBF5FB" points="628.25,2259.4922,640.25,2271.4922,628.25,2283.4922,616.25,2271.4922,628.25,2259.4922" style="stroke:#181818;stroke-width:0.5;"/><ellipse cx="628.25" cy="2326.4922" fill="none" rx="11" ry="11" style="stroke:#222222;stroke-width:1.0;"/><ellipse cx="628.25" cy="2326.4922" fill="#222222" rx="6" ry="6" style="stroke:#111111;stroke-width:1.0;"/><line style="stroke:#181818;stroke-width:1.0;" x1="378.25" x2="378.25" y1="307.9102" y2="327.9102"/><polygon fill="#181818" points="374.25,317.9102,378.25,327.9102,382.25,317.9102,378.25,321.9102" style="stroke:#181818;stroke-width:1.0;"/><line style="stroke:#181818;stroke-width:1.0;" x1="378.25" x2="378.25" y1="363.8711" y2="383.8711"/><polygon fill="#181818" points="374.25,373.8711,378.25,383.8711,382.25,373.8711,378.25,377.8711" style="stroke:#181818;stroke-width:1.0;"/><line style="stroke:#181818;stroke-width:1.0;" x1="378.25" x2="378.25" y1="516.4141" y2="536.4141"/><polygon fill="#181818" points="374.25,526.4141,378.25,536.4141,382.25,526.4141,378.25,530.4141" style="stroke:#181818;stroke-width:1.0;"/><line style="stroke:#181818;stroke-width:1.0;" x1="378.25" x2="378.25" y1="572.375" y2="592.375"/><polygon fill="#181818" points="374.25,582.375,378.25,592.375,382.25,582.375,378.25,586.375" style="stroke:#181818;stroke-width:1.0;"/><line style="stroke:#181818;stroke-width:1.0;" x1="378.25" x2="378.25" y1="419.832" y2="480.4531"/><polygon fill="#181818" points="374.25,470.4531,378.25,480.4531,382.25,470.4531,378.25,474.4531" style="stroke:#181818;stroke-width:1.0;"/><line style="stroke:#181818;stroke-width:1.0;" x1="878.25" x2="878.25" y1="307.9102" y2="327.9102"/><polygon fill="#181818" points="874.25,317.9102,878.25,327.9102,882.25,317.9102,878.25,321.9102" style="stroke:#181818;stroke-width:1.0;"/><line style="stroke:#181818;stroke-width:1.0;" x1="878.25" x2="878.25" y1="363.8711" y2="383.8711"/><polygon fill="#181818" points="874.25,373.8711,878.25,383.8711,882.25,373.8711,878.25,377.8711" style="stroke:#181818;stroke-width:1.0;"/><line style="stroke:#181818;stroke-width:1.0;" x1="878.25" x2="878.25" y1="516.4141" y2="536.4141"/><polygon fill="#181818" points="874.25,526.4141,878.25,536.4141,882.25,526.4141,878.25,530.4141" style="stroke:#181818;stroke-width:1.0;"/><line style="stroke:#181818;stroke-width:1.0;" x1="648.75" x2="638.75" y1="666.2773" y2="666.2773"/><line style="stroke:#181818;stroke-width:1.0;" x1="638.75" x2="638.75" y1="666.2773" y2="716.1797"/><polygon fill="#181818" points="634.75,706.1797,638.75,716.1797,642.75,706.1797,638.75,710.1797" style="stroke:#181818;stroke-width:1.0;"/><line style="stroke:#181818;stroke-width:1.0;" x1="857.75" x2="867.75" y1="666.2773" y2="666.2773"/><line style="stroke:#181818;stroke-width:1.0;" x1="867.75" x2="867.75" y1="666.2773" y2="716.1797"/><polygon fill="#181818" points="863.75,706.1797,867.75,716.1797,871.75,706.1797,867.75,710.1797" style="stroke:#181818;stroke-width:1.0;"/><line style="stroke:#181818;stroke-width:1.0;" x1="638.75" x2="638.75" y1="752.1406" y2="770.1406"/><line style="stroke:#181818;stroke-width:1.0;" x1="638.75" x2="741.25" y1="770.1406" y2="770.1406"/><polygon fill="#181818" points="731.25,766.1406,741.25,770.1406,731.25,774.1406,735.25,770.1406" style="stroke:#181818;stroke-width:1.0;"/><line style="stroke:#181818;stroke-width:1.0;" x1="867.75" x2="867.75" y1="752.1406" y2="770.1406"/><line style="stroke:#181818;stroke-width:1.0;" x1="867.75" x2="765.25" y1="770.1406" y2="770.1406"/><polygon fill="#181818" points="775.25,766.1406,765.25,770.1406,775.25,774.1406,771.25,770.1406" style="stroke:#181818;stroke-width:1.0;"/><line style="stroke:#181818;stroke-width:1.0;" x1="797.75" x2="753.25" y1="604.375" y2="604.375"/><line style="stroke:#181818;stroke-width:1.0;" x1="753.25" x2="753.25" y1="604.375" y2="626.375"/><polygon fill="#181818" points="749.25,616.375,753.25,626.375,757.25,616.375,753.25,620.375" style="stroke:#181818;stroke-width:1.0;"/><line style="stroke:#181818;stroke-width:1.0;" x1="958.75" x2="1003.25" y1="604.375" y2="604.375"/><line style="stroke:#181818;stroke-width:1.0;" x1="1003.25" x2="1003.25" y1="604.375" y2="626.375"/><polygon fill="#181818" points="999.25,616.375,1003.25,626.375,1007.25,616.375,1003.25,620.375" style="stroke:#181818;stroke-width:1.0;"/><line style="stroke:#181818;stroke-width:1.0;" x1="753.25" x2="753.25" y1="782.1406" y2="800.1406"/><line style="stroke:#181818;stroke-width:1.0;" x1="753.25" x2="866.25" y1="800.1406" y2="800.1406"/><polygon fill="#181818" points="856.25,796.1406,866.25,800.1406,856.25,804.1406,860.25,800.1406" style="stroke:#181818;stroke-width:1.0;"/><line style="stroke:#181818;stroke-width:1.0;" x1="1003.25" x2="1003.25" y1="662.3359" y2="800.1406"/><line style="stroke:#181818;stroke-width:1.0;" x1="1003.25" x2="890.25" y1="800.1406" y2="800.1406"/><polygon fill="#181818" points="900.25,796.1406,890.25,800.1406,900.25,804.1406,896.25,800.1406" style="stroke:#181818;stroke-width:1.0;"/><line style="stroke:#181818;stroke-width:1.0;" x1="878.25" x2="878.25" y1="572.375" y2="592.375"/><polygon fill="#181818" points="874.25,582.375,878.25,592.375,882.25,582.375,878.25,586.375" style="stroke:#181818;stroke-width:1.0;"/><line style="stroke:#181818;stroke-width:1.0;" x1="878.25" x2="878.25" y1="419.832" y2="480.4531"/><polygon fill="#181818" points="874.25,470.4531,878.25,480.4531,882.25,470.4531,878.25,474.4531" style="stroke:#181818;stroke-width:1.0;"/><line style="stroke:#181818;stroke-width:1.0;" x1="527.25" x2="378.25" y1="191.4063" y2="191.4063"/><line style="stroke:#181818;stroke-width:1.0;" x1="378.25" x2="378.25" y1="191.4063" y2="271.9492"/><polygon fill="#181818" points="374.25,261.9492,378.25,271.9492,382.25,261.9492,378.25,265.9492" style="stroke:#181818;stroke-width:1.0;"/><line style="stroke:#181818;stroke-width:1.0;" x1="729.25" x2="878.25" y1="191.4063" y2="191.4063"/><line style="stroke:#181818;stroke-width:1.0;" x1="878.25" x2="878.25" y1="191.4063" y2="271.9492"/><polygon fill="#181818" points="874.25,261.9492,878.25,271.9492,882.25,261.9492,878.25,265.9492" style="stroke:#181818;stroke-width:1.0;"/><line style="stroke:#181818;stroke-width:1.0;" x1="378.25" x2="378.25" y1="628.3359" y2="842.1406"/><line style="stroke:#181818;stroke-width:1.0;" x1="378.25" x2="616.25" y1="842.1406" y2="842.1406"/><polygon fill="#181818" points="606.25,838.1406,616.25,842.1406,606.25,846.1406,610.25,842.1406" style="stroke:#181818;stroke-width:1.0;"/><line style="stroke:#181818;stroke-width:1.0;" x1="878.25" x2="878.25" y1="812.1406" y2="842.1406"/><line style="stroke:#181818;stroke-width:1.0;" x1="878.25" x2="640.25" y1="842.1406" y2="842.1406"/><polygon fill="#181818" points="650.25,838.1406,640.25,842.1406,650.25,846.1406,646.25,842.1406" style="stroke:#181818;stroke-width:1.0;"/><line style="stroke:#181818;stroke-width:1.0;" x1="628.25" x2="628.25" y1="139.4844" y2="159.4844"/><polygon fill="#181818" points="624.25,149.4844,628.25,159.4844,632.25,149.4844,628.25,153.4844" style="stroke:#181818;stroke-width:1.0;"/><line style="stroke:#181818;stroke-width:1.0;" x1="628.25" x2="628.25" y1="938.7227" y2="958.7227"/><polygon fill="#181818" points="624.25,948.7227,628.25,958.7227,632.25,948.7227,628.25,952.7227" style="stroke:#181818;stroke-width:1.0;"/><line style="stroke:#181818;stroke-width:1.0;" x1="628.25" x2="628.25" y1="1038.6836" y2="1064.6641"/><polygon fill="#181818" points="624.25,1054.6641,628.25,1064.6641,632.25,1054.6641,628.25,1058.6641" style="stroke:#181818;stroke-width:1.0;"/><line style="stroke:#181818;stroke-width:1.0;" x1="869.75" x2="881.75" y1="1026.6836" y2="1026.6836"/><polygon fill="#181818" points="877.75,1072.6445,881.75,1082.6445,885.75,1072.6445,881.75,1076.6445" style="stroke:#181818;stroke-width:1.0;"/><line style="stroke:#181818;stroke-width:1.0;" x1="881.75" x2="881.75" y1="1026.6836" y2="1132.625"/><line style="stroke:#181818;stroke-width:1.0;" x1="881.75" x2="640.25" y1="1132.625" y2="1132.625"/><polygon fill="#181818" points="650.25,1128.625,640.25,1132.625,650.25,1136.625,646.25,1132.625" style="stroke:#181818;stroke-width:1.0;"/><line style="stroke:#181818;stroke-width:1.0;" x1="628.25" x2="628.25" y1="1100.625" y2="1120.625"/><polygon fill="#181818" points="624.25,1110.625,628.25,1120.625,632.25,1110.625,628.25,1114.625" style="stroke:#181818;stroke-width:1.0;"/><line style="stroke:#181818;stroke-width:1.0;" x1="628.25" x2="628.25" y1="994.6836" y2="1014.6836"/><polygon fill="#181818" points="624.25,1004.6836,628.25,1014.6836,632.25,1004.6836,628.25,1008.6836" style="stroke:#181818;stroke-width:1.0;"/><line style="stroke:#181818;stroke-width:1.0;" x1="628.25" x2="628.25" y1="1188.625" y2="1214.6055"/><polygon fill="#181818" points="624.25,1204.6055,628.25,1214.6055,632.25,1204.6055,628.25,1208.6055" style="stroke:#181818;stroke-width:1.0;"/><line style="stroke:#181818;stroke-width:1.0;" x1="755.75" x2="767.75" y1="1176.625" y2="1176.625"/><polygon fill="#181818" points="763.75,1222.5859,767.75,1232.5859,771.75,1222.5859,767.75,1226.5859" style="stroke:#181818;stroke-width:1.0;"/><line style="stroke:#181818;stroke-width:1.0;" x1="767.75" x2="767.75" y1="1176.625" y2="1282.5664"/><line style="stroke:#181818;stroke-width:1.0;" x1="767.75" x2="640.25" y1="1282.5664" y2="1282.5664"/><polygon fill="#181818" points="650.25,1278.5664,640.25,1282.5664,650.25,1286.5664,646.25,1282.5664" style="stroke:#181818;stroke-width:1.0;"/><line style="stroke:#181818;stroke-width:1.0;" x1="628.25" x2="628.25" y1="1250.5664" y2="1270.5664"/><polygon fill="#181818" points="624.25,1260.5664,628.25,1270.5664,632.25,1260.5664,628.25,1264.5664" style="stroke:#181818;stroke-width:1.0;"/><line style="stroke:#181818;stroke-width:1.0;" x1="628.25" x2="628.25" y1="1144.625" y2="1164.625"/><polygon fill="#181818" points="624.25,1154.625,628.25,1164.625,632.25,1154.625,628.25,1158.625" style="stroke:#181818;stroke-width:1.0;"/><line style="stroke:#181818;stroke-width:1.0;" x1="628.25" x2="628.25" y1="1338.5664" y2="1364.5469"/><polygon fill="#181818" points="624.25,1354.5469,628.25,1364.5469,632.25,1354.5469,628.25,1358.5469" style="stroke:#181818;stroke-width:1.0;"/><line style="stroke:#181818;stroke-width:1.0;" x1="820.75" x2="832.75" y1="1326.5664" y2="1326.5664"/><polygon fill="#181818" points="828.75,1372.5273,832.75,1382.5273,836.75,1372.5273,832.75,1376.5273" style="stroke:#181818;stroke-width:1.0;"/><line style="stroke:#181818;stroke-width:1.0;" x1="832.75" x2="832.75" y1="1326.5664" y2="1432.5078"/><line style="stroke:#181818;stroke-width:1.0;" x1="832.75" x2="640.25" y1="1432.5078" y2="1432.5078"/><polygon fill="#181818" points="650.25,1428.5078,640.25,1432.5078,650.25,1436.5078,646.25,1432.5078" style="stroke:#181818;stroke-width:1.0;"/><line style="stroke:#181818;stroke-width:1.0;" x1="628.25" x2="628.25" y1="1400.5078" y2="1420.5078"/><polygon fill="#181818" points="624.25,1410.5078,628.25,1420.5078,632.25,1410.5078,628.25,1414.5078" style="stroke:#181818;stroke-width:1.0;"/><line style="stroke:#181818;stroke-width:1.0;" x1="628.25" x2="628.25" y1="1294.5664" y2="1314.5664"/><polygon fill="#181818" points="624.25,1304.5664,628.25,1314.5664,632.25,1304.5664,628.25,1308.5664" style="stroke:#181818;stroke-width:1.0;"/><line style="stroke:#181818;stroke-width:1.0;" x1="178.75" x2="138.5" y1="1668.2148" y2="1668.2148"/><line style="stroke:#181818;stroke-width:1.0;" x1="138.5" x2="138.5" y1="1668.2148" y2="1718.1172"/><polygon fill="#181818" points="134.5,1708.1172,138.5,1718.1172,142.5,1708.1172,138.5,1712.1172" style="stroke:#181818;stroke-width:1.0;"/><line style="stroke:#181818;stroke-width:1.0;" x1="337.75" x2="378" y1="1668.2148" y2="1668.2148"/><line style="stroke:#181818;stroke-width:1.0;" x1="378" x2="378" y1="1668.2148" y2="1718.1172"/><polygon fill="#181818" points="374,1708.1172,378,1718.1172,382,1708.1172,378,1712.1172" style="stroke:#181818;stroke-width:1.0;"/><line style="stroke:#181818;stroke-width:1.0;" x1="138.5" x2="138.5" y1="1754.0781" y2="1772.0781"/><line style="stroke:#181818;stroke-width:1.0;" x1="138.5" x2="246.25" y1="1772.0781" y2="1772.0781"/><polygon fill="#181818" points="236.25,1768.0781,246.25,1772.0781,236.25,1776.0781,240.25,1772.0781" style="stroke:#181818;stroke-width:1.0;"/><line style="stroke:#181818;stroke-width:1.0;" x1="378" x2="378" y1="1754.0781" y2="1772.0781"/><line style="stroke:#181818;stroke-width:1.0;" x1="378" x2="270.25" y1="1772.0781" y2="1772.0781"/><polygon fill="#181818" points="280.25,1768.0781,270.25,1772.0781,280.25,1776.0781,276.25,1772.0781" style="stroke:#181818;stroke-width:1.0;"/><line style="stroke:#181818;stroke-width:1.0;" x1="331.125" x2="258.25" y1="1586.3906" y2="1586.3906"/><line style="stroke:#181818;stroke-width:1.0;" x1="258.25" x2="258.25" y1="1586.3906" y2="1628.3125"/><polygon fill="#181818" points="254.25,1618.3125,258.25,1628.3125,262.25,1618.3125,258.25,1622.3125" style="stroke:#181818;stroke-width:1.0;"/><line style="stroke:#181818;stroke-width:1.0;" x1="554.125" x2="627" y1="1586.3906" y2="1586.3906"/><line style="stroke:#181818;stroke-width:1.0;" x1="627" x2="627" y1="1586.3906" y2="1628.3125"/><polygon fill="#181818" points="623,1618.3125,627,1628.3125,631,1618.3125,627,1622.3125" style="stroke:#181818;stroke-width:1.0;"/><line style="stroke:#181818;stroke-width:1.0;" x1="258.25" x2="258.25" y1="1784.0781" y2="1802.0781"/><line style="stroke:#181818;stroke-width:1.0;" x1="258.25" x2="430.625" y1="1802.0781" y2="1802.0781"/><polygon fill="#181818" points="420.625,1798.0781,430.625,1802.0781,420.625,1806.0781,424.625,1802.0781" style="stroke:#181818;stroke-width:1.0;"/><line style="stroke:#181818;stroke-width:1.0;" x1="627" x2="627" y1="1664.2734" y2="1802.0781"/><line style="stroke:#181818;stroke-width:1.0;" x1="627" x2="454.625" y1="1802.0781" y2="1802.0781"/><polygon fill="#181818" points="464.625,1798.0781,454.625,1802.0781,464.625,1806.0781,460.625,1802.0781" style="stroke:#181818;stroke-width:1.0;"/><line style="stroke:#181818;stroke-width:1.0;" x1="442.625" x2="442.625" y1="1534.4688" y2="1554.4688"/><polygon fill="#181818" points="438.625,1544.4688,442.625,1554.4688,446.625,1544.4688,442.625,1548.4688" style="stroke:#181818;stroke-width:1.0;"/><line style="stroke:#181818;stroke-width:1.0;" x1="316.125" x2="283.875" y1="1866" y2="1866"/><line style="stroke:#181818;stroke-width:1.0;" x1="283.875" x2="283.875" y1="1866" y2="1907.9219"/><polygon fill="#181818" points="279.875,1897.9219,283.875,1907.9219,287.875,1897.9219,283.875,1901.9219" style="stroke:#181818;stroke-width:1.0;"/><line style="stroke:#181818;stroke-width:1.0;" x1="569.125" x2="601.375" y1="1866" y2="1866"/><line style="stroke:#181818;stroke-width:1.0;" x1="601.375" x2="601.375" y1="1866" y2="1907.9219"/><polygon fill="#181818" points="597.375,1897.9219,601.375,1907.9219,605.375,1897.9219,601.375,1901.9219" style="stroke:#181818;stroke-width:1.0;"/><line style="stroke:#181818;stroke-width:1.0;" x1="283.875" x2="283.875" y1="1943.8828" y2="1961.8828"/><line style="stroke:#181818;stroke-width:1.0;" x1="283.875" x2="430.625" y1="1961.8828" y2="1961.8828"/><polygon fill="#181818" points="420.625,1957.8828,430.625,1961.8828,420.625,1965.8828,424.625,1961.8828" style="stroke:#181818;stroke-width:1.0;"/><line style="stroke:#181818;stroke-width:1.0;" x1="601.375" x2="601.375" y1="1943.8828" y2="1961.8828"/><line style="stroke:#181818;stroke-width:1.0;" x1="601.375" x2="454.625" y1="1961.8828" y2="1961.8828"/><polygon fill="#181818" points="464.625,1957.8828,454.625,1961.8828,464.625,1965.8828,460.625,1961.8828" style="stroke:#181818;stroke-width:1.0;"/><line style="stroke:#181818;stroke-width:1.0;" x1="442.625" x2="442.625" y1="1814.0781" y2="1834.0781"/><polygon fill="#181818" points="438.625,1824.0781,442.625,1834.0781,446.625,1824.0781,442.625,1828.0781" style="stroke:#181818;stroke-width:1.0;"/><line style="stroke:#181818;stroke-width:1.0;" x1="179.5" x2="139.75" y1="2107.6289" y2="2107.6289"/><line style="stroke:#181818;stroke-width:1.0;" x1="139.75" x2="139.75" y1="2107.6289" y2="2157.5313"/><polygon fill="#181818" points="135.75,2147.5313,139.75,2157.5313,143.75,2147.5313,139.75,2151.5313" style="stroke:#181818;stroke-width:1.0;"/><line style="stroke:#181818;stroke-width:1.0;" x1="338.5" x2="378.25" y1="2107.6289" y2="2107.6289"/><line style="stroke:#181818;stroke-width:1.0;" x1="378.25" x2="378.25" y1="2107.6289" y2="2157.5313"/><polygon fill="#181818" points="374.25,2147.5313,378.25,2157.5313,382.25,2147.5313,378.25,2151.5313" style="stroke:#181818;stroke-width:1.0;"/><line style="stroke:#181818;stroke-width:1.0;" x1="139.75" x2="139.75" y1="2193.4922" y2="2211.4922"/><line style="stroke:#181818;stroke-width:1.0;" x1="139.75" x2="247" y1="2211.4922" y2="2211.4922"/><polygon fill="#181818" points="237,2207.4922,247,2211.4922,237,2215.4922,241,2211.4922" style="stroke:#181818;stroke-width:1.0;"/><line style="stroke:#181818;stroke-width:1.0;" x1="378.25" x2="378.25" y1="2193.4922" y2="2211.4922"/><line style="stroke:#181818;stroke-width:1.0;" x1="378.25" x2="271" y1="2211.4922" y2="2211.4922"/><polygon fill="#181818" points="281,2207.4922,271,2211.4922,281,2215.4922,277,2211.4922" style="stroke:#181818;stroke-width:1.0;"/><line style="stroke:#181818;stroke-width:1.0;" x1="331.125" x2="259" y1="2025.8047" y2="2025.8047"/><line style="stroke:#181818;stroke-width:1.0;" x1="259" x2="259" y1="2025.8047" y2="2067.7266"/><polygon fill="#181818" points="255,2057.7266,259,2067.7266,263,2057.7266,259,2061.7266" style="stroke:#181818;stroke-width:1.0;"/><line style="stroke:#181818;stroke-width:1.0;" x1="554.125" x2="626.25" y1="2025.8047" y2="2025.8047"/><line style="stroke:#181818;stroke-width:1.0;" x1="626.25" x2="626.25" y1="2025.8047" y2="2067.7266"/><polygon fill="#181818" points="622.25,2057.7266,626.25,2067.7266,630.25,2057.7266,626.25,2061.7266" style="stroke:#181818;stroke-width:1.0;"/><line style="stroke:#181818;stroke-width:1.0;" x1="259" x2="259" y1="2223.4922" y2="2241.4922"/><line style="stroke:#181818;stroke-width:1.0;" x1="259" x2="430.625" y1="2241.4922" y2="2241.4922"/><polygon fill="#181818" points="420.625,2237.4922,430.625,2241.4922,420.625,2245.4922,424.625,2241.4922" style="stroke:#181818;stroke-width:1.0;"/><line style="stroke:#181818;stroke-width:1.0;" x1="626.25" x2="626.25" y1="2103.6875" y2="2241.4922"/><line style="stroke:#181818;stroke-width:1.0;" x1="626.25" x2="454.625" y1="2241.4922" y2="2241.4922"/><polygon fill="#181818" points="464.625,2237.4922,454.625,2241.4922,464.625,2245.4922,460.625,2241.4922" style="stroke:#181818;stroke-width:1.0;"/><line style="stroke:#181818;stroke-width:1.0;" x1="442.625" x2="442.625" y1="1973.8828" y2="1993.8828"/><polygon fill="#181818" points="438.625,1983.8828,442.625,1993.8828,446.625,1983.8828,442.625,1987.8828" style="stroke:#181818;stroke-width:1.0;"/><line style="stroke:#181818;stroke-width:1.0;" x1="553.75" x2="442.625" y1="1476.5078" y2="1476.5078"/><line style="stroke:#181818;stroke-width:1.0;" x1="442.625" x2="442.625" y1="1476.5078" y2="1498.5078"/><polygon fill="#181818" points="438.625,1488.5078,442.625,1498.5078,446.625,1488.5078,442.625,1492.5078" style="stroke:#181818;stroke-width:1.0;"/><line style="stroke:#181818;stroke-width:1.0;" x1="702.75" x2="813.875" y1="1476.5078" y2="1476.5078"/><line style="stroke:#181818;stroke-width:1.0;" x1="813.875" x2="813.875" y1="1476.5078" y2="1498.5078"/><polygon fill="#181818" points="809.875,1488.5078,813.875,1498.5078,817.875,1488.5078,813.875,1492.5078" style="stroke:#181818;stroke-width:1.0;"/><line style="stroke:#181818;stroke-width:1.0;" x1="442.625" x2="442.625" y1="2253.4922" y2="2271.4922"/><line style="stroke:#181818;stroke-width:1.0;" x1="442.625" x2="616.25" y1="2271.4922" y2="2271.4922"/><polygon fill="#181818" points="606.25,2267.4922,616.25,2271.4922,606.25,2275.4922,610.25,2271.4922" style="stroke:#181818;stroke-width:1.0;"/><line style="stroke:#181818;stroke-width:1.0;" x1="813.875" x2="813.875" y1="1534.4688" y2="2271.4922"/><line style="stroke:#181818;stroke-width:1.0;" x1="813.875" x2="640.25" y1="2271.4922" y2="2271.4922"/><polygon fill="#181818" points="650.25,2267.4922,640.25,2271.4922,650.25,2275.4922,646.25,2271.4922" style="stroke:#181818;stroke-width:1.0;"/><line style="stroke:#181818;stroke-width:1.0;" x1="628.25" x2="628.25" y1="1444.5078" y2="1464.5078"/><polygon fill="#181818" points="624.25,1454.5078,628.25,1464.5078,632.25,1454.5078,628.25,1458.5078" style="stroke:#181818;stroke-width:1.0;"/><line style="stroke:#181818;stroke-width:1.0;" x1="628.25" x2="628.25" y1="854.1406" y2="902.7617"/><polygon fill="#181818" points="624.25,892.7617,628.25,902.7617,632.25,892.7617,628.25,896.7617" style="stroke:#181818;stroke-width:1.0;"/><line style="stroke:#181818;stroke-width:1.0;" x1="628.25" x2="628.25" y1="2283.4922" y2="2315.4922"/><polygon fill="#181818" points="624.25,2305.4922,628.25,2315.4922,632.25,2305.4922,628.25,2309.4922" style="stroke:#181818;stroke-width:1.0;"/><!--SRC=[rLPHRzis47xNhxYr3qiDf4Qphcsy84LjIqMme3KS15q10mOjdMqk52cGL1nly7_lKPGJsPBZDF33fWV38ddVVVpkEug_zbGkCDS6k34v6aWGEZ2tDZETTdjkKn4heNIi4ZIlOvMsfxfjsKGWouyJF8vzTCCG_JLy9eypmMmx-2N1APS8lV7dOVZz3KGVejFeT6lu1AAJwBVeRMNuUtXv-VKRH64KziBA-E1wEBWC8NeRzgBtbV7kvNK8OJVwFUfkWeTV83oDteTHS6RiKk1vm6BBRxbTzZcRQPR2lm7Gat2MAfcKR-xfilXcfbKkavvJeanoFnqfQQ_uFmXlJegnLV7Bj5QB2aZpgenfoorNyj5qXMBtyqC_fILgU5TYhOApThahSyCbmT9-hkOiKGikPp1bmc0G29mXxSogh0WRZui41lpuU0oTOhm5PnFYq2bbE- -fb1I1JuEBixQREDzQvKjnFX3vZ4luw-vkzr9VpVNIoZB7ozC80cD9bI3WKpWQoRuYIzevGkPZvkmMQGUGQNNB4nn91XfPGbem8LJC2Z5JZETCSfD-7CbNBbh2qHBDgotDNm2KJARa1QMNe2P_Oso1PXxgyRBKeTDg_OdBJA2F2UyiIaCmaOzjjVweXdXHEYR3c4zv3AqM2UCZcmEyD9Hae9JOM7YLyVNQrSuTF8Vvqodlvxf14ibkS2JL_qJm_x3OhWakV0EKDjUOgbjts7wiERiQLE-SXT8tr2wvLLAbAZTYwVeeGUksui57CbPIqZlnDS2e9nDkAaDDxLHzggf-ka_qTM9G5vHhLba_cuRP1VaK89dmQV0uRBtsMq0F8Al0_mysN33qbTXsGSq1VbtD0RkgxvUxLK5pwPanAkRCOW8BRkV0rgMrSsRN9oBLxT4JiR60sptjgLHasLIo56NDiiTabIObIWH2cWlBIGL7p2gwH9ZzkNjAJlairwx6FyTXIwbxypcFguoICX1gncCcm2aXKNWDNL3CTBAVsuEXhr3uXdWMHPTjNnStkxwMhg7PIm5SiqErrqVoeTaB1bmIxDwkRaPt7s7tvPtaNDXZCc21c6aqA6EQaSewMp_XOxohBxynRYEbUuHxiIPQAS1pJv0cs2ur2TsPPWSuJPhWl-pCi8dkbTwoCHMzSaYpgdV4I4xGBf3aj0j5Twd-DLZDf9cYVhIaEmWFFUgQQp_Nz3lGAaPZ6hZlrQ9F5zuw_3xO1ab-tjgbG8SmTieBcWNkWNrTAd9OLszLyR2UBi6VukWwRXMpVcuMWIjtzrVP3m00]--></g></svg>