<?xml version="1.0" encoding="us-ascii" standalone="no"?><svg xmlns="http://www.w3.org/2000/svg" xmlns:xlink="http://www.w3.org/1999/xlink" contentStyleType="text/css" height="375px" preserveAspectRatio="none" style="width:309px;height:375px;background:#FFFFFF;" version="1.1" viewBox="0 0 309 375" width="309px" zoomAndPan="magnify"><defs/><g><!--class MessageDto--><g id="elem_MessageDto"><rect codeLine="75" fill="#E9F7EF" height="196.9688" id="MessageDto" rx="2.5" ry="2.5" style="stroke:#27AE60;stroke-width:2.0;" width="295" x="7" y="7"/><ellipse cx="110.75" cy="23" fill="#ADD1B2" rx="11" ry="11" style="stroke:#181818;stroke-width:1.0;"/><path d="M113.5156,18.875 Q113.6719,18.6563 113.8594,18.5469 Q114.0469,18.4375 114.2656,18.4375 Q114.6406,18.4375 114.875,18.7031 Q115.1094,18.9531 115.1094,19.5625 L115.1094,21.0156 Q115.1094,21.625 114.875,21.8906 Q114.6406,22.1563 114.2656,22.1563 Q113.9219,22.1563 113.7188,21.9531 Q113.5156,21.7656 113.4063,21.25 Q113.3594,20.8906 113.1719,20.7031 Q112.8438,20.3281 112.2344,20.1094 Q111.625,19.8906 111,19.8906 Q110.2344,19.8906 109.5938,20.2188 Q108.9688,20.5469 108.4688,21.2969 Q107.9844,22.0469 107.9844,23.0781 L107.9844,24.1719 Q107.9844,25.4063 108.875,26.2344 Q109.7656,27.0469 111.3594,27.0469 Q112.2969,27.0469 112.9531,26.7969 Q113.3438,26.6406 113.7656,26.2031 Q114.0313,25.9375 114.1719,25.8594 Q114.3281,25.7813 114.5313,25.7813 Q114.8594,25.7813 115.1094,26.0469 Q115.375,26.2969 115.375,26.6406 Q115.375,26.9844 115.0313,27.3906 Q114.5313,27.9688 113.7344,28.2969 Q112.6563,28.75 111.3594,28.75 Q109.8438,28.75 108.6406,28.125 Q107.6563,27.625 106.9688,26.5625 Q106.2813,25.4844 106.2813,24.2031 L106.2813,23.0469 Q106.2813,21.7188 106.8906,20.5781 Q107.5156,19.4219 108.6094,18.8125 Q109.7031,18.1875 110.9375,18.1875 Q111.6719,18.1875 112.3125,18.3594 Q112.9688,18.5156 113.5156,18.875 Z " fill="#000000"/><text fill="#000000" font-family="sans-serif" font-size="14" lengthAdjust="spacing" textLength="79" x="131.25" y="28.7969">MessageDto</text><line style="stroke:#27AE60;stroke-width:2.0;" x1="8" x2="301" y1="39" y2="39"/><text fill="#000000" font-family="sans-serif" font-size="14" font-weight="bold" lengthAdjust="spacing" textLength="60" x="13" y="58.1074">apiLevel</text><text fill="#000000" font-family="sans-serif" font-size="14" lengthAdjust="spacing" textLength="81" x="77" y="58.1074">: Number = 2</text><text fill="#000000" font-family="sans-serif" font-size="14" font-weight="bold" lengthAdjust="spacing" textLength="68" x="13" y="76.7285">sessionId</text><text fill="#000000" font-family="sans-serif" font-size="14" lengthAdjust="spacing" textLength="45" x="85" y="76.7285">: String</text><text fill="#000000" font-family="sans-serif" font-size="14" font-weight="bold" lengthAdjust="spacing" textLength="43" x="13" y="95.3496">action</text><text fill="#000000" font-family="sans-serif" font-size="14" lengthAdjust="spacing" textLength="66" x="60" y="95.3496">: String = "</text><text fill="#000000" font-family="sans-serif" font-size="14" font-weight="bold" lengthAdjust="spacing" textLength="165" x="126" y="95.3496">END_REMOTE_SERVICE</text><text fill="#000000" font-family="sans-serif" font-size="14" lengthAdjust="spacing" textLength="5" x="291" y="95.3496">"</text><text fill="#000000" font-family="sans-serif" font-size="14" font-weight="bold" lengthAdjust="spacing" textLength="89" x="13" y="113.9707">clientNodeId</text><text fill="#000000" font-family="sans-serif" font-size="14" lengthAdjust="spacing" textLength="45" x="106" y="113.9707">: String</text><text fill="#000000" font-family="sans-serif" font-size="14" font-weight="bold" lengthAdjust="spacing" textLength="97" x="13" y="132.5918">serverNodeId</text><text fill="#000000" font-family="sans-serif" font-size="14" lengthAdjust="spacing" textLength="45" x="114" y="132.5918">: String</text><text fill="#808080" font-family="sans-serif" font-size="14" font-weight="bold" lengthAdjust="spacing" textLength="123" x="13" y="151.2129">localReaderName</text><text fill="#808080" font-family="sans-serif" font-size="14" lengthAdjust="spacing" textLength="30" x="140" y="151.2129">: null</text><text fill="#000000" font-family="sans-serif" font-size="14" font-weight="bold" lengthAdjust="spacing" textLength="140" x="13" y="169.834">remoteReaderName</text><text fill="#000000" font-family="sans-serif" font-size="14" lengthAdjust="spacing" textLength="45" x="157" y="169.834">: String</text><text fill="#000000" font-family="sans-serif" font-size="14" font-weight="bold" lengthAdjust="spacing" textLength="34" x="13" y="188.4551">body</text><text fill="#000000" font-family="sans-serif" font-size="14" lengthAdjust="spacing" textLength="45" x="51" y="188.4551">: String</text><line style="stroke:#27AE60;stroke-width:2.0;" x1="8" x2="301" y1="195.9688" y2="195.9688"/></g><!--class EndRemoteServiceBody--><g id="elem_EndRemoteServiceBody"><rect codeLine="76" fill="#E9F7EF" height="85.2422" id="EndRemoteServiceBody" rx="2.5" ry="2.5" style="stroke:#27AE60;stroke-width:2.0;" width="190" x="59.5" y="283"/><ellipse cx="76.75" cy="299" fill="#ADD1B2" rx="11" ry="11" style="stroke:#181818;stroke-width:1.0;"/><path d="M79.5156,294.875 Q79.6719,294.6563 79.8594,294.5469 Q80.0469,294.4375 80.2656,294.4375 Q80.6406,294.4375 80.875,294.7031 Q81.1094,294.9531 81.1094,295.5625 L81.1094,297.0156 Q81.1094,297.625 80.875,297.8906 Q80.6406,298.1563 80.2656,298.1563 Q79.9219,298.1563 79.7188,297.9531 Q79.5156,297.7656 79.4063,297.25 Q79.3594,296.8906 79.1719,296.7031 Q78.8438,296.3281 78.2344,296.1094 Q77.625,295.8906 77,295.8906 Q76.2344,295.8906 75.5938,296.2188 Q74.9688,296.5469 74.4688,297.2969 Q73.9844,298.0469 73.9844,299.0781 L73.9844,300.1719 Q73.9844,301.4063 74.875,302.2344 Q75.7656,303.0469 77.3594,303.0469 Q78.2969,303.0469 78.9531,302.7969 Q79.3438,302.6406 79.7656,302.2031 Q80.0313,301.9375 80.1719,301.8594 Q80.3281,301.7813 80.5313,301.7813 Q80.8594,301.7813 81.1094,302.0469 Q81.375,302.2969 81.375,302.6406 Q81.375,302.9844 81.0313,303.3906 Q80.5313,303.9688 79.7344,304.2969 Q78.6563,304.75 77.3594,304.75 Q75.8438,304.75 74.6406,304.125 Q73.6563,303.625 72.9688,302.5625 Q72.2813,301.4844 72.2813,300.2031 L72.2813,299.0469 Q72.2813,297.7188 72.8906,296.5781 Q73.5156,295.4219 74.6094,294.8125 Q75.7031,294.1875 76.9375,294.1875 Q77.6719,294.1875 78.3125,294.3594 Q78.9688,294.5156 79.5156,294.875 Z " fill="#000000"/><text fill="#000000" font-family="sans-serif" font-size="14" lengthAdjust="spacing" textLength="153" x="91.25" y="304.7969">EndRemoteServiceBody</text><line style="stroke:#27AE60;stroke-width:2.0;" x1="60.5" x2="248.5" y1="315" y2="315"/><text fill="#000000" font-family="sans-serif" font-size="14" font-weight="bold" lengthAdjust="spacing" textLength="93" x="65.5" y="334.1074">coreApiLevel</text><text fill="#000000" font-family="sans-serif" font-size="14" lengthAdjust="spacing" textLength="81" x="162.5" y="334.1074">: Number = 2</text><text fill="#000000" font-family="sans-serif" font-size="14" font-weight="bold" lengthAdjust="spacing" textLength="77" x="65.5" y="352.7285">outputData</text><text fill="#000000" font-family="sans-serif" font-size="14" lengthAdjust="spacing" textLength="57" x="146.5" y="352.7285">: Object?</text><line style="stroke:#27AE60;stroke-width:2.0;" x1="60.5" x2="248.5" y1="360.2422" y2="360.2422"/></g><!--reverse link MessageDto to EndRemoteServiceBody--><g id="link_MessageDto_EndRemoteServiceBody"><path codeLine="68" d="M154.5,216.023 C154.5,243.684 154.5,260.343 154.5,282.7656 " fill="none" id="MessageDto-backto-EndRemoteServiceBody" style="stroke:#3498DB;stroke-width:2.0;"/><polygon fill="#3498DB" points="154.5,204.023,150.5,210.023,154.5,216.023,158.5,210.023,154.5,204.023" style="stroke:#3498DB;stroke-width:2.0;"/><text fill="#000000" font-family="sans-serif" font-size="13" lengthAdjust="spacing" textLength="61" x="155.5" y="249.0283">JsonString</text><text fill="#000000" font-family="sans-serif" font-size="13" lengthAdjust="spacing" textLength="7" x="146.9422" y="271.6328">1</text></g><!--SRC=[bPHHRzem4CVV-HGUVQWKYT52Q0fgEoMnqx5Hc81EugaAoHKoJ1pPJX6QzjrtX403ZM3ZAVpzl_lPv_DTaljxClxAdXX-L2gNhaWvf5AHIAaK50c1TCXSwqHrwlMvNl90S2434OBw78Xb_LNMjJ_buAUr46h1Dhf4mayLpU9QmdrThtmAuJMAWRWlZqCskIRUhTVssaToWtWDh-cPHtAJi1QpsB7R9DIY3gL7SekujklHnf5yGnpgDbsh8FUw_U-aQRPlgLDGdqUCD2oRtLnXSKYjHaPwpR4kUkvh4ehuKfELa0koYlISnB0YRo1L968YNWcUDTRfacDOHIsYEF6bloHAWmIXrmdOZf0XI7TJKN9XjwbBlL9Zzy3ecBR5MgL6zp0ZfTTEezJ83epCQJSHdPsFzUbcluKeb_jARVtZUHGiOb2A5DFQKefLSGapJO1piVgGnGyMCodIECp97lEOoyfXkOMQjdj5CUKGmZFvxkuaX0yFc9OoojmJQVTEPfdO1vLvX8s-4z_BXDGVgKmud0KdcIrZcyprh9FiT_CjCqsRxl1x_M07KvwUvszCsNaSh-Kv9-axQzxhEJjN3yYF4Y0-YvvjN1cxxLdCEydUU_CtbSDtyZ5z_I_mTSQsiO_OENPcRRXDrYgYruTaHEDCT0VzCUkFjrDnyofUXknfC6Ol8pRysSMU3JO0yeGTxy-0Qa5-LmZ-3CDFeXwy0JSC79tzT3a5IUxnLMnN5GRWVEY6sV98ooYUxG83ZIi57SEgXl6HRHZLF2JW4SIwZ-EuBA42YUEeVFKk6-ITxFY6mKNWyo7uMAs-luJC7AUSvuaaB8M6e_K3r5I4wwBw9wyFYyDX5Zp2lKG1EEZRLoeG4koJrHAfJb9DVUrdwuFfBmZq5yoETs8h9OB8tzHCLIg5Yp1mZ5Mlg-NiYtpITyWt9U9yjzihxzcJmVFknl7_Q3pfiVzeW7qVdphxk-al]--></g></svg>