<?xml version="1.0" encoding="UTF-8" standalone="no"?><svg xmlns="http://www.w3.org/2000/svg" xmlns:xlink="http://www.w3.org/1999/xlink" contentScriptType="application/ecmascript" contentStyleType="text/css" height="1416px" preserveAspectRatio="none" style="width:2186px;height:1416px;" version="1.1" viewBox="0 0 2186 1416" width="2186px" zoomAndPan="magnify"><defs/><g><text fill="#000000" font-family="sans-serif" font-size="36" lengthAdjust="spacingAndGlyphs" textLength="918" x="646" y="37.3711">Keyple Remote Plugin - Common API - 1.0.0 (03/11/2020)</text><!--MD5=[f7217341b3bb6bbf768c7f0e049f8d09]
cluster Legend--><polygon fill="#FFFFFF" points="322,93.2813,440,93.2813,454,140.5,1966,140.5,1966,515.2813,322,515.2813,322,93.2813" style="stroke: #000000; stroke-width: 3.0;"/><line style="stroke: #000000; stroke-width: 3.0;" x1="322" x2="454" y1="140.5" y2="140.5"/><text fill="#000000" font-family="sans-serif" font-size="28" font-weight="bold" lengthAdjust="spacingAndGlyphs" textLength="106" x="330" y="126.3477">Legend</text><!--MD5=[3fb92fba1735106d511c1d05a9f83ed2]
cluster root--><polygon fill="#F8F9F9" points="44,581.2813,518,581.2813,532,628.5,2142,628.5,2142,1393.2813,44,1393.2813,44,581.2813" style="stroke: #000000; stroke-width: 3.0;"/><line style="stroke: #000000; stroke-width: 3.0;" x1="44" x2="532" y1="628.5" y2="628.5"/><text fill="#000000" font-family="sans-serif" font-size="28" font-weight="bold" lengthAdjust="spacingAndGlyphs" textLength="462" x="52" y="614.3477">org.eclipse.keyple.plugin.remote</text><!--MD5=[f7e0e2453c87923036c1ac2adfb9cbf0]
cluster spi--><polygon fill="#E5E7E9" points="92,1026.2813,146,1026.2813,160,1073.5,1694,1073.5,1694,1310.2813,92,1310.2813,92,1026.2813" style="stroke: #000000; stroke-width: 3.0;"/><line style="stroke: #000000; stroke-width: 3.0;" x1="92" x2="160" y1="1073.5" y2="1073.5"/><text fill="#000000" font-family="sans-serif" font-size="28" font-weight="bold" lengthAdjust="spacingAndGlyphs" textLength="42" x="100" y="1059.3477">spi</text><!--MD5=[5c5c6b350adbda18185f83d130fdf3f8]
class syncNodeApi--><rect fill="#FEFECE" height="96" id="syncNodeApi" style="stroke: #D4AC0D; stroke-width: 3.0;" width="70" x="1355" y="380.2813"/><ellipse cx="1385" cy="412.2813" fill="#B4A7E5" rx="22" ry="22" style="stroke: #B4A7E5; stroke-width: 2.0;"/><path d="M1387,406.2813 L1387,418.2813 L1391,418.2813 L1391.9688,418.2813 L1393,419.5313 L1393,420.2813 L1393,421.0313 L1391.9688,422.2813 L1391,422.2813 L1379,422.2813 L1378.0313,422.2813 L1377,421.0313 L1377,420.2813 L1377,419.5313 L1378.0313,418.2813 L1379,418.2813 L1383,418.2813 L1383,406.2813 L1379,406.2813 L1378.0313,406.2813 L1377,405.0313 L1377,404.2813 L1377,403.5313 L1378.0313,402.2813 L1379,402.2813 L1391,402.2813 L1391.9688,402.2813 L1393,403.5313 L1393,404.2813 L1393,405.0313 L1391.9688,406.2813 L1391,406.2813 L1387,406.2813 Z "/><text fill="#000000" font-family="sans-serif" font-size="24" font-style="italic" lengthAdjust="spacingAndGlyphs" textLength="0" x="1419" y="422.1016"/><line style="stroke: #D4AC0D; stroke-width: 3.0;" x1="1357" x2="1423" y1="444.2813" y2="444.2813"/><line style="stroke: #D4AC0D; stroke-width: 3.0;" x1="1357" x2="1423" y1="460.2813" y2="460.2813"/><path d="M1275,182.2813 L1275,234.9844 A0,0 0 0 0 1275,234.9844 L1382,234.9844 L1390,379.9033 L1398,234.9844 L1505,234.9844 A0,0 0 0 0 1505,234.9844 L1505,202.2813 L1485,182.2813 L1275,182.2813 A0,0 0 0 0 1275,182.2813 " fill="#FBFB77" style="stroke: #A80036; stroke-width: 2.0;"/><path d="M1485,182.2813 L1485,202.2813 L1505,202.2813 L1485,182.2813 " fill="#FBFB77" style="stroke: #A80036; stroke-width: 2.0;"/><text fill="#000000" font-family="sans-serif" font-size="26" font-weight="bold" lengthAdjust="spacingAndGlyphs" textLength="188" x="1287" y="219.2715">Sync Node API</text><!--MD5=[23099d145a94a232b0aa4aeb0346cc05]
class asyncNodeApi--><rect fill="#FDEDEC" height="96" id="asyncNodeApi" style="stroke: #E74C3C; stroke-width: 3.0;" width="70" x="885" y="380.2813"/><ellipse cx="915" cy="412.2813" fill="#B4A7E5" rx="22" ry="22" style="stroke: #B4A7E5; stroke-width: 2.0;"/><path d="M917,406.2813 L917,418.2813 L921,418.2813 L921.9688,418.2813 L923,419.5313 L923,420.2813 L923,421.0313 L921.9688,422.2813 L921,422.2813 L909,422.2813 L908.0313,422.2813 L907,421.0313 L907,420.2813 L907,419.5313 L908.0313,418.2813 L909,418.2813 L913,418.2813 L913,406.2813 L909,406.2813 L908.0313,406.2813 L907,405.0313 L907,404.2813 L907,403.5313 L908.0313,402.2813 L909,402.2813 L921,402.2813 L921.9688,402.2813 L923,403.5313 L923,404.2813 L923,405.0313 L921.9688,406.2813 L921,406.2813 L917,406.2813 Z "/><text fill="#000000" font-family="sans-serif" font-size="24" font-style="italic" lengthAdjust="spacingAndGlyphs" textLength="0" x="949" y="422.1016"/><line style="stroke: #E74C3C; stroke-width: 3.0;" x1="887" x2="953" y1="444.2813" y2="444.2813"/><line style="stroke: #E74C3C; stroke-width: 3.0;" x1="887" x2="953" y1="460.2813" y2="460.2813"/><path d="M963,182.2813 L963,234.9844 A0,0 0 0 0 963,234.9844 L1057.188,234.9844 L955.214,379.9033 L1073.188,234.9844 L1205,234.9844 A0,0 0 0 0 1205,234.9844 L1205,202.2813 L1185,182.2813 L963,182.2813 A0,0 0 0 0 963,182.2813 " fill="#FBFB77" style="stroke: #A80036; stroke-width: 2.0;"/><path d="M1185,182.2813 L1185,202.2813 L1205,202.2813 L1185,182.2813 " fill="#FBFB77" style="stroke: #A80036; stroke-width: 2.0;"/><text fill="#000000" font-family="sans-serif" font-size="26" font-weight="bold" lengthAdjust="spacingAndGlyphs" textLength="200" x="975" y="219.2715">Async Node API</text><!--MD5=[cd9952de578a78d767c6a3ef89d01436]
class dtoApi--><rect fill="#EAECEE" height="96" id="dtoApi" style="stroke: #2C3E50; stroke-width: 3.0;" width="70" x="1795" y="380.2813"/><ellipse cx="1825" cy="412.2813" fill="#B4A7E5" rx="22" ry="22" style="stroke: #B4A7E5; stroke-width: 2.0;"/><path d="M1827,406.2813 L1827,418.2813 L1831,418.2813 L1831.9688,418.2813 L1833,419.5313 L1833,420.2813 L1833,421.0313 L1831.9688,422.2813 L1831,422.2813 L1819,422.2813 L1818.0313,422.2813 L1817,421.0313 L1817,420.2813 L1817,419.5313 L1818.0313,418.2813 L1819,418.2813 L1823,418.2813 L1823,406.2813 L1819,406.2813 L1818.0313,406.2813 L1817,405.0313 L1817,404.2813 L1817,403.5313 L1818.0313,402.2813 L1819,402.2813 L1831,402.2813 L1831.9688,402.2813 L1833,403.5313 L1833,404.2813 L1833,405.0313 L1831.9688,406.2813 L1831,406.2813 L1827,406.2813 Z "/><text fill="#000000" font-family="sans-serif" font-size="24" font-style="italic" lengthAdjust="spacingAndGlyphs" textLength="0" x="1859" y="422.1016"/><line style="stroke: #2C3E50; stroke-width: 3.0;" x1="1797" x2="1863" y1="444.2813" y2="444.2813"/><line style="stroke: #2C3E50; stroke-width: 3.0;" x1="1797" x2="1863" y1="460.2813" y2="460.2813"/><path d="M1575,182.2813 L1575,234.9844 A0,0 0 0 0 1575,234.9844 L1754.718,234.9844 L1813.682,379.9033 L1770.718,234.9844 L1933,234.9844 A0,0 0 0 0 1933,234.9844 L1933,202.2813 L1913,182.2813 L1575,182.2813 A0,0 0 0 0 1575,182.2813 " fill="#FBFB77" style="stroke: #A80036; stroke-width: 2.0;"/><path d="M1913,182.2813 L1913,202.2813 L1933,202.2813 L1913,182.2813 " fill="#FBFB77" style="stroke: #A80036; stroke-width: 2.0;"/><text fill="#000000" font-family="sans-serif" font-size="26" font-weight="bold" lengthAdjust="spacingAndGlyphs" textLength="54" x="1587" y="219.2715">DTO</text><text fill="#000000" font-family="sans-serif" font-size="26" lengthAdjust="spacingAndGlyphs" textLength="254" x="1649" y="219.2715">(Data Transfer Object)</text><path d="M355,165.2813 L355,250.6875 L893,250.6875 L893,185.2813 L873,165.2813 L355,165.2813 " fill="#FBFB77" style="stroke: #A80036; stroke-width: 2.0;"/><path d="M873,165.2813 L873,185.2813 L893,185.2813 L873,165.2813 " fill="#FBFB77" style="stroke: #A80036; stroke-width: 2.0;"/><text fill="#000000" font-family="sans-serif" font-size="26" lengthAdjust="spacingAndGlyphs" textLength="102" x="367" y="202.2715">Contains</text><text fill="#000000" font-family="sans-serif" font-size="26" font-weight="bold" lengthAdjust="spacingAndGlyphs" textLength="44" x="477" y="202.2715">SPI</text><text fill="#000000" font-family="sans-serif" font-size="26" lengthAdjust="spacingAndGlyphs" textLength="342" x="521" y="202.2715">s (Service Provider Interfaces)</text><text fill="#000000" font-family="sans-serif" font-size="26" lengthAdjust="spacingAndGlyphs" textLength="462" x="375" y="234.9746">which must be implemented by the user</text><polygon fill="#E5E7E9" points="583,373.2813,637,373.2813,651,420.5,665,420.5,665,483.7188,583,483.7188,583,373.2813" style="stroke: #000000; stroke-width: 3.0;"/><line style="stroke: #000000; stroke-width: 3.0;" x1="583" x2="651" y1="420.5" y2="420.5"/><text fill="#000000" font-family="sans-serif" font-size="28" font-weight="bold" lengthAdjust="spacingAndGlyphs" textLength="42" x="591" y="406.3477">spi</text><!--MD5=[f5644b98fc2cac15db0816ab2936d10f]
class AsyncNodeClient--><rect fill="#FDEDEC" height="206.6875" id="AsyncNodeClient" style="stroke: #E74C3C; stroke-width: 3.0;" width="516" x="662" y="653.2813"/><ellipse cx="805.5" cy="685.2813" fill="#B4A7E5" rx="22" ry="22" style="stroke: #B4A7E5; stroke-width: 2.0;"/><path d="M807.5,679.2813 L807.5,691.2813 L811.5,691.2813 L812.4688,691.2813 L813.5,692.5313 L813.5,693.2813 L813.5,694.0313 L812.4688,695.2813 L811.5,695.2813 L799.5,695.2813 L798.5313,695.2813 L797.5,694.0313 L797.5,693.2813 L797.5,692.5313 L798.5313,691.2813 L799.5,691.2813 L803.5,691.2813 L803.5,679.2813 L799.5,679.2813 L798.5313,679.2813 L797.5,678.0313 L797.5,677.2813 L797.5,676.5313 L798.5313,675.2813 L799.5,675.2813 L811.5,675.2813 L812.4688,675.2813 L813.5,676.5313 L813.5,677.2813 L813.5,678.0313 L812.4688,679.2813 L811.5,679.2813 L807.5,679.2813 Z "/><ellipse cx="856.5" cy="684.2813" fill="#84BE84" rx="6" ry="6" style="stroke: #038048; stroke-width: 2.0;"/><text fill="#000000" font-family="sans-serif" font-size="24" font-style="italic" lengthAdjust="spacingAndGlyphs" textLength="190" x="868.5" y="695.1016">AsyncNodeClient</text><line style="stroke: #E74C3C; stroke-width: 3.0;" x1="664" x2="1176" y1="717.2813" y2="717.2813"/><line style="stroke: #E74C3C; stroke-width: 3.0;" x1="664" x2="1176" y1="733.2813" y2="733.2813"/><ellipse cx="684" cy="755.2813" fill="#84BE84" rx="6" ry="6" style="stroke: #038048; stroke-width: 2.0;"/><text fill="#000000" font-family="sans-serif" font-size="22" lengthAdjust="spacingAndGlyphs" textLength="298" x="702" y="764.1191">void onOpen (String sessionId)</text><ellipse cx="684" cy="782.9531" fill="#84BE84" rx="6" ry="6" style="stroke: #038048; stroke-width: 2.0;"/><text fill="#000000" font-family="sans-serif" font-size="22" lengthAdjust="spacingAndGlyphs" textLength="346" x="702" y="791.791">void onMessage (MessageDto msg)</text><ellipse cx="684" cy="810.625" fill="#84BE84" rx="6" ry="6" style="stroke: #038048; stroke-width: 2.0;"/><text fill="#000000" font-family="sans-serif" font-size="22" lengthAdjust="spacingAndGlyphs" textLength="300" x="702" y="819.4629">void onClose (String sessionId)</text><ellipse cx="684" cy="838.2969" fill="#84BE84" rx="6" ry="6" style="stroke: #038048; stroke-width: 2.0;"/><text fill="#000000" font-family="sans-serif" font-size="22" lengthAdjust="spacingAndGlyphs" textLength="464" x="702" y="847.1348">void onError (String sessionId, Throwable error)</text><!--MD5=[0a2f2fb2edeec6d0e98aba29aa655f31]
class AsyncNodeServer--><rect fill="#FDEDEC" height="151.3438" id="AsyncNodeServer" style="stroke: #E74C3C; stroke-width: 3.0;" width="516" x="76" y="680.2813"/><ellipse cx="215.5" cy="712.2813" fill="#B4A7E5" rx="22" ry="22" style="stroke: #B4A7E5; stroke-width: 2.0;"/><path d="M217.5,706.2813 L217.5,718.2813 L221.5,718.2813 L222.4688,718.2813 L223.5,719.5313 L223.5,720.2813 L223.5,721.0313 L222.4688,722.2813 L221.5,722.2813 L209.5,722.2813 L208.5313,722.2813 L207.5,721.0313 L207.5,720.2813 L207.5,719.5313 L208.5313,718.2813 L209.5,718.2813 L213.5,718.2813 L213.5,706.2813 L209.5,706.2813 L208.5313,706.2813 L207.5,705.0313 L207.5,704.2813 L207.5,703.5313 L208.5313,702.2813 L209.5,702.2813 L221.5,702.2813 L222.4688,702.2813 L223.5,703.5313 L223.5,704.2813 L223.5,705.0313 L222.4688,706.2813 L221.5,706.2813 L217.5,706.2813 Z "/><ellipse cx="266.5" cy="711.2813" fill="#84BE84" rx="6" ry="6" style="stroke: #038048; stroke-width: 2.0;"/><text fill="#000000" font-family="sans-serif" font-size="24" font-style="italic" lengthAdjust="spacingAndGlyphs" textLength="198" x="278.5" y="722.1016">AsyncNodeServer</text><line style="stroke: #E74C3C; stroke-width: 3.0;" x1="78" x2="590" y1="744.2813" y2="744.2813"/><line style="stroke: #E74C3C; stroke-width: 3.0;" x1="78" x2="590" y1="760.2813" y2="760.2813"/><ellipse cx="98" cy="782.2813" fill="#84BE84" rx="6" ry="6" style="stroke: #038048; stroke-width: 2.0;"/><text fill="#000000" font-family="sans-serif" font-size="22" lengthAdjust="spacingAndGlyphs" textLength="346" x="116" y="791.1191">void onMessage (MessageDto msg)</text><ellipse cx="98" cy="809.9531" fill="#84BE84" rx="6" ry="6" style="stroke: #038048; stroke-width: 2.0;"/><text fill="#000000" font-family="sans-serif" font-size="22" lengthAdjust="spacingAndGlyphs" textLength="464" x="116" y="818.791">void onError (String sessionId, Throwable error)</text><!--MD5=[93e80188d33ab05d87f81cd0d94a3bc4]
class SyncNodeClient--><rect fill="#FEFECE" height="96" id="SyncNodeClient" style="stroke: #D4AC0D; stroke-width: 3.0;" width="264" x="1248" y="708.2813"/><ellipse cx="1278" cy="740.2813" fill="#B4A7E5" rx="22" ry="22" style="stroke: #B4A7E5; stroke-width: 2.0;"/><path d="M1280,734.2813 L1280,746.2813 L1284,746.2813 L1284.9688,746.2813 L1286,747.5313 L1286,748.2813 L1286,749.0313 L1284.9688,750.2813 L1284,750.2813 L1272,750.2813 L1271.0313,750.2813 L1270,749.0313 L1270,748.2813 L1270,747.5313 L1271.0313,746.2813 L1272,746.2813 L1276,746.2813 L1276,734.2813 L1272,734.2813 L1271.0313,734.2813 L1270,733.0313 L1270,732.2813 L1270,731.5313 L1271.0313,730.2813 L1272,730.2813 L1284,730.2813 L1284.9688,730.2813 L1286,731.5313 L1286,732.2813 L1286,733.0313 L1284.9688,734.2813 L1284,734.2813 L1280,734.2813 Z "/><ellipse cx="1316" cy="739.2813" fill="#84BE84" rx="6" ry="6" style="stroke: #038048; stroke-width: 2.0;"/><text fill="#000000" font-family="sans-serif" font-size="24" font-style="italic" lengthAdjust="spacingAndGlyphs" textLength="178" x="1328" y="750.1016">SyncNodeClient</text><line style="stroke: #D4AC0D; stroke-width: 3.0;" x1="1250" x2="1510" y1="772.2813" y2="772.2813"/><line style="stroke: #D4AC0D; stroke-width: 3.0;" x1="1250" x2="1510" y1="788.2813" y2="788.2813"/><!--MD5=[6c35b9bf176c1aee30f526a9a385796d]
class SyncNodeServer--><rect fill="#FEFECE" height="123.6719" id="SyncNodeServer" style="stroke: #D4AC0D; stroke-width: 3.0;" width="528" x="1582" y="694.2813"/><ellipse cx="1733.5" cy="726.2813" fill="#B4A7E5" rx="22" ry="22" style="stroke: #B4A7E5; stroke-width: 2.0;"/><path d="M1735.5,720.2813 L1735.5,732.2813 L1739.5,732.2813 L1740.4688,732.2813 L1741.5,733.5313 L1741.5,734.2813 L1741.5,735.0313 L1740.4688,736.2813 L1739.5,736.2813 L1727.5,736.2813 L1726.5313,736.2813 L1725.5,735.0313 L1725.5,734.2813 L1725.5,733.5313 L1726.5313,732.2813 L1727.5,732.2813 L1731.5,732.2813 L1731.5,720.2813 L1727.5,720.2813 L1726.5313,720.2813 L1725.5,719.0313 L1725.5,718.2813 L1725.5,717.5313 L1726.5313,716.2813 L1727.5,716.2813 L1739.5,716.2813 L1740.4688,716.2813 L1741.5,717.5313 L1741.5,718.2813 L1741.5,719.0313 L1740.4688,720.2813 L1739.5,720.2813 L1735.5,720.2813 Z "/><ellipse cx="1784.5" cy="725.2813" fill="#84BE84" rx="6" ry="6" style="stroke: #038048; stroke-width: 2.0;"/><text fill="#000000" font-family="sans-serif" font-size="24" font-style="italic" lengthAdjust="spacingAndGlyphs" textLength="186" x="1796.5" y="736.1016">SyncNodeServer</text><line style="stroke: #D4AC0D; stroke-width: 3.0;" x1="1584" x2="2108" y1="758.2813" y2="758.2813"/><line style="stroke: #D4AC0D; stroke-width: 3.0;" x1="1584" x2="2108" y1="774.2813" y2="774.2813"/><ellipse cx="1604" cy="796.2813" fill="#84BE84" rx="6" ry="6" style="stroke: #038048; stroke-width: 2.0;"/><text fill="#000000" font-family="sans-serif" font-size="22" lengthAdjust="spacingAndGlyphs" textLength="476" x="1622" y="805.1191">List&lt;MessageDto&gt; onRequest (MessageDto msg)</text><!--MD5=[f1362ea87dac9fe50fe8caadfc737c53]
class MessageDto--><rect fill="#EAECEE" height="345.0469" id="MessageDto" style="stroke: #2C3E50; stroke-width: 3.0;" width="304" x="1732" y="1015.2813"/><ellipse cx="1798.9" cy="1047.2813" fill="#ADD1B2" rx="22" ry="22" style="stroke: #ADD1B2; stroke-width: 2.0;"/><path d="M1802.9,1040.2813 Q1803.3063,1039.2813 1803.775,1038.7813 Q1804.2438,1038.2813 1804.775,1038.2813 Q1805.7125,1038.2813 1806.3063,1038.8438 Q1806.9,1039.4063 1806.9,1040.7188 L1806.9,1043.8438 Q1806.9,1045.1563 1806.3375,1045.7188 Q1805.775,1046.2813 1804.9,1046.2813 Q1804.1188,1046.2813 1803.6188,1045.9375 Q1803.1188,1045.5938 1802.9,1044.6875 Q1802.8063,1044.0625 1802.4625,1043.7188 Q1801.8375,1043.0625 1800.7125,1042.6875 Q1799.5875,1042.2813 1798.4625,1042.2813 Q1797.0563,1042.2813 1795.8688,1042.8438 Q1794.7125,1043.4063 1793.8063,1044.6563 Q1792.9,1045.9063 1792.9,1047.625 L1792.9,1049.4688 Q1792.9,1051.5313 1794.5875,1052.9063 Q1796.275,1054.2813 1799.275,1054.2813 Q1801.0563,1054.2813 1802.3063,1053.875 Q1803.025,1053.6563 1803.8375,1052.9375 Q1804.3688,1052.5313 1804.65,1052.4063 Q1804.9313,1052.2813 1805.275,1052.2813 Q1805.9313,1052.2813 1806.4,1052.8125 Q1806.9,1053.3125 1806.9,1054.0313 Q1806.9,1054.7188 1806.2125,1055.5313 Q1805.2125,1056.7188 1803.6188,1057.375 Q1801.525,1058.2813 1798.9625,1058.2813 Q1795.9625,1058.2813 1793.5563,1057.0938 Q1791.6188,1056.1563 1790.2438,1054.125 Q1788.9,1052.0938 1788.9,1049.6875 L1788.9,1047.5 Q1788.9,1045 1790.0875,1042.8125 Q1791.3063,1040.625 1793.4,1039.4688 Q1795.525,1038.2813 1797.9,1038.2813 Q1799.3375,1038.2813 1800.5875,1038.7813 Q1801.8375,1039.2813 1802.9,1040.2813 Z "/><ellipse cx="1845.1" cy="1046.2813" fill="#84BE84" rx="6" ry="6" style="stroke: #038048; stroke-width: 2.0;"/><text fill="#000000" font-family="sans-serif" font-size="24" font-style="italic" lengthAdjust="spacingAndGlyphs" textLength="136" x="1857.1" y="1057.1016">MessageDto</text><line style="stroke: #2C3E50; stroke-width: 3.0;" x1="1734" x2="2034" y1="1079.2813" y2="1079.2813"/><ellipse cx="1754" cy="1101.2813" fill="none" rx="6" ry="6" style="stroke: #038048; stroke-width: 2.0;"/><text fill="#000000" font-family="sans-serif" font-size="22" lengthAdjust="spacingAndGlyphs" textLength="154" x="1772" y="1110.1191">String sessionId</text><ellipse cx="1754" cy="1128.9531" fill="none" rx="6" ry="6" style="stroke: #038048; stroke-width: 2.0;"/><text fill="#000000" font-family="sans-serif" font-size="22" lengthAdjust="spacingAndGlyphs" textLength="120" x="1772" y="1137.791">String action</text><ellipse cx="1754" cy="1156.625" fill="none" rx="6" ry="6" style="stroke: #038048; stroke-width: 2.0;"/><text fill="#000000" font-family="sans-serif" font-size="22" lengthAdjust="spacingAndGlyphs" textLength="178" x="1772" y="1165.4629">String clientNodeId</text><ellipse cx="1754" cy="1184.2969" fill="none" rx="6" ry="6" style="stroke: #038048; stroke-width: 2.0;"/><text fill="#000000" font-family="sans-serif" font-size="22" lengthAdjust="spacingAndGlyphs" textLength="192" x="1772" y="1193.1348">String serverNodeId</text><ellipse cx="1754" cy="1211.9688" fill="none" rx="6" ry="6" style="stroke: #038048; stroke-width: 2.0;"/><text fill="#000000" font-family="sans-serif" font-size="22" lengthAdjust="spacingAndGlyphs" textLength="230" x="1772" y="1220.8066">String localReaderName</text><ellipse cx="1754" cy="1239.6406" fill="none" rx="6" ry="6" style="stroke: #038048; stroke-width: 2.0;"/><text fill="#000000" font-family="sans-serif" font-size="22" lengthAdjust="spacingAndGlyphs" textLength="252" x="1772" y="1248.4785">String remoteReaderName</text><ellipse cx="1754" cy="1267.3125" fill="none" rx="6" ry="6" style="stroke: #038048; stroke-width: 2.0;"/><text fill="#000000" font-family="sans-serif" font-size="22" lengthAdjust="spacingAndGlyphs" textLength="110" x="1772" y="1276.1504">String body</text><line style="stroke: #2C3E50; stroke-width: 3.0;" x1="1734" x2="2034" y1="1288.9844" y2="1288.9844"/><ellipse cx="1754" cy="1310.9844" fill="#84BE84" rx="6" ry="6" style="stroke: #038048; stroke-width: 2.0;"/><text fill="#000000" font-family="sans-serif" font-size="22" lengthAdjust="spacingAndGlyphs" textLength="102" x="1772" y="1319.8223">getters()...</text><ellipse cx="1754" cy="1338.6563" fill="#84BE84" rx="6" ry="6" style="stroke: #038048; stroke-width: 2.0;"/><text fill="#000000" font-family="sans-serif" font-size="22" lengthAdjust="spacingAndGlyphs" textLength="102" x="1772" y="1347.4941">setters()...</text><!--MD5=[69a1b607fbf88ef54e5faa33edddc623]
class AsyncEndpointClient--><rect fill="#FDEDEC" height="179.0156" id="AsyncEndpointClient" style="stroke: #E74C3C; stroke-width: 3.0;" width="422" x="617" y="1098.2813"/><ellipse cx="695.6" cy="1130.2813" fill="#B4A7E5" rx="22" ry="22" style="stroke: #B4A7E5; stroke-width: 2.0;"/><path d="M697.6,1124.2813 L697.6,1136.2813 L701.6,1136.2813 L702.5688,1136.2813 L703.6,1137.5313 L703.6,1138.2813 L703.6,1139.0313 L702.5688,1140.2813 L701.6,1140.2813 L689.6,1140.2813 L688.6313,1140.2813 L687.6,1139.0313 L687.6,1138.2813 L687.6,1137.5313 L688.6313,1136.2813 L689.6,1136.2813 L693.6,1136.2813 L693.6,1124.2813 L689.6,1124.2813 L688.6313,1124.2813 L687.6,1123.0313 L687.6,1122.2813 L687.6,1121.5313 L688.6313,1120.2813 L689.6,1120.2813 L701.6,1120.2813 L702.5688,1120.2813 L703.6,1121.5313 L703.6,1122.2813 L703.6,1123.0313 L702.5688,1124.2813 L701.6,1124.2813 L697.6,1124.2813 Z "/><ellipse cx="744.4" cy="1129.2813" fill="#84BE84" rx="6" ry="6" style="stroke: #038048; stroke-width: 2.0;"/><text fill="#000000" font-family="sans-serif" font-size="24" font-style="italic" lengthAdjust="spacingAndGlyphs" textLength="228" x="756.4" y="1140.1016">AsyncEndpointClient</text><line style="stroke: #E74C3C; stroke-width: 3.0;" x1="619" x2="1037" y1="1162.2813" y2="1162.2813"/><line style="stroke: #E74C3C; stroke-width: 3.0;" x1="619" x2="1037" y1="1178.2813" y2="1178.2813"/><ellipse cx="639" cy="1200.2813" fill="#84BE84" rx="6" ry="6" style="stroke: #038048; stroke-width: 2.0;"/><text fill="#000000" font-family="sans-serif" font-size="22" lengthAdjust="spacingAndGlyphs" textLength="348" x="657" y="1209.1191">void openSession (String sessionId)</text><ellipse cx="639" cy="1227.9531" fill="#84BE84" rx="6" ry="6" style="stroke: #038048; stroke-width: 2.0;"/><text fill="#000000" font-family="sans-serif" font-size="22" lengthAdjust="spacingAndGlyphs" textLength="370" x="657" y="1236.791">void sendMessage (MessageDto msg)</text><ellipse cx="639" cy="1255.625" fill="#84BE84" rx="6" ry="6" style="stroke: #038048; stroke-width: 2.0;"/><text fill="#000000" font-family="sans-serif" font-size="22" lengthAdjust="spacingAndGlyphs" textLength="352" x="657" y="1264.4629">void closeSession (String sessionId)</text><!--MD5=[5b1bd63fa89ecab39eb3f12ef133dcba]
class AsyncEndpointServer--><rect fill="#FDEDEC" height="123.6719" id="AsyncEndpointServer" style="stroke: #E74C3C; stroke-width: 3.0;" width="422" x="125" y="1126.2813"/><ellipse cx="200" cy="1158.2813" fill="#B4A7E5" rx="22" ry="22" style="stroke: #B4A7E5; stroke-width: 2.0;"/><path d="M202,1152.2813 L202,1164.2813 L206,1164.2813 L206.9688,1164.2813 L208,1165.5313 L208,1166.2813 L208,1167.0313 L206.9688,1168.2813 L206,1168.2813 L194,1168.2813 L193.0313,1168.2813 L192,1167.0313 L192,1166.2813 L192,1165.5313 L193.0313,1164.2813 L194,1164.2813 L198,1164.2813 L198,1152.2813 L194,1152.2813 L193.0313,1152.2813 L192,1151.0313 L192,1150.2813 L192,1149.5313 L193.0313,1148.2813 L194,1148.2813 L206,1148.2813 L206.9688,1148.2813 L208,1149.5313 L208,1150.2813 L208,1151.0313 L206.9688,1152.2813 L206,1152.2813 L202,1152.2813 Z "/><ellipse cx="248" cy="1157.2813" fill="#84BE84" rx="6" ry="6" style="stroke: #038048; stroke-width: 2.0;"/><text fill="#000000" font-family="sans-serif" font-size="24" font-style="italic" lengthAdjust="spacingAndGlyphs" textLength="236" x="260" y="1168.1016">AsyncEndpointServer</text><line style="stroke: #E74C3C; stroke-width: 3.0;" x1="127" x2="545" y1="1190.2813" y2="1190.2813"/><line style="stroke: #E74C3C; stroke-width: 3.0;" x1="127" x2="545" y1="1206.2813" y2="1206.2813"/><ellipse cx="147" cy="1228.2813" fill="#84BE84" rx="6" ry="6" style="stroke: #038048; stroke-width: 2.0;"/><text fill="#000000" font-family="sans-serif" font-size="22" lengthAdjust="spacingAndGlyphs" textLength="370" x="165" y="1237.1191">void sendMessage (MessageDto msg)</text><!--MD5=[79d0dd32175dc071c7df133fa8e963e8]
class SyncEndpointClient--><rect fill="#FEFECE" height="123.6719" id="SyncEndpointClient" style="stroke: #D4AC0D; stroke-width: 3.0;" width="552" x="1110" y="1126.2813"/><ellipse cx="1258.5" cy="1158.2813" fill="#B4A7E5" rx="22" ry="22" style="stroke: #B4A7E5; stroke-width: 2.0;"/><path d="M1260.5,1152.2813 L1260.5,1164.2813 L1264.5,1164.2813 L1265.4688,1164.2813 L1266.5,1165.5313 L1266.5,1166.2813 L1266.5,1167.0313 L1265.4688,1168.2813 L1264.5,1168.2813 L1252.5,1168.2813 L1251.5313,1168.2813 L1250.5,1167.0313 L1250.5,1166.2813 L1250.5,1165.5313 L1251.5313,1164.2813 L1252.5,1164.2813 L1256.5,1164.2813 L1256.5,1152.2813 L1252.5,1152.2813 L1251.5313,1152.2813 L1250.5,1151.0313 L1250.5,1150.2813 L1250.5,1149.5313 L1251.5313,1148.2813 L1252.5,1148.2813 L1264.5,1148.2813 L1265.4688,1148.2813 L1266.5,1149.5313 L1266.5,1150.2813 L1266.5,1151.0313 L1265.4688,1152.2813 L1264.5,1152.2813 L1260.5,1152.2813 Z "/><ellipse cx="1309.5" cy="1157.2813" fill="#84BE84" rx="6" ry="6" style="stroke: #038048; stroke-width: 2.0;"/><text fill="#000000" font-family="sans-serif" font-size="24" font-style="italic" lengthAdjust="spacingAndGlyphs" textLength="216" x="1321.5" y="1168.1016">SyncEndpointClient</text><line style="stroke: #D4AC0D; stroke-width: 3.0;" x1="1112" x2="1660" y1="1190.2813" y2="1190.2813"/><line style="stroke: #D4AC0D; stroke-width: 3.0;" x1="1112" x2="1660" y1="1206.2813" y2="1206.2813"/><ellipse cx="1132" cy="1228.2813" fill="#84BE84" rx="6" ry="6" style="stroke: #038048; stroke-width: 2.0;"/><text fill="#000000" font-family="sans-serif" font-size="22" lengthAdjust="spacingAndGlyphs" textLength="500" x="1150" y="1237.1191">List&lt;MessageDto&gt; sendRequest (MessageDto msg)</text><!--MD5=[f4af1f95b38cad9da2fd30e74542033c]
link GMN104420 to legendSpi--><path d="M624,251.4172 C624,285.9353 624,335.4752 624,373.0193 " fill="none" id="GMN104420-legendSpi" style="stroke: #A80036; stroke-width: 2.0; stroke-dasharray: 7.0,7.0;"/><!--MD5=[349d33f003879924dfef70c0d6e112c1]
link SyncNodeClient to SyncEndpointClient--><path d="M1380.654,804.8993 C1381.704,879.8493 1383.776,1027.6253 1385.01,1115.5993 " fill="none" id="SyncNodeClient-&gt;SyncEndpointClient" style="stroke: #3498DB; stroke-width: 2.0;"/><polygon fill="#3498DB" points="1385.156,1126.0233,1392.9032,1107.913,1385.016,1116.0242,1376.9047,1108.137,1385.156,1126.0233" style="stroke: #3498DB; stroke-width: 2.0;"/><text fill="#000000" font-family="sans-serif" font-size="26" lengthAdjust="spacingAndGlyphs" textLength="42" x="1384" y="948.2715">use</text><polygon fill="#000000" points="1396,965.9844,1402,977.9844,1408,965.9844,1396,965.9844" style="stroke: #000000; stroke-width: 2.0;"/><!--MD5=[d180704edc8fc8431cf22975e9ca997f]
link AsyncNodeClient to AsyncEndpointClient--><path d="M898.198,859.7113 C883.358,928.7452 863.822,1019.6273 849.128,1087.9873 " fill="none" id="AsyncNodeClient-&gt;AsyncEndpointClient" style="stroke: #3498DB; stroke-width: 2.0;"/><polygon fill="#3498DB" points="846.998,1097.9033,858.604,1081.9878,849.1007,1088.1268,842.9617,1078.6235,846.998,1097.9033" style="stroke: #3498DB; stroke-width: 2.0;"/><text fill="#000000" font-family="sans-serif" font-size="26" lengthAdjust="spacingAndGlyphs" textLength="42" x="886" y="948.2715">use</text><polygon fill="#000000" points="898,965.9844,904,977.9844,910,965.9844,898,965.9844" style="stroke: #000000; stroke-width: 2.0;"/><!--MD5=[b3121abea30b2cc7bb580d1efa0440f4]
link AsyncNodeServer to AsyncEndpointServer--><path d="M334.348,832.8333 C334.72,912.3693 335.304,1037.4233 335.67,1115.4893 " fill="none" id="AsyncNodeServer-&gt;AsyncEndpointServer" style="stroke: #3498DB; stroke-width: 2.0;"/><polygon fill="#3498DB" points="335.716,1125.7113,343.6336,1107.6749,335.6703,1115.7114,327.6338,1107.748,335.716,1125.7113" style="stroke: #3498DB; stroke-width: 2.0;"/><text fill="#000000" font-family="sans-serif" font-size="26" lengthAdjust="spacingAndGlyphs" textLength="42" x="338" y="948.2715">use</text><polygon fill="#000000" points="350,965.9844,356,977.9844,362,965.9844,350,965.9844" style="stroke: #000000; stroke-width: 2.0;"/><!--MD5=[34b7da23c6a59acd5d6657d45119c0cf]
link dtoApi to SyncNodeServer--><!--MD5=[def327908e4a9345e032b68d536e2396]
link SyncNodeServer to MessageDto--><!--MD5=[885e488bcc97f2bb05f26147dc868a85]
link syncNodeApi to SyncNodeClient--><!--MD5=[d4b4f99978b87755a370a9a7cf55c65f]
link syncNodeApi to SyncNodeServer--><!--MD5=[c1232be8d4a21b11710532c02172d457]
link asyncNodeApi to AsyncNodeClient--><!--MD5=[130915458d8a6536bb3eace9e9207252]
link asyncNodeApi to AsyncNodeServer--><!--MD5=[ba027b85089381234a9b9525da80febe]
@startuml
title
    Keyple Remote Plugin - Common API - 1.0.0 (03/11/2020)
end title



skinparam Shadowing false
skinparam ClassFontStyle italic
skinparam ClassBorderColor #D4AC0D
skinparam stereotypeABorderColor #A9DCDF
skinparam stereotypeIBorderColor #B4A7E5
skinparam stereotypeCBorderColor #ADD1B2
skinparam stereotypeEBorderColor #EB93DF
skinparam ClassBackgroundColor<<red>> #FDEDEC
skinparam ClassBorderColor<<red>> #E74C3C
hide <<red>> stereotype
skinparam ClassBackgroundColor<<purple>> #F4ECF7
skinparam ClassBorderColor<<purple>> #8E44AD
hide <<purple>> stereotype
skinparam ClassBackgroundColor<<blue>> #EBF5FB
skinparam ClassBorderColor<<blue>> #3498DB
hide <<blue>> stereotype
skinparam ClassBackgroundColor<<green>> #E9F7EF
skinparam ClassBorderColor<<green>> #27AE60
hide <<green>> stereotype
skinparam ClassBackgroundColor<<grey>> #EAECEE
skinparam ClassBorderColor<<grey>> #2C3E50
hide <<grey>> stereotype


package Legend {
    interface " " as syncNodeApi
    note top of syncNodeApi : **Sync Node API**
    interface " " as asyncNodeApi <<red>>
    note top of asyncNodeApi : **Async Node API**
    interface " " as dtoApi <<grey>>
    note top of dtoApi : **DTO** (Data Transfer Object)
    package "spi" as legendSpi #E5E7E9 {}
    note top of legendSpi : Contains **SPI**s (Service Provider Interfaces)\n which must be implemented by the user
}

package "org.eclipse.keyple.plugin.remote" as root {
    +interface AsyncNodeClient {
        +void onOpen (String sessionId)
        +void onMessage (MessageDto msg)
        +void onClose (String sessionId)
        +void onError (String sessionId, Throwable error)
    }
    +interface AsyncNodeServer {
        +void onMessage (MessageDto msg)
        +void onError (String sessionId, Throwable error)
    }
    +interface SyncNodeClient {
    }
    +interface SyncNodeServer {
        +List<MessageDto> onRequest (MessageDto msg)
    }
    package spi {
        +interface AsyncEndpointClient {
            +void openSession (String sessionId)
            +void sendMessage (MessageDto msg)
            +void closeSession (String sessionId)
        }
        +interface AsyncEndpointServer {
            +void sendMessage (MessageDto msg)
        }
        +interface SyncEndpointClient {
            +List<MessageDto> sendRequest (MessageDto msg)
        }
    }
    +class MessageDto {
        + String sessionId
        + String action
        + String clientNodeId
        + String serverNodeId
        + String localReaderName
        + String remoteReaderName
        + String body
        + getters()...
        + setters()...
    }
}

SyncNodeClient - -> SyncEndpointClient #3498DB : use >
AsyncNodeClient - -> AsyncEndpointClient #3498DB : use >
AsyncNodeServer - -> AsyncEndpointServer #3498DB : use >


dtoApi -[hidden]- SyncNodeServer
SyncNodeServer -[hidden]- MessageDto

syncNodeApi -[hidden]- SyncNodeClient
syncNodeApi -[hidden]- SyncNodeServer

asyncNodeApi -[hidden]- AsyncNodeClient
asyncNodeApi -[hidden]- AsyncNodeServer


package root #F8F9F9 {}
package spi #E5E7E9 {}

AsyncNodeClient <<red>>
AsyncNodeServer <<red>>
AsyncEndpointClient <<red>>
AsyncEndpointServer <<red>>

MessageDto <<grey>>

@enduml

PlantUML version 1.2020.09(Sun May 10 12:51:06 CEST 2020)
(GPL source distribution)
Java Runtime: OpenJDK Runtime Environment
JVM: OpenJDK 64-Bit Server VM
Java Version: 11.0.8+10-b944.34
Operating System: Windows 10
Default Encoding: Cp1252
Language: fr
Country: FR
--></g></svg>