<?xml version="1.0" encoding="UTF-8" standalone="no"?><svg xmlns="http://www.w3.org/2000/svg" xmlns:xlink="http://www.w3.org/1999/xlink" contentScriptType="application/ecmascript" contentStyleType="text/css" height="1160px" preserveAspectRatio="none" style="width:2992px;height:1160px;" version="1.1" viewBox="0 0 2992 1160" width="2992.5px" zoomAndPan="magnify"><defs/><g><text fill="#000000" font-family="sans-serif" font-size="45" lengthAdjust="spacingAndGlyphs" textLength="1067.5" x="977.5" y="46.7139">Keyple Remote Plugin - Core API - 1.0.0 (28/10/2020)</text><!--MD5=[01435ace8273dc3cae88e7f376e4d373]
cluster core--><polygon fill="#F8F9F9" points="55,116.6016,737.5,116.6016,755,175.625,2937.5,175.625,2937.5,1131.6016,55,1131.6016,55,116.6016" style="stroke: #000000; stroke-width: 3.75;"/><line style="stroke: #000000; stroke-width: 3.75;" x1="55" x2="755" y1="175.625" y2="175.625"/><text fill="#000000" font-family="sans-serif" font-size="35" font-weight="bold" lengthAdjust="spacingAndGlyphs" textLength="667.5" x="65" y="157.9346">org.eclipse.keyple.plugin.remote.core</text><!--MD5=[f7e0e2453c87923036c1ac2adfb9cbf0]
cluster spi--><polygon fill="#F2F3F4" points="547.5,672.8516,615,672.8516,632.5,731.875,2877.5,731.875,2877.5,1027.8516,547.5,1027.8516,547.5,672.8516" style="stroke: #000000; stroke-width: 3.75;"/><line style="stroke: #000000; stroke-width: 3.75;" x1="547.5" x2="632.5" y1="731.875" y2="731.875"/><text fill="#000000" font-family="sans-serif" font-size="35" font-weight="bold" lengthAdjust="spacingAndGlyphs" textLength="52.5" x="557.5" y="714.1846">spi</text><!--MD5=[99b70ee2fb35daba5d28467ba1991e01]
class KeypleClientAsyncNode--><rect fill="#FDEDEC" height="258.3594" id="KeypleClientAsyncNode" style="stroke: #E74C3C; stroke-width: 3.75;" width="645" x="2252.5" y="206.6016"/><ellipse cx="2384.375" cy="246.6016" fill="#B4A7E5" rx="27.5" ry="27.5" style="stroke: #B4A7E5; stroke-width: 2.5;"/><path d="M2386.875,239.1016 L2386.875,254.1016 L2391.875,254.1016 L2393.0859,254.1016 L2394.375,255.6641 L2394.375,256.6016 L2394.375,257.5391 L2393.0859,259.1016 L2391.875,259.1016 L2376.875,259.1016 L2375.6641,259.1016 L2374.375,257.5391 L2374.375,256.6016 L2374.375,255.6641 L2375.6641,254.1016 L2376.875,254.1016 L2381.875,254.1016 L2381.875,239.1016 L2376.875,239.1016 L2375.6641,239.1016 L2374.375,237.5391 L2374.375,236.6016 L2374.375,235.6641 L2375.6641,234.1016 L2376.875,234.1016 L2391.875,234.1016 L2393.0859,234.1016 L2394.375,235.6641 L2394.375,236.6016 L2394.375,237.5391 L2393.0859,239.1016 L2391.875,239.1016 L2386.875,239.1016 Z "/><ellipse cx="2448.125" cy="245.3516" fill="#84BE84" rx="7.5" ry="7.5" style="stroke: #038048; stroke-width: 2.5;"/><text fill="#000000" font-family="sans-serif" font-size="30" font-style="italic" lengthAdjust="spacingAndGlyphs" textLength="332.5" x="2463.125" y="258.877">KeypleClientAsyncNode</text><line style="stroke: #E74C3C; stroke-width: 3.75;" x1="2255" x2="2895" y1="286.6016" y2="286.6016"/><line style="stroke: #E74C3C; stroke-width: 3.75;" x1="2255" x2="2895" y1="306.6016" y2="306.6016"/><ellipse cx="2280" cy="334.1016" fill="#84BE84" rx="7.5" ry="7.5" style="stroke: #038048; stroke-width: 2.5;"/><text fill="#000000" font-family="sans-serif" font-size="27.5" lengthAdjust="spacingAndGlyphs" textLength="372.5" x="2302.5" y="345.1489">void onOpen (String sessionId)</text><ellipse cx="2280" cy="368.6914" fill="#84BE84" rx="7.5" ry="7.5" style="stroke: #038048; stroke-width: 2.5;"/><text fill="#000000" font-family="sans-serif" font-size="27.5" lengthAdjust="spacingAndGlyphs" textLength="515" x="2302.5" y="379.7388">void onMessage (KeypleMessageDto msg)</text><ellipse cx="2280" cy="403.2813" fill="#84BE84" rx="7.5" ry="7.5" style="stroke: #038048; stroke-width: 2.5;"/><text fill="#000000" font-family="sans-serif" font-size="27.5" lengthAdjust="spacingAndGlyphs" textLength="375" x="2302.5" y="414.3286">void onClose (String sessionId)</text><ellipse cx="2280" cy="437.8711" fill="#84BE84" rx="7.5" ry="7.5" style="stroke: #038048; stroke-width: 2.5;"/><text fill="#000000" font-family="sans-serif" font-size="27.5" lengthAdjust="spacingAndGlyphs" textLength="580" x="2302.5" y="448.9185">void onError (String sessionId, Throwable error)</text><!--MD5=[67da39e622bcaa74287f20e31ae13742]
class KeypleServerAsyncNode--><rect fill="#FDEDEC" height="189.1797" id="KeypleServerAsyncNode" style="stroke: #E74C3C; stroke-width: 3.75;" width="645" x="1520" y="240.3516"/><ellipse cx="1646.875" cy="280.3516" fill="#B4A7E5" rx="27.5" ry="27.5" style="stroke: #B4A7E5; stroke-width: 2.5;"/><path d="M1649.375,272.8516 L1649.375,287.8516 L1654.375,287.8516 L1655.5859,287.8516 L1656.875,289.4141 L1656.875,290.3516 L1656.875,291.2891 L1655.5859,292.8516 L1654.375,292.8516 L1639.375,292.8516 L1638.1641,292.8516 L1636.875,291.2891 L1636.875,290.3516 L1636.875,289.4141 L1638.1641,287.8516 L1639.375,287.8516 L1644.375,287.8516 L1644.375,272.8516 L1639.375,272.8516 L1638.1641,272.8516 L1636.875,271.2891 L1636.875,270.3516 L1636.875,269.4141 L1638.1641,267.8516 L1639.375,267.8516 L1654.375,267.8516 L1655.5859,267.8516 L1656.875,269.4141 L1656.875,270.3516 L1656.875,271.2891 L1655.5859,272.8516 L1654.375,272.8516 L1649.375,272.8516 Z "/><ellipse cx="1710.625" cy="279.1016" fill="#84BE84" rx="7.5" ry="7.5" style="stroke: #038048; stroke-width: 2.5;"/><text fill="#000000" font-family="sans-serif" font-size="30" font-style="italic" lengthAdjust="spacingAndGlyphs" textLength="342.5" x="1725.625" y="292.627">KeypleServerAsyncNode</text><line style="stroke: #E74C3C; stroke-width: 3.75;" x1="1522.5" x2="2162.5" y1="320.3516" y2="320.3516"/><line style="stroke: #E74C3C; stroke-width: 3.75;" x1="1522.5" x2="2162.5" y1="340.3516" y2="340.3516"/><ellipse cx="1547.5" cy="367.8516" fill="#84BE84" rx="7.5" ry="7.5" style="stroke: #038048; stroke-width: 2.5;"/><text fill="#000000" font-family="sans-serif" font-size="27.5" lengthAdjust="spacingAndGlyphs" textLength="515" x="1570" y="378.8989">void onMessage (KeypleMessageDto msg)</text><ellipse cx="1547.5" cy="402.4414" fill="#84BE84" rx="7.5" ry="7.5" style="stroke: #038048; stroke-width: 2.5;"/><text fill="#000000" font-family="sans-serif" font-size="27.5" lengthAdjust="spacingAndGlyphs" textLength="580" x="1570" y="413.4888">void onError (String sessionId, Throwable error)</text><!--MD5=[e8a5ac06609340fdd99947db00692199]
class KeypleClientSyncNode--><rect fill="#FDEDEC" height="120" id="KeypleClientSyncNode" style="stroke: #E74C3C; stroke-width: 3.75;" width="425" x="1007.5" y="275.3516"/><ellipse cx="1045" cy="315.3516" fill="#B4A7E5" rx="27.5" ry="27.5" style="stroke: #B4A7E5; stroke-width: 2.5;"/><path d="M1047.5,307.8516 L1047.5,322.8516 L1052.5,322.8516 L1053.7109,322.8516 L1055,324.4141 L1055,325.3516 L1055,326.2891 L1053.7109,327.8516 L1052.5,327.8516 L1037.5,327.8516 L1036.2891,327.8516 L1035,326.2891 L1035,325.3516 L1035,324.4141 L1036.2891,322.8516 L1037.5,322.8516 L1042.5,322.8516 L1042.5,307.8516 L1037.5,307.8516 L1036.2891,307.8516 L1035,306.2891 L1035,305.3516 L1035,304.4141 L1036.2891,302.8516 L1037.5,302.8516 L1052.5,302.8516 L1053.7109,302.8516 L1055,304.4141 L1055,305.3516 L1055,306.2891 L1053.7109,307.8516 L1052.5,307.8516 L1047.5,307.8516 Z "/><ellipse cx="1092.5" cy="314.1016" fill="#84BE84" rx="7.5" ry="7.5" style="stroke: #038048; stroke-width: 2.5;"/><text fill="#000000" font-family="sans-serif" font-size="30" font-style="italic" lengthAdjust="spacingAndGlyphs" textLength="317.5" x="1107.5" y="327.627">KeypleClientSyncNode</text><line style="stroke: #E74C3C; stroke-width: 3.75;" x1="1010" x2="1430" y1="355.3516" y2="355.3516"/><line style="stroke: #E74C3C; stroke-width: 3.75;" x1="1010" x2="1430" y1="375.3516" y2="375.3516"/><!--MD5=[dd8027f1fe25574d7b3afa90a41fd479]
class KeypleServerSyncNode--><rect fill="#FDEDEC" height="154.5898" id="KeypleServerSyncNode" style="stroke: #E74C3C; stroke-width: 3.75;" width="825" x="95" y="257.8516"/><ellipse cx="319.375" cy="297.8516" fill="#B4A7E5" rx="27.5" ry="27.5" style="stroke: #B4A7E5; stroke-width: 2.5;"/><path d="M321.875,290.3516 L321.875,305.3516 L326.875,305.3516 L328.0859,305.3516 L329.375,306.9141 L329.375,307.8516 L329.375,308.7891 L328.0859,310.3516 L326.875,310.3516 L311.875,310.3516 L310.6641,310.3516 L309.375,308.7891 L309.375,307.8516 L309.375,306.9141 L310.6641,305.3516 L311.875,305.3516 L316.875,305.3516 L316.875,290.3516 L311.875,290.3516 L310.6641,290.3516 L309.375,288.7891 L309.375,287.8516 L309.375,286.9141 L310.6641,285.3516 L311.875,285.3516 L326.875,285.3516 L328.0859,285.3516 L329.375,286.9141 L329.375,287.8516 L329.375,288.7891 L328.0859,290.3516 L326.875,290.3516 L321.875,290.3516 Z "/><ellipse cx="383.125" cy="296.6016" fill="#84BE84" rx="7.5" ry="7.5" style="stroke: #038048; stroke-width: 2.5;"/><text fill="#000000" font-family="sans-serif" font-size="30" font-style="italic" lengthAdjust="spacingAndGlyphs" textLength="327.5" x="398.125" y="310.127">KeypleServerSyncNode</text><line style="stroke: #E74C3C; stroke-width: 3.75;" x1="97.5" x2="917.5" y1="337.8516" y2="337.8516"/><line style="stroke: #E74C3C; stroke-width: 3.75;" x1="97.5" x2="917.5" y1="357.8516" y2="357.8516"/><ellipse cx="122.5" cy="385.3516" fill="#84BE84" rx="7.5" ry="7.5" style="stroke: #038048; stroke-width: 2.5;"/><text fill="#000000" font-family="sans-serif" font-size="27.5" lengthAdjust="spacingAndGlyphs" textLength="760" x="145" y="396.3989">List&lt;KeypleMessageDto&gt; onRequest (KeypleMessageDto msg)</text><!--MD5=[9672b30420572ff83d1e93a2e1c44221]
class KeypleMessageDto--><rect fill="#EAECEE" height="431.3086" id="KeypleMessageDto" style="stroke: #2C3E50; stroke-width: 3.75;" width="372.5" x="126.25" y="659.1016"/><ellipse cx="163.75" cy="699.1016" fill="#ADD1B2" rx="27.5" ry="27.5" style="stroke: #ADD1B2; stroke-width: 2.5;"/><path d="M168.75,690.3516 Q169.2578,689.1016 169.8438,688.4766 Q170.4297,687.8516 171.0938,687.8516 Q172.2656,687.8516 173.0078,688.5547 Q173.75,689.2578 173.75,690.8984 L173.75,694.8047 Q173.75,696.4453 173.0469,697.1484 Q172.3438,697.8516 171.25,697.8516 Q170.2734,697.8516 169.6484,697.4219 Q169.0234,696.9922 168.75,695.8594 Q168.6328,695.0781 168.2031,694.6484 Q167.4219,693.8281 166.0156,693.3594 Q164.6094,692.8516 163.2031,692.8516 Q161.4453,692.8516 159.9609,693.5547 Q158.5156,694.2578 157.3828,695.8203 Q156.25,697.3828 156.25,699.5313 L156.25,701.8359 Q156.25,704.4141 158.3594,706.1328 Q160.4688,707.8516 164.2188,707.8516 Q166.4453,707.8516 168.0078,707.3438 Q168.9063,707.0703 169.9219,706.1719 Q170.5859,705.6641 170.9375,705.5078 Q171.2891,705.3516 171.7188,705.3516 Q172.5391,705.3516 173.125,706.0156 Q173.75,706.6406 173.75,707.5391 Q173.75,708.3984 172.8906,709.4141 Q171.6406,710.8984 169.6484,711.7188 Q167.0313,712.8516 163.8281,712.8516 Q160.0781,712.8516 157.0703,711.3672 Q154.6484,710.1953 152.9297,707.6563 Q151.25,705.1172 151.25,702.1094 L151.25,699.375 Q151.25,696.25 152.7344,693.5156 Q154.2578,690.7813 156.875,689.3359 Q159.5313,687.8516 162.5,687.8516 Q164.2969,687.8516 165.8594,688.4766 Q167.4219,689.1016 168.75,690.3516 Z "/><ellipse cx="211.25" cy="697.8516" fill="#84BE84" rx="7.5" ry="7.5" style="stroke: #038048; stroke-width: 2.5;"/><text fill="#000000" font-family="sans-serif" font-size="30" font-style="italic" lengthAdjust="spacingAndGlyphs" textLength="265" x="226.25" y="711.377">KeypleMessageDto</text><line style="stroke: #2C3E50; stroke-width: 3.75;" x1="128.75" x2="496.25" y1="739.1016" y2="739.1016"/><ellipse cx="153.75" cy="766.6016" fill="none" rx="7.5" ry="7.5" style="stroke: #038048; stroke-width: 2.5;"/><text fill="#000000" font-family="sans-serif" font-size="27.5" lengthAdjust="spacingAndGlyphs" textLength="192.5" x="176.25" y="777.6489">String sessionId</text><ellipse cx="153.75" cy="801.1914" fill="none" rx="7.5" ry="7.5" style="stroke: #038048; stroke-width: 2.5;"/><text fill="#000000" font-family="sans-serif" font-size="27.5" lengthAdjust="spacingAndGlyphs" textLength="150" x="176.25" y="812.2388">String action</text><ellipse cx="153.75" cy="835.7813" fill="none" rx="7.5" ry="7.5" style="stroke: #038048; stroke-width: 2.5;"/><text fill="#000000" font-family="sans-serif" font-size="27.5" lengthAdjust="spacingAndGlyphs" textLength="222.5" x="176.25" y="846.8286">String clientNodeId</text><ellipse cx="153.75" cy="870.3711" fill="none" rx="7.5" ry="7.5" style="stroke: #038048; stroke-width: 2.5;"/><text fill="#000000" font-family="sans-serif" font-size="27.5" lengthAdjust="spacingAndGlyphs" textLength="240" x="176.25" y="881.4185">String serverNodeId</text><ellipse cx="153.75" cy="904.9609" fill="none" rx="7.5" ry="7.5" style="stroke: #038048; stroke-width: 2.5;"/><text fill="#000000" font-family="sans-serif" font-size="27.5" lengthAdjust="spacingAndGlyphs" textLength="305" x="176.25" y="916.0083">String nativeReaderName</text><ellipse cx="153.75" cy="939.5508" fill="none" rx="7.5" ry="7.5" style="stroke: #038048; stroke-width: 2.5;"/><text fill="#000000" font-family="sans-serif" font-size="27.5" lengthAdjust="spacingAndGlyphs" textLength="305" x="176.25" y="950.5981">String virtualReaderName</text><ellipse cx="153.75" cy="974.1406" fill="none" rx="7.5" ry="7.5" style="stroke: #038048; stroke-width: 2.5;"/><text fill="#000000" font-family="sans-serif" font-size="27.5" lengthAdjust="spacingAndGlyphs" textLength="137.5" x="176.25" y="985.188">String body</text><line style="stroke: #2C3E50; stroke-width: 3.75;" x1="128.75" x2="496.25" y1="1001.2305" y2="1001.2305"/><ellipse cx="153.75" cy="1028.7305" fill="#84BE84" rx="7.5" ry="7.5" style="stroke: #038048; stroke-width: 2.5;"/><text fill="#000000" font-family="sans-serif" font-size="27.5" lengthAdjust="spacingAndGlyphs" textLength="127.5" x="176.25" y="1039.7778">getters()...</text><ellipse cx="153.75" cy="1063.3203" fill="#84BE84" rx="7.5" ry="7.5" style="stroke: #038048; stroke-width: 2.5;"/><text fill="#000000" font-family="sans-serif" font-size="27.5" lengthAdjust="spacingAndGlyphs" textLength="127.5" x="176.25" y="1074.3677">setters()...</text><!--MD5=[4ddb14ad407e8a0dc5190ffaa8ce3a0d]
class KeypleClientAsync--><rect fill="#FEFECE" height="223.7695" id="KeypleClientAsync" style="stroke: #D4AC0D; stroke-width: 3.75;" width="610" x="2227.5" y="762.8516"/><ellipse cx="2379.375" cy="802.8516" fill="#B4A7E5" rx="27.5" ry="27.5" style="stroke: #B4A7E5; stroke-width: 2.5;"/><path d="M2381.875,795.3516 L2381.875,810.3516 L2386.875,810.3516 L2388.0859,810.3516 L2389.375,811.9141 L2389.375,812.8516 L2389.375,813.7891 L2388.0859,815.3516 L2386.875,815.3516 L2371.875,815.3516 L2370.6641,815.3516 L2369.375,813.7891 L2369.375,812.8516 L2369.375,811.9141 L2370.6641,810.3516 L2371.875,810.3516 L2376.875,810.3516 L2376.875,795.3516 L2371.875,795.3516 L2370.6641,795.3516 L2369.375,793.7891 L2369.375,792.8516 L2369.375,791.9141 L2370.6641,790.3516 L2371.875,790.3516 L2386.875,790.3516 L2388.0859,790.3516 L2389.375,791.9141 L2389.375,792.8516 L2389.375,793.7891 L2388.0859,795.3516 L2386.875,795.3516 L2381.875,795.3516 Z "/><ellipse cx="2443.125" cy="801.6016" fill="#84BE84" rx="7.5" ry="7.5" style="stroke: #038048; stroke-width: 2.5;"/><text fill="#000000" font-family="sans-serif" font-size="30" font-style="italic" lengthAdjust="spacingAndGlyphs" textLength="257.5" x="2458.125" y="815.127">KeypleClientAsync</text><line style="stroke: #D4AC0D; stroke-width: 3.75;" x1="2230" x2="2835" y1="842.8516" y2="842.8516"/><line style="stroke: #D4AC0D; stroke-width: 3.75;" x1="2230" x2="2835" y1="862.8516" y2="862.8516"/><ellipse cx="2255" cy="890.3516" fill="#84BE84" rx="7.5" ry="7.5" style="stroke: #038048; stroke-width: 2.5;"/><text fill="#000000" font-family="sans-serif" font-size="27.5" lengthAdjust="spacingAndGlyphs" textLength="435" x="2277.5" y="901.3989">void openSession (String sessionId)</text><ellipse cx="2255" cy="924.9414" fill="#84BE84" rx="7.5" ry="7.5" style="stroke: #038048; stroke-width: 2.5;"/><text fill="#000000" font-family="sans-serif" font-size="27.5" lengthAdjust="spacingAndGlyphs" textLength="545" x="2277.5" y="935.9888">void sendMessage (KeypleMessageDto msg)</text><ellipse cx="2255" cy="959.5313" fill="#84BE84" rx="7.5" ry="7.5" style="stroke: #038048; stroke-width: 2.5;"/><text fill="#000000" font-family="sans-serif" font-size="27.5" lengthAdjust="spacingAndGlyphs" textLength="440" x="2277.5" y="970.5786">void closeSession (String sessionId)</text><!--MD5=[6544ec85e0d9eb9d1723da03e2a788e8]
class KeypleServerAsync--><rect fill="#FEFECE" height="154.5898" id="KeypleServerAsync" style="stroke: #D4AC0D; stroke-width: 3.75;" width="610" x="1530" y="797.8516"/><ellipse cx="1676.875" cy="837.8516" fill="#B4A7E5" rx="27.5" ry="27.5" style="stroke: #B4A7E5; stroke-width: 2.5;"/><path d="M1679.375,830.3516 L1679.375,845.3516 L1684.375,845.3516 L1685.5859,845.3516 L1686.875,846.9141 L1686.875,847.8516 L1686.875,848.7891 L1685.5859,850.3516 L1684.375,850.3516 L1669.375,850.3516 L1668.1641,850.3516 L1666.875,848.7891 L1666.875,847.8516 L1666.875,846.9141 L1668.1641,845.3516 L1669.375,845.3516 L1674.375,845.3516 L1674.375,830.3516 L1669.375,830.3516 L1668.1641,830.3516 L1666.875,828.7891 L1666.875,827.8516 L1666.875,826.9141 L1668.1641,825.3516 L1669.375,825.3516 L1684.375,825.3516 L1685.5859,825.3516 L1686.875,826.9141 L1686.875,827.8516 L1686.875,828.7891 L1685.5859,830.3516 L1684.375,830.3516 L1679.375,830.3516 Z "/><ellipse cx="1740.625" cy="836.6016" fill="#84BE84" rx="7.5" ry="7.5" style="stroke: #038048; stroke-width: 2.5;"/><text fill="#000000" font-family="sans-serif" font-size="30" font-style="italic" lengthAdjust="spacingAndGlyphs" textLength="267.5" x="1755.625" y="850.127">KeypleServerAsync</text><line style="stroke: #D4AC0D; stroke-width: 3.75;" x1="1532.5" x2="2137.5" y1="877.8516" y2="877.8516"/><line style="stroke: #D4AC0D; stroke-width: 3.75;" x1="1532.5" x2="2137.5" y1="897.8516" y2="897.8516"/><ellipse cx="1557.5" cy="925.3516" fill="#84BE84" rx="7.5" ry="7.5" style="stroke: #038048; stroke-width: 2.5;"/><text fill="#000000" font-family="sans-serif" font-size="27.5" lengthAdjust="spacingAndGlyphs" textLength="545" x="1580" y="936.3989">void sendMessage (KeypleMessageDto msg)</text><!--MD5=[bbf6003dc53a2fbb600a721f02dcdf85]
class KeypleClientSync--><rect fill="#FEFECE" height="154.5898" id="KeypleClientSync" style="stroke: #D4AC0D; stroke-width: 3.75;" width="855" x="587.5" y="797.8516"/><ellipse cx="869.375" cy="837.8516" fill="#B4A7E5" rx="27.5" ry="27.5" style="stroke: #B4A7E5; stroke-width: 2.5;"/><path d="M871.875,830.3516 L871.875,845.3516 L876.875,845.3516 L878.0859,845.3516 L879.375,846.9141 L879.375,847.8516 L879.375,848.7891 L878.0859,850.3516 L876.875,850.3516 L861.875,850.3516 L860.6641,850.3516 L859.375,848.7891 L859.375,847.8516 L859.375,846.9141 L860.6641,845.3516 L861.875,845.3516 L866.875,845.3516 L866.875,830.3516 L861.875,830.3516 L860.6641,830.3516 L859.375,828.7891 L859.375,827.8516 L859.375,826.9141 L860.6641,825.3516 L861.875,825.3516 L876.875,825.3516 L878.0859,825.3516 L879.375,826.9141 L879.375,827.8516 L879.375,828.7891 L878.0859,830.3516 L876.875,830.3516 L871.875,830.3516 Z "/><ellipse cx="933.125" cy="836.6016" fill="#84BE84" rx="7.5" ry="7.5" style="stroke: #038048; stroke-width: 2.5;"/><text fill="#000000" font-family="sans-serif" font-size="30" font-style="italic" lengthAdjust="spacingAndGlyphs" textLength="242.5" x="948.125" y="850.127">KeypleClientSync</text><line style="stroke: #D4AC0D; stroke-width: 3.75;" x1="590" x2="1440" y1="877.8516" y2="877.8516"/><line style="stroke: #D4AC0D; stroke-width: 3.75;" x1="590" x2="1440" y1="897.8516" y2="897.8516"/><ellipse cx="615" cy="925.3516" fill="#84BE84" rx="7.5" ry="7.5" style="stroke: #038048; stroke-width: 2.5;"/><text fill="#000000" font-family="sans-serif" font-size="27.5" lengthAdjust="spacingAndGlyphs" textLength="790" x="637.5" y="936.3989">List&lt;KeypleMessageDto&gt; sendRequest (KeypleMessageDto msg)</text><!--MD5=[3339938c1e44c45a745f6c7126070654]
link KeypleClientSyncNode to KeypleClientSync--><path d="M1197.67,396.1241 C1161.6275,490.1916 1090.415,676.0341 1048.3425,785.8366 " fill="none" id="KeypleClientSyncNode-&gt;KeypleClientSync" style="stroke: #3498DB; stroke-width: 2.5;"/><polygon fill="#3498DB" points="1043.8625,797.5291,1061.2548,780.1004,1048.3375,785.8576,1042.5803,772.9403,1043.8625,797.5291" style="stroke: #3498DB; stroke-width: 2.5;"/><text fill="#000000" font-family="sans-serif" font-size="32.5" lengthAdjust="spacingAndGlyphs" textLength="52.5" x="1142.5" y="575.3394">use</text><polygon fill="#000000" points="1157.5,597.4805,1165,612.4805,1172.5,597.4805,1157.5,597.4805" style="stroke: #000000; stroke-width: 2.5;"/><!--MD5=[a5c2fbd18bb9111121f0405f52c94c57]
link KeypleClientAsyncNode to KeypleClientAsync--><path d="M2564.925,464.6391 C2558.1,550.5791 2549.125,663.6041 2542.35,748.9316 " fill="none" id="KeypleClientAsyncNode-&gt;KeypleClientAsync" style="stroke: #3498DB; stroke-width: 2.5;"/><polygon fill="#3498DB" points="2541.275,762.3791,2553.0239,740.7408,2542.264,749.9182,2533.0866,739.1584,2541.275,762.3791" style="stroke: #3498DB; stroke-width: 2.5;"/><text fill="#000000" font-family="sans-serif" font-size="32.5" lengthAdjust="spacingAndGlyphs" textLength="52.5" x="2560" y="575.3394">use</text><polygon fill="#000000" points="2575,597.4805,2582.5,612.4805,2590,597.4805,2575,597.4805" style="stroke: #000000; stroke-width: 2.5;"/><!--MD5=[595f09f108c1a404a1b39704edd74da1]
link KeypleServerAsyncNode to KeypleServerAsync--><path d="M1841.1925,431.0416 C1839.8,530.4616 1837.6075,686.7791 1836.24,784.3616 " fill="none" id="KeypleServerAsyncNode-&gt;KeypleServerAsync" style="stroke: #3498DB; stroke-width: 2.5;"/><polygon fill="#3498DB" points="1836.0625,797.1391,1846.3765,774.7813,1836.2375,784.6403,1826.3784,774.5013,1836.0625,797.1391" style="stroke: #3498DB; stroke-width: 2.5;"/><text fill="#000000" font-family="sans-serif" font-size="32.5" lengthAdjust="spacingAndGlyphs" textLength="52.5" x="1840" y="575.3394">use</text><polygon fill="#000000" points="1855,597.4805,1862.5,612.4805,1870,597.4805,1855,597.4805" style="stroke: #000000; stroke-width: 2.5;"/><!--MD5=[0da2c9d5f995456aec4a283c4e23b86e]
link KeypleServerSyncNode to KeypleMessageDto--><!--MD5=[0bb19126d33ce9c8887c41b064c7511f]
@startuml
title
    Keyple Remote Plugin - Core API - 1.0.0 (28/10/2020)
end title



skinparam Shadowing false
skinparam ClassFontStyle italic
skinparam ClassBorderColor #D4AC0D
skinparam stereotypeABorderColor #A9DCDF
skinparam stereotypeIBorderColor #B4A7E5
skinparam stereotypeCBorderColor #ADD1B2
skinparam stereotypeEBorderColor #EB93DF
skinparam ClassBackgroundColor<<red>> #FDEDEC
skinparam ClassBorderColor<<red>> #E74C3C
hide <<red>> stereotype
skinparam ClassBackgroundColor<<purple>> #F4ECF7
skinparam ClassBorderColor<<purple>> #8E44AD
hide <<purple>> stereotype
skinparam ClassBackgroundColor<<blue>> #EBF5FB
skinparam ClassBorderColor<<blue>> #3498DB
hide <<blue>> stereotype
skinparam ClassBackgroundColor<<green>> #E9F7EF
skinparam ClassBorderColor<<green>> #27AE60
hide <<green>> stereotype
skinparam ClassBackgroundColor<<grey>> #EAECEE
skinparam ClassBorderColor<<grey>> #2C3E50
hide <<grey>> stereotype


package "org.eclipse.keyple.plugin.remote.core" as core {
    +interface KeypleClientAsyncNode {
        +void onOpen (String sessionId)
        +void onMessage (KeypleMessageDto msg)
        +void onClose (String sessionId)
        +void onError (String sessionId, Throwable error)
    }
    +interface KeypleServerAsyncNode {
        +void onMessage (KeypleMessageDto msg)
        +void onError (String sessionId, Throwable error)
    }
    +interface KeypleClientSyncNode {
    }
    +interface KeypleServerSyncNode {
        +List<KeypleMessageDto> onRequest (KeypleMessageDto msg)
    }
    package spi {
        +interface KeypleClientAsync {
            +void openSession (String sessionId)
            +void sendMessage (KeypleMessageDto msg)
            +void closeSession (String sessionId)
        }
        +interface KeypleServerAsync {
            +void sendMessage (KeypleMessageDto msg)
        }
        +interface KeypleClientSync {
            +List<KeypleMessageDto> sendRequest (KeypleMessageDto msg)
        }
    }
    +class KeypleMessageDto {
        + String sessionId
        + String action
        + String clientNodeId
        + String serverNodeId
        + String nativeReaderName
        + String virtualReaderName
        + String body
        + getters()...
        + setters()...
    }
}

KeypleClientSyncNode - -> KeypleClientSync #3498DB : use >
KeypleClientAsyncNode - -> KeypleClientAsync #3498DB : use >
KeypleServerAsyncNode - -> KeypleServerAsync #3498DB : use >


KeypleServerSyncNode -[hidden]- KeypleMessageDto


package core #F8F9F9 {}
package spi #F2F3F4 {}

KeypleClientSyncNode <<red>>
KeypleServerSyncNode <<red>>
KeypleClientAsyncNode <<red>>
KeypleServerAsyncNode <<red>>

KeypleMessageDto <<grey>>

@enduml

PlantUML version 1.2020.09(Sun May 10 12:51:06 CEST 2020)
(GPL source distribution)
Java Runtime: OpenJDK Runtime Environment
JVM: OpenJDK 64-Bit Server VM
Java Version: 11.0.8+10-b944.34
Operating System: Windows 10
Default Encoding: Cp1252
Language: fr
Country: FR
--></g></svg>