<?xml version="1.0" encoding="UTF-8" standalone="no"?><svg xmlns="http://www.w3.org/2000/svg" xmlns:xlink="http://www.w3.org/1999/xlink" contentScriptType="application/ecmascript" contentStyleType="text/css" height="1512.5px" preserveAspectRatio="none" style="width:2992px;height:1512px;" version="1.1" viewBox="0 0 2992 1512" width="2992.5px" zoomAndPan="magnify"><defs/><g><text fill="#000000" font-family="sans-serif" font-size="45" lengthAdjust="spacingAndGlyphs" textLength="1067.5" x="977.5" y="46.7139">Keyple Remote Plugin - Core API - 1.0.0 (28/10/2020)</text><!--MD5=[f7217341b3bb6bbf768c7f0e049f8d09]
cluster Legend--><polygon fill="#FFFFFF" points="1020,116.6016,1167.5,116.6016,1185,175.625,2170,175.625,2170,386.6016,1020,386.6016,1020,116.6016" style="stroke: #000000; stroke-width: 3.75;"/><line style="stroke: #000000; stroke-width: 3.75;" x1="1020" x2="1185" y1="175.625" y2="175.625"/><text fill="#000000" font-family="sans-serif" font-size="35" font-weight="bold" lengthAdjust="spacingAndGlyphs" textLength="132.5" x="1030" y="157.9346">Legend</text><!--MD5=[01435ace8273dc3cae88e7f376e4d373]
cluster core--><polygon fill="#F8F9F9" points="55,469.1016,737.5,469.1016,755,528.125,2937.5,528.125,2937.5,1484.1016,55,1484.1016,55,469.1016" style="stroke: #000000; stroke-width: 3.75;"/><line style="stroke: #000000; stroke-width: 3.75;" x1="55" x2="755" y1="528.125" y2="528.125"/><text fill="#000000" font-family="sans-serif" font-size="35" font-weight="bold" lengthAdjust="spacingAndGlyphs" textLength="667.5" x="65" y="510.4346">org.eclipse.keyple.plugin.remote.core</text><!--MD5=[f7e0e2453c87923036c1ac2adfb9cbf0]
cluster spi--><polygon fill="#F2F3F4" points="547.5,1025.3516,615,1025.3516,632.5,1084.375,2877.5,1084.375,2877.5,1380.3516,547.5,1380.3516,547.5,1025.3516" style="stroke: #000000; stroke-width: 3.75;"/><line style="stroke: #000000; stroke-width: 3.75;" x1="547.5" x2="632.5" y1="1084.375" y2="1084.375"/><text fill="#000000" font-family="sans-serif" font-size="35" font-weight="bold" lengthAdjust="spacingAndGlyphs" textLength="52.5" x="557.5" y="1066.6846">spi</text><!--MD5=[b9bafa9e8f0033793059c0c5452e4884]
class nodeApi--><rect fill="#FDEDEC" height="120" id="nodeApi" style="stroke: #E74C3C; stroke-width: 3.75;" width="212.5" x="1061.25" y="216.6016"/><ellipse cx="1098.75" cy="256.6016" fill="#B4A7E5" rx="27.5" ry="27.5" style="stroke: #B4A7E5; stroke-width: 2.5;"/><path d="M1101.25,249.1016 L1101.25,264.1016 L1106.25,264.1016 L1107.4609,264.1016 L1108.75,265.6641 L1108.75,266.6016 L1108.75,267.5391 L1107.4609,269.1016 L1106.25,269.1016 L1091.25,269.1016 L1090.0391,269.1016 L1088.75,267.5391 L1088.75,266.6016 L1088.75,265.6641 L1090.0391,264.1016 L1091.25,264.1016 L1096.25,264.1016 L1096.25,249.1016 L1091.25,249.1016 L1090.0391,249.1016 L1088.75,247.5391 L1088.75,246.6016 L1088.75,245.6641 L1090.0391,244.1016 L1091.25,244.1016 L1106.25,244.1016 L1107.4609,244.1016 L1108.75,245.6641 L1108.75,246.6016 L1108.75,247.5391 L1107.4609,249.1016 L1106.25,249.1016 L1101.25,249.1016 Z "/><text fill="#000000" font-family="sans-serif" font-size="30" font-style="italic" font-weight="bold" lengthAdjust="spacingAndGlyphs" textLength="132.5" x="1133.75" y="268.877">Node API</text><line style="stroke: #E74C3C; stroke-width: 3.75;" x1="1063.75" x2="1271.25" y1="296.6016" y2="296.6016"/><line style="stroke: #E74C3C; stroke-width: 3.75;" x1="1063.75" x2="1271.25" y1="316.6016" y2="316.6016"/><!--MD5=[cd9952de578a78d767c6a3ef89d01436]
class dtoApi--><rect fill="#EAECEE" height="120" id="dtoApi" style="stroke: #2C3E50; stroke-width: 3.75;" width="142.5" x="1361.25" y="216.6016"/><ellipse cx="1398.75" cy="256.6016" fill="#B4A7E5" rx="27.5" ry="27.5" style="stroke: #B4A7E5; stroke-width: 2.5;"/><path d="M1401.25,249.1016 L1401.25,264.1016 L1406.25,264.1016 L1407.4609,264.1016 L1408.75,265.6641 L1408.75,266.6016 L1408.75,267.5391 L1407.4609,269.1016 L1406.25,269.1016 L1391.25,269.1016 L1390.0391,269.1016 L1388.75,267.5391 L1388.75,266.6016 L1388.75,265.6641 L1390.0391,264.1016 L1391.25,264.1016 L1396.25,264.1016 L1396.25,249.1016 L1391.25,249.1016 L1390.0391,249.1016 L1388.75,247.5391 L1388.75,246.6016 L1388.75,245.6641 L1390.0391,244.1016 L1391.25,244.1016 L1406.25,244.1016 L1407.4609,244.1016 L1408.75,245.6641 L1408.75,246.6016 L1408.75,247.5391 L1407.4609,249.1016 L1406.25,249.1016 L1401.25,249.1016 Z "/><text fill="#000000" font-family="sans-serif" font-size="30" font-style="italic" font-weight="bold" lengthAdjust="spacingAndGlyphs" textLength="62.5" x="1433.75" y="268.877">DTO</text><line style="stroke: #2C3E50; stroke-width: 3.75;" x1="1363.75" x2="1501.25" y1="296.6016" y2="296.6016"/><line style="stroke: #2C3E50; stroke-width: 3.75;" x1="1363.75" x2="1501.25" y1="316.6016" y2="316.6016"/><!--MD5=[e92611fa4837a0a075ca8255b3dfcfc1]
class spiApi--><rect fill="#FEFECE" height="140.4688" id="spiApi" style="stroke: #D4AC0D; stroke-width: 3.75;" width="537.5" x="1591.25" y="206.6016"/><ellipse cx="1628.75" cy="256.8359" fill="#B4A7E5" rx="27.5" ry="27.5" style="stroke: #B4A7E5; stroke-width: 2.5;"/><path d="M1631.25,249.3359 L1631.25,264.3359 L1636.25,264.3359 L1637.4609,264.3359 L1638.75,265.8984 L1638.75,266.8359 L1638.75,267.7734 L1637.4609,269.3359 L1636.25,269.3359 L1621.25,269.3359 L1620.0391,269.3359 L1618.75,267.7734 L1618.75,266.8359 L1618.75,265.8984 L1620.0391,264.3359 L1621.25,264.3359 L1626.25,264.3359 L1626.25,249.3359 L1621.25,249.3359 L1620.0391,249.3359 L1618.75,247.7734 L1618.75,246.8359 L1618.75,245.8984 L1620.0391,244.3359 L1621.25,244.3359 L1636.25,244.3359 L1637.4609,244.3359 L1638.75,245.8984 L1638.75,246.8359 L1638.75,247.7734 L1637.4609,249.3359 L1636.25,249.3359 L1631.25,249.3359 Z "/><text fill="#000000" font-family="sans-serif" font-size="30" font-style="italic" font-weight="bold" lengthAdjust="spacingAndGlyphs" textLength="47.5" x="1678.75" y="250.2441">SPI</text><text fill="#000000" font-family="sans-serif" font-size="30" font-style="italic" lengthAdjust="spacingAndGlyphs" textLength="372.5" x="1733.75" y="250.2441">(Service Provider Interface)</text><text fill="#000000" font-family="sans-serif" font-size="30" font-style="italic" lengthAdjust="spacingAndGlyphs" textLength="457.5" x="1663.75" y="287.9785">Must be implemented by the user</text><line style="stroke: #D4AC0D; stroke-width: 3.75;" x1="1593.75" x2="2126.25" y1="307.0703" y2="307.0703"/><line style="stroke: #D4AC0D; stroke-width: 3.75;" x1="1593.75" x2="2126.25" y1="327.0703" y2="327.0703"/><!--MD5=[99b70ee2fb35daba5d28467ba1991e01]
class KeypleClientAsyncNode--><rect fill="#FDEDEC" height="258.3594" id="KeypleClientAsyncNode" style="stroke: #E74C3C; stroke-width: 3.75;" width="645" x="2252.5" y="559.1016"/><ellipse cx="2384.375" cy="599.1016" fill="#B4A7E5" rx="27.5" ry="27.5" style="stroke: #B4A7E5; stroke-width: 2.5;"/><path d="M2386.875,591.6016 L2386.875,606.6016 L2391.875,606.6016 L2393.0859,606.6016 L2394.375,608.1641 L2394.375,609.1016 L2394.375,610.0391 L2393.0859,611.6016 L2391.875,611.6016 L2376.875,611.6016 L2375.6641,611.6016 L2374.375,610.0391 L2374.375,609.1016 L2374.375,608.1641 L2375.6641,606.6016 L2376.875,606.6016 L2381.875,606.6016 L2381.875,591.6016 L2376.875,591.6016 L2375.6641,591.6016 L2374.375,590.0391 L2374.375,589.1016 L2374.375,588.1641 L2375.6641,586.6016 L2376.875,586.6016 L2391.875,586.6016 L2393.0859,586.6016 L2394.375,588.1641 L2394.375,589.1016 L2394.375,590.0391 L2393.0859,591.6016 L2391.875,591.6016 L2386.875,591.6016 Z "/><ellipse cx="2448.125" cy="597.8516" fill="#84BE84" rx="7.5" ry="7.5" style="stroke: #038048; stroke-width: 2.5;"/><text fill="#000000" font-family="sans-serif" font-size="30" font-style="italic" lengthAdjust="spacingAndGlyphs" textLength="332.5" x="2463.125" y="611.377">KeypleClientAsyncNode</text><line style="stroke: #E74C3C; stroke-width: 3.75;" x1="2255" x2="2895" y1="639.1016" y2="639.1016"/><line style="stroke: #E74C3C; stroke-width: 3.75;" x1="2255" x2="2895" y1="659.1016" y2="659.1016"/><ellipse cx="2280" cy="686.6016" fill="#84BE84" rx="7.5" ry="7.5" style="stroke: #038048; stroke-width: 2.5;"/><text fill="#000000" font-family="sans-serif" font-size="27.5" lengthAdjust="spacingAndGlyphs" textLength="372.5" x="2302.5" y="697.6489">void onOpen (String sessionId)</text><ellipse cx="2280" cy="721.1914" fill="#84BE84" rx="7.5" ry="7.5" style="stroke: #038048; stroke-width: 2.5;"/><text fill="#000000" font-family="sans-serif" font-size="27.5" lengthAdjust="spacingAndGlyphs" textLength="515" x="2302.5" y="732.2388">void onMessage (KeypleMessageDto msg)</text><ellipse cx="2280" cy="755.7813" fill="#84BE84" rx="7.5" ry="7.5" style="stroke: #038048; stroke-width: 2.5;"/><text fill="#000000" font-family="sans-serif" font-size="27.5" lengthAdjust="spacingAndGlyphs" textLength="375" x="2302.5" y="766.8286">void onClose (String sessionId)</text><ellipse cx="2280" cy="790.3711" fill="#84BE84" rx="7.5" ry="7.5" style="stroke: #038048; stroke-width: 2.5;"/><text fill="#000000" font-family="sans-serif" font-size="27.5" lengthAdjust="spacingAndGlyphs" textLength="580" x="2302.5" y="801.4185">void onError (String sessionId, Throwable error)</text><!--MD5=[67da39e622bcaa74287f20e31ae13742]
class KeypleServerAsyncNode--><rect fill="#FDEDEC" height="189.1797" id="KeypleServerAsyncNode" style="stroke: #E74C3C; stroke-width: 3.75;" width="645" x="1520" y="592.8516"/><ellipse cx="1646.875" cy="632.8516" fill="#B4A7E5" rx="27.5" ry="27.5" style="stroke: #B4A7E5; stroke-width: 2.5;"/><path d="M1649.375,625.3516 L1649.375,640.3516 L1654.375,640.3516 L1655.5859,640.3516 L1656.875,641.9141 L1656.875,642.8516 L1656.875,643.7891 L1655.5859,645.3516 L1654.375,645.3516 L1639.375,645.3516 L1638.1641,645.3516 L1636.875,643.7891 L1636.875,642.8516 L1636.875,641.9141 L1638.1641,640.3516 L1639.375,640.3516 L1644.375,640.3516 L1644.375,625.3516 L1639.375,625.3516 L1638.1641,625.3516 L1636.875,623.7891 L1636.875,622.8516 L1636.875,621.9141 L1638.1641,620.3516 L1639.375,620.3516 L1654.375,620.3516 L1655.5859,620.3516 L1656.875,621.9141 L1656.875,622.8516 L1656.875,623.7891 L1655.5859,625.3516 L1654.375,625.3516 L1649.375,625.3516 Z "/><ellipse cx="1710.625" cy="631.6016" fill="#84BE84" rx="7.5" ry="7.5" style="stroke: #038048; stroke-width: 2.5;"/><text fill="#000000" font-family="sans-serif" font-size="30" font-style="italic" lengthAdjust="spacingAndGlyphs" textLength="342.5" x="1725.625" y="645.127">KeypleServerAsyncNode</text><line style="stroke: #E74C3C; stroke-width: 3.75;" x1="1522.5" x2="2162.5" y1="672.8516" y2="672.8516"/><line style="stroke: #E74C3C; stroke-width: 3.75;" x1="1522.5" x2="2162.5" y1="692.8516" y2="692.8516"/><ellipse cx="1547.5" cy="720.3516" fill="#84BE84" rx="7.5" ry="7.5" style="stroke: #038048; stroke-width: 2.5;"/><text fill="#000000" font-family="sans-serif" font-size="27.5" lengthAdjust="spacingAndGlyphs" textLength="515" x="1570" y="731.3989">void onMessage (KeypleMessageDto msg)</text><ellipse cx="1547.5" cy="754.9414" fill="#84BE84" rx="7.5" ry="7.5" style="stroke: #038048; stroke-width: 2.5;"/><text fill="#000000" font-family="sans-serif" font-size="27.5" lengthAdjust="spacingAndGlyphs" textLength="580" x="1570" y="765.9888">void onError (String sessionId, Throwable error)</text><!--MD5=[e8a5ac06609340fdd99947db00692199]
class KeypleClientSyncNode--><rect fill="#FDEDEC" height="120" id="KeypleClientSyncNode" style="stroke: #E74C3C; stroke-width: 3.75;" width="425" x="1007.5" y="627.8516"/><ellipse cx="1045" cy="667.8516" fill="#B4A7E5" rx="27.5" ry="27.5" style="stroke: #B4A7E5; stroke-width: 2.5;"/><path d="M1047.5,660.3516 L1047.5,675.3516 L1052.5,675.3516 L1053.7109,675.3516 L1055,676.9141 L1055,677.8516 L1055,678.7891 L1053.7109,680.3516 L1052.5,680.3516 L1037.5,680.3516 L1036.2891,680.3516 L1035,678.7891 L1035,677.8516 L1035,676.9141 L1036.2891,675.3516 L1037.5,675.3516 L1042.5,675.3516 L1042.5,660.3516 L1037.5,660.3516 L1036.2891,660.3516 L1035,658.7891 L1035,657.8516 L1035,656.9141 L1036.2891,655.3516 L1037.5,655.3516 L1052.5,655.3516 L1053.7109,655.3516 L1055,656.9141 L1055,657.8516 L1055,658.7891 L1053.7109,660.3516 L1052.5,660.3516 L1047.5,660.3516 Z "/><ellipse cx="1092.5" cy="666.6016" fill="#84BE84" rx="7.5" ry="7.5" style="stroke: #038048; stroke-width: 2.5;"/><text fill="#000000" font-family="sans-serif" font-size="30" font-style="italic" lengthAdjust="spacingAndGlyphs" textLength="317.5" x="1107.5" y="680.127">KeypleClientSyncNode</text><line style="stroke: #E74C3C; stroke-width: 3.75;" x1="1010" x2="1430" y1="707.8516" y2="707.8516"/><line style="stroke: #E74C3C; stroke-width: 3.75;" x1="1010" x2="1430" y1="727.8516" y2="727.8516"/><!--MD5=[dd8027f1fe25574d7b3afa90a41fd479]
class KeypleServerSyncNode--><rect fill="#FDEDEC" height="154.5898" id="KeypleServerSyncNode" style="stroke: #E74C3C; stroke-width: 3.75;" width="825" x="95" y="610.3516"/><ellipse cx="319.375" cy="650.3516" fill="#B4A7E5" rx="27.5" ry="27.5" style="stroke: #B4A7E5; stroke-width: 2.5;"/><path d="M321.875,642.8516 L321.875,657.8516 L326.875,657.8516 L328.0859,657.8516 L329.375,659.4141 L329.375,660.3516 L329.375,661.2891 L328.0859,662.8516 L326.875,662.8516 L311.875,662.8516 L310.6641,662.8516 L309.375,661.2891 L309.375,660.3516 L309.375,659.4141 L310.6641,657.8516 L311.875,657.8516 L316.875,657.8516 L316.875,642.8516 L311.875,642.8516 L310.6641,642.8516 L309.375,641.2891 L309.375,640.3516 L309.375,639.4141 L310.6641,637.8516 L311.875,637.8516 L326.875,637.8516 L328.0859,637.8516 L329.375,639.4141 L329.375,640.3516 L329.375,641.2891 L328.0859,642.8516 L326.875,642.8516 L321.875,642.8516 Z "/><ellipse cx="383.125" cy="649.1016" fill="#84BE84" rx="7.5" ry="7.5" style="stroke: #038048; stroke-width: 2.5;"/><text fill="#000000" font-family="sans-serif" font-size="30" font-style="italic" lengthAdjust="spacingAndGlyphs" textLength="327.5" x="398.125" y="662.627">KeypleServerSyncNode</text><line style="stroke: #E74C3C; stroke-width: 3.75;" x1="97.5" x2="917.5" y1="690.3516" y2="690.3516"/><line style="stroke: #E74C3C; stroke-width: 3.75;" x1="97.5" x2="917.5" y1="710.3516" y2="710.3516"/><ellipse cx="122.5" cy="737.8516" fill="#84BE84" rx="7.5" ry="7.5" style="stroke: #038048; stroke-width: 2.5;"/><text fill="#000000" font-family="sans-serif" font-size="27.5" lengthAdjust="spacingAndGlyphs" textLength="760" x="145" y="748.8989">List&lt;KeypleMessageDto&gt; onRequest (KeypleMessageDto msg)</text><!--MD5=[9672b30420572ff83d1e93a2e1c44221]
class KeypleMessageDto--><rect fill="#EAECEE" height="431.3086" id="KeypleMessageDto" style="stroke: #2C3E50; stroke-width: 3.75;" width="372.5" x="126.25" y="1011.6016"/><ellipse cx="163.75" cy="1051.6016" fill="#ADD1B2" rx="27.5" ry="27.5" style="stroke: #ADD1B2; stroke-width: 2.5;"/><path d="M168.75,1042.8516 Q169.2578,1041.6016 169.8438,1040.9766 Q170.4297,1040.3516 171.0938,1040.3516 Q172.2656,1040.3516 173.0078,1041.0547 Q173.75,1041.7578 173.75,1043.3984 L173.75,1047.3047 Q173.75,1048.9453 173.0469,1049.6484 Q172.3438,1050.3516 171.25,1050.3516 Q170.2734,1050.3516 169.6484,1049.9219 Q169.0234,1049.4922 168.75,1048.3594 Q168.6328,1047.5781 168.2031,1047.1484 Q167.4219,1046.3281 166.0156,1045.8594 Q164.6094,1045.3516 163.2031,1045.3516 Q161.4453,1045.3516 159.9609,1046.0547 Q158.5156,1046.7578 157.3828,1048.3203 Q156.25,1049.8828 156.25,1052.0313 L156.25,1054.3359 Q156.25,1056.9141 158.3594,1058.6328 Q160.4688,1060.3516 164.2188,1060.3516 Q166.4453,1060.3516 168.0078,1059.8438 Q168.9063,1059.5703 169.9219,1058.6719 Q170.5859,1058.1641 170.9375,1058.0078 Q171.2891,1057.8516 171.7188,1057.8516 Q172.5391,1057.8516 173.125,1058.5156 Q173.75,1059.1406 173.75,1060.0391 Q173.75,1060.8984 172.8906,1061.9141 Q171.6406,1063.3984 169.6484,1064.2188 Q167.0313,1065.3516 163.8281,1065.3516 Q160.0781,1065.3516 157.0703,1063.8672 Q154.6484,1062.6953 152.9297,1060.1563 Q151.25,1057.6172 151.25,1054.6094 L151.25,1051.875 Q151.25,1048.75 152.7344,1046.0156 Q154.2578,1043.2813 156.875,1041.8359 Q159.5313,1040.3516 162.5,1040.3516 Q164.2969,1040.3516 165.8594,1040.9766 Q167.4219,1041.6016 168.75,1042.8516 Z "/><ellipse cx="211.25" cy="1050.3516" fill="#84BE84" rx="7.5" ry="7.5" style="stroke: #038048; stroke-width: 2.5;"/><text fill="#000000" font-family="sans-serif" font-size="30" font-style="italic" lengthAdjust="spacingAndGlyphs" textLength="265" x="226.25" y="1063.877">KeypleMessageDto</text><line style="stroke: #2C3E50; stroke-width: 3.75;" x1="128.75" x2="496.25" y1="1091.6016" y2="1091.6016"/><ellipse cx="153.75" cy="1119.1016" fill="none" rx="7.5" ry="7.5" style="stroke: #038048; stroke-width: 2.5;"/><text fill="#000000" font-family="sans-serif" font-size="27.5" lengthAdjust="spacingAndGlyphs" textLength="192.5" x="176.25" y="1130.1489">String sessionId</text><ellipse cx="153.75" cy="1153.6914" fill="none" rx="7.5" ry="7.5" style="stroke: #038048; stroke-width: 2.5;"/><text fill="#000000" font-family="sans-serif" font-size="27.5" lengthAdjust="spacingAndGlyphs" textLength="150" x="176.25" y="1164.7388">String action</text><ellipse cx="153.75" cy="1188.2813" fill="none" rx="7.5" ry="7.5" style="stroke: #038048; stroke-width: 2.5;"/><text fill="#000000" font-family="sans-serif" font-size="27.5" lengthAdjust="spacingAndGlyphs" textLength="222.5" x="176.25" y="1199.3286">String clientNodeId</text><ellipse cx="153.75" cy="1222.8711" fill="none" rx="7.5" ry="7.5" style="stroke: #038048; stroke-width: 2.5;"/><text fill="#000000" font-family="sans-serif" font-size="27.5" lengthAdjust="spacingAndGlyphs" textLength="240" x="176.25" y="1233.9185">String serverNodeId</text><ellipse cx="153.75" cy="1257.4609" fill="none" rx="7.5" ry="7.5" style="stroke: #038048; stroke-width: 2.5;"/><text fill="#000000" font-family="sans-serif" font-size="27.5" lengthAdjust="spacingAndGlyphs" textLength="305" x="176.25" y="1268.5083">String nativeReaderName</text><ellipse cx="153.75" cy="1292.0508" fill="none" rx="7.5" ry="7.5" style="stroke: #038048; stroke-width: 2.5;"/><text fill="#000000" font-family="sans-serif" font-size="27.5" lengthAdjust="spacingAndGlyphs" textLength="305" x="176.25" y="1303.0981">String virtualReaderName</text><ellipse cx="153.75" cy="1326.6406" fill="none" rx="7.5" ry="7.5" style="stroke: #038048; stroke-width: 2.5;"/><text fill="#000000" font-family="sans-serif" font-size="27.5" lengthAdjust="spacingAndGlyphs" textLength="137.5" x="176.25" y="1337.688">String body</text><line style="stroke: #2C3E50; stroke-width: 3.75;" x1="128.75" x2="496.25" y1="1353.7305" y2="1353.7305"/><ellipse cx="153.75" cy="1381.2305" fill="#84BE84" rx="7.5" ry="7.5" style="stroke: #038048; stroke-width: 2.5;"/><text fill="#000000" font-family="sans-serif" font-size="27.5" lengthAdjust="spacingAndGlyphs" textLength="127.5" x="176.25" y="1392.2778">getters()...</text><ellipse cx="153.75" cy="1415.8203" fill="#84BE84" rx="7.5" ry="7.5" style="stroke: #038048; stroke-width: 2.5;"/><text fill="#000000" font-family="sans-serif" font-size="27.5" lengthAdjust="spacingAndGlyphs" textLength="127.5" x="176.25" y="1426.8677">setters()...</text><!--MD5=[4ddb14ad407e8a0dc5190ffaa8ce3a0d]
class KeypleClientAsync--><rect fill="#FEFECE" height="223.7695" id="KeypleClientAsync" style="stroke: #D4AC0D; stroke-width: 3.75;" width="610" x="2227.5" y="1115.3516"/><ellipse cx="2379.375" cy="1155.3516" fill="#B4A7E5" rx="27.5" ry="27.5" style="stroke: #B4A7E5; stroke-width: 2.5;"/><path d="M2381.875,1147.8516 L2381.875,1162.8516 L2386.875,1162.8516 L2388.0859,1162.8516 L2389.375,1164.4141 L2389.375,1165.3516 L2389.375,1166.2891 L2388.0859,1167.8516 L2386.875,1167.8516 L2371.875,1167.8516 L2370.6641,1167.8516 L2369.375,1166.2891 L2369.375,1165.3516 L2369.375,1164.4141 L2370.6641,1162.8516 L2371.875,1162.8516 L2376.875,1162.8516 L2376.875,1147.8516 L2371.875,1147.8516 L2370.6641,1147.8516 L2369.375,1146.2891 L2369.375,1145.3516 L2369.375,1144.4141 L2370.6641,1142.8516 L2371.875,1142.8516 L2386.875,1142.8516 L2388.0859,1142.8516 L2389.375,1144.4141 L2389.375,1145.3516 L2389.375,1146.2891 L2388.0859,1147.8516 L2386.875,1147.8516 L2381.875,1147.8516 Z "/><ellipse cx="2443.125" cy="1154.1016" fill="#84BE84" rx="7.5" ry="7.5" style="stroke: #038048; stroke-width: 2.5;"/><text fill="#000000" font-family="sans-serif" font-size="30" font-style="italic" lengthAdjust="spacingAndGlyphs" textLength="257.5" x="2458.125" y="1167.627">KeypleClientAsync</text><line style="stroke: #D4AC0D; stroke-width: 3.75;" x1="2230" x2="2835" y1="1195.3516" y2="1195.3516"/><line style="stroke: #D4AC0D; stroke-width: 3.75;" x1="2230" x2="2835" y1="1215.3516" y2="1215.3516"/><ellipse cx="2255" cy="1242.8516" fill="#84BE84" rx="7.5" ry="7.5" style="stroke: #038048; stroke-width: 2.5;"/><text fill="#000000" font-family="sans-serif" font-size="27.5" lengthAdjust="spacingAndGlyphs" textLength="435" x="2277.5" y="1253.8989">void openSession (String sessionId)</text><ellipse cx="2255" cy="1277.4414" fill="#84BE84" rx="7.5" ry="7.5" style="stroke: #038048; stroke-width: 2.5;"/><text fill="#000000" font-family="sans-serif" font-size="27.5" lengthAdjust="spacingAndGlyphs" textLength="545" x="2277.5" y="1288.4888">void sendMessage (KeypleMessageDto msg)</text><ellipse cx="2255" cy="1312.0313" fill="#84BE84" rx="7.5" ry="7.5" style="stroke: #038048; stroke-width: 2.5;"/><text fill="#000000" font-family="sans-serif" font-size="27.5" lengthAdjust="spacingAndGlyphs" textLength="440" x="2277.5" y="1323.0786">void closeSession (String sessionId)</text><!--MD5=[6544ec85e0d9eb9d1723da03e2a788e8]
class KeypleServerAsync--><rect fill="#FEFECE" height="154.5898" id="KeypleServerAsync" style="stroke: #D4AC0D; stroke-width: 3.75;" width="610" x="1530" y="1150.3516"/><ellipse cx="1676.875" cy="1190.3516" fill="#B4A7E5" rx="27.5" ry="27.5" style="stroke: #B4A7E5; stroke-width: 2.5;"/><path d="M1679.375,1182.8516 L1679.375,1197.8516 L1684.375,1197.8516 L1685.5859,1197.8516 L1686.875,1199.4141 L1686.875,1200.3516 L1686.875,1201.2891 L1685.5859,1202.8516 L1684.375,1202.8516 L1669.375,1202.8516 L1668.1641,1202.8516 L1666.875,1201.2891 L1666.875,1200.3516 L1666.875,1199.4141 L1668.1641,1197.8516 L1669.375,1197.8516 L1674.375,1197.8516 L1674.375,1182.8516 L1669.375,1182.8516 L1668.1641,1182.8516 L1666.875,1181.2891 L1666.875,1180.3516 L1666.875,1179.4141 L1668.1641,1177.8516 L1669.375,1177.8516 L1684.375,1177.8516 L1685.5859,1177.8516 L1686.875,1179.4141 L1686.875,1180.3516 L1686.875,1181.2891 L1685.5859,1182.8516 L1684.375,1182.8516 L1679.375,1182.8516 Z "/><ellipse cx="1740.625" cy="1189.1016" fill="#84BE84" rx="7.5" ry="7.5" style="stroke: #038048; stroke-width: 2.5;"/><text fill="#000000" font-family="sans-serif" font-size="30" font-style="italic" lengthAdjust="spacingAndGlyphs" textLength="267.5" x="1755.625" y="1202.627">KeypleServerAsync</text><line style="stroke: #D4AC0D; stroke-width: 3.75;" x1="1532.5" x2="2137.5" y1="1230.3516" y2="1230.3516"/><line style="stroke: #D4AC0D; stroke-width: 3.75;" x1="1532.5" x2="2137.5" y1="1250.3516" y2="1250.3516"/><ellipse cx="1557.5" cy="1277.8516" fill="#84BE84" rx="7.5" ry="7.5" style="stroke: #038048; stroke-width: 2.5;"/><text fill="#000000" font-family="sans-serif" font-size="27.5" lengthAdjust="spacingAndGlyphs" textLength="545" x="1580" y="1288.8989">void sendMessage (KeypleMessageDto msg)</text><!--MD5=[bbf6003dc53a2fbb600a721f02dcdf85]
class KeypleClientSync--><rect fill="#FEFECE" height="154.5898" id="KeypleClientSync" style="stroke: #D4AC0D; stroke-width: 3.75;" width="855" x="587.5" y="1150.3516"/><ellipse cx="869.375" cy="1190.3516" fill="#B4A7E5" rx="27.5" ry="27.5" style="stroke: #B4A7E5; stroke-width: 2.5;"/><path d="M871.875,1182.8516 L871.875,1197.8516 L876.875,1197.8516 L878.0859,1197.8516 L879.375,1199.4141 L879.375,1200.3516 L879.375,1201.2891 L878.0859,1202.8516 L876.875,1202.8516 L861.875,1202.8516 L860.6641,1202.8516 L859.375,1201.2891 L859.375,1200.3516 L859.375,1199.4141 L860.6641,1197.8516 L861.875,1197.8516 L866.875,1197.8516 L866.875,1182.8516 L861.875,1182.8516 L860.6641,1182.8516 L859.375,1181.2891 L859.375,1180.3516 L859.375,1179.4141 L860.6641,1177.8516 L861.875,1177.8516 L876.875,1177.8516 L878.0859,1177.8516 L879.375,1179.4141 L879.375,1180.3516 L879.375,1181.2891 L878.0859,1182.8516 L876.875,1182.8516 L871.875,1182.8516 Z "/><ellipse cx="933.125" cy="1189.1016" fill="#84BE84" rx="7.5" ry="7.5" style="stroke: #038048; stroke-width: 2.5;"/><text fill="#000000" font-family="sans-serif" font-size="30" font-style="italic" lengthAdjust="spacingAndGlyphs" textLength="242.5" x="948.125" y="1202.627">KeypleClientSync</text><line style="stroke: #D4AC0D; stroke-width: 3.75;" x1="590" x2="1440" y1="1230.3516" y2="1230.3516"/><line style="stroke: #D4AC0D; stroke-width: 3.75;" x1="590" x2="1440" y1="1250.3516" y2="1250.3516"/><ellipse cx="615" cy="1277.8516" fill="#84BE84" rx="7.5" ry="7.5" style="stroke: #038048; stroke-width: 2.5;"/><text fill="#000000" font-family="sans-serif" font-size="27.5" lengthAdjust="spacingAndGlyphs" textLength="790" x="637.5" y="1288.8989">List&lt;KeypleMessageDto&gt; sendRequest (KeypleMessageDto msg)</text><!--MD5=[3339938c1e44c45a745f6c7126070654]
link KeypleClientSyncNode to KeypleClientSync--><path d="M1197.67,748.6241 C1161.6275,842.6916 1090.415,1028.5341 1048.3425,1138.3366 " fill="none" id="KeypleClientSyncNode-&gt;KeypleClientSync" style="stroke: #3498DB; stroke-width: 2.5;"/><polygon fill="#3498DB" points="1043.8625,1150.0291,1061.2548,1132.6004,1048.3375,1138.3576,1042.5803,1125.4403,1043.8625,1150.0291" style="stroke: #3498DB; stroke-width: 2.5;"/><text fill="#000000" font-family="sans-serif" font-size="32.5" lengthAdjust="spacingAndGlyphs" textLength="52.5" x="1142.5" y="927.8394">use</text><polygon fill="#000000" points="1157.5,949.9805,1165,964.9805,1172.5,949.9805,1157.5,949.9805" style="stroke: #000000; stroke-width: 2.5;"/><!--MD5=[a5c2fbd18bb9111121f0405f52c94c57]
link KeypleClientAsyncNode to KeypleClientAsync--><path d="M2564.925,817.1391 C2558.1,903.0791 2549.125,1016.1041 2542.35,1101.4316 " fill="none" id="KeypleClientAsyncNode-&gt;KeypleClientAsync" style="stroke: #3498DB; stroke-width: 2.5;"/><polygon fill="#3498DB" points="2541.275,1114.8791,2553.0239,1093.2408,2542.264,1102.4182,2533.0866,1091.6584,2541.275,1114.8791" style="stroke: #3498DB; stroke-width: 2.5;"/><text fill="#000000" font-family="sans-serif" font-size="32.5" lengthAdjust="spacingAndGlyphs" textLength="52.5" x="2560" y="927.8394">use</text><polygon fill="#000000" points="2575,949.9805,2582.5,964.9805,2590,949.9805,2575,949.9805" style="stroke: #000000; stroke-width: 2.5;"/><!--MD5=[595f09f108c1a404a1b39704edd74da1]
link KeypleServerAsyncNode to KeypleServerAsync--><path d="M1841.1925,783.5416 C1839.8,882.9616 1837.6075,1039.2791 1836.24,1136.8616 " fill="none" id="KeypleServerAsyncNode-&gt;KeypleServerAsync" style="stroke: #3498DB; stroke-width: 2.5;"/><polygon fill="#3498DB" points="1836.0625,1149.6391,1846.3765,1127.2813,1836.2375,1137.1403,1826.3784,1127.0013,1836.0625,1149.6391" style="stroke: #3498DB; stroke-width: 2.5;"/><text fill="#000000" font-family="sans-serif" font-size="32.5" lengthAdjust="spacingAndGlyphs" textLength="52.5" x="1840" y="927.8394">use</text><polygon fill="#000000" points="1855,949.9805,1862.5,964.9805,1870,949.9805,1855,949.9805" style="stroke: #000000; stroke-width: 2.5;"/><!--MD5=[0da2c9d5f995456aec4a283c4e23b86e]
link KeypleServerSyncNode to KeypleMessageDto--><!--MD5=[88b00bf0d40d66c2ac95ddbd5b3d9662]
link nodeApi to KeypleClientSyncNode--><!--MD5=[4b3053cc7f425abe2deca22262d22972]
link spiApi to KeypleServerAsyncNode--><!--MD5=[3682839b11eeb6cbe0b80bd304024901]
@startuml
title
    Keyple Remote Plugin - Core API - 1.0.0 (28/10/2020)
end title



skinparam Shadowing false
skinparam ClassFontStyle italic
skinparam ClassBorderColor #D4AC0D
skinparam stereotypeABorderColor #A9DCDF
skinparam stereotypeIBorderColor #B4A7E5
skinparam stereotypeCBorderColor #ADD1B2
skinparam stereotypeEBorderColor #EB93DF
skinparam ClassBackgroundColor<<red>> #FDEDEC
skinparam ClassBorderColor<<red>> #E74C3C
hide <<red>> stereotype
skinparam ClassBackgroundColor<<purple>> #F4ECF7
skinparam ClassBorderColor<<purple>> #8E44AD
hide <<purple>> stereotype
skinparam ClassBackgroundColor<<blue>> #EBF5FB
skinparam ClassBorderColor<<blue>> #3498DB
hide <<blue>> stereotype
skinparam ClassBackgroundColor<<green>> #E9F7EF
skinparam ClassBorderColor<<green>> #27AE60
hide <<green>> stereotype
skinparam ClassBackgroundColor<<grey>> #EAECEE
skinparam ClassBorderColor<<grey>> #2C3E50
hide <<grey>> stereotype


package Legend {
    interface "**Node API**" as nodeApi <<red>>
    interface "**DTO**" as dtoApi <<grey>>
    interface "**SPI** (Service Provider Interface)\nMust be implemented by the user" as spiApi
}

package "org.eclipse.keyple.plugin.remote.core" as core {
    +interface KeypleClientAsyncNode {
        +void onOpen (String sessionId)
        +void onMessage (KeypleMessageDto msg)
        +void onClose (String sessionId)
        +void onError (String sessionId, Throwable error)
    }
    +interface KeypleServerAsyncNode {
        +void onMessage (KeypleMessageDto msg)
        +void onError (String sessionId, Throwable error)
    }
    +interface KeypleClientSyncNode {
    }
    +interface KeypleServerSyncNode {
        +List<KeypleMessageDto> onRequest (KeypleMessageDto msg)
    }
    package spi {
        +interface KeypleClientAsync {
            +void openSession (String sessionId)
            +void sendMessage (KeypleMessageDto msg)
            +void closeSession (String sessionId)
        }
        +interface KeypleServerAsync {
            +void sendMessage (KeypleMessageDto msg)
        }
        +interface KeypleClientSync {
            +List<KeypleMessageDto> sendRequest (KeypleMessageDto msg)
        }
    }
    +class KeypleMessageDto {
        + String sessionId
        + String action
        + String clientNodeId
        + String serverNodeId
        + String nativeReaderName
        + String virtualReaderName
        + String body
        + getters()...
        + setters()...
    }
}

KeypleClientSyncNode - -> KeypleClientSync #3498DB : use >
KeypleClientAsyncNode - -> KeypleClientAsync #3498DB : use >
KeypleServerAsyncNode - -> KeypleServerAsync #3498DB : use >


KeypleServerSyncNode -[hidden]- KeypleMessageDto

nodeApi -[hidden]- KeypleClientSyncNode
spiApi -[hidden]- KeypleServerAsyncNode


package core #F8F9F9 {}
package spi #F2F3F4 {}

KeypleClientSyncNode <<red>>
KeypleServerSyncNode <<red>>
KeypleClientAsyncNode <<red>>
KeypleServerAsyncNode <<red>>

KeypleMessageDto <<grey>>

@enduml

PlantUML version 1.2020.09(Sun May 10 12:51:06 CEST 2020)
(GPL source distribution)
Java Runtime: OpenJDK Runtime Environment
JVM: OpenJDK 64-Bit Server VM
Java Version: 11.0.8+10-b944.34
Operating System: Windows 10
Default Encoding: Cp1252
Language: fr
Country: FR
--></g></svg>