<?xml version="1.0" encoding="UTF-8" standalone="no"?><svg xmlns="http://www.w3.org/2000/svg" xmlns:xlink="http://www.w3.org/1999/xlink" contentScriptType="application/ecmascript" contentStyleType="text/css" height="3850px" preserveAspectRatio="none" style="width:2842px;height:3850px;" version="1.1" viewBox="0 0 2842 3850" width="2842.5px" zoomAndPan="magnify"><defs/><g><text fill="#000000" font-family="sans-serif" font-size="45" lengthAdjust="spacingAndGlyphs" textLength="1240" x="816.25" y="46.7139">Keyple Remote Plugin - Local Service API - 1.0.0 (02/11/2020)</text><!--MD5=[f7217341b3bb6bbf768c7f0e049f8d09]
cluster Legend--><polygon fill="#FFFFFF" points="187.5,116.6016,335,116.6016,352.5,175.625,2575,175.625,2575,386.6016,187.5,386.6016,187.5,116.6016" style="stroke: #000000; stroke-width: 3.75;"/><line style="stroke: #000000; stroke-width: 3.75;" x1="187.5" x2="352.5" y1="175.625" y2="175.625"/><text fill="#000000" font-family="sans-serif" font-size="35" font-weight="bold" lengthAdjust="spacingAndGlyphs" textLength="132.5" x="197.5" y="157.9346">Legend</text><!--MD5=[3fb92fba1735106d511c1d05a9f83ed2]
cluster root--><polygon fill="#F8F9F9" points="55,469.1016,647.5,469.1016,665,528.125,2787.5,528.125,2787.5,3821.6016,55,3821.6016,55,469.1016" style="stroke: #000000; stroke-width: 3.75;"/><line style="stroke: #000000; stroke-width: 3.75;" x1="55" x2="665" y1="528.125" y2="528.125"/><text fill="#000000" font-family="sans-serif" font-size="35" font-weight="bold" lengthAdjust="spacingAndGlyphs" textLength="577.5" x="65" y="510.4346">org.eclipse.keyple.plugin.remote</text><!--MD5=[f7e0e2453c87923036c1ac2adfb9cbf0]
cluster spi--><polygon fill="#F2F3F4" points="777.5,579.1016,845,579.1016,862.5,638.125,1557.5,638.125,1557.5,934.1016,777.5,934.1016,777.5,579.1016" style="stroke: #000000; stroke-width: 3.75;"/><line style="stroke: #000000; stroke-width: 3.75;" x1="777.5" x2="862.5" y1="638.125" y2="638.125"/><text fill="#000000" font-family="sans-serif" font-size="35" font-weight="bold" lengthAdjust="spacingAndGlyphs" textLength="52.5" x="787.5" y="620.4346">spi</text><!--MD5=[cf58d37b78f149325f79356613ff3b39]
cluster impl--><polygon fill="#F2F3F4" points="115,1744.1016,202.5,1744.1016,220,1803.125,2727.5,1803.125,2727.5,3761.6016,115,3761.6016,115,1744.1016" style="stroke: #000000; stroke-width: 3.75;"/><line style="stroke: #000000; stroke-width: 3.75;" x1="115" x2="220" y1="1803.125" y2="1803.125"/><text fill="#000000" font-family="sans-serif" font-size="35" font-weight="bold" lengthAdjust="spacingAndGlyphs" textLength="72.5" x="125" y="1785.4346">impl</text><!--MD5=[0151672578e250b854cc5be527f42c35]
class serverApi--><rect fill="#E9F7EF" height="120" id="serverApi" style="stroke: #27AE60; stroke-width: 3.75;" width="435" x="227.5" y="216.6016"/><ellipse cx="265" cy="256.6016" fill="#B4A7E5" rx="27.5" ry="27.5" style="stroke: #B4A7E5; stroke-width: 2.5;"/><path d="M267.5,249.1016 L267.5,264.1016 L272.5,264.1016 L273.7109,264.1016 L275,265.6641 L275,266.6016 L275,267.5391 L273.7109,269.1016 L272.5,269.1016 L257.5,269.1016 L256.2891,269.1016 L255,267.5391 L255,266.6016 L255,265.6641 L256.2891,264.1016 L257.5,264.1016 L262.5,264.1016 L262.5,249.1016 L257.5,249.1016 L256.2891,249.1016 L255,247.5391 L255,246.6016 L255,245.6641 L256.2891,244.1016 L257.5,244.1016 L272.5,244.1016 L273.7109,244.1016 L275,245.6641 L275,246.6016 L275,247.5391 L273.7109,249.1016 L272.5,249.1016 L267.5,249.1016 Z "/><text fill="#000000" font-family="sans-serif" font-size="30" font-style="italic" font-weight="bold" lengthAdjust="spacingAndGlyphs" textLength="355" x="300" y="268.877">RemotePluginServer API</text><line style="stroke: #27AE60; stroke-width: 3.75;" x1="230" x2="660" y1="296.6016" y2="296.6016"/><line style="stroke: #27AE60; stroke-width: 3.75;" x1="230" x2="660" y1="316.6016" y2="316.6016"/><!--MD5=[03e54594c35fbf660fd4700221a37967]
class clientApi--><rect fill="#F4ECF7" height="140.4688" id="clientApi" style="stroke: #8E44AD; stroke-width: 3.75;" width="585" x="1377.5" y="206.6016"/><ellipse cx="1415" cy="256.8359" fill="#B4A7E5" rx="27.5" ry="27.5" style="stroke: #B4A7E5; stroke-width: 2.5;"/><path d="M1417.5,249.3359 L1417.5,264.3359 L1422.5,264.3359 L1423.7109,264.3359 L1425,265.8984 L1425,266.8359 L1425,267.7734 L1423.7109,269.3359 L1422.5,269.3359 L1407.5,269.3359 L1406.2891,269.3359 L1405,267.7734 L1405,266.8359 L1405,265.8984 L1406.2891,264.3359 L1407.5,264.3359 L1412.5,264.3359 L1412.5,249.3359 L1407.5,249.3359 L1406.2891,249.3359 L1405,247.7734 L1405,246.8359 L1405,245.8984 L1406.2891,244.3359 L1407.5,244.3359 L1422.5,244.3359 L1423.7109,244.3359 L1425,245.8984 L1425,246.8359 L1425,247.7734 L1423.7109,249.3359 L1422.5,249.3359 L1417.5,249.3359 Z "/><text fill="#000000" font-family="sans-serif" font-size="30" font-style="italic" font-weight="bold" lengthAdjust="spacingAndGlyphs" textLength="340" x="1515" y="250.2441">RemotePluginClient API</text><text fill="#000000" font-family="sans-serif" font-size="30" font-style="italic" lengthAdjust="spacingAndGlyphs" textLength="27.5" x="1862.5" y="250.2441">or</text><text fill="#000000" font-family="sans-serif" font-size="30" font-style="italic" font-weight="bold" lengthAdjust="spacingAndGlyphs" textLength="505" x="1450" y="287.9785">ObservableRemotePluginClient API</text><line style="stroke: #8E44AD; stroke-width: 3.75;" x1="1380" x2="1960" y1="307.0703" y2="307.0703"/><line style="stroke: #8E44AD; stroke-width: 3.75;" x1="1380" x2="1960" y1="327.0703" y2="327.0703"/><!--MD5=[e4a655394b35c78c99af22199760ea1d]
class poolClientApi--><rect fill="#EBF5FB" height="120" id="poolClientApi" style="stroke: #3498DB; stroke-width: 3.75;" width="482.5" x="2051.25" y="216.6016"/><ellipse cx="2088.75" cy="256.6016" fill="#B4A7E5" rx="27.5" ry="27.5" style="stroke: #B4A7E5; stroke-width: 2.5;"/><path d="M2091.25,249.1016 L2091.25,264.1016 L2096.25,264.1016 L2097.4609,264.1016 L2098.75,265.6641 L2098.75,266.6016 L2098.75,267.5391 L2097.4609,269.1016 L2096.25,269.1016 L2081.25,269.1016 L2080.0391,269.1016 L2078.75,267.5391 L2078.75,266.6016 L2078.75,265.6641 L2080.0391,264.1016 L2081.25,264.1016 L2086.25,264.1016 L2086.25,249.1016 L2081.25,249.1016 L2080.0391,249.1016 L2078.75,247.5391 L2078.75,246.6016 L2078.75,245.6641 L2080.0391,244.1016 L2081.25,244.1016 L2096.25,244.1016 L2097.4609,244.1016 L2098.75,245.6641 L2098.75,246.6016 L2098.75,247.5391 L2097.4609,249.1016 L2096.25,249.1016 L2091.25,249.1016 Z "/><text fill="#000000" font-family="sans-serif" font-size="30" font-style="italic" font-weight="bold" lengthAdjust="spacingAndGlyphs" textLength="402.5" x="2123.75" y="268.877">PoolRemotePluginClient API</text><line style="stroke: #3498DB; stroke-width: 3.75;" x1="2053.75" x2="2531.25" y1="296.6016" y2="296.6016"/><line style="stroke: #3498DB; stroke-width: 3.75;" x1="2053.75" x2="2531.25" y1="316.6016" y2="316.6016"/><!--MD5=[e92611fa4837a0a075ca8255b3dfcfc1]
class spiApi--><rect fill="#FEFECE" height="140.4688" id="spiApi" style="stroke: #D4AC0D; stroke-width: 3.75;" width="537.5" x="751.25" y="206.6016"/><ellipse cx="788.75" cy="256.8359" fill="#B4A7E5" rx="27.5" ry="27.5" style="stroke: #B4A7E5; stroke-width: 2.5;"/><path d="M791.25,249.3359 L791.25,264.3359 L796.25,264.3359 L797.4609,264.3359 L798.75,265.8984 L798.75,266.8359 L798.75,267.7734 L797.4609,269.3359 L796.25,269.3359 L781.25,269.3359 L780.0391,269.3359 L778.75,267.7734 L778.75,266.8359 L778.75,265.8984 L780.0391,264.3359 L781.25,264.3359 L786.25,264.3359 L786.25,249.3359 L781.25,249.3359 L780.0391,249.3359 L778.75,247.7734 L778.75,246.8359 L778.75,245.8984 L780.0391,244.3359 L781.25,244.3359 L796.25,244.3359 L797.4609,244.3359 L798.75,245.8984 L798.75,246.8359 L798.75,247.7734 L797.4609,249.3359 L796.25,249.3359 L791.25,249.3359 Z "/><text fill="#000000" font-family="sans-serif" font-size="30" font-style="italic" font-weight="bold" lengthAdjust="spacingAndGlyphs" textLength="47.5" x="838.75" y="250.2441">SPI</text><text fill="#000000" font-family="sans-serif" font-size="30" font-style="italic" lengthAdjust="spacingAndGlyphs" textLength="372.5" x="893.75" y="250.2441">(Service Provider Interface)</text><text fill="#000000" font-family="sans-serif" font-size="30" font-style="italic" lengthAdjust="spacingAndGlyphs" textLength="457.5" x="823.75" y="287.9785">Must be implemented by the user</text><line style="stroke: #D4AC0D; stroke-width: 3.75;" x1="753.75" x2="1286.25" y1="307.0703" y2="307.0703"/><line style="stroke: #D4AC0D; stroke-width: 3.75;" x1="753.75" x2="1286.25" y1="327.0703" y2="327.0703"/><!--MD5=[657218de26726cf2cc3eddb35d9875a6]
class LocalServiceClient--><rect fill="#E9F7EF" height="223.7695" id="LocalServiceClient" style="stroke: #27AE60; stroke-width: 3.75;" width="567.5" x="161.25" y="669.1016"/><ellipse cx="291.875" cy="709.1016" fill="#B4A7E5" rx="27.5" ry="27.5" style="stroke: #B4A7E5; stroke-width: 2.5;"/><path d="M294.375,701.6016 L294.375,716.6016 L299.375,716.6016 L300.5859,716.6016 L301.875,718.1641 L301.875,719.1016 L301.875,720.0391 L300.5859,721.6016 L299.375,721.6016 L284.375,721.6016 L283.1641,721.6016 L281.875,720.0391 L281.875,719.1016 L281.875,718.1641 L283.1641,716.6016 L284.375,716.6016 L289.375,716.6016 L289.375,701.6016 L284.375,701.6016 L283.1641,701.6016 L281.875,700.0391 L281.875,699.1016 L281.875,698.1641 L283.1641,696.6016 L284.375,696.6016 L299.375,696.6016 L300.5859,696.6016 L301.875,698.1641 L301.875,699.1016 L301.875,700.0391 L300.5859,701.6016 L299.375,701.6016 L294.375,701.6016 Z "/><ellipse cx="355.625" cy="707.8516" fill="#84BE84" rx="7.5" ry="7.5" style="stroke: #038048; stroke-width: 2.5;"/><text fill="#000000" font-family="sans-serif" font-size="30" font-style="italic" lengthAdjust="spacingAndGlyphs" textLength="257.5" x="370.625" y="721.377">LocalServiceClient</text><line style="stroke: #27AE60; stroke-width: 3.75;" x1="163.75" x2="726.25" y1="749.1016" y2="749.1016"/><line style="stroke: #27AE60; stroke-width: 3.75;" x1="163.75" x2="726.25" y1="769.1016" y2="769.1016"/><ellipse cx="188.75" cy="796.6016" fill="#84BE84" rx="7.5" ry="7.5" style="stroke: #038048; stroke-width: 2.5;"/><text fill="#000000" font-family="sans-serif" font-size="27.5" lengthAdjust="spacingAndGlyphs" textLength="372.5" x="211.25" y="807.6489">&lt;T&gt; T executeRemoteService (</text><text fill="#000000" font-family="sans-serif" font-size="27.5" lengthAdjust="spacingAndGlyphs" textLength="472.5" x="241.25" y="842.2388">RemoteServiceParameters parameters,</text><text fill="#000000" font-family="sans-serif" font-size="27.5" lengthAdjust="spacingAndGlyphs" textLength="240" x="241.25" y="876.8286">Class&lt;T&gt; classOfT)</text><!--MD5=[d20a95b78d716283a1df9eca070f5ba1]
class RemoteServiceParameters--><rect fill="#E9F7EF" height="154.5898" id="RemoteServiceParameters" style="stroke: #27AE60; stroke-width: 3.75;" width="702.5" x="128.75" y="1094.1016"/><ellipse cx="269.375" cy="1134.1016" fill="#ADD1B2" rx="27.5" ry="27.5" style="stroke: #ADD1B2; stroke-width: 2.5;"/><path d="M274.375,1125.3516 Q274.8828,1124.1016 275.4688,1123.4766 Q276.0547,1122.8516 276.7188,1122.8516 Q277.8906,1122.8516 278.6328,1123.5547 Q279.375,1124.2578 279.375,1125.8984 L279.375,1129.8047 Q279.375,1131.4453 278.6719,1132.1484 Q277.9688,1132.8516 276.875,1132.8516 Q275.8984,1132.8516 275.2734,1132.4219 Q274.6484,1131.9922 274.375,1130.8594 Q274.2578,1130.0781 273.8281,1129.6484 Q273.0469,1128.8281 271.6406,1128.3594 Q270.2344,1127.8516 268.8281,1127.8516 Q267.0703,1127.8516 265.5859,1128.5547 Q264.1406,1129.2578 263.0078,1130.8203 Q261.875,1132.3828 261.875,1134.5313 L261.875,1136.8359 Q261.875,1139.4141 263.9844,1141.1328 Q266.0938,1142.8516 269.8438,1142.8516 Q272.0703,1142.8516 273.6328,1142.3438 Q274.5313,1142.0703 275.5469,1141.1719 Q276.2109,1140.6641 276.5625,1140.5078 Q276.9141,1140.3516 277.3438,1140.3516 Q278.1641,1140.3516 278.75,1141.0156 Q279.375,1141.6406 279.375,1142.5391 Q279.375,1143.3984 278.5156,1144.4141 Q277.2656,1145.8984 275.2734,1146.7188 Q272.6563,1147.8516 269.4531,1147.8516 Q265.7031,1147.8516 262.6953,1146.3672 Q260.2734,1145.1953 258.5547,1142.6563 Q256.875,1140.1172 256.875,1137.1094 L256.875,1134.375 Q256.875,1131.25 258.3594,1128.5156 Q259.8828,1125.7813 262.5,1124.3359 Q265.1563,1122.8516 268.125,1122.8516 Q269.9219,1122.8516 271.4844,1123.4766 Q273.0469,1124.1016 274.375,1125.3516 Z "/><ellipse cx="333.125" cy="1132.8516" fill="#84BE84" rx="7.5" ry="7.5" style="stroke: #038048; stroke-width: 2.5;"/><text fill="#000000" font-family="sans-serif" font-size="30" font-style="italic" lengthAdjust="spacingAndGlyphs" textLength="372.5" x="348.125" y="1146.377">RemoteServiceParameters</text><line style="stroke: #27AE60; stroke-width: 3.75;" x1="131.25" x2="828.75" y1="1174.1016" y2="1174.1016"/><line style="stroke: #27AE60; stroke-width: 3.75;" x1="131.25" x2="828.75" y1="1194.1016" y2="1194.1016"/><ellipse cx="156.25" cy="1221.6016" fill="#84BE84" rx="7.5" ry="7.5" style="stroke: #038048; stroke-width: 2.5;"/><text fill="#000000" font-family="sans-serif" font-size="27.5" lengthAdjust="spacingAndGlyphs" text-decoration="underline" textLength="637.5" x="178.75" y="1232.6489">Builder builder (String serviceId, Reader localReader)</text><!--MD5=[d456467577ef109bf5015118e808ea7b]
class RemoteServiceParametersBuilder--><rect fill="#E9F7EF" height="223.7695" id="RemoteServiceParametersBuilder" style="stroke: #27AE60; stroke-width: 3.75;" width="807.5" x="98.75" y="1401.6016"/><ellipse cx="429.375" cy="1441.6016" fill="#ADD1B2" rx="27.5" ry="27.5" style="stroke: #ADD1B2; stroke-width: 2.5;"/><path d="M434.375,1432.8516 Q434.8828,1431.6016 435.4688,1430.9766 Q436.0547,1430.3516 436.7188,1430.3516 Q437.8906,1430.3516 438.6328,1431.0547 Q439.375,1431.7578 439.375,1433.3984 L439.375,1437.3047 Q439.375,1438.9453 438.6719,1439.6484 Q437.9688,1440.3516 436.875,1440.3516 Q435.8984,1440.3516 435.2734,1439.9219 Q434.6484,1439.4922 434.375,1438.3594 Q434.2578,1437.5781 433.8281,1437.1484 Q433.0469,1436.3281 431.6406,1435.8594 Q430.2344,1435.3516 428.8281,1435.3516 Q427.0703,1435.3516 425.5859,1436.0547 Q424.1406,1436.7578 423.0078,1438.3203 Q421.875,1439.8828 421.875,1442.0313 L421.875,1444.3359 Q421.875,1446.9141 423.9844,1448.6328 Q426.0938,1450.3516 429.8438,1450.3516 Q432.0703,1450.3516 433.6328,1449.8438 Q434.5313,1449.5703 435.5469,1448.6719 Q436.2109,1448.1641 436.5625,1448.0078 Q436.9141,1447.8516 437.3438,1447.8516 Q438.1641,1447.8516 438.75,1448.5156 Q439.375,1449.1406 439.375,1450.0391 Q439.375,1450.8984 438.5156,1451.9141 Q437.2656,1453.3984 435.2734,1454.2188 Q432.6563,1455.3516 429.4531,1455.3516 Q425.7031,1455.3516 422.6953,1453.8672 Q420.2734,1452.6953 418.5547,1450.1563 Q416.875,1447.6172 416.875,1444.6094 L416.875,1441.875 Q416.875,1438.75 418.3594,1436.0156 Q419.8828,1433.2813 422.5,1431.8359 Q425.1563,1430.3516 428.125,1430.3516 Q429.9219,1430.3516 431.4844,1430.9766 Q433.0469,1431.6016 434.375,1432.8516 Z "/><ellipse cx="493.125" cy="1440.3516" fill="#84BE84" rx="7.5" ry="7.5" style="stroke: #038048; stroke-width: 2.5;"/><text fill="#000000" font-family="sans-serif" font-size="30" font-style="italic" lengthAdjust="spacingAndGlyphs" textLength="97.5" x="508.125" y="1453.877">Builder</text><line style="stroke: #27AE60; stroke-width: 3.75;" x1="101.25" x2="903.75" y1="1481.6016" y2="1481.6016"/><line style="stroke: #27AE60; stroke-width: 3.75;" x1="101.25" x2="903.75" y1="1501.6016" y2="1501.6016"/><ellipse cx="126.25" cy="1529.1016" fill="#84BE84" rx="7.5" ry="7.5" style="stroke: #038048; stroke-width: 2.5;"/><text fill="#000000" font-family="sans-serif" font-size="27.5" lengthAdjust="spacingAndGlyphs" textLength="592.5" x="148.75" y="1540.1489">Builder withUserInputData (Object userInputData)</text><ellipse cx="126.25" cy="1563.6914" fill="#84BE84" rx="7.5" ry="7.5" style="stroke: #038048; stroke-width: 2.5;"/><text fill="#000000" font-family="sans-serif" font-size="27.5" lengthAdjust="spacingAndGlyphs" textLength="742.5" x="148.75" y="1574.7388">Builder withInitialCardContent (AbstractSmartCard smartCard)</text><ellipse cx="126.25" cy="1598.2813" fill="#84BE84" rx="7.5" ry="7.5" style="stroke: #038048; stroke-width: 2.5;"/><text fill="#000000" font-family="sans-serif" font-size="27.5" lengthAdjust="spacingAndGlyphs" textLength="410" x="148.75" y="1609.3286">RemoteServiceParameters build ()</text><!--MD5=[4d142d173e80d1ead80837db61750bd6]
class LocalServiceServer--><rect fill="#F4ECF7" height="120" id="LocalServiceServer" style="stroke: #8E44AD; stroke-width: 3.75;" width="375" x="1397.5" y="1454.1016"/><ellipse cx="1435" cy="1494.1016" fill="#B4A7E5" rx="27.5" ry="27.5" style="stroke: #B4A7E5; stroke-width: 2.5;"/><path d="M1437.5,1486.6016 L1437.5,1501.6016 L1442.5,1501.6016 L1443.7109,1501.6016 L1445,1503.1641 L1445,1504.1016 L1445,1505.0391 L1443.7109,1506.6016 L1442.5,1506.6016 L1427.5,1506.6016 L1426.2891,1506.6016 L1425,1505.0391 L1425,1504.1016 L1425,1503.1641 L1426.2891,1501.6016 L1427.5,1501.6016 L1432.5,1501.6016 L1432.5,1486.6016 L1427.5,1486.6016 L1426.2891,1486.6016 L1425,1485.0391 L1425,1484.1016 L1425,1483.1641 L1426.2891,1481.6016 L1427.5,1481.6016 L1442.5,1481.6016 L1443.7109,1481.6016 L1445,1483.1641 L1445,1484.1016 L1445,1485.0391 L1443.7109,1486.6016 L1442.5,1486.6016 L1437.5,1486.6016 Z "/><ellipse cx="1482.5" cy="1492.8516" fill="#84BE84" rx="7.5" ry="7.5" style="stroke: #038048; stroke-width: 2.5;"/><text fill="#000000" font-family="sans-serif" font-size="30" font-style="italic" lengthAdjust="spacingAndGlyphs" textLength="267.5" x="1497.5" y="1506.377">LocalServiceServer</text><line style="stroke: #8E44AD; stroke-width: 3.75;" x1="1400" x2="1770" y1="1534.1016" y2="1534.1016"/><line style="stroke: #8E44AD; stroke-width: 3.75;" x1="1400" x2="1770" y1="1554.1016" y2="1554.1016"/><!--MD5=[900bc9a326d1e4c0e6bf43bbad480964]
class PoolLocalServiceServer--><rect fill="#EBF5FB" height="120" id="PoolLocalServiceServer" style="stroke: #3498DB; stroke-width: 3.75;" width="437.5" x="2073.75" y="1454.1016"/><ellipse cx="2111.25" cy="1494.1016" fill="#B4A7E5" rx="27.5" ry="27.5" style="stroke: #B4A7E5; stroke-width: 2.5;"/><path d="M2113.75,1486.6016 L2113.75,1501.6016 L2118.75,1501.6016 L2119.9609,1501.6016 L2121.25,1503.1641 L2121.25,1504.1016 L2121.25,1505.0391 L2119.9609,1506.6016 L2118.75,1506.6016 L2103.75,1506.6016 L2102.5391,1506.6016 L2101.25,1505.0391 L2101.25,1504.1016 L2101.25,1503.1641 L2102.5391,1501.6016 L2103.75,1501.6016 L2108.75,1501.6016 L2108.75,1486.6016 L2103.75,1486.6016 L2102.5391,1486.6016 L2101.25,1485.0391 L2101.25,1484.1016 L2101.25,1483.1641 L2102.5391,1481.6016 L2103.75,1481.6016 L2118.75,1481.6016 L2119.9609,1481.6016 L2121.25,1483.1641 L2121.25,1484.1016 L2121.25,1485.0391 L2119.9609,1486.6016 L2118.75,1486.6016 L2113.75,1486.6016 Z "/><ellipse cx="2158.75" cy="1492.8516" fill="#84BE84" rx="7.5" ry="7.5" style="stroke: #038048; stroke-width: 2.5;"/><text fill="#000000" font-family="sans-serif" font-size="30" font-style="italic" lengthAdjust="spacingAndGlyphs" textLength="330" x="2173.75" y="1506.377">PoolLocalServiceServer</text><line style="stroke: #3498DB; stroke-width: 3.75;" x1="2076.25" x2="2508.75" y1="1534.1016" y2="1534.1016"/><line style="stroke: #3498DB; stroke-width: 3.75;" x1="2076.25" x2="2508.75" y1="1554.1016" y2="1554.1016"/><!--MD5=[c41ac517bfbb6eda8bbb3f1519f4d0c4]
class KeypleClientReaderEventFilter--><rect fill="#FEFECE" height="223.7695" id="KeypleClientReaderEventFilter" style="stroke: #D4AC0D; stroke-width: 3.75;" width="700" x="817.5" y="669.1016"/><ellipse cx="931.875" cy="709.1016" fill="#B4A7E5" rx="27.5" ry="27.5" style="stroke: #B4A7E5; stroke-width: 2.5;"/><path d="M934.375,701.6016 L934.375,716.6016 L939.375,716.6016 L940.5859,716.6016 L941.875,718.1641 L941.875,719.1016 L941.875,720.0391 L940.5859,721.6016 L939.375,721.6016 L924.375,721.6016 L923.1641,721.6016 L921.875,720.0391 L921.875,719.1016 L921.875,718.1641 L923.1641,716.6016 L924.375,716.6016 L929.375,716.6016 L929.375,701.6016 L924.375,701.6016 L923.1641,701.6016 L921.875,700.0391 L921.875,699.1016 L921.875,698.1641 L923.1641,696.6016 L924.375,696.6016 L939.375,696.6016 L940.5859,696.6016 L941.875,698.1641 L941.875,699.1016 L941.875,700.0391 L940.5859,701.6016 L939.375,701.6016 L934.375,701.6016 Z "/><ellipse cx="995.625" cy="707.8516" fill="#84BE84" rx="7.5" ry="7.5" style="stroke: #038048; stroke-width: 2.5;"/><text fill="#000000" font-family="sans-serif" font-size="30" font-style="italic" lengthAdjust="spacingAndGlyphs" textLength="422.5" x="1010.625" y="721.377">KeypleClientReaderEventFilter</text><line style="stroke: #D4AC0D; stroke-width: 3.75;" x1="820" x2="1515" y1="749.1016" y2="749.1016"/><line style="stroke: #D4AC0D; stroke-width: 3.75;" x1="820" x2="1515" y1="769.1016" y2="769.1016"/><ellipse cx="845" cy="796.6016" fill="#84BE84" rx="7.5" ry="7.5" style="stroke: #038048; stroke-width: 2.5;"/><text fill="#000000" font-family="sans-serif" font-size="27.5" lengthAdjust="spacingAndGlyphs" textLength="565" x="867.5" y="807.6489">Object beforePropagation (ReaderEvent event)</text><ellipse cx="845" cy="831.1914" fill="#84BE84" rx="7.5" ry="7.5" style="stroke: #038048; stroke-width: 2.5;"/><text fill="#000000" font-family="sans-serif" font-size="27.5" lengthAdjust="spacingAndGlyphs" textLength="635" x="867.5" y="842.2388">Class&lt;? extends Object&gt; getUserOutputDataClass ()</text><ellipse cx="845" cy="865.7813" fill="#84BE84" rx="7.5" ry="7.5" style="stroke: #038048; stroke-width: 2.5;"/><text fill="#000000" font-family="sans-serif" font-size="27.5" lengthAdjust="spacingAndGlyphs" textLength="560" x="867.5" y="876.8286">void afterPropagation (Object userOutputData)</text><!--MD5=[25518a18722c0a0b903724e28824eebd]
class LocalServiceClientUtils--><rect fill="#E9F7EF" height="243.7695" id="LocalServiceClientUtils" style="stroke: #27AE60; stroke-width: 3.75;" width="570" x="220" y="1834.1016"/><ellipse cx="322.75" cy="1874.1016" fill="#ADD1B2" rx="27.5" ry="27.5" style="stroke: #ADD1B2; stroke-width: 2.5;"/><path d="M327.75,1865.3516 Q328.2578,1864.1016 328.8438,1863.4766 Q329.4297,1862.8516 330.0938,1862.8516 Q331.2656,1862.8516 332.0078,1863.5547 Q332.75,1864.2578 332.75,1865.8984 L332.75,1869.8047 Q332.75,1871.4453 332.0469,1872.1484 Q331.3438,1872.8516 330.25,1872.8516 Q329.2734,1872.8516 328.6484,1872.4219 Q328.0234,1871.9922 327.75,1870.8594 Q327.6328,1870.0781 327.2031,1869.6484 Q326.4219,1868.8281 325.0156,1868.3594 Q323.6094,1867.8516 322.2031,1867.8516 Q320.4453,1867.8516 318.9609,1868.5547 Q317.5156,1869.2578 316.3828,1870.8203 Q315.25,1872.3828 315.25,1874.5313 L315.25,1876.8359 Q315.25,1879.4141 317.3594,1881.1328 Q319.4688,1882.8516 323.2188,1882.8516 Q325.4453,1882.8516 327.0078,1882.3438 Q327.9063,1882.0703 328.9219,1881.1719 Q329.5859,1880.6641 329.9375,1880.5078 Q330.2891,1880.3516 330.7188,1880.3516 Q331.5391,1880.3516 332.125,1881.0156 Q332.75,1881.6406 332.75,1882.5391 Q332.75,1883.3984 331.8906,1884.4141 Q330.6406,1885.8984 328.6484,1886.7188 Q326.0313,1887.8516 322.8281,1887.8516 Q319.0781,1887.8516 316.0703,1886.3672 Q313.6484,1885.1953 311.9297,1882.6563 Q310.25,1880.1172 310.25,1877.1094 L310.25,1874.375 Q310.25,1871.25 311.7344,1868.5156 Q313.2578,1865.7813 315.875,1864.3359 Q318.5313,1862.8516 321.5,1862.8516 Q323.2969,1862.8516 324.8594,1863.4766 Q326.4219,1864.1016 327.75,1865.3516 Z "/><ellipse cx="384.75" cy="1872.8516" fill="#84BE84" rx="7.5" ry="7.5" style="stroke: #038048; stroke-width: 2.5;"/><text fill="#000000" font-family="sans-serif" font-size="30" font-style="italic" lengthAdjust="spacingAndGlyphs" textLength="317.5" x="399.75" y="1886.377">LocalServiceClientUtils</text><line style="stroke: #27AE60; stroke-width: 3.75;" x1="222.5" x2="787.5" y1="1914.1016" y2="1914.1016"/><line style="stroke: #27AE60; stroke-width: 2.5;" x1="222.5" x2="787.5" y1="1934.1016" y2="1934.1016"/><ellipse cx="247.5" cy="1961.6016" fill="#84BE84" rx="7.5" ry="7.5" style="stroke: #038048; stroke-width: 2.5;"/><text fill="#000000" font-family="sans-serif" font-size="27.5" lengthAdjust="spacingAndGlyphs" text-decoration="underline" textLength="467.5" x="270" y="1972.6489">LocalServiceClient getAsyncService ()</text><ellipse cx="247.5" cy="1996.1914" fill="#84BE84" rx="7.5" ry="7.5" style="stroke: #038048; stroke-width: 2.5;"/><text fill="#000000" font-family="sans-serif" font-size="27.5" lengthAdjust="spacingAndGlyphs" text-decoration="underline" textLength="505" x="270" y="2007.2388">KeypleClientAsyncNode getAsyncNode ()</text><line style="stroke: #27AE60; stroke-width: 2.5; stroke-dasharray: 1.0,2.0;" x1="222.5" x2="787.5" y1="2023.2813" y2="2023.2813"/><ellipse cx="247.5" cy="2050.7813" fill="#84BE84" rx="7.5" ry="7.5" style="stroke: #038048; stroke-width: 2.5;"/><text fill="#000000" font-family="sans-serif" font-size="27.5" lengthAdjust="spacingAndGlyphs" text-decoration="underline" textLength="450" x="270" y="2061.8286">LocalServiceClient getSyncService ()</text><!--MD5=[7a039c4c5197d2ef51ce0e8774c7c48e]
class LocalServiceServerUtils--><rect fill="#F4ECF7" height="209.1797" id="LocalServiceServerUtils" style="stroke: #8E44AD; stroke-width: 3.75;" width="587.5" x="1223.75" y="1851.6016"/><ellipse cx="1329.875" cy="1891.6016" fill="#ADD1B2" rx="27.5" ry="27.5" style="stroke: #ADD1B2; stroke-width: 2.5;"/><path d="M1334.875,1882.8516 Q1335.3828,1881.6016 1335.9688,1880.9766 Q1336.5547,1880.3516 1337.2188,1880.3516 Q1338.3906,1880.3516 1339.1328,1881.0547 Q1339.875,1881.7578 1339.875,1883.3984 L1339.875,1887.3047 Q1339.875,1888.9453 1339.1719,1889.6484 Q1338.4688,1890.3516 1337.375,1890.3516 Q1336.3984,1890.3516 1335.7734,1889.9219 Q1335.1484,1889.4922 1334.875,1888.3594 Q1334.7578,1887.5781 1334.3281,1887.1484 Q1333.5469,1886.3281 1332.1406,1885.8594 Q1330.7344,1885.3516 1329.3281,1885.3516 Q1327.5703,1885.3516 1326.0859,1886.0547 Q1324.6406,1886.7578 1323.5078,1888.3203 Q1322.375,1889.8828 1322.375,1892.0313 L1322.375,1894.3359 Q1322.375,1896.9141 1324.4844,1898.6328 Q1326.5938,1900.3516 1330.3438,1900.3516 Q1332.5703,1900.3516 1334.1328,1899.8438 Q1335.0313,1899.5703 1336.0469,1898.6719 Q1336.7109,1898.1641 1337.0625,1898.0078 Q1337.4141,1897.8516 1337.8438,1897.8516 Q1338.6641,1897.8516 1339.25,1898.5156 Q1339.875,1899.1406 1339.875,1900.0391 Q1339.875,1900.8984 1339.0156,1901.9141 Q1337.7656,1903.3984 1335.7734,1904.2188 Q1333.1563,1905.3516 1329.9531,1905.3516 Q1326.2031,1905.3516 1323.1953,1903.8672 Q1320.7734,1902.6953 1319.0547,1900.1563 Q1317.375,1897.6172 1317.375,1894.6094 L1317.375,1891.875 Q1317.375,1888.75 1318.8594,1886.0156 Q1320.3828,1883.2813 1323,1881.8359 Q1325.6563,1880.3516 1328.625,1880.3516 Q1330.4219,1880.3516 1331.9844,1880.9766 Q1333.5469,1881.6016 1334.875,1882.8516 Z "/><ellipse cx="1392.625" cy="1890.3516" fill="#84BE84" rx="7.5" ry="7.5" style="stroke: #038048; stroke-width: 2.5;"/><text fill="#000000" font-family="sans-serif" font-size="30" font-style="italic" lengthAdjust="spacingAndGlyphs" textLength="327.5" x="1407.625" y="1903.877">LocalServiceServerUtils</text><line style="stroke: #8E44AD; stroke-width: 3.75;" x1="1226.25" x2="1808.75" y1="1931.6016" y2="1931.6016"/><line style="stroke: #8E44AD; stroke-width: 2.5;" x1="1226.25" x2="1808.75" y1="1951.6016" y2="1951.6016"/><ellipse cx="1251.25" cy="1979.1016" fill="#84BE84" rx="7.5" ry="7.5" style="stroke: #038048; stroke-width: 2.5;"/><text fill="#000000" font-family="sans-serif" font-size="27.5" lengthAdjust="spacingAndGlyphs" text-decoration="underline" textLength="522.5" x="1273.75" y="1990.1489">KeypleServerAsyncNode getAsyncNode ()</text><line style="stroke: #8E44AD; stroke-width: 2.5; stroke-dasharray: 1.0,2.0;" x1="1226.25" x2="1808.75" y1="2006.1914" y2="2006.1914"/><ellipse cx="1251.25" cy="2033.6914" fill="#84BE84" rx="7.5" ry="7.5" style="stroke: #038048; stroke-width: 2.5;"/><text fill="#000000" font-family="sans-serif" font-size="27.5" lengthAdjust="spacingAndGlyphs" text-decoration="underline" textLength="487.5" x="1273.75" y="2044.7388">KeypleServerSyncNode getSyncNode ()</text><!--MD5=[9197a84ce09e6bec8a3d3acca1cdfb58]
class PoolLocalServiceServerUtils--><rect fill="#EBF5FB" height="209.1797" id="PoolLocalServiceServerUtils" style="stroke: #3498DB; stroke-width: 3.75;" width="587.5" x="1998.75" y="1851.6016"/><ellipse cx="2076.75" cy="1891.6016" fill="#ADD1B2" rx="27.5" ry="27.5" style="stroke: #ADD1B2; stroke-width: 2.5;"/><path d="M2081.75,1882.8516 Q2082.2578,1881.6016 2082.8438,1880.9766 Q2083.4297,1880.3516 2084.0938,1880.3516 Q2085.2656,1880.3516 2086.0078,1881.0547 Q2086.75,1881.7578 2086.75,1883.3984 L2086.75,1887.3047 Q2086.75,1888.9453 2086.0469,1889.6484 Q2085.3438,1890.3516 2084.25,1890.3516 Q2083.2734,1890.3516 2082.6484,1889.9219 Q2082.0234,1889.4922 2081.75,1888.3594 Q2081.6328,1887.5781 2081.2031,1887.1484 Q2080.4219,1886.3281 2079.0156,1885.8594 Q2077.6094,1885.3516 2076.2031,1885.3516 Q2074.4453,1885.3516 2072.9609,1886.0547 Q2071.5156,1886.7578 2070.3828,1888.3203 Q2069.25,1889.8828 2069.25,1892.0313 L2069.25,1894.3359 Q2069.25,1896.9141 2071.3594,1898.6328 Q2073.4688,1900.3516 2077.2188,1900.3516 Q2079.4453,1900.3516 2081.0078,1899.8438 Q2081.9063,1899.5703 2082.9219,1898.6719 Q2083.5859,1898.1641 2083.9375,1898.0078 Q2084.2891,1897.8516 2084.7188,1897.8516 Q2085.5391,1897.8516 2086.125,1898.5156 Q2086.75,1899.1406 2086.75,1900.0391 Q2086.75,1900.8984 2085.8906,1901.9141 Q2084.6406,1903.3984 2082.6484,1904.2188 Q2080.0313,1905.3516 2076.8281,1905.3516 Q2073.0781,1905.3516 2070.0703,1903.8672 Q2067.6484,1902.6953 2065.9297,1900.1563 Q2064.25,1897.6172 2064.25,1894.6094 L2064.25,1891.875 Q2064.25,1888.75 2065.7344,1886.0156 Q2067.2578,1883.2813 2069.875,1881.8359 Q2072.5313,1880.3516 2075.5,1880.3516 Q2077.2969,1880.3516 2078.8594,1880.9766 Q2080.4219,1881.6016 2081.75,1882.8516 Z "/><ellipse cx="2133.25" cy="1890.3516" fill="#84BE84" rx="7.5" ry="7.5" style="stroke: #038048; stroke-width: 2.5;"/><text fill="#000000" font-family="sans-serif" font-size="30" font-style="italic" lengthAdjust="spacingAndGlyphs" textLength="390" x="2148.25" y="1903.877">PoolLocalServiceServerUtils</text><line style="stroke: #3498DB; stroke-width: 3.75;" x1="2001.25" x2="2583.75" y1="1931.6016" y2="1931.6016"/><line style="stroke: #3498DB; stroke-width: 2.5;" x1="2001.25" x2="2583.75" y1="1951.6016" y2="1951.6016"/><ellipse cx="2026.25" cy="1979.1016" fill="#84BE84" rx="7.5" ry="7.5" style="stroke: #038048; stroke-width: 2.5;"/><text fill="#000000" font-family="sans-serif" font-size="27.5" lengthAdjust="spacingAndGlyphs" text-decoration="underline" textLength="522.5" x="2048.75" y="1990.1489">KeypleServerAsyncNode getAsyncNode ()</text><line style="stroke: #3498DB; stroke-width: 2.5; stroke-dasharray: 1.0,2.0;" x1="2001.25" x2="2583.75" y1="2006.1914" y2="2006.1914"/><ellipse cx="2026.25" cy="2033.6914" fill="#84BE84" rx="7.5" ry="7.5" style="stroke: #038048; stroke-width: 2.5;"/><text fill="#000000" font-family="sans-serif" font-size="27.5" lengthAdjust="spacingAndGlyphs" text-decoration="underline" textLength="487.5" x="2048.75" y="2044.7388">KeypleServerSyncNode getSyncNode ()</text><!--MD5=[036a0aa259ccc1197747131a6a90e800]
class LocalServiceClientFactory--><rect fill="#E9F7EF" height="154.5898" id="LocalServiceClientFactory" style="stroke: #27AE60; stroke-width: 3.75;" width="465" x="285" y="2231.6016"/><ellipse cx="322.5" cy="2271.6016" fill="#ADD1B2" rx="27.5" ry="27.5" style="stroke: #ADD1B2; stroke-width: 2.5;"/><path d="M327.5,2262.8516 Q328.0078,2261.6016 328.5938,2260.9766 Q329.1797,2260.3516 329.8438,2260.3516 Q331.0156,2260.3516 331.7578,2261.0547 Q332.5,2261.7578 332.5,2263.3984 L332.5,2267.3047 Q332.5,2268.9453 331.7969,2269.6484 Q331.0938,2270.3516 330,2270.3516 Q329.0234,2270.3516 328.3984,2269.9219 Q327.7734,2269.4922 327.5,2268.3594 Q327.3828,2267.5781 326.9531,2267.1484 Q326.1719,2266.3281 324.7656,2265.8594 Q323.3594,2265.3516 321.9531,2265.3516 Q320.1953,2265.3516 318.7109,2266.0547 Q317.2656,2266.7578 316.1328,2268.3203 Q315,2269.8828 315,2272.0313 L315,2274.3359 Q315,2276.9141 317.1094,2278.6328 Q319.2188,2280.3516 322.9688,2280.3516 Q325.1953,2280.3516 326.7578,2279.8438 Q327.6563,2279.5703 328.6719,2278.6719 Q329.3359,2278.1641 329.6875,2278.0078 Q330.0391,2277.8516 330.4688,2277.8516 Q331.2891,2277.8516 331.875,2278.5156 Q332.5,2279.1406 332.5,2280.0391 Q332.5,2280.8984 331.6406,2281.9141 Q330.3906,2283.3984 328.3984,2284.2188 Q325.7813,2285.3516 322.5781,2285.3516 Q318.8281,2285.3516 315.8203,2283.8672 Q313.3984,2282.6953 311.6797,2280.1563 Q310,2277.6172 310,2274.6094 L310,2271.875 Q310,2268.75 311.4844,2266.0156 Q313.0078,2263.2813 315.625,2261.8359 Q318.2813,2260.3516 321.25,2260.3516 Q323.0469,2260.3516 324.6094,2260.9766 Q326.1719,2261.6016 327.5,2262.8516 Z "/><ellipse cx="370" cy="2270.3516" fill="#84BE84" rx="7.5" ry="7.5" style="stroke: #038048; stroke-width: 2.5;"/><text fill="#000000" font-family="sans-serif" font-size="30" font-style="italic" lengthAdjust="spacingAndGlyphs" textLength="357.5" x="385" y="2283.877">LocalServiceClientFactory</text><line style="stroke: #27AE60; stroke-width: 3.75;" x1="287.5" x2="747.5" y1="2311.6016" y2="2311.6016"/><line style="stroke: #27AE60; stroke-width: 3.75;" x1="287.5" x2="747.5" y1="2331.6016" y2="2331.6016"/><ellipse cx="312.5" cy="2359.1016" fill="#84BE84" rx="7.5" ry="7.5" style="stroke: #038048; stroke-width: 2.5;"/><text fill="#000000" font-family="sans-serif" font-size="27.5" lengthAdjust="spacingAndGlyphs" text-decoration="underline" textLength="232.5" x="335" y="2370.1489">NodeStep builder ()</text><!--MD5=[fca05c5e823d186a63ae40dce67a8e2c]
class LocalServiceClientFactoryNodeStep--><rect fill="#E9F7EF" height="189.1797" id="LocalServiceClientFactoryNodeStep" style="stroke: #27AE60; stroke-width: 3.75;" width="780" x="155" y="2539.1016"/><ellipse cx="451.875" cy="2579.1016" fill="#B4A7E5" rx="27.5" ry="27.5" style="stroke: #B4A7E5; stroke-width: 2.5;"/><path d="M454.375,2571.6016 L454.375,2586.6016 L459.375,2586.6016 L460.5859,2586.6016 L461.875,2588.1641 L461.875,2589.1016 L461.875,2590.0391 L460.5859,2591.6016 L459.375,2591.6016 L444.375,2591.6016 L443.1641,2591.6016 L441.875,2590.0391 L441.875,2589.1016 L441.875,2588.1641 L443.1641,2586.6016 L444.375,2586.6016 L449.375,2586.6016 L449.375,2571.6016 L444.375,2571.6016 L443.1641,2571.6016 L441.875,2570.0391 L441.875,2569.1016 L441.875,2568.1641 L443.1641,2566.6016 L444.375,2566.6016 L459.375,2566.6016 L460.5859,2566.6016 L461.875,2568.1641 L461.875,2569.1016 L461.875,2570.0391 L460.5859,2571.6016 L459.375,2571.6016 L454.375,2571.6016 Z "/><ellipse cx="515.625" cy="2577.8516" fill="#84BE84" rx="7.5" ry="7.5" style="stroke: #038048; stroke-width: 2.5;"/><text fill="#000000" font-family="sans-serif" font-size="30" font-style="italic" lengthAdjust="spacingAndGlyphs" textLength="137.5" x="530.625" y="2591.377">NodeStep</text><line style="stroke: #27AE60; stroke-width: 3.75;" x1="157.5" x2="932.5" y1="2619.1016" y2="2619.1016"/><line style="stroke: #27AE60; stroke-width: 3.75;" x1="157.5" x2="932.5" y1="2639.1016" y2="2639.1016"/><ellipse cx="182.5" cy="2666.6016" fill="#84BE84" rx="7.5" ry="7.5" style="stroke: #038048; stroke-width: 2.5;"/><text fill="#000000" font-family="sans-serif" font-size="27.5" lengthAdjust="spacingAndGlyphs" textLength="715" x="205" y="2677.6489">TimeoutStep withAsyncNode (KeypleClientAsync endpoint)</text><ellipse cx="182.5" cy="2701.1914" fill="#84BE84" rx="7.5" ry="7.5" style="stroke: #038048; stroke-width: 2.5;"/><text fill="#000000" font-family="sans-serif" font-size="27.5" lengthAdjust="spacingAndGlyphs" textLength="675" x="205" y="2712.2388">ReaderStep withSyncNode (KeypleClientSync endpoint)</text><!--MD5=[1a4a2291605e7983848729cbe3290ef1]
class LocalServiceClientFactoryTimeoutStep--><rect fill="#E9F7EF" height="189.1797" id="LocalServiceClientFactoryTimeoutStep" style="stroke: #27AE60; stroke-width: 3.75;" width="737.5" x="161.25" y="2881.6016"/><ellipse cx="418.125" cy="2921.6016" fill="#B4A7E5" rx="27.5" ry="27.5" style="stroke: #B4A7E5; stroke-width: 2.5;"/><path d="M420.625,2914.1016 L420.625,2929.1016 L425.625,2929.1016 L426.8359,2929.1016 L428.125,2930.6641 L428.125,2931.6016 L428.125,2932.5391 L426.8359,2934.1016 L425.625,2934.1016 L410.625,2934.1016 L409.4141,2934.1016 L408.125,2932.5391 L408.125,2931.6016 L408.125,2930.6641 L409.4141,2929.1016 L410.625,2929.1016 L415.625,2929.1016 L415.625,2914.1016 L410.625,2914.1016 L409.4141,2914.1016 L408.125,2912.5391 L408.125,2911.6016 L408.125,2910.6641 L409.4141,2909.1016 L410.625,2909.1016 L425.625,2909.1016 L426.8359,2909.1016 L428.125,2910.6641 L428.125,2911.6016 L428.125,2912.5391 L426.8359,2914.1016 L425.625,2914.1016 L420.625,2914.1016 Z "/><ellipse cx="481.875" cy="2920.3516" fill="#84BE84" rx="7.5" ry="7.5" style="stroke: #038048; stroke-width: 2.5;"/><text fill="#000000" font-family="sans-serif" font-size="30" font-style="italic" lengthAdjust="spacingAndGlyphs" textLength="175" x="496.875" y="2933.877">TimeoutStep</text><line style="stroke: #27AE60; stroke-width: 3.75;" x1="163.75" x2="896.25" y1="2961.6016" y2="2961.6016"/><line style="stroke: #27AE60; stroke-width: 3.75;" x1="163.75" x2="896.25" y1="2981.6016" y2="2981.6016"/><ellipse cx="188.75" cy="3009.1016" fill="#84BE84" rx="7.5" ry="7.5" style="stroke: #038048; stroke-width: 2.5;"/><text fill="#000000" font-family="sans-serif" font-size="27.5" lengthAdjust="spacingAndGlyphs" textLength="420" x="211.25" y="3020.1489">ReaderStep usingDefaultTimeout ()</text><ellipse cx="188.75" cy="3043.6914" fill="#84BE84" rx="7.5" ry="7.5" style="stroke: #038048; stroke-width: 2.5;"/><text fill="#000000" font-family="sans-serif" font-size="27.5" lengthAdjust="spacingAndGlyphs" textLength="672.5" x="211.25" y="3054.7388">ReaderStep usingCustomTimeout (int timeoutInSeconds)</text><!--MD5=[78497adf350874ce9d2be3f146d77535]
class LocalServiceClientFactoryReaderStep--><rect fill="#E9F7EF" height="189.1797" id="LocalServiceClientFactoryReaderStep" style="stroke: #27AE60; stroke-width: 3.75;" width="945" x="335" y="3224.1016"/><ellipse cx="700.625" cy="3264.1016" fill="#B4A7E5" rx="27.5" ry="27.5" style="stroke: #B4A7E5; stroke-width: 2.5;"/><path d="M703.125,3256.6016 L703.125,3271.6016 L708.125,3271.6016 L709.3359,3271.6016 L710.625,3273.1641 L710.625,3274.1016 L710.625,3275.0391 L709.3359,3276.6016 L708.125,3276.6016 L693.125,3276.6016 L691.9141,3276.6016 L690.625,3275.0391 L690.625,3274.1016 L690.625,3273.1641 L691.9141,3271.6016 L693.125,3271.6016 L698.125,3271.6016 L698.125,3256.6016 L693.125,3256.6016 L691.9141,3256.6016 L690.625,3255.0391 L690.625,3254.1016 L690.625,3253.1641 L691.9141,3251.6016 L693.125,3251.6016 L708.125,3251.6016 L709.3359,3251.6016 L710.625,3253.1641 L710.625,3254.1016 L710.625,3255.0391 L709.3359,3256.6016 L708.125,3256.6016 L703.125,3256.6016 Z "/><ellipse cx="764.375" cy="3262.8516" fill="#84BE84" rx="7.5" ry="7.5" style="stroke: #038048; stroke-width: 2.5;"/><text fill="#000000" font-family="sans-serif" font-size="30" font-style="italic" lengthAdjust="spacingAndGlyphs" textLength="165" x="779.375" y="3276.377">ReaderStep</text><line style="stroke: #27AE60; stroke-width: 3.75;" x1="337.5" x2="1277.5" y1="3304.1016" y2="3304.1016"/><line style="stroke: #27AE60; stroke-width: 3.75;" x1="337.5" x2="1277.5" y1="3324.1016" y2="3324.1016"/><ellipse cx="362.5" cy="3351.6016" fill="#84BE84" rx="7.5" ry="7.5" style="stroke: #038048; stroke-width: 2.5;"/><text fill="#000000" font-family="sans-serif" font-size="27.5" lengthAdjust="spacingAndGlyphs" textLength="880" x="385" y="3362.6489">BuilderStep withReaderObservation (KeypleClientReaderEventFilter filter)</text><ellipse cx="362.5" cy="3386.1914" fill="#84BE84" rx="7.5" ry="7.5" style="stroke: #038048; stroke-width: 2.5;"/><text fill="#000000" font-family="sans-serif" font-size="27.5" lengthAdjust="spacingAndGlyphs" textLength="497.5" x="385" y="3397.2388">BuilderStep withoutReaderObservation ()</text><!--MD5=[5b2c542e0dbcba69b09e7b8ad787363b]
class LocalServiceClientFactoryBuilderStep--><rect fill="#E9F7EF" height="154.5898" id="LocalServiceClientFactoryBuilderStep" style="stroke: #27AE60; stroke-width: 3.75;" width="452.5" x="581.25" y="3566.6016"/><ellipse cx="703.125" cy="3606.6016" fill="#B4A7E5" rx="27.5" ry="27.5" style="stroke: #B4A7E5; stroke-width: 2.5;"/><path d="M705.625,3599.1016 L705.625,3614.1016 L710.625,3614.1016 L711.8359,3614.1016 L713.125,3615.6641 L713.125,3616.6016 L713.125,3617.5391 L711.8359,3619.1016 L710.625,3619.1016 L695.625,3619.1016 L694.4141,3619.1016 L693.125,3617.5391 L693.125,3616.6016 L693.125,3615.6641 L694.4141,3614.1016 L695.625,3614.1016 L700.625,3614.1016 L700.625,3599.1016 L695.625,3599.1016 L694.4141,3599.1016 L693.125,3597.5391 L693.125,3596.6016 L693.125,3595.6641 L694.4141,3594.1016 L695.625,3594.1016 L710.625,3594.1016 L711.8359,3594.1016 L713.125,3595.6641 L713.125,3596.6016 L713.125,3597.5391 L711.8359,3599.1016 L710.625,3599.1016 L705.625,3599.1016 Z "/><ellipse cx="766.875" cy="3605.3516" fill="#84BE84" rx="7.5" ry="7.5" style="stroke: #038048; stroke-width: 2.5;"/><text fill="#000000" font-family="sans-serif" font-size="30" font-style="italic" lengthAdjust="spacingAndGlyphs" textLength="160" x="781.875" y="3618.877">BuilderStep</text><line style="stroke: #27AE60; stroke-width: 3.75;" x1="583.75" x2="1031.25" y1="3646.6016" y2="3646.6016"/><line style="stroke: #27AE60; stroke-width: 3.75;" x1="583.75" x2="1031.25" y1="3666.6016" y2="3666.6016"/><ellipse cx="608.75" cy="3694.1016" fill="#84BE84" rx="7.5" ry="7.5" style="stroke: #038048; stroke-width: 2.5;"/><text fill="#000000" font-family="sans-serif" font-size="27.5" lengthAdjust="spacingAndGlyphs" textLength="387.5" x="631.25" y="3705.1489">LocalServiceClient getService ()</text><!--MD5=[840028d9c0a4586bfa073ca5e4418222]
class LocalServiceServerFactory--><rect fill="#F4ECF7" height="154.5898" id="LocalServiceServerFactory" style="stroke: #8E44AD; stroke-width: 3.75;" width="475" x="1217.5" y="2231.6016"/><ellipse cx="1255" cy="2271.6016" fill="#ADD1B2" rx="27.5" ry="27.5" style="stroke: #ADD1B2; stroke-width: 2.5;"/><path d="M1260,2262.8516 Q1260.5078,2261.6016 1261.0938,2260.9766 Q1261.6797,2260.3516 1262.3438,2260.3516 Q1263.5156,2260.3516 1264.2578,2261.0547 Q1265,2261.7578 1265,2263.3984 L1265,2267.3047 Q1265,2268.9453 1264.2969,2269.6484 Q1263.5938,2270.3516 1262.5,2270.3516 Q1261.5234,2270.3516 1260.8984,2269.9219 Q1260.2734,2269.4922 1260,2268.3594 Q1259.8828,2267.5781 1259.4531,2267.1484 Q1258.6719,2266.3281 1257.2656,2265.8594 Q1255.8594,2265.3516 1254.4531,2265.3516 Q1252.6953,2265.3516 1251.2109,2266.0547 Q1249.7656,2266.7578 1248.6328,2268.3203 Q1247.5,2269.8828 1247.5,2272.0313 L1247.5,2274.3359 Q1247.5,2276.9141 1249.6094,2278.6328 Q1251.7188,2280.3516 1255.4688,2280.3516 Q1257.6953,2280.3516 1259.2578,2279.8438 Q1260.1563,2279.5703 1261.1719,2278.6719 Q1261.8359,2278.1641 1262.1875,2278.0078 Q1262.5391,2277.8516 1262.9688,2277.8516 Q1263.7891,2277.8516 1264.375,2278.5156 Q1265,2279.1406 1265,2280.0391 Q1265,2280.8984 1264.1406,2281.9141 Q1262.8906,2283.3984 1260.8984,2284.2188 Q1258.2813,2285.3516 1255.0781,2285.3516 Q1251.3281,2285.3516 1248.3203,2283.8672 Q1245.8984,2282.6953 1244.1797,2280.1563 Q1242.5,2277.6172 1242.5,2274.6094 L1242.5,2271.875 Q1242.5,2268.75 1243.9844,2266.0156 Q1245.5078,2263.2813 1248.125,2261.8359 Q1250.7813,2260.3516 1253.75,2260.3516 Q1255.5469,2260.3516 1257.1094,2260.9766 Q1258.6719,2261.6016 1260,2262.8516 Z "/><ellipse cx="1302.5" cy="2270.3516" fill="#84BE84" rx="7.5" ry="7.5" style="stroke: #038048; stroke-width: 2.5;"/><text fill="#000000" font-family="sans-serif" font-size="30" font-style="italic" lengthAdjust="spacingAndGlyphs" textLength="367.5" x="1317.5" y="2283.877">LocalServiceServerFactory</text><line style="stroke: #8E44AD; stroke-width: 3.75;" x1="1220" x2="1690" y1="2311.6016" y2="2311.6016"/><line style="stroke: #8E44AD; stroke-width: 3.75;" x1="1220" x2="1690" y1="2331.6016" y2="2331.6016"/><ellipse cx="1245" cy="2359.1016" fill="#84BE84" rx="7.5" ry="7.5" style="stroke: #038048; stroke-width: 2.5;"/><text fill="#000000" font-family="sans-serif" font-size="27.5" lengthAdjust="spacingAndGlyphs" text-decoration="underline" textLength="232.5" x="1267.5" y="2370.1489">NodeStep builder ()</text><!--MD5=[27a12c03f9620a97e76e302bd37814cc]
class LocalServiceServerFactoryNodeStep--><rect fill="#F4ECF7" height="189.1797" id="LocalServiceServerFactoryNodeStep" style="stroke: #8E44AD; stroke-width: 3.75;" width="787.5" x="1023.75" y="2539.1016"/><ellipse cx="1324.375" cy="2579.1016" fill="#B4A7E5" rx="27.5" ry="27.5" style="stroke: #B4A7E5; stroke-width: 2.5;"/><path d="M1326.875,2571.6016 L1326.875,2586.6016 L1331.875,2586.6016 L1333.0859,2586.6016 L1334.375,2588.1641 L1334.375,2589.1016 L1334.375,2590.0391 L1333.0859,2591.6016 L1331.875,2591.6016 L1316.875,2591.6016 L1315.6641,2591.6016 L1314.375,2590.0391 L1314.375,2589.1016 L1314.375,2588.1641 L1315.6641,2586.6016 L1316.875,2586.6016 L1321.875,2586.6016 L1321.875,2571.6016 L1316.875,2571.6016 L1315.6641,2571.6016 L1314.375,2570.0391 L1314.375,2569.1016 L1314.375,2568.1641 L1315.6641,2566.6016 L1316.875,2566.6016 L1331.875,2566.6016 L1333.0859,2566.6016 L1334.375,2568.1641 L1334.375,2569.1016 L1334.375,2570.0391 L1333.0859,2571.6016 L1331.875,2571.6016 L1326.875,2571.6016 Z "/><ellipse cx="1388.125" cy="2577.8516" fill="#84BE84" rx="7.5" ry="7.5" style="stroke: #038048; stroke-width: 2.5;"/><text fill="#000000" font-family="sans-serif" font-size="30" font-style="italic" lengthAdjust="spacingAndGlyphs" textLength="137.5" x="1403.125" y="2591.377">NodeStep</text><line style="stroke: #8E44AD; stroke-width: 3.75;" x1="1026.25" x2="1808.75" y1="2619.1016" y2="2619.1016"/><line style="stroke: #8E44AD; stroke-width: 3.75;" x1="1026.25" x2="1808.75" y1="2639.1016" y2="2639.1016"/><ellipse cx="1051.25" cy="2666.6016" fill="#84BE84" rx="7.5" ry="7.5" style="stroke: #038048; stroke-width: 2.5;"/><text fill="#000000" font-family="sans-serif" font-size="27.5" lengthAdjust="spacingAndGlyphs" textLength="722.5" x="1073.75" y="2677.6489">BuilderStep withAsyncNode (KeypleServerAsync endpoint)</text><ellipse cx="1051.25" cy="2701.1914" fill="#84BE84" rx="7.5" ry="7.5" style="stroke: #038048; stroke-width: 2.5;"/><text fill="#000000" font-family="sans-serif" font-size="27.5" lengthAdjust="spacingAndGlyphs" textLength="350" x="1073.75" y="2712.2388">BuilderStep withSyncNode ()</text><!--MD5=[ad11ceb944313691c530a2f0bc495c08]
class LocalServiceServerFactoryBuilderStep--><rect fill="#F4ECF7" height="154.5898" id="LocalServiceServerFactoryBuilderStep" style="stroke: #8E44AD; stroke-width: 3.75;" width="470" x="1182.5" y="2899.1016"/><ellipse cx="1313.125" cy="2939.1016" fill="#B4A7E5" rx="27.5" ry="27.5" style="stroke: #B4A7E5; stroke-width: 2.5;"/><path d="M1315.625,2931.6016 L1315.625,2946.6016 L1320.625,2946.6016 L1321.8359,2946.6016 L1323.125,2948.1641 L1323.125,2949.1016 L1323.125,2950.0391 L1321.8359,2951.6016 L1320.625,2951.6016 L1305.625,2951.6016 L1304.4141,2951.6016 L1303.125,2950.0391 L1303.125,2949.1016 L1303.125,2948.1641 L1304.4141,2946.6016 L1305.625,2946.6016 L1310.625,2946.6016 L1310.625,2931.6016 L1305.625,2931.6016 L1304.4141,2931.6016 L1303.125,2930.0391 L1303.125,2929.1016 L1303.125,2928.1641 L1304.4141,2926.6016 L1305.625,2926.6016 L1320.625,2926.6016 L1321.8359,2926.6016 L1323.125,2928.1641 L1323.125,2929.1016 L1323.125,2930.0391 L1321.8359,2931.6016 L1320.625,2931.6016 L1315.625,2931.6016 Z "/><ellipse cx="1376.875" cy="2937.8516" fill="#84BE84" rx="7.5" ry="7.5" style="stroke: #038048; stroke-width: 2.5;"/><text fill="#000000" font-family="sans-serif" font-size="30" font-style="italic" lengthAdjust="spacingAndGlyphs" textLength="160" x="1391.875" y="2951.377">BuilderStep</text><line style="stroke: #8E44AD; stroke-width: 3.75;" x1="1185" x2="1650" y1="2979.1016" y2="2979.1016"/><line style="stroke: #8E44AD; stroke-width: 3.75;" x1="1185" x2="1650" y1="2999.1016" y2="2999.1016"/><ellipse cx="1210" cy="3026.6016" fill="#84BE84" rx="7.5" ry="7.5" style="stroke: #038048; stroke-width: 2.5;"/><text fill="#000000" font-family="sans-serif" font-size="27.5" lengthAdjust="spacingAndGlyphs" textLength="405" x="1232.5" y="3037.6489">LocalServiceServer getService ()</text><!--MD5=[5540ddc0118c36524c6686c5790cfed1]
class PoolLocalServiceServerFactory--><rect fill="#EBF5FB" height="154.5898" id="PoolLocalServiceServerFactory" style="stroke: #3498DB; stroke-width: 3.75;" width="537.5" x="2023.75" y="2231.6016"/><ellipse cx="2061.25" cy="2271.6016" fill="#ADD1B2" rx="27.5" ry="27.5" style="stroke: #ADD1B2; stroke-width: 2.5;"/><path d="M2066.25,2262.8516 Q2066.7578,2261.6016 2067.3438,2260.9766 Q2067.9297,2260.3516 2068.5938,2260.3516 Q2069.7656,2260.3516 2070.5078,2261.0547 Q2071.25,2261.7578 2071.25,2263.3984 L2071.25,2267.3047 Q2071.25,2268.9453 2070.5469,2269.6484 Q2069.8438,2270.3516 2068.75,2270.3516 Q2067.7734,2270.3516 2067.1484,2269.9219 Q2066.5234,2269.4922 2066.25,2268.3594 Q2066.1328,2267.5781 2065.7031,2267.1484 Q2064.9219,2266.3281 2063.5156,2265.8594 Q2062.1094,2265.3516 2060.7031,2265.3516 Q2058.9453,2265.3516 2057.4609,2266.0547 Q2056.0156,2266.7578 2054.8828,2268.3203 Q2053.75,2269.8828 2053.75,2272.0313 L2053.75,2274.3359 Q2053.75,2276.9141 2055.8594,2278.6328 Q2057.9688,2280.3516 2061.7188,2280.3516 Q2063.9453,2280.3516 2065.5078,2279.8438 Q2066.4063,2279.5703 2067.4219,2278.6719 Q2068.0859,2278.1641 2068.4375,2278.0078 Q2068.7891,2277.8516 2069.2188,2277.8516 Q2070.0391,2277.8516 2070.625,2278.5156 Q2071.25,2279.1406 2071.25,2280.0391 Q2071.25,2280.8984 2070.3906,2281.9141 Q2069.1406,2283.3984 2067.1484,2284.2188 Q2064.5313,2285.3516 2061.3281,2285.3516 Q2057.5781,2285.3516 2054.5703,2283.8672 Q2052.1484,2282.6953 2050.4297,2280.1563 Q2048.75,2277.6172 2048.75,2274.6094 L2048.75,2271.875 Q2048.75,2268.75 2050.2344,2266.0156 Q2051.7578,2263.2813 2054.375,2261.8359 Q2057.0313,2260.3516 2060,2260.3516 Q2061.7969,2260.3516 2063.3594,2260.9766 Q2064.9219,2261.6016 2066.25,2262.8516 Z "/><ellipse cx="2108.75" cy="2270.3516" fill="#84BE84" rx="7.5" ry="7.5" style="stroke: #038048; stroke-width: 2.5;"/><text fill="#000000" font-family="sans-serif" font-size="30" font-style="italic" lengthAdjust="spacingAndGlyphs" textLength="430" x="2123.75" y="2283.877">PoolLocalServiceServerFactory</text><line style="stroke: #3498DB; stroke-width: 3.75;" x1="2026.25" x2="2558.75" y1="2311.6016" y2="2311.6016"/><line style="stroke: #3498DB; stroke-width: 3.75;" x1="2026.25" x2="2558.75" y1="2331.6016" y2="2331.6016"/><ellipse cx="2051.25" cy="2359.1016" fill="#84BE84" rx="7.5" ry="7.5" style="stroke: #038048; stroke-width: 2.5;"/><text fill="#000000" font-family="sans-serif" font-size="27.5" lengthAdjust="spacingAndGlyphs" text-decoration="underline" textLength="232.5" x="2073.75" y="2370.1489">NodeStep builder ()</text><!--MD5=[094f98d58dd9b5bfcff2d1f026bea490]
class PoolLocalServiceServerFactoryNodeStep--><rect fill="#EBF5FB" height="189.1797" id="PoolLocalServiceServerFactoryNodeStep" style="stroke: #3498DB; stroke-width: 3.75;" width="787.5" x="1898.75" y="2539.1016"/><ellipse cx="2199.375" cy="2579.1016" fill="#B4A7E5" rx="27.5" ry="27.5" style="stroke: #B4A7E5; stroke-width: 2.5;"/><path d="M2201.875,2571.6016 L2201.875,2586.6016 L2206.875,2586.6016 L2208.0859,2586.6016 L2209.375,2588.1641 L2209.375,2589.1016 L2209.375,2590.0391 L2208.0859,2591.6016 L2206.875,2591.6016 L2191.875,2591.6016 L2190.6641,2591.6016 L2189.375,2590.0391 L2189.375,2589.1016 L2189.375,2588.1641 L2190.6641,2586.6016 L2191.875,2586.6016 L2196.875,2586.6016 L2196.875,2571.6016 L2191.875,2571.6016 L2190.6641,2571.6016 L2189.375,2570.0391 L2189.375,2569.1016 L2189.375,2568.1641 L2190.6641,2566.6016 L2191.875,2566.6016 L2206.875,2566.6016 L2208.0859,2566.6016 L2209.375,2568.1641 L2209.375,2569.1016 L2209.375,2570.0391 L2208.0859,2571.6016 L2206.875,2571.6016 L2201.875,2571.6016 Z "/><ellipse cx="2263.125" cy="2577.8516" fill="#84BE84" rx="7.5" ry="7.5" style="stroke: #038048; stroke-width: 2.5;"/><text fill="#000000" font-family="sans-serif" font-size="30" font-style="italic" lengthAdjust="spacingAndGlyphs" textLength="137.5" x="2278.125" y="2591.377">NodeStep</text><line style="stroke: #3498DB; stroke-width: 3.75;" x1="1901.25" x2="2683.75" y1="2619.1016" y2="2619.1016"/><line style="stroke: #3498DB; stroke-width: 3.75;" x1="1901.25" x2="2683.75" y1="2639.1016" y2="2639.1016"/><ellipse cx="1926.25" cy="2666.6016" fill="#84BE84" rx="7.5" ry="7.5" style="stroke: #038048; stroke-width: 2.5;"/><text fill="#000000" font-family="sans-serif" font-size="27.5" lengthAdjust="spacingAndGlyphs" textLength="722.5" x="1948.75" y="2677.6489">BuilderStep withAsyncNode (KeypleServerAsync endpoint)</text><ellipse cx="1926.25" cy="2701.1914" fill="#84BE84" rx="7.5" ry="7.5" style="stroke: #038048; stroke-width: 2.5;"/><text fill="#000000" font-family="sans-serif" font-size="27.5" lengthAdjust="spacingAndGlyphs" textLength="350" x="1948.75" y="2712.2388">BuilderStep withSyncNode ()</text><!--MD5=[e136392809611ba38285164885b73631]
class PoolLocalServiceServerFactoryBuilderStep--><rect fill="#EBF5FB" height="154.5898" id="PoolLocalServiceServerFactoryBuilderStep" style="stroke: #3498DB; stroke-width: 3.75;" width="520" x="2032.5" y="2899.1016"/><ellipse cx="2188.125" cy="2939.1016" fill="#B4A7E5" rx="27.5" ry="27.5" style="stroke: #B4A7E5; stroke-width: 2.5;"/><path d="M2190.625,2931.6016 L2190.625,2946.6016 L2195.625,2946.6016 L2196.8359,2946.6016 L2198.125,2948.1641 L2198.125,2949.1016 L2198.125,2950.0391 L2196.8359,2951.6016 L2195.625,2951.6016 L2180.625,2951.6016 L2179.4141,2951.6016 L2178.125,2950.0391 L2178.125,2949.1016 L2178.125,2948.1641 L2179.4141,2946.6016 L2180.625,2946.6016 L2185.625,2946.6016 L2185.625,2931.6016 L2180.625,2931.6016 L2179.4141,2931.6016 L2178.125,2930.0391 L2178.125,2929.1016 L2178.125,2928.1641 L2179.4141,2926.6016 L2180.625,2926.6016 L2195.625,2926.6016 L2196.8359,2926.6016 L2198.125,2928.1641 L2198.125,2929.1016 L2198.125,2930.0391 L2196.8359,2931.6016 L2195.625,2931.6016 L2190.625,2931.6016 Z "/><ellipse cx="2251.875" cy="2937.8516" fill="#84BE84" rx="7.5" ry="7.5" style="stroke: #038048; stroke-width: 2.5;"/><text fill="#000000" font-family="sans-serif" font-size="30" font-style="italic" lengthAdjust="spacingAndGlyphs" textLength="160" x="2266.875" y="2951.377">BuilderStep</text><line style="stroke: #3498DB; stroke-width: 3.75;" x1="2035" x2="2550" y1="2979.1016" y2="2979.1016"/><line style="stroke: #3498DB; stroke-width: 3.75;" x1="2035" x2="2550" y1="2999.1016" y2="2999.1016"/><ellipse cx="2060" cy="3026.6016" fill="#84BE84" rx="7.5" ry="7.5" style="stroke: #038048; stroke-width: 2.5;"/><text fill="#000000" font-family="sans-serif" font-size="27.5" lengthAdjust="spacingAndGlyphs" textLength="455" x="2082.5" y="3037.6489">PoolLocalServiceServer getService ()</text><!--MD5=[cd153c0242e2864675b9dc50f471e3a6]
link LocalServiceClient to RemoteServiceParameters--><path d="M455.03,894.4266 C460.3775,953.2516 466.8725,1024.7016 471.8975,1079.9766 " fill="none" id="LocalServiceClient-&gt;RemoteServiceParameters" style="stroke: #27AE60; stroke-width: 2.5; stroke-dasharray: 7.0,7.0;"/><polygon fill="#27AE60" points="473.0775,1092.9516,481.0452,1069.6542,471.9703,1080.5007,461.1238,1071.4258,473.0775,1092.9516" style="stroke: #27AE60; stroke-width: 2.5;"/><text fill="#000000" font-family="sans-serif" font-size="32.5" lengthAdjust="spacingAndGlyphs" textLength="52.5" x="470" y="1010.3394">use</text><polygon fill="#000000" points="485,1032.4805,492.5,1047.4805,500,1032.4805,485,1032.4805" style="stroke: #000000; stroke-width: 2.5;"/><!--MD5=[67388e983a21b7fb718f5f064a2e9e7f]
reverse link RemoteServiceParameters to RemoteServiceParametersBuilder--><path d="M487.5775,1287.7516 C490.025,1324.4766 492.7325,1365.0866 495.1625,1401.5341 " fill="none" id="RemoteServiceParameters&lt;-RemoteServiceParametersBuilder" style="stroke: #3498DB; stroke-width: 2.5;"/><ellipse cx="486.3833" cy="1269.8071" fill="#FFFFFF" rx="20" ry="20" style="stroke: #3498DB; stroke-width: 2.5;"/><line style="stroke: #3498DB; stroke-width: 2.5;" x1="487.7166" x2="485.05" y1="1289.7626" y2="1249.8516"/><line style="stroke: #3498DB; stroke-width: 2.5;" x1="466.4278" x2="506.3388" y1="1271.1404" y2="1268.4738"/><!--MD5=[8faa94bb11948582c8544cdec55008c2]
link LocalServiceClientFactory to LocalServiceClientFactoryNodeStep--><path d="M523.9475,2386.6266 C527.5175,2428.1666 532.0125,2480.4691 535.93,2526.0691 " fill="none" id="LocalServiceClientFactory-&gt;LocalServiceClientFactoryNodeStep" style="stroke: #27AE60; stroke-width: 2.5; stroke-dasharray: 7.0,7.0;"/><polygon fill="#27AE60" points="537.02,2538.7391,545.0546,2515.4647,535.9485,2526.2851,525.1282,2517.179,537.02,2538.7391" style="stroke: #27AE60; stroke-width: 2.5;"/><!--MD5=[8c4effb983b999dfcbe4fa9b1f9debcc]
link LocalServiceClientFactoryNodeStep to LocalServiceClientFactoryTimeoutStep--><path d="M540.8625,2729.7191 C538.96,2772.5091 536.695,2823.4816 534.725,2867.7741 " fill="none" id="LocalServiceClientFactoryNodeStep-&gt;LocalServiceClientFactoryTimeoutStep" style="stroke: #27AE60; stroke-width: 2.5; stroke-dasharray: 7.0,7.0;"/><polygon fill="#27AE60" points="534.125,2881.2891,545.1181,2859.2572,534.6822,2868.8015,525.1379,2858.3656,534.125,2881.2891" style="stroke: #27AE60; stroke-width: 2.5;"/><!--MD5=[e68ad73dcd5d22cdd53e377fdff58664]
link LocalServiceClientFactoryNodeStep to LocalServiceClientFactoryReaderStep--><path d="M780.6225,2729.2441 C844.58,2766.5266 906.1425,2816.4841 942.5,2881.6016 C1001.3975,2987.0891 941.9025,3121.6116 884.3575,3212.9341 " fill="none" id="LocalServiceClientFactoryNodeStep-&gt;LocalServiceClientFactoryReaderStep" style="stroke: #27AE60; stroke-width: 2.5; stroke-dasharray: 7.0,7.0;"/><polygon fill="#27AE60" points="877.3575,3223.8516,897.9217,3210.3104,884.1056,3213.3295,881.0864,3199.5134,877.3575,3223.8516" style="stroke: #27AE60; stroke-width: 2.5;"/><!--MD5=[9e710cc27621479a8e33badcbc94c2e5]
link LocalServiceClientFactoryTimeoutStep to LocalServiceClientFactoryReaderStep--><path d="M606.5625,3072.2191 C642.655,3116.1166 685.8275,3168.6216 722.89,3213.6966 " fill="none" id="LocalServiceClientFactoryTimeoutStep-&gt;LocalServiceClientFactoryReaderStep" style="stroke: #27AE60; stroke-width: 2.5; stroke-dasharray: 7.0,7.0;"/><polygon fill="#27AE60" points="731.1875,3223.7891,724.6191,3200.0592,723.2475,3214.1347,709.1721,3212.7631,731.1875,3223.7891" style="stroke: #27AE60; stroke-width: 2.5;"/><!--MD5=[fc627bcd7e560cb3cca390b8f3f08f44]
link LocalServiceClientFactoryReaderStep to LocalServiceClientFactoryBuilderStep--><path d="M807.5,3414.1591 C807.5,3457.9866 807.5,3510.0791 807.5,3553.3441 " fill="none" id="LocalServiceClientFactoryReaderStep-&gt;LocalServiceClientFactoryBuilderStep" style="stroke: #27AE60; stroke-width: 2.5; stroke-dasharray: 7.0,7.0;"/><polygon fill="#27AE60" points="807.5,3566.4691,817.5,3543.9691,807.5,3553.9691,797.5,3543.9691,807.5,3566.4691" style="stroke: #27AE60; stroke-width: 2.5;"/><!--MD5=[da9b7d051779b7ff14dc1ccb43dc943c]
link LocalServiceServerFactory to LocalServiceServerFactoryNodeStep--><path d="M1446.2075,2386.6266 C1441.34,2428.1666 1435.21,2480.4691 1429.8675,2526.0691 " fill="none" id="LocalServiceServerFactory-&gt;LocalServiceServerFactoryNodeStep" style="stroke: #27AE60; stroke-width: 2.5; stroke-dasharray: 7.0,7.0;"/><polygon fill="#27AE60" points="1428.3825,2538.7391,1440.9373,2517.5582,1429.8397,2526.3243,1421.0736,2515.2267,1428.3825,2538.7391" style="stroke: #27AE60; stroke-width: 2.5;"/><!--MD5=[c2a403638aade61f3a045efd4b2af633]
link LocalServiceServerFactoryNodeStep to LocalServiceServerFactoryBuilderStep--><path d="M1417.5,2729.7191 C1417.5,2778.2291 1417.5,2837.2516 1417.5,2885.1391 " fill="none" id="LocalServiceServerFactoryNodeStep-&gt;LocalServiceServerFactoryBuilderStep" style="stroke: #27AE60; stroke-width: 2.5; stroke-dasharray: 7.0,7.0;"/><polygon fill="#27AE60" points="1417.5,2898.3341,1427.5,2875.8341,1417.5,2885.8341,1407.5,2875.8341,1417.5,2898.3341" style="stroke: #27AE60; stroke-width: 2.5;"/><!--MD5=[1f3fc132a06ce67b26e6f42c39477d65]
link PoolLocalServiceServerFactory to PoolLocalServiceServerFactoryNodeStep--><path d="M2292.5,2386.6266 C2292.5,2428.1666 2292.5,2480.4691 2292.5,2526.0691 " fill="none" id="PoolLocalServiceServerFactory-&gt;PoolLocalServiceServerFactoryNodeStep" style="stroke: #27AE60; stroke-width: 2.5; stroke-dasharray: 7.0,7.0;"/><polygon fill="#27AE60" points="2292.5,2538.7391,2302.5,2516.2391,2292.5,2526.2391,2282.5,2516.2391,2292.5,2538.7391" style="stroke: #27AE60; stroke-width: 2.5;"/><!--MD5=[0569ae9f5c626822353a1e9ca3dfed64]
link PoolLocalServiceServerFactoryNodeStep to PoolLocalServiceServerFactoryBuilderStep--><path d="M2292.5,2729.7191 C2292.5,2778.2291 2292.5,2837.2516 2292.5,2885.1391 " fill="none" id="PoolLocalServiceServerFactoryNodeStep-&gt;PoolLocalServiceServerFactoryBuilderStep" style="stroke: #27AE60; stroke-width: 2.5; stroke-dasharray: 7.0,7.0;"/><polygon fill="#27AE60" points="2292.5,2898.3341,2302.5,2875.8341,2292.5,2885.8341,2282.5,2875.8341,2292.5,2898.3341" style="stroke: #27AE60; stroke-width: 2.5;"/><!--MD5=[4815e307bb7a5e1366ba86ca68e60797]
link serverApi to LocalServiceClient--><!--MD5=[86f4e799da2b2bcc096a332d22357eca]
link clientApi to LocalServiceServer--><!--MD5=[10de2509b1b4bff1f42cfe417250d19e]
link poolClientApi to PoolLocalServiceServer--><!--MD5=[ddcffd4f9f9f582499953c92b1c4297b]
link spiApi to KeypleClientReaderEventFilter--><!--MD5=[03ddaee1d0271b2b497b468bd65a1652]
link RemoteServiceParametersBuilder to LocalServiceClientUtils--><!--MD5=[acf734d0307c7b1b32b6d3de5b272477]
link LocalServiceServer to LocalServiceServerUtils--><!--MD5=[8ec397038641fde8ff4df8c09b6e8128]
link PoolLocalServiceServer to PoolLocalServiceServerUtils--><!--MD5=[8e0dc57c67cdcc787e1ffd7112f58419]
link LocalServiceClientUtils to LocalServiceClientFactory--><!--MD5=[aa8c3198d53c251b093a22f4ed9db1eb]
link LocalServiceServerUtils to LocalServiceServerFactory--><!--MD5=[5d51e1d5c6a1ebb4dbe91c7167fafdf0]
link PoolLocalServiceServerUtils to PoolLocalServiceServerFactory--><!--MD5=[fe7c73182a2bee1964999cec01709575]
@startuml
title
    Keyple Remote Plugin - Local Service API - 1.0.0 (02/11/2020)
end title



skinparam Shadowing false
skinparam ClassFontStyle italic
skinparam ClassBorderColor #D4AC0D
skinparam stereotypeABorderColor #A9DCDF
skinparam stereotypeIBorderColor #B4A7E5
skinparam stereotypeCBorderColor #ADD1B2
skinparam stereotypeEBorderColor #EB93DF
skinparam ClassBackgroundColor<<red>> #FDEDEC
skinparam ClassBorderColor<<red>> #E74C3C
hide <<red>> stereotype
skinparam ClassBackgroundColor<<purple>> #F4ECF7
skinparam ClassBorderColor<<purple>> #8E44AD
hide <<purple>> stereotype
skinparam ClassBackgroundColor<<blue>> #EBF5FB
skinparam ClassBorderColor<<blue>> #3498DB
hide <<blue>> stereotype
skinparam ClassBackgroundColor<<green>> #E9F7EF
skinparam ClassBorderColor<<green>> #27AE60
hide <<green>> stereotype
skinparam ClassBackgroundColor<<grey>> #EAECEE
skinparam ClassBorderColor<<grey>> #2C3E50
hide <<grey>> stereotype


package Legend {
    interface "**RemotePluginServer API**" as serverApi <<green>>
    interface "**RemotePluginClient API** or\n**ObservableRemotePluginClient API**" as clientApi <<purple>>
    interface "**PoolRemotePluginClient API**" as poolClientApi <<blue>>
    interface "**SPI** (Service Provider Interface)\nMust be implemented by the user" as spiApi
}

package "org.eclipse.keyple.plugin.remote" as root {

    +interface LocalServiceClient {
        +<T> T executeRemoteService (\n    RemoteServiceParameters parameters,\n    Class<T> classOfT)
    }
    +class RemoteServiceParameters {
        +{static} Builder builder (String serviceId, Reader localReader)
    }
    +class "Builder" as RemoteServiceParametersBuilder {
        +Builder withUserInputData (Object userInputData)
        +Builder withInitialCardContent (AbstractSmartCard smartCard)
        +RemoteServiceParameters build ()
    }
    +interface LocalServiceServer {
    }
    +interface PoolLocalServiceServer {
    }
    package spi {
        +interface KeypleClientReaderEventFilter {
            +Object beforePropagation (ReaderEvent event)
            +Class<? extends Object> getUserOutputDataClass ()
            +void afterPropagation (Object userOutputData)
        }
    }
    package impl as impl {
        +class LocalServiceClientUtils {
            - -
            + {static} LocalServiceClient getAsyncService ()
            + {static} KeypleClientAsyncNode getAsyncNode ()
            ..
            + {static} LocalServiceClient getSyncService ()
        }
        +class LocalServiceServerUtils {
            - -
            + {static} KeypleServerAsyncNode getAsyncNode ()
            ..
            + {static} KeypleServerSyncNode getSyncNode ()
        }
        +class PoolLocalServiceServerUtils {
            - -
            + {static} KeypleServerAsyncNode getAsyncNode ()
            ..
            + {static} KeypleServerSyncNode getSyncNode ()
        }
        +class LocalServiceClientFactory {
            + {static} NodeStep builder ()
        }
        +interface "NodeStep" as LocalServiceClientFactoryNodeStep {
            + TimeoutStep withAsyncNode (KeypleClientAsync endpoint)
            + ReaderStep withSyncNode (KeypleClientSync endpoint)
        }
        +interface "TimeoutStep" as LocalServiceClientFactoryTimeoutStep {
            + ReaderStep usingDefaultTimeout ()
            + ReaderStep usingCustomTimeout (int timeoutInSeconds)
        }
        +interface "ReaderStep" as LocalServiceClientFactoryReaderStep {
            + BuilderStep withReaderObservation (KeypleClientReaderEventFilter filter)
            + BuilderStep withoutReaderObservation ()
        }
        +interface "BuilderStep" as LocalServiceClientFactoryBuilderStep {
            + LocalServiceClient getService ()
        }
        +class LocalServiceServerFactory {
            + {static} NodeStep builder ()
        }
        +interface "NodeStep" as LocalServiceServerFactoryNodeStep {
            + BuilderStep withAsyncNode (KeypleServerAsync endpoint)
            + BuilderStep withSyncNode ()
        }
        +interface "BuilderStep" as LocalServiceServerFactoryBuilderStep {
            + LocalServiceServer getService ()
        }
        +class PoolLocalServiceServerFactory {
            + {static} NodeStep builder ()
        }
        +interface "NodeStep" as PoolLocalServiceServerFactoryNodeStep {
            + BuilderStep withAsyncNode (KeypleServerAsync endpoint)
            + BuilderStep withSyncNode ()
        }
        +interface "BuilderStep" as PoolLocalServiceServerFactoryBuilderStep {
            + PoolLocalServiceServer getService ()
        }
    }
}

LocalServiceClient ..> RemoteServiceParameters #27AE60 : use >
RemoteServiceParameters +- - RemoteServiceParametersBuilder #3498DB

LocalServiceClientFactory ..> LocalServiceClientFactoryNodeStep #27AE60
LocalServiceClientFactoryNodeStep ..> LocalServiceClientFactoryTimeoutStep #27AE60
LocalServiceClientFactoryNodeStep ..> LocalServiceClientFactoryReaderStep #27AE60
LocalServiceClientFactoryTimeoutStep ..> LocalServiceClientFactoryReaderStep #27AE60
LocalServiceClientFactoryReaderStep ..> LocalServiceClientFactoryBuilderStep #27AE60

LocalServiceServerFactory ..> LocalServiceServerFactoryNodeStep #27AE60
LocalServiceServerFactoryNodeStep ..> LocalServiceServerFactoryBuilderStep #27AE60

PoolLocalServiceServerFactory ..> PoolLocalServiceServerFactoryNodeStep #27AE60
PoolLocalServiceServerFactoryNodeStep ..> PoolLocalServiceServerFactoryBuilderStep #27AE60


serverApi -[hidden]- LocalServiceClient
clientApi -[hidden]- LocalServiceServer
poolClientApi -[hidden]- PoolLocalServiceServer
spiApi -[hidden]- KeypleClientReaderEventFilter

RemoteServiceParametersBuilder -[hidden]- LocalServiceClientUtils
LocalServiceServer -[hidden]- LocalServiceServerUtils
PoolLocalServiceServer -[hidden]- PoolLocalServiceServerUtils

LocalServiceClientUtils -[hidden]- LocalServiceClientFactory
LocalServiceServerUtils -[hidden]- LocalServiceServerFactory
PoolLocalServiceServerUtils -[hidden]- PoolLocalServiceServerFactory


package root #F8F9F9 {}
package spi #F2F3F4 {}
package impl #F2F3F4 {}

interface LocalServiceClient <<green>>
class LocalServiceClientFactory <<green>>
interface LocalServiceClientFactoryNodeStep <<green>>
interface LocalServiceClientFactoryTimeoutStep <<green>>
interface LocalServiceClientFactoryReaderStep <<green>>
interface LocalServiceClientFactoryBuilderStep <<green>>
class RemoteServiceParameters <<green>>
class RemoteServiceParametersBuilder <<green>>
class LocalServiceClientUtils <<green>>

interface LocalServiceServer <<purple>>
class LocalServiceServerFactory <<purple>>
interface LocalServiceServerFactoryNodeStep <<purple>>
interface LocalServiceServerFactoryBuilderStep <<purple>>
class LocalServiceServerUtils <<purple>>

interface PoolLocalServiceServer <<blue>>
class PoolLocalServiceServerFactory <<blue>>
interface PoolLocalServiceServerFactoryNodeStep <<blue>>
interface PoolLocalServiceServerFactoryBuilderStep <<blue>>
class PoolLocalServiceServerUtils <<blue>>

@enduml

PlantUML version 1.2020.09(Sun May 10 12:51:06 CEST 2020)
(GPL source distribution)
Java Runtime: OpenJDK Runtime Environment
JVM: OpenJDK 64-Bit Server VM
Java Version: 11.0.8+10-b944.34
Operating System: Windows 10
Default Encoding: Cp1252
Language: fr
Country: FR
--></g></svg>