<?xml version="1.0" encoding="UTF-8" standalone="no"?><svg xmlns="http://www.w3.org/2000/svg" xmlns:xlink="http://www.w3.org/1999/xlink" contentScriptType="application/ecmascript" contentStyleType="text/css" height="3795px" preserveAspectRatio="none" style="width:2842px;height:3795px;" version="1.1" viewBox="0 0 2842 3795" width="2842.5px" zoomAndPan="magnify"><defs/><g><text fill="#000000" font-family="sans-serif" font-size="45" lengthAdjust="spacingAndGlyphs" textLength="1260" x="806.25" y="46.7139">Keyple Remote Plugin - Native Service API - 1.0.0 (28/10/2020)</text><!--MD5=[f7217341b3bb6bbf768c7f0e049f8d09]
cluster Legend--><polygon fill="#FFFFFF" points="187.5,116.6016,335,116.6016,352.5,175.625,2575,175.625,2575,386.6016,187.5,386.6016,187.5,116.6016" style="stroke: #000000; stroke-width: 3.75;"/><line style="stroke: #000000; stroke-width: 3.75;" x1="187.5" x2="352.5" y1="175.625" y2="175.625"/><text fill="#000000" font-family="sans-serif" font-size="35" font-weight="bold" lengthAdjust="spacingAndGlyphs" textLength="132.5" x="197.5" y="157.9346">Legend</text><!--MD5=[d485ce6a0952c2fa30fb1326d94e8db1]
cluster native--><polygon fill="#F8F9F9" points="55,469.1016,745,469.1016,762.5,528.125,2787.5,528.125,2787.5,3766.6016,55,3766.6016,55,469.1016" style="stroke: #000000; stroke-width: 3.75;"/><line style="stroke: #000000; stroke-width: 3.75;" x1="55" x2="762.5" y1="528.125" y2="528.125"/><text fill="#000000" font-family="sans-serif" font-size="35" font-weight="bold" lengthAdjust="spacingAndGlyphs" textLength="675" x="65" y="510.4346">org.eclipse.keyple.plugin.remote.nativ</text><!--MD5=[f7e0e2453c87923036c1ac2adfb9cbf0]
cluster spi--><polygon fill="#F2F3F4" points="777.5,579.1016,845,579.1016,862.5,638.125,1557.5,638.125,1557.5,934.1016,777.5,934.1016,777.5,579.1016" style="stroke: #000000; stroke-width: 3.75;"/><line style="stroke: #000000; stroke-width: 3.75;" x1="777.5" x2="862.5" y1="638.125" y2="638.125"/><text fill="#000000" font-family="sans-serif" font-size="35" font-weight="bold" lengthAdjust="spacingAndGlyphs" textLength="52.5" x="787.5" y="620.4346">spi</text><!--MD5=[da5ca4a46942ce6d8352a699ecbb3ce6]
cluster nativeImpl--><polygon fill="#F2F3F4" points="115,1744.1016,202.5,1744.1016,220,1803.125,2727.5,1803.125,2727.5,3706.6016,115,3706.6016,115,1744.1016" style="stroke: #000000; stroke-width: 3.75;"/><line style="stroke: #000000; stroke-width: 3.75;" x1="115" x2="220" y1="1803.125" y2="1803.125"/><text fill="#000000" font-family="sans-serif" font-size="35" font-weight="bold" lengthAdjust="spacingAndGlyphs" textLength="72.5" x="125" y="1785.4346">impl</text><!--MD5=[0151672578e250b854cc5be527f42c35]
class serverApi--><rect fill="#E9F7EF" height="120" id="serverApi" style="stroke: #27AE60; stroke-width: 3.75;" width="435" x="227.5" y="216.6016"/><ellipse cx="265" cy="256.6016" fill="#B4A7E5" rx="27.5" ry="27.5" style="stroke: #B4A7E5; stroke-width: 2.5;"/><path d="M267.5,249.1016 L267.5,264.1016 L272.5,264.1016 L273.7109,264.1016 L275,265.6641 L275,266.6016 L275,267.5391 L273.7109,269.1016 L272.5,269.1016 L257.5,269.1016 L256.2891,269.1016 L255,267.5391 L255,266.6016 L255,265.6641 L256.2891,264.1016 L257.5,264.1016 L262.5,264.1016 L262.5,249.1016 L257.5,249.1016 L256.2891,249.1016 L255,247.5391 L255,246.6016 L255,245.6641 L256.2891,244.1016 L257.5,244.1016 L272.5,244.1016 L273.7109,244.1016 L275,245.6641 L275,246.6016 L275,247.5391 L273.7109,249.1016 L272.5,249.1016 L267.5,249.1016 Z "/><text fill="#000000" font-family="sans-serif" font-size="30" font-style="italic" font-weight="bold" lengthAdjust="spacingAndGlyphs" textLength="355" x="300" y="268.877">RemoteServerPlugin API</text><line style="stroke: #27AE60; stroke-width: 3.75;" x1="230" x2="660" y1="296.6016" y2="296.6016"/><line style="stroke: #27AE60; stroke-width: 3.75;" x1="230" x2="660" y1="316.6016" y2="316.6016"/><!--MD5=[03e54594c35fbf660fd4700221a37967]
class clientApi--><rect fill="#F4ECF7" height="140.4688" id="clientApi" style="stroke: #8E44AD; stroke-width: 3.75;" width="585" x="1377.5" y="206.6016"/><ellipse cx="1415" cy="256.8359" fill="#B4A7E5" rx="27.5" ry="27.5" style="stroke: #B4A7E5; stroke-width: 2.5;"/><path d="M1417.5,249.3359 L1417.5,264.3359 L1422.5,264.3359 L1423.7109,264.3359 L1425,265.8984 L1425,266.8359 L1425,267.7734 L1423.7109,269.3359 L1422.5,269.3359 L1407.5,269.3359 L1406.2891,269.3359 L1405,267.7734 L1405,266.8359 L1405,265.8984 L1406.2891,264.3359 L1407.5,264.3359 L1412.5,264.3359 L1412.5,249.3359 L1407.5,249.3359 L1406.2891,249.3359 L1405,247.7734 L1405,246.8359 L1405,245.8984 L1406.2891,244.3359 L1407.5,244.3359 L1422.5,244.3359 L1423.7109,244.3359 L1425,245.8984 L1425,246.8359 L1425,247.7734 L1423.7109,249.3359 L1422.5,249.3359 L1417.5,249.3359 Z "/><text fill="#000000" font-family="sans-serif" font-size="30" font-style="italic" font-weight="bold" lengthAdjust="spacingAndGlyphs" textLength="340" x="1515" y="250.2441">RemoteClientPlugin API</text><text fill="#000000" font-family="sans-serif" font-size="30" font-style="italic" lengthAdjust="spacingAndGlyphs" textLength="27.5" x="1862.5" y="250.2441">or</text><text fill="#000000" font-family="sans-serif" font-size="30" font-style="italic" font-weight="bold" lengthAdjust="spacingAndGlyphs" textLength="505" x="1450" y="287.9785">RemoteClientObservablePlugin API</text><line style="stroke: #8E44AD; stroke-width: 3.75;" x1="1380" x2="1960" y1="307.0703" y2="307.0703"/><line style="stroke: #8E44AD; stroke-width: 3.75;" x1="1380" x2="1960" y1="327.0703" y2="327.0703"/><!--MD5=[e4a655394b35c78c99af22199760ea1d]
class poolClientApi--><rect fill="#EBF5FB" height="120" id="poolClientApi" style="stroke: #3498DB; stroke-width: 3.75;" width="482.5" x="2051.25" y="216.6016"/><ellipse cx="2088.75" cy="256.6016" fill="#B4A7E5" rx="27.5" ry="27.5" style="stroke: #B4A7E5; stroke-width: 2.5;"/><path d="M2091.25,249.1016 L2091.25,264.1016 L2096.25,264.1016 L2097.4609,264.1016 L2098.75,265.6641 L2098.75,266.6016 L2098.75,267.5391 L2097.4609,269.1016 L2096.25,269.1016 L2081.25,269.1016 L2080.0391,269.1016 L2078.75,267.5391 L2078.75,266.6016 L2078.75,265.6641 L2080.0391,264.1016 L2081.25,264.1016 L2086.25,264.1016 L2086.25,249.1016 L2081.25,249.1016 L2080.0391,249.1016 L2078.75,247.5391 L2078.75,246.6016 L2078.75,245.6641 L2080.0391,244.1016 L2081.25,244.1016 L2096.25,244.1016 L2097.4609,244.1016 L2098.75,245.6641 L2098.75,246.6016 L2098.75,247.5391 L2097.4609,249.1016 L2096.25,249.1016 L2091.25,249.1016 Z "/><text fill="#000000" font-family="sans-serif" font-size="30" font-style="italic" font-weight="bold" lengthAdjust="spacingAndGlyphs" textLength="402.5" x="2123.75" y="268.877">RemotePoolClientPlugin API</text><line style="stroke: #3498DB; stroke-width: 3.75;" x1="2053.75" x2="2531.25" y1="296.6016" y2="296.6016"/><line style="stroke: #3498DB; stroke-width: 3.75;" x1="2053.75" x2="2531.25" y1="316.6016" y2="316.6016"/><!--MD5=[e92611fa4837a0a075ca8255b3dfcfc1]
class spiApi--><rect fill="#FEFECE" height="140.4688" id="spiApi" style="stroke: #D4AC0D; stroke-width: 3.75;" width="537.5" x="751.25" y="206.6016"/><ellipse cx="788.75" cy="256.8359" fill="#B4A7E5" rx="27.5" ry="27.5" style="stroke: #B4A7E5; stroke-width: 2.5;"/><path d="M791.25,249.3359 L791.25,264.3359 L796.25,264.3359 L797.4609,264.3359 L798.75,265.8984 L798.75,266.8359 L798.75,267.7734 L797.4609,269.3359 L796.25,269.3359 L781.25,269.3359 L780.0391,269.3359 L778.75,267.7734 L778.75,266.8359 L778.75,265.8984 L780.0391,264.3359 L781.25,264.3359 L786.25,264.3359 L786.25,249.3359 L781.25,249.3359 L780.0391,249.3359 L778.75,247.7734 L778.75,246.8359 L778.75,245.8984 L780.0391,244.3359 L781.25,244.3359 L796.25,244.3359 L797.4609,244.3359 L798.75,245.8984 L798.75,246.8359 L798.75,247.7734 L797.4609,249.3359 L796.25,249.3359 L791.25,249.3359 Z "/><text fill="#000000" font-family="sans-serif" font-size="30" font-style="italic" font-weight="bold" lengthAdjust="spacingAndGlyphs" textLength="47.5" x="838.75" y="250.2441">SPI</text><text fill="#000000" font-family="sans-serif" font-size="30" font-style="italic" lengthAdjust="spacingAndGlyphs" textLength="372.5" x="893.75" y="250.2441">(Service Provider Interface)</text><text fill="#000000" font-family="sans-serif" font-size="30" font-style="italic" lengthAdjust="spacingAndGlyphs" textLength="457.5" x="823.75" y="287.9785">Must be implemented by the user</text><line style="stroke: #D4AC0D; stroke-width: 3.75;" x1="753.75" x2="1286.25" y1="307.0703" y2="307.0703"/><line style="stroke: #D4AC0D; stroke-width: 3.75;" x1="753.75" x2="1286.25" y1="327.0703" y2="327.0703"/><!--MD5=[852ca161d1c17ff161980c4566633e18]
class NativeClientService--><rect fill="#E9F7EF" height="223.7695" id="NativeClientService" style="stroke: #27AE60; stroke-width: 3.75;" width="567.5" x="161.25" y="669.1016"/><ellipse cx="285.625" cy="709.1016" fill="#B4A7E5" rx="27.5" ry="27.5" style="stroke: #B4A7E5; stroke-width: 2.5;"/><path d="M288.125,701.6016 L288.125,716.6016 L293.125,716.6016 L294.3359,716.6016 L295.625,718.1641 L295.625,719.1016 L295.625,720.0391 L294.3359,721.6016 L293.125,721.6016 L278.125,721.6016 L276.9141,721.6016 L275.625,720.0391 L275.625,719.1016 L275.625,718.1641 L276.9141,716.6016 L278.125,716.6016 L283.125,716.6016 L283.125,701.6016 L278.125,701.6016 L276.9141,701.6016 L275.625,700.0391 L275.625,699.1016 L275.625,698.1641 L276.9141,696.6016 L278.125,696.6016 L293.125,696.6016 L294.3359,696.6016 L295.625,698.1641 L295.625,699.1016 L295.625,700.0391 L294.3359,701.6016 L293.125,701.6016 L288.125,701.6016 Z "/><ellipse cx="349.375" cy="707.8516" fill="#84BE84" rx="7.5" ry="7.5" style="stroke: #038048; stroke-width: 2.5;"/><text fill="#000000" font-family="sans-serif" font-size="30" font-style="italic" lengthAdjust="spacingAndGlyphs" textLength="270" x="364.375" y="721.377">NativeClientService</text><line style="stroke: #27AE60; stroke-width: 3.75;" x1="163.75" x2="726.25" y1="749.1016" y2="749.1016"/><line style="stroke: #27AE60; stroke-width: 3.75;" x1="163.75" x2="726.25" y1="769.1016" y2="769.1016"/><ellipse cx="188.75" cy="796.6016" fill="#84BE84" rx="7.5" ry="7.5" style="stroke: #038048; stroke-width: 2.5;"/><text fill="#000000" font-family="sans-serif" font-size="27.5" lengthAdjust="spacingAndGlyphs" textLength="372.5" x="211.25" y="807.6489">&lt;T&gt; T executeRemoteService (</text><text fill="#000000" font-family="sans-serif" font-size="27.5" lengthAdjust="spacingAndGlyphs" textLength="472.5" x="241.25" y="842.2388">RemoteServiceParameters parameters,</text><text fill="#000000" font-family="sans-serif" font-size="27.5" lengthAdjust="spacingAndGlyphs" textLength="240" x="241.25" y="876.8286">Class&lt;T&gt; classOfT)</text><!--MD5=[d20a95b78d716283a1df9eca070f5ba1]
class RemoteServiceParameters--><rect fill="#E9F7EF" height="154.5898" id="RemoteServiceParameters" style="stroke: #27AE60; stroke-width: 3.75;" width="720" x="120" y="1094.1016"/><ellipse cx="269.375" cy="1134.1016" fill="#ADD1B2" rx="27.5" ry="27.5" style="stroke: #ADD1B2; stroke-width: 2.5;"/><path d="M274.375,1125.3516 Q274.8828,1124.1016 275.4688,1123.4766 Q276.0547,1122.8516 276.7188,1122.8516 Q277.8906,1122.8516 278.6328,1123.5547 Q279.375,1124.2578 279.375,1125.8984 L279.375,1129.8047 Q279.375,1131.4453 278.6719,1132.1484 Q277.9688,1132.8516 276.875,1132.8516 Q275.8984,1132.8516 275.2734,1132.4219 Q274.6484,1131.9922 274.375,1130.8594 Q274.2578,1130.0781 273.8281,1129.6484 Q273.0469,1128.8281 271.6406,1128.3594 Q270.2344,1127.8516 268.8281,1127.8516 Q267.0703,1127.8516 265.5859,1128.5547 Q264.1406,1129.2578 263.0078,1130.8203 Q261.875,1132.3828 261.875,1134.5313 L261.875,1136.8359 Q261.875,1139.4141 263.9844,1141.1328 Q266.0938,1142.8516 269.8438,1142.8516 Q272.0703,1142.8516 273.6328,1142.3438 Q274.5313,1142.0703 275.5469,1141.1719 Q276.2109,1140.6641 276.5625,1140.5078 Q276.9141,1140.3516 277.3438,1140.3516 Q278.1641,1140.3516 278.75,1141.0156 Q279.375,1141.6406 279.375,1142.5391 Q279.375,1143.3984 278.5156,1144.4141 Q277.2656,1145.8984 275.2734,1146.7188 Q272.6563,1147.8516 269.4531,1147.8516 Q265.7031,1147.8516 262.6953,1146.3672 Q260.2734,1145.1953 258.5547,1142.6563 Q256.875,1140.1172 256.875,1137.1094 L256.875,1134.375 Q256.875,1131.25 258.3594,1128.5156 Q259.8828,1125.7813 262.5,1124.3359 Q265.1563,1122.8516 268.125,1122.8516 Q269.9219,1122.8516 271.4844,1123.4766 Q273.0469,1124.1016 274.375,1125.3516 Z "/><ellipse cx="333.125" cy="1132.8516" fill="#84BE84" rx="7.5" ry="7.5" style="stroke: #038048; stroke-width: 2.5;"/><text fill="#000000" font-family="sans-serif" font-size="30" font-style="italic" lengthAdjust="spacingAndGlyphs" textLength="372.5" x="348.125" y="1146.377">RemoteServiceParameters</text><line style="stroke: #27AE60; stroke-width: 3.75;" x1="122.5" x2="837.5" y1="1174.1016" y2="1174.1016"/><line style="stroke: #27AE60; stroke-width: 3.75;" x1="122.5" x2="837.5" y1="1194.1016" y2="1194.1016"/><ellipse cx="147.5" cy="1221.6016" fill="#84BE84" rx="7.5" ry="7.5" style="stroke: #038048; stroke-width: 2.5;"/><text fill="#000000" font-family="sans-serif" font-size="27.5" lengthAdjust="spacingAndGlyphs" text-decoration="underline" textLength="655" x="170" y="1232.6489">Builder builder (String serviceId, Reader nativeReader)</text><!--MD5=[d456467577ef109bf5015118e808ea7b]
class RemoteServiceParametersBuilder--><rect fill="#E9F7EF" height="223.7695" id="RemoteServiceParametersBuilder" style="stroke: #27AE60; stroke-width: 3.75;" width="807.5" x="98.75" y="1401.6016"/><ellipse cx="429.375" cy="1441.6016" fill="#ADD1B2" rx="27.5" ry="27.5" style="stroke: #ADD1B2; stroke-width: 2.5;"/><path d="M434.375,1432.8516 Q434.8828,1431.6016 435.4688,1430.9766 Q436.0547,1430.3516 436.7188,1430.3516 Q437.8906,1430.3516 438.6328,1431.0547 Q439.375,1431.7578 439.375,1433.3984 L439.375,1437.3047 Q439.375,1438.9453 438.6719,1439.6484 Q437.9688,1440.3516 436.875,1440.3516 Q435.8984,1440.3516 435.2734,1439.9219 Q434.6484,1439.4922 434.375,1438.3594 Q434.2578,1437.5781 433.8281,1437.1484 Q433.0469,1436.3281 431.6406,1435.8594 Q430.2344,1435.3516 428.8281,1435.3516 Q427.0703,1435.3516 425.5859,1436.0547 Q424.1406,1436.7578 423.0078,1438.3203 Q421.875,1439.8828 421.875,1442.0313 L421.875,1444.3359 Q421.875,1446.9141 423.9844,1448.6328 Q426.0938,1450.3516 429.8438,1450.3516 Q432.0703,1450.3516 433.6328,1449.8438 Q434.5313,1449.5703 435.5469,1448.6719 Q436.2109,1448.1641 436.5625,1448.0078 Q436.9141,1447.8516 437.3438,1447.8516 Q438.1641,1447.8516 438.75,1448.5156 Q439.375,1449.1406 439.375,1450.0391 Q439.375,1450.8984 438.5156,1451.9141 Q437.2656,1453.3984 435.2734,1454.2188 Q432.6563,1455.3516 429.4531,1455.3516 Q425.7031,1455.3516 422.6953,1453.8672 Q420.2734,1452.6953 418.5547,1450.1563 Q416.875,1447.6172 416.875,1444.6094 L416.875,1441.875 Q416.875,1438.75 418.3594,1436.0156 Q419.8828,1433.2813 422.5,1431.8359 Q425.1563,1430.3516 428.125,1430.3516 Q429.9219,1430.3516 431.4844,1430.9766 Q433.0469,1431.6016 434.375,1432.8516 Z "/><ellipse cx="493.125" cy="1440.3516" fill="#84BE84" rx="7.5" ry="7.5" style="stroke: #038048; stroke-width: 2.5;"/><text fill="#000000" font-family="sans-serif" font-size="30" font-style="italic" lengthAdjust="spacingAndGlyphs" textLength="97.5" x="508.125" y="1453.877">Builder</text><line style="stroke: #27AE60; stroke-width: 3.75;" x1="101.25" x2="903.75" y1="1481.6016" y2="1481.6016"/><line style="stroke: #27AE60; stroke-width: 3.75;" x1="101.25" x2="903.75" y1="1501.6016" y2="1501.6016"/><ellipse cx="126.25" cy="1529.1016" fill="#84BE84" rx="7.5" ry="7.5" style="stroke: #038048; stroke-width: 2.5;"/><text fill="#000000" font-family="sans-serif" font-size="27.5" lengthAdjust="spacingAndGlyphs" textLength="592.5" x="148.75" y="1540.1489">Builder withUserInputData (Object userInputData)</text><ellipse cx="126.25" cy="1563.6914" fill="#84BE84" rx="7.5" ry="7.5" style="stroke: #038048; stroke-width: 2.5;"/><text fill="#000000" font-family="sans-serif" font-size="27.5" lengthAdjust="spacingAndGlyphs" textLength="742.5" x="148.75" y="1574.7388">Builder withInitialCardContent (AbstractSmartCard smartCard)</text><ellipse cx="126.25" cy="1598.2813" fill="#84BE84" rx="7.5" ry="7.5" style="stroke: #038048; stroke-width: 2.5;"/><text fill="#000000" font-family="sans-serif" font-size="27.5" lengthAdjust="spacingAndGlyphs" textLength="410" x="148.75" y="1609.3286">RemoteServiceParameters build ()</text><!--MD5=[ee65b29d15fea595bcc34e9bf66c7e0e]
class NativeServerService--><rect fill="#F4ECF7" height="120" id="NativeServerService" style="stroke: #8E44AD; stroke-width: 3.75;" width="387.5" x="1391.25" y="1454.1016"/><ellipse cx="1428.75" cy="1494.1016" fill="#B4A7E5" rx="27.5" ry="27.5" style="stroke: #B4A7E5; stroke-width: 2.5;"/><path d="M1431.25,1486.6016 L1431.25,1501.6016 L1436.25,1501.6016 L1437.4609,1501.6016 L1438.75,1503.1641 L1438.75,1504.1016 L1438.75,1505.0391 L1437.4609,1506.6016 L1436.25,1506.6016 L1421.25,1506.6016 L1420.0391,1506.6016 L1418.75,1505.0391 L1418.75,1504.1016 L1418.75,1503.1641 L1420.0391,1501.6016 L1421.25,1501.6016 L1426.25,1501.6016 L1426.25,1486.6016 L1421.25,1486.6016 L1420.0391,1486.6016 L1418.75,1485.0391 L1418.75,1484.1016 L1418.75,1483.1641 L1420.0391,1481.6016 L1421.25,1481.6016 L1436.25,1481.6016 L1437.4609,1481.6016 L1438.75,1483.1641 L1438.75,1484.1016 L1438.75,1485.0391 L1437.4609,1486.6016 L1436.25,1486.6016 L1431.25,1486.6016 Z "/><ellipse cx="1476.25" cy="1492.8516" fill="#84BE84" rx="7.5" ry="7.5" style="stroke: #038048; stroke-width: 2.5;"/><text fill="#000000" font-family="sans-serif" font-size="30" font-style="italic" lengthAdjust="spacingAndGlyphs" textLength="280" x="1491.25" y="1506.377">NativeServerService</text><line style="stroke: #8E44AD; stroke-width: 3.75;" x1="1393.75" x2="1776.25" y1="1534.1016" y2="1534.1016"/><line style="stroke: #8E44AD; stroke-width: 3.75;" x1="1393.75" x2="1776.25" y1="1554.1016" y2="1554.1016"/><!--MD5=[27740db86265bc08f3523e3a14eacb71]
class NativePoolServerService--><rect fill="#EBF5FB" height="120" id="NativePoolServerService" style="stroke: #3498DB; stroke-width: 3.75;" width="450" x="2067.5" y="1454.1016"/><ellipse cx="2105" cy="1494.1016" fill="#B4A7E5" rx="27.5" ry="27.5" style="stroke: #B4A7E5; stroke-width: 2.5;"/><path d="M2107.5,1486.6016 L2107.5,1501.6016 L2112.5,1501.6016 L2113.7109,1501.6016 L2115,1503.1641 L2115,1504.1016 L2115,1505.0391 L2113.7109,1506.6016 L2112.5,1506.6016 L2097.5,1506.6016 L2096.2891,1506.6016 L2095,1505.0391 L2095,1504.1016 L2095,1503.1641 L2096.2891,1501.6016 L2097.5,1501.6016 L2102.5,1501.6016 L2102.5,1486.6016 L2097.5,1486.6016 L2096.2891,1486.6016 L2095,1485.0391 L2095,1484.1016 L2095,1483.1641 L2096.2891,1481.6016 L2097.5,1481.6016 L2112.5,1481.6016 L2113.7109,1481.6016 L2115,1483.1641 L2115,1484.1016 L2115,1485.0391 L2113.7109,1486.6016 L2112.5,1486.6016 L2107.5,1486.6016 Z "/><ellipse cx="2152.5" cy="1492.8516" fill="#84BE84" rx="7.5" ry="7.5" style="stroke: #038048; stroke-width: 2.5;"/><text fill="#000000" font-family="sans-serif" font-size="30" font-style="italic" lengthAdjust="spacingAndGlyphs" textLength="342.5" x="2167.5" y="1506.377">NativePoolServerService</text><line style="stroke: #3498DB; stroke-width: 3.75;" x1="2070" x2="2515" y1="1534.1016" y2="1534.1016"/><line style="stroke: #3498DB; stroke-width: 3.75;" x1="2070" x2="2515" y1="1554.1016" y2="1554.1016"/><!--MD5=[c41ac517bfbb6eda8bbb3f1519f4d0c4]
class KeypleClientReaderEventFilter--><rect fill="#FEFECE" height="223.7695" id="KeypleClientReaderEventFilter" style="stroke: #D4AC0D; stroke-width: 3.75;" width="700" x="817.5" y="669.1016"/><ellipse cx="931.875" cy="709.1016" fill="#B4A7E5" rx="27.5" ry="27.5" style="stroke: #B4A7E5; stroke-width: 2.5;"/><path d="M934.375,701.6016 L934.375,716.6016 L939.375,716.6016 L940.5859,716.6016 L941.875,718.1641 L941.875,719.1016 L941.875,720.0391 L940.5859,721.6016 L939.375,721.6016 L924.375,721.6016 L923.1641,721.6016 L921.875,720.0391 L921.875,719.1016 L921.875,718.1641 L923.1641,716.6016 L924.375,716.6016 L929.375,716.6016 L929.375,701.6016 L924.375,701.6016 L923.1641,701.6016 L921.875,700.0391 L921.875,699.1016 L921.875,698.1641 L923.1641,696.6016 L924.375,696.6016 L939.375,696.6016 L940.5859,696.6016 L941.875,698.1641 L941.875,699.1016 L941.875,700.0391 L940.5859,701.6016 L939.375,701.6016 L934.375,701.6016 Z "/><ellipse cx="995.625" cy="707.8516" fill="#84BE84" rx="7.5" ry="7.5" style="stroke: #038048; stroke-width: 2.5;"/><text fill="#000000" font-family="sans-serif" font-size="30" font-style="italic" lengthAdjust="spacingAndGlyphs" textLength="422.5" x="1010.625" y="721.377">KeypleClientReaderEventFilter</text><line style="stroke: #D4AC0D; stroke-width: 3.75;" x1="820" x2="1515" y1="749.1016" y2="749.1016"/><line style="stroke: #D4AC0D; stroke-width: 3.75;" x1="820" x2="1515" y1="769.1016" y2="769.1016"/><ellipse cx="845" cy="796.6016" fill="#84BE84" rx="7.5" ry="7.5" style="stroke: #038048; stroke-width: 2.5;"/><text fill="#000000" font-family="sans-serif" font-size="27.5" lengthAdjust="spacingAndGlyphs" textLength="565" x="867.5" y="807.6489">Object beforePropagation (ReaderEvent event)</text><ellipse cx="845" cy="831.1914" fill="#84BE84" rx="7.5" ry="7.5" style="stroke: #038048; stroke-width: 2.5;"/><text fill="#000000" font-family="sans-serif" font-size="27.5" lengthAdjust="spacingAndGlyphs" textLength="635" x="867.5" y="842.2388">Class&lt;? extends Object&gt; getUserOutputDataClass ()</text><ellipse cx="845" cy="865.7813" fill="#84BE84" rx="7.5" ry="7.5" style="stroke: #038048; stroke-width: 2.5;"/><text fill="#000000" font-family="sans-serif" font-size="27.5" lengthAdjust="spacingAndGlyphs" textLength="560" x="867.5" y="876.8286">void afterPropagation (Object userOutputData)</text><!--MD5=[fb39db77abd3bb0a48c2bb7a9833fa32]
class NativeClientUtils--><rect fill="#E9F7EF" height="189.1797" id="NativeClientUtils" style="stroke: #27AE60; stroke-width: 3.75;" width="570" x="220" y="1834.1016"/><ellipse cx="366.875" cy="1874.1016" fill="#ADD1B2" rx="27.5" ry="27.5" style="stroke: #ADD1B2; stroke-width: 2.5;"/><path d="M371.875,1865.3516 Q372.3828,1864.1016 372.9688,1863.4766 Q373.5547,1862.8516 374.2188,1862.8516 Q375.3906,1862.8516 376.1328,1863.5547 Q376.875,1864.2578 376.875,1865.8984 L376.875,1869.8047 Q376.875,1871.4453 376.1719,1872.1484 Q375.4688,1872.8516 374.375,1872.8516 Q373.3984,1872.8516 372.7734,1872.4219 Q372.1484,1871.9922 371.875,1870.8594 Q371.7578,1870.0781 371.3281,1869.6484 Q370.5469,1868.8281 369.1406,1868.3594 Q367.7344,1867.8516 366.3281,1867.8516 Q364.5703,1867.8516 363.0859,1868.5547 Q361.6406,1869.2578 360.5078,1870.8203 Q359.375,1872.3828 359.375,1874.5313 L359.375,1876.8359 Q359.375,1879.4141 361.4844,1881.1328 Q363.5938,1882.8516 367.3438,1882.8516 Q369.5703,1882.8516 371.1328,1882.3438 Q372.0313,1882.0703 373.0469,1881.1719 Q373.7109,1880.6641 374.0625,1880.5078 Q374.4141,1880.3516 374.8438,1880.3516 Q375.6641,1880.3516 376.25,1881.0156 Q376.875,1881.6406 376.875,1882.5391 Q376.875,1883.3984 376.0156,1884.4141 Q374.7656,1885.8984 372.7734,1886.7188 Q370.1563,1887.8516 366.9531,1887.8516 Q363.2031,1887.8516 360.1953,1886.3672 Q357.7734,1885.1953 356.0547,1882.6563 Q354.375,1880.1172 354.375,1877.1094 L354.375,1874.375 Q354.375,1871.25 355.8594,1868.5156 Q357.3828,1865.7813 360,1864.3359 Q362.6563,1862.8516 365.625,1862.8516 Q367.4219,1862.8516 368.9844,1863.4766 Q370.5469,1864.1016 371.875,1865.3516 Z "/><ellipse cx="430.625" cy="1872.8516" fill="#84BE84" rx="7.5" ry="7.5" style="stroke: #038048; stroke-width: 2.5;"/><text fill="#000000" font-family="sans-serif" font-size="30" font-style="italic" lengthAdjust="spacingAndGlyphs" textLength="227.5" x="445.625" y="1886.377">NativeClientUtils</text><line style="stroke: #27AE60; stroke-width: 3.75;" x1="222.5" x2="787.5" y1="1914.1016" y2="1914.1016"/><line style="stroke: #27AE60; stroke-width: 3.75;" x1="222.5" x2="787.5" y1="1934.1016" y2="1934.1016"/><ellipse cx="247.5" cy="1961.6016" fill="#84BE84" rx="7.5" ry="7.5" style="stroke: #038048; stroke-width: 2.5;"/><text fill="#000000" font-family="sans-serif" font-size="27.5" lengthAdjust="spacingAndGlyphs" text-decoration="underline" textLength="397.5" x="270" y="1972.6489">NativeClientService getService ()</text><ellipse cx="247.5" cy="1996.1914" fill="#84BE84" rx="7.5" ry="7.5" style="stroke: #038048; stroke-width: 2.5;"/><text fill="#000000" font-family="sans-serif" font-size="27.5" lengthAdjust="spacingAndGlyphs" text-decoration="underline" textLength="505" x="270" y="2007.2388">KeypleClientAsyncNode getAsyncNode ()</text><!--MD5=[8d204cd49f26b3dff763bc114793bd14]
class NativeServerUtils--><rect fill="#F4ECF7" height="189.1797" id="NativeServerUtils" style="stroke: #8E44AD; stroke-width: 3.75;" width="587.5" x="1223.75" y="1834.1016"/><ellipse cx="1374.375" cy="1874.1016" fill="#ADD1B2" rx="27.5" ry="27.5" style="stroke: #ADD1B2; stroke-width: 2.5;"/><path d="M1379.375,1865.3516 Q1379.8828,1864.1016 1380.4688,1863.4766 Q1381.0547,1862.8516 1381.7188,1862.8516 Q1382.8906,1862.8516 1383.6328,1863.5547 Q1384.375,1864.2578 1384.375,1865.8984 L1384.375,1869.8047 Q1384.375,1871.4453 1383.6719,1872.1484 Q1382.9688,1872.8516 1381.875,1872.8516 Q1380.8984,1872.8516 1380.2734,1872.4219 Q1379.6484,1871.9922 1379.375,1870.8594 Q1379.2578,1870.0781 1378.8281,1869.6484 Q1378.0469,1868.8281 1376.6406,1868.3594 Q1375.2344,1867.8516 1373.8281,1867.8516 Q1372.0703,1867.8516 1370.5859,1868.5547 Q1369.1406,1869.2578 1368.0078,1870.8203 Q1366.875,1872.3828 1366.875,1874.5313 L1366.875,1876.8359 Q1366.875,1879.4141 1368.9844,1881.1328 Q1371.0938,1882.8516 1374.8438,1882.8516 Q1377.0703,1882.8516 1378.6328,1882.3438 Q1379.5313,1882.0703 1380.5469,1881.1719 Q1381.2109,1880.6641 1381.5625,1880.5078 Q1381.9141,1880.3516 1382.3438,1880.3516 Q1383.1641,1880.3516 1383.75,1881.0156 Q1384.375,1881.6406 1384.375,1882.5391 Q1384.375,1883.3984 1383.5156,1884.4141 Q1382.2656,1885.8984 1380.2734,1886.7188 Q1377.6563,1887.8516 1374.4531,1887.8516 Q1370.7031,1887.8516 1367.6953,1886.3672 Q1365.2734,1885.1953 1363.5547,1882.6563 Q1361.875,1880.1172 1361.875,1877.1094 L1361.875,1874.375 Q1361.875,1871.25 1363.3594,1868.5156 Q1364.8828,1865.7813 1367.5,1864.3359 Q1370.1563,1862.8516 1373.125,1862.8516 Q1374.9219,1862.8516 1376.4844,1863.4766 Q1378.0469,1864.1016 1379.375,1865.3516 Z "/><ellipse cx="1438.125" cy="1872.8516" fill="#84BE84" rx="7.5" ry="7.5" style="stroke: #038048; stroke-width: 2.5;"/><text fill="#000000" font-family="sans-serif" font-size="30" font-style="italic" lengthAdjust="spacingAndGlyphs" textLength="237.5" x="1453.125" y="1886.377">NativeServerUtils</text><line style="stroke: #8E44AD; stroke-width: 3.75;" x1="1226.25" x2="1808.75" y1="1914.1016" y2="1914.1016"/><line style="stroke: #8E44AD; stroke-width: 3.75;" x1="1226.25" x2="1808.75" y1="1934.1016" y2="1934.1016"/><ellipse cx="1251.25" cy="1961.6016" fill="#84BE84" rx="7.5" ry="7.5" style="stroke: #038048; stroke-width: 2.5;"/><text fill="#000000" font-family="sans-serif" font-size="27.5" lengthAdjust="spacingAndGlyphs" text-decoration="underline" textLength="522.5" x="1273.75" y="1972.6489">KeypleServerAsyncNode getAsyncNode ()</text><ellipse cx="1251.25" cy="1996.1914" fill="#84BE84" rx="7.5" ry="7.5" style="stroke: #038048; stroke-width: 2.5;"/><text fill="#000000" font-family="sans-serif" font-size="27.5" lengthAdjust="spacingAndGlyphs" text-decoration="underline" textLength="487.5" x="1273.75" y="2007.2388">KeypleServerSyncNode getSyncNode ()</text><!--MD5=[94a4bf9818d568627c8322f048c512a6]
class NativePoolServerUtils--><rect fill="#EBF5FB" height="189.1797" id="NativePoolServerUtils" style="stroke: #3498DB; stroke-width: 3.75;" width="587.5" x="1998.75" y="1834.1016"/><ellipse cx="2118.125" cy="1874.1016" fill="#ADD1B2" rx="27.5" ry="27.5" style="stroke: #ADD1B2; stroke-width: 2.5;"/><path d="M2123.125,1865.3516 Q2123.6328,1864.1016 2124.2188,1863.4766 Q2124.8047,1862.8516 2125.4688,1862.8516 Q2126.6406,1862.8516 2127.3828,1863.5547 Q2128.125,1864.2578 2128.125,1865.8984 L2128.125,1869.8047 Q2128.125,1871.4453 2127.4219,1872.1484 Q2126.7188,1872.8516 2125.625,1872.8516 Q2124.6484,1872.8516 2124.0234,1872.4219 Q2123.3984,1871.9922 2123.125,1870.8594 Q2123.0078,1870.0781 2122.5781,1869.6484 Q2121.7969,1868.8281 2120.3906,1868.3594 Q2118.9844,1867.8516 2117.5781,1867.8516 Q2115.8203,1867.8516 2114.3359,1868.5547 Q2112.8906,1869.2578 2111.7578,1870.8203 Q2110.625,1872.3828 2110.625,1874.5313 L2110.625,1876.8359 Q2110.625,1879.4141 2112.7344,1881.1328 Q2114.8438,1882.8516 2118.5938,1882.8516 Q2120.8203,1882.8516 2122.3828,1882.3438 Q2123.2813,1882.0703 2124.2969,1881.1719 Q2124.9609,1880.6641 2125.3125,1880.5078 Q2125.6641,1880.3516 2126.0938,1880.3516 Q2126.9141,1880.3516 2127.5,1881.0156 Q2128.125,1881.6406 2128.125,1882.5391 Q2128.125,1883.3984 2127.2656,1884.4141 Q2126.0156,1885.8984 2124.0234,1886.7188 Q2121.4063,1887.8516 2118.2031,1887.8516 Q2114.4531,1887.8516 2111.4453,1886.3672 Q2109.0234,1885.1953 2107.3047,1882.6563 Q2105.625,1880.1172 2105.625,1877.1094 L2105.625,1874.375 Q2105.625,1871.25 2107.1094,1868.5156 Q2108.6328,1865.7813 2111.25,1864.3359 Q2113.9063,1862.8516 2116.875,1862.8516 Q2118.6719,1862.8516 2120.2344,1863.4766 Q2121.7969,1864.1016 2123.125,1865.3516 Z "/><ellipse cx="2181.875" cy="1872.8516" fill="#84BE84" rx="7.5" ry="7.5" style="stroke: #038048; stroke-width: 2.5;"/><text fill="#000000" font-family="sans-serif" font-size="30" font-style="italic" lengthAdjust="spacingAndGlyphs" textLength="300" x="2196.875" y="1886.377">NativePoolServerUtils</text><line style="stroke: #3498DB; stroke-width: 3.75;" x1="2001.25" x2="2583.75" y1="1914.1016" y2="1914.1016"/><line style="stroke: #3498DB; stroke-width: 3.75;" x1="2001.25" x2="2583.75" y1="1934.1016" y2="1934.1016"/><ellipse cx="2026.25" cy="1961.6016" fill="#84BE84" rx="7.5" ry="7.5" style="stroke: #038048; stroke-width: 2.5;"/><text fill="#000000" font-family="sans-serif" font-size="27.5" lengthAdjust="spacingAndGlyphs" text-decoration="underline" textLength="522.5" x="2048.75" y="1972.6489">KeypleServerAsyncNode getAsyncNode ()</text><ellipse cx="2026.25" cy="1996.1914" fill="#84BE84" rx="7.5" ry="7.5" style="stroke: #038048; stroke-width: 2.5;"/><text fill="#000000" font-family="sans-serif" font-size="27.5" lengthAdjust="spacingAndGlyphs" text-decoration="underline" textLength="487.5" x="2048.75" y="2007.2388">KeypleServerSyncNode getSyncNode ()</text><!--MD5=[d9aa2ffc2189db27e23e08a219f2384b]
class NativeClientServiceFactory--><rect fill="#E9F7EF" height="154.5898" id="NativeClientServiceFactory" style="stroke: #27AE60; stroke-width: 3.75;" width="477.5" x="298.75" y="2176.6016"/><ellipse cx="336.25" cy="2216.6016" fill="#ADD1B2" rx="27.5" ry="27.5" style="stroke: #ADD1B2; stroke-width: 2.5;"/><path d="M341.25,2207.8516 Q341.7578,2206.6016 342.3438,2205.9766 Q342.9297,2205.3516 343.5938,2205.3516 Q344.7656,2205.3516 345.5078,2206.0547 Q346.25,2206.7578 346.25,2208.3984 L346.25,2212.3047 Q346.25,2213.9453 345.5469,2214.6484 Q344.8438,2215.3516 343.75,2215.3516 Q342.7734,2215.3516 342.1484,2214.9219 Q341.5234,2214.4922 341.25,2213.3594 Q341.1328,2212.5781 340.7031,2212.1484 Q339.9219,2211.3281 338.5156,2210.8594 Q337.1094,2210.3516 335.7031,2210.3516 Q333.9453,2210.3516 332.4609,2211.0547 Q331.0156,2211.7578 329.8828,2213.3203 Q328.75,2214.8828 328.75,2217.0313 L328.75,2219.3359 Q328.75,2221.9141 330.8594,2223.6328 Q332.9688,2225.3516 336.7188,2225.3516 Q338.9453,2225.3516 340.5078,2224.8438 Q341.4063,2224.5703 342.4219,2223.6719 Q343.0859,2223.1641 343.4375,2223.0078 Q343.7891,2222.8516 344.2188,2222.8516 Q345.0391,2222.8516 345.625,2223.5156 Q346.25,2224.1406 346.25,2225.0391 Q346.25,2225.8984 345.3906,2226.9141 Q344.1406,2228.3984 342.1484,2229.2188 Q339.5313,2230.3516 336.3281,2230.3516 Q332.5781,2230.3516 329.5703,2228.8672 Q327.1484,2227.6953 325.4297,2225.1563 Q323.75,2222.6172 323.75,2219.6094 L323.75,2216.875 Q323.75,2213.75 325.2344,2211.0156 Q326.7578,2208.2813 329.375,2206.8359 Q332.0313,2205.3516 335,2205.3516 Q336.7969,2205.3516 338.3594,2205.9766 Q339.9219,2206.6016 341.25,2207.8516 Z "/><ellipse cx="383.75" cy="2215.3516" fill="#84BE84" rx="7.5" ry="7.5" style="stroke: #038048; stroke-width: 2.5;"/><text fill="#000000" font-family="sans-serif" font-size="30" font-style="italic" lengthAdjust="spacingAndGlyphs" textLength="370" x="398.75" y="2228.877">NativeClientServiceFactory</text><line style="stroke: #27AE60; stroke-width: 3.75;" x1="301.25" x2="773.75" y1="2256.6016" y2="2256.6016"/><line style="stroke: #27AE60; stroke-width: 3.75;" x1="301.25" x2="773.75" y1="2276.6016" y2="2276.6016"/><ellipse cx="326.25" cy="2304.1016" fill="#84BE84" rx="7.5" ry="7.5" style="stroke: #038048; stroke-width: 2.5;"/><text fill="#000000" font-family="sans-serif" font-size="27.5" lengthAdjust="spacingAndGlyphs" text-decoration="underline" textLength="232.5" x="348.75" y="2315.1489">NodeStep builder ()</text><!--MD5=[b35ea26adc65ac586f4d85321ebd0130]
class NativeClientServiceFactoryNodeStep--><rect fill="#E9F7EF" height="189.1797" id="NativeClientServiceFactoryNodeStep" style="stroke: #27AE60; stroke-width: 3.75;" width="780" x="155" y="2484.1016"/><ellipse cx="451.875" cy="2524.1016" fill="#B4A7E5" rx="27.5" ry="27.5" style="stroke: #B4A7E5; stroke-width: 2.5;"/><path d="M454.375,2516.6016 L454.375,2531.6016 L459.375,2531.6016 L460.5859,2531.6016 L461.875,2533.1641 L461.875,2534.1016 L461.875,2535.0391 L460.5859,2536.6016 L459.375,2536.6016 L444.375,2536.6016 L443.1641,2536.6016 L441.875,2535.0391 L441.875,2534.1016 L441.875,2533.1641 L443.1641,2531.6016 L444.375,2531.6016 L449.375,2531.6016 L449.375,2516.6016 L444.375,2516.6016 L443.1641,2516.6016 L441.875,2515.0391 L441.875,2514.1016 L441.875,2513.1641 L443.1641,2511.6016 L444.375,2511.6016 L459.375,2511.6016 L460.5859,2511.6016 L461.875,2513.1641 L461.875,2514.1016 L461.875,2515.0391 L460.5859,2516.6016 L459.375,2516.6016 L454.375,2516.6016 Z "/><ellipse cx="515.625" cy="2522.8516" fill="#84BE84" rx="7.5" ry="7.5" style="stroke: #038048; stroke-width: 2.5;"/><text fill="#000000" font-family="sans-serif" font-size="30" font-style="italic" lengthAdjust="spacingAndGlyphs" textLength="137.5" x="530.625" y="2536.377">NodeStep</text><line style="stroke: #27AE60; stroke-width: 3.75;" x1="157.5" x2="932.5" y1="2564.1016" y2="2564.1016"/><line style="stroke: #27AE60; stroke-width: 3.75;" x1="157.5" x2="932.5" y1="2584.1016" y2="2584.1016"/><ellipse cx="182.5" cy="2611.6016" fill="#84BE84" rx="7.5" ry="7.5" style="stroke: #038048; stroke-width: 2.5;"/><text fill="#000000" font-family="sans-serif" font-size="27.5" lengthAdjust="spacingAndGlyphs" textLength="715" x="205" y="2622.6489">TimeoutStep withAsyncNode (KeypleClientAsync endpoint)</text><ellipse cx="182.5" cy="2646.1914" fill="#84BE84" rx="7.5" ry="7.5" style="stroke: #038048; stroke-width: 2.5;"/><text fill="#000000" font-family="sans-serif" font-size="27.5" lengthAdjust="spacingAndGlyphs" textLength="675" x="205" y="2657.2388">ReaderStep withSyncNode (KeypleClientSync endpoint)</text><!--MD5=[217136a9ce1011db389c44572dfd4479]
class NativeClientServiceFactoryTimeoutStep--><rect fill="#E9F7EF" height="189.1797" id="NativeClientServiceFactoryTimeoutStep" style="stroke: #27AE60; stroke-width: 3.75;" width="737.5" x="161.25" y="2826.6016"/><ellipse cx="418.125" cy="2866.6016" fill="#B4A7E5" rx="27.5" ry="27.5" style="stroke: #B4A7E5; stroke-width: 2.5;"/><path d="M420.625,2859.1016 L420.625,2874.1016 L425.625,2874.1016 L426.8359,2874.1016 L428.125,2875.6641 L428.125,2876.6016 L428.125,2877.5391 L426.8359,2879.1016 L425.625,2879.1016 L410.625,2879.1016 L409.4141,2879.1016 L408.125,2877.5391 L408.125,2876.6016 L408.125,2875.6641 L409.4141,2874.1016 L410.625,2874.1016 L415.625,2874.1016 L415.625,2859.1016 L410.625,2859.1016 L409.4141,2859.1016 L408.125,2857.5391 L408.125,2856.6016 L408.125,2855.6641 L409.4141,2854.1016 L410.625,2854.1016 L425.625,2854.1016 L426.8359,2854.1016 L428.125,2855.6641 L428.125,2856.6016 L428.125,2857.5391 L426.8359,2859.1016 L425.625,2859.1016 L420.625,2859.1016 Z "/><ellipse cx="481.875" cy="2865.3516" fill="#84BE84" rx="7.5" ry="7.5" style="stroke: #038048; stroke-width: 2.5;"/><text fill="#000000" font-family="sans-serif" font-size="30" font-style="italic" lengthAdjust="spacingAndGlyphs" textLength="175" x="496.875" y="2878.877">TimeoutStep</text><line style="stroke: #27AE60; stroke-width: 3.75;" x1="163.75" x2="896.25" y1="2906.6016" y2="2906.6016"/><line style="stroke: #27AE60; stroke-width: 3.75;" x1="163.75" x2="896.25" y1="2926.6016" y2="2926.6016"/><ellipse cx="188.75" cy="2954.1016" fill="#84BE84" rx="7.5" ry="7.5" style="stroke: #038048; stroke-width: 2.5;"/><text fill="#000000" font-family="sans-serif" font-size="27.5" lengthAdjust="spacingAndGlyphs" textLength="420" x="211.25" y="2965.1489">ReaderStep usingDefaultTimeout ()</text><ellipse cx="188.75" cy="2988.6914" fill="#84BE84" rx="7.5" ry="7.5" style="stroke: #038048; stroke-width: 2.5;"/><text fill="#000000" font-family="sans-serif" font-size="27.5" lengthAdjust="spacingAndGlyphs" textLength="672.5" x="211.25" y="2999.7388">ReaderStep usingCustomTimeout (int timeoutInSeconds)</text><!--MD5=[ae66cba9a7fc555cac50e237570b4688]
class NativeClientServiceFactoryReaderStep--><rect fill="#E9F7EF" height="189.1797" id="NativeClientServiceFactoryReaderStep" style="stroke: #27AE60; stroke-width: 3.75;" width="945" x="335" y="3169.1016"/><ellipse cx="700.625" cy="3209.1016" fill="#B4A7E5" rx="27.5" ry="27.5" style="stroke: #B4A7E5; stroke-width: 2.5;"/><path d="M703.125,3201.6016 L703.125,3216.6016 L708.125,3216.6016 L709.3359,3216.6016 L710.625,3218.1641 L710.625,3219.1016 L710.625,3220.0391 L709.3359,3221.6016 L708.125,3221.6016 L693.125,3221.6016 L691.9141,3221.6016 L690.625,3220.0391 L690.625,3219.1016 L690.625,3218.1641 L691.9141,3216.6016 L693.125,3216.6016 L698.125,3216.6016 L698.125,3201.6016 L693.125,3201.6016 L691.9141,3201.6016 L690.625,3200.0391 L690.625,3199.1016 L690.625,3198.1641 L691.9141,3196.6016 L693.125,3196.6016 L708.125,3196.6016 L709.3359,3196.6016 L710.625,3198.1641 L710.625,3199.1016 L710.625,3200.0391 L709.3359,3201.6016 L708.125,3201.6016 L703.125,3201.6016 Z "/><ellipse cx="764.375" cy="3207.8516" fill="#84BE84" rx="7.5" ry="7.5" style="stroke: #038048; stroke-width: 2.5;"/><text fill="#000000" font-family="sans-serif" font-size="30" font-style="italic" lengthAdjust="spacingAndGlyphs" textLength="165" x="779.375" y="3221.377">ReaderStep</text><line style="stroke: #27AE60; stroke-width: 3.75;" x1="337.5" x2="1277.5" y1="3249.1016" y2="3249.1016"/><line style="stroke: #27AE60; stroke-width: 3.75;" x1="337.5" x2="1277.5" y1="3269.1016" y2="3269.1016"/><ellipse cx="362.5" cy="3296.6016" fill="#84BE84" rx="7.5" ry="7.5" style="stroke: #038048; stroke-width: 2.5;"/><text fill="#000000" font-family="sans-serif" font-size="27.5" lengthAdjust="spacingAndGlyphs" textLength="880" x="385" y="3307.6489">BuilderStep withReaderObservation (KeypleClientReaderEventFilter filter)</text><ellipse cx="362.5" cy="3331.1914" fill="#84BE84" rx="7.5" ry="7.5" style="stroke: #038048; stroke-width: 2.5;"/><text fill="#000000" font-family="sans-serif" font-size="27.5" lengthAdjust="spacingAndGlyphs" textLength="497.5" x="385" y="3342.2388">BuilderStep withoutReaderObservation ()</text><!--MD5=[a3afc78e4d72e14bc3d0694f519237d8]
class NativeClientServiceFactoryBuilderStep--><rect fill="#E9F7EF" height="154.5898" id="NativeClientServiceFactoryBuilderStep" style="stroke: #27AE60; stroke-width: 3.75;" width="462.5" x="576.25" y="3511.6016"/><ellipse cx="703.125" cy="3551.6016" fill="#B4A7E5" rx="27.5" ry="27.5" style="stroke: #B4A7E5; stroke-width: 2.5;"/><path d="M705.625,3544.1016 L705.625,3559.1016 L710.625,3559.1016 L711.8359,3559.1016 L713.125,3560.6641 L713.125,3561.6016 L713.125,3562.5391 L711.8359,3564.1016 L710.625,3564.1016 L695.625,3564.1016 L694.4141,3564.1016 L693.125,3562.5391 L693.125,3561.6016 L693.125,3560.6641 L694.4141,3559.1016 L695.625,3559.1016 L700.625,3559.1016 L700.625,3544.1016 L695.625,3544.1016 L694.4141,3544.1016 L693.125,3542.5391 L693.125,3541.6016 L693.125,3540.6641 L694.4141,3539.1016 L695.625,3539.1016 L710.625,3539.1016 L711.8359,3539.1016 L713.125,3540.6641 L713.125,3541.6016 L713.125,3542.5391 L711.8359,3544.1016 L710.625,3544.1016 L705.625,3544.1016 Z "/><ellipse cx="766.875" cy="3550.3516" fill="#84BE84" rx="7.5" ry="7.5" style="stroke: #038048; stroke-width: 2.5;"/><text fill="#000000" font-family="sans-serif" font-size="30" font-style="italic" lengthAdjust="spacingAndGlyphs" textLength="160" x="781.875" y="3563.877">BuilderStep</text><line style="stroke: #27AE60; stroke-width: 3.75;" x1="578.75" x2="1036.25" y1="3591.6016" y2="3591.6016"/><line style="stroke: #27AE60; stroke-width: 3.75;" x1="578.75" x2="1036.25" y1="3611.6016" y2="3611.6016"/><ellipse cx="603.75" cy="3639.1016" fill="#84BE84" rx="7.5" ry="7.5" style="stroke: #038048; stroke-width: 2.5;"/><text fill="#000000" font-family="sans-serif" font-size="27.5" lengthAdjust="spacingAndGlyphs" textLength="397.5" x="626.25" y="3650.1489">NativeClientService getService ()</text><!--MD5=[49f20237ea8560a56bda0b53eded792d]
class NativeServerServiceFactory--><rect fill="#F4ECF7" height="154.5898" id="NativeServerServiceFactory" style="stroke: #8E44AD; stroke-width: 3.75;" width="487.5" x="1211.25" y="2176.6016"/><ellipse cx="1248.75" cy="2216.6016" fill="#ADD1B2" rx="27.5" ry="27.5" style="stroke: #ADD1B2; stroke-width: 2.5;"/><path d="M1253.75,2207.8516 Q1254.2578,2206.6016 1254.8438,2205.9766 Q1255.4297,2205.3516 1256.0938,2205.3516 Q1257.2656,2205.3516 1258.0078,2206.0547 Q1258.75,2206.7578 1258.75,2208.3984 L1258.75,2212.3047 Q1258.75,2213.9453 1258.0469,2214.6484 Q1257.3438,2215.3516 1256.25,2215.3516 Q1255.2734,2215.3516 1254.6484,2214.9219 Q1254.0234,2214.4922 1253.75,2213.3594 Q1253.6328,2212.5781 1253.2031,2212.1484 Q1252.4219,2211.3281 1251.0156,2210.8594 Q1249.6094,2210.3516 1248.2031,2210.3516 Q1246.4453,2210.3516 1244.9609,2211.0547 Q1243.5156,2211.7578 1242.3828,2213.3203 Q1241.25,2214.8828 1241.25,2217.0313 L1241.25,2219.3359 Q1241.25,2221.9141 1243.3594,2223.6328 Q1245.4688,2225.3516 1249.2188,2225.3516 Q1251.4453,2225.3516 1253.0078,2224.8438 Q1253.9063,2224.5703 1254.9219,2223.6719 Q1255.5859,2223.1641 1255.9375,2223.0078 Q1256.2891,2222.8516 1256.7188,2222.8516 Q1257.5391,2222.8516 1258.125,2223.5156 Q1258.75,2224.1406 1258.75,2225.0391 Q1258.75,2225.8984 1257.8906,2226.9141 Q1256.6406,2228.3984 1254.6484,2229.2188 Q1252.0313,2230.3516 1248.8281,2230.3516 Q1245.0781,2230.3516 1242.0703,2228.8672 Q1239.6484,2227.6953 1237.9297,2225.1563 Q1236.25,2222.6172 1236.25,2219.6094 L1236.25,2216.875 Q1236.25,2213.75 1237.7344,2211.0156 Q1239.2578,2208.2813 1241.875,2206.8359 Q1244.5313,2205.3516 1247.5,2205.3516 Q1249.2969,2205.3516 1250.8594,2205.9766 Q1252.4219,2206.6016 1253.75,2207.8516 Z "/><ellipse cx="1296.25" cy="2215.3516" fill="#84BE84" rx="7.5" ry="7.5" style="stroke: #038048; stroke-width: 2.5;"/><text fill="#000000" font-family="sans-serif" font-size="30" font-style="italic" lengthAdjust="spacingAndGlyphs" textLength="380" x="1311.25" y="2228.877">NativeServerServiceFactory</text><line style="stroke: #8E44AD; stroke-width: 3.75;" x1="1213.75" x2="1696.25" y1="2256.6016" y2="2256.6016"/><line style="stroke: #8E44AD; stroke-width: 3.75;" x1="1213.75" x2="1696.25" y1="2276.6016" y2="2276.6016"/><ellipse cx="1238.75" cy="2304.1016" fill="#84BE84" rx="7.5" ry="7.5" style="stroke: #038048; stroke-width: 2.5;"/><text fill="#000000" font-family="sans-serif" font-size="27.5" lengthAdjust="spacingAndGlyphs" text-decoration="underline" textLength="232.5" x="1261.25" y="2315.1489">NodeStep builder ()</text><!--MD5=[f69ff7b6a9a207e4ff2b5495be5b7d43]
class NativeServerServiceFactoryNodeStep--><rect fill="#F4ECF7" height="189.1797" id="NativeServerServiceFactoryNodeStep" style="stroke: #8E44AD; stroke-width: 3.75;" width="787.5" x="1023.75" y="2484.1016"/><ellipse cx="1324.375" cy="2524.1016" fill="#B4A7E5" rx="27.5" ry="27.5" style="stroke: #B4A7E5; stroke-width: 2.5;"/><path d="M1326.875,2516.6016 L1326.875,2531.6016 L1331.875,2531.6016 L1333.0859,2531.6016 L1334.375,2533.1641 L1334.375,2534.1016 L1334.375,2535.0391 L1333.0859,2536.6016 L1331.875,2536.6016 L1316.875,2536.6016 L1315.6641,2536.6016 L1314.375,2535.0391 L1314.375,2534.1016 L1314.375,2533.1641 L1315.6641,2531.6016 L1316.875,2531.6016 L1321.875,2531.6016 L1321.875,2516.6016 L1316.875,2516.6016 L1315.6641,2516.6016 L1314.375,2515.0391 L1314.375,2514.1016 L1314.375,2513.1641 L1315.6641,2511.6016 L1316.875,2511.6016 L1331.875,2511.6016 L1333.0859,2511.6016 L1334.375,2513.1641 L1334.375,2514.1016 L1334.375,2515.0391 L1333.0859,2516.6016 L1331.875,2516.6016 L1326.875,2516.6016 Z "/><ellipse cx="1388.125" cy="2522.8516" fill="#84BE84" rx="7.5" ry="7.5" style="stroke: #038048; stroke-width: 2.5;"/><text fill="#000000" font-family="sans-serif" font-size="30" font-style="italic" lengthAdjust="spacingAndGlyphs" textLength="137.5" x="1403.125" y="2536.377">NodeStep</text><line style="stroke: #8E44AD; stroke-width: 3.75;" x1="1026.25" x2="1808.75" y1="2564.1016" y2="2564.1016"/><line style="stroke: #8E44AD; stroke-width: 3.75;" x1="1026.25" x2="1808.75" y1="2584.1016" y2="2584.1016"/><ellipse cx="1051.25" cy="2611.6016" fill="#84BE84" rx="7.5" ry="7.5" style="stroke: #038048; stroke-width: 2.5;"/><text fill="#000000" font-family="sans-serif" font-size="27.5" lengthAdjust="spacingAndGlyphs" textLength="722.5" x="1073.75" y="2622.6489">BuilderStep withAsyncNode (KeypleServerAsync endpoint)</text><ellipse cx="1051.25" cy="2646.1914" fill="#84BE84" rx="7.5" ry="7.5" style="stroke: #038048; stroke-width: 2.5;"/><text fill="#000000" font-family="sans-serif" font-size="27.5" lengthAdjust="spacingAndGlyphs" textLength="350" x="1073.75" y="2657.2388">BuilderStep withSyncNode ()</text><!--MD5=[20e0e66721e7954f4baecf46f4c70c82]
class NativeServerServiceFactoryBuilderStep--><rect fill="#F4ECF7" height="154.5898" id="NativeServerServiceFactoryBuilderStep" style="stroke: #8E44AD; stroke-width: 3.75;" width="480" x="1177.5" y="2844.1016"/><ellipse cx="1313.125" cy="2884.1016" fill="#B4A7E5" rx="27.5" ry="27.5" style="stroke: #B4A7E5; stroke-width: 2.5;"/><path d="M1315.625,2876.6016 L1315.625,2891.6016 L1320.625,2891.6016 L1321.8359,2891.6016 L1323.125,2893.1641 L1323.125,2894.1016 L1323.125,2895.0391 L1321.8359,2896.6016 L1320.625,2896.6016 L1305.625,2896.6016 L1304.4141,2896.6016 L1303.125,2895.0391 L1303.125,2894.1016 L1303.125,2893.1641 L1304.4141,2891.6016 L1305.625,2891.6016 L1310.625,2891.6016 L1310.625,2876.6016 L1305.625,2876.6016 L1304.4141,2876.6016 L1303.125,2875.0391 L1303.125,2874.1016 L1303.125,2873.1641 L1304.4141,2871.6016 L1305.625,2871.6016 L1320.625,2871.6016 L1321.8359,2871.6016 L1323.125,2873.1641 L1323.125,2874.1016 L1323.125,2875.0391 L1321.8359,2876.6016 L1320.625,2876.6016 L1315.625,2876.6016 Z "/><ellipse cx="1376.875" cy="2882.8516" fill="#84BE84" rx="7.5" ry="7.5" style="stroke: #038048; stroke-width: 2.5;"/><text fill="#000000" font-family="sans-serif" font-size="30" font-style="italic" lengthAdjust="spacingAndGlyphs" textLength="160" x="1391.875" y="2896.377">BuilderStep</text><line style="stroke: #8E44AD; stroke-width: 3.75;" x1="1180" x2="1655" y1="2924.1016" y2="2924.1016"/><line style="stroke: #8E44AD; stroke-width: 3.75;" x1="1180" x2="1655" y1="2944.1016" y2="2944.1016"/><ellipse cx="1205" cy="2971.6016" fill="#84BE84" rx="7.5" ry="7.5" style="stroke: #038048; stroke-width: 2.5;"/><text fill="#000000" font-family="sans-serif" font-size="27.5" lengthAdjust="spacingAndGlyphs" textLength="415" x="1227.5" y="2982.6489">NativeServerService getService ()</text><!--MD5=[2f9c3d916f2c4abd1c633af2d5f6d2b1]
class NativePoolServerServiceFactory--><rect fill="#EBF5FB" height="154.5898" id="NativePoolServerServiceFactory" style="stroke: #3498DB; stroke-width: 3.75;" width="550" x="2017.5" y="2176.6016"/><ellipse cx="2055" cy="2216.6016" fill="#ADD1B2" rx="27.5" ry="27.5" style="stroke: #ADD1B2; stroke-width: 2.5;"/><path d="M2060,2207.8516 Q2060.5078,2206.6016 2061.0938,2205.9766 Q2061.6797,2205.3516 2062.3438,2205.3516 Q2063.5156,2205.3516 2064.2578,2206.0547 Q2065,2206.7578 2065,2208.3984 L2065,2212.3047 Q2065,2213.9453 2064.2969,2214.6484 Q2063.5938,2215.3516 2062.5,2215.3516 Q2061.5234,2215.3516 2060.8984,2214.9219 Q2060.2734,2214.4922 2060,2213.3594 Q2059.8828,2212.5781 2059.4531,2212.1484 Q2058.6719,2211.3281 2057.2656,2210.8594 Q2055.8594,2210.3516 2054.4531,2210.3516 Q2052.6953,2210.3516 2051.2109,2211.0547 Q2049.7656,2211.7578 2048.6328,2213.3203 Q2047.5,2214.8828 2047.5,2217.0313 L2047.5,2219.3359 Q2047.5,2221.9141 2049.6094,2223.6328 Q2051.7188,2225.3516 2055.4688,2225.3516 Q2057.6953,2225.3516 2059.2578,2224.8438 Q2060.1563,2224.5703 2061.1719,2223.6719 Q2061.8359,2223.1641 2062.1875,2223.0078 Q2062.5391,2222.8516 2062.9688,2222.8516 Q2063.7891,2222.8516 2064.375,2223.5156 Q2065,2224.1406 2065,2225.0391 Q2065,2225.8984 2064.1406,2226.9141 Q2062.8906,2228.3984 2060.8984,2229.2188 Q2058.2813,2230.3516 2055.0781,2230.3516 Q2051.3281,2230.3516 2048.3203,2228.8672 Q2045.8984,2227.6953 2044.1797,2225.1563 Q2042.5,2222.6172 2042.5,2219.6094 L2042.5,2216.875 Q2042.5,2213.75 2043.9844,2211.0156 Q2045.5078,2208.2813 2048.125,2206.8359 Q2050.7813,2205.3516 2053.75,2205.3516 Q2055.5469,2205.3516 2057.1094,2205.9766 Q2058.6719,2206.6016 2060,2207.8516 Z "/><ellipse cx="2102.5" cy="2215.3516" fill="#84BE84" rx="7.5" ry="7.5" style="stroke: #038048; stroke-width: 2.5;"/><text fill="#000000" font-family="sans-serif" font-size="30" font-style="italic" lengthAdjust="spacingAndGlyphs" textLength="442.5" x="2117.5" y="2228.877">NativePoolServerServiceFactory</text><line style="stroke: #3498DB; stroke-width: 3.75;" x1="2020" x2="2565" y1="2256.6016" y2="2256.6016"/><line style="stroke: #3498DB; stroke-width: 3.75;" x1="2020" x2="2565" y1="2276.6016" y2="2276.6016"/><ellipse cx="2045" cy="2304.1016" fill="#84BE84" rx="7.5" ry="7.5" style="stroke: #038048; stroke-width: 2.5;"/><text fill="#000000" font-family="sans-serif" font-size="27.5" lengthAdjust="spacingAndGlyphs" text-decoration="underline" textLength="232.5" x="2067.5" y="2315.1489">NodeStep builder ()</text><!--MD5=[cc851e4a64a45fe0de4bc3ab0eb70e30]
class NativePoolServerServiceFactoryNodeStep--><rect fill="#EBF5FB" height="189.1797" id="NativePoolServerServiceFactoryNodeStep" style="stroke: #3498DB; stroke-width: 3.75;" width="787.5" x="1898.75" y="2484.1016"/><ellipse cx="2199.375" cy="2524.1016" fill="#B4A7E5" rx="27.5" ry="27.5" style="stroke: #B4A7E5; stroke-width: 2.5;"/><path d="M2201.875,2516.6016 L2201.875,2531.6016 L2206.875,2531.6016 L2208.0859,2531.6016 L2209.375,2533.1641 L2209.375,2534.1016 L2209.375,2535.0391 L2208.0859,2536.6016 L2206.875,2536.6016 L2191.875,2536.6016 L2190.6641,2536.6016 L2189.375,2535.0391 L2189.375,2534.1016 L2189.375,2533.1641 L2190.6641,2531.6016 L2191.875,2531.6016 L2196.875,2531.6016 L2196.875,2516.6016 L2191.875,2516.6016 L2190.6641,2516.6016 L2189.375,2515.0391 L2189.375,2514.1016 L2189.375,2513.1641 L2190.6641,2511.6016 L2191.875,2511.6016 L2206.875,2511.6016 L2208.0859,2511.6016 L2209.375,2513.1641 L2209.375,2514.1016 L2209.375,2515.0391 L2208.0859,2516.6016 L2206.875,2516.6016 L2201.875,2516.6016 Z "/><ellipse cx="2263.125" cy="2522.8516" fill="#84BE84" rx="7.5" ry="7.5" style="stroke: #038048; stroke-width: 2.5;"/><text fill="#000000" font-family="sans-serif" font-size="30" font-style="italic" lengthAdjust="spacingAndGlyphs" textLength="137.5" x="2278.125" y="2536.377">NodeStep</text><line style="stroke: #3498DB; stroke-width: 3.75;" x1="1901.25" x2="2683.75" y1="2564.1016" y2="2564.1016"/><line style="stroke: #3498DB; stroke-width: 3.75;" x1="1901.25" x2="2683.75" y1="2584.1016" y2="2584.1016"/><ellipse cx="1926.25" cy="2611.6016" fill="#84BE84" rx="7.5" ry="7.5" style="stroke: #038048; stroke-width: 2.5;"/><text fill="#000000" font-family="sans-serif" font-size="27.5" lengthAdjust="spacingAndGlyphs" textLength="722.5" x="1948.75" y="2622.6489">BuilderStep withAsyncNode (KeypleServerAsync endpoint)</text><ellipse cx="1926.25" cy="2646.1914" fill="#84BE84" rx="7.5" ry="7.5" style="stroke: #038048; stroke-width: 2.5;"/><text fill="#000000" font-family="sans-serif" font-size="27.5" lengthAdjust="spacingAndGlyphs" textLength="350" x="1948.75" y="2657.2388">BuilderStep withSyncNode ()</text><!--MD5=[6c5f7ded69ecf3cd06a7e0f8bbf96324]
class NativePoolServerServiceFactoryBuilderStep--><rect fill="#EBF5FB" height="154.5898" id="NativePoolServerServiceFactoryBuilderStep" style="stroke: #3498DB; stroke-width: 3.75;" width="530" x="2027.5" y="2844.1016"/><ellipse cx="2188.125" cy="2884.1016" fill="#B4A7E5" rx="27.5" ry="27.5" style="stroke: #B4A7E5; stroke-width: 2.5;"/><path d="M2190.625,2876.6016 L2190.625,2891.6016 L2195.625,2891.6016 L2196.8359,2891.6016 L2198.125,2893.1641 L2198.125,2894.1016 L2198.125,2895.0391 L2196.8359,2896.6016 L2195.625,2896.6016 L2180.625,2896.6016 L2179.4141,2896.6016 L2178.125,2895.0391 L2178.125,2894.1016 L2178.125,2893.1641 L2179.4141,2891.6016 L2180.625,2891.6016 L2185.625,2891.6016 L2185.625,2876.6016 L2180.625,2876.6016 L2179.4141,2876.6016 L2178.125,2875.0391 L2178.125,2874.1016 L2178.125,2873.1641 L2179.4141,2871.6016 L2180.625,2871.6016 L2195.625,2871.6016 L2196.8359,2871.6016 L2198.125,2873.1641 L2198.125,2874.1016 L2198.125,2875.0391 L2196.8359,2876.6016 L2195.625,2876.6016 L2190.625,2876.6016 Z "/><ellipse cx="2251.875" cy="2882.8516" fill="#84BE84" rx="7.5" ry="7.5" style="stroke: #038048; stroke-width: 2.5;"/><text fill="#000000" font-family="sans-serif" font-size="30" font-style="italic" lengthAdjust="spacingAndGlyphs" textLength="160" x="2266.875" y="2896.377">BuilderStep</text><line style="stroke: #3498DB; stroke-width: 3.75;" x1="2030" x2="2555" y1="2924.1016" y2="2924.1016"/><line style="stroke: #3498DB; stroke-width: 3.75;" x1="2030" x2="2555" y1="2944.1016" y2="2944.1016"/><ellipse cx="2055" cy="2971.6016" fill="#84BE84" rx="7.5" ry="7.5" style="stroke: #038048; stroke-width: 2.5;"/><text fill="#000000" font-family="sans-serif" font-size="27.5" lengthAdjust="spacingAndGlyphs" textLength="465" x="2077.5" y="2982.6489">NativePoolServerService getService ()</text><!--MD5=[0d71c8874346676920768b47975e96be]
link NativeClientService to RemoteServiceParameters--><path d="M455.03,894.4266 C460.3775,953.2516 466.8725,1024.7016 471.8975,1079.9766 " fill="none" id="NativeClientService-&gt;RemoteServiceParameters" style="stroke: #27AE60; stroke-width: 2.5; stroke-dasharray: 7.0,7.0;"/><polygon fill="#27AE60" points="473.0775,1092.9516,481.0452,1069.6542,471.9703,1080.5007,461.1238,1071.4258,473.0775,1092.9516" style="stroke: #27AE60; stroke-width: 2.5;"/><text fill="#000000" font-family="sans-serif" font-size="32.5" lengthAdjust="spacingAndGlyphs" textLength="52.5" x="470" y="1010.3394">use</text><polygon fill="#000000" points="485,1032.4805,492.5,1047.4805,500,1032.4805,485,1032.4805" style="stroke: #000000; stroke-width: 2.5;"/><!--MD5=[67388e983a21b7fb718f5f064a2e9e7f]
reverse link RemoteServiceParameters to RemoteServiceParametersBuilder--><path d="M487.5775,1287.7516 C490.025,1324.4716 492.7325,1365.0866 495.1625,1401.5341 " fill="none" id="RemoteServiceParameters&lt;-RemoteServiceParametersBuilder" style="stroke: #3498DB; stroke-width: 2.5;"/><ellipse cx="486.3833" cy="1269.8071" fill="#FFFFFF" rx="20" ry="20" style="stroke: #3498DB; stroke-width: 2.5;"/><line style="stroke: #3498DB; stroke-width: 2.5;" x1="487.7166" x2="485.05" y1="1289.7626" y2="1249.8516"/><line style="stroke: #3498DB; stroke-width: 2.5;" x1="466.4278" x2="506.3388" y1="1271.1404" y2="1268.4738"/><!--MD5=[fd02354db697c6da30fb7998a11e67cd]
link NativeClientServiceFactory to NativeClientServiceFactoryNodeStep--><path d="M539.2575,2331.6266 C540.2325,2373.1666 541.4575,2425.4691 542.5275,2471.0691 " fill="none" id="NativeClientServiceFactory-&gt;NativeClientServiceFactoryNodeStep" style="stroke: #27AE60; stroke-width: 2.5; stroke-dasharray: 7.0,7.0;"/><polygon fill="#27AE60" points="542.8225,2483.7391,552.2926,2461.011,542.5296,2471.2425,532.2981,2461.4795,542.8225,2483.7391" style="stroke: #27AE60; stroke-width: 2.5;"/><!--MD5=[5293b33d1b9cb3f7565a6a58210c991b]
link NativeClientServiceFactoryNodeStep to NativeClientServiceFactoryTimeoutStep--><path d="M540.8625,2674.7191 C538.96,2717.5091 536.695,2768.4816 534.725,2812.7741 " fill="none" id="NativeClientServiceFactoryNodeStep-&gt;NativeClientServiceFactoryTimeoutStep" style="stroke: #27AE60; stroke-width: 2.5; stroke-dasharray: 7.0,7.0;"/><polygon fill="#27AE60" points="534.125,2826.2891,545.1181,2804.2572,534.6822,2813.8015,525.1379,2803.3656,534.125,2826.2891" style="stroke: #27AE60; stroke-width: 2.5;"/><!--MD5=[1899eab48c2a6c1a4f4b08905d0c8780]
link NativeClientServiceFactoryNodeStep to NativeClientServiceFactoryReaderStep--><path d="M780.6225,2674.2441 C844.58,2711.5266 906.1425,2761.4841 942.5,2826.6016 C1001.3975,2932.0891 941.9025,3066.6116 884.3575,3157.9341 " fill="none" id="NativeClientServiceFactoryNodeStep-&gt;NativeClientServiceFactoryReaderStep" style="stroke: #27AE60; stroke-width: 2.5; stroke-dasharray: 7.0,7.0;"/><polygon fill="#27AE60" points="877.3575,3168.8516,897.9217,3155.3104,884.1056,3158.3295,881.0864,3144.5134,877.3575,3168.8516" style="stroke: #27AE60; stroke-width: 2.5;"/><!--MD5=[43bbadf2193306b718ab0d8757028fec]
link NativeClientServiceFactoryTimeoutStep to NativeClientServiceFactoryReaderStep--><path d="M606.5625,3017.2191 C642.655,3061.1166 685.8275,3113.6216 722.89,3158.6966 " fill="none" id="NativeClientServiceFactoryTimeoutStep-&gt;NativeClientServiceFactoryReaderStep" style="stroke: #27AE60; stroke-width: 2.5; stroke-dasharray: 7.0,7.0;"/><polygon fill="#27AE60" points="731.1875,3168.7891,724.6191,3145.0592,723.2475,3159.1347,709.1721,3157.7631,731.1875,3168.7891" style="stroke: #27AE60; stroke-width: 2.5;"/><!--MD5=[9d3443aa1d3f7bbfe7b8252c683bc3cf]
link NativeClientServiceFactoryReaderStep to NativeClientServiceFactoryBuilderStep--><path d="M807.5,3359.1591 C807.5,3402.9866 807.5,3455.0791 807.5,3498.3441 " fill="none" id="NativeClientServiceFactoryReaderStep-&gt;NativeClientServiceFactoryBuilderStep" style="stroke: #27AE60; stroke-width: 2.5; stroke-dasharray: 7.0,7.0;"/><polygon fill="#27AE60" points="807.5,3511.4691,817.5,3488.9691,807.5,3498.9691,797.5,3488.9691,807.5,3511.4691" style="stroke: #27AE60; stroke-width: 2.5;"/><!--MD5=[47aca07e9e04cb07b94fecb0b5a66fe8]
link NativeServerServiceFactory to NativeServerServiceFactoryNodeStep--><path d="M1446.2075,2331.6266 C1441.34,2373.1666 1435.21,2425.4691 1429.8675,2471.0691 " fill="none" id="NativeServerServiceFactory-&gt;NativeServerServiceFactoryNodeStep" style="stroke: #27AE60; stroke-width: 2.5; stroke-dasharray: 7.0,7.0;"/><polygon fill="#27AE60" points="1428.3825,2483.7391,1440.9373,2462.5582,1429.8397,2471.3243,1421.0736,2460.2267,1428.3825,2483.7391" style="stroke: #27AE60; stroke-width: 2.5;"/><!--MD5=[8254f9be7219f9f219937801ee8ff0fd]
link NativeServerServiceFactoryNodeStep to NativeServerServiceFactoryBuilderStep--><path d="M1417.5,2674.7191 C1417.5,2723.2291 1417.5,2782.2516 1417.5,2830.1391 " fill="none" id="NativeServerServiceFactoryNodeStep-&gt;NativeServerServiceFactoryBuilderStep" style="stroke: #27AE60; stroke-width: 2.5; stroke-dasharray: 7.0,7.0;"/><polygon fill="#27AE60" points="1417.5,2843.3341,1427.5,2820.8341,1417.5,2830.8341,1407.5,2820.8341,1417.5,2843.3341" style="stroke: #27AE60; stroke-width: 2.5;"/><!--MD5=[1f3a8ea4f0b0a46286c86d24cf65b0e4]
link NativePoolServerServiceFactory to NativePoolServerServiceFactoryNodeStep--><path d="M2292.5,2331.6266 C2292.5,2373.1666 2292.5,2425.4691 2292.5,2471.0691 " fill="none" id="NativePoolServerServiceFactory-&gt;NativePoolServerServiceFactoryNodeStep" style="stroke: #27AE60; stroke-width: 2.5; stroke-dasharray: 7.0,7.0;"/><polygon fill="#27AE60" points="2292.5,2483.7391,2302.5,2461.2391,2292.5,2471.2391,2282.5,2461.2391,2292.5,2483.7391" style="stroke: #27AE60; stroke-width: 2.5;"/><!--MD5=[c36599620a5c875fcf4e0586af796d96]
link NativePoolServerServiceFactoryNodeStep to NativePoolServerServiceFactoryBuilderStep--><path d="M2292.5,2674.7191 C2292.5,2723.2291 2292.5,2782.2516 2292.5,2830.1391 " fill="none" id="NativePoolServerServiceFactoryNodeStep-&gt;NativePoolServerServiceFactoryBuilderStep" style="stroke: #27AE60; stroke-width: 2.5; stroke-dasharray: 7.0,7.0;"/><polygon fill="#27AE60" points="2292.5,2843.3341,2302.5,2820.8341,2292.5,2830.8341,2282.5,2820.8341,2292.5,2843.3341" style="stroke: #27AE60; stroke-width: 2.5;"/><!--MD5=[6f58e51f47889eebde7e19234066cd58]
link serverApi to NativeClientService--><!--MD5=[0048cc5218a808d9655aa452386758c5]
link clientApi to NativeServerService--><!--MD5=[b0598ff826d5c8228bdfdf5e407af4e6]
link poolClientApi to NativePoolServerService--><!--MD5=[ddcffd4f9f9f582499953c92b1c4297b]
link spiApi to KeypleClientReaderEventFilter--><!--MD5=[c615c824cdc44f24fe50495c88f6fcde]
link RemoteServiceParametersBuilder to NativeClientUtils--><!--MD5=[0cc444b6e66211285badeca09a398024]
link NativeServerService to NativeServerUtils--><!--MD5=[afdac1ccb51ae7a5480fab13889ede0f]
link NativePoolServerService to NativePoolServerUtils--><!--MD5=[9adbb6c13957ffad5dd196eea648db4d]
link NativeClientUtils to NativeClientServiceFactory--><!--MD5=[86d658eaec0dc82fe8a7feda90537cc3]
link NativeServerUtils to NativeServerServiceFactory--><!--MD5=[89f9967868aca79c05a8984619ebf754]
link NativePoolServerUtils to NativePoolServerServiceFactory--><!--MD5=[2561a28ce76af8440d468ec1f8b37ef2]
@startuml
title
    Keyple Remote Plugin - Native Service API - 1.0.0 (28/10/2020)
end title



skinparam Shadowing false
skinparam ClassFontStyle italic
skinparam ClassBorderColor #D4AC0D
skinparam stereotypeABorderColor #A9DCDF
skinparam stereotypeIBorderColor #B4A7E5
skinparam stereotypeCBorderColor #ADD1B2
skinparam stereotypeEBorderColor #EB93DF
skinparam ClassBackgroundColor<<red>> #FDEDEC
skinparam ClassBorderColor<<red>> #E74C3C
hide <<red>> stereotype
skinparam ClassBackgroundColor<<purple>> #F4ECF7
skinparam ClassBorderColor<<purple>> #8E44AD
hide <<purple>> stereotype
skinparam ClassBackgroundColor<<blue>> #EBF5FB
skinparam ClassBorderColor<<blue>> #3498DB
hide <<blue>> stereotype
skinparam ClassBackgroundColor<<green>> #E9F7EF
skinparam ClassBorderColor<<green>> #27AE60
hide <<green>> stereotype
skinparam ClassBackgroundColor<<grey>> #EAECEE
skinparam ClassBorderColor<<grey>> #2C3E50
hide <<grey>> stereotype


package Legend {
    interface "**RemoteServerPlugin API**" as serverApi <<green>>
    interface "**RemoteClientPlugin API** or\n**RemoteClientObservablePlugin API**" as clientApi <<purple>>
    interface "**RemotePoolClientPlugin API**" as poolClientApi <<blue>>
    interface "**SPI** (Service Provider Interface)\nMust be implemented by the user" as spiApi
}

package "org.eclipse.keyple.plugin.remote.nativ" as native {

    +interface NativeClientService {
        +<T> T executeRemoteService (\n    RemoteServiceParameters parameters,\n    Class<T> classOfT)
    }
    +class RemoteServiceParameters {
        +{static} Builder builder (String serviceId, Reader nativeReader)
    }
    +class "Builder" as RemoteServiceParametersBuilder {
        +Builder withUserInputData (Object userInputData)
        +Builder withInitialCardContent (AbstractSmartCard smartCard)
        +RemoteServiceParameters build ()
    }
    +interface NativeServerService {
    }
    +interface NativePoolServerService {
    }
    package spi {
        +interface KeypleClientReaderEventFilter {
            +Object beforePropagation (ReaderEvent event)
            +Class<? extends Object> getUserOutputDataClass ()
            +void afterPropagation (Object userOutputData)
        }
    }
    package impl as nativeImpl {
        +class NativeClientUtils {
            + {static} NativeClientService getService ()
            + {static} KeypleClientAsyncNode getAsyncNode ()
        }
        +class NativeServerUtils {
            + {static} KeypleServerAsyncNode getAsyncNode ()
            + {static} KeypleServerSyncNode getSyncNode ()
        }
        +class NativePoolServerUtils {
            + {static} KeypleServerAsyncNode getAsyncNode ()
            + {static} KeypleServerSyncNode getSyncNode ()
        }
        +class NativeClientServiceFactory {
            + {static} NodeStep builder ()
        }
        +interface "NodeStep" as NativeClientServiceFactoryNodeStep {
            + TimeoutStep withAsyncNode (KeypleClientAsync endpoint)
            + ReaderStep withSyncNode (KeypleClientSync endpoint)
        }
        +interface "TimeoutStep" as NativeClientServiceFactoryTimeoutStep {
            + ReaderStep usingDefaultTimeout ()
            + ReaderStep usingCustomTimeout (int timeoutInSeconds)
        }
        +interface "ReaderStep" as NativeClientServiceFactoryReaderStep {
            + BuilderStep withReaderObservation (KeypleClientReaderEventFilter filter)
            + BuilderStep withoutReaderObservation ()
        }
        +interface "BuilderStep" as NativeClientServiceFactoryBuilderStep {
            + NativeClientService getService ()
        }
        +class NativeServerServiceFactory {
            + {static} NodeStep builder ()
        }
        +interface "NodeStep" as NativeServerServiceFactoryNodeStep {
            + BuilderStep withAsyncNode (KeypleServerAsync endpoint)
            + BuilderStep withSyncNode ()
        }
        +interface "BuilderStep" as NativeServerServiceFactoryBuilderStep {
            + NativeServerService getService ()
        }
        +class NativePoolServerServiceFactory {
            + {static} NodeStep builder ()
        }
        +interface "NodeStep" as NativePoolServerServiceFactoryNodeStep {
            + BuilderStep withAsyncNode (KeypleServerAsync endpoint)
            + BuilderStep withSyncNode ()
        }
        +interface "BuilderStep" as NativePoolServerServiceFactoryBuilderStep {
            + NativePoolServerService getService ()
        }
    }
}

NativeClientService ..> RemoteServiceParameters #27AE60 : use >
RemoteServiceParameters +- - RemoteServiceParametersBuilder #3498DB

NativeClientServiceFactory ..> NativeClientServiceFactoryNodeStep #27AE60
NativeClientServiceFactoryNodeStep ..> NativeClientServiceFactoryTimeoutStep #27AE60
NativeClientServiceFactoryNodeStep ..> NativeClientServiceFactoryReaderStep #27AE60
NativeClientServiceFactoryTimeoutStep ..> NativeClientServiceFactoryReaderStep #27AE60
NativeClientServiceFactoryReaderStep ..> NativeClientServiceFactoryBuilderStep #27AE60

NativeServerServiceFactory ..> NativeServerServiceFactoryNodeStep #27AE60
NativeServerServiceFactoryNodeStep ..> NativeServerServiceFactoryBuilderStep #27AE60

NativePoolServerServiceFactory ..> NativePoolServerServiceFactoryNodeStep #27AE60
NativePoolServerServiceFactoryNodeStep ..> NativePoolServerServiceFactoryBuilderStep #27AE60


serverApi -[hidden]- NativeClientService
clientApi -[hidden]- NativeServerService
poolClientApi -[hidden]- NativePoolServerService
spiApi -[hidden]- KeypleClientReaderEventFilter

RemoteServiceParametersBuilder -[hidden]- NativeClientUtils
NativeServerService -[hidden]- NativeServerUtils
NativePoolServerService -[hidden]- NativePoolServerUtils

NativeClientUtils -[hidden]- NativeClientServiceFactory
NativeServerUtils -[hidden]- NativeServerServiceFactory
NativePoolServerUtils -[hidden]- NativePoolServerServiceFactory


package native #F8F9F9 {}
package spi #F2F3F4 {}
package nativeImpl #F2F3F4 {}

interface NativeClientService <<green>>
class NativeClientServiceFactory <<green>>
interface NativeClientServiceFactoryNodeStep <<green>>
interface NativeClientServiceFactoryTimeoutStep <<green>>
interface NativeClientServiceFactoryReaderStep <<green>>
interface NativeClientServiceFactoryBuilderStep <<green>>
class RemoteServiceParameters <<green>>
class RemoteServiceParametersBuilder <<green>>
class NativeClientUtils <<green>>

interface NativeServerService <<purple>>
class NativeServerServiceFactory <<purple>>
interface NativeServerServiceFactoryNodeStep <<purple>>
interface NativeServerServiceFactoryBuilderStep <<purple>>
class NativeServerUtils <<purple>>

interface NativePoolServerService <<blue>>
class NativePoolServerServiceFactory <<blue>>
interface NativePoolServerServiceFactoryNodeStep <<blue>>
interface NativePoolServerServiceFactoryBuilderStep <<blue>>
class NativePoolServerUtils <<blue>>

@enduml

PlantUML version 1.2020.09(Sun May 10 12:51:06 CEST 2020)
(GPL source distribution)
Java Runtime: OpenJDK Runtime Environment
JVM: OpenJDK 64-Bit Server VM
Java Version: 11.0.8+10-b944.34
Operating System: Windows 10
Default Encoding: Cp1252
Language: fr
Country: FR
--></g></svg>