<svg xmlns="http://www.w3.org/2000/svg" xmlns:xlink="http://www.w3.org/1999/xlink" contentStyleType="text/css" height="1509px" preserveAspectRatio="none" style="width:1043px;height:1509px;background:#FFFFFF;" version="1.1" viewBox="0 0 1043 1509" width="1043px" zoomAndPan="magnify"><defs><filter height="1" id="bqgknxwv51uou0" width="1" x="0" y="0"><feFlood flood-color="#ADD8E6" result="flood"/><feComposite in="SourceGraphic" in2="flood" operator="over"/></filter></defs><g><rect fill="#F0F0F0" height="1497.3867" rx="5" ry="5" style="stroke:#181818;stroke-width:0.5;" width="804.1943" x="144.7085" y="6"/><text fill="#000000" font-family="sans-serif" font-size="13" font-weight="bold" lengthAdjust="spacing" textLength="36.1118" x="528.7498" y="20.0283">Client</text><rect fill="#D3D3D3" height="808.9844" style="stroke:#181818;stroke-width:1.0;" width="10" x="33.1724" y="602.5391"/><rect fill="#D3D3D3" height="1303.3691" style="stroke:#181818;stroke-width:1.0;" width="10" x="184.9531" y="108.1543"/><rect fill="#ADD8E6" height="70.291" style="stroke:#181818;stroke-width:1.0;" width="10" x="381.9282" y="546.248"/><rect fill="#ADD8E6" height="93.873" style="stroke:#181818;stroke-width:1.0;" width="10" x="381.9282" y="801.9941"/><rect fill="#ADD8E6" height="93.873" style="stroke:#181818;stroke-width:1.0;" width="10" x="381.9282" y="1122.9043"/><rect fill="#ADD8E6" height="115.582" style="stroke:#181818;stroke-width:1.0;" width="10" x="645.5278" y="514.957"/><rect fill="#ADD8E6" height="673.1113" style="stroke:#181818;stroke-width:1.0;" width="10" x="645.5278" y="707.1211"/><rect fill="#D3D3D3" height="120.1641" style="stroke:#181818;stroke-width:1.0;" width="10" x="853.5308" y="971.4492"/><rect fill="#D3D3D3" height="100.873" style="stroke:#181818;stroke-width:1.0;" width="10" x="853.5308" y="1248.0684"/><rect fill="#D3D3D3" height="31.291" style="stroke:#181818;stroke-width:1.0;" width="10" x="983.6216" y="176.7363"/><rect fill="#D3D3D3" height="57.582" style="stroke:#181818;stroke-width:1.0;" width="10" x="983.6216" y="1002.7402"/><rect fill="#D3D3D3" height="38.291" style="stroke:#181818;stroke-width:1.0;" width="10" x="983.6216" y="1279.3594"/><rect fill="none" height="144.4551" rx="5" ry="5" style="stroke:#000000;stroke-width:1.5;" width="762.1587" x="10" y="759.4121"/><rect fill="none" height="269.6191" rx="5" ry="5" style="stroke:#000000;stroke-width:1.5;" width="1016.2388" x="10" y="1017.7402"/><line style="stroke:#181818;stroke-width:0.5;stroke-dasharray:5.0,5.0;" x1="38" x2="38" y1="98.1543" y2="1429.5234"/><line style="stroke:#181818;stroke-width:0.5;stroke-dasharray:5.0,5.0;" x1="189.7085" x2="189.7085" y1="98.1543" y2="1429.5234"/><line style="stroke:#181818;stroke-width:0.5;stroke-dasharray:5.0,5.0;" x1="385.9595" x2="385.9595" y1="353.7012" y2="1429.5234"/><line style="stroke:#181818;stroke-width:0.5;stroke-dasharray:5.0,5.0;" x1="649.897" x2="649.897" y1="425.2539" y2="1429.5234"/><line style="stroke:#181818;stroke-width:0.5;stroke-dasharray:5.0,5.0;" x1="858.1587" x2="858.1587" y1="282.1484" y2="1429.5234"/><line style="stroke:#181818;stroke-width:0.5;stroke-dasharray:5.0,5.0;" x1="988.0044" x2="988.0044" y1="98.1543" y2="1429.5234"/><text fill="#000000" font-family="sans-serif" font-size="14" lengthAdjust="spacing" textLength="30.3447" x="20" y="94.6406">Card</text><ellipse cx="38.1724" cy="63.5332" fill="#E2E2F0" rx="12" ry="12" style="stroke:#181818;stroke-width:0.5;"/><line style="stroke:#181818;stroke-width:0.5;" x1="26.1724" x2="50.1724" y1="77.5332" y2="77.5332"/><text fill="#000000" font-family="sans-serif" font-size="14" lengthAdjust="spacing" textLength="30.3447" x="20" y="1443.6309">Card</text><ellipse cx="38.1724" cy="1463.1445" fill="#E2E2F0" rx="12" ry="12" style="stroke:#181818;stroke-width:0.5;"/><line style="stroke:#181818;stroke-width:0.5;" x1="26.1724" x2="50.1724" y1="1477.1445" y2="1477.1445"/><rect fill="#E2E2F0" height="32.6211" rx="5" ry="5" style="stroke:#181818;stroke-width:0.5;" width="82.4893" x="148.7085" y="64.5332"/><text fill="#000000" font-family="sans-serif" font-size="14" lengthAdjust="spacing" textLength="68.4893" x="155.7085" y="86.6406">Application</text><rect fill="#E2E2F0" height="32.6211" rx="5" ry="5" style="stroke:#181818;stroke-width:0.5;" width="82.4893" x="148.7085" y="1428.5234"/><text fill="#000000" font-family="sans-serif" font-size="14" lengthAdjust="spacing" textLength="68.4893" x="155.7085" y="1450.6309">Application</text><rect fill="#ADD8E6" height="69.8633" rx="5" ry="5" style="stroke:#181818;stroke-width:0.5;" width="283.9375" x="244.9595" y="1428.5234"/><text fill="#000000" font-family="sans-serif" font-size="14" font-weight="bold" lengthAdjust="spacing" textLength="269.9375" x="251.9595" y="1450.6309">Keyple Interop Local Reader NFC Mobile</text><text fill="#000000" font-family="sans-serif" font-size="14" lengthAdjust="spacing" textLength="94.958" x="339.4492" y="1469.252">&#171;LocalReader&#187;</text><text fill="#000000" font-family="sans-serif" font-size="14" lengthAdjust="spacing" textLength="147.0479" x="313.4043" y="1487.873">MultiplatformNfcReader</text><rect fill="#ADD8E6" height="51.2422" rx="5" ry="5" style="stroke:#181818;stroke-width:0.5;" width="223.2617" x="538.897" y="1428.5234"/><text fill="#000000" font-family="sans-serif" font-size="14" font-weight="bold" lengthAdjust="spacing" textLength="209.2617" x="545.897" y="1450.6309">Keyple Interop JSON API Client</text><text fill="#000000" font-family="sans-serif" font-size="14" lengthAdjust="spacing" textLength="97.2617" x="601.897" y="1469.252">KeypleTerminal</text><rect fill="#E2E2F0" height="51.2422" rx="5" ry="5" style="stroke:#181818;stroke-width:0.5;" width="172.7441" x="772.1587" y="1428.5234"/><text fill="#000000" font-family="sans-serif" font-size="14" lengthAdjust="spacing" textLength="16.3516" x="779.1587" y="1450.6309">&lt;&lt;</text><text fill="#000000" filter="url(#bqgknxwv51uou0)" font-family="sans-serif" font-size="14" lengthAdjust="spacing" textLength="118.2617" x="799.3999" y="1450.6309">SyncNetworkClient</text><text fill="#000000" font-family="sans-serif" font-size="14" lengthAdjust="spacing" textLength="16.3516" x="921.5513" y="1450.6309">&gt;&gt;</text><text fill="#000000" font-family="sans-serif" font-size="14" lengthAdjust="spacing" textLength="110.5029" x="803.2793" y="1469.252">Network Endpoint</text><rect fill="#E2E2F0" height="32.6211" rx="5" ry="5" style="stroke:#181818;stroke-width:0.5;" width="55.2344" x="961.0044" y="64.5332"/><text fill="#000000" font-family="sans-serif" font-size="14" lengthAdjust="spacing" textLength="41.2344" x="968.0044" y="86.6406">Server</text><rect fill="#E2E2F0" height="32.6211" rx="5" ry="5" style="stroke:#181818;stroke-width:0.5;" width="55.2344" x="961.0044" y="1428.5234"/><text fill="#000000" font-family="sans-serif" font-size="14" lengthAdjust="spacing" textLength="41.2344" x="968.0044" y="1450.6309">Server</text><rect fill="#D3D3D3" height="808.9844" style="stroke:#181818;stroke-width:1.0;" width="10" x="33.1724" y="602.5391"/><rect fill="#D3D3D3" height="1303.3691" style="stroke:#181818;stroke-width:1.0;" width="10" x="184.9531" y="108.1543"/><rect fill="#ADD8E6" height="70.291" style="stroke:#181818;stroke-width:1.0;" width="10" x="381.9282" y="546.248"/><rect fill="#ADD8E6" height="93.873" style="stroke:#181818;stroke-width:1.0;" width="10" x="381.9282" y="801.9941"/><rect fill="#ADD8E6" height="93.873" style="stroke:#181818;stroke-width:1.0;" width="10" x="381.9282" y="1122.9043"/><rect fill="#ADD8E6" height="115.582" style="stroke:#181818;stroke-width:1.0;" width="10" x="645.5278" y="514.957"/><rect fill="#ADD8E6" height="673.1113" style="stroke:#181818;stroke-width:1.0;" width="10" x="645.5278" y="707.1211"/><rect fill="#D3D3D3" height="120.1641" style="stroke:#181818;stroke-width:1.0;" width="10" x="853.5308" y="971.4492"/><rect fill="#D3D3D3" height="100.873" style="stroke:#181818;stroke-width:1.0;" width="10" x="853.5308" y="1248.0684"/><rect fill="#D3D3D3" height="31.291" style="stroke:#181818;stroke-width:1.0;" width="10" x="983.6216" y="176.7363"/><rect fill="#D3D3D3" height="57.582" style="stroke:#181818;stroke-width:1.0;" width="10" x="983.6216" y="1002.7402"/><rect fill="#D3D3D3" height="38.291" style="stroke:#181818;stroke-width:1.0;" width="10" x="983.6216" y="1279.3594"/><rect fill="#EEEEEE" height="3" rx="5" ry="5" style="stroke:#EEEEEE;stroke-width:1.0;" width="1036.2388" x="0" y="129.7998"/><line style="stroke:#000000;stroke-width:1.0;" x1="0" x2="1036.2388" y1="129.7998" y2="129.7998"/><line style="stroke:#000000;stroke-width:1.0;" x1="0" x2="1036.2388" y1="132.7998" y2="132.7998"/><rect fill="#EEEEEE" height="25.291" rx="5" ry="5" style="stroke:#000000;stroke-width:2.0;" width="92.7236" x="471.7576" y="118.1543"/><text fill="#000000" font-family="sans-serif" font-size="13" font-weight="bold" lengthAdjust="spacing" textLength="75.1118" x="477.7576" y="136.1826">Initialization</text><polygon fill="#181818" points="971.6216,172.7363,981.6216,176.7363,971.6216,180.7363,975.6216,176.7363" style="stroke:#181818;stroke-width:1.0;"/><line style="stroke:#181818;stroke-width:1.0;" x1="194.9531" x2="977.6216" y1="176.7363" y2="176.7363"/><text fill="#000000" font-family="sans-serif" font-size="13" lengthAdjust="spacing" textLength="184.9771" x="201.9531" y="171.4736">Retrieve card selection scenario</text><polygon fill="#181818" points="205.9531,204.0273,195.9531,208.0273,205.9531,212.0273,201.9531,208.0273" style="stroke:#181818;stroke-width:1.0;"/><line style="stroke:#181818;stroke-width:1.0;stroke-dasharray:2.0,2.0;" x1="199.9531" x2="987.6216" y1="208.0273" y2="208.0273"/><text fill="#27AE60" font-family="sans-serif" font-size="13" font-weight="bold" lengthAdjust="spacing" textLength="210.2217" x="211.9531" y="202.7646">CardSelectionScenarioJsonString</text><polygon fill="#181818" points="760.1587,260.3184,770.1587,264.3184,760.1587,268.3184,764.1587,264.3184" style="stroke:#181818;stroke-width:1.0;"/><line style="stroke:#181818;stroke-width:1.0;" x1="194.9531" x2="766.1587" y1="264.3184" y2="264.3184"/><text fill="#000000" font-family="sans-serif" font-size="13" lengthAdjust="spacing" textLength="26.0063" x="201.9531" y="259.0557">New</text><rect fill="#E2E2F0" height="51.2422" rx="5" ry="5" style="stroke:#181818;stroke-width:0.5;" width="172.7441" x="772.1587" y="241.0273"/><text fill="#000000" font-family="sans-serif" font-size="14" lengthAdjust="spacing" textLength="16.3516" x="779.1587" y="263.1348">&lt;&lt;</text><text fill="#000000" filter="url(#bqgknxwv51uou0)" font-family="sans-serif" font-size="14" lengthAdjust="spacing" textLength="118.2617" x="799.3999" y="263.1348">SyncNetworkClient</text><text fill="#000000" font-family="sans-serif" font-size="14" lengthAdjust="spacing" textLength="16.3516" x="921.5513" y="263.1348">&gt;&gt;</text><text fill="#000000" font-family="sans-serif" font-size="14" lengthAdjust="spacing" textLength="110.5029" x="803.2793" y="281.7559">Network Endpoint</text><polygon fill="#181818" points="232.9595,322.5605,242.9595,326.5605,232.9595,330.5605,236.9595,326.5605" style="stroke:#181818;stroke-width:1.0;"/><line style="stroke:#181818;stroke-width:1.0;" x1="194.9531" x2="238.9595" y1="326.5605" y2="326.5605"/><text fill="#000000" font-family="sans-serif" font-size="13" lengthAdjust="spacing" textLength="26.0063" x="201.9531" y="321.2979">New</text><rect fill="#ADD8E6" height="69.8633" rx="5" ry="5" style="stroke:#181818;stroke-width:0.5;" width="283.9375" x="244.9595" y="303.2695"/><text fill="#000000" font-family="sans-serif" font-size="14" font-weight="bold" lengthAdjust="spacing" textLength="269.9375" x="251.9595" y="325.377">Keyple Interop Local Reader NFC Mobile</text><text fill="#000000" font-family="sans-serif" font-size="14" lengthAdjust="spacing" textLength="94.958" x="339.4492" y="343.998">&#171;LocalReader&#187;</text><text fill="#000000" font-family="sans-serif" font-size="14" lengthAdjust="spacing" textLength="147.0479" x="313.4043" y="362.6191">MultiplatformNfcReader</text><polygon fill="#181818" points="526.897,420.7148,536.897,424.7148,526.897,428.7148,530.897,424.7148" style="stroke:#181818;stroke-width:1.0;"/><line style="stroke:#181818;stroke-width:1.0;" x1="194.9531" x2="532.897" y1="424.7148" y2="424.7148"/><text fill="#000000" font-family="sans-serif" font-size="13" lengthAdjust="spacing" textLength="228.3125" x="201.9531" y="402.1611">New (LocalReader, SyncNetworkClient,</text><text fill="#27AE60" font-family="sans-serif" font-size="13" font-weight="bold" lengthAdjust="spacing" textLength="210.2217" x="230.8477" y="419.4521">CardSelectionScenarioJsonString</text><text fill="#000000" font-family="sans-serif" font-size="13" lengthAdjust="spacing" textLength="32.5063" x="441.0693" y="419.4521">, etc.)</text><rect fill="#ADD8E6" height="51.2422" rx="5" ry="5" style="stroke:#181818;stroke-width:0.5;" width="223.2617" x="538.897" y="384.1328"/><text fill="#000000" font-family="sans-serif" font-size="14" font-weight="bold" lengthAdjust="spacing" textLength="209.2617" x="545.897" y="406.2402">Keyple Interop JSON API Client</text><text fill="#000000" font-family="sans-serif" font-size="14" lengthAdjust="spacing" textLength="97.2617" x="601.897" y="424.8613">KeypleTerminal</text><rect fill="#EEEEEE" height="3" rx="5" ry="5" style="stroke:#EEEEEE;stroke-width:1.0;" width="1036.2388" x="0" y="468.0205"/><line style="stroke:#000000;stroke-width:1.0;" x1="0" x2="1036.2388" y1="468.0205" y2="468.0205"/><line style="stroke:#000000;stroke-width:1.0;" x1="0" x2="1036.2388" y1="471.0205" y2="471.0205"/><rect fill="#EEEEEE" height="25.291" rx="5" ry="5" style="stroke:#000000;stroke-width:2.0;" width="97.0654" x="469.5867" y="456.375"/><text fill="#000000" font-family="sans-serif" font-size="13" font-weight="bold" lengthAdjust="spacing" textLength="79.4536" x="475.5867" y="474.4033">Wait for card</text><polygon fill="#181818" points="633.5278,510.957,643.5278,514.957,633.5278,518.957,637.5278,514.957" style="stroke:#181818;stroke-width:1.0;"/><line style="stroke:#181818;stroke-width:1.0;" x1="194.9531" x2="639.5278" y1="514.957" y2="514.957"/><text fill="#000000" font-family="sans-serif" font-size="13" lengthAdjust="spacing" textLength="73.6836" x="201.9531" y="509.6943">Wait for card</text><polygon fill="#181818" points="402.9282,542.248,392.9282,546.248,402.9282,550.248,398.9282,546.248" style="stroke:#181818;stroke-width:1.0;"/><line style="stroke:#181818;stroke-width:1.0;" x1="396.9282" x2="644.5278" y1="546.248" y2="546.248"/><text fill="#000000" font-family="sans-serif" font-size="13" lengthAdjust="spacing" textLength="73.6836" x="408.9282" y="540.9854">Wait for card</text><line style="stroke:#181818;stroke-width:1.0;" x1="379.9282" x2="369.9282" y1="602.5391" y2="598.5391"/><line style="stroke:#181818;stroke-width:1.0;" x1="379.9282" x2="369.9282" y1="602.5391" y2="606.5391"/><line style="stroke:#181818;stroke-width:1.0;stroke-dasharray:2.0,2.0;" x1="43.1724" x2="380.9282" y1="602.5391" y2="602.5391"/><text fill="#000000" font-family="sans-serif" font-size="13" lengthAdjust="spacing" textLength="113.4517" x="50.1724" y="597.2764">Card inserted event</text><polygon fill="#181818" points="633.5278,612.5391,643.5278,616.5391,633.5278,620.5391,637.5278,616.5391" style="stroke:#181818;stroke-width:1.0;"/><line style="stroke:#181818;stroke-width:1.0;stroke-dasharray:2.0,2.0;" x1="386.9282" x2="639.5278" y1="616.5391" y2="616.5391"/><polygon fill="#181818" points="205.9531,626.5391,195.9531,630.5391,205.9531,634.5391,201.9531,630.5391" style="stroke:#181818;stroke-width:1.0;"/><line style="stroke:#181818;stroke-width:1.0;stroke-dasharray:2.0,2.0;" x1="199.9531" x2="649.5278" y1="630.5391" y2="630.5391"/><rect fill="#EEEEEE" height="3" rx="5" ry="5" style="stroke:#EEEEEE;stroke-width:1.0;" width="1036.2388" x="0" y="660.1846"/><line style="stroke:#000000;stroke-width:1.0;" x1="0" x2="1036.2388" y1="660.1846" y2="660.1846"/><line style="stroke:#000000;stroke-width:1.0;" x1="0" x2="1036.2388" y1="663.1846" y2="663.1846"/><rect fill="#EEEEEE" height="25.291" rx="5" ry="5" style="stroke:#000000;stroke-width:2.0;" width="162.8652" x="436.6868" y="648.5391"/><text fill="#000000" font-family="sans-serif" font-size="13" font-weight="bold" lengthAdjust="spacing" textLength="145.2534" x="442.6868" y="666.5674">Execute remote service</text><polygon fill="#181818" points="633.5278,703.1211,643.5278,707.1211,633.5278,711.1211,637.5278,707.1211" style="stroke:#181818;stroke-width:1.0;"/><line style="stroke:#181818;stroke-width:1.0;" x1="194.9531" x2="639.5278" y1="707.1211" y2="707.1211"/><text fill="#000000" font-family="sans-serif" font-size="13" lengthAdjust="spacing" textLength="135.8335" x="201.9531" y="701.8584">Execute remote service</text><path d="M548,725.1211 L548,742.1211 A5,5 0 0 0 553,747.1211 L747,747.1211 A5,5 0 0 0 752,742.1211 L752,730.1211 L742,720.1211 L553,720.1211 A5,5 0 0 0 548,725.1211 " fill="#FEFFDD" style="stroke:#181818;stroke-width:0.5;"/><path d="M742,720.1211 L742,727.6211 A2.5,2.5 0 0 0 744.5,730.1211 L752,730.1211 L742,720.1211 " fill="#FEFFDD" style="stroke:#181818;stroke-width:0.5;"/><text fill="#000000" font-family="sans-serif" font-size="13" lengthAdjust="spacing" textLength="183.5298" x="554" y="739.1494">Process card selection scenario</text><path d="M15,759.4121 L82.4346,759.4121 L82.4346,768.7031 L72.4346,778.7031 L10,778.7031 L10,764.4121 A5,5 0 0 1 15,759.4121 " fill="#EEEEEE" style="stroke:#000000;stroke-width:1.5;"/><rect fill="none" height="144.4551" rx="5" ry="5" style="stroke:#000000;stroke-width:1.5;" width="762.1587" x="10" y="759.4121"/><text fill="#000000" font-family="sans-serif" font-size="13" font-weight="bold" lengthAdjust="spacing" textLength="27.4346" x="25" y="774.4404">loop</text><text fill="#000000" font-family="sans-serif" font-size="11" font-weight="bold" lengthAdjust="spacing" textLength="363.1396" x="97.4346" y="773.2822">[while there are cases to be processed in the card selection scenario]</text><polygon fill="#181818" points="402.9282,797.9941,392.9282,801.9941,402.9282,805.9941,398.9282,801.9941" style="stroke:#181818;stroke-width:1.0;"/><line style="stroke:#181818;stroke-width:1.0;" x1="396.9282" x2="644.5278" y1="801.9941" y2="801.9941"/><text fill="#000000" font-family="sans-serif" font-size="13" lengthAdjust="spacing" textLength="88.1499" x="408.9282" y="796.7314">APDU Request</text><polygon fill="#181818" points="54.1724,829.2852,44.1724,833.2852,54.1724,837.2852,50.1724,833.2852" style="stroke:#181818;stroke-width:1.0;"/><line style="stroke:#181818;stroke-width:1.0;" x1="48.1724" x2="380.9282" y1="833.2852" y2="833.2852"/><text fill="#000000" font-family="sans-serif" font-size="13" lengthAdjust="spacing" textLength="99.6963" x="60.1724" y="828.0225">APDU Command</text><polygon fill="#181818" points="369.9282,860.5762,379.9282,864.5762,369.9282,868.5762,373.9282,864.5762" style="stroke:#181818;stroke-width:1.0;"/><line style="stroke:#181818;stroke-width:1.0;stroke-dasharray:2.0,2.0;" x1="43.1724" x2="375.9282" y1="864.5762" y2="864.5762"/><text fill="#000000" font-family="sans-serif" font-size="13" lengthAdjust="spacing" textLength="98.2681" x="50.1724" y="859.3135">APDU Response</text><polygon fill="#181818" points="633.5278,891.8672,643.5278,895.8672,633.5278,899.8672,637.5278,895.8672" style="stroke:#181818;stroke-width:1.0;"/><line style="stroke:#181818;stroke-width:1.0;stroke-dasharray:2.0,2.0;" x1="386.9282" x2="639.5278" y1="895.8672" y2="895.8672"/><text fill="#000000" font-family="sans-serif" font-size="13" lengthAdjust="spacing" textLength="98.2681" x="393.9282" y="890.6045">APDU Response</text><path d="M572,920.8672 L572,937.8672 A5,5 0 0 0 577,942.8672 L723,942.8672 A5,5 0 0 0 728,937.8672 L728,925.8672 L718,915.8672 L577,915.8672 A5,5 0 0 0 572,920.8672 " fill="#FEFFDD" style="stroke:#181818;stroke-width:0.5;"/><path d="M718,915.8672 L718,923.3672 A2.5,2.5 0 0 0 720.5,925.8672 L728,925.8672 L718,915.8672 " fill="#FEFFDD" style="stroke:#181818;stroke-width:0.5;"/><text fill="#000000" font-family="sans-serif" font-size="13" lengthAdjust="spacing" textLength="135.8335" x="578" y="934.8955">Execute remote service</text><polygon fill="#181818" points="841.5308,967.4492,851.5308,971.4492,841.5308,975.4492,845.5308,971.4492" style="stroke:#181818;stroke-width:1.0;"/><line style="stroke:#181818;stroke-width:1.0;" x1="655.5278" x2="847.5308" y1="971.4492" y2="971.4492"/><text fill="#000000" font-family="sans-serif" font-size="13" lengthAdjust="spacing" textLength="90.3208" x="662.5278" y="966.1865">Server Request</text><polygon fill="#181818" points="971.6216,998.7402,981.6216,1002.7402,971.6216,1006.7402,975.6216,1002.7402" style="stroke:#181818;stroke-width:1.0;"/><line style="stroke:#181818;stroke-width:1.0;" x1="863.5308" x2="977.6216" y1="1002.7402" y2="1002.7402"/><text fill="#000000" font-family="sans-serif" font-size="13" lengthAdjust="spacing" textLength="85.9727" x="870.5308" y="997.4775">HTTP Request</text><path d="M15,1017.7402 L82.4346,1017.7402 L82.4346,1027.0313 L72.4346,1037.0313 L10,1037.0313 L10,1022.7402 A5,5 0 0 1 15,1017.7402 " fill="#EEEEEE" style="stroke:#000000;stroke-width:1.5;"/><rect fill="none" height="269.6191" rx="5" ry="5" style="stroke:#000000;stroke-width:1.5;" width="1016.2388" x="10" y="1017.7402"/><text fill="#000000" font-family="sans-serif" font-size="13" font-weight="bold" lengthAdjust="spacing" textLength="27.4346" x="25" y="1032.7686">loop</text><text fill="#000000" font-family="sans-serif" font-size="11" font-weight="bold" lengthAdjust="spacing" textLength="408.4932" x="97.4346" y="1031.6104">[while there are actions to be performed with the card or the terminal's reader]</text><polygon fill="#181818" points="874.5308,1056.3223,864.5308,1060.3223,874.5308,1064.3223,870.5308,1060.3223" style="stroke:#181818;stroke-width:1.0;"/><line style="stroke:#181818;stroke-width:1.0;stroke-dasharray:2.0,2.0;" x1="868.5308" x2="987.6216" y1="1060.3223" y2="1060.3223"/><text fill="#000000" font-family="sans-serif" font-size="13" lengthAdjust="spacing" textLength="96.0908" x="880.5308" y="1055.0596">HTTP Response</text><polygon fill="#181818" points="666.5278,1087.6133,656.5278,1091.6133,666.5278,1095.6133,662.5278,1091.6133" style="stroke:#181818;stroke-width:1.0;"/><line style="stroke:#181818;stroke-width:1.0;stroke-dasharray:2.0,2.0;" x1="660.5278" x2="857.5308" y1="1091.6133" y2="1091.6133"/><text fill="#000000" font-family="sans-serif" font-size="13" lengthAdjust="spacing" textLength="100.439" x="672.5278" y="1086.3506">Server Response</text><polygon fill="#181818" points="402.9282,1118.9043,392.9282,1122.9043,402.9282,1126.9043,398.9282,1122.9043" style="stroke:#181818;stroke-width:1.0;"/><line style="stroke:#181818;stroke-width:1.0;" x1="396.9282" x2="644.5278" y1="1122.9043" y2="1122.9043"/><text fill="#000000" font-family="sans-serif" font-size="13" lengthAdjust="spacing" textLength="99.6963" x="408.9282" y="1117.6416">APDU Command</text><polygon fill="#181818" points="54.1724,1150.1953,44.1724,1154.1953,54.1724,1158.1953,50.1724,1154.1953" style="stroke:#181818;stroke-width:1.0;"/><line style="stroke:#181818;stroke-width:1.0;" x1="48.1724" x2="380.9282" y1="1154.1953" y2="1154.1953"/><text fill="#000000" font-family="sans-serif" font-size="13" lengthAdjust="spacing" textLength="99.6963" x="60.1724" y="1148.9326">APDU Command</text><polygon fill="#181818" points="369.9282,1181.4863,379.9282,1185.4863,369.9282,1189.4863,373.9282,1185.4863" style="stroke:#181818;stroke-width:1.0;"/><line style="stroke:#181818;stroke-width:1.0;stroke-dasharray:2.0,2.0;" x1="43.1724" x2="375.9282" y1="1185.4863" y2="1185.4863"/><text fill="#000000" font-family="sans-serif" font-size="13" lengthAdjust="spacing" textLength="98.2681" x="50.1724" y="1180.2236">APDU Response</text><polygon fill="#181818" points="633.5278,1212.7773,643.5278,1216.7773,633.5278,1220.7773,637.5278,1216.7773" style="stroke:#181818;stroke-width:1.0;"/><line style="stroke:#181818;stroke-width:1.0;stroke-dasharray:2.0,2.0;" x1="386.9282" x2="639.5278" y1="1216.7773" y2="1216.7773"/><text fill="#000000" font-family="sans-serif" font-size="13" lengthAdjust="spacing" textLength="98.2681" x="393.9282" y="1211.5146">APDU Response</text><polygon fill="#181818" points="841.5308,1244.0684,851.5308,1248.0684,841.5308,1252.0684,845.5308,1248.0684" style="stroke:#181818;stroke-width:1.0;"/><line style="stroke:#181818;stroke-width:1.0;" x1="655.5278" x2="847.5308" y1="1248.0684" y2="1248.0684"/><text fill="#000000" font-family="sans-serif" font-size="13" lengthAdjust="spacing" textLength="90.3208" x="662.5278" y="1242.8057">Server Request</text><polygon fill="#181818" points="971.6216,1275.3594,981.6216,1279.3594,971.6216,1283.3594,975.6216,1279.3594" style="stroke:#181818;stroke-width:1.0;"/><line style="stroke:#181818;stroke-width:1.0;" x1="863.5308" x2="977.6216" y1="1279.3594" y2="1279.3594"/><text fill="#000000" font-family="sans-serif" font-size="13" lengthAdjust="spacing" textLength="85.9727" x="870.5308" y="1274.0967">HTTP Request</text><polygon fill="#181818" points="874.5308,1313.6504,864.5308,1317.6504,874.5308,1321.6504,870.5308,1317.6504" style="stroke:#181818;stroke-width:1.0;"/><line style="stroke:#181818;stroke-width:1.0;stroke-dasharray:2.0,2.0;" x1="868.5308" x2="987.6216" y1="1317.6504" y2="1317.6504"/><text fill="#000000" font-family="sans-serif" font-size="13" lengthAdjust="spacing" textLength="96.0908" x="880.5308" y="1312.3877">HTTP Response</text><polygon fill="#181818" points="666.5278,1344.9414,656.5278,1348.9414,666.5278,1352.9414,662.5278,1348.9414" style="stroke:#181818;stroke-width:1.0;"/><line style="stroke:#181818;stroke-width:1.0;stroke-dasharray:2.0,2.0;" x1="660.5278" x2="857.5308" y1="1348.9414" y2="1348.9414"/><text fill="#000000" font-family="sans-serif" font-size="13" lengthAdjust="spacing" textLength="100.439" x="672.5278" y="1343.6787">Server Response</text><polygon fill="#181818" points="205.9531,1376.2324,195.9531,1380.2324,205.9531,1384.2324,201.9531,1380.2324" style="stroke:#181818;stroke-width:1.0;"/><line style="stroke:#181818;stroke-width:1.0;stroke-dasharray:2.0,2.0;" x1="199.9531" x2="649.5278" y1="1380.2324" y2="1380.2324"/><text fill="#000000" font-family="sans-serif" font-size="13" lengthAdjust="spacing" textLength="36.8481" x="211.9531" y="1374.9697">Result</text><line style="stroke:#181818;stroke-width:1.0;" x1="187.9531" x2="177.9531" y1="1411.5234" y2="1407.5234"/><line style="stroke:#181818;stroke-width:1.0;" x1="187.9531" x2="177.9531" y1="1411.5234" y2="1415.5234"/><line style="stroke:#181818;stroke-width:1.0;stroke-dasharray:2.0,2.0;" x1="38.1724" x2="188.9531" y1="1411.5234" y2="1411.5234"/><text fill="#000000" font-family="sans-serif" font-size="13" lengthAdjust="spacing" textLength="117.7808" x="45.1724" y="1406.2607">Card removed event</text><!--SRC=[nLRFKzf05BxlN_563xJHLEkXdN4mCvHYrIeoGgSNBilob2rXDzqi81t_-BxTH4W2gFHIE93aVU_NzxrzeGPdPz2xQDsqw8AnT2nLmWsVm9sUgc5J6uK6FXwpsigIukyfAe4DO_IyDv9Yh31DuOIncWlMl6ttMksU3uVAIhk0lIOtmptWAGYwO0FzI8zYITOzs3y_Tbz6iQqKCk7AmbuZIM8fk9LQPMuUNCO4mNTS9372fR9eT0BNMl0Oxf0FgUJsUHDkz43660HzLQzdrjmOHNrrCusjJ69kxxMPjEz5PlBPOWSr6NJ_MZwCx9TuYgzal-hUjg7HkOIiCPSrG_JGJAJYiG_zAzMA9pBhPsjmAhS-u69ykW94tOKIRRHpRSPPXlgHWqI-cTm0BJLCj7IqKYxCRtBow1Q8-NAcBffPtdNgBnaZ2I-Lj9B7yezNm2l9XPKpRX5AfNypk63vap3AGy31GS4CfoI9DH9dwDKdK8p2nqq5AcwaPWRjr2Ye2nrhSxf_yhdH-dGS1O4Rc-upl9kZhuZ2BWLK3q70sDFJ4ojKKEuPWe3Ijt5UG1J5tM0k2_GCW7U5yJc4DIqE-wflTo-_VkHTeaD0Apwyzzp_vD82pMH6bgD-Mt5BcjryK9qbJyRAu4hdh_XchBe2mZ2ADXo8N5dN8KX5kbiS0abCSxQQ56Sip4cbedeObWA7uR9LPwgK7tfoMeyefXJQu4JJZvitAN0dbZQ7O4ovE-t6j-JFW3uTeuLRSTlcrnqjvyzOh6aLp4UqTi2Eq21muuX8CGMhOO2GPA7GqUOWMsEwl3j9sEXy_K57ZNPpcbLT8ZVA4kMmffvCk1gkmHpnHTmTfeacUJTKioxVcXFHyZAlMxHOqRb6GELyLpTDjiwMB5JGspVKHQ_NMNfj5f5xVPOoed7l3P9nBkre9IIT87TjyvrVIo6ZnxTRASSncDVZoSkBU97nQaTXiUcjdc-Pd6qZyLycPsCBksc_WV0twk_7TYUj_asdbxQTVskcz1Ubk8QBLhzvtRcPBHVl42ilwT8JjzV_0W00]--></g></svg>