<?xml version="1.0" encoding="us-ascii" standalone="no"?><svg xmlns="http://www.w3.org/2000/svg" xmlns:xlink="http://www.w3.org/1999/xlink" contentStyleType="text/css" height="1129px" preserveAspectRatio="none" style="width:1413px;height:1129px;background:#FFFFFF;" version="1.1" viewBox="0 0 1413 1129" width="1413px" zoomAndPan="magnify"><defs/><g><text fill="#000000" font-family="sans-serif" font-size="14" font-weight="bold" lengthAdjust="spacing" textLength="198" x="600.5" y="25.1074">Keyple Distributed JSON API</text><text fill="#000000" font-family="sans-serif" font-size="14" font-weight="bold" lengthAdjust="spacing" textLength="373" x="513" y="43.7285">compliant with "keyple-service-java-lib" version 2.1.4</text><text fill="#000000" font-family="sans-serif" font-size="14" font-weight="bold" lengthAdjust="spacing" textLength="121" x="639" y="62.3496">CMD (2023-03-22)</text><!--class CmdMessage--><g id="elem_CmdMessage"><rect codeLine="158" fill="#E9F7EF" height="178.3477" id="CmdMessage" rx="2.5" ry="2.5" style="stroke:#27AE60;stroke-width:2.0;" width="201" x="445.5" y="83.8633"/><ellipse cx="498.75" cy="99.8633" fill="#ADD1B2" rx="11" ry="11" style="stroke:#181818;stroke-width:1.0;"/><path d="M501.5156,95.7383 Q501.6719,95.5195 501.8594,95.4102 Q502.0469,95.3008 502.2656,95.3008 Q502.6406,95.3008 502.875,95.5664 Q503.1094,95.8164 503.1094,96.4258 L503.1094,97.8789 Q503.1094,98.4883 502.875,98.7539 Q502.6406,99.0195 502.2656,99.0195 Q501.9219,99.0195 501.7188,98.8164 Q501.5156,98.6289 501.4063,98.1133 Q501.3594,97.7539 501.1719,97.5664 Q500.8438,97.1914 500.2344,96.9727 Q499.625,96.7539 499,96.7539 Q498.2344,96.7539 497.5938,97.082 Q496.9688,97.4102 496.4688,98.1602 Q495.9844,98.9102 495.9844,99.9414 L495.9844,101.0352 Q495.9844,102.2695 496.875,103.0977 Q497.7656,103.9102 499.3594,103.9102 Q500.2969,103.9102 500.9531,103.6602 Q501.3438,103.5039 501.7656,103.0664 Q502.0313,102.8008 502.1719,102.7227 Q502.3281,102.6445 502.5313,102.6445 Q502.8594,102.6445 503.1094,102.9102 Q503.375,103.1602 503.375,103.5039 Q503.375,103.8477 503.0313,104.2539 Q502.5313,104.832 501.7344,105.1602 Q500.6563,105.6133 499.3594,105.6133 Q497.8438,105.6133 496.6406,104.9883 Q495.6563,104.4883 494.9688,103.4258 Q494.2813,102.3477 494.2813,101.0664 L494.2813,99.9102 Q494.2813,98.582 494.8906,97.4414 Q495.5156,96.2852 496.6094,95.6758 Q497.7031,95.0508 498.9375,95.0508 Q499.6719,95.0508 500.3125,95.2227 Q500.9688,95.3789 501.5156,95.7383 Z " fill="#000000"/><text fill="#000000" font-family="sans-serif" font-size="14" lengthAdjust="spacing" textLength="86" x="519.25" y="105.6602">CmdMessage</text><line style="stroke:#27AE60;stroke-width:2.0;" x1="446.5" x2="645.5" y1="115.8633" y2="115.8633"/><text fill="#000000" font-family="sans-serif" font-size="14" font-weight="bold" lengthAdjust="spacing" textLength="43" x="451.5" y="134.9707">action</text><text fill="#000000" font-family="sans-serif" font-size="14" lengthAdjust="spacing" textLength="66" x="498.5" y="134.9707">: String = "</text><text fill="#000000" font-family="sans-serif" font-size="14" font-weight="bold" lengthAdjust="spacing" textLength="33" x="564.5" y="134.9707">CMD</text><text fill="#000000" font-family="sans-serif" font-size="14" lengthAdjust="spacing" textLength="5" x="597.5" y="134.9707">"</text><text fill="#000000" font-family="sans-serif" font-size="14" font-weight="bold" lengthAdjust="spacing" textLength="89" x="451.5" y="153.5918">clientNodeId</text><text fill="#000000" font-family="sans-serif" font-size="14" lengthAdjust="spacing" textLength="45" x="544.5" y="153.5918">: String</text><text fill="#000000" font-family="sans-serif" font-size="14" font-weight="bold" lengthAdjust="spacing" textLength="123" x="451.5" y="172.2129">localReaderName</text><text fill="#000000" font-family="sans-serif" font-size="14" lengthAdjust="spacing" textLength="45" x="578.5" y="172.2129">: String</text><text fill="#000000" font-family="sans-serif" font-size="14" font-weight="bold" lengthAdjust="spacing" textLength="97" x="451.5" y="190.834">serverNodeId</text><text fill="#000000" font-family="sans-serif" font-size="14" lengthAdjust="spacing" textLength="45" x="552.5" y="190.834">: String</text><text fill="#000000" font-family="sans-serif" font-size="14" font-weight="bold" lengthAdjust="spacing" textLength="140" x="451.5" y="209.4551">remoteReaderName</text><text fill="#000000" font-family="sans-serif" font-size="14" lengthAdjust="spacing" textLength="45" x="595.5" y="209.4551">: String</text><text fill="#000000" font-family="sans-serif" font-size="14" font-weight="bold" lengthAdjust="spacing" textLength="68" x="451.5" y="228.0762">sessionId</text><text fill="#000000" font-family="sans-serif" font-size="14" lengthAdjust="spacing" textLength="45" x="523.5" y="228.0762">: String</text><text fill="#000000" font-family="sans-serif" font-size="14" font-weight="bold" lengthAdjust="spacing" textLength="34" x="451.5" y="246.6973">body</text><text fill="#000000" font-family="sans-serif" font-size="14" lengthAdjust="spacing" textLength="69" x="489.5" y="246.6973">: CmdBody</text><line style="stroke:#27AE60;stroke-width:2.0;" x1="446.5" x2="645.5" y1="254.2109" y2="254.2109"/></g><!--class CmdBody--><g id="elem_CmdBody"><rect codeLine="159" fill="#E9F7EF" height="48" id="CmdBody" rx="2.5" ry="2.5" style="stroke:#27AE60;stroke-width:2.0;" width="93" x="499.5" y="340.8633"/><ellipse cx="514.5" cy="356.8633" fill="#A9DCDF" rx="11" ry="11" style="stroke:#181818;stroke-width:1.0;"/><path d="M516.6875,358.6289 L512.5469,358.6289 L512.125,359.6602 L512.5469,359.6602 Q513.1563,359.6602 513.4219,359.8945 Q513.6875,360.1289 513.6875,360.5195 Q513.6875,360.8945 513.4219,361.1289 Q513.1563,361.3633 512.5469,361.3633 L510.25,361.3633 Q509.6406,361.3633 509.3906,361.1289 Q509.125,360.8945 509.125,360.5039 Q509.125,360.1289 509.4063,359.8945 Q509.6719,359.6445 510.2969,359.6602 L512.9688,353.0039 L511.8594,353.0039 Q511.25,353.0039 510.9844,352.7695 Q510.7188,352.5352 510.7188,352.1445 Q510.7188,351.7695 510.9844,351.5352 Q511.25,351.3008 511.8594,351.3008 L515.5313,351.3008 L518.9219,359.6602 Q519.5156,359.6602 519.7031,359.8008 Q520.0938,360.0664 520.0938,360.5195 Q520.0938,360.8945 519.8281,361.1289 Q519.5781,361.3633 518.9688,361.3633 L516.6719,361.3633 Q516.0625,361.3633 515.7969,361.1289 Q515.5313,360.8945 515.5313,360.5039 Q515.5313,360.1289 515.7969,359.8945 Q516.0625,359.6602 516.6719,359.6602 L517.0938,359.6602 L516.6875,358.6289 Z M515.9688,356.9258 L514.6094,353.5508 L513.2344,356.9258 L515.9688,356.9258 Z " fill="#000000"/><text fill="#000000" font-family="sans-serif" font-size="14" font-style="italic" lengthAdjust="spacing" textLength="61" x="528.5" y="362.6602">CmdBody</text><line style="stroke:#27AE60;stroke-width:2.0;" x1="500.5" x2="591.5" y1="372.8633" y2="372.8633"/><line style="stroke:#27AE60;stroke-width:2.0;" x1="500.5" x2="591.5" y1="380.8633" y2="380.8633"/></g><!--class IsContactlessCmdBody--><g id="elem_IsContactlessCmdBody"><rect codeLine="175" fill="#E9F7EF" height="66.6211" id="IsContactlessCmdBody" rx="2.5" ry="2.5" style="stroke:#27AE60;stroke-width:2.0;" width="262" x="7" y="477.3633"/><ellipse cx="61.25" cy="493.3633" fill="#ADD1B2" rx="11" ry="11" style="stroke:#181818;stroke-width:1.0;"/><path d="M64.0156,489.2383 Q64.1719,489.0195 64.3594,488.9102 Q64.5469,488.8008 64.7656,488.8008 Q65.1406,488.8008 65.375,489.0664 Q65.6094,489.3164 65.6094,489.9258 L65.6094,491.3789 Q65.6094,491.9883 65.375,492.2539 Q65.1406,492.5195 64.7656,492.5195 Q64.4219,492.5195 64.2188,492.3164 Q64.0156,492.1289 63.9063,491.6133 Q63.8594,491.2539 63.6719,491.0664 Q63.3438,490.6914 62.7344,490.4727 Q62.125,490.2539 61.5,490.2539 Q60.7344,490.2539 60.0938,490.582 Q59.4688,490.9102 58.9688,491.6602 Q58.4844,492.4102 58.4844,493.4414 L58.4844,494.5352 Q58.4844,495.7695 59.375,496.5977 Q60.2656,497.4102 61.8594,497.4102 Q62.7969,497.4102 63.4531,497.1602 Q63.8438,497.0039 64.2656,496.5664 Q64.5313,496.3008 64.6719,496.2227 Q64.8281,496.1445 65.0313,496.1445 Q65.3594,496.1445 65.6094,496.4102 Q65.875,496.6602 65.875,497.0039 Q65.875,497.3477 65.5313,497.7539 Q65.0313,498.332 64.2344,498.6602 Q63.1563,499.1133 61.8594,499.1133 Q60.3438,499.1133 59.1406,498.4883 Q58.1563,497.9883 57.4688,496.9258 Q56.7813,495.8477 56.7813,494.5664 L56.7813,493.4102 Q56.7813,492.082 57.3906,490.9414 Q58.0156,489.7852 59.1094,489.1758 Q60.2031,488.5508 61.4375,488.5508 Q62.1719,488.5508 62.8125,488.7227 Q63.4688,488.8789 64.0156,489.2383 Z " fill="#000000"/><text fill="#000000" font-family="sans-serif" font-size="14" lengthAdjust="spacing" textLength="145" x="81.75" y="499.1602">IsContactlessCmdBody</text><line style="stroke:#27AE60;stroke-width:2.0;" x1="8" x2="268" y1="509.3633" y2="509.3633"/><text fill="#000000" font-family="sans-serif" font-size="14" font-weight="bold" lengthAdjust="spacing" textLength="53" x="13" y="528.4707">service</text><text fill="#000000" font-family="sans-serif" font-size="14" lengthAdjust="spacing" textLength="66" x="70" y="528.4707">: String = "</text><text fill="#000000" font-family="sans-serif" font-size="14" font-weight="bold" lengthAdjust="spacing" textLength="122" x="136" y="528.4707">IS_CONTACTLESS</text><text fill="#000000" font-family="sans-serif" font-size="14" lengthAdjust="spacing" textLength="5" x="258" y="528.4707">"</text><line style="stroke:#27AE60;stroke-width:2.0;" x1="8" x2="268" y1="535.9844" y2="535.9844"/></g><!--class IsCardPresentCmdBody--><g id="elem_IsCardPresentCmdBody"><rect codeLine="172" fill="#E9F7EF" height="66.6211" id="IsCardPresentCmdBody" rx="2.5" ry="2.5" style="stroke:#27AE60;stroke-width:2.0;" width="272" x="304" y="477.3633"/><ellipse cx="360.25" cy="493.3633" fill="#ADD1B2" rx="11" ry="11" style="stroke:#181818;stroke-width:1.0;"/><path d="M363.0156,489.2383 Q363.1719,489.0195 363.3594,488.9102 Q363.5469,488.8008 363.7656,488.8008 Q364.1406,488.8008 364.375,489.0664 Q364.6094,489.3164 364.6094,489.9258 L364.6094,491.3789 Q364.6094,491.9883 364.375,492.2539 Q364.1406,492.5195 363.7656,492.5195 Q363.4219,492.5195 363.2188,492.3164 Q363.0156,492.1289 362.9063,491.6133 Q362.8594,491.2539 362.6719,491.0664 Q362.3438,490.6914 361.7344,490.4727 Q361.125,490.2539 360.5,490.2539 Q359.7344,490.2539 359.0938,490.582 Q358.4688,490.9102 357.9688,491.6602 Q357.4844,492.4102 357.4844,493.4414 L357.4844,494.5352 Q357.4844,495.7695 358.375,496.5977 Q359.2656,497.4102 360.8594,497.4102 Q361.7969,497.4102 362.4531,497.1602 Q362.8438,497.0039 363.2656,496.5664 Q363.5313,496.3008 363.6719,496.2227 Q363.8281,496.1445 364.0313,496.1445 Q364.3594,496.1445 364.6094,496.4102 Q364.875,496.6602 364.875,497.0039 Q364.875,497.3477 364.5313,497.7539 Q364.0313,498.332 363.2344,498.6602 Q362.1563,499.1133 360.8594,499.1133 Q359.3438,499.1133 358.1406,498.4883 Q357.1563,497.9883 356.4688,496.9258 Q355.7813,495.8477 355.7813,494.5664 L355.7813,493.4102 Q355.7813,492.082 356.3906,490.9414 Q357.0156,489.7852 358.1094,489.1758 Q359.2031,488.5508 360.4375,488.5508 Q361.1719,488.5508 361.8125,488.7227 Q362.4688,488.8789 363.0156,489.2383 Z " fill="#000000"/><text fill="#000000" font-family="sans-serif" font-size="14" lengthAdjust="spacing" textLength="151" x="380.75" y="499.1602">IsCardPresentCmdBody</text><line style="stroke:#27AE60;stroke-width:2.0;" x1="305" x2="575" y1="509.3633" y2="509.3633"/><text fill="#000000" font-family="sans-serif" font-size="14" font-weight="bold" lengthAdjust="spacing" textLength="53" x="310" y="528.4707">service</text><text fill="#000000" font-family="sans-serif" font-size="14" lengthAdjust="spacing" textLength="66" x="367" y="528.4707">: String = "</text><text fill="#000000" font-family="sans-serif" font-size="14" font-weight="bold" lengthAdjust="spacing" textLength="132" x="433" y="528.4707">IS_CARD_PRESENT</text><text fill="#000000" font-family="sans-serif" font-size="14" lengthAdjust="spacing" textLength="5" x="565" y="528.4707">"</text><line style="stroke:#27AE60;stroke-width:2.0;" x1="305" x2="575" y1="535.9844" y2="535.9844"/></g><!--class TransmitCardSelectionRequestsCmdBody--><g id="elem_TransmitCardSelectionRequestsCmdBody"><rect codeLine="162" fill="#E9F7EF" height="122.4844" id="TransmitCardSelectionRequestsCmdBody" rx="2.5" ry="2.5" style="stroke:#27AE60;stroke-width:2.0;" width="427" x="611.5" y="449.8633"/><ellipse cx="688.25" cy="465.8633" fill="#ADD1B2" rx="11" ry="11" style="stroke:#181818;stroke-width:1.0;"/><path d="M691.0156,461.7383 Q691.1719,461.5195 691.3594,461.4102 Q691.5469,461.3008 691.7656,461.3008 Q692.1406,461.3008 692.375,461.5664 Q692.6094,461.8164 692.6094,462.4258 L692.6094,463.8789 Q692.6094,464.4883 692.375,464.7539 Q692.1406,465.0195 691.7656,465.0195 Q691.4219,465.0195 691.2188,464.8164 Q691.0156,464.6289 690.9063,464.1133 Q690.8594,463.7539 690.6719,463.5664 Q690.3438,463.1914 689.7344,462.9727 Q689.125,462.7539 688.5,462.7539 Q687.7344,462.7539 687.0938,463.082 Q686.4688,463.4102 685.9688,464.1602 Q685.4844,464.9102 685.4844,465.9414 L685.4844,467.0352 Q685.4844,468.2695 686.375,469.0977 Q687.2656,469.9102 688.8594,469.9102 Q689.7969,469.9102 690.4531,469.6602 Q690.8438,469.5039 691.2656,469.0664 Q691.5313,468.8008 691.6719,468.7227 Q691.8281,468.6445 692.0313,468.6445 Q692.3594,468.6445 692.6094,468.9102 Q692.875,469.1602 692.875,469.5039 Q692.875,469.8477 692.5313,470.2539 Q692.0313,470.832 691.2344,471.1602 Q690.1563,471.6133 688.8594,471.6133 Q687.3438,471.6133 686.1406,470.9883 Q685.1563,470.4883 684.4688,469.4258 Q683.7813,468.3477 683.7813,467.0664 L683.7813,465.9102 Q683.7813,464.582 684.3906,463.4414 Q685.0156,462.2852 686.1094,461.6758 Q687.2031,461.0508 688.4375,461.0508 Q689.1719,461.0508 689.8125,461.2227 Q690.4688,461.3789 691.0156,461.7383 Z " fill="#000000"/><text fill="#000000" font-family="sans-serif" font-size="14" lengthAdjust="spacing" textLength="265" x="708.75" y="471.6602">TransmitCardSelectionRequestsCmdBody</text><line style="stroke:#27AE60;stroke-width:2.0;" x1="612.5" x2="1037.5" y1="481.8633" y2="481.8633"/><text fill="#000000" font-family="sans-serif" font-size="14" font-weight="bold" lengthAdjust="spacing" textLength="53" x="617.5" y="500.9707">service</text><text fill="#000000" font-family="sans-serif" font-size="14" lengthAdjust="spacing" textLength="66" x="674.5" y="500.9707">: String = "</text><text fill="#000000" font-family="sans-serif" font-size="14" font-weight="bold" lengthAdjust="spacing" textLength="287" x="740.5" y="500.9707">TRANSMIT_CARD_SELECTION_REQUESTS</text><text fill="#000000" font-family="sans-serif" font-size="14" lengthAdjust="spacing" textLength="5" x="1027.5" y="500.9707">"</text><text fill="#000000" font-family="sans-serif" font-size="14" font-weight="bold" lengthAdjust="spacing" textLength="164" x="617.5" y="519.5918">cardSelectionRequests</text><text fill="#000000" font-family="sans-serif" font-size="14" lengthAdjust="spacing" textLength="150" x="785.5" y="519.5918">: CardSelectionRequest</text><text fill="#000000" font-family="sans-serif" font-size="14" font-weight="bold" lengthAdjust="spacing" textLength="179" x="617.5" y="538.2129">multiSelectionProcessing</text><text fill="#000000" font-family="sans-serif" font-size="14" lengthAdjust="spacing" textLength="165" x="800.5" y="538.2129">: MultiSelectionProcessing</text><text fill="#000000" font-family="sans-serif" font-size="14" font-weight="bold" lengthAdjust="spacing" textLength="108" x="617.5" y="556.834">channelControl</text><text fill="#000000" font-family="sans-serif" font-size="14" lengthAdjust="spacing" textLength="107" x="729.5" y="556.834">: ChannelControl</text><line style="stroke:#27AE60;stroke-width:2.0;" x1="612.5" x2="1037.5" y1="564.3477" y2="564.3477"/></g><!--class MultiSelectionProcessing--><g id="elem_MultiSelectionProcessing"><rect codeLine="85" fill="#FEFECE" height="85.2422" id="MultiSelectionProcessing" rx="2.5" ry="2.5" style="stroke:#D4AC0D;stroke-width:2.0;" width="189" x="573.5" y="632.8633"/><ellipse cx="588.5" cy="648.8633" fill="#EB937F" rx="11" ry="11" style="stroke:#181818;stroke-width:1.0;"/><path d="M587.3594,649.6602 L587.3594,652.1602 L591.6875,652.1602 L591.6875,651.2383 Q591.6875,650.6289 591.9219,650.3633 Q592.1719,650.0977 592.5469,650.0977 Q592.9219,650.0977 593.1563,650.3633 Q593.3906,650.6289 593.3906,651.2383 L593.3906,653.8633 L585.3906,653.8633 Q584.7656,653.8633 584.5,653.6289 Q584.25,653.3945 584.25,653.0039 Q584.25,652.6289 584.5156,652.3945 Q584.7813,652.1602 585.3906,652.1602 L585.6563,652.1602 L585.6563,645.5039 L585.3906,645.5039 Q584.7656,645.5039 584.5,645.2695 Q584.25,645.0352 584.25,644.6445 Q584.25,644.2695 584.5,644.0352 Q584.7656,643.8008 585.3906,643.8008 L593.0156,643.8008 L593.0156,646.3945 Q593.0156,647.0039 592.7813,647.2695 Q592.5625,647.5195 592.1719,647.5195 Q591.7969,647.5195 591.5625,647.2695 Q591.3281,647.0039 591.3281,646.3945 L591.3281,645.5039 L587.3594,645.5039 L587.3594,647.957 L588.8438,647.957 Q588.8438,647.3008 588.9688,647.1133 Q589.2344,646.707 589.7031,646.707 Q590.0781,646.707 590.3125,646.9727 Q590.5469,647.2227 590.5469,647.832 L590.5469,649.8008 Q590.5469,650.3477 590.4219,650.5352 Q590.1563,650.9258 589.7031,650.9258 Q589.2344,650.9258 588.9688,650.5195 Q588.8438,650.332 588.8438,649.6602 L587.3594,649.6602 Z " fill="#000000"/><text fill="#000000" font-family="sans-serif" font-size="14" lengthAdjust="spacing" textLength="157" x="602.5" y="654.6602">MultiSelectionProcessing</text><line style="stroke:#D4AC0D;stroke-width:2.0;" x1="574.5" x2="761.5" y1="664.8633" y2="664.8633"/><text fill="#000000" font-family="sans-serif" font-size="14" lengthAdjust="spacing" textLength="96" x="579.5" y="683.9707">FIRST_MATCH</text><text fill="#000000" font-family="sans-serif" font-size="14" lengthAdjust="spacing" textLength="100" x="579.5" y="702.5918">PROCESS_ALL</text><line style="stroke:#D4AC0D;stroke-width:2.0;" x1="574.5" x2="761.5" y1="710.1055" y2="710.1055"/></g><!--class CardSelectionRequest--><g id="elem_CardSelectionRequest"><rect codeLine="163" fill="#E9F7EF" height="85.2422" id="CardSelectionRequest" rx="2.5" ry="2.5" style="stroke:#27AE60;stroke-width:2.0;" width="206" x="798" y="632.8633"/><ellipse cx="827.4" cy="648.8633" fill="#ADD1B2" rx="11" ry="11" style="stroke:#181818;stroke-width:1.0;"/><path d="M830.1656,644.7383 Q830.3219,644.5195 830.5094,644.4102 Q830.6969,644.3008 830.9156,644.3008 Q831.2906,644.3008 831.525,644.5664 Q831.7594,644.8164 831.7594,645.4258 L831.7594,646.8789 Q831.7594,647.4883 831.525,647.7539 Q831.2906,648.0195 830.9156,648.0195 Q830.5719,648.0195 830.3688,647.8164 Q830.1656,647.6289 830.0563,647.1133 Q830.0094,646.7539 829.8219,646.5664 Q829.4938,646.1914 828.8844,645.9727 Q828.275,645.7539 827.65,645.7539 Q826.8844,645.7539 826.2438,646.082 Q825.6188,646.4102 825.1188,647.1602 Q824.6344,647.9102 824.6344,648.9414 L824.6344,650.0352 Q824.6344,651.2695 825.525,652.0977 Q826.4156,652.9102 828.0094,652.9102 Q828.9469,652.9102 829.6031,652.6602 Q829.9938,652.5039 830.4156,652.0664 Q830.6813,651.8008 830.8219,651.7227 Q830.9781,651.6445 831.1813,651.6445 Q831.5094,651.6445 831.7594,651.9102 Q832.025,652.1602 832.025,652.5039 Q832.025,652.8477 831.6813,653.2539 Q831.1813,653.832 830.3844,654.1602 Q829.3063,654.6133 828.0094,654.6133 Q826.4938,654.6133 825.2906,653.9883 Q824.3063,653.4883 823.6188,652.4258 Q822.9313,651.3477 822.9313,650.0664 L822.9313,648.9102 Q822.9313,647.582 823.5406,646.4414 Q824.1656,645.2852 825.2594,644.6758 Q826.3531,644.0508 827.5875,644.0508 Q828.3219,644.0508 828.9625,644.2227 Q829.6188,644.3789 830.1656,644.7383 Z " fill="#000000"/><text fill="#000000" font-family="sans-serif" font-size="14" lengthAdjust="spacing" textLength="142" x="844.6" y="654.6602">CardSelectionRequest</text><line style="stroke:#27AE60;stroke-width:2.0;" x1="799" x2="1003" y1="664.8633" y2="664.8633"/><text fill="#000000" font-family="sans-serif" font-size="14" font-weight="bold" lengthAdjust="spacing" textLength="90" x="804" y="683.9707">cardSelector</text><text fill="#000000" font-family="sans-serif" font-size="14" lengthAdjust="spacing" textLength="91" x="898" y="683.9707">: CardSelector</text><text fill="#000000" font-family="sans-serif" font-size="14" font-weight="bold" lengthAdjust="spacing" textLength="90" x="804" y="702.5918">cardRequest</text><text fill="#000000" font-family="sans-serif" font-size="14" lengthAdjust="spacing" textLength="100" x="898" y="702.5918">: CardRequest?</text><line style="stroke:#27AE60;stroke-width:2.0;" x1="799" x2="1003" y1="710.1055" y2="710.1055"/></g><!--class CardSelector--><g id="elem_CardSelector"><rect codeLine="164" fill="#E9F7EF" height="159.7266" id="CardSelector" rx="2.5" ry="2.5" style="stroke:#27AE60;stroke-width:2.0;" width="317" x="736.5" y="778.8633"/><ellipse cx="849.25" cy="794.8633" fill="#ADD1B2" rx="11" ry="11" style="stroke:#181818;stroke-width:1.0;"/><path d="M852.0156,790.7383 Q852.1719,790.5195 852.3594,790.4102 Q852.5469,790.3008 852.7656,790.3008 Q853.1406,790.3008 853.375,790.5664 Q853.6094,790.8164 853.6094,791.4258 L853.6094,792.8789 Q853.6094,793.4883 853.375,793.7539 Q853.1406,794.0195 852.7656,794.0195 Q852.4219,794.0195 852.2188,793.8164 Q852.0156,793.6289 851.9063,793.1133 Q851.8594,792.7539 851.6719,792.5664 Q851.3438,792.1914 850.7344,791.9727 Q850.125,791.7539 849.5,791.7539 Q848.7344,791.7539 848.0938,792.082 Q847.4688,792.4102 846.9688,793.1602 Q846.4844,793.9102 846.4844,794.9414 L846.4844,796.0352 Q846.4844,797.2695 847.375,798.0977 Q848.2656,798.9102 849.8594,798.9102 Q850.7969,798.9102 851.4531,798.6602 Q851.8438,798.5039 852.2656,798.0664 Q852.5313,797.8008 852.6719,797.7227 Q852.8281,797.6445 853.0313,797.6445 Q853.3594,797.6445 853.6094,797.9102 Q853.875,798.1602 853.875,798.5039 Q853.875,798.8477 853.5313,799.2539 Q853.0313,799.832 852.2344,800.1602 Q851.1563,800.6133 849.8594,800.6133 Q848.3438,800.6133 847.1406,799.9883 Q846.1563,799.4883 845.4688,798.4258 Q844.7813,797.3477 844.7813,796.0664 L844.7813,794.9102 Q844.7813,793.582 845.3906,792.4414 Q846.0156,791.2852 847.1094,790.6758 Q848.2031,790.0508 849.4375,790.0508 Q850.1719,790.0508 850.8125,790.2227 Q851.4688,790.3789 852.0156,790.7383 Z " fill="#000000"/><text fill="#000000" font-family="sans-serif" font-size="14" lengthAdjust="spacing" textLength="83" x="869.75" y="800.6602">CardSelector</text><line style="stroke:#27AE60;stroke-width:2.0;" x1="737.5" x2="1052.5" y1="810.8633" y2="810.8633"/><text fill="#000000" font-family="sans-serif" font-size="14" font-weight="bold" lengthAdjust="spacing" textLength="90" x="742.5" y="829.9707">cardProtocol</text><text fill="#000000" font-family="sans-serif" font-size="14" lengthAdjust="spacing" textLength="53" x="836.5" y="829.9707">: String?</text><text fill="#000000" font-family="sans-serif" font-size="14" font-weight="bold" lengthAdjust="spacing" textLength="140" x="742.5" y="848.5918">powerOnDataRegex</text><text fill="#000000" font-family="sans-serif" font-size="14" lengthAdjust="spacing" textLength="53" x="886.5" y="848.5918">: String?</text><text fill="#000000" font-family="sans-serif" font-size="14" font-weight="bold" lengthAdjust="spacing" textLength="21" x="742.5" y="867.2129">aid</text><text fill="#000000" font-family="sans-serif" font-size="14" lengthAdjust="spacing" textLength="53" x="767.5" y="867.2129">: String?</text><text fill="#000000" font-family="sans-serif" font-size="14" font-weight="bold" lengthAdjust="spacing" textLength="231" x="742.5" y="885.834">successfulSelectionStatusWords</text><text fill="#000000" font-family="sans-serif" font-size="14" lengthAdjust="spacing" textLength="53" x="977.5" y="885.834">: String[]</text><text fill="#000000" font-family="sans-serif" font-size="14" font-weight="bold" lengthAdjust="spacing" textLength="105" x="742.5" y="904.4551">fileOccurrence</text><text fill="#000000" font-family="sans-serif" font-size="14" lengthAdjust="spacing" textLength="105" x="851.5" y="904.4551">: FileOccurrence</text><text fill="#000000" font-family="sans-serif" font-size="14" font-weight="bold" lengthAdjust="spacing" textLength="154" x="742.5" y="923.0762">fileControlInformation</text><text fill="#000000" font-family="sans-serif" font-size="14" lengthAdjust="spacing" textLength="147" x="900.5" y="923.0762">: FileControlInformation</text><line style="stroke:#27AE60;stroke-width:2.0;" x1="737.5" x2="1052.5" y1="930.5898" y2="930.5898"/></g><!--class FileOccurrence--><g id="elem_FileOccurrence"><rect codeLine="101" fill="#FEFECE" height="122.4844" id="FileOccurrence" rx="2.5" ry="2.5" style="stroke:#D4AC0D;stroke-width:2.0;" width="129" x="699.5" y="999.8633"/><ellipse cx="714.5" cy="1015.8633" fill="#EB937F" rx="11" ry="11" style="stroke:#181818;stroke-width:1.0;"/><path d="M713.3594,1016.6602 L713.3594,1019.1602 L717.6875,1019.1602 L717.6875,1018.2383 Q717.6875,1017.6289 717.9219,1017.3633 Q718.1719,1017.0977 718.5469,1017.0977 Q718.9219,1017.0977 719.1563,1017.3633 Q719.3906,1017.6289 719.3906,1018.2383 L719.3906,1020.8633 L711.3906,1020.8633 Q710.7656,1020.8633 710.5,1020.6289 Q710.25,1020.3945 710.25,1020.0039 Q710.25,1019.6289 710.5156,1019.3945 Q710.7813,1019.1602 711.3906,1019.1602 L711.6563,1019.1602 L711.6563,1012.5039 L711.3906,1012.5039 Q710.7656,1012.5039 710.5,1012.2695 Q710.25,1012.0352 710.25,1011.6445 Q710.25,1011.2695 710.5,1011.0352 Q710.7656,1010.8008 711.3906,1010.8008 L719.0156,1010.8008 L719.0156,1013.3945 Q719.0156,1014.0039 718.7813,1014.2695 Q718.5625,1014.5195 718.1719,1014.5195 Q717.7969,1014.5195 717.5625,1014.2695 Q717.3281,1014.0039 717.3281,1013.3945 L717.3281,1012.5039 L713.3594,1012.5039 L713.3594,1014.957 L714.8438,1014.957 Q714.8438,1014.3008 714.9688,1014.1133 Q715.2344,1013.707 715.7031,1013.707 Q716.0781,1013.707 716.3125,1013.9727 Q716.5469,1014.2227 716.5469,1014.832 L716.5469,1016.8008 Q716.5469,1017.3477 716.4219,1017.5352 Q716.1563,1017.9258 715.7031,1017.9258 Q715.2344,1017.9258 714.9688,1017.5195 Q714.8438,1017.332 714.8438,1016.6602 L713.3594,1016.6602 Z " fill="#000000"/><text fill="#000000" font-family="sans-serif" font-size="14" lengthAdjust="spacing" textLength="97" x="728.5" y="1021.6602">FileOccurrence</text><line style="stroke:#D4AC0D;stroke-width:2.0;" x1="700.5" x2="827.5" y1="1031.8633" y2="1031.8633"/><text fill="#000000" font-family="sans-serif" font-size="14" lengthAdjust="spacing" textLength="40" x="705.5" y="1050.9707">FIRST</text><text fill="#000000" font-family="sans-serif" font-size="14" lengthAdjust="spacing" textLength="35" x="705.5" y="1069.5918">LAST</text><text fill="#000000" font-family="sans-serif" font-size="14" lengthAdjust="spacing" textLength="35" x="705.5" y="1088.2129">NEXT</text><text fill="#000000" font-family="sans-serif" font-size="14" lengthAdjust="spacing" textLength="69" x="705.5" y="1106.834">PREVIOUS</text><line style="stroke:#D4AC0D;stroke-width:2.0;" x1="700.5" x2="827.5" y1="1114.3477" y2="1114.3477"/></g><!--class FileControlInformation--><g id="elem_FileControlInformation"><rect codeLine="107" fill="#FEFECE" height="122.4844" id="FileControlInformation" rx="2.5" ry="2.5" style="stroke:#D4AC0D;stroke-width:2.0;" width="171" x="863.5" y="999.8633"/><ellipse cx="878.5" cy="1015.8633" fill="#EB937F" rx="11" ry="11" style="stroke:#181818;stroke-width:1.0;"/><path d="M877.3594,1016.6602 L877.3594,1019.1602 L881.6875,1019.1602 L881.6875,1018.2383 Q881.6875,1017.6289 881.9219,1017.3633 Q882.1719,1017.0977 882.5469,1017.0977 Q882.9219,1017.0977 883.1563,1017.3633 Q883.3906,1017.6289 883.3906,1018.2383 L883.3906,1020.8633 L875.3906,1020.8633 Q874.7656,1020.8633 874.5,1020.6289 Q874.25,1020.3945 874.25,1020.0039 Q874.25,1019.6289 874.5156,1019.3945 Q874.7813,1019.1602 875.3906,1019.1602 L875.6563,1019.1602 L875.6563,1012.5039 L875.3906,1012.5039 Q874.7656,1012.5039 874.5,1012.2695 Q874.25,1012.0352 874.25,1011.6445 Q874.25,1011.2695 874.5,1011.0352 Q874.7656,1010.8008 875.3906,1010.8008 L883.0156,1010.8008 L883.0156,1013.3945 Q883.0156,1014.0039 882.7813,1014.2695 Q882.5625,1014.5195 882.1719,1014.5195 Q881.7969,1014.5195 881.5625,1014.2695 Q881.3281,1014.0039 881.3281,1013.3945 L881.3281,1012.5039 L877.3594,1012.5039 L877.3594,1014.957 L878.8438,1014.957 Q878.8438,1014.3008 878.9688,1014.1133 Q879.2344,1013.707 879.7031,1013.707 Q880.0781,1013.707 880.3125,1013.9727 Q880.5469,1014.2227 880.5469,1014.832 L880.5469,1016.8008 Q880.5469,1017.3477 880.4219,1017.5352 Q880.1563,1017.9258 879.7031,1017.9258 Q879.2344,1017.9258 878.9688,1017.5195 Q878.8438,1017.332 878.8438,1016.6602 L877.3594,1016.6602 Z " fill="#000000"/><text fill="#000000" font-family="sans-serif" font-size="14" lengthAdjust="spacing" textLength="139" x="892.5" y="1021.6602">FileControlInformation</text><line style="stroke:#D4AC0D;stroke-width:2.0;" x1="864.5" x2="1033.5" y1="1031.8633" y2="1031.8633"/><text fill="#000000" font-family="sans-serif" font-size="14" lengthAdjust="spacing" textLength="22" x="869.5" y="1050.9707">FCI</text><text fill="#000000" font-family="sans-serif" font-size="14" lengthAdjust="spacing" textLength="28" x="869.5" y="1069.5918">FCP</text><text fill="#000000" font-family="sans-serif" font-size="14" lengthAdjust="spacing" textLength="30" x="869.5" y="1088.2129">FMD</text><text fill="#000000" font-family="sans-serif" font-size="14" lengthAdjust="spacing" textLength="103" x="869.5" y="1106.834">NO_RESPONSE</text><line style="stroke:#D4AC0D;stroke-width:2.0;" x1="864.5" x2="1033.5" y1="1114.3477" y2="1114.3477"/></g><!--class CardRequest--><g id="elem_CardRequest"><rect codeLine="165" fill="#E9F7EF" height="85.2422" id="CardRequest" rx="2.5" ry="2.5" style="stroke:#27AE60;stroke-width:2.0;" width="303" x="1088.5" y="816.3633"/><ellipse cx="1193.75" cy="832.3633" fill="#ADD1B2" rx="11" ry="11" style="stroke:#181818;stroke-width:1.0;"/><path d="M1196.5156,828.2383 Q1196.6719,828.0195 1196.8594,827.9102 Q1197.0469,827.8008 1197.2656,827.8008 Q1197.6406,827.8008 1197.875,828.0664 Q1198.1094,828.3164 1198.1094,828.9258 L1198.1094,830.3789 Q1198.1094,830.9883 1197.875,831.2539 Q1197.6406,831.5195 1197.2656,831.5195 Q1196.9219,831.5195 1196.7188,831.3164 Q1196.5156,831.1289 1196.4063,830.6133 Q1196.3594,830.2539 1196.1719,830.0664 Q1195.8438,829.6914 1195.2344,829.4727 Q1194.625,829.2539 1194,829.2539 Q1193.2344,829.2539 1192.5938,829.582 Q1191.9688,829.9102 1191.4688,830.6602 Q1190.9844,831.4102 1190.9844,832.4414 L1190.9844,833.5352 Q1190.9844,834.7695 1191.875,835.5977 Q1192.7656,836.4102 1194.3594,836.4102 Q1195.2969,836.4102 1195.9531,836.1602 Q1196.3438,836.0039 1196.7656,835.5664 Q1197.0313,835.3008 1197.1719,835.2227 Q1197.3281,835.1445 1197.5313,835.1445 Q1197.8594,835.1445 1198.1094,835.4102 Q1198.375,835.6602 1198.375,836.0039 Q1198.375,836.3477 1198.0313,836.7539 Q1197.5313,837.332 1196.7344,837.6602 Q1195.6563,838.1133 1194.3594,838.1133 Q1192.8438,838.1133 1191.6406,837.4883 Q1190.6563,836.9883 1189.9688,835.9258 Q1189.2813,834.8477 1189.2813,833.5664 L1189.2813,832.4102 Q1189.2813,831.082 1189.8906,829.9414 Q1190.5156,828.7852 1191.6094,828.1758 Q1192.7031,827.5508 1193.9375,827.5508 Q1194.6719,827.5508 1195.3125,827.7227 Q1195.9688,827.8789 1196.5156,828.2383 Z " fill="#000000"/><text fill="#000000" font-family="sans-serif" font-size="14" lengthAdjust="spacing" textLength="84" x="1214.25" y="838.1602">CardRequest</text><line style="stroke:#27AE60;stroke-width:2.0;" x1="1089.5" x2="1390.5" y1="848.3633" y2="848.3633"/><text fill="#000000" font-family="sans-serif" font-size="14" font-weight="bold" lengthAdjust="spacing" textLength="102" x="1094.5" y="867.4707">apduRequests</text><text fill="#000000" font-family="sans-serif" font-size="14" lengthAdjust="spacing" textLength="102" x="1200.5" y="867.4707">: ApduRequest[]</text><text fill="#000000" font-family="sans-serif" font-size="14" font-weight="bold" lengthAdjust="spacing" textLength="227" x="1094.5" y="886.0918">stopOnUnsuccessfulStatusWord</text><text fill="#000000" font-family="sans-serif" font-size="14" lengthAdjust="spacing" textLength="60" x="1325.5" y="886.0918">: Boolean</text><line style="stroke:#27AE60;stroke-width:2.0;" x1="1089.5" x2="1390.5" y1="893.6055" y2="893.6055"/></g><!--class ApduRequest--><g id="elem_ApduRequest"><rect codeLine="166" fill="#E9F7EF" height="103.8633" id="ApduRequest" rx="2.5" ry="2.5" style="stroke:#27AE60;stroke-width:2.0;" width="234" x="1123" y="1008.8633"/><ellipse cx="1192.75" cy="1024.8633" fill="#ADD1B2" rx="11" ry="11" style="stroke:#181818;stroke-width:1.0;"/><path d="M1195.5156,1020.7383 Q1195.6719,1020.5195 1195.8594,1020.4102 Q1196.0469,1020.3008 1196.2656,1020.3008 Q1196.6406,1020.3008 1196.875,1020.5664 Q1197.1094,1020.8164 1197.1094,1021.4258 L1197.1094,1022.8789 Q1197.1094,1023.4883 1196.875,1023.7539 Q1196.6406,1024.0195 1196.2656,1024.0195 Q1195.9219,1024.0195 1195.7188,1023.8164 Q1195.5156,1023.6289 1195.4063,1023.1133 Q1195.3594,1022.7539 1195.1719,1022.5664 Q1194.8438,1022.1914 1194.2344,1021.9727 Q1193.625,1021.7539 1193,1021.7539 Q1192.2344,1021.7539 1191.5938,1022.082 Q1190.9688,1022.4102 1190.4688,1023.1602 Q1189.9844,1023.9102 1189.9844,1024.9414 L1189.9844,1026.0352 Q1189.9844,1027.2695 1190.875,1028.0977 Q1191.7656,1028.9102 1193.3594,1028.9102 Q1194.2969,1028.9102 1194.9531,1028.6602 Q1195.3438,1028.5039 1195.7656,1028.0664 Q1196.0313,1027.8008 1196.1719,1027.7227 Q1196.3281,1027.6445 1196.5313,1027.6445 Q1196.8594,1027.6445 1197.1094,1027.9102 Q1197.375,1028.1602 1197.375,1028.5039 Q1197.375,1028.8477 1197.0313,1029.2539 Q1196.5313,1029.832 1195.7344,1030.1602 Q1194.6563,1030.6133 1193.3594,1030.6133 Q1191.8438,1030.6133 1190.6406,1029.9883 Q1189.6563,1029.4883 1188.9688,1028.4258 Q1188.2813,1027.3477 1188.2813,1026.0664 L1188.2813,1024.9102 Q1188.2813,1023.582 1188.8906,1022.4414 Q1189.5156,1021.2852 1190.6094,1020.6758 Q1191.7031,1020.0508 1192.9375,1020.0508 Q1193.6719,1020.0508 1194.3125,1020.2227 Q1194.9688,1020.3789 1195.5156,1020.7383 Z " fill="#000000"/><text fill="#000000" font-family="sans-serif" font-size="14" lengthAdjust="spacing" textLength="86" x="1213.25" y="1030.6602">ApduRequest</text><line style="stroke:#27AE60;stroke-width:2.0;" x1="1124" x2="1356" y1="1040.8633" y2="1040.8633"/><text fill="#000000" font-family="sans-serif" font-size="14" font-weight="bold" lengthAdjust="spacing" textLength="35" x="1129" y="1059.9707">apdu</text><text fill="#000000" font-family="sans-serif" font-size="14" lengthAdjust="spacing" textLength="45" x="1168" y="1059.9707">: String</text><text fill="#000000" font-family="sans-serif" font-size="14" font-weight="bold" lengthAdjust="spacing" textLength="165" x="1129" y="1078.5918">successfulStatusWords</text><text fill="#000000" font-family="sans-serif" font-size="14" lengthAdjust="spacing" textLength="53" x="1298" y="1078.5918">: String[]</text><text fill="#000000" font-family="sans-serif" font-size="14" font-weight="bold" lengthAdjust="spacing" textLength="27" x="1129" y="1097.2129">info</text><text fill="#000000" font-family="sans-serif" font-size="14" lengthAdjust="spacing" textLength="53" x="1160" y="1097.2129">: String?</text><line style="stroke:#27AE60;stroke-width:2.0;" x1="1124" x2="1356" y1="1104.7266" y2="1104.7266"/></g><!--class ChannelControl--><g id="elem_ChannelControl"><rect codeLine="122" fill="#FEFECE" height="85.2422" id="ChannelControl" rx="2.5" ry="2.5" style="stroke:#D4AC0D;stroke-width:2.0;" width="131" x="1050.5" y="632.8633"/><ellipse cx="1065.5" cy="648.8633" fill="#EB937F" rx="11" ry="11" style="stroke:#181818;stroke-width:1.0;"/><path d="M1064.3594,649.6602 L1064.3594,652.1602 L1068.6875,652.1602 L1068.6875,651.2383 Q1068.6875,650.6289 1068.9219,650.3633 Q1069.1719,650.0977 1069.5469,650.0977 Q1069.9219,650.0977 1070.1563,650.3633 Q1070.3906,650.6289 1070.3906,651.2383 L1070.3906,653.8633 L1062.3906,653.8633 Q1061.7656,653.8633 1061.5,653.6289 Q1061.25,653.3945 1061.25,653.0039 Q1061.25,652.6289 1061.5156,652.3945 Q1061.7813,652.1602 1062.3906,652.1602 L1062.6563,652.1602 L1062.6563,645.5039 L1062.3906,645.5039 Q1061.7656,645.5039 1061.5,645.2695 Q1061.25,645.0352 1061.25,644.6445 Q1061.25,644.2695 1061.5,644.0352 Q1061.7656,643.8008 1062.3906,643.8008 L1070.0156,643.8008 L1070.0156,646.3945 Q1070.0156,647.0039 1069.7813,647.2695 Q1069.5625,647.5195 1069.1719,647.5195 Q1068.7969,647.5195 1068.5625,647.2695 Q1068.3281,647.0039 1068.3281,646.3945 L1068.3281,645.5039 L1064.3594,645.5039 L1064.3594,647.957 L1065.8438,647.957 Q1065.8438,647.3008 1065.9688,647.1133 Q1066.2344,646.707 1066.7031,646.707 Q1067.0781,646.707 1067.3125,646.9727 Q1067.5469,647.2227 1067.5469,647.832 L1067.5469,649.8008 Q1067.5469,650.3477 1067.4219,650.5352 Q1067.1563,650.9258 1066.7031,650.9258 Q1066.2344,650.9258 1065.9688,650.5195 Q1065.8438,650.332 1065.8438,649.6602 L1064.3594,649.6602 Z " fill="#000000"/><text fill="#000000" font-family="sans-serif" font-size="14" lengthAdjust="spacing" textLength="99" x="1079.5" y="654.6602">ChannelControl</text><line style="stroke:#D4AC0D;stroke-width:2.0;" x1="1051.5" x2="1180.5" y1="664.8633" y2="664.8633"/><text fill="#000000" font-family="sans-serif" font-size="14" lengthAdjust="spacing" textLength="82" x="1056.5" y="683.9707">KEEP_OPEN</text><text fill="#000000" font-family="sans-serif" font-size="14" lengthAdjust="spacing" textLength="101" x="1056.5" y="702.5918">CLOSE_AFTER</text><line style="stroke:#D4AC0D;stroke-width:2.0;" x1="1051.5" x2="1180.5" y1="710.1055" y2="710.1055"/></g><!--class TransmitCardRequestCmdBody--><g id="elem_TransmitCardRequestCmdBody"><rect codeLine="169" fill="#E9F7EF" height="103.8633" id="TransmitCardRequestCmdBody" rx="2.5" ry="2.5" style="stroke:#27AE60;stroke-width:2.0;" width="332" x="1074" y="458.8633"/><ellipse cx="1135.75" cy="474.8633" fill="#ADD1B2" rx="11" ry="11" style="stroke:#181818;stroke-width:1.0;"/><path d="M1138.5156,470.7383 Q1138.6719,470.5195 1138.8594,470.4102 Q1139.0469,470.3008 1139.2656,470.3008 Q1139.6406,470.3008 1139.875,470.5664 Q1140.1094,470.8164 1140.1094,471.4258 L1140.1094,472.8789 Q1140.1094,473.4883 1139.875,473.7539 Q1139.6406,474.0195 1139.2656,474.0195 Q1138.9219,474.0195 1138.7188,473.8164 Q1138.5156,473.6289 1138.4063,473.1133 Q1138.3594,472.7539 1138.1719,472.5664 Q1137.8438,472.1914 1137.2344,471.9727 Q1136.625,471.7539 1136,471.7539 Q1135.2344,471.7539 1134.5938,472.082 Q1133.9688,472.4102 1133.4688,473.1602 Q1132.9844,473.9102 1132.9844,474.9414 L1132.9844,476.0352 Q1132.9844,477.2695 1133.875,478.0977 Q1134.7656,478.9102 1136.3594,478.9102 Q1137.2969,478.9102 1137.9531,478.6602 Q1138.3438,478.5039 1138.7656,478.0664 Q1139.0313,477.8008 1139.1719,477.7227 Q1139.3281,477.6445 1139.5313,477.6445 Q1139.8594,477.6445 1140.1094,477.9102 Q1140.375,478.1602 1140.375,478.5039 Q1140.375,478.8477 1140.0313,479.2539 Q1139.5313,479.832 1138.7344,480.1602 Q1137.6563,480.6133 1136.3594,480.6133 Q1134.8438,480.6133 1133.6406,479.9883 Q1132.6563,479.4883 1131.9688,478.4258 Q1131.2813,477.3477 1131.2813,476.0664 L1131.2813,474.9102 Q1131.2813,473.582 1131.8906,472.4414 Q1132.5156,471.2852 1133.6094,470.6758 Q1134.7031,470.0508 1135.9375,470.0508 Q1136.6719,470.0508 1137.3125,470.2227 Q1137.9688,470.3789 1138.5156,470.7383 Z " fill="#000000"/><text fill="#000000" font-family="sans-serif" font-size="14" lengthAdjust="spacing" textLength="200" x="1156.25" y="480.6602">TransmitCardRequestCmdBody</text><line style="stroke:#27AE60;stroke-width:2.0;" x1="1075" x2="1405" y1="490.8633" y2="490.8633"/><text fill="#000000" font-family="sans-serif" font-size="14" font-weight="bold" lengthAdjust="spacing" textLength="53" x="1080" y="509.9707">service</text><text fill="#000000" font-family="sans-serif" font-size="14" lengthAdjust="spacing" textLength="66" x="1137" y="509.9707">: String = "</text><text fill="#000000" font-family="sans-serif" font-size="14" font-weight="bold" lengthAdjust="spacing" textLength="192" x="1203" y="509.9707">TRANSMIT_CARD_REQUEST</text><text fill="#000000" font-family="sans-serif" font-size="14" lengthAdjust="spacing" textLength="5" x="1395" y="509.9707">"</text><text fill="#000000" font-family="sans-serif" font-size="14" font-weight="bold" lengthAdjust="spacing" textLength="108" x="1080" y="528.5918">channelControl</text><text fill="#000000" font-family="sans-serif" font-size="14" lengthAdjust="spacing" textLength="107" x="1192" y="528.5918">: ChannelControl</text><text fill="#000000" font-family="sans-serif" font-size="14" font-weight="bold" lengthAdjust="spacing" textLength="90" x="1080" y="547.2129">cardRequest</text><text fill="#000000" font-family="sans-serif" font-size="14" lengthAdjust="spacing" textLength="92" x="1174" y="547.2129">: CardRequest</text><line style="stroke:#27AE60;stroke-width:2.0;" x1="1075" x2="1405" y1="554.7266" y2="554.7266"/></g><!--reverse link CmdBody to IsContactlessCmdBody--><g id="link_CmdBody_IsContactlessCmdBody"><path d="M479.756,385.8083 C426.943,402.0583 351.277,426.1223 286,449.8633 C262.81,458.2973 237.857,468.1193 215.168,477.3443 " fill="none" id="CmdBody-backto-IsContactlessCmdBody" style="stroke:#181818;stroke-width:2.0;"/><polygon fill="none" points="477.983,379.0303,499.156,379.8743,482.078,392.4183,477.983,379.0303" style="stroke:#181818;stroke-width:2.0;"/></g><!--reverse link CmdBody to IsCardPresentCmdBody--><g id="link_CmdBody_IsCardPresentCmdBody"><path d="M516.94,405.3413 C500.346,427.8833 479.788,455.8113 464.099,477.1253 " fill="none" id="CmdBody-backto-IsCardPresentCmdBody" style="stroke:#181818;stroke-width:2.0;"/><polygon fill="none" points="511.476,400.9563,528.969,388.9993,522.75,409.2563,511.476,400.9563" style="stroke:#181818;stroke-width:2.0;"/></g><!--reverse link CmdBody to TransmitCardSelectionRequestsCmdBody--><g id="link_CmdBody_TransmitCardSelectionRequestsCmdBody"><path d="M608.716,398.2323 C638.227,413.4643 674.397,432.1333 708.652,449.8123 " fill="none" id="CmdBody-backto-TransmitCardSelectionRequestsCmdBody" style="stroke:#181818;stroke-width:2.0;"/><polygon fill="none" points="605.388,404.3923,590.826,388.9993,611.809,391.9523,605.388,404.3923" style="stroke:#181818;stroke-width:2.0;"/></g><!--reverse link CmdBody to TransmitCardRequestCmdBody--><g id="link_CmdBody_TransmitCardRequestCmdBody"><path d="M612.602,373.5503 C710.608,385.5993 899.043,411.5823 1056,449.8633 C1067.02,452.5503 1078.33,455.5713 1089.66,458.7923 " fill="none" id="CmdBody-backto-TransmitCardRequestCmdBody" style="stroke:#181818;stroke-width:2.0;"/><polygon fill="none" points="611.552,380.4743,592.537,371.1233,613.233,366.5753,611.552,380.4743" style="stroke:#181818;stroke-width:2.0;"/></g><!--reverse link CmdMessage to CmdBody--><g id="link_CmdMessage_CmdBody"><path codeLine="136" d="M546,275.1533 C546,299.6843 546,323.6533 546,340.4803 " fill="none" id="CmdMessage-backto-CmdBody" style="stroke:#3498DB;stroke-width:2.0;"/><polygon fill="#3498DB" points="546,261.9113,542,267.9113,546,273.9113,550,267.9113,546,261.9113" style="stroke:#3498DB;stroke-width:2.0;"/><text fill="#000000" font-family="sans-serif" font-size="13" lengthAdjust="spacing" textLength="61" x="547" y="306.8916">JsonString</text><text fill="#000000" font-family="sans-serif" font-size="13" lengthAdjust="spacing" textLength="7" x="538.1469" y="329.5288">1</text></g><!--reverse link TransmitCardSelectionRequestsCmdBody to CardSelectionRequest--><g id="link_TransmitCardSelectionRequestsCmdBody_CardSelectionRequest"><path codeLine="138" d="M858.715,583.9523 C866.536,600.6723 874.601,617.9173 881.564,632.8053 " fill="none" id="TransmitCardSelectionRequestsCmdBody-backto-CardSelectionRequest" style="stroke:#3498DB;stroke-width:2.0;"/><polygon fill="#3498DB" points="853.084,571.9103,852.0032,579.0399,858.1687,582.7798,859.2495,575.6502,853.084,571.9103" style="stroke:#3498DB;stroke-width:2.0;"/><text fill="#000000" font-family="sans-serif" font-size="13" lengthAdjust="spacing" textLength="7" x="870.9086" y="621.7001">1</text></g><!--reverse link TransmitCardSelectionRequestsCmdBody to MultiSelectionProcessing--><g id="link_TransmitCardSelectionRequestsCmdBody_MultiSelectionProcessing"><path codeLine="139" d="M757.7,581.5213 C740.819,598.9933 723.233,617.1953 708.151,632.8053 " fill="none" id="TransmitCardSelectionRequestsCmdBody-backto-MultiSelectionProcessing" style="stroke:#3498DB;stroke-width:2.0;"/><polygon fill="#3498DB" points="766.985,571.9103,759.9393,573.4457,758.6467,580.54,765.6924,579.0046,766.985,571.9103" style="stroke:#3498DB;stroke-width:2.0;"/><text fill="#000000" font-family="sans-serif" font-size="13" lengthAdjust="spacing" textLength="7" x="706.9923" y="621.7001">1</text></g><!--reverse link TransmitCardSelectionRequestsCmdBody to ChannelControl--><g id="link_TransmitCardSelectionRequestsCmdBody_ChannelControl"><path codeLine="140" d="M944.207,578.4313 C980.452,598.6703 1018.95,620.1673 1050.29,637.6703 " fill="none" id="TransmitCardSelectionRequestsCmdBody-backto-ChannelControl" style="stroke:#3498DB;stroke-width:2.0;"/><polygon fill="#3498DB" points="932.531,571.9103,935.8197,578.3278,943.0085,577.7603,939.7197,571.3428,932.531,571.9103" style="stroke:#3498DB;stroke-width:2.0;"/><text fill="#000000" font-family="sans-serif" font-size="13" lengthAdjust="spacing" textLength="7" x="1035.2876" y="629.3604">1</text></g><!--reverse link CardSelectionRequest to CardSelector--><g id="link_CardSelectionRequest_CardSelector"><path codeLine="142" d="M899.187,731.2103 C898.694,746.1263 898.15,762.5863 897.621,778.5643 " fill="none" id="CardSelectionRequest-backto-CardSelector" style="stroke:#3498DB;stroke-width:2.0;"/><polygon fill="#3498DB" points="899.623,718.0033,895.4267,723.8677,899.2261,729.9967,903.4223,724.1323,899.623,718.0033" style="stroke:#3498DB;stroke-width:2.0;"/><text fill="#000000" font-family="sans-serif" font-size="13" lengthAdjust="spacing" textLength="7" x="890.5427" y="767.7091">1</text></g><!--reverse link CardSelectionRequest to CardRequest--><g id="link_CardSelectionRequest_CardRequest"><path codeLine="143" d="M990.305,724.1773 C1043.76,752.7973 1111.04,788.8213 1162.3,816.2603 " fill="none" id="CardSelectionRequest-backto-CardRequest" style="stroke:#3498DB;stroke-width:2.0;stroke-dasharray:7.0,7.0;"/><polygon fill="#3498DB" points="978.773,718.0033,982.1745,724.3617,989.3521,723.6674,985.9506,717.309,978.773,718.0033" style="stroke:#3498DB;stroke-width:2.0;"/><text fill="#000000" font-family="sans-serif" font-size="13" lengthAdjust="spacing" textLength="22" x="1126.1634" y="805.148">0..1</text></g><!--reverse link CardSelector to FileOccurrence--><g id="link_CardSelector_FileOccurrence"><path codeLine="145" d="M836.031,949.8923 C825.008,966.7223 813.735,983.9313 803.479,999.5893 " fill="none" id="CardSelector-backto-FileOccurrence" style="stroke:#3498DB;stroke-width:2.0;"/><polygon fill="#3498DB" points="843.225,938.9083,836.5913,941.7357,836.6498,948.9465,843.2835,946.1191,843.225,938.9083" style="stroke:#3498DB;stroke-width:2.0;"/><text fill="#000000" font-family="sans-serif" font-size="13" lengthAdjust="spacing" textLength="7" x="800.6391" y="988.5388">1</text></g><!--reverse link CardSelector to FileControlInformation--><g id="link_CardSelector_FileControlInformation"><path codeLine="146" d="M919.828,951.8173 C924.205,968.0313 928.66,984.5283 932.726,999.5893 " fill="none" id="CardSelector-backto-FileControlInformation" style="stroke:#3498DB;stroke-width:2.0;"/><polygon fill="#3498DB" points="916.342,938.9083,914.0441,945.7435,919.4697,950.4935,921.7676,943.6583,916.342,938.9083" style="stroke:#3498DB;stroke-width:2.0;"/><text fill="#000000" font-family="sans-serif" font-size="13" lengthAdjust="spacing" textLength="7" x="923.4396" y="988.5388">1</text></g><!--reverse link CardRequest to ApduRequest--><g id="link_CardRequest_ApduRequest"><path codeLine="148" d="M1240,915.1603 C1240,944.4343 1240,980.1433 1240,1008.7643 " fill="none" id="CardRequest-backto-ApduRequest" style="stroke:#3498DB;stroke-width:2.0;"/><polygon fill="#3498DB" points="1240,901.7903,1236,907.7903,1240,913.7903,1244,907.7903,1240,901.7903" style="stroke:#3498DB;stroke-width:2.0;"/><text fill="#000000" font-family="sans-serif" font-size="13" lengthAdjust="spacing" textLength="24" x="1214.3875" y="997.6783">1..N</text></g><!--reverse link TransmitCardRequestCmdBody to ChannelControl--><g id="link_TransmitCardRequestCmdBody_ChannelControl"><path codeLine="150" d="M1192.79,573.7363 C1177.72,593.4773 1161.42,614.8373 1147.73,632.7793 " fill="none" id="TransmitCardRequestCmdBody-backto-ChannelControl" style="stroke:#3498DB;stroke-width:2.0;"/><polygon fill="#3498DB" points="1200.77,563.2793,1193.9512,565.6254,1193.4943,572.822,1200.3131,570.4759,1200.77,563.2793" style="stroke:#3498DB;stroke-width:2.0;"/><text fill="#000000" font-family="sans-serif" font-size="13" lengthAdjust="spacing" textLength="7" x="1145.2292" y="621.67">1</text></g><!--reverse link TransmitCardRequestCmdBody to CardRequest--><g id="link_TransmitCardRequestCmdBody_CardRequest"><path codeLine="151" d="M1240,575.9463 C1240,646.0553 1240,756.3913 1240,816.1143 " fill="none" id="TransmitCardRequestCmdBody-backto-CardRequest" style="stroke:#3498DB;stroke-width:2.0;"/><polygon fill="#3498DB" points="1240,562.9163,1236,568.9163,1240,574.9163,1244,568.9163,1240,562.9163" style="stroke:#3498DB;stroke-width:2.0;"/><text fill="#000000" font-family="sans-serif" font-size="13" lengthAdjust="spacing" textLength="7" x="1232.4422" y="804.9787">1</text></g><!--SRC=[jLPTSzeu57tthz3IXxRCG18WfUdqOumjjxJ4Ph6pkvcT7KQn5UADaLX9RihizB_ljH761WDfTfSNxAjppz7zqBLKh19g8FXzeSj5Gf4TIoNYcrJH27tsFHUPus6-7lBv8ea9K-WXLdUeSP_ZMvAAht58Mt-IhwILn3SDz9KA6NE6EkspTYztjIvjzA9pskcsJhkjJkUbGLc4LAviF4Vltg7W4xx4y02l5ayJcWg9OYbJAb54qHjqfzH2lZavkLFp9EG95o6Fg6p3bavknOaYDmabQIkYhN3bNME2HndFM6kH47LY_1JHsvXHP4q_Jl3r6N9UEnVEnPQvWvoEqtLwM-OkmkUuZxVHFMJtxO5jRvdFaMLQZjtPChz20zlgMlsIUJHqlw1kx-ArFIXPhtoCEdqJlphDSjLg8Lyj4yYBkYCAHPmzXtfmSRyg2gCFHVhvBO9OcKhd2RWPyZvc2oB874b51ULgkQ3cW8k82YlBA7fcNjYMxTG2XnNWe6VsyNajqAeoslRPe5CBn1KW7bnqGJgF3xjsjj-IbvKGALVuu2uExncL4fLfJI7uGta9cAvfal277HOItiy4JrcabHtiO0lNYsc8tJEjKnie9pGwmlVshQ3H-_T0QsCRMmTe2oJkzw0FZBiO6drjtAG9LCUfW7DsL7YHmtBj7hQS_a7j3VWrxlLCUorVs2ixk4dIu_ePA8zdu9mxWuFgQwZkTQsjhHNbZu9ITbHwbg5oxGkdZvs3sWLMdoajlZPlgoyV8xxCjKte8tnCEuTsh2u-BqilgyghcMXvRe3TO3KLin5gX1aZikRH9NGvcL7qTpvTcqqIAZZnpIPCIX-6DvkXTwZHR89FizdGc329ALCkpCrXL4BgrOI799bG0fjroPpk0h8n3sjxt0MTSqKF-yjiAjKvt_1ecLiXiW4y6zyDSWCV8OWA5I5d2n3lzomNGt-Q9SUqWX7sVVG2udm9QNgFN6-iapIK5cSA661KohKx_QRWmrEcsyG6dx2T_5LribGMykR4deudsCyAj4UVY6Wig8Ia_nlzab2nWM1YklxbC5Yj-dY4hM3ekTC9_laA-u7EYDv980YJyrXb-_5fGlDMcT2_uDkgdfoPOpiejLsTxAhQDIlQQPucAYxMneA7MVUmMUvtkMTnBNX76AD9Ldx1avLInGGvf2oTx-NHmJl3YHzCByt0-fI_ZoUU1LqmDKSZOD1zMHD2aRjDv5ni1Sn52QFz2eX-_r2Z0b-ZCZliMV5G1xagpmUzlE0FL7ZC9efCw8n-gu6GEAgnoZJCyd2R9aLWlY8gbR_299CbXz__q1wtSKAzC4o5e4otYbCnbN2w14DsoyMS54FBgLrQ5whALYvF_ZGozOEBVmjqgV0lG-_ABnFiqg-9hA7-7w_-OT3cR1vqip_sN1zNAh5TPhA8qafVcnj3aIEf-C9ZLwoKtIAfkTE0SxYliaAfH59HgXciDPIrTOeXz4h1TNQgfqEhVS5uFFN6s5tTtqUUZwUc4-19tGJIftxlsD61_3V3HekL9ipH0t_qhAs2CgNaOPptXZICqcUs2RVInbcZsF0pVLT_WpxBx7ZarJ0UDMWBghh9eNb_Z6dl67iIsrOph3cCsltk1fDTbxLBlKUxZHgdxRPssWxSg32jwRVE_wx05hRcg5S4gjjljzr6vRWLs0CjV2HTZ_6i2p-_zutCQ-zgVUs3Tp-u7k53jy3YzhhlshG1_2-NXmtzWQ_YVX1KhsvndsEvL0S2-y6PL65wyWLlX-KfjzGDoJy0]--></g></svg>