<?xml version="1.0" encoding="us-ascii" standalone="no"?><svg xmlns="http://www.w3.org/2000/svg" xmlns:xlink="http://www.w3.org/1999/xlink" contentStyleType="text/css" height="413px" preserveAspectRatio="none" style="width:667px;height:413px;background:#FFFFFF;" version="1.1" viewBox="0 0 667 413" width="667px" zoomAndPan="magnify"><defs/><g><rect fill="#D3D3D3" height="275.6191" style="stroke:#181818;stroke-width:1.0;" width="10" x="33.5" y="65.6211"/><rect fill="#D3D3D3" height="261.3281" style="stroke:#181818;stroke-width:1.0;" width="10" x="180.5" y="88.9121"/><rect fill="#D3D3D3" height="189.7461" style="stroke:#181818;stroke-width:1.0;" width="10" x="618.5" y="120.2031"/><rect fill="#EFEFEF" height="144.4551" rx="5" ry="5" style="stroke:#000000;stroke-width:1.5;" width="651.5" x="10" y="135.2031"/><line style="stroke:#181818;stroke-width:0.5;stroke-dasharray:5.0,5.0;" x1="38" x2="38" y1="55.6211" y2="359.2402"/><line style="stroke:#181818;stroke-width:0.5;stroke-dasharray:5.0,5.0;" x1="185" x2="185" y1="55.6211" y2="359.2402"/><line style="stroke:#181818;stroke-width:0.5;stroke-dasharray:5.0,5.0;" x1="623.5" x2="623.5" y1="55.6211" y2="359.2402"/><text fill="#000000" font-family="sans-serif" font-size="14" lengthAdjust="spacing" textLength="31" x="20" y="52.1074">Card</text><ellipse cx="38.5" cy="21" fill="#E2E2F0" rx="12" ry="12" style="stroke:#181818;stroke-width:0.5;"/><line style="stroke:#181818;stroke-width:0.5;" x1="26.5" x2="50.5" y1="35" y2="35"/><text fill="#000000" font-family="sans-serif" font-size="14" lengthAdjust="spacing" textLength="31" x="20" y="373.3477">Card</text><ellipse cx="38.5" cy="392.8613" fill="#E2E2F0" rx="12" ry="12" style="stroke:#181818;stroke-width:0.5;"/><line style="stroke:#181818;stroke-width:0.5;" x1="26.5" x2="50.5" y1="406.8613" y2="406.8613"/><rect fill="#E2E2F0" height="32.6211" rx="5" ry="5" style="stroke:#181818;stroke-width:0.5;" width="69" x="151" y="22"/><text fill="#000000" font-family="sans-serif" font-size="14" lengthAdjust="spacing" textLength="55" x="158" y="44.1074">Terminal</text><rect fill="#E2E2F0" height="32.6211" rx="5" ry="5" style="stroke:#181818;stroke-width:0.5;" width="69" x="151" y="358.2402"/><text fill="#000000" font-family="sans-serif" font-size="14" lengthAdjust="spacing" textLength="55" x="158" y="380.3477">Terminal</text><rect fill="#E2E2F0" height="32.6211" rx="5" ry="5" style="stroke:#181818;stroke-width:0.5;" width="56" x="595.5" y="22"/><text fill="#000000" font-family="sans-serif" font-size="14" lengthAdjust="spacing" textLength="42" x="602.5" y="44.1074">Server</text><rect fill="#E2E2F0" height="32.6211" rx="5" ry="5" style="stroke:#181818;stroke-width:0.5;" width="56" x="595.5" y="358.2402"/><text fill="#000000" font-family="sans-serif" font-size="14" lengthAdjust="spacing" textLength="42" x="602.5" y="380.3477">Server</text><rect fill="#D3D3D3" height="275.6191" style="stroke:#181818;stroke-width:1.0;" width="10" x="33.5" y="65.6211"/><rect fill="#D3D3D3" height="261.3281" style="stroke:#181818;stroke-width:1.0;" width="10" x="180.5" y="88.9121"/><rect fill="#D3D3D3" height="189.7461" style="stroke:#181818;stroke-width:1.0;" width="10" x="618.5" y="120.2031"/><polygon fill="#181818" points="168.5,84.9121,178.5,88.9121,168.5,88.9121" style="stroke:#181818;stroke-width:1.0;"/><line style="stroke:#181818;stroke-width:1.0;stroke-dasharray:2.0,2.0;" x1="43.5" x2="179.5" y1="88.9121" y2="88.9121"/><text fill="#000000" font-family="sans-serif" font-size="13" lengthAdjust="spacing" textLength="100" x="50.5" y="83.6494">a card is inserted</text><polygon fill="#3498DB" points="606.5,116.2031,616.5,120.2031,606.5,124.2031,610.5,120.2031" style="stroke:#3498DB;stroke-width:1.0;"/><line style="stroke:#3498DB;stroke-width:1.0;" x1="190.5" x2="612.5" y1="120.2031" y2="120.2031"/><text fill="#3498DB" font-family="sans-serif" font-size="13" lengthAdjust="spacing" textLength="81" x="197.5" y="114.9404">JSON object {</text><text fill="#3498DB" font-family="sans-serif" font-size="13" font-weight="bold" lengthAdjust="spacing" textLength="183" x="282.5" y="114.9404">EXECUTE_REMOTE_SERVICE</text><text fill="#3498DB" font-family="sans-serif" font-size="13" lengthAdjust="spacing" textLength="141" x="465.5" y="114.9404">, transaction input data }</text><path d="M15,135.2031 L83,135.2031 L83,144.4941 L73,154.4941 L10,154.4941 L10,140.2031 A5,5 0 0 1 15,135.2031 " fill="#EEEEEE" style="stroke:#000000;stroke-width:1.5;"/><rect fill="none" height="144.4551" rx="5" ry="5" style="stroke:#000000;stroke-width:1.5;" width="651.5" x="10" y="135.2031"/><text fill="#000000" font-family="sans-serif" font-size="13" font-weight="bold" lengthAdjust="spacing" textLength="28" x="25" y="150.2314">loop</text><text fill="#000000" font-family="sans-serif" font-size="11" font-weight="bold" lengthAdjust="spacing" textLength="439" x="98" y="149.0732">[while there are actions to be performed with the card or the terminal's reader]</text><polygon fill="#27AE60" points="201.5,173.7852,191.5,177.7852,201.5,181.7852,197.5,177.7852" style="stroke:#27AE60;stroke-width:1.0;"/><line style="stroke:#27AE60;stroke-width:1.0;stroke-dasharray:2.0,2.0;" x1="195.5" x2="617.5" y1="177.7852" y2="177.7852"/><text fill="#27AE60" font-family="sans-serif" font-size="13" lengthAdjust="spacing" textLength="83" x="207.5" y="172.5225">JSON array [ {</text><text fill="#27AE60" font-family="sans-serif" font-size="13" font-weight="bold" lengthAdjust="spacing" textLength="29" x="294.5" y="172.5225">CMD</text><text fill="#27AE60" font-family="sans-serif" font-size="13" lengthAdjust="spacing" textLength="59" x="323.5" y="172.5225">, action } ]</text><polygon fill="#181818" points="54.5,205.0762,44.5,209.0762,54.5,213.0762,50.5,209.0762" style="stroke:#181818;stroke-width:1.0;"/><line style="stroke:#181818;stroke-width:1.0;" x1="48.5" x2="179.5" y1="209.0762" y2="209.0762"/><text fill="#000000" font-family="sans-serif" font-size="13" lengthAdjust="spacing" textLength="93" x="60.5" y="203.8135">process (action)</text><polygon fill="#181818" points="168.5,236.3672,178.5,240.3672,168.5,244.3672,172.5,240.3672" style="stroke:#181818;stroke-width:1.0;"/><line style="stroke:#181818;stroke-width:1.0;stroke-dasharray:2.0,2.0;" x1="43.5" x2="174.5" y1="240.3672" y2="240.3672"/><text fill="#000000" font-family="sans-serif" font-size="13" lengthAdjust="spacing" textLength="32" x="50.5" y="235.1045">result</text><polygon fill="#3498DB" points="606.5,267.6582,616.5,271.6582,606.5,275.6582,610.5,271.6582" style="stroke:#3498DB;stroke-width:1.0;"/><line style="stroke:#3498DB;stroke-width:1.0;" x1="190.5" x2="612.5" y1="271.6582" y2="271.6582"/><text fill="#3498DB" font-family="sans-serif" font-size="13" lengthAdjust="spacing" textLength="81" x="197.5" y="266.3955">JSON object {</text><text fill="#3498DB" font-family="sans-serif" font-size="13" font-weight="bold" lengthAdjust="spacing" textLength="35" x="282.5" y="266.3955">RESP</text><text fill="#3498DB" font-family="sans-serif" font-size="13" lengthAdjust="spacing" textLength="48" x="317.5" y="266.3955">, result }</text><polygon fill="#27AE60" points="201.5,305.9492,191.5,309.9492,201.5,313.9492,197.5,309.9492" style="stroke:#27AE60;stroke-width:1.0;"/><line style="stroke:#27AE60;stroke-width:1.0;stroke-dasharray:2.0,2.0;" x1="195.5" x2="622.5" y1="309.9492" y2="309.9492"/><text fill="#27AE60" font-family="sans-serif" font-size="13" lengthAdjust="spacing" textLength="83" x="207.5" y="304.6865">JSON array [ {</text><text fill="#27AE60" font-family="sans-serif" font-size="13" font-weight="bold" lengthAdjust="spacing" textLength="150" x="294.5" y="304.6865">END_REMOTE_SERVICE</text><text fill="#27AE60" font-family="sans-serif" font-size="13" lengthAdjust="spacing" textLength="157" x="444.5" y="304.6865">, transaction output data } ]</text><polygon fill="#181818" points="168.5,337.2402,178.5,341.2402,168.5,341.2402" style="stroke:#181818;stroke-width:1.0;"/><line style="stroke:#181818;stroke-width:1.0;stroke-dasharray:2.0,2.0;" x1="38.5" x2="179.5" y1="341.2402" y2="341.2402"/><text fill="#000000" font-family="sans-serif" font-size="13" lengthAdjust="spacing" textLength="113" x="45.5" y="335.9775">the card is removed</text><!--SRC=[fLDjRzD03Fv-ly9gFnGgAes1W5MiqaYFDz5sQZE4D2fqImmvbjvblakh2ks_Ss-i6K92WaHHdDX-xCUFRm2dfv2_vJFk3CRCjLID8B61fMvLcMbIIF3uY0qE7eCtBQe2puZqBgzaSQtG63XcRE31iiKyv_CymA6oqkwXbmagUo0C5CvW3iRAGZP2MUZbI1kfH1tTjNGfzmDMI5kau3R1P4mKLcw5nG07_G_oMsNV4EvP-1wDFYSW68E8CTA0L2xTOjbDZr5TWFXdTDb_ylJanVJLUfAAEgYNXQurZI6v9kzNYpdeg-zOMFW1mo7_nBEBd7zPyjd2lLPy-V5TneV3Hs19AEEhQkNQQ5eBfR02RZkjf2gTLbYjTGDz_jhViAjaZM0h90JXdu1cm6guGcYGlchQO0axQIiV5cbh2hPDCnuO81Ib6o6uAvLqN8-Vd_5dH-lHv32tH3Qv8bT19FPm6SXciwbdbaZTmZf0_XhV99OVGqEwyCln80O-Z55HfKurGjFMzXx4loYmvAjptrM4S_D5vUJ-BvvyFlsBeBgr1qNT74hyJLJsXxMyKqXwIJPww_QoanYEoKy0]--></g></svg>