<?xml version="1.0" encoding="us-ascii" standalone="no"?><svg xmlns="http://www.w3.org/2000/svg" xmlns:xlink="http://www.w3.org/1999/xlink" contentStyleType="text/css" height="871px" preserveAspectRatio="none" style="width:1413px;height:871px;background:#FFFFFF;" version="1.1" viewBox="0 0 1413 871" width="1413px" zoomAndPan="magnify"><defs/><g><text fill="#000000" font-family="sans-serif" font-size="14" font-weight="bold" lengthAdjust="spacing" textLength="198" x="600.5" y="25.1074">Keyple Distributed JSON API</text><text fill="#000000" font-family="sans-serif" font-size="14" font-weight="bold" lengthAdjust="spacing" textLength="373" x="513" y="43.7285">compliant with "keyple-service-java-lib" version 2.1.4</text><text fill="#000000" font-family="sans-serif" font-size="14" font-weight="bold" lengthAdjust="spacing" textLength="125" x="637" y="62.3496">RESP (2023-03-22)</text><!--class RespMessage--><g id="elem_RespMessage"><rect codeLine="125" fill="#EBF5FB" height="178.3477" id="RespMessage" rx="2.5" ry="2.5" style="stroke:#3498DB;stroke-width:2.0;" width="201" x="445.5" y="83.8633"/><ellipse cx="496.75" cy="99.8633" fill="#ADD1B2" rx="11" ry="11" style="stroke:#181818;stroke-width:1.0;"/><path d="M499.5156,95.7383 Q499.6719,95.5195 499.8594,95.4102 Q500.0469,95.3008 500.2656,95.3008 Q500.6406,95.3008 500.875,95.5664 Q501.1094,95.8164 501.1094,96.4258 L501.1094,97.8789 Q501.1094,98.4883 500.875,98.7539 Q500.6406,99.0195 500.2656,99.0195 Q499.9219,99.0195 499.7188,98.8164 Q499.5156,98.6289 499.4063,98.1133 Q499.3594,97.7539 499.1719,97.5664 Q498.8438,97.1914 498.2344,96.9727 Q497.625,96.7539 497,96.7539 Q496.2344,96.7539 495.5938,97.082 Q494.9688,97.4102 494.4688,98.1602 Q493.9844,98.9102 493.9844,99.9414 L493.9844,101.0352 Q493.9844,102.2695 494.875,103.0977 Q495.7656,103.9102 497.3594,103.9102 Q498.2969,103.9102 498.9531,103.6602 Q499.3438,103.5039 499.7656,103.0664 Q500.0313,102.8008 500.1719,102.7227 Q500.3281,102.6445 500.5313,102.6445 Q500.8594,102.6445 501.1094,102.9102 Q501.375,103.1602 501.375,103.5039 Q501.375,103.8477 501.0313,104.2539 Q500.5313,104.832 499.7344,105.1602 Q498.6563,105.6133 497.3594,105.6133 Q495.8438,105.6133 494.6406,104.9883 Q493.6563,104.4883 492.9688,103.4258 Q492.2813,102.3477 492.2813,101.0664 L492.2813,99.9102 Q492.2813,98.582 492.8906,97.4414 Q493.5156,96.2852 494.6094,95.6758 Q495.7031,95.0508 496.9375,95.0508 Q497.6719,95.0508 498.3125,95.2227 Q498.9688,95.3789 499.5156,95.7383 Z " fill="#000000"/><text fill="#000000" font-family="sans-serif" font-size="14" lengthAdjust="spacing" textLength="90" x="517.25" y="105.6602">RespMessage</text><line style="stroke:#3498DB;stroke-width:2.0;" x1="446.5" x2="645.5" y1="115.8633" y2="115.8633"/><text fill="#000000" font-family="sans-serif" font-size="14" font-weight="bold" lengthAdjust="spacing" textLength="43" x="451.5" y="134.9707">action</text><text fill="#000000" font-family="sans-serif" font-size="14" lengthAdjust="spacing" textLength="66" x="498.5" y="134.9707">: String = "</text><text fill="#000000" font-family="sans-serif" font-size="14" font-weight="bold" lengthAdjust="spacing" textLength="37" x="564.5" y="134.9707">RESP</text><text fill="#000000" font-family="sans-serif" font-size="14" lengthAdjust="spacing" textLength="5" x="601.5" y="134.9707">"</text><text fill="#000000" font-family="sans-serif" font-size="14" font-weight="bold" lengthAdjust="spacing" textLength="89" x="451.5" y="153.5918">clientNodeId</text><text fill="#000000" font-family="sans-serif" font-size="14" lengthAdjust="spacing" textLength="45" x="544.5" y="153.5918">: String</text><text fill="#000000" font-family="sans-serif" font-size="14" font-weight="bold" lengthAdjust="spacing" textLength="123" x="451.5" y="172.2129">localReaderName</text><text fill="#000000" font-family="sans-serif" font-size="14" lengthAdjust="spacing" textLength="45" x="578.5" y="172.2129">: String</text><text fill="#000000" font-family="sans-serif" font-size="14" font-weight="bold" lengthAdjust="spacing" textLength="97" x="451.5" y="190.834">serverNodeId</text><text fill="#000000" font-family="sans-serif" font-size="14" lengthAdjust="spacing" textLength="45" x="552.5" y="190.834">: String</text><text fill="#000000" font-family="sans-serif" font-size="14" font-weight="bold" lengthAdjust="spacing" textLength="140" x="451.5" y="209.4551">remoteReaderName</text><text fill="#000000" font-family="sans-serif" font-size="14" lengthAdjust="spacing" textLength="45" x="595.5" y="209.4551">: String</text><text fill="#000000" font-family="sans-serif" font-size="14" font-weight="bold" lengthAdjust="spacing" textLength="68" x="451.5" y="228.0762">sessionId</text><text fill="#000000" font-family="sans-serif" font-size="14" lengthAdjust="spacing" textLength="45" x="523.5" y="228.0762">: String</text><text fill="#000000" font-family="sans-serif" font-size="14" font-weight="bold" lengthAdjust="spacing" textLength="34" x="451.5" y="246.6973">body</text><text fill="#000000" font-family="sans-serif" font-size="14" lengthAdjust="spacing" textLength="73" x="489.5" y="246.6973">: RespBody</text><line style="stroke:#3498DB;stroke-width:2.0;" x1="446.5" x2="645.5" y1="254.2109" y2="254.2109"/></g><!--class RespBody--><g id="elem_RespBody"><rect codeLine="126" fill="#EBF5FB" height="48" id="RespBody" rx="2.5" ry="2.5" style="stroke:#3498DB;stroke-width:2.0;" width="97" x="497.5" y="340.8633"/><ellipse cx="512.5" cy="356.8633" fill="#A9DCDF" rx="11" ry="11" style="stroke:#181818;stroke-width:1.0;"/><path d="M514.6875,358.6289 L510.5469,358.6289 L510.125,359.6602 L510.5469,359.6602 Q511.1563,359.6602 511.4219,359.8945 Q511.6875,360.1289 511.6875,360.5195 Q511.6875,360.8945 511.4219,361.1289 Q511.1563,361.3633 510.5469,361.3633 L508.25,361.3633 Q507.6406,361.3633 507.3906,361.1289 Q507.125,360.8945 507.125,360.5039 Q507.125,360.1289 507.4063,359.8945 Q507.6719,359.6445 508.2969,359.6602 L510.9688,353.0039 L509.8594,353.0039 Q509.25,353.0039 508.9844,352.7695 Q508.7188,352.5352 508.7188,352.1445 Q508.7188,351.7695 508.9844,351.5352 Q509.25,351.3008 509.8594,351.3008 L513.5313,351.3008 L516.9219,359.6602 Q517.5156,359.6602 517.7031,359.8008 Q518.0938,360.0664 518.0938,360.5195 Q518.0938,360.8945 517.8281,361.1289 Q517.5781,361.3633 516.9688,361.3633 L514.6719,361.3633 Q514.0625,361.3633 513.7969,361.1289 Q513.5313,360.8945 513.5313,360.5039 Q513.5313,360.1289 513.7969,359.8945 Q514.0625,359.6602 514.6719,359.6602 L515.0938,359.6602 L514.6875,358.6289 Z M513.9688,356.9258 L512.6094,353.5508 L511.2344,356.9258 L513.9688,356.9258 Z " fill="#000000"/><text fill="#000000" font-family="sans-serif" font-size="14" font-style="italic" lengthAdjust="spacing" textLength="65" x="526.5" y="362.6602">RespBody</text><line style="stroke:#3498DB;stroke-width:2.0;" x1="498.5" x2="593.5" y1="372.8633" y2="372.8633"/><line style="stroke:#3498DB;stroke-width:2.0;" x1="498.5" x2="593.5" y1="380.8633" y2="380.8633"/></g><!--class IsContactlessRespBody--><g id="elem_IsContactlessRespBody"><rect codeLine="139" fill="#EBF5FB" height="85.2422" id="IsContactlessRespBody" rx="2.5" ry="2.5" style="stroke:#3498DB;stroke-width:2.0;" width="262" x="7" y="449.8633"/><ellipse cx="59.25" cy="465.8633" fill="#ADD1B2" rx="11" ry="11" style="stroke:#181818;stroke-width:1.0;"/><path d="M62.0156,461.7383 Q62.1719,461.5195 62.3594,461.4102 Q62.5469,461.3008 62.7656,461.3008 Q63.1406,461.3008 63.375,461.5664 Q63.6094,461.8164 63.6094,462.4258 L63.6094,463.8789 Q63.6094,464.4883 63.375,464.7539 Q63.1406,465.0195 62.7656,465.0195 Q62.4219,465.0195 62.2188,464.8164 Q62.0156,464.6289 61.9063,464.1133 Q61.8594,463.7539 61.6719,463.5664 Q61.3438,463.1914 60.7344,462.9727 Q60.125,462.7539 59.5,462.7539 Q58.7344,462.7539 58.0938,463.082 Q57.4688,463.4102 56.9688,464.1602 Q56.4844,464.9102 56.4844,465.9414 L56.4844,467.0352 Q56.4844,468.2695 57.375,469.0977 Q58.2656,469.9102 59.8594,469.9102 Q60.7969,469.9102 61.4531,469.6602 Q61.8438,469.5039 62.2656,469.0664 Q62.5313,468.8008 62.6719,468.7227 Q62.8281,468.6445 63.0313,468.6445 Q63.3594,468.6445 63.6094,468.9102 Q63.875,469.1602 63.875,469.5039 Q63.875,469.8477 63.5313,470.2539 Q63.0313,470.832 62.2344,471.1602 Q61.1563,471.6133 59.8594,471.6133 Q58.3438,471.6133 57.1406,470.9883 Q56.1563,470.4883 55.4688,469.4258 Q54.7813,468.3477 54.7813,467.0664 L54.7813,465.9102 Q54.7813,464.582 55.3906,463.4414 Q56.0156,462.2852 57.1094,461.6758 Q58.2031,461.0508 59.4375,461.0508 Q60.1719,461.0508 60.8125,461.2227 Q61.4688,461.3789 62.0156,461.7383 Z " fill="#000000"/><text fill="#000000" font-family="sans-serif" font-size="14" lengthAdjust="spacing" textLength="149" x="79.75" y="471.6602">IsContactlessRespBody</text><line style="stroke:#3498DB;stroke-width:2.0;" x1="8" x2="268" y1="481.8633" y2="481.8633"/><text fill="#000000" font-family="sans-serif" font-size="14" font-weight="bold" lengthAdjust="spacing" textLength="53" x="13" y="500.9707">service</text><text fill="#000000" font-family="sans-serif" font-size="14" lengthAdjust="spacing" textLength="66" x="70" y="500.9707">: String = "</text><text fill="#000000" font-family="sans-serif" font-size="14" font-weight="bold" lengthAdjust="spacing" textLength="122" x="136" y="500.9707">IS_CONTACTLESS</text><text fill="#000000" font-family="sans-serif" font-size="14" lengthAdjust="spacing" textLength="5" x="258" y="500.9707">"</text><text fill="#000000" font-family="sans-serif" font-size="14" font-weight="bold" lengthAdjust="spacing" textLength="41" x="13" y="519.5918">result</text><text fill="#000000" font-family="sans-serif" font-size="14" lengthAdjust="spacing" textLength="60" x="58" y="519.5918">: Boolean</text><line style="stroke:#3498DB;stroke-width:2.0;" x1="8" x2="268" y1="527.1055" y2="527.1055"/></g><!--class IsCardPresentRespBody--><g id="elem_IsCardPresentRespBody"><rect codeLine="136" fill="#EBF5FB" height="85.2422" id="IsCardPresentRespBody" rx="2.5" ry="2.5" style="stroke:#3498DB;stroke-width:2.0;" width="272" x="304" y="449.8633"/><ellipse cx="358.25" cy="465.8633" fill="#ADD1B2" rx="11" ry="11" style="stroke:#181818;stroke-width:1.0;"/><path d="M361.0156,461.7383 Q361.1719,461.5195 361.3594,461.4102 Q361.5469,461.3008 361.7656,461.3008 Q362.1406,461.3008 362.375,461.5664 Q362.6094,461.8164 362.6094,462.4258 L362.6094,463.8789 Q362.6094,464.4883 362.375,464.7539 Q362.1406,465.0195 361.7656,465.0195 Q361.4219,465.0195 361.2188,464.8164 Q361.0156,464.6289 360.9063,464.1133 Q360.8594,463.7539 360.6719,463.5664 Q360.3438,463.1914 359.7344,462.9727 Q359.125,462.7539 358.5,462.7539 Q357.7344,462.7539 357.0938,463.082 Q356.4688,463.4102 355.9688,464.1602 Q355.4844,464.9102 355.4844,465.9414 L355.4844,467.0352 Q355.4844,468.2695 356.375,469.0977 Q357.2656,469.9102 358.8594,469.9102 Q359.7969,469.9102 360.4531,469.6602 Q360.8438,469.5039 361.2656,469.0664 Q361.5313,468.8008 361.6719,468.7227 Q361.8281,468.6445 362.0313,468.6445 Q362.3594,468.6445 362.6094,468.9102 Q362.875,469.1602 362.875,469.5039 Q362.875,469.8477 362.5313,470.2539 Q362.0313,470.832 361.2344,471.1602 Q360.1563,471.6133 358.8594,471.6133 Q357.3438,471.6133 356.1406,470.9883 Q355.1563,470.4883 354.4688,469.4258 Q353.7813,468.3477 353.7813,467.0664 L353.7813,465.9102 Q353.7813,464.582 354.3906,463.4414 Q355.0156,462.2852 356.1094,461.6758 Q357.2031,461.0508 358.4375,461.0508 Q359.1719,461.0508 359.8125,461.2227 Q360.4688,461.3789 361.0156,461.7383 Z " fill="#000000"/><text fill="#000000" font-family="sans-serif" font-size="14" lengthAdjust="spacing" textLength="155" x="378.75" y="471.6602">IsCardPresentRespBody</text><line style="stroke:#3498DB;stroke-width:2.0;" x1="305" x2="575" y1="481.8633" y2="481.8633"/><text fill="#000000" font-family="sans-serif" font-size="14" font-weight="bold" lengthAdjust="spacing" textLength="53" x="310" y="500.9707">service</text><text fill="#000000" font-family="sans-serif" font-size="14" lengthAdjust="spacing" textLength="66" x="367" y="500.9707">: String = "</text><text fill="#000000" font-family="sans-serif" font-size="14" font-weight="bold" lengthAdjust="spacing" textLength="132" x="433" y="500.9707">IS_CARD_PRESENT</text><text fill="#000000" font-family="sans-serif" font-size="14" lengthAdjust="spacing" textLength="5" x="565" y="500.9707">"</text><text fill="#000000" font-family="sans-serif" font-size="14" font-weight="bold" lengthAdjust="spacing" textLength="41" x="310" y="519.5918">result</text><text fill="#000000" font-family="sans-serif" font-size="14" lengthAdjust="spacing" textLength="60" x="355" y="519.5918">: Boolean</text><line style="stroke:#3498DB;stroke-width:2.0;" x1="305" x2="575" y1="527.1055" y2="527.1055"/></g><!--class TransmitCardSelectionRequestsRespBody--><g id="elem_TransmitCardSelectionRequestsRespBody"><rect codeLine="130" fill="#EBF5FB" height="85.2422" id="TransmitCardSelectionRequestsRespBody" rx="2.5" ry="2.5" style="stroke:#3498DB;stroke-width:2.0;" width="427" x="611.5" y="449.8633"/><ellipse cx="686.25" cy="465.8633" fill="#ADD1B2" rx="11" ry="11" style="stroke:#181818;stroke-width:1.0;"/><path d="M689.0156,461.7383 Q689.1719,461.5195 689.3594,461.4102 Q689.5469,461.3008 689.7656,461.3008 Q690.1406,461.3008 690.375,461.5664 Q690.6094,461.8164 690.6094,462.4258 L690.6094,463.8789 Q690.6094,464.4883 690.375,464.7539 Q690.1406,465.0195 689.7656,465.0195 Q689.4219,465.0195 689.2188,464.8164 Q689.0156,464.6289 688.9063,464.1133 Q688.8594,463.7539 688.6719,463.5664 Q688.3438,463.1914 687.7344,462.9727 Q687.125,462.7539 686.5,462.7539 Q685.7344,462.7539 685.0938,463.082 Q684.4688,463.4102 683.9688,464.1602 Q683.4844,464.9102 683.4844,465.9414 L683.4844,467.0352 Q683.4844,468.2695 684.375,469.0977 Q685.2656,469.9102 686.8594,469.9102 Q687.7969,469.9102 688.4531,469.6602 Q688.8438,469.5039 689.2656,469.0664 Q689.5313,468.8008 689.6719,468.7227 Q689.8281,468.6445 690.0313,468.6445 Q690.3594,468.6445 690.6094,468.9102 Q690.875,469.1602 690.875,469.5039 Q690.875,469.8477 690.5313,470.2539 Q690.0313,470.832 689.2344,471.1602 Q688.1563,471.6133 686.8594,471.6133 Q685.3438,471.6133 684.1406,470.9883 Q683.1563,470.4883 682.4688,469.4258 Q681.7813,468.3477 681.7813,467.0664 L681.7813,465.9102 Q681.7813,464.582 682.3906,463.4414 Q683.0156,462.2852 684.1094,461.6758 Q685.2031,461.0508 686.4375,461.0508 Q687.1719,461.0508 687.8125,461.2227 Q688.4688,461.3789 689.0156,461.7383 Z " fill="#000000"/><text fill="#000000" font-family="sans-serif" font-size="14" lengthAdjust="spacing" textLength="269" x="706.75" y="471.6602">TransmitCardSelectionRequestsRespBody</text><line style="stroke:#3498DB;stroke-width:2.0;" x1="612.5" x2="1037.5" y1="481.8633" y2="481.8633"/><text fill="#000000" font-family="sans-serif" font-size="14" font-weight="bold" lengthAdjust="spacing" textLength="53" x="617.5" y="500.9707">service</text><text fill="#000000" font-family="sans-serif" font-size="14" lengthAdjust="spacing" textLength="66" x="674.5" y="500.9707">: String = "</text><text fill="#000000" font-family="sans-serif" font-size="14" font-weight="bold" lengthAdjust="spacing" textLength="287" x="740.5" y="500.9707">TRANSMIT_CARD_SELECTION_REQUESTS</text><text fill="#000000" font-family="sans-serif" font-size="14" lengthAdjust="spacing" textLength="5" x="1027.5" y="500.9707">"</text><text fill="#000000" font-family="sans-serif" font-size="14" font-weight="bold" lengthAdjust="spacing" textLength="41" x="617.5" y="519.5918">result</text><text fill="#000000" font-family="sans-serif" font-size="14" lengthAdjust="spacing" textLength="161" x="662.5" y="519.5918">: CardSelectionResponse</text><line style="stroke:#3498DB;stroke-width:2.0;" x1="612.5" x2="1037.5" y1="527.1055" y2="527.1055"/></g><!--class CardSelectionResponse--><g id="elem_CardSelectionResponse"><rect codeLine="131" fill="#EBF5FB" height="122.4844" id="CardSelectionResponse" rx="2.5" ry="2.5" style="stroke:#3498DB;stroke-width:2.0;" width="321" x="725.5" y="595.8633"/><ellipse cx="805.25" cy="611.8633" fill="#ADD1B2" rx="11" ry="11" style="stroke:#181818;stroke-width:1.0;"/><path d="M808.0156,607.7383 Q808.1719,607.5195 808.3594,607.4102 Q808.5469,607.3008 808.7656,607.3008 Q809.1406,607.3008 809.375,607.5664 Q809.6094,607.8164 809.6094,608.4258 L809.6094,609.8789 Q809.6094,610.4883 809.375,610.7539 Q809.1406,611.0195 808.7656,611.0195 Q808.4219,611.0195 808.2188,610.8164 Q808.0156,610.6289 807.9063,610.1133 Q807.8594,609.7539 807.6719,609.5664 Q807.3438,609.1914 806.7344,608.9727 Q806.125,608.7539 805.5,608.7539 Q804.7344,608.7539 804.0938,609.082 Q803.4688,609.4102 802.9688,610.1602 Q802.4844,610.9102 802.4844,611.9414 L802.4844,613.0352 Q802.4844,614.2695 803.375,615.0977 Q804.2656,615.9102 805.8594,615.9102 Q806.7969,615.9102 807.4531,615.6602 Q807.8438,615.5039 808.2656,615.0664 Q808.5313,614.8008 808.6719,614.7227 Q808.8281,614.6445 809.0313,614.6445 Q809.3594,614.6445 809.6094,614.9102 Q809.875,615.1602 809.875,615.5039 Q809.875,615.8477 809.5313,616.2539 Q809.0313,616.832 808.2344,617.1602 Q807.1563,617.6133 805.8594,617.6133 Q804.3438,617.6133 803.1406,616.9883 Q802.1563,616.4883 801.4688,615.4258 Q800.7813,614.3477 800.7813,613.0664 L800.7813,611.9102 Q800.7813,610.582 801.3906,609.4414 Q802.0156,608.2852 803.1094,607.6758 Q804.2031,607.0508 805.4375,607.0508 Q806.1719,607.0508 806.8125,607.2227 Q807.4688,607.3789 808.0156,607.7383 Z " fill="#000000"/><text fill="#000000" font-family="sans-serif" font-size="14" lengthAdjust="spacing" textLength="153" x="825.75" y="617.6602">CardSelectionResponse</text><line style="stroke:#3498DB;stroke-width:2.0;" x1="726.5" x2="1045.5" y1="627.8633" y2="627.8633"/><text fill="#000000" font-family="sans-serif" font-size="14" font-weight="bold" lengthAdjust="spacing" textLength="95" x="731.5" y="646.9707">powerOnData</text><text fill="#000000" font-family="sans-serif" font-size="14" lengthAdjust="spacing" textLength="45" x="830.5" y="646.9707">: String</text><text fill="#000000" font-family="sans-serif" font-size="14" font-weight="bold" lengthAdjust="spacing" textLength="86" x="731.5" y="665.5918">hasMatched</text><text fill="#000000" font-family="sans-serif" font-size="14" lengthAdjust="spacing" textLength="60" x="821.5" y="665.5918">: Boolean</text><text fill="#000000" font-family="sans-serif" font-size="14" font-weight="bold" lengthAdjust="spacing" textLength="192" x="731.5" y="684.2129">selectApplicationResponse</text><text fill="#000000" font-family="sans-serif" font-size="14" lengthAdjust="spacing" textLength="113" x="927.5" y="684.2129">: ApduResponse?</text><text fill="#000000" font-family="sans-serif" font-size="14" font-weight="bold" lengthAdjust="spacing" textLength="102" x="731.5" y="702.834">cardResponse</text><text fill="#000000" font-family="sans-serif" font-size="14" lengthAdjust="spacing" textLength="111" x="837.5" y="702.834">: CardResponse?</text><line style="stroke:#3498DB;stroke-width:2.0;" x1="726.5" x2="1045.5" y1="710.3477" y2="710.3477"/></g><!--class CardResponse--><g id="elem_CardResponse"><rect codeLine="132" fill="#EBF5FB" height="85.2422" id="CardResponse" rx="2.5" ry="2.5" style="stroke:#3498DB;stroke-width:2.0;" width="243" x="1081.5" y="614.3633"/><ellipse cx="1151.25" cy="630.3633" fill="#ADD1B2" rx="11" ry="11" style="stroke:#181818;stroke-width:1.0;"/><path d="M1154.0156,626.2383 Q1154.1719,626.0195 1154.3594,625.9102 Q1154.5469,625.8008 1154.7656,625.8008 Q1155.1406,625.8008 1155.375,626.0664 Q1155.6094,626.3164 1155.6094,626.9258 L1155.6094,628.3789 Q1155.6094,628.9883 1155.375,629.2539 Q1155.1406,629.5195 1154.7656,629.5195 Q1154.4219,629.5195 1154.2188,629.3164 Q1154.0156,629.1289 1153.9063,628.6133 Q1153.8594,628.2539 1153.6719,628.0664 Q1153.3438,627.6914 1152.7344,627.4727 Q1152.125,627.2539 1151.5,627.2539 Q1150.7344,627.2539 1150.0938,627.582 Q1149.4688,627.9102 1148.9688,628.6602 Q1148.4844,629.4102 1148.4844,630.4414 L1148.4844,631.5352 Q1148.4844,632.7695 1149.375,633.5977 Q1150.2656,634.4102 1151.8594,634.4102 Q1152.7969,634.4102 1153.4531,634.1602 Q1153.8438,634.0039 1154.2656,633.5664 Q1154.5313,633.3008 1154.6719,633.2227 Q1154.8281,633.1445 1155.0313,633.1445 Q1155.3594,633.1445 1155.6094,633.4102 Q1155.875,633.6602 1155.875,634.0039 Q1155.875,634.3477 1155.5313,634.7539 Q1155.0313,635.332 1154.2344,635.6602 Q1153.1563,636.1133 1151.8594,636.1133 Q1150.3438,636.1133 1149.1406,635.4883 Q1148.1563,634.9883 1147.4688,633.9258 Q1146.7813,632.8477 1146.7813,631.5664 L1146.7813,630.4102 Q1146.7813,629.082 1147.3906,627.9414 Q1148.0156,626.7852 1149.1094,626.1758 Q1150.2031,625.5508 1151.4375,625.5508 Q1152.1719,625.5508 1152.8125,625.7227 Q1153.4688,625.8789 1154.0156,626.2383 Z " fill="#000000"/><text fill="#000000" font-family="sans-serif" font-size="14" lengthAdjust="spacing" textLength="95" x="1171.75" y="636.1602">CardResponse</text><line style="stroke:#3498DB;stroke-width:2.0;" x1="1082.5" x2="1323.5" y1="646.3633" y2="646.3633"/><text fill="#000000" font-family="sans-serif" font-size="14" font-weight="bold" lengthAdjust="spacing" textLength="158" x="1087.5" y="665.4707">isLogicalChannelOpen</text><text fill="#000000" font-family="sans-serif" font-size="14" lengthAdjust="spacing" textLength="60" x="1249.5" y="665.4707">: Boolean</text><text fill="#000000" font-family="sans-serif" font-size="14" font-weight="bold" lengthAdjust="spacing" textLength="114" x="1087.5" y="684.0918">apduResponses</text><text fill="#000000" font-family="sans-serif" font-size="14" lengthAdjust="spacing" textLength="113" x="1205.5" y="684.0918">: ApduResponse[]</text><line style="stroke:#3498DB;stroke-width:2.0;" x1="1082.5" x2="1323.5" y1="691.6055" y2="691.6055"/></g><!--class ApduResponse--><g id="elem_ApduResponse"><rect codeLine="133" fill="#EBF5FB" height="85.2422" id="ApduResponse" rx="2.5" ry="2.5" style="stroke:#3498DB;stroke-width:2.0;" width="141" x="1008.5" y="778.8633"/><ellipse cx="1028.9" cy="794.8633" fill="#ADD1B2" rx="11" ry="11" style="stroke:#181818;stroke-width:1.0;"/><path d="M1031.6656,790.7383 Q1031.8219,790.5195 1032.0094,790.4102 Q1032.1969,790.3008 1032.4156,790.3008 Q1032.7906,790.3008 1033.025,790.5664 Q1033.2594,790.8164 1033.2594,791.4258 L1033.2594,792.8789 Q1033.2594,793.4883 1033.025,793.7539 Q1032.7906,794.0195 1032.4156,794.0195 Q1032.0719,794.0195 1031.8688,793.8164 Q1031.6656,793.6289 1031.5563,793.1133 Q1031.5094,792.7539 1031.3219,792.5664 Q1030.9938,792.1914 1030.3844,791.9727 Q1029.775,791.7539 1029.15,791.7539 Q1028.3844,791.7539 1027.7438,792.082 Q1027.1188,792.4102 1026.6188,793.1602 Q1026.1344,793.9102 1026.1344,794.9414 L1026.1344,796.0352 Q1026.1344,797.2695 1027.025,798.0977 Q1027.9156,798.9102 1029.5094,798.9102 Q1030.4469,798.9102 1031.1031,798.6602 Q1031.4938,798.5039 1031.9156,798.0664 Q1032.1813,797.8008 1032.3219,797.7227 Q1032.4781,797.6445 1032.6813,797.6445 Q1033.0094,797.6445 1033.2594,797.9102 Q1033.525,798.1602 1033.525,798.5039 Q1033.525,798.8477 1033.1813,799.2539 Q1032.6813,799.832 1031.8844,800.1602 Q1030.8063,800.6133 1029.5094,800.6133 Q1027.9938,800.6133 1026.7906,799.9883 Q1025.8063,799.4883 1025.1188,798.4258 Q1024.4313,797.3477 1024.4313,796.0664 L1024.4313,794.9102 Q1024.4313,793.582 1025.0406,792.4414 Q1025.6656,791.2852 1026.7594,790.6758 Q1027.8531,790.0508 1029.0875,790.0508 Q1029.8219,790.0508 1030.4625,790.2227 Q1031.1188,790.3789 1031.6656,790.7383 Z " fill="#000000"/><text fill="#000000" font-family="sans-serif" font-size="14" lengthAdjust="spacing" textLength="97" x="1044.1" y="800.6602">ApduResponse</text><line style="stroke:#3498DB;stroke-width:2.0;" x1="1009.5" x2="1148.5" y1="810.8633" y2="810.8633"/><text fill="#000000" font-family="sans-serif" font-size="14" font-weight="bold" lengthAdjust="spacing" textLength="35" x="1014.5" y="829.9707">apdu</text><text fill="#000000" font-family="sans-serif" font-size="14" lengthAdjust="spacing" textLength="45" x="1053.5" y="829.9707">: String</text><text fill="#000000" font-family="sans-serif" font-size="14" font-weight="bold" lengthAdjust="spacing" textLength="80" x="1014.5" y="848.5918">statusWord</text><text fill="#000000" font-family="sans-serif" font-size="14" lengthAdjust="spacing" textLength="45" x="1098.5" y="848.5918">: String</text><line style="stroke:#3498DB;stroke-width:2.0;" x1="1009.5" x2="1148.5" y1="856.1055" y2="856.1055"/></g><!--class TransmitCardRequestRespBody--><g id="elem_TransmitCardRequestRespBody"><rect codeLine="129" fill="#EBF5FB" height="85.2422" id="TransmitCardRequestRespBody" rx="2.5" ry="2.5" style="stroke:#3498DB;stroke-width:2.0;" width="332" x="1074" y="449.8633"/><ellipse cx="1133.75" cy="465.8633" fill="#ADD1B2" rx="11" ry="11" style="stroke:#181818;stroke-width:1.0;"/><path d="M1136.5156,461.7383 Q1136.6719,461.5195 1136.8594,461.4102 Q1137.0469,461.3008 1137.2656,461.3008 Q1137.6406,461.3008 1137.875,461.5664 Q1138.1094,461.8164 1138.1094,462.4258 L1138.1094,463.8789 Q1138.1094,464.4883 1137.875,464.7539 Q1137.6406,465.0195 1137.2656,465.0195 Q1136.9219,465.0195 1136.7188,464.8164 Q1136.5156,464.6289 1136.4063,464.1133 Q1136.3594,463.7539 1136.1719,463.5664 Q1135.8438,463.1914 1135.2344,462.9727 Q1134.625,462.7539 1134,462.7539 Q1133.2344,462.7539 1132.5938,463.082 Q1131.9688,463.4102 1131.4688,464.1602 Q1130.9844,464.9102 1130.9844,465.9414 L1130.9844,467.0352 Q1130.9844,468.2695 1131.875,469.0977 Q1132.7656,469.9102 1134.3594,469.9102 Q1135.2969,469.9102 1135.9531,469.6602 Q1136.3438,469.5039 1136.7656,469.0664 Q1137.0313,468.8008 1137.1719,468.7227 Q1137.3281,468.6445 1137.5313,468.6445 Q1137.8594,468.6445 1138.1094,468.9102 Q1138.375,469.1602 1138.375,469.5039 Q1138.375,469.8477 1138.0313,470.2539 Q1137.5313,470.832 1136.7344,471.1602 Q1135.6563,471.6133 1134.3594,471.6133 Q1132.8438,471.6133 1131.6406,470.9883 Q1130.6563,470.4883 1129.9688,469.4258 Q1129.2813,468.3477 1129.2813,467.0664 L1129.2813,465.9102 Q1129.2813,464.582 1129.8906,463.4414 Q1130.5156,462.2852 1131.6094,461.6758 Q1132.7031,461.0508 1133.9375,461.0508 Q1134.6719,461.0508 1135.3125,461.2227 Q1135.9688,461.3789 1136.5156,461.7383 Z " fill="#000000"/><text fill="#000000" font-family="sans-serif" font-size="14" lengthAdjust="spacing" textLength="204" x="1154.25" y="471.6602">TransmitCardRequestRespBody</text><line style="stroke:#3498DB;stroke-width:2.0;" x1="1075" x2="1405" y1="481.8633" y2="481.8633"/><text fill="#000000" font-family="sans-serif" font-size="14" font-weight="bold" lengthAdjust="spacing" textLength="53" x="1080" y="500.9707">service</text><text fill="#000000" font-family="sans-serif" font-size="14" lengthAdjust="spacing" textLength="66" x="1137" y="500.9707">: String = "</text><text fill="#000000" font-family="sans-serif" font-size="14" font-weight="bold" lengthAdjust="spacing" textLength="192" x="1203" y="500.9707">TRANSMIT_CARD_REQUEST</text><text fill="#000000" font-family="sans-serif" font-size="14" lengthAdjust="spacing" textLength="5" x="1395" y="500.9707">"</text><text fill="#000000" font-family="sans-serif" font-size="14" font-weight="bold" lengthAdjust="spacing" textLength="41" x="1080" y="519.5918">result</text><text fill="#000000" font-family="sans-serif" font-size="14" lengthAdjust="spacing" textLength="103" x="1125" y="519.5918">: CardResponse</text><line style="stroke:#3498DB;stroke-width:2.0;" x1="1075" x2="1405" y1="527.1055" y2="527.1055"/></g><!--reverse link RespBody to IsContactlessRespBody--><g id="link_RespBody_IsContactlessRespBody"><path d="M477.911,386.8073 C421.236,404.2403 338.884,429.5713 269.435,450.9343 " fill="none" id="RespBody-backto-IsContactlessRespBody" style="stroke:#181818;stroke-width:2.0;"/><polygon fill="none" points="476.017,380.0663,497.191,380.8773,480.133,393.4473,476.017,380.0663" style="stroke:#181818;stroke-width:2.0;"/></g><!--reverse link RespBody to IsCardPresentRespBody--><g id="link_RespBody_IsCardPresentRespBody"><path d="M513.319,404.5563 C501.233,418.8663 487.485,435.1423 475.186,449.7043 " fill="none" id="RespBody-backto-IsCardPresentRespBody" style="stroke:#181818;stroke-width:2.0;"/><polygon fill="none" points="508.305,399.6443,526.558,388.8823,519,408.6783,508.305,399.6443" style="stroke:#181818;stroke-width:2.0;"/></g><!--reverse link RespBody to TransmitCardSelectionRequestsRespBody--><g id="link_RespBody_TransmitCardSelectionRequestsRespBody"><path d="M612.999,396.0013 C648.876,412.1393 693.614,432.2633 732.733,449.8593 " fill="none" id="RespBody-backto-TransmitCardSelectionRequestsRespBody" style="stroke:#181818;stroke-width:2.0;"/><polygon fill="none" points="609.966,402.3123,594.598,387.7233,615.709,389.5443,609.966,402.3123" style="stroke:#181818;stroke-width:2.0;"/></g><!--reverse link RespBody to TransmitCardRequestRespBody--><g id="link_RespBody_TransmitCardRequestRespBody"><path d="M614.537,375.8473 C712.658,390.4363 898.699,419.1973 1056,449.8633 C1061.79,450.9913 1067.67,452.1653 1073.6,453.3743 " fill="none" id="RespBody-backto-TransmitCardRequestRespBody" style="stroke:#181818;stroke-width:2.0;"/><polygon fill="none" points="613.45,382.7623,594.69,372.9113,615.499,368.9133,613.45,382.7623" style="stroke:#181818;stroke-width:2.0;"/></g><!--reverse link RespMessage to RespBody--><g id="link_RespMessage_RespBody"><path codeLine="108" d="M546,275.1533 C546,299.6843 546,323.6533 546,340.4803 " fill="none" id="RespMessage-backto-RespBody" style="stroke:#3498DB;stroke-width:2.0;"/><polygon fill="#3498DB" points="546,261.9113,542,267.9113,546,273.9113,550,267.9113,546,261.9113" style="stroke:#3498DB;stroke-width:2.0;"/><text fill="#000000" font-family="sans-serif" font-size="13" lengthAdjust="spacing" textLength="61" x="547" y="306.8916">JsonString</text><text fill="#000000" font-family="sans-serif" font-size="13" lengthAdjust="spacing" textLength="7" x="538.1469" y="329.5288">1</text></g><!--reverse link TransmitCardSelectionRequestsRespBody to CardSelectionResponse--><g id="link_TransmitCardSelectionRequestsRespBody_CardSelectionResponse"><path codeLine="110" d="M845.421,547.7623 C851.208,563.1783 857.54,580.0483 863.446,595.7803 " fill="none" id="TransmitCardSelectionRequestsRespBody-backto-CardSelectionResponse" style="stroke:#3498DB;stroke-width:2.0;"/><polygon fill="#3498DB" points="840.709,535.2113,839.0733,542.2344,844.9271,546.4455,846.5628,539.4224,840.709,535.2113" style="stroke:#3498DB;stroke-width:2.0;"/><text fill="#000000" font-family="sans-serif" font-size="13" lengthAdjust="spacing" textLength="7" x="853.4335" y="584.7519">1</text></g><!--reverse link CardSelectionResponse to CardResponse--><g id="link_CardSelectionResponse_CardResponse"><path codeLine="112" d="M1059.72,656.8633 C1066.97,656.8633 1074.22,656.8633 1081.48,656.8633 " fill="none" id="CardSelectionResponse-backto-CardResponse" style="stroke:#3498DB;stroke-width:2.0;stroke-dasharray:7.0,7.0;"/><polygon fill="#3498DB" points="1046.67,656.8633,1052.67,660.8633,1058.67,656.8633,1052.67,652.8633,1046.67,656.8633" style="stroke:#3498DB;stroke-width:2.0;"/><text fill="#000000" font-family="sans-serif" font-size="13" lengthAdjust="spacing" textLength="22" x="1051.4046" y="653.3751">0..1</text></g><!--reverse link CardSelectionResponse to ApduResponse--><g id="link_CardSelectionResponse_ApduResponse"><path codeLine="113" d="M967.292,726.3093 C988.481,744.1493 1010.67,762.8333 1029.64,778.8056 " fill="none" id="CardSelectionResponse-backto-ApduResponse" style="stroke:#3498DB;stroke-width:2.0;stroke-dasharray:7.0,7.0;"/><polygon fill="#3498DB" points="957.318,717.9103,959.3314,724.8346,966.4975,725.6392,964.4841,718.7149,957.318,717.9103" style="stroke:#3498DB;stroke-width:2.0;"/><text fill="#000000" font-family="sans-serif" font-size="13" lengthAdjust="spacing" textLength="22" x="998.0201" y="767.7001">0..1</text></g><!--reverse link CardResponse to ApduResponse--><g id="link_CardResponse_ApduResponse"><path codeLine="115" d="M1163,710.2793 C1146.11,732.4133 1126.72,757.8283 1110.82,778.6573 " fill="none" id="CardResponse-backto-ApduResponse" style="stroke:#3498DB;stroke-width:2.0;"/><polygon fill="#3498DB" points="1171.07,699.7113,1164.251,702.0568,1163.7935,709.2534,1170.6124,706.9079,1171.07,699.7113" style="stroke:#3498DB;stroke-width:2.0;"/><text fill="#000000" font-family="sans-serif" font-size="13" lengthAdjust="spacing" textLength="24" x="1089.9788" y="767.5285">1..N</text></g><!--reverse link TransmitCardRequestRespBody to CardResponse--><g id="link_TransmitCardRequestRespBody_CardResponse"><path codeLine="117" d="M1227.58,547.9013 C1222.66,569.5263 1217.09,593.9903 1212.5,614.1573 " fill="none" id="TransmitCardRequestRespBody-backto-CardResponse" style="stroke:#3498DB;stroke-width:2.0;"/><polygon fill="#3498DB" points="1230.47,535.2113,1225.237,540.1727,1227.8042,546.9114,1233.0371,541.95,1230.47,535.2113" style="stroke:#3498DB;stroke-width:2.0;"/><text fill="#000000" font-family="sans-serif" font-size="13" lengthAdjust="spacing" textLength="7" x="1206.4563" y="603.0285">1</text></g><!--SRC=[hLPjRzf84FxkNx57FxH5WYH0IeYQLdvPzsW9vB2ZKtGwHOkz0L_ChhkxJWvL_UyT6sDiOw2z79_Cx3FpF3Cxdh4AL4Wr1BylT1M555c1L2AOnOhwwBCp6IFzPfYUUtmPXG5X2Zq7Qe4QZoc-9Qbu2ZpQ-eSyaLOOp1heYGePS8OwxRDsBtMTOkS6lUcSThgjqswhqtchKUOZbL9hhz7L5N9_nzSO7k2loUEGnaAYGCgOIkHJT8aMIaNoykHaePQXnqCkFEvJsGPD9m_YH95PI4dSycdBMtlNcE1H1dFMYaAYJhJVVFeGC8hC-qzJV7U6x0jxO0ygvWwoEtRNxbNCNOJFSHzNqJrazIt3iYhcSsJgfcrrAkPtoB3Chjalc4V3yHVKxGqkBADWlNKmwlHr_EuqgLMhXHor2g4kQa4KyZbx3HV2nUFwLXXzpklF7n3aobIy3C5Dauy1YuWWIoGL5PIhLKHrWmkV2ZEfA7gb3opJick1mnBGwEbzV5uBDCiHBUlCwDG2SGc8ZK4NgDFyyDXAz1Qyp918kSQxYy1xP5HAL0oh2y6VYqSGwOw68N_UYKAynxdWCVCpPXlRsCJrP1d4wkdcgGKXfzG_4k_zUq7z3nyWh8KjR1u8coDnlmTze2q2QFIDSLicOBs91RneHucZ59Pozx1fzmzoRy4NkDVJhGrzRYyfc8NnSVu4bEPZsEUsSP1z0yrwFUFEh2NcJu9ITfHwdg1Ixe7Tn_P1xXoRlLCP-SPSPL_z3FagvTQXZ_0nxXJQCRlul4YzAZElPw8v6RjuxAwdOZf3DIy92MqeesleSpAdw5iwO9jDuYbuvvjDc9KEp6ysHrUeqMmcNirc8mDvOK2P6iFe7Fe5Q7OQSe-4Kqf0xvWiwIuW6VLmjiTTq2LNzB2_J0PJdVEC-wlKckHcm1_jkqPci8aWBxJDEZc1bByd1Hawzqc5TDCTOST1Rv9KtsOL6agJCmM-C2XbxaZ_LR1tIf6sYS4EswbUcM9RHq5b7AeKRd0EUuPj9UbJw_u6j2GtLzL4X7y3ld07BzDKu3WkoftgO-TwwAxT73p2fZkSZE-d-8zRxBYLohc2CBaCLABLeI5DssfAly8cLY-ev34HcpJAULH4o8WpII6hjTJQqrn9n9-fc32BABBRRWiYhudo5jGlrMkJGn9JZ-1hnoF5s2bMZ_nuO_YuUQz0IGba5WmVIu9tT0PonET059eBmXWD9n5bDQ98WLRk2FdhxvoaQDvE1p3Ml8-Ag5Z-2HEgU5RJDDajxU-Kh47-h_x8-6fxkrZ4jLPTIku5wKr9JIiEnoPyJJJE6biPhxAFh4lqMNAM9QpzNCzlWjMtNHPPq-gFcsqHp1UgZHgdxNOMPCTtdslkLRhR4kCMdQfijyVxq8UkhPZYhcUwb4RwtUHslPFM1iUz6-73EsgpslTEz1pmyixBG_tAEAiurTz33MZVMQdonUJ-muAekl_QoikzVm00]--></g></svg>