<?xml version="1.0" encoding="us-ascii" standalone="no"?><svg xmlns="http://www.w3.org/2000/svg" xmlns:xlink="http://www.w3.org/1999/xlink" contentStyleType="text/css" height="396px" preserveAspectRatio="none" style="width:401px;height:396px;background:#FFFFFF;" version="1.1" viewBox="0 0 401 396" width="401px" zoomAndPan="magnify"><defs/><g><text fill="#000000" font-family="sans-serif" font-size="14" font-weight="bold" lengthAdjust="spacing" textLength="198" x="97.5" y="25.1074">Keyple Distributed JSON API</text><text fill="#000000" font-family="sans-serif" font-size="14" font-weight="bold" lengthAdjust="spacing" textLength="373" x="10" y="43.7285">compliant with "keyple-service-java-lib" version 2.1.4</text><text fill="#000000" font-family="sans-serif" font-size="14" font-weight="bold" lengthAdjust="spacing" textLength="253" x="70" y="62.3496">END_REMOTE_SERVICE (2023-03-22)</text><!--class EndRemoteServiceMessage--><g id="elem_EndRemoteServiceMessage"><rect codeLine="77" fill="#E9F7EF" height="159.7266" id="EndRemoteServiceMessage" rx="2.5" ry="2.5" style="stroke:#27AE60;stroke-width:2.0;" width="295" x="56" y="83.8633"/><ellipse cx="110.25" cy="99.8633" fill="#ADD1B2" rx="11" ry="11" style="stroke:#181818;stroke-width:1.0;"/><path d="M113.0156,95.7383 Q113.1719,95.5195 113.3594,95.4102 Q113.5469,95.3008 113.7656,95.3008 Q114.1406,95.3008 114.375,95.5664 Q114.6094,95.8164 114.6094,96.4258 L114.6094,97.8789 Q114.6094,98.4883 114.375,98.7539 Q114.1406,99.0195 113.7656,99.0195 Q113.4219,99.0195 113.2188,98.8164 Q113.0156,98.6289 112.9063,98.1133 Q112.8594,97.7539 112.6719,97.5664 Q112.3438,97.1914 111.7344,96.9727 Q111.125,96.7539 110.5,96.7539 Q109.7344,96.7539 109.0938,97.082 Q108.4688,97.4102 107.9688,98.1602 Q107.4844,98.9102 107.4844,99.9414 L107.4844,101.0352 Q107.4844,102.2695 108.375,103.0977 Q109.2656,103.9102 110.8594,103.9102 Q111.7969,103.9102 112.4531,103.6602 Q112.8438,103.5039 113.2656,103.0664 Q113.5313,102.8008 113.6719,102.7227 Q113.8281,102.6445 114.0313,102.6445 Q114.3594,102.6445 114.6094,102.9102 Q114.875,103.1602 114.875,103.5039 Q114.875,103.8477 114.5313,104.2539 Q114.0313,104.832 113.2344,105.1602 Q112.1563,105.6133 110.8594,105.6133 Q109.3438,105.6133 108.1406,104.9883 Q107.1563,104.4883 106.4688,103.4258 Q105.7813,102.3477 105.7813,101.0664 L105.7813,99.9102 Q105.7813,98.582 106.3906,97.4414 Q107.0156,96.2852 108.1094,95.6758 Q109.2031,95.0508 110.4375,95.0508 Q111.1719,95.0508 111.8125,95.2227 Q112.4688,95.3789 113.0156,95.7383 Z " fill="#000000"/><text fill="#000000" font-family="sans-serif" font-size="14" lengthAdjust="spacing" textLength="178" x="130.75" y="105.6602">EndRemoteServiceMessage</text><line style="stroke:#27AE60;stroke-width:2.0;" x1="57" x2="350" y1="115.8633" y2="115.8633"/><text fill="#000000" font-family="sans-serif" font-size="14" font-weight="bold" lengthAdjust="spacing" textLength="43" x="62" y="134.9707">action</text><text fill="#000000" font-family="sans-serif" font-size="14" lengthAdjust="spacing" textLength="66" x="109" y="134.9707">: String = "</text><text fill="#000000" font-family="sans-serif" font-size="14" font-weight="bold" lengthAdjust="spacing" textLength="165" x="175" y="134.9707">END_REMOTE_SERVICE</text><text fill="#000000" font-family="sans-serif" font-size="14" lengthAdjust="spacing" textLength="5" x="340" y="134.9707">"</text><text fill="#000000" font-family="sans-serif" font-size="14" font-weight="bold" lengthAdjust="spacing" textLength="89" x="62" y="153.5918">clientNodeId</text><text fill="#000000" font-family="sans-serif" font-size="14" lengthAdjust="spacing" textLength="45" x="155" y="153.5918">: String</text><text fill="#000000" font-family="sans-serif" font-size="14" font-weight="bold" lengthAdjust="spacing" textLength="97" x="62" y="172.2129">serverNodeId</text><text fill="#000000" font-family="sans-serif" font-size="14" lengthAdjust="spacing" textLength="45" x="163" y="172.2129">: String</text><text fill="#000000" font-family="sans-serif" font-size="14" font-weight="bold" lengthAdjust="spacing" textLength="140" x="62" y="190.834">remoteReaderName</text><text fill="#000000" font-family="sans-serif" font-size="14" lengthAdjust="spacing" textLength="45" x="206" y="190.834">: String</text><text fill="#000000" font-family="sans-serif" font-size="14" font-weight="bold" lengthAdjust="spacing" textLength="68" x="62" y="209.4551">sessionId</text><text fill="#000000" font-family="sans-serif" font-size="14" lengthAdjust="spacing" textLength="45" x="134" y="209.4551">: String</text><text fill="#000000" font-family="sans-serif" font-size="14" font-weight="bold" lengthAdjust="spacing" textLength="34" x="62" y="228.0762">body</text><text fill="#000000" font-family="sans-serif" font-size="14" lengthAdjust="spacing" textLength="161" x="100" y="228.0762">: EndRemoteServiceBody</text><line style="stroke:#27AE60;stroke-width:2.0;" x1="57" x2="350" y1="235.5898" y2="235.5898"/></g><!--class EndRemoteServiceBody--><g id="elem_EndRemoteServiceBody"><rect codeLine="78" fill="#E9F7EF" height="66.6211" id="EndRemoteServiceBody" rx="2.5" ry="2.5" style="stroke:#27AE60;stroke-width:2.0;" width="185" x="111" y="322.8633"/><ellipse cx="126" cy="338.8633" fill="#ADD1B2" rx="11" ry="11" style="stroke:#181818;stroke-width:1.0;"/><path d="M128.7656,334.7383 Q128.9219,334.5195 129.1094,334.4102 Q129.2969,334.3008 129.5156,334.3008 Q129.8906,334.3008 130.125,334.5664 Q130.3594,334.8164 130.3594,335.4258 L130.3594,336.8789 Q130.3594,337.4883 130.125,337.7539 Q129.8906,338.0195 129.5156,338.0195 Q129.1719,338.0195 128.9688,337.8164 Q128.7656,337.6289 128.6563,337.1133 Q128.6094,336.7539 128.4219,336.5664 Q128.0938,336.1914 127.4844,335.9727 Q126.875,335.7539 126.25,335.7539 Q125.4844,335.7539 124.8438,336.082 Q124.2188,336.4102 123.7188,337.1602 Q123.2344,337.9102 123.2344,338.9414 L123.2344,340.0352 Q123.2344,341.2695 124.125,342.0977 Q125.0156,342.9102 126.6094,342.9102 Q127.5469,342.9102 128.2031,342.6602 Q128.5938,342.5039 129.0156,342.0664 Q129.2813,341.8008 129.4219,341.7227 Q129.5781,341.6445 129.7813,341.6445 Q130.1094,341.6445 130.3594,341.9102 Q130.625,342.1602 130.625,342.5039 Q130.625,342.8477 130.2813,343.2539 Q129.7813,343.832 128.9844,344.1602 Q127.9063,344.6133 126.6094,344.6133 Q125.0938,344.6133 123.8906,343.9883 Q122.9063,343.4883 122.2188,342.4258 Q121.5313,341.3477 121.5313,340.0664 L121.5313,338.9102 Q121.5313,337.582 122.1406,336.4414 Q122.7656,335.2852 123.8594,334.6758 Q124.9531,334.0508 126.1875,334.0508 Q126.9219,334.0508 127.5625,334.2227 Q128.2188,334.3789 128.7656,334.7383 Z " fill="#000000"/><text fill="#000000" font-family="sans-serif" font-size="14" lengthAdjust="spacing" textLength="153" x="140" y="344.6602">EndRemoteServiceBody</text><line style="stroke:#27AE60;stroke-width:2.0;" x1="112" x2="295" y1="354.8633" y2="354.8633"/><text fill="#000000" font-family="sans-serif" font-size="14" font-weight="bold" lengthAdjust="spacing" textLength="77" x="117" y="373.9707">outputData</text><text fill="#000000" font-family="sans-serif" font-size="14" lengthAdjust="spacing" textLength="57" x="198" y="373.9707">: Object?</text><line style="stroke:#27AE60;stroke-width:2.0;" x1="112" x2="295" y1="381.4844" y2="381.4844"/></g><!--reverse link EndRemoteServiceMessage to EndRemoteServiceBody--><g id="link_EndRemoteServiceMessage_EndRemoteServiceBody"><path codeLine="70" d="M203.5,257.0353 C203.5,280.6153 203.5,304.4469 203.5,322.7421 " fill="none" id="EndRemoteServiceMessage-backto-EndRemoteServiceBody" style="stroke:#3498DB;stroke-width:2.0;"/><polygon fill="#3498DB" points="203.5,243.9973,199.5,249.9973,203.5,255.9973,207.5,249.9973,203.5,243.9973" style="stroke:#3498DB;stroke-width:2.0;"/><text fill="#000000" font-family="sans-serif" font-size="13" lengthAdjust="spacing" textLength="61" x="204.5" y="288.8916">JsonString</text><text fill="#000000" font-family="sans-serif" font-size="13" lengthAdjust="spacing" textLength="7" x="195.8109" y="311.5437">1</text></g><!--SRC=[dLHTRzfA47tthvXB7tgl9OV4c12YfbVsxhgbJI02UgKyHOiz0HVZHRlhHEYg_xrhOmXG1whwoPuvCsU-V7IYKxJ0F5znjKmHQAAqJ2QvnXY-Z0PzyEzxfJyIYsMQy4p3Iw9dq9YNU4UXV4uYTBxpP-waoQG1poXL8Z9mpoxEl3AKzUdZaDqDnknnn8R_zGY3lzrpj-MSjnpN_SV2B0PT5cAzXviR67zcTyoyc4yYyXHpgI1HAaS5CS8rpBHUgkjcSwONQIHI8ICHepep5JQVP5FpIOeyTs9qedLqZScygcIQESkKwwRrLunFIOP07ZyDsSC5X5TXD-mUc5q8tR0LUWVc5h0swx13j0UqGmDA3ynj83u9gNjWleI0aXRfx9XlU_slqFAwLpJOiNuRCN0xFhiyBsRbE33IgzJCHS-uXbXaxyrwX9olTvJXotORuWbChvdE5wa9izGyoPPSyWKeZHA5NYtH3uICKP9Yel3Exr92mrfWRmyOU7w7jMk1P3yZfHU1MmjaUq0MT5k6kkpFt4vHxquKIRbIQ_nubaJp39M2tRI-bE9brsKoFM2QYfTVil1eFfKYp-AAEMGX8woUh89GpoVdrAGSOdmYtuSF4kEF7qrQoYWZHz9kaQpZcJkmPeavz8tnTKo6zJwNvhSxIRmiOIMtnqZOEShz2hvYdkVJ3VtMlbV19CrFynUWifyWR8V1KVODjBhrYhkoxZ5_aeZPIUffWIgvks67XKUvjzZgdwh8D-P3zjNlaAzARj_S4Jl5NK9TqcBjNUhLFlDQ4ycWFsRzyLeLQnJLYWe2O5ayn8NGE5hhyftv0_WKuVzIY6sRHzgeWMqR5HqPdS-cS0CDs_urdsqtgf0eJJ3JVIEnlNWdiF8M-e_oBQyiQnaYDstt-GBhubMXJtN14n6lIkjXKu5nM3_UwBXmRjiLkLxccdBDoqI3oNUCzBycripGLqf42I_ceIphhS7PHeCQ5urwcdULJ5_35oMoglZrlcxzXy6tpRhCzsZySCl-T7lRYppMyole9m00]--></g></svg>