<?xml version="1.0" encoding="us-ascii" standalone="no"?><svg xmlns="http://www.w3.org/2000/svg" xmlns:xlink="http://www.w3.org/1999/xlink" contentStyleType="text/css" height="413px" preserveAspectRatio="none" style="width:677px;height:413px;background:#FFFFFF;" version="1.1" viewBox="0 0 677 413" width="677px" zoomAndPan="magnify"><defs/><g><rect fill="#D3D3D3" height="275.6191" style="stroke:#181818;stroke-width:1.0;" width="10" x="33.5" y="65.6211"/><rect fill="#D3D3D3" height="261.3281" style="stroke:#181818;stroke-width:1.0;" width="10" x="180.5" y="88.9121"/><rect fill="#D3D3D3" height="189.7461" style="stroke:#181818;stroke-width:1.0;" width="10" x="628.5" y="120.2031"/><rect fill="#EFEFEF" height="144.4551" rx="5" ry="5" style="stroke:#000000;stroke-width:1.5;" width="661.5" x="10" y="135.2031"/><line style="stroke:#181818;stroke-width:0.5;stroke-dasharray:5.0,5.0;" x1="38" x2="38" y1="55.6211" y2="359.2402"/><line style="stroke:#181818;stroke-width:0.5;stroke-dasharray:5.0,5.0;" x1="185" x2="185" y1="55.6211" y2="359.2402"/><line style="stroke:#181818;stroke-width:0.5;stroke-dasharray:5.0,5.0;" x1="633.5" x2="633.5" y1="55.6211" y2="359.2402"/><text fill="#000000" font-family="sans-serif" font-size="14" lengthAdjust="spacing" textLength="31" x="20" y="52.1074">Card</text><ellipse cx="38.5" cy="21" fill="#E2E2F0" rx="12" ry="12" style="stroke:#181818;stroke-width:0.5;"/><line style="stroke:#181818;stroke-width:0.5;" x1="26.5" x2="50.5" y1="35" y2="35"/><text fill="#000000" font-family="sans-serif" font-size="14" lengthAdjust="spacing" textLength="31" x="20" y="373.3477">Card</text><ellipse cx="38.5" cy="392.8613" fill="#E2E2F0" rx="12" ry="12" style="stroke:#181818;stroke-width:0.5;"/><line style="stroke:#181818;stroke-width:0.5;" x1="26.5" x2="50.5" y1="406.8613" y2="406.8613"/><rect fill="#E2E2F0" height="32.6211" rx="5" ry="5" style="stroke:#181818;stroke-width:0.5;" width="69" x="151" y="22"/><text fill="#000000" font-family="sans-serif" font-size="14" lengthAdjust="spacing" textLength="55" x="158" y="44.1074">Terminal</text><rect fill="#E2E2F0" height="32.6211" rx="5" ry="5" style="stroke:#181818;stroke-width:0.5;" width="69" x="151" y="358.2402"/><text fill="#000000" font-family="sans-serif" font-size="14" lengthAdjust="spacing" textLength="55" x="158" y="380.3477">Terminal</text><rect fill="#E2E2F0" height="32.6211" rx="5" ry="5" style="stroke:#181818;stroke-width:0.5;" width="56" x="605.5" y="22"/><text fill="#000000" font-family="sans-serif" font-size="14" lengthAdjust="spacing" textLength="42" x="612.5" y="44.1074">Server</text><rect fill="#E2E2F0" height="32.6211" rx="5" ry="5" style="stroke:#181818;stroke-width:0.5;" width="56" x="605.5" y="358.2402"/><text fill="#000000" font-family="sans-serif" font-size="14" lengthAdjust="spacing" textLength="42" x="612.5" y="380.3477">Server</text><rect fill="#D3D3D3" height="275.6191" style="stroke:#181818;stroke-width:1.0;" width="10" x="33.5" y="65.6211"/><rect fill="#D3D3D3" height="261.3281" style="stroke:#181818;stroke-width:1.0;" width="10" x="180.5" y="88.9121"/><rect fill="#D3D3D3" height="189.7461" style="stroke:#181818;stroke-width:1.0;" width="10" x="628.5" y="120.2031"/><polygon fill="#181818" points="168.5,84.9121,178.5,88.9121,168.5,88.9121" style="stroke:#181818;stroke-width:1.0;"/><line style="stroke:#181818;stroke-width:1.0;stroke-dasharray:2.0,2.0;" x1="43.5" x2="179.5" y1="88.9121" y2="88.9121"/><text fill="#000000" font-family="sans-serif" font-size="13" lengthAdjust="spacing" textLength="100" x="50.5" y="83.6494">a card is inserted</text><polygon fill="#3498DB" points="616.5,116.2031,626.5,120.2031,616.5,124.2031,620.5,120.2031" style="stroke:#3498DB;stroke-width:1.0;"/><line style="stroke:#3498DB;stroke-width:1.0;" x1="190.5" x2="622.5" y1="120.2031" y2="120.2031"/><text fill="#3498DB" font-family="sans-serif" font-size="13" lengthAdjust="spacing" textLength="61" x="197.5" y="114.9404">message (</text><text fill="#3498DB" font-family="sans-serif" font-size="13" font-weight="bold" lengthAdjust="spacing" textLength="5" x="258.5" y="114.9404">{</text><text fill="#3498DB" font-family="sans-serif" font-size="13" lengthAdjust="spacing" textLength="4" x="263.5" y="114.9404">&#160;</text><text fill="#3498DB" font-family="sans-serif" font-size="13" font-weight="bold" lengthAdjust="spacing" textLength="183" x="267.5" y="114.9404">EXECUTE_REMOTE_SERVICE</text><text fill="#3498DB" font-family="sans-serif" font-size="13" lengthAdjust="spacing" textLength="133" x="450.5" y="114.9404">, transaction input data</text><text fill="#3498DB" font-family="sans-serif" font-size="13" font-weight="bold" lengthAdjust="spacing" textLength="5" x="587.5" y="114.9404">}</text><text fill="#3498DB" font-family="sans-serif" font-size="13" lengthAdjust="spacing" textLength="24" x="592.5" y="114.9404">, ...)</text><path d="M15,135.2031 L83,135.2031 L83,144.4941 L73,154.4941 L10,154.4941 L10,140.2031 A5,5 0 0 1 15,135.2031 " fill="#EEEEEE" style="stroke:#000000;stroke-width:1.5;"/><rect fill="none" height="144.4551" rx="5" ry="5" style="stroke:#000000;stroke-width:1.5;" width="661.5" x="10" y="135.2031"/><text fill="#000000" font-family="sans-serif" font-size="13" font-weight="bold" lengthAdjust="spacing" textLength="28" x="25" y="150.2314">loop</text><text fill="#000000" font-family="sans-serif" font-size="11" font-weight="bold" lengthAdjust="spacing" textLength="439" x="98" y="149.0732">[while there are actions to be performed with the card or the terminal's reader]</text><polygon fill="#27AE60" points="201.5,173.7852,191.5,177.7852,201.5,181.7852,197.5,177.7852" style="stroke:#27AE60;stroke-width:1.0;"/><line style="stroke:#27AE60;stroke-width:1.0;stroke-dasharray:2.0,2.0;" x1="195.5" x2="627.5" y1="177.7852" y2="177.7852"/><text fill="#27AE60" font-family="sans-serif" font-size="13" lengthAdjust="spacing" textLength="61" x="207.5" y="172.5225">message (</text><text fill="#27AE60" font-family="sans-serif" font-size="13" font-weight="bold" lengthAdjust="spacing" textLength="9" x="268.5" y="172.5225">[{</text><text fill="#27AE60" font-family="sans-serif" font-size="13" lengthAdjust="spacing" textLength="4" x="277.5" y="172.5225">&#160;</text><text fill="#27AE60" font-family="sans-serif" font-size="13" font-weight="bold" lengthAdjust="spacing" textLength="29" x="281.5" y="172.5225">CMD</text><text fill="#27AE60" font-family="sans-serif" font-size="13" lengthAdjust="spacing" textLength="43" x="310.5" y="172.5225">, action</text><text fill="#27AE60" font-family="sans-serif" font-size="13" font-weight="bold" lengthAdjust="spacing" textLength="9" x="357.5" y="172.5225">}]</text><text fill="#27AE60" font-family="sans-serif" font-size="13" lengthAdjust="spacing" textLength="24" x="366.5" y="172.5225">, ...)</text><polygon fill="#181818" points="54.5,205.0762,44.5,209.0762,54.5,213.0762,50.5,209.0762" style="stroke:#181818;stroke-width:1.0;"/><line style="stroke:#181818;stroke-width:1.0;" x1="48.5" x2="179.5" y1="209.0762" y2="209.0762"/><text fill="#000000" font-family="sans-serif" font-size="13" lengthAdjust="spacing" textLength="93" x="60.5" y="203.8135">process (action)</text><polygon fill="#181818" points="168.5,236.3672,178.5,240.3672,168.5,244.3672,172.5,240.3672" style="stroke:#181818;stroke-width:1.0;"/><line style="stroke:#181818;stroke-width:1.0;stroke-dasharray:2.0,2.0;" x1="43.5" x2="174.5" y1="240.3672" y2="240.3672"/><text fill="#000000" font-family="sans-serif" font-size="13" lengthAdjust="spacing" textLength="32" x="50.5" y="235.1045">result</text><polygon fill="#3498DB" points="616.5,267.6582,626.5,271.6582,616.5,275.6582,620.5,271.6582" style="stroke:#3498DB;stroke-width:1.0;"/><line style="stroke:#3498DB;stroke-width:1.0;" x1="190.5" x2="622.5" y1="271.6582" y2="271.6582"/><text fill="#3498DB" font-family="sans-serif" font-size="13" lengthAdjust="spacing" textLength="61" x="197.5" y="266.3955">message (</text><text fill="#3498DB" font-family="sans-serif" font-size="13" font-weight="bold" lengthAdjust="spacing" textLength="5" x="258.5" y="266.3955">{</text><text fill="#3498DB" font-family="sans-serif" font-size="13" lengthAdjust="spacing" textLength="4" x="263.5" y="266.3955">&#160;</text><text fill="#3498DB" font-family="sans-serif" font-size="13" font-weight="bold" lengthAdjust="spacing" textLength="35" x="267.5" y="266.3955">RESP</text><text fill="#3498DB" font-family="sans-serif" font-size="13" lengthAdjust="spacing" textLength="40" x="302.5" y="266.3955">, result</text><text fill="#3498DB" font-family="sans-serif" font-size="13" font-weight="bold" lengthAdjust="spacing" textLength="5" x="346.5" y="266.3955">}</text><text fill="#3498DB" font-family="sans-serif" font-size="13" lengthAdjust="spacing" textLength="24" x="351.5" y="266.3955">, ...)</text><polygon fill="#27AE60" points="201.5,305.9492,191.5,309.9492,201.5,313.9492,197.5,309.9492" style="stroke:#27AE60;stroke-width:1.0;"/><line style="stroke:#27AE60;stroke-width:1.0;stroke-dasharray:2.0,2.0;" x1="195.5" x2="632.5" y1="309.9492" y2="309.9492"/><text fill="#27AE60" font-family="sans-serif" font-size="13" lengthAdjust="spacing" textLength="61" x="207.5" y="304.6865">message (</text><text fill="#27AE60" font-family="sans-serif" font-size="13" font-weight="bold" lengthAdjust="spacing" textLength="9" x="268.5" y="304.6865">[{</text><text fill="#27AE60" font-family="sans-serif" font-size="13" lengthAdjust="spacing" textLength="4" x="277.5" y="304.6865">&#160;</text><text fill="#27AE60" font-family="sans-serif" font-size="13" font-weight="bold" lengthAdjust="spacing" textLength="150" x="281.5" y="304.6865">END_REMOTE_SERVICE</text><text fill="#27AE60" font-family="sans-serif" font-size="13" lengthAdjust="spacing" textLength="141" x="431.5" y="304.6865">, transaction output data</text><text fill="#27AE60" font-family="sans-serif" font-size="13" font-weight="bold" lengthAdjust="spacing" textLength="9" x="576.5" y="304.6865">}]</text><text fill="#27AE60" font-family="sans-serif" font-size="13" lengthAdjust="spacing" textLength="24" x="585.5" y="304.6865">, ...)</text><polygon fill="#181818" points="168.5,337.2402,178.5,341.2402,168.5,341.2402" style="stroke:#181818;stroke-width:1.0;"/><line style="stroke:#181818;stroke-width:1.0;stroke-dasharray:2.0,2.0;" x1="38.5" x2="179.5" y1="341.2402" y2="341.2402"/><text fill="#000000" font-family="sans-serif" font-size="13" lengthAdjust="spacing" textLength="113" x="45.5" y="335.9775">the card is removed</text><!--SRC=[fLDjRzCm4FxkNt5gFtH4j1e3mLQnIYCrBnBjfZP3IAD29ZaMQuaTpawh2V7ViMEpfWW92H95kUJkdhlddlC8piyXUyiNt1cCcJkf6a6YXfLkLP5gKaZmv9YDzXw3trfKELuGwLrMolnEeJ5mmjZ8WwMNoumlimuEbPNs7WQfe680ma3k3EPWhCnb8vI5GOPKIoMguAwaIpaCM2DjaJgtwKp6H6xbLbZiu63uNjwMzWtXFUk-n-DF4GYc84ACD22LIxTOzDD3L1yW_1dV39y-EpkTlzhCOb47zJBNbQOfHDUiTgp5BS9HadnF4aWI_f6drnd_lEABI_TQyzM7TobFaiTWIIZZoshb-cXQ2uMmmgNyyDx9PFAerrKisEkALLetCEIl_GsxKbO8jaH24FxfS0rO3LyG6gIlcceiO2TjwSF213HrjetZ7XaW58MR9hWhbdIqJrvSyEV7c_5iFyB8Exhwj6y2xtGnzpGYFqTgyy3AW_-QwImqCeM6TEutvYXanAWWNQykeMahUm3nJxAi-FhADnJm3eQEogt3_v7do_bV1DUjxIk-7qw1lsdE_h303m9AhrYjjsw3UudTWVe9]--></g></svg>