<?xml version="1.0" encoding="us-ascii" standalone="no"?><svg xmlns="http://www.w3.org/2000/svg" xmlns:xlink="http://www.w3.org/1999/xlink" contentStyleType="text/css" height="1217px" preserveAspectRatio="none" style="width:1425px;height:1217px;background:#FFFFFF;" version="1.1" viewBox="0 0 1425 1217" width="1425px" zoomAndPan="magnify"><defs/><g><!--class CmdData--><g id="elem_CmdData"><rect codeLine="170" fill="#E9F7EF" height="178.3477" id="CmdData" rx="2.5" ry="2.5" style="stroke:#27AE60;stroke-width:2.0;" width="201" x="359.5" y="7"/><ellipse cx="426.25" cy="23" fill="#ADD1B2" rx="11" ry="11" style="stroke:#181818;stroke-width:1.0;"/><path d="M429.0156,18.875 Q429.1719,18.6563 429.3594,18.5469 Q429.5469,18.4375 429.7656,18.4375 Q430.1406,18.4375 430.375,18.7031 Q430.6094,18.9531 430.6094,19.5625 L430.6094,21.0156 Q430.6094,21.625 430.375,21.8906 Q430.1406,22.1563 429.7656,22.1563 Q429.4219,22.1563 429.2188,21.9531 Q429.0156,21.7656 428.9063,21.25 Q428.8594,20.8906 428.6719,20.7031 Q428.3438,20.3281 427.7344,20.1094 Q427.125,19.8906 426.5,19.8906 Q425.7344,19.8906 425.0938,20.2188 Q424.4688,20.5469 423.9688,21.2969 Q423.4844,22.0469 423.4844,23.0781 L423.4844,24.1719 Q423.4844,25.4063 424.375,26.2344 Q425.2656,27.0469 426.8594,27.0469 Q427.7969,27.0469 428.4531,26.7969 Q428.8438,26.6406 429.2656,26.2031 Q429.5313,25.9375 429.6719,25.8594 Q429.8281,25.7813 430.0313,25.7813 Q430.3594,25.7813 430.6094,26.0469 Q430.875,26.2969 430.875,26.6406 Q430.875,26.9844 430.5313,27.3906 Q430.0313,27.9688 429.2344,28.2969 Q428.1563,28.75 426.8594,28.75 Q425.3438,28.75 424.1406,28.125 Q423.1563,27.625 422.4688,26.5625 Q421.7813,25.4844 421.7813,24.2031 L421.7813,23.0469 Q421.7813,21.7188 422.3906,20.5781 Q423.0156,19.4219 424.1094,18.8125 Q425.2031,18.1875 426.4375,18.1875 Q427.1719,18.1875 427.8125,18.3594 Q428.4688,18.5156 429.0156,18.875 Z " fill="#000000"/><text fill="#000000" font-family="sans-serif" font-size="14" lengthAdjust="spacing" textLength="59" x="446.75" y="28.7969">CmdData</text><line style="stroke:#27AE60;stroke-width:2.0;" x1="360.5" x2="559.5" y1="39" y2="39"/><text fill="#000000" font-family="sans-serif" font-size="14" font-weight="bold" lengthAdjust="spacing" textLength="43" x="365.5" y="58.1074">action</text><text fill="#000000" font-family="sans-serif" font-size="14" lengthAdjust="spacing" textLength="66" x="412.5" y="58.1074">: String = "</text><text fill="#000000" font-family="sans-serif" font-size="14" font-weight="bold" lengthAdjust="spacing" textLength="33" x="478.5" y="58.1074">CMD</text><text fill="#000000" font-family="sans-serif" font-size="14" lengthAdjust="spacing" textLength="5" x="511.5" y="58.1074">"</text><text fill="#000000" font-family="sans-serif" font-size="14" font-weight="bold" lengthAdjust="spacing" textLength="89" x="365.5" y="76.7285">clientNodeId</text><text fill="#000000" font-family="sans-serif" font-size="14" lengthAdjust="spacing" textLength="45" x="458.5" y="76.7285">: String</text><text fill="#000000" font-family="sans-serif" font-size="14" font-weight="bold" lengthAdjust="spacing" textLength="123" x="365.5" y="95.3496">localReaderName</text><text fill="#000000" font-family="sans-serif" font-size="14" lengthAdjust="spacing" textLength="45" x="492.5" y="95.3496">: String</text><text fill="#000000" font-family="sans-serif" font-size="14" font-weight="bold" lengthAdjust="spacing" textLength="97" x="365.5" y="113.9707">serverNodeId</text><text fill="#000000" font-family="sans-serif" font-size="14" lengthAdjust="spacing" textLength="45" x="466.5" y="113.9707">: String</text><text fill="#000000" font-family="sans-serif" font-size="14" font-weight="bold" lengthAdjust="spacing" textLength="140" x="365.5" y="132.5918">remoteReaderName</text><text fill="#000000" font-family="sans-serif" font-size="14" lengthAdjust="spacing" textLength="45" x="509.5" y="132.5918">: String</text><text fill="#000000" font-family="sans-serif" font-size="14" font-weight="bold" lengthAdjust="spacing" textLength="68" x="365.5" y="151.2129">sessionId</text><text fill="#000000" font-family="sans-serif" font-size="14" lengthAdjust="spacing" textLength="45" x="437.5" y="151.2129">: String</text><text fill="#000000" font-family="sans-serif" font-size="14" font-weight="bold" lengthAdjust="spacing" textLength="34" x="365.5" y="169.834">body</text><text fill="#000000" font-family="sans-serif" font-size="14" lengthAdjust="spacing" textLength="69" x="403.5" y="169.834">: CmdBody</text><line style="stroke:#27AE60;stroke-width:2.0;" x1="360.5" x2="559.5" y1="177.3477" y2="177.3477"/></g><!--class CmdBody--><g id="elem_CmdBody"><rect codeLine="171" fill="#E9F7EF" height="85.2422" id="CmdBody" rx="2.5" ry="2.5" style="stroke:#27AE60;stroke-width:2.0;" width="153" x="383.5" y="264"/><ellipse cx="425.5" cy="280" fill="#A9DCDF" rx="11" ry="11" style="stroke:#181818;stroke-width:1.0;"/><path d="M427.6875,281.7656 L423.5469,281.7656 L423.125,282.7969 L423.5469,282.7969 Q424.1563,282.7969 424.4219,283.0313 Q424.6875,283.2656 424.6875,283.6563 Q424.6875,284.0313 424.4219,284.2656 Q424.1563,284.5 423.5469,284.5 L421.25,284.5 Q420.6406,284.5 420.3906,284.2656 Q420.125,284.0313 420.125,283.6406 Q420.125,283.2656 420.4063,283.0313 Q420.6719,282.7813 421.2969,282.7969 L423.9688,276.1406 L422.8594,276.1406 Q422.25,276.1406 421.9844,275.9063 Q421.7188,275.6719 421.7188,275.2813 Q421.7188,274.9063 421.9844,274.6719 Q422.25,274.4375 422.8594,274.4375 L426.5313,274.4375 L429.9219,282.7969 Q430.5156,282.7969 430.7031,282.9375 Q431.0938,283.2031 431.0938,283.6563 Q431.0938,284.0313 430.8281,284.2656 Q430.5781,284.5 429.9688,284.5 L427.6719,284.5 Q427.0625,284.5 426.7969,284.2656 Q426.5313,284.0313 426.5313,283.6406 Q426.5313,283.2656 426.7969,283.0313 Q427.0625,282.7969 427.6719,282.7969 L428.0938,282.7969 L427.6875,281.7656 Z M426.9688,280.0625 L425.6094,276.6875 L424.2344,280.0625 L426.9688,280.0625 Z " fill="#000000"/><text fill="#000000" font-family="sans-serif" font-size="14" font-style="italic" lengthAdjust="spacing" textLength="61" x="445.5" y="285.7969">CmdBody</text><line style="stroke:#27AE60;stroke-width:2.0;" x1="384.5" x2="535.5" y1="296" y2="296"/><text fill="#000000" font-family="sans-serif" font-size="14" font-weight="bold" lengthAdjust="spacing" textLength="53" x="389.5" y="315.1074">service</text><text fill="#000000" font-family="sans-serif" font-size="14" lengthAdjust="spacing" textLength="45" x="446.5" y="315.1074">: String</text><text fill="#000000" font-family="sans-serif" font-size="14" font-weight="bold" lengthAdjust="spacing" textLength="80" x="389.5" y="333.7285">parameters</text><text fill="#000000" font-family="sans-serif" font-size="14" lengthAdjust="spacing" textLength="57" x="473.5" y="333.7285">: Object?</text><line style="stroke:#27AE60;stroke-width:2.0;" x1="384.5" x2="535.5" y1="341.2422" y2="341.2422"/></g><!--class IsContactlessCmdBody--><g id="elem_IsContactlessCmdBody"><rect codeLine="189" fill="#E9F7EF" height="66.6211" id="IsContactlessCmdBody" rx="2.5" ry="2.5" style="stroke:#27AE60;stroke-width:2.0;" width="262" x="7" y="419"/><ellipse cx="61.25" cy="435" fill="#ADD1B2" rx="11" ry="11" style="stroke:#181818;stroke-width:1.0;"/><path d="M64.0156,430.875 Q64.1719,430.6563 64.3594,430.5469 Q64.5469,430.4375 64.7656,430.4375 Q65.1406,430.4375 65.375,430.7031 Q65.6094,430.9531 65.6094,431.5625 L65.6094,433.0156 Q65.6094,433.625 65.375,433.8906 Q65.1406,434.1563 64.7656,434.1563 Q64.4219,434.1563 64.2188,433.9531 Q64.0156,433.7656 63.9063,433.25 Q63.8594,432.8906 63.6719,432.7031 Q63.3438,432.3281 62.7344,432.1094 Q62.125,431.8906 61.5,431.8906 Q60.7344,431.8906 60.0938,432.2188 Q59.4688,432.5469 58.9688,433.2969 Q58.4844,434.0469 58.4844,435.0781 L58.4844,436.1719 Q58.4844,437.4063 59.375,438.2344 Q60.2656,439.0469 61.8594,439.0469 Q62.7969,439.0469 63.4531,438.7969 Q63.8438,438.6406 64.2656,438.2031 Q64.5313,437.9375 64.6719,437.8594 Q64.8281,437.7813 65.0313,437.7813 Q65.3594,437.7813 65.6094,438.0469 Q65.875,438.2969 65.875,438.6406 Q65.875,438.9844 65.5313,439.3906 Q65.0313,439.9688 64.2344,440.2969 Q63.1563,440.75 61.8594,440.75 Q60.3438,440.75 59.1406,440.125 Q58.1563,439.625 57.4688,438.5625 Q56.7813,437.4844 56.7813,436.2031 L56.7813,435.0469 Q56.7813,433.7188 57.3906,432.5781 Q58.0156,431.4219 59.1094,430.8125 Q60.2031,430.1875 61.4375,430.1875 Q62.1719,430.1875 62.8125,430.3594 Q63.4688,430.5156 64.0156,430.875 Z " fill="#000000"/><text fill="#000000" font-family="sans-serif" font-size="14" lengthAdjust="spacing" textLength="145" x="81.75" y="440.7969">IsContactlessCmdBody</text><line style="stroke:#27AE60;stroke-width:2.0;" x1="8" x2="268" y1="451" y2="451"/><text fill="#000000" font-family="sans-serif" font-size="14" font-weight="bold" lengthAdjust="spacing" textLength="53" x="13" y="470.1074">service</text><text fill="#000000" font-family="sans-serif" font-size="14" lengthAdjust="spacing" textLength="66" x="70" y="470.1074">: String = "</text><text fill="#000000" font-family="sans-serif" font-size="14" font-weight="bold" lengthAdjust="spacing" textLength="122" x="136" y="470.1074">IS_CONTACTLESS</text><text fill="#000000" font-family="sans-serif" font-size="14" lengthAdjust="spacing" textLength="5" x="258" y="470.1074">"</text><line style="stroke:#27AE60;stroke-width:2.0;" x1="8" x2="268" y1="477.6211" y2="477.6211"/></g><!--class IsCardPresentCmdBody--><g id="elem_IsCardPresentCmdBody"><rect codeLine="186" fill="#E9F7EF" height="66.6211" id="IsCardPresentCmdBody" rx="2.5" ry="2.5" style="stroke:#27AE60;stroke-width:2.0;" width="272" x="304" y="419"/><ellipse cx="360.25" cy="435" fill="#ADD1B2" rx="11" ry="11" style="stroke:#181818;stroke-width:1.0;"/><path d="M363.0156,430.875 Q363.1719,430.6563 363.3594,430.5469 Q363.5469,430.4375 363.7656,430.4375 Q364.1406,430.4375 364.375,430.7031 Q364.6094,430.9531 364.6094,431.5625 L364.6094,433.0156 Q364.6094,433.625 364.375,433.8906 Q364.1406,434.1563 363.7656,434.1563 Q363.4219,434.1563 363.2188,433.9531 Q363.0156,433.7656 362.9063,433.25 Q362.8594,432.8906 362.6719,432.7031 Q362.3438,432.3281 361.7344,432.1094 Q361.125,431.8906 360.5,431.8906 Q359.7344,431.8906 359.0938,432.2188 Q358.4688,432.5469 357.9688,433.2969 Q357.4844,434.0469 357.4844,435.0781 L357.4844,436.1719 Q357.4844,437.4063 358.375,438.2344 Q359.2656,439.0469 360.8594,439.0469 Q361.7969,439.0469 362.4531,438.7969 Q362.8438,438.6406 363.2656,438.2031 Q363.5313,437.9375 363.6719,437.8594 Q363.8281,437.7813 364.0313,437.7813 Q364.3594,437.7813 364.6094,438.0469 Q364.875,438.2969 364.875,438.6406 Q364.875,438.9844 364.5313,439.3906 Q364.0313,439.9688 363.2344,440.2969 Q362.1563,440.75 360.8594,440.75 Q359.3438,440.75 358.1406,440.125 Q357.1563,439.625 356.4688,438.5625 Q355.7813,437.4844 355.7813,436.2031 L355.7813,435.0469 Q355.7813,433.7188 356.3906,432.5781 Q357.0156,431.4219 358.1094,430.8125 Q359.2031,430.1875 360.4375,430.1875 Q361.1719,430.1875 361.8125,430.3594 Q362.4688,430.5156 363.0156,430.875 Z " fill="#000000"/><text fill="#000000" font-family="sans-serif" font-size="14" lengthAdjust="spacing" textLength="151" x="380.75" y="440.7969">IsCardPresentCmdBody</text><line style="stroke:#27AE60;stroke-width:2.0;" x1="305" x2="575" y1="451" y2="451"/><text fill="#000000" font-family="sans-serif" font-size="14" font-weight="bold" lengthAdjust="spacing" textLength="53" x="310" y="470.1074">service</text><text fill="#000000" font-family="sans-serif" font-size="14" lengthAdjust="spacing" textLength="66" x="367" y="470.1074">: String = "</text><text fill="#000000" font-family="sans-serif" font-size="14" font-weight="bold" lengthAdjust="spacing" textLength="132" x="433" y="470.1074">IS_CARD_PRESENT</text><text fill="#000000" font-family="sans-serif" font-size="14" lengthAdjust="spacing" textLength="5" x="565" y="470.1074">"</text><line style="stroke:#27AE60;stroke-width:2.0;" x1="305" x2="575" y1="477.6211" y2="477.6211"/></g><!--class TransmitCardSelectionRequestsCmdBody--><g id="elem_TransmitCardSelectionRequestsCmdBody"><rect codeLine="174" fill="#E9F7EF" height="85.2422" id="TransmitCardSelectionRequestsCmdBody" rx="2.5" ry="2.5" style="stroke:#27AE60;stroke-width:2.0;" width="427" x="611.5" y="410"/><ellipse cx="688.25" cy="426" fill="#ADD1B2" rx="11" ry="11" style="stroke:#181818;stroke-width:1.0;"/><path d="M691.0156,421.875 Q691.1719,421.6563 691.3594,421.5469 Q691.5469,421.4375 691.7656,421.4375 Q692.1406,421.4375 692.375,421.7031 Q692.6094,421.9531 692.6094,422.5625 L692.6094,424.0156 Q692.6094,424.625 692.375,424.8906 Q692.1406,425.1563 691.7656,425.1563 Q691.4219,425.1563 691.2188,424.9531 Q691.0156,424.7656 690.9063,424.25 Q690.8594,423.8906 690.6719,423.7031 Q690.3438,423.3281 689.7344,423.1094 Q689.125,422.8906 688.5,422.8906 Q687.7344,422.8906 687.0938,423.2188 Q686.4688,423.5469 685.9688,424.2969 Q685.4844,425.0469 685.4844,426.0781 L685.4844,427.1719 Q685.4844,428.4063 686.375,429.2344 Q687.2656,430.0469 688.8594,430.0469 Q689.7969,430.0469 690.4531,429.7969 Q690.8438,429.6406 691.2656,429.2031 Q691.5313,428.9375 691.6719,428.8594 Q691.8281,428.7813 692.0313,428.7813 Q692.3594,428.7813 692.6094,429.0469 Q692.875,429.2969 692.875,429.6406 Q692.875,429.9844 692.5313,430.3906 Q692.0313,430.9688 691.2344,431.2969 Q690.1563,431.75 688.8594,431.75 Q687.3438,431.75 686.1406,431.125 Q685.1563,430.625 684.4688,429.5625 Q683.7813,428.4844 683.7813,427.2031 L683.7813,426.0469 Q683.7813,424.7188 684.3906,423.5781 Q685.0156,422.4219 686.1094,421.8125 Q687.2031,421.1875 688.4375,421.1875 Q689.1719,421.1875 689.8125,421.3594 Q690.4688,421.5156 691.0156,421.875 Z " fill="#000000"/><text fill="#000000" font-family="sans-serif" font-size="14" lengthAdjust="spacing" textLength="265" x="708.75" y="431.7969">TransmitCardSelectionRequestsCmdBody</text><line style="stroke:#27AE60;stroke-width:2.0;" x1="612.5" x2="1037.5" y1="442" y2="442"/><text fill="#000000" font-family="sans-serif" font-size="14" font-weight="bold" lengthAdjust="spacing" textLength="53" x="617.5" y="461.1074">service</text><text fill="#000000" font-family="sans-serif" font-size="14" lengthAdjust="spacing" textLength="66" x="674.5" y="461.1074">: String = "</text><text fill="#000000" font-family="sans-serif" font-size="14" font-weight="bold" lengthAdjust="spacing" textLength="287" x="740.5" y="461.1074">TRANSMIT_CARD_SELECTION_REQUESTS</text><text fill="#000000" font-family="sans-serif" font-size="14" lengthAdjust="spacing" textLength="5" x="1027.5" y="461.1074">"</text><text fill="#000000" font-family="sans-serif" font-size="14" font-weight="bold" lengthAdjust="spacing" textLength="80" x="617.5" y="479.7285">parameters</text><text fill="#000000" font-family="sans-serif" font-size="14" lengthAdjust="spacing" textLength="314" x="701.5" y="479.7285">: TransmitCardSelectionRequestsCmdParameters</text><line style="stroke:#27AE60;stroke-width:2.0;" x1="612.5" x2="1037.5" y1="487.2422" y2="487.2422"/></g><!--class TransmitCardSelectionRequestsCmdParameters--><g id="elem_TransmitCardSelectionRequestsCmdParameters"><rect codeLine="175" fill="#E9F7EF" height="103.8633" id="TransmitCardSelectionRequestsCmdParameters" rx="2.5" ry="2.5" style="stroke:#27AE60;stroke-width:2.0;" width="360" x="696" y="556"/><ellipse cx="720.9" cy="572" fill="#ADD1B2" rx="11" ry="11" style="stroke:#181818;stroke-width:1.0;"/><path d="M723.6656,567.875 Q723.8219,567.6563 724.0094,567.5469 Q724.1969,567.4375 724.4156,567.4375 Q724.7906,567.4375 725.025,567.7031 Q725.2594,567.9531 725.2594,568.5625 L725.2594,570.0156 Q725.2594,570.625 725.025,570.8906 Q724.7906,571.1563 724.4156,571.1563 Q724.0719,571.1563 723.8688,570.9531 Q723.6656,570.7656 723.5563,570.25 Q723.5094,569.8906 723.3219,569.7031 Q722.9938,569.3281 722.3844,569.1094 Q721.775,568.8906 721.15,568.8906 Q720.3844,568.8906 719.7438,569.2188 Q719.1188,569.5469 718.6188,570.2969 Q718.1344,571.0469 718.1344,572.0781 L718.1344,573.1719 Q718.1344,574.4063 719.025,575.2344 Q719.9156,576.0469 721.5094,576.0469 Q722.4469,576.0469 723.1031,575.7969 Q723.4938,575.6406 723.9156,575.2031 Q724.1813,574.9375 724.3219,574.8594 Q724.4781,574.7813 724.6813,574.7813 Q725.0094,574.7813 725.2594,575.0469 Q725.525,575.2969 725.525,575.6406 Q725.525,575.9844 725.1813,576.3906 Q724.6813,576.9688 723.8844,577.2969 Q722.8063,577.75 721.5094,577.75 Q719.9938,577.75 718.7906,577.125 Q717.8063,576.625 717.1188,575.5625 Q716.4313,574.4844 716.4313,573.2031 L716.4313,572.0469 Q716.4313,570.7188 717.0406,569.5781 Q717.6656,568.4219 718.7594,567.8125 Q719.8531,567.1875 721.0875,567.1875 Q721.8219,567.1875 722.4625,567.3594 Q723.1188,567.5156 723.6656,567.875 Z " fill="#000000"/><text fill="#000000" font-family="sans-serif" font-size="14" lengthAdjust="spacing" textLength="306" x="737.1" y="577.7969">TransmitCardSelectionRequestsCmdParameters</text><line style="stroke:#27AE60;stroke-width:2.0;" x1="697" x2="1055" y1="588" y2="588"/><text fill="#000000" font-family="sans-serif" font-size="14" font-weight="bold" lengthAdjust="spacing" textLength="164" x="702" y="607.1074">cardSelectionRequests</text><text fill="#000000" font-family="sans-serif" font-size="14" lengthAdjust="spacing" textLength="150" x="870" y="607.1074">: CardSelectionRequest</text><text fill="#000000" font-family="sans-serif" font-size="14" font-weight="bold" lengthAdjust="spacing" textLength="179" x="702" y="625.7285">multiSelectionProcessing</text><text fill="#000000" font-family="sans-serif" font-size="14" lengthAdjust="spacing" textLength="165" x="885" y="625.7285">: MultiSelectionProcessing</text><text fill="#000000" font-family="sans-serif" font-size="14" font-weight="bold" lengthAdjust="spacing" textLength="108" x="702" y="644.3496">channelControl</text><text fill="#000000" font-family="sans-serif" font-size="14" lengthAdjust="spacing" textLength="107" x="814" y="644.3496">: ChannelControl</text><line style="stroke:#27AE60;stroke-width:2.0;" x1="697" x2="1055" y1="651.8633" y2="651.8633"/></g><!--class MultiSelectionProcessing--><g id="elem_MultiSelectionProcessing"><rect codeLine="90" fill="#FEFECE" height="85.2422" id="MultiSelectionProcessing" rx="2.5" ry="2.5" style="stroke:#D4AC0D;stroke-width:2.0;" width="189" x="578.5" y="721"/><ellipse cx="593.5" cy="737" fill="#EB937F" rx="11" ry="11" style="stroke:#181818;stroke-width:1.0;"/><path d="M592.3594,737.7969 L592.3594,740.2969 L596.6875,740.2969 L596.6875,739.375 Q596.6875,738.7656 596.9219,738.5 Q597.1719,738.2344 597.5469,738.2344 Q597.9219,738.2344 598.1563,738.5 Q598.3906,738.7656 598.3906,739.375 L598.3906,742 L590.3906,742 Q589.7656,742 589.5,741.7656 Q589.25,741.5313 589.25,741.1406 Q589.25,740.7656 589.5156,740.5313 Q589.7813,740.2969 590.3906,740.2969 L590.6563,740.2969 L590.6563,733.6406 L590.3906,733.6406 Q589.7656,733.6406 589.5,733.4063 Q589.25,733.1719 589.25,732.7813 Q589.25,732.4063 589.5,732.1719 Q589.7656,731.9375 590.3906,731.9375 L598.0156,731.9375 L598.0156,734.5313 Q598.0156,735.1406 597.7813,735.4063 Q597.5625,735.6563 597.1719,735.6563 Q596.7969,735.6563 596.5625,735.4063 Q596.3281,735.1406 596.3281,734.5313 L596.3281,733.6406 L592.3594,733.6406 L592.3594,736.0938 L593.8438,736.0938 Q593.8438,735.4375 593.9688,735.25 Q594.2344,734.8438 594.7031,734.8438 Q595.0781,734.8438 595.3125,735.1094 Q595.5469,735.3594 595.5469,735.9688 L595.5469,737.9375 Q595.5469,738.4844 595.4219,738.6719 Q595.1563,739.0625 594.7031,739.0625 Q594.2344,739.0625 593.9688,738.6563 Q593.8438,738.4688 593.8438,737.7969 L592.3594,737.7969 Z " fill="#000000"/><text fill="#000000" font-family="sans-serif" font-size="14" lengthAdjust="spacing" textLength="157" x="607.5" y="742.7969">MultiSelectionProcessing</text><line style="stroke:#D4AC0D;stroke-width:2.0;" x1="579.5" x2="766.5" y1="753" y2="753"/><text fill="#000000" font-family="sans-serif" font-size="14" lengthAdjust="spacing" textLength="96" x="584.5" y="772.1074">FIRST_MATCH</text><text fill="#000000" font-family="sans-serif" font-size="14" lengthAdjust="spacing" textLength="100" x="584.5" y="790.7285">PROCESS_ALL</text><line style="stroke:#D4AC0D;stroke-width:2.0;" x1="579.5" x2="766.5" y1="798.2422" y2="798.2422"/></g><!--class CardSelectionRequest--><g id="elem_CardSelectionRequest"><rect codeLine="176" fill="#E9F7EF" height="85.2422" id="CardSelectionRequest" rx="2.5" ry="2.5" style="stroke:#27AE60;stroke-width:2.0;" width="206" x="803" y="721"/><ellipse cx="832.4" cy="737" fill="#ADD1B2" rx="11" ry="11" style="stroke:#181818;stroke-width:1.0;"/><path d="M835.1656,732.875 Q835.3219,732.6563 835.5094,732.5469 Q835.6969,732.4375 835.9156,732.4375 Q836.2906,732.4375 836.525,732.7031 Q836.7594,732.9531 836.7594,733.5625 L836.7594,735.0156 Q836.7594,735.625 836.525,735.8906 Q836.2906,736.1563 835.9156,736.1563 Q835.5719,736.1563 835.3688,735.9531 Q835.1656,735.7656 835.0563,735.25 Q835.0094,734.8906 834.8219,734.7031 Q834.4938,734.3281 833.8844,734.1094 Q833.275,733.8906 832.65,733.8906 Q831.8844,733.8906 831.2438,734.2188 Q830.6188,734.5469 830.1188,735.2969 Q829.6344,736.0469 829.6344,737.0781 L829.6344,738.1719 Q829.6344,739.4063 830.525,740.2344 Q831.4156,741.0469 833.0094,741.0469 Q833.9469,741.0469 834.6031,740.7969 Q834.9938,740.6406 835.4156,740.2031 Q835.6813,739.9375 835.8219,739.8594 Q835.9781,739.7813 836.1813,739.7813 Q836.5094,739.7813 836.7594,740.0469 Q837.025,740.2969 837.025,740.6406 Q837.025,740.9844 836.6813,741.3906 Q836.1813,741.9688 835.3844,742.2969 Q834.3063,742.75 833.0094,742.75 Q831.4938,742.75 830.2906,742.125 Q829.3063,741.625 828.6188,740.5625 Q827.9313,739.4844 827.9313,738.2031 L827.9313,737.0469 Q827.9313,735.7188 828.5406,734.5781 Q829.1656,733.4219 830.2594,732.8125 Q831.3531,732.1875 832.5875,732.1875 Q833.3219,732.1875 833.9625,732.3594 Q834.6188,732.5156 835.1656,732.875 Z " fill="#000000"/><text fill="#000000" font-family="sans-serif" font-size="14" lengthAdjust="spacing" textLength="142" x="849.6" y="742.7969">CardSelectionRequest</text><line style="stroke:#27AE60;stroke-width:2.0;" x1="804" x2="1008" y1="753" y2="753"/><text fill="#000000" font-family="sans-serif" font-size="14" font-weight="bold" lengthAdjust="spacing" textLength="90" x="809" y="772.1074">cardSelector</text><text fill="#000000" font-family="sans-serif" font-size="14" lengthAdjust="spacing" textLength="91" x="903" y="772.1074">: CardSelector</text><text fill="#000000" font-family="sans-serif" font-size="14" font-weight="bold" lengthAdjust="spacing" textLength="90" x="809" y="790.7285">cardRequest</text><text fill="#000000" font-family="sans-serif" font-size="14" lengthAdjust="spacing" textLength="100" x="903" y="790.7285">: CardRequest?</text><line style="stroke:#27AE60;stroke-width:2.0;" x1="804" x2="1008" y1="798.2422" y2="798.2422"/></g><!--class CardSelector--><g id="elem_CardSelector"><rect codeLine="177" fill="#E9F7EF" height="159.7266" id="CardSelector" rx="2.5" ry="2.5" style="stroke:#27AE60;stroke-width:2.0;" width="317" x="733.5" y="867"/><ellipse cx="846.25" cy="883" fill="#ADD1B2" rx="11" ry="11" style="stroke:#181818;stroke-width:1.0;"/><path d="M849.0156,878.875 Q849.1719,878.6563 849.3594,878.5469 Q849.5469,878.4375 849.7656,878.4375 Q850.1406,878.4375 850.375,878.7031 Q850.6094,878.9531 850.6094,879.5625 L850.6094,881.0156 Q850.6094,881.625 850.375,881.8906 Q850.1406,882.1563 849.7656,882.1563 Q849.4219,882.1563 849.2188,881.9531 Q849.0156,881.7656 848.9063,881.25 Q848.8594,880.8906 848.6719,880.7031 Q848.3438,880.3281 847.7344,880.1094 Q847.125,879.8906 846.5,879.8906 Q845.7344,879.8906 845.0938,880.2188 Q844.4688,880.5469 843.9688,881.2969 Q843.4844,882.0469 843.4844,883.0781 L843.4844,884.1719 Q843.4844,885.4063 844.375,886.2344 Q845.2656,887.0469 846.8594,887.0469 Q847.7969,887.0469 848.4531,886.7969 Q848.8438,886.6406 849.2656,886.2031 Q849.5313,885.9375 849.6719,885.8594 Q849.8281,885.7813 850.0313,885.7813 Q850.3594,885.7813 850.6094,886.0469 Q850.875,886.2969 850.875,886.6406 Q850.875,886.9844 850.5313,887.3906 Q850.0313,887.9688 849.2344,888.2969 Q848.1563,888.75 846.8594,888.75 Q845.3438,888.75 844.1406,888.125 Q843.1563,887.625 842.4688,886.5625 Q841.7813,885.4844 841.7813,884.2031 L841.7813,883.0469 Q841.7813,881.7188 842.3906,880.5781 Q843.0156,879.4219 844.1094,878.8125 Q845.2031,878.1875 846.4375,878.1875 Q847.1719,878.1875 847.8125,878.3594 Q848.4688,878.5156 849.0156,878.875 Z " fill="#000000"/><text fill="#000000" font-family="sans-serif" font-size="14" lengthAdjust="spacing" textLength="83" x="866.75" y="888.7969">CardSelector</text><line style="stroke:#27AE60;stroke-width:2.0;" x1="734.5" x2="1049.5" y1="899" y2="899"/><text fill="#000000" font-family="sans-serif" font-size="14" font-weight="bold" lengthAdjust="spacing" textLength="90" x="739.5" y="918.1074">cardProtocol</text><text fill="#000000" font-family="sans-serif" font-size="14" lengthAdjust="spacing" textLength="53" x="833.5" y="918.1074">: String?</text><text fill="#000000" font-family="sans-serif" font-size="14" font-weight="bold" lengthAdjust="spacing" textLength="140" x="739.5" y="936.7285">powerOnDataRegex</text><text fill="#000000" font-family="sans-serif" font-size="14" lengthAdjust="spacing" textLength="53" x="883.5" y="936.7285">: String?</text><text fill="#000000" font-family="sans-serif" font-size="14" font-weight="bold" lengthAdjust="spacing" textLength="21" x="739.5" y="955.3496">aid</text><text fill="#000000" font-family="sans-serif" font-size="14" lengthAdjust="spacing" textLength="53" x="764.5" y="955.3496">: String?</text><text fill="#000000" font-family="sans-serif" font-size="14" font-weight="bold" lengthAdjust="spacing" textLength="231" x="739.5" y="973.9707">successfulSelectionStatusWords</text><text fill="#000000" font-family="sans-serif" font-size="14" lengthAdjust="spacing" textLength="53" x="974.5" y="973.9707">: String[]</text><text fill="#000000" font-family="sans-serif" font-size="14" font-weight="bold" lengthAdjust="spacing" textLength="105" x="739.5" y="992.5918">fileOccurrence</text><text fill="#000000" font-family="sans-serif" font-size="14" lengthAdjust="spacing" textLength="105" x="848.5" y="992.5918">: FileOccurrence</text><text fill="#000000" font-family="sans-serif" font-size="14" font-weight="bold" lengthAdjust="spacing" textLength="154" x="739.5" y="1011.2129">fileControlInformation</text><text fill="#000000" font-family="sans-serif" font-size="14" lengthAdjust="spacing" textLength="147" x="897.5" y="1011.2129">: FileControlInformation</text><line style="stroke:#27AE60;stroke-width:2.0;" x1="734.5" x2="1049.5" y1="1018.7266" y2="1018.7266"/></g><!--class FileOccurrence--><g id="elem_FileOccurrence"><rect codeLine="106" fill="#FEFECE" height="122.4844" id="FileOccurrence" rx="2.5" ry="2.5" style="stroke:#D4AC0D;stroke-width:2.0;" width="129" x="696.5" y="1088"/><ellipse cx="711.5" cy="1104" fill="#EB937F" rx="11" ry="11" style="stroke:#181818;stroke-width:1.0;"/><path d="M710.3594,1104.7969 L710.3594,1107.2969 L714.6875,1107.2969 L714.6875,1106.375 Q714.6875,1105.7656 714.9219,1105.5 Q715.1719,1105.2344 715.5469,1105.2344 Q715.9219,1105.2344 716.1563,1105.5 Q716.3906,1105.7656 716.3906,1106.375 L716.3906,1109 L708.3906,1109 Q707.7656,1109 707.5,1108.7656 Q707.25,1108.5313 707.25,1108.1406 Q707.25,1107.7656 707.5156,1107.5313 Q707.7813,1107.2969 708.3906,1107.2969 L708.6563,1107.2969 L708.6563,1100.6406 L708.3906,1100.6406 Q707.7656,1100.6406 707.5,1100.4063 Q707.25,1100.1719 707.25,1099.7813 Q707.25,1099.4063 707.5,1099.1719 Q707.7656,1098.9375 708.3906,1098.9375 L716.0156,1098.9375 L716.0156,1101.5313 Q716.0156,1102.1406 715.7813,1102.4063 Q715.5625,1102.6563 715.1719,1102.6563 Q714.7969,1102.6563 714.5625,1102.4063 Q714.3281,1102.1406 714.3281,1101.5313 L714.3281,1100.6406 L710.3594,1100.6406 L710.3594,1103.0938 L711.8438,1103.0938 Q711.8438,1102.4375 711.9688,1102.25 Q712.2344,1101.8438 712.7031,1101.8438 Q713.0781,1101.8438 713.3125,1102.1094 Q713.5469,1102.3594 713.5469,1102.9688 L713.5469,1104.9375 Q713.5469,1105.4844 713.4219,1105.6719 Q713.1563,1106.0625 712.7031,1106.0625 Q712.2344,1106.0625 711.9688,1105.6563 Q711.8438,1105.4688 711.8438,1104.7969 L710.3594,1104.7969 Z " fill="#000000"/><text fill="#000000" font-family="sans-serif" font-size="14" lengthAdjust="spacing" textLength="97" x="725.5" y="1109.7969">FileOccurrence</text><line style="stroke:#D4AC0D;stroke-width:2.0;" x1="697.5" x2="824.5" y1="1120" y2="1120"/><text fill="#000000" font-family="sans-serif" font-size="14" lengthAdjust="spacing" textLength="40" x="702.5" y="1139.1074">FIRST</text><text fill="#000000" font-family="sans-serif" font-size="14" lengthAdjust="spacing" textLength="35" x="702.5" y="1157.7285">LAST</text><text fill="#000000" font-family="sans-serif" font-size="14" lengthAdjust="spacing" textLength="35" x="702.5" y="1176.3496">NEXT</text><text fill="#000000" font-family="sans-serif" font-size="14" lengthAdjust="spacing" textLength="69" x="702.5" y="1194.9707">PREVIOUS</text><line style="stroke:#D4AC0D;stroke-width:2.0;" x1="697.5" x2="824.5" y1="1202.4844" y2="1202.4844"/></g><!--class FileControlInformation--><g id="elem_FileControlInformation"><rect codeLine="112" fill="#FEFECE" height="122.4844" id="FileControlInformation" rx="2.5" ry="2.5" style="stroke:#D4AC0D;stroke-width:2.0;" width="171" x="860.5" y="1088"/><ellipse cx="875.5" cy="1104" fill="#EB937F" rx="11" ry="11" style="stroke:#181818;stroke-width:1.0;"/><path d="M874.3594,1104.7969 L874.3594,1107.2969 L878.6875,1107.2969 L878.6875,1106.375 Q878.6875,1105.7656 878.9219,1105.5 Q879.1719,1105.2344 879.5469,1105.2344 Q879.9219,1105.2344 880.1563,1105.5 Q880.3906,1105.7656 880.3906,1106.375 L880.3906,1109 L872.3906,1109 Q871.7656,1109 871.5,1108.7656 Q871.25,1108.5313 871.25,1108.1406 Q871.25,1107.7656 871.5156,1107.5313 Q871.7813,1107.2969 872.3906,1107.2969 L872.6563,1107.2969 L872.6563,1100.6406 L872.3906,1100.6406 Q871.7656,1100.6406 871.5,1100.4063 Q871.25,1100.1719 871.25,1099.7813 Q871.25,1099.4063 871.5,1099.1719 Q871.7656,1098.9375 872.3906,1098.9375 L880.0156,1098.9375 L880.0156,1101.5313 Q880.0156,1102.1406 879.7813,1102.4063 Q879.5625,1102.6563 879.1719,1102.6563 Q878.7969,1102.6563 878.5625,1102.4063 Q878.3281,1102.1406 878.3281,1101.5313 L878.3281,1100.6406 L874.3594,1100.6406 L874.3594,1103.0938 L875.8438,1103.0938 Q875.8438,1102.4375 875.9688,1102.25 Q876.2344,1101.8438 876.7031,1101.8438 Q877.0781,1101.8438 877.3125,1102.1094 Q877.5469,1102.3594 877.5469,1102.9688 L877.5469,1104.9375 Q877.5469,1105.4844 877.4219,1105.6719 Q877.1563,1106.0625 876.7031,1106.0625 Q876.2344,1106.0625 875.9688,1105.6563 Q875.8438,1105.4688 875.8438,1104.7969 L874.3594,1104.7969 Z " fill="#000000"/><text fill="#000000" font-family="sans-serif" font-size="14" lengthAdjust="spacing" textLength="139" x="889.5" y="1109.7969">FileControlInformation</text><line style="stroke:#D4AC0D;stroke-width:2.0;" x1="861.5" x2="1030.5" y1="1120" y2="1120"/><text fill="#000000" font-family="sans-serif" font-size="14" lengthAdjust="spacing" textLength="22" x="866.5" y="1139.1074">FCI</text><text fill="#000000" font-family="sans-serif" font-size="14" lengthAdjust="spacing" textLength="28" x="866.5" y="1157.7285">FCP</text><text fill="#000000" font-family="sans-serif" font-size="14" lengthAdjust="spacing" textLength="30" x="866.5" y="1176.3496">FMD</text><text fill="#000000" font-family="sans-serif" font-size="14" lengthAdjust="spacing" textLength="103" x="866.5" y="1194.9707">NO_RESPONSE</text><line style="stroke:#D4AC0D;stroke-width:2.0;" x1="861.5" x2="1030.5" y1="1202.4844" y2="1202.4844"/></g><!--class CardRequest--><g id="elem_CardRequest"><rect codeLine="178" fill="#E9F7EF" height="85.2422" id="CardRequest" rx="2.5" ry="2.5" style="stroke:#27AE60;stroke-width:2.0;" width="303" x="1085.5" y="904.5"/><ellipse cx="1190.75" cy="920.5" fill="#ADD1B2" rx="11" ry="11" style="stroke:#181818;stroke-width:1.0;"/><path d="M1193.5156,916.375 Q1193.6719,916.1563 1193.8594,916.0469 Q1194.0469,915.9375 1194.2656,915.9375 Q1194.6406,915.9375 1194.875,916.2031 Q1195.1094,916.4531 1195.1094,917.0625 L1195.1094,918.5156 Q1195.1094,919.125 1194.875,919.3906 Q1194.6406,919.6563 1194.2656,919.6563 Q1193.9219,919.6563 1193.7188,919.4531 Q1193.5156,919.2656 1193.4063,918.75 Q1193.3594,918.3906 1193.1719,918.2031 Q1192.8438,917.8281 1192.2344,917.6094 Q1191.625,917.3906 1191,917.3906 Q1190.2344,917.3906 1189.5938,917.7188 Q1188.9688,918.0469 1188.4688,918.7969 Q1187.9844,919.5469 1187.9844,920.5781 L1187.9844,921.6719 Q1187.9844,922.9063 1188.875,923.7344 Q1189.7656,924.5469 1191.3594,924.5469 Q1192.2969,924.5469 1192.9531,924.2969 Q1193.3438,924.1406 1193.7656,923.7031 Q1194.0313,923.4375 1194.1719,923.3594 Q1194.3281,923.2813 1194.5313,923.2813 Q1194.8594,923.2813 1195.1094,923.5469 Q1195.375,923.7969 1195.375,924.1406 Q1195.375,924.4844 1195.0313,924.8906 Q1194.5313,925.4688 1193.7344,925.7969 Q1192.6563,926.25 1191.3594,926.25 Q1189.8438,926.25 1188.6406,925.625 Q1187.6563,925.125 1186.9688,924.0625 Q1186.2813,922.9844 1186.2813,921.7031 L1186.2813,920.5469 Q1186.2813,919.2188 1186.8906,918.0781 Q1187.5156,916.9219 1188.6094,916.3125 Q1189.7031,915.6875 1190.9375,915.6875 Q1191.6719,915.6875 1192.3125,915.8594 Q1192.9688,916.0156 1193.5156,916.375 Z " fill="#000000"/><text fill="#000000" font-family="sans-serif" font-size="14" lengthAdjust="spacing" textLength="84" x="1211.25" y="926.2969">CardRequest</text><line style="stroke:#27AE60;stroke-width:2.0;" x1="1086.5" x2="1387.5" y1="936.5" y2="936.5"/><text fill="#000000" font-family="sans-serif" font-size="14" font-weight="bold" lengthAdjust="spacing" textLength="102" x="1091.5" y="955.6074">apduRequests</text><text fill="#000000" font-family="sans-serif" font-size="14" lengthAdjust="spacing" textLength="102" x="1197.5" y="955.6074">: ApduRequest[]</text><text fill="#000000" font-family="sans-serif" font-size="14" font-weight="bold" lengthAdjust="spacing" textLength="227" x="1091.5" y="974.2285">stopOnUnsuccessfulStatusWord</text><text fill="#000000" font-family="sans-serif" font-size="14" lengthAdjust="spacing" textLength="60" x="1322.5" y="974.2285">: Boolean</text><line style="stroke:#27AE60;stroke-width:2.0;" x1="1086.5" x2="1387.5" y1="981.7422" y2="981.7422"/></g><!--class ApduRequest--><g id="elem_ApduRequest"><rect codeLine="179" fill="#E9F7EF" height="103.8633" id="ApduRequest" rx="2.5" ry="2.5" style="stroke:#27AE60;stroke-width:2.0;" width="234" x="1120" y="1097"/><ellipse cx="1189.75" cy="1113" fill="#ADD1B2" rx="11" ry="11" style="stroke:#181818;stroke-width:1.0;"/><path d="M1192.5156,1108.875 Q1192.6719,1108.6563 1192.8594,1108.5469 Q1193.0469,1108.4375 1193.2656,1108.4375 Q1193.6406,1108.4375 1193.875,1108.7031 Q1194.1094,1108.9531 1194.1094,1109.5625 L1194.1094,1111.0156 Q1194.1094,1111.625 1193.875,1111.8906 Q1193.6406,1112.1563 1193.2656,1112.1563 Q1192.9219,1112.1563 1192.7188,1111.9531 Q1192.5156,1111.7656 1192.4063,1111.25 Q1192.3594,1110.8906 1192.1719,1110.7031 Q1191.8438,1110.3281 1191.2344,1110.1094 Q1190.625,1109.8906 1190,1109.8906 Q1189.2344,1109.8906 1188.5938,1110.2188 Q1187.9688,1110.5469 1187.4688,1111.2969 Q1186.9844,1112.0469 1186.9844,1113.0781 L1186.9844,1114.1719 Q1186.9844,1115.4063 1187.875,1116.2344 Q1188.7656,1117.0469 1190.3594,1117.0469 Q1191.2969,1117.0469 1191.9531,1116.7969 Q1192.3438,1116.6406 1192.7656,1116.2031 Q1193.0313,1115.9375 1193.1719,1115.8594 Q1193.3281,1115.7813 1193.5313,1115.7813 Q1193.8594,1115.7813 1194.1094,1116.0469 Q1194.375,1116.2969 1194.375,1116.6406 Q1194.375,1116.9844 1194.0313,1117.3906 Q1193.5313,1117.9688 1192.7344,1118.2969 Q1191.6563,1118.75 1190.3594,1118.75 Q1188.8438,1118.75 1187.6406,1118.125 Q1186.6563,1117.625 1185.9688,1116.5625 Q1185.2813,1115.4844 1185.2813,1114.2031 L1185.2813,1113.0469 Q1185.2813,1111.7188 1185.8906,1110.5781 Q1186.5156,1109.4219 1187.6094,1108.8125 Q1188.7031,1108.1875 1189.9375,1108.1875 Q1190.6719,1108.1875 1191.3125,1108.3594 Q1191.9688,1108.5156 1192.5156,1108.875 Z " fill="#000000"/><text fill="#000000" font-family="sans-serif" font-size="14" lengthAdjust="spacing" textLength="86" x="1210.25" y="1118.7969">ApduRequest</text><line style="stroke:#27AE60;stroke-width:2.0;" x1="1121" x2="1353" y1="1129" y2="1129"/><text fill="#000000" font-family="sans-serif" font-size="14" font-weight="bold" lengthAdjust="spacing" textLength="35" x="1126" y="1148.1074">apdu</text><text fill="#000000" font-family="sans-serif" font-size="14" lengthAdjust="spacing" textLength="45" x="1165" y="1148.1074">: String</text><text fill="#000000" font-family="sans-serif" font-size="14" font-weight="bold" lengthAdjust="spacing" textLength="165" x="1126" y="1166.7285">successfulStatusWords</text><text fill="#000000" font-family="sans-serif" font-size="14" lengthAdjust="spacing" textLength="53" x="1295" y="1166.7285">: String[]</text><text fill="#000000" font-family="sans-serif" font-size="14" font-weight="bold" lengthAdjust="spacing" textLength="27" x="1126" y="1185.3496">info</text><text fill="#000000" font-family="sans-serif" font-size="14" lengthAdjust="spacing" textLength="53" x="1157" y="1185.3496">: String?</text><line style="stroke:#27AE60;stroke-width:2.0;" x1="1121" x2="1353" y1="1192.8633" y2="1192.8633"/></g><!--class ChannelControl--><g id="elem_ChannelControl"><rect codeLine="127" fill="#FEFECE" height="85.2422" id="ChannelControl" rx="2.5" ry="2.5" style="stroke:#D4AC0D;stroke-width:2.0;" width="131" x="1049.5" y="721"/><ellipse cx="1064.5" cy="737" fill="#EB937F" rx="11" ry="11" style="stroke:#181818;stroke-width:1.0;"/><path d="M1063.3594,737.7969 L1063.3594,740.2969 L1067.6875,740.2969 L1067.6875,739.375 Q1067.6875,738.7656 1067.9219,738.5 Q1068.1719,738.2344 1068.5469,738.2344 Q1068.9219,738.2344 1069.1563,738.5 Q1069.3906,738.7656 1069.3906,739.375 L1069.3906,742 L1061.3906,742 Q1060.7656,742 1060.5,741.7656 Q1060.25,741.5313 1060.25,741.1406 Q1060.25,740.7656 1060.5156,740.5313 Q1060.7813,740.2969 1061.3906,740.2969 L1061.6563,740.2969 L1061.6563,733.6406 L1061.3906,733.6406 Q1060.7656,733.6406 1060.5,733.4063 Q1060.25,733.1719 1060.25,732.7813 Q1060.25,732.4063 1060.5,732.1719 Q1060.7656,731.9375 1061.3906,731.9375 L1069.0156,731.9375 L1069.0156,734.5313 Q1069.0156,735.1406 1068.7813,735.4063 Q1068.5625,735.6563 1068.1719,735.6563 Q1067.7969,735.6563 1067.5625,735.4063 Q1067.3281,735.1406 1067.3281,734.5313 L1067.3281,733.6406 L1063.3594,733.6406 L1063.3594,736.0938 L1064.8438,736.0938 Q1064.8438,735.4375 1064.9688,735.25 Q1065.2344,734.8438 1065.7031,734.8438 Q1066.0781,734.8438 1066.3125,735.1094 Q1066.5469,735.3594 1066.5469,735.9688 L1066.5469,737.9375 Q1066.5469,738.4844 1066.4219,738.6719 Q1066.1563,739.0625 1065.7031,739.0625 Q1065.2344,739.0625 1064.9688,738.6563 Q1064.8438,738.4688 1064.8438,737.7969 L1063.3594,737.7969 Z " fill="#000000"/><text fill="#000000" font-family="sans-serif" font-size="14" lengthAdjust="spacing" textLength="99" x="1078.5" y="742.7969">ChannelControl</text><line style="stroke:#D4AC0D;stroke-width:2.0;" x1="1050.5" x2="1179.5" y1="753" y2="753"/><text fill="#000000" font-family="sans-serif" font-size="14" lengthAdjust="spacing" textLength="82" x="1055.5" y="772.1074">KEEP_OPEN</text><text fill="#000000" font-family="sans-serif" font-size="14" lengthAdjust="spacing" textLength="101" x="1055.5" y="790.7285">CLOSE_AFTER</text><line style="stroke:#D4AC0D;stroke-width:2.0;" x1="1050.5" x2="1179.5" y1="798.2422" y2="798.2422"/></g><!--class TransmitCardRequestCmdBody--><g id="elem_TransmitCardRequestCmdBody"><rect codeLine="182" fill="#E9F7EF" height="85.2422" id="TransmitCardRequestCmdBody" rx="2.5" ry="2.5" style="stroke:#27AE60;stroke-width:2.0;" width="345" x="1073.5" y="410"/><ellipse cx="1141.75" cy="426" fill="#ADD1B2" rx="11" ry="11" style="stroke:#181818;stroke-width:1.0;"/><path d="M1144.5156,421.875 Q1144.6719,421.6563 1144.8594,421.5469 Q1145.0469,421.4375 1145.2656,421.4375 Q1145.6406,421.4375 1145.875,421.7031 Q1146.1094,421.9531 1146.1094,422.5625 L1146.1094,424.0156 Q1146.1094,424.625 1145.875,424.8906 Q1145.6406,425.1563 1145.2656,425.1563 Q1144.9219,425.1563 1144.7188,424.9531 Q1144.5156,424.7656 1144.4063,424.25 Q1144.3594,423.8906 1144.1719,423.7031 Q1143.8438,423.3281 1143.2344,423.1094 Q1142.625,422.8906 1142,422.8906 Q1141.2344,422.8906 1140.5938,423.2188 Q1139.9688,423.5469 1139.4688,424.2969 Q1138.9844,425.0469 1138.9844,426.0781 L1138.9844,427.1719 Q1138.9844,428.4063 1139.875,429.2344 Q1140.7656,430.0469 1142.3594,430.0469 Q1143.2969,430.0469 1143.9531,429.7969 Q1144.3438,429.6406 1144.7656,429.2031 Q1145.0313,428.9375 1145.1719,428.8594 Q1145.3281,428.7813 1145.5313,428.7813 Q1145.8594,428.7813 1146.1094,429.0469 Q1146.375,429.2969 1146.375,429.6406 Q1146.375,429.9844 1146.0313,430.3906 Q1145.5313,430.9688 1144.7344,431.2969 Q1143.6563,431.75 1142.3594,431.75 Q1140.8438,431.75 1139.6406,431.125 Q1138.6563,430.625 1137.9688,429.5625 Q1137.2813,428.4844 1137.2813,427.2031 L1137.2813,426.0469 Q1137.2813,424.7188 1137.8906,423.5781 Q1138.5156,422.4219 1139.6094,421.8125 Q1140.7031,421.1875 1141.9375,421.1875 Q1142.6719,421.1875 1143.3125,421.3594 Q1143.9688,421.5156 1144.5156,421.875 Z " fill="#000000"/><text fill="#000000" font-family="sans-serif" font-size="14" lengthAdjust="spacing" textLength="200" x="1162.25" y="431.7969">TransmitCardRequestCmdBody</text><line style="stroke:#27AE60;stroke-width:2.0;" x1="1074.5" x2="1417.5" y1="442" y2="442"/><text fill="#000000" font-family="sans-serif" font-size="14" font-weight="bold" lengthAdjust="spacing" textLength="53" x="1079.5" y="461.1074">service</text><text fill="#000000" font-family="sans-serif" font-size="14" lengthAdjust="spacing" textLength="66" x="1136.5" y="461.1074">: String = "</text><text fill="#000000" font-family="sans-serif" font-size="14" font-weight="bold" lengthAdjust="spacing" textLength="192" x="1202.5" y="461.1074">TRANSMIT_CARD_REQUEST</text><text fill="#000000" font-family="sans-serif" font-size="14" lengthAdjust="spacing" textLength="5" x="1394.5" y="461.1074">"</text><text fill="#000000" font-family="sans-serif" font-size="14" font-weight="bold" lengthAdjust="spacing" textLength="80" x="1079.5" y="479.7285">parameters</text><text fill="#000000" font-family="sans-serif" font-size="14" lengthAdjust="spacing" textLength="249" x="1163.5" y="479.7285">: TransmitCardRequestCmdParameters</text><line style="stroke:#27AE60;stroke-width:2.0;" x1="1074.5" x2="1417.5" y1="487.2422" y2="487.2422"/></g><!--class TransmitCardRequestCmdParameters--><g id="elem_TransmitCardRequestCmdParameters"><rect codeLine="183" fill="#E9F7EF" height="85.2422" id="TransmitCardRequestCmdParameters" rx="2.5" ry="2.5" style="stroke:#27AE60;stroke-width:2.0;" width="273" x="1100.5" y="565.5"/><ellipse cx="1115.5" cy="581.5" fill="#ADD1B2" rx="11" ry="11" style="stroke:#181818;stroke-width:1.0;"/><path d="M1118.2656,577.375 Q1118.4219,577.1563 1118.6094,577.0469 Q1118.7969,576.9375 1119.0156,576.9375 Q1119.3906,576.9375 1119.625,577.2031 Q1119.8594,577.4531 1119.8594,578.0625 L1119.8594,579.5156 Q1119.8594,580.125 1119.625,580.3906 Q1119.3906,580.6563 1119.0156,580.6563 Q1118.6719,580.6563 1118.4688,580.4531 Q1118.2656,580.2656 1118.1563,579.75 Q1118.1094,579.3906 1117.9219,579.2031 Q1117.5938,578.8281 1116.9844,578.6094 Q1116.375,578.3906 1115.75,578.3906 Q1114.9844,578.3906 1114.3438,578.7188 Q1113.7188,579.0469 1113.2188,579.7969 Q1112.7344,580.5469 1112.7344,581.5781 L1112.7344,582.6719 Q1112.7344,583.9063 1113.625,584.7344 Q1114.5156,585.5469 1116.1094,585.5469 Q1117.0469,585.5469 1117.7031,585.2969 Q1118.0938,585.1406 1118.5156,584.7031 Q1118.7813,584.4375 1118.9219,584.3594 Q1119.0781,584.2813 1119.2813,584.2813 Q1119.6094,584.2813 1119.8594,584.5469 Q1120.125,584.7969 1120.125,585.1406 Q1120.125,585.4844 1119.7813,585.8906 Q1119.2813,586.4688 1118.4844,586.7969 Q1117.4063,587.25 1116.1094,587.25 Q1114.5938,587.25 1113.3906,586.625 Q1112.4063,586.125 1111.7188,585.0625 Q1111.0313,583.9844 1111.0313,582.7031 L1111.0313,581.5469 Q1111.0313,580.2188 1111.6406,579.0781 Q1112.2656,577.9219 1113.3594,577.3125 Q1114.4531,576.6875 1115.6875,576.6875 Q1116.4219,576.6875 1117.0625,576.8594 Q1117.7188,577.0156 1118.2656,577.375 Z " fill="#000000"/><text fill="#000000" font-family="sans-serif" font-size="14" lengthAdjust="spacing" textLength="241" x="1129.5" y="587.2969">TransmitCardRequestCmdParameters</text><line style="stroke:#27AE60;stroke-width:2.0;" x1="1101.5" x2="1372.5" y1="597.5" y2="597.5"/><text fill="#000000" font-family="sans-serif" font-size="14" font-weight="bold" lengthAdjust="spacing" textLength="108" x="1106.5" y="616.6074">channelControl</text><text fill="#000000" font-family="sans-serif" font-size="14" lengthAdjust="spacing" textLength="107" x="1218.5" y="616.6074">: ChannelControl</text><text fill="#000000" font-family="sans-serif" font-size="14" font-weight="bold" lengthAdjust="spacing" textLength="90" x="1106.5" y="635.2285">cardRequest</text><text fill="#000000" font-family="sans-serif" font-size="14" lengthAdjust="spacing" textLength="92" x="1200.5" y="635.2285">: CardRequest</text><line style="stroke:#27AE60;stroke-width:2.0;" x1="1101.5" x2="1372.5" y1="642.7422" y2="642.7422"/></g><!--reverse link CmdBody to IsContactlessCmdBody--><g id="link_CmdBody_IsContactlessCmdBody"><path d="M364.93,350.01 C315.65,372.05 256.41,398.55 210.81,418.94 " fill="none" id="CmdBody-backto-IsContactlessCmdBody" style="stroke:#181818;stroke-width:2.0;"/><polygon fill="none" points="362.17,343.58,383.28,341.81,367.88,356.36,362.17,343.58" style="stroke:#181818;stroke-width:2.0;"/></g><!--reverse link CmdBody to IsCardPresentCmdBody--><g id="link_CmdBody_IsCardPresentCmdBody"><path d="M451.43,369.22 C449.07,386.2 446.6,403.97 444.57,418.62 " fill="none" id="CmdBody-backto-IsCardPresentCmdBody" style="stroke:#181818;stroke-width:2.0;"/><polygon fill="none" points="444.53,368,454.22,349.15,458.4,369.92,444.53,368" style="stroke:#181818;stroke-width:2.0;"/></g><!--reverse link CmdBody to TransmitCardSelectionRequestsCmdBody--><g id="link_CmdBody_TransmitCardSelectionRequestsCmdBody"><path d="M555.22,345.07 C605.63,364.95 667.65,389.42 719.51,409.88 " fill="none" id="CmdBody-backto-TransmitCardSelectionRequestsCmdBody" style="stroke:#181818;stroke-width:2.0;"/><polygon fill="none" points="552.55,351.54,536.52,337.69,557.69,338.52,552.55,351.54" style="stroke:#181818;stroke-width:2.0;"/></g><!--reverse link CmdBody to TransmitCardRequestCmdBody--><g id="link_CmdBody_TransmitCardRequestCmdBody"><path d="M556.83,322.79 C674.95,341.75 880.59,375.78 1056,410 C1061.72,411.12 1067.53,412.27 1073.39,413.45 " fill="none" id="CmdBody-backto-TransmitCardRequestCmdBody" style="stroke:#181818;stroke-width:2.0;"/><polygon fill="none" points="555.52,329.67,536.88,319.59,557.73,315.84,555.52,329.67" style="stroke:#181818;stroke-width:2.0;"/></g><!--reverse link CmdData to CmdBody--><g id="link_CmdData_CmdBody"><path codeLine="144" d="M460,198.34 C460,221.54 460,244.94 460,263.92 " fill="none" id="CmdData-backto-CmdBody" style="stroke:#3498DB;stroke-width:2.0;"/><polygon fill="#3498DB" points="460,185.12,456,191.12,460,197.12,464,191.12,460,185.12" style="stroke:#3498DB;stroke-width:2.0;"/><text fill="#000000" font-family="sans-serif" font-size="13" lengthAdjust="spacing" textLength="61" x="461" y="230.0283">JsonString</text><text fill="#000000" font-family="sans-serif" font-size="13" lengthAdjust="spacing" textLength="7" x="452.4422" y="252.8113">1</text></g><!--reverse link TransmitCardSelectionRequestsCmdBody to TransmitCardSelectionRequestsCmdParameters--><g id="link_TransmitCardSelectionRequestsCmdBody_TransmitCardSelectionRequestsCmdParameters"><path codeLine="146" d="M843.04,507.78 C848.23,523.41 853.87,540.4 859,555.84 " fill="none" id="TransmitCardSelectionRequestsCmdBody-backto-TransmitCardSelectionRequestsCmdParameters" style="stroke:#3498DB;stroke-width:2.0;"/><polygon fill="#3498DB" points="838.8,495.04,836.8954,501.995,842.5829,506.4281,844.4875,499.4731,838.8,495.04" style="stroke:#3498DB;stroke-width:2.0;"/><text fill="#000000" font-family="sans-serif" font-size="13" lengthAdjust="spacing" textLength="7" x="849.2453" y="544.7459">1</text></g><!--reverse link TransmitCardSelectionRequestsCmdParameters to CardSelectionRequest--><g id="link_TransmitCardSelectionRequestsCmdParameters_CardSelectionRequest"><path codeLine="148" d="M888.58,673.35 C891.71,689.39 894.99,706.18 897.85,720.8 " fill="none" id="TransmitCardSelectionRequestsCmdParameters-backto-CardSelectionRequest" style="stroke:#3498DB;stroke-width:2.0;"/><polygon fill="#3498DB" points="885.99,660.11,883.2113,666.7643,888.285,671.8885,891.0637,665.2342,885.99,660.11" style="stroke:#3498DB;stroke-width:2.0;"/><text fill="#000000" font-family="sans-serif" font-size="13" lengthAdjust="spacing" textLength="7" x="888.9933" y="709.6722">1</text></g><!--reverse link TransmitCardSelectionRequestsCmdParameters to MultiSelectionProcessing--><g id="link_TransmitCardSelectionRequestsCmdParameters_MultiSelectionProcessing"><path codeLine="149" d="M797.86,668.09 C774.6,685.67 749.61,704.57 728.15,720.8 " fill="none" id="TransmitCardSelectionRequestsCmdParameters-backto-MultiSelectionProcessing" style="stroke:#3498DB;stroke-width:2.0;"/><polygon fill="#3498DB" points="808.4,660.11,801.2016,660.5385,798.8286,667.3479,806.0269,666.9194,808.4,660.11" style="stroke:#3498DB;stroke-width:2.0;"/><text fill="#000000" font-family="sans-serif" font-size="13" lengthAdjust="spacing" textLength="7" x="729.3817" y="709.6722">1</text></g><!--reverse link TransmitCardSelectionRequestsCmdParameters to ChannelControl--><g id="link_TransmitCardSelectionRequestsCmdParameters_ChannelControl"><path codeLine="150" d="M966.89,667.37 C994.59,685.16 1024.46,704.35 1050.07,720.8 " fill="none" id="TransmitCardSelectionRequestsCmdParameters-backto-ChannelControl" style="stroke:#3498DB;stroke-width:2.0;"/><polygon fill="#3498DB" points="955.58,660.11,958.4667,666.7181,965.6767,666.5951,962.7901,659.987,955.58,660.11" style="stroke:#3498DB;stroke-width:2.0;"/><text fill="#000000" font-family="sans-serif" font-size="13" lengthAdjust="spacing" textLength="7" x="1034.3024" y="711.2714">1</text></g><!--reverse link CardSelectionRequest to CardSelector--><g id="link_CardSelectionRequest_CardSelector"><path codeLine="152" d="M901.77,819.35 C900.62,834.26 899.35,850.72 898.12,866.7 " fill="none" id="CardSelectionRequest-backto-CardSelector" style="stroke:#3498DB;stroke-width:2.0;"/><polygon fill="#3498DB" points="902.79,806.14,898.3402,811.8144,901.8666,818.1044,906.3164,812.43,902.79,806.14" style="stroke:#3498DB;stroke-width:2.0;"/><text fill="#000000" font-family="sans-serif" font-size="13" lengthAdjust="spacing" textLength="7" x="891.3533" y="855.8447">1</text></g><!--reverse link CardSelectionRequest to CardRequest--><g id="link_CardSelectionRequest_CardRequest"><path codeLine="153" d="M993.53,812.49 C1045.67,841.08 1111.19,877.02 1161.13,904.4 " fill="none" id="CardSelectionRequest-backto-CardRequest" style="stroke:#3498DB;stroke-width:2.0;stroke-dasharray:7.0,7.0;"/><polygon fill="#3498DB" points="981.94,806.14,985.2813,812.5303,992.4652,811.9038,989.1238,805.5135,981.94,806.14" style="stroke:#3498DB;stroke-width:2.0;"/><text fill="#000000" font-family="sans-serif" font-size="13" lengthAdjust="spacing" textLength="22" x="1125.2851" y="893.2881">0..1</text></g><!--reverse link CardSelector to FileOccurrence--><g id="link_CardSelector_FileOccurrence"><path codeLine="155" d="M833.03,1038.03 C822.01,1054.86 810.74,1072.07 800.48,1087.73 " fill="none" id="CardSelector-backto-FileOccurrence" style="stroke:#3498DB;stroke-width:2.0;"/><polygon fill="#3498DB" points="840.23,1027.05,833.5975,1029.8802,833.6591,1037.0911,840.2916,1034.2608,840.23,1027.05" style="stroke:#3498DB;stroke-width:2.0;"/><text fill="#000000" font-family="sans-serif" font-size="13" lengthAdjust="spacing" textLength="7" x="797.6402" y="1076.68">1</text></g><!--reverse link CardSelector to FileControlInformation--><g id="link_CardSelector_FileControlInformation"><path codeLine="156" d="M916.83,1039.95 C921.21,1056.17 925.66,1072.66 929.73,1087.73 " fill="none" id="CardSelector-backto-FileControlInformation" style="stroke:#3498DB;stroke-width:2.0;"/><polygon fill="#3498DB" points="913.34,1027.05,911.0418,1033.8851,916.4673,1038.6353,918.7654,1031.8003,913.34,1027.05" style="stroke:#3498DB;stroke-width:2.0;"/><text fill="#000000" font-family="sans-serif" font-size="13" lengthAdjust="spacing" textLength="7" x="920.4441" y="1076.68">1</text></g><!--reverse link CardRequest to ApduRequest--><g id="link_CardRequest_ApduRequest"><path codeLine="158" d="M1237,1003.3 C1237,1032.57 1237,1068.28 1237,1096.9 " fill="none" id="CardRequest-backto-ApduRequest" style="stroke:#3498DB;stroke-width:2.0;"/><polygon fill="#3498DB" points="1237,989.93,1233,995.93,1237,1001.93,1241,995.93,1237,989.93" style="stroke:#3498DB;stroke-width:2.0;"/><text fill="#000000" font-family="sans-serif" font-size="13" lengthAdjust="spacing" textLength="24" x="1211.3875" y="1085.8139">1..N</text></g><!--reverse link TransmitCardRequestCmdBody to TransmitCardRequestCmdParameters--><g id="link_TransmitCardRequestCmdBody_TransmitCardRequestCmdParameters"><path codeLine="160" d="M1242.8,508.05 C1241.69,526.92 1240.47,547.76 1239.44,565.43 " fill="none" id="TransmitCardRequestCmdBody-backto-TransmitCardRequestCmdParameters" style="stroke:#3498DB;stroke-width:2.0;"/><polygon fill="#3498DB" points="1243.56,495.04,1239.2175,500.797,1242.8615,507.0197,1247.204,501.2627,1243.56,495.04" style="stroke:#3498DB;stroke-width:2.0;"/><text fill="#000000" font-family="sans-serif" font-size="13" lengthAdjust="spacing" textLength="7" x="1232.2711" y="554.3229">1</text></g><!--reverse link TransmitCardRequestCmdParameters to ChannelControl--><g id="link_TransmitCardRequestCmdParameters_ChannelControl"><path codeLine="162" d="M1195.81,660.83 C1180.25,680.4 1162.76,702.41 1148.04,720.93 " fill="none" id="TransmitCardRequestCmdParameters-backto-ChannelControl" style="stroke:#3498DB;stroke-width:2.0;"/><polygon fill="#3498DB" points="1203.99,650.54,1197.1267,652.7524,1196.5291,659.9387,1203.3924,657.7263,1203.99,650.54" style="stroke:#3498DB;stroke-width:2.0;"/><text fill="#000000" font-family="sans-serif" font-size="13" lengthAdjust="spacing" textLength="7" x="1145.7479" y="709.8229">1</text></g><!--reverse link TransmitCardRequestCmdParameters to CardRequest--><g id="link_TransmitCardRequestCmdParameters_CardRequest"><path codeLine="163" d="M1237,663.9 C1237,731.23 1237,843.86 1237,904.43 " fill="none" id="TransmitCardRequestCmdParameters-backto-CardRequest" style="stroke:#3498DB;stroke-width:2.0;"/><polygon fill="#3498DB" points="1237,650.66,1233,656.66,1237,662.66,1241,656.66,1237,650.66" style="stroke:#3498DB;stroke-width:2.0;"/><text fill="#000000" font-family="sans-serif" font-size="13" lengthAdjust="spacing" textLength="7" x="1229.4422" y="893.3229">1</text></g><!--SRC=[jLTRSviu57xthz2w3sazOoUndJh9z38OHElM0QyXkvlPsV5WK68QBBcIQEhPsV- -0WG6B5-Qxlh5SFITyvsRZiG93tc46YT0_3wZzIf2m0WPf-4yvYW0dnpR0jfab05yibn5eOSvU0hv0ZGVKuKsG_HRwAFs5- -Rrux2UHDyGvI518DkvxpJptJr6mEyx9vrU-spNhlRVTKuGJW06Rj0l7qBt8_m1ee7yQgJE48nPI1aB4OC10XSWmNdAtPzUhhWoyWd4Q4-2H3h2ATEx-afz-OHyk9sWDf-fgqGYKSMFk3sAlBuQUEN0Ds7605zzc4Axyw1UMbUcLSrSHUONRDdzclY7e0NS03hw3um1iRGC6hY2w1hkcbqQ-BNO6ZeFNrG4ez7rcVGwrzT6iEIzDQ1e3lGuEkp95VjDd3uEX9vuGkFWu3W4r4HGX-pic3qL1I0t0CHA-RnCX9g3VOOufL7lILW7554-7g5j26X0Q9wab7mGhioTCDK0aSLuB2l3U254gXNBHh6-R2h1C8A40wlUe8wZGzQHk9lIKkFFCOolBi8_KUC60DbingbvAcy92pTeIWYJrjMFF_nWP8O1vBPX2RKePfCGeo-ffyPmkGK1GVilNb3KV3kdJ1hG0FgUymMI3ZeYpveB4BHwBbmaoR1Eecfs6a7YLSfBENkGzqSxENUW2zXlwyPENqXhtWmZ-B3_0aeZMTeNfZ3lUmvLFQwv9RI2lC7YX0-IFsGe5BkAtC0pRtS1LRkAKcUY-liwsF8roct9le87k9EeLsz1o_ArEigSpOJTTjoeULcKp6PeGq_iGZqPM1ut0D_DvBPscfvFXVRlTKIOz8Hmni_WBUWsMe9XLQhAJ5-52BCBJ4qHq49ALSZudlH57d2KyjRecr0CkN5sWvrYfQ4e_twB1b9AkKv2TQfL8Gr5C-DVnhUN1n28YfGn9ii5F7A8sVRL9fs9DB8qZLx_WNv_BqmAD8tScP9FZNT7KF70Iz5Tbw9pBu3bZsHUHqndM0kUCLqPJaf-ix5MNMC4rdMgpn90GfwRMhC9bFe93NTmU_HO48H4wNw6VuIKU60EzKivsRaPgiE74FT7TdMR0f_lOMEApCYFN6fXzaov8a_3efGsc1Jz5KSn_pPcJdamQPPQtKyvCsaW8jGZmjWerAuxQkWMMCgLgJICevuMAnDAF6JHiSFgTxDZiMSSE5XZAAavoY9CgQAI4I3SBpSQKUwRewcZZkxqLpzO_e-cTgwQBsPDXuN-L25e8YSq5h0X9OmKg-0oFVt2XPnQfQj2vyvyMMGMK-ypsjDdX2rSJBGfkW1VLT0l31GI5di9tcuZwCYC8TxF6Q_YudBIWf__YKrxiC8sRuVKugmx4-p8YhXP0b6-9xGfLVCLrEvb1UgQgrSdlHfhCa72_xXobB1tqRshLCsi6q-DwIFvFya-nS7GchD5bl8cTYM0okLg9VPMmLnfQ-rZQ384UDaPUDRNCfkaTHKQKY8k5VZWgbafCAaE0CK9fLr2aNebOBBx5HtXsJx3E5aPa-WbRxfOzk1CyrquLGrzkIesJdhP23_pOIJP4UDjGtnWM6c0cwssi69Sd0pPrdJ62D-c3OVQpJo-qPBtCsRvyqY7I_a5yir-CIIpPVMkd7KsP6R-e4vBTaE4vHq2ezLuoyt-0nxEoVoJzYiTNSHhjBtxS2IxnIfejReT43phDEHIlKaD2gMSlErWRPDKCCgPbU5eEf-fsCrA_D3MUBQdbHrZd9J731sV0MErrVbDRt9ZxKx-pQ_o8jtnxqRmvtt-k9ZPDT5U0FuNovs6_C_V9cggofRSJT8j9DgSPTYkNVsvEG7f_w-y9Nrhr0_-wA_PUKvNoiR8_y2]--></g></svg>