<?xml version="1.0" encoding="us-ascii" standalone="no"?><svg xmlns="http://www.w3.org/2000/svg" xmlns:xlink="http://www.w3.org/1999/xlink" contentStyleType="text/css" height="1052px" preserveAspectRatio="none" style="width:1413px;height:1052px;background:#FFFFFF;" version="1.1" viewBox="0 0 1413 1052" width="1413px" zoomAndPan="magnify"><defs/><g><!--class CmdData--><g id="elem_CmdData"><rect codeLine="158" fill="#E9F7EF" height="178.3477" id="CmdData" rx="2.5" ry="2.5" style="stroke:#27AE60;stroke-width:2.0;" width="201" x="359.5" y="7"/><ellipse cx="426.25" cy="23" fill="#ADD1B2" rx="11" ry="11" style="stroke:#181818;stroke-width:1.0;"/><path d="M429.0156,18.875 Q429.1719,18.6563 429.3594,18.5469 Q429.5469,18.4375 429.7656,18.4375 Q430.1406,18.4375 430.375,18.7031 Q430.6094,18.9531 430.6094,19.5625 L430.6094,21.0156 Q430.6094,21.625 430.375,21.8906 Q430.1406,22.1563 429.7656,22.1563 Q429.4219,22.1563 429.2188,21.9531 Q429.0156,21.7656 428.9063,21.25 Q428.8594,20.8906 428.6719,20.7031 Q428.3438,20.3281 427.7344,20.1094 Q427.125,19.8906 426.5,19.8906 Q425.7344,19.8906 425.0938,20.2188 Q424.4688,20.5469 423.9688,21.2969 Q423.4844,22.0469 423.4844,23.0781 L423.4844,24.1719 Q423.4844,25.4063 424.375,26.2344 Q425.2656,27.0469 426.8594,27.0469 Q427.7969,27.0469 428.4531,26.7969 Q428.8438,26.6406 429.2656,26.2031 Q429.5313,25.9375 429.6719,25.8594 Q429.8281,25.7813 430.0313,25.7813 Q430.3594,25.7813 430.6094,26.0469 Q430.875,26.2969 430.875,26.6406 Q430.875,26.9844 430.5313,27.3906 Q430.0313,27.9688 429.2344,28.2969 Q428.1563,28.75 426.8594,28.75 Q425.3438,28.75 424.1406,28.125 Q423.1563,27.625 422.4688,26.5625 Q421.7813,25.4844 421.7813,24.2031 L421.7813,23.0469 Q421.7813,21.7188 422.3906,20.5781 Q423.0156,19.4219 424.1094,18.8125 Q425.2031,18.1875 426.4375,18.1875 Q427.1719,18.1875 427.8125,18.3594 Q428.4688,18.5156 429.0156,18.875 Z " fill="#000000"/><text fill="#000000" font-family="sans-serif" font-size="14" lengthAdjust="spacing" textLength="59" x="446.75" y="28.7969">CmdData</text><line style="stroke:#27AE60;stroke-width:2.0;" x1="360.5" x2="559.5" y1="39" y2="39"/><text fill="#000000" font-family="sans-serif" font-size="14" font-weight="bold" lengthAdjust="spacing" textLength="43" x="365.5" y="58.1074">action</text><text fill="#000000" font-family="sans-serif" font-size="14" lengthAdjust="spacing" textLength="66" x="412.5" y="58.1074">: String = "</text><text fill="#000000" font-family="sans-serif" font-size="14" font-weight="bold" lengthAdjust="spacing" textLength="33" x="478.5" y="58.1074">CMD</text><text fill="#000000" font-family="sans-serif" font-size="14" lengthAdjust="spacing" textLength="5" x="511.5" y="58.1074">"</text><text fill="#000000" font-family="sans-serif" font-size="14" font-weight="bold" lengthAdjust="spacing" textLength="89" x="365.5" y="76.7285">clientNodeId</text><text fill="#000000" font-family="sans-serif" font-size="14" lengthAdjust="spacing" textLength="45" x="458.5" y="76.7285">: String</text><text fill="#000000" font-family="sans-serif" font-size="14" font-weight="bold" lengthAdjust="spacing" textLength="123" x="365.5" y="95.3496">localReaderName</text><text fill="#000000" font-family="sans-serif" font-size="14" lengthAdjust="spacing" textLength="45" x="492.5" y="95.3496">: String</text><text fill="#000000" font-family="sans-serif" font-size="14" font-weight="bold" lengthAdjust="spacing" textLength="97" x="365.5" y="113.9707">serverNodeId</text><text fill="#000000" font-family="sans-serif" font-size="14" lengthAdjust="spacing" textLength="45" x="466.5" y="113.9707">: String</text><text fill="#000000" font-family="sans-serif" font-size="14" font-weight="bold" lengthAdjust="spacing" textLength="140" x="365.5" y="132.5918">remoteReaderName</text><text fill="#000000" font-family="sans-serif" font-size="14" lengthAdjust="spacing" textLength="45" x="509.5" y="132.5918">: String</text><text fill="#000000" font-family="sans-serif" font-size="14" font-weight="bold" lengthAdjust="spacing" textLength="68" x="365.5" y="151.2129">sessionId</text><text fill="#000000" font-family="sans-serif" font-size="14" lengthAdjust="spacing" textLength="45" x="437.5" y="151.2129">: String</text><text fill="#000000" font-family="sans-serif" font-size="14" font-weight="bold" lengthAdjust="spacing" textLength="34" x="365.5" y="169.834">body</text><text fill="#000000" font-family="sans-serif" font-size="14" lengthAdjust="spacing" textLength="69" x="403.5" y="169.834">: CmdBody</text><line style="stroke:#27AE60;stroke-width:2.0;" x1="360.5" x2="559.5" y1="177.3477" y2="177.3477"/></g><!--class CmdBody--><g id="elem_CmdBody"><rect codeLine="159" fill="#E9F7EF" height="48" id="CmdBody" rx="2.5" ry="2.5" style="stroke:#27AE60;stroke-width:2.0;" width="93" x="413.5" y="264"/><ellipse cx="428.5" cy="280" fill="#A9DCDF" rx="11" ry="11" style="stroke:#181818;stroke-width:1.0;"/><path d="M430.6875,281.7656 L426.5469,281.7656 L426.125,282.7969 L426.5469,282.7969 Q427.1563,282.7969 427.4219,283.0313 Q427.6875,283.2656 427.6875,283.6563 Q427.6875,284.0313 427.4219,284.2656 Q427.1563,284.5 426.5469,284.5 L424.25,284.5 Q423.6406,284.5 423.3906,284.2656 Q423.125,284.0313 423.125,283.6406 Q423.125,283.2656 423.4063,283.0313 Q423.6719,282.7813 424.2969,282.7969 L426.9688,276.1406 L425.8594,276.1406 Q425.25,276.1406 424.9844,275.9063 Q424.7188,275.6719 424.7188,275.2813 Q424.7188,274.9063 424.9844,274.6719 Q425.25,274.4375 425.8594,274.4375 L429.5313,274.4375 L432.9219,282.7969 Q433.5156,282.7969 433.7031,282.9375 Q434.0938,283.2031 434.0938,283.6563 Q434.0938,284.0313 433.8281,284.2656 Q433.5781,284.5 432.9688,284.5 L430.6719,284.5 Q430.0625,284.5 429.7969,284.2656 Q429.5313,284.0313 429.5313,283.6406 Q429.5313,283.2656 429.7969,283.0313 Q430.0625,282.7969 430.6719,282.7969 L431.0938,282.7969 L430.6875,281.7656 Z M429.9688,280.0625 L428.6094,276.6875 L427.2344,280.0625 L429.9688,280.0625 Z " fill="#000000"/><text fill="#000000" font-family="sans-serif" font-size="14" font-style="italic" lengthAdjust="spacing" textLength="61" x="442.5" y="285.7969">CmdBody</text><line style="stroke:#27AE60;stroke-width:2.0;" x1="414.5" x2="505.5" y1="296" y2="296"/><line style="stroke:#27AE60;stroke-width:2.0;" x1="414.5" x2="505.5" y1="304" y2="304"/></g><!--class IsContactlessCmdBody--><g id="elem_IsContactlessCmdBody"><rect codeLine="175" fill="#E9F7EF" height="66.6211" id="IsContactlessCmdBody" rx="2.5" ry="2.5" style="stroke:#27AE60;stroke-width:2.0;" width="262" x="7" y="400.5"/><ellipse cx="61.25" cy="416.5" fill="#ADD1B2" rx="11" ry="11" style="stroke:#181818;stroke-width:1.0;"/><path d="M64.0156,412.375 Q64.1719,412.1563 64.3594,412.0469 Q64.5469,411.9375 64.7656,411.9375 Q65.1406,411.9375 65.375,412.2031 Q65.6094,412.4531 65.6094,413.0625 L65.6094,414.5156 Q65.6094,415.125 65.375,415.3906 Q65.1406,415.6563 64.7656,415.6563 Q64.4219,415.6563 64.2188,415.4531 Q64.0156,415.2656 63.9063,414.75 Q63.8594,414.3906 63.6719,414.2031 Q63.3438,413.8281 62.7344,413.6094 Q62.125,413.3906 61.5,413.3906 Q60.7344,413.3906 60.0938,413.7188 Q59.4688,414.0469 58.9688,414.7969 Q58.4844,415.5469 58.4844,416.5781 L58.4844,417.6719 Q58.4844,418.9063 59.375,419.7344 Q60.2656,420.5469 61.8594,420.5469 Q62.7969,420.5469 63.4531,420.2969 Q63.8438,420.1406 64.2656,419.7031 Q64.5313,419.4375 64.6719,419.3594 Q64.8281,419.2813 65.0313,419.2813 Q65.3594,419.2813 65.6094,419.5469 Q65.875,419.7969 65.875,420.1406 Q65.875,420.4844 65.5313,420.8906 Q65.0313,421.4688 64.2344,421.7969 Q63.1563,422.25 61.8594,422.25 Q60.3438,422.25 59.1406,421.625 Q58.1563,421.125 57.4688,420.0625 Q56.7813,418.9844 56.7813,417.7031 L56.7813,416.5469 Q56.7813,415.2188 57.3906,414.0781 Q58.0156,412.9219 59.1094,412.3125 Q60.2031,411.6875 61.4375,411.6875 Q62.1719,411.6875 62.8125,411.8594 Q63.4688,412.0156 64.0156,412.375 Z " fill="#000000"/><text fill="#000000" font-family="sans-serif" font-size="14" lengthAdjust="spacing" textLength="145" x="81.75" y="422.2969">IsContactlessCmdBody</text><line style="stroke:#27AE60;stroke-width:2.0;" x1="8" x2="268" y1="432.5" y2="432.5"/><text fill="#000000" font-family="sans-serif" font-size="14" font-weight="bold" lengthAdjust="spacing" textLength="53" x="13" y="451.6074">service</text><text fill="#000000" font-family="sans-serif" font-size="14" lengthAdjust="spacing" textLength="66" x="70" y="451.6074">: String = "</text><text fill="#000000" font-family="sans-serif" font-size="14" font-weight="bold" lengthAdjust="spacing" textLength="122" x="136" y="451.6074">IS_CONTACTLESS</text><text fill="#000000" font-family="sans-serif" font-size="14" lengthAdjust="spacing" textLength="5" x="258" y="451.6074">"</text><line style="stroke:#27AE60;stroke-width:2.0;" x1="8" x2="268" y1="459.1211" y2="459.1211"/></g><!--class IsCardPresentCmdBody--><g id="elem_IsCardPresentCmdBody"><rect codeLine="172" fill="#E9F7EF" height="66.6211" id="IsCardPresentCmdBody" rx="2.5" ry="2.5" style="stroke:#27AE60;stroke-width:2.0;" width="272" x="304" y="400.5"/><ellipse cx="360.25" cy="416.5" fill="#ADD1B2" rx="11" ry="11" style="stroke:#181818;stroke-width:1.0;"/><path d="M363.0156,412.375 Q363.1719,412.1563 363.3594,412.0469 Q363.5469,411.9375 363.7656,411.9375 Q364.1406,411.9375 364.375,412.2031 Q364.6094,412.4531 364.6094,413.0625 L364.6094,414.5156 Q364.6094,415.125 364.375,415.3906 Q364.1406,415.6563 363.7656,415.6563 Q363.4219,415.6563 363.2188,415.4531 Q363.0156,415.2656 362.9063,414.75 Q362.8594,414.3906 362.6719,414.2031 Q362.3438,413.8281 361.7344,413.6094 Q361.125,413.3906 360.5,413.3906 Q359.7344,413.3906 359.0938,413.7188 Q358.4688,414.0469 357.9688,414.7969 Q357.4844,415.5469 357.4844,416.5781 L357.4844,417.6719 Q357.4844,418.9063 358.375,419.7344 Q359.2656,420.5469 360.8594,420.5469 Q361.7969,420.5469 362.4531,420.2969 Q362.8438,420.1406 363.2656,419.7031 Q363.5313,419.4375 363.6719,419.3594 Q363.8281,419.2813 364.0313,419.2813 Q364.3594,419.2813 364.6094,419.5469 Q364.875,419.7969 364.875,420.1406 Q364.875,420.4844 364.5313,420.8906 Q364.0313,421.4688 363.2344,421.7969 Q362.1563,422.25 360.8594,422.25 Q359.3438,422.25 358.1406,421.625 Q357.1563,421.125 356.4688,420.0625 Q355.7813,418.9844 355.7813,417.7031 L355.7813,416.5469 Q355.7813,415.2188 356.3906,414.0781 Q357.0156,412.9219 358.1094,412.3125 Q359.2031,411.6875 360.4375,411.6875 Q361.1719,411.6875 361.8125,411.8594 Q362.4688,412.0156 363.0156,412.375 Z " fill="#000000"/><text fill="#000000" font-family="sans-serif" font-size="14" lengthAdjust="spacing" textLength="151" x="380.75" y="422.2969">IsCardPresentCmdBody</text><line style="stroke:#27AE60;stroke-width:2.0;" x1="305" x2="575" y1="432.5" y2="432.5"/><text fill="#000000" font-family="sans-serif" font-size="14" font-weight="bold" lengthAdjust="spacing" textLength="53" x="310" y="451.6074">service</text><text fill="#000000" font-family="sans-serif" font-size="14" lengthAdjust="spacing" textLength="66" x="367" y="451.6074">: String = "</text><text fill="#000000" font-family="sans-serif" font-size="14" font-weight="bold" lengthAdjust="spacing" textLength="132" x="433" y="451.6074">IS_CARD_PRESENT</text><text fill="#000000" font-family="sans-serif" font-size="14" lengthAdjust="spacing" textLength="5" x="565" y="451.6074">"</text><line style="stroke:#27AE60;stroke-width:2.0;" x1="305" x2="575" y1="459.1211" y2="459.1211"/></g><!--class TransmitCardSelectionRequestsCmdBody--><g id="elem_TransmitCardSelectionRequestsCmdBody"><rect codeLine="162" fill="#E9F7EF" height="122.4844" id="TransmitCardSelectionRequestsCmdBody" rx="2.5" ry="2.5" style="stroke:#27AE60;stroke-width:2.0;" width="427" x="611.5" y="373"/><ellipse cx="688.25" cy="389" fill="#ADD1B2" rx="11" ry="11" style="stroke:#181818;stroke-width:1.0;"/><path d="M691.0156,384.875 Q691.1719,384.6563 691.3594,384.5469 Q691.5469,384.4375 691.7656,384.4375 Q692.1406,384.4375 692.375,384.7031 Q692.6094,384.9531 692.6094,385.5625 L692.6094,387.0156 Q692.6094,387.625 692.375,387.8906 Q692.1406,388.1563 691.7656,388.1563 Q691.4219,388.1563 691.2188,387.9531 Q691.0156,387.7656 690.9063,387.25 Q690.8594,386.8906 690.6719,386.7031 Q690.3438,386.3281 689.7344,386.1094 Q689.125,385.8906 688.5,385.8906 Q687.7344,385.8906 687.0938,386.2188 Q686.4688,386.5469 685.9688,387.2969 Q685.4844,388.0469 685.4844,389.0781 L685.4844,390.1719 Q685.4844,391.4063 686.375,392.2344 Q687.2656,393.0469 688.8594,393.0469 Q689.7969,393.0469 690.4531,392.7969 Q690.8438,392.6406 691.2656,392.2031 Q691.5313,391.9375 691.6719,391.8594 Q691.8281,391.7813 692.0313,391.7813 Q692.3594,391.7813 692.6094,392.0469 Q692.875,392.2969 692.875,392.6406 Q692.875,392.9844 692.5313,393.3906 Q692.0313,393.9688 691.2344,394.2969 Q690.1563,394.75 688.8594,394.75 Q687.3438,394.75 686.1406,394.125 Q685.1563,393.625 684.4688,392.5625 Q683.7813,391.4844 683.7813,390.2031 L683.7813,389.0469 Q683.7813,387.7188 684.3906,386.5781 Q685.0156,385.4219 686.1094,384.8125 Q687.2031,384.1875 688.4375,384.1875 Q689.1719,384.1875 689.8125,384.3594 Q690.4688,384.5156 691.0156,384.875 Z " fill="#000000"/><text fill="#000000" font-family="sans-serif" font-size="14" lengthAdjust="spacing" textLength="265" x="708.75" y="394.7969">TransmitCardSelectionRequestsCmdBody</text><line style="stroke:#27AE60;stroke-width:2.0;" x1="612.5" x2="1037.5" y1="405" y2="405"/><text fill="#000000" font-family="sans-serif" font-size="14" font-weight="bold" lengthAdjust="spacing" textLength="53" x="617.5" y="424.1074">service</text><text fill="#000000" font-family="sans-serif" font-size="14" lengthAdjust="spacing" textLength="66" x="674.5" y="424.1074">: String = "</text><text fill="#000000" font-family="sans-serif" font-size="14" font-weight="bold" lengthAdjust="spacing" textLength="287" x="740.5" y="424.1074">TRANSMIT_CARD_SELECTION_REQUESTS</text><text fill="#000000" font-family="sans-serif" font-size="14" lengthAdjust="spacing" textLength="5" x="1027.5" y="424.1074">"</text><text fill="#000000" font-family="sans-serif" font-size="14" font-weight="bold" lengthAdjust="spacing" textLength="164" x="617.5" y="442.7285">cardSelectionRequests</text><text fill="#000000" font-family="sans-serif" font-size="14" lengthAdjust="spacing" textLength="150" x="785.5" y="442.7285">: CardSelectionRequest</text><text fill="#000000" font-family="sans-serif" font-size="14" font-weight="bold" lengthAdjust="spacing" textLength="179" x="617.5" y="461.3496">multiSelectionProcessing</text><text fill="#000000" font-family="sans-serif" font-size="14" lengthAdjust="spacing" textLength="165" x="800.5" y="461.3496">: MultiSelectionProcessing</text><text fill="#000000" font-family="sans-serif" font-size="14" font-weight="bold" lengthAdjust="spacing" textLength="108" x="617.5" y="479.9707">channelControl</text><text fill="#000000" font-family="sans-serif" font-size="14" lengthAdjust="spacing" textLength="107" x="729.5" y="479.9707">: ChannelControl</text><line style="stroke:#27AE60;stroke-width:2.0;" x1="612.5" x2="1037.5" y1="487.4844" y2="487.4844"/></g><!--class MultiSelectionProcessing--><g id="elem_MultiSelectionProcessing"><rect codeLine="85" fill="#FEFECE" height="85.2422" id="MultiSelectionProcessing" rx="2.5" ry="2.5" style="stroke:#D4AC0D;stroke-width:2.0;" width="189" x="581.5" y="556"/><ellipse cx="596.5" cy="572" fill="#EB937F" rx="11" ry="11" style="stroke:#181818;stroke-width:1.0;"/><path d="M595.3594,572.7969 L595.3594,575.2969 L599.6875,575.2969 L599.6875,574.375 Q599.6875,573.7656 599.9219,573.5 Q600.1719,573.2344 600.5469,573.2344 Q600.9219,573.2344 601.1563,573.5 Q601.3906,573.7656 601.3906,574.375 L601.3906,577 L593.3906,577 Q592.7656,577 592.5,576.7656 Q592.25,576.5313 592.25,576.1406 Q592.25,575.7656 592.5156,575.5313 Q592.7813,575.2969 593.3906,575.2969 L593.6563,575.2969 L593.6563,568.6406 L593.3906,568.6406 Q592.7656,568.6406 592.5,568.4063 Q592.25,568.1719 592.25,567.7813 Q592.25,567.4063 592.5,567.1719 Q592.7656,566.9375 593.3906,566.9375 L601.0156,566.9375 L601.0156,569.5313 Q601.0156,570.1406 600.7813,570.4063 Q600.5625,570.6563 600.1719,570.6563 Q599.7969,570.6563 599.5625,570.4063 Q599.3281,570.1406 599.3281,569.5313 L599.3281,568.6406 L595.3594,568.6406 L595.3594,571.0938 L596.8438,571.0938 Q596.8438,570.4375 596.9688,570.25 Q597.2344,569.8438 597.7031,569.8438 Q598.0781,569.8438 598.3125,570.1094 Q598.5469,570.3594 598.5469,570.9688 L598.5469,572.9375 Q598.5469,573.4844 598.4219,573.6719 Q598.1563,574.0625 597.7031,574.0625 Q597.2344,574.0625 596.9688,573.6563 Q596.8438,573.4688 596.8438,572.7969 L595.3594,572.7969 Z " fill="#000000"/><text fill="#000000" font-family="sans-serif" font-size="14" lengthAdjust="spacing" textLength="157" x="610.5" y="577.7969">MultiSelectionProcessing</text><line style="stroke:#D4AC0D;stroke-width:2.0;" x1="582.5" x2="769.5" y1="588" y2="588"/><text fill="#000000" font-family="sans-serif" font-size="14" lengthAdjust="spacing" textLength="96" x="587.5" y="607.1074">FIRST_MATCH</text><text fill="#000000" font-family="sans-serif" font-size="14" lengthAdjust="spacing" textLength="100" x="587.5" y="625.7285">PROCESS_ALL</text><line style="stroke:#D4AC0D;stroke-width:2.0;" x1="582.5" x2="769.5" y1="633.2422" y2="633.2422"/></g><!--class CardSelectionRequest--><g id="elem_CardSelectionRequest"><rect codeLine="163" fill="#E9F7EF" height="85.2422" id="CardSelectionRequest" rx="2.5" ry="2.5" style="stroke:#27AE60;stroke-width:2.0;" width="206" x="806" y="556"/><ellipse cx="835.4" cy="572" fill="#ADD1B2" rx="11" ry="11" style="stroke:#181818;stroke-width:1.0;"/><path d="M838.1656,567.875 Q838.3219,567.6563 838.5094,567.5469 Q838.6969,567.4375 838.9156,567.4375 Q839.2906,567.4375 839.525,567.7031 Q839.7594,567.9531 839.7594,568.5625 L839.7594,570.0156 Q839.7594,570.625 839.525,570.8906 Q839.2906,571.1563 838.9156,571.1563 Q838.5719,571.1563 838.3688,570.9531 Q838.1656,570.7656 838.0563,570.25 Q838.0094,569.8906 837.8219,569.7031 Q837.4938,569.3281 836.8844,569.1094 Q836.275,568.8906 835.65,568.8906 Q834.8844,568.8906 834.2438,569.2188 Q833.6188,569.5469 833.1188,570.2969 Q832.6344,571.0469 832.6344,572.0781 L832.6344,573.1719 Q832.6344,574.4063 833.525,575.2344 Q834.4156,576.0469 836.0094,576.0469 Q836.9469,576.0469 837.6031,575.7969 Q837.9938,575.6406 838.4156,575.2031 Q838.6813,574.9375 838.8219,574.8594 Q838.9781,574.7813 839.1813,574.7813 Q839.5094,574.7813 839.7594,575.0469 Q840.025,575.2969 840.025,575.6406 Q840.025,575.9844 839.6813,576.3906 Q839.1813,576.9688 838.3844,577.2969 Q837.3063,577.75 836.0094,577.75 Q834.4938,577.75 833.2906,577.125 Q832.3063,576.625 831.6188,575.5625 Q830.9313,574.4844 830.9313,573.2031 L830.9313,572.0469 Q830.9313,570.7188 831.5406,569.5781 Q832.1656,568.4219 833.2594,567.8125 Q834.3531,567.1875 835.5875,567.1875 Q836.3219,567.1875 836.9625,567.3594 Q837.6188,567.5156 838.1656,567.875 Z " fill="#000000"/><text fill="#000000" font-family="sans-serif" font-size="14" lengthAdjust="spacing" textLength="142" x="852.6" y="577.7969">CardSelectionRequest</text><line style="stroke:#27AE60;stroke-width:2.0;" x1="807" x2="1011" y1="588" y2="588"/><text fill="#000000" font-family="sans-serif" font-size="14" font-weight="bold" lengthAdjust="spacing" textLength="90" x="812" y="607.1074">cardSelector</text><text fill="#000000" font-family="sans-serif" font-size="14" lengthAdjust="spacing" textLength="91" x="906" y="607.1074">: CardSelector</text><text fill="#000000" font-family="sans-serif" font-size="14" font-weight="bold" lengthAdjust="spacing" textLength="90" x="812" y="625.7285">cardRequest</text><text fill="#000000" font-family="sans-serif" font-size="14" lengthAdjust="spacing" textLength="100" x="906" y="625.7285">: CardRequest?</text><line style="stroke:#27AE60;stroke-width:2.0;" x1="807" x2="1011" y1="633.2422" y2="633.2422"/></g><!--class CardSelector--><g id="elem_CardSelector"><rect codeLine="164" fill="#E9F7EF" height="159.7266" id="CardSelector" rx="2.5" ry="2.5" style="stroke:#27AE60;stroke-width:2.0;" width="317" x="736.5" y="702"/><ellipse cx="849.25" cy="718" fill="#ADD1B2" rx="11" ry="11" style="stroke:#181818;stroke-width:1.0;"/><path d="M852.0156,713.875 Q852.1719,713.6563 852.3594,713.5469 Q852.5469,713.4375 852.7656,713.4375 Q853.1406,713.4375 853.375,713.7031 Q853.6094,713.9531 853.6094,714.5625 L853.6094,716.0156 Q853.6094,716.625 853.375,716.8906 Q853.1406,717.1563 852.7656,717.1563 Q852.4219,717.1563 852.2188,716.9531 Q852.0156,716.7656 851.9063,716.25 Q851.8594,715.8906 851.6719,715.7031 Q851.3438,715.3281 850.7344,715.1094 Q850.125,714.8906 849.5,714.8906 Q848.7344,714.8906 848.0938,715.2188 Q847.4688,715.5469 846.9688,716.2969 Q846.4844,717.0469 846.4844,718.0781 L846.4844,719.1719 Q846.4844,720.4063 847.375,721.2344 Q848.2656,722.0469 849.8594,722.0469 Q850.7969,722.0469 851.4531,721.7969 Q851.8438,721.6406 852.2656,721.2031 Q852.5313,720.9375 852.6719,720.8594 Q852.8281,720.7813 853.0313,720.7813 Q853.3594,720.7813 853.6094,721.0469 Q853.875,721.2969 853.875,721.6406 Q853.875,721.9844 853.5313,722.3906 Q853.0313,722.9688 852.2344,723.2969 Q851.1563,723.75 849.8594,723.75 Q848.3438,723.75 847.1406,723.125 Q846.1563,722.625 845.4688,721.5625 Q844.7813,720.4844 844.7813,719.2031 L844.7813,718.0469 Q844.7813,716.7188 845.3906,715.5781 Q846.0156,714.4219 847.1094,713.8125 Q848.2031,713.1875 849.4375,713.1875 Q850.1719,713.1875 850.8125,713.3594 Q851.4688,713.5156 852.0156,713.875 Z " fill="#000000"/><text fill="#000000" font-family="sans-serif" font-size="14" lengthAdjust="spacing" textLength="83" x="869.75" y="723.7969">CardSelector</text><line style="stroke:#27AE60;stroke-width:2.0;" x1="737.5" x2="1052.5" y1="734" y2="734"/><text fill="#000000" font-family="sans-serif" font-size="14" font-weight="bold" lengthAdjust="spacing" textLength="90" x="742.5" y="753.1074">cardProtocol</text><text fill="#000000" font-family="sans-serif" font-size="14" lengthAdjust="spacing" textLength="53" x="836.5" y="753.1074">: String?</text><text fill="#000000" font-family="sans-serif" font-size="14" font-weight="bold" lengthAdjust="spacing" textLength="140" x="742.5" y="771.7285">powerOnDataRegex</text><text fill="#000000" font-family="sans-serif" font-size="14" lengthAdjust="spacing" textLength="53" x="886.5" y="771.7285">: String?</text><text fill="#000000" font-family="sans-serif" font-size="14" font-weight="bold" lengthAdjust="spacing" textLength="21" x="742.5" y="790.3496">aid</text><text fill="#000000" font-family="sans-serif" font-size="14" lengthAdjust="spacing" textLength="53" x="767.5" y="790.3496">: String?</text><text fill="#000000" font-family="sans-serif" font-size="14" font-weight="bold" lengthAdjust="spacing" textLength="231" x="742.5" y="808.9707">successfulSelectionStatusWords</text><text fill="#000000" font-family="sans-serif" font-size="14" lengthAdjust="spacing" textLength="53" x="977.5" y="808.9707">: String[]</text><text fill="#000000" font-family="sans-serif" font-size="14" font-weight="bold" lengthAdjust="spacing" textLength="105" x="742.5" y="827.5918">fileOccurrence</text><text fill="#000000" font-family="sans-serif" font-size="14" lengthAdjust="spacing" textLength="105" x="851.5" y="827.5918">: FileOccurrence</text><text fill="#000000" font-family="sans-serif" font-size="14" font-weight="bold" lengthAdjust="spacing" textLength="154" x="742.5" y="846.2129">fileControlInformation</text><text fill="#000000" font-family="sans-serif" font-size="14" lengthAdjust="spacing" textLength="147" x="900.5" y="846.2129">: FileControlInformation</text><line style="stroke:#27AE60;stroke-width:2.0;" x1="737.5" x2="1052.5" y1="853.7266" y2="853.7266"/></g><!--class FileOccurrence--><g id="elem_FileOccurrence"><rect codeLine="101" fill="#FEFECE" height="122.4844" id="FileOccurrence" rx="2.5" ry="2.5" style="stroke:#D4AC0D;stroke-width:2.0;" width="129" x="699.5" y="923"/><ellipse cx="714.5" cy="939" fill="#EB937F" rx="11" ry="11" style="stroke:#181818;stroke-width:1.0;"/><path d="M713.3594,939.7969 L713.3594,942.2969 L717.6875,942.2969 L717.6875,941.375 Q717.6875,940.7656 717.9219,940.5 Q718.1719,940.2344 718.5469,940.2344 Q718.9219,940.2344 719.1563,940.5 Q719.3906,940.7656 719.3906,941.375 L719.3906,944 L711.3906,944 Q710.7656,944 710.5,943.7656 Q710.25,943.5313 710.25,943.1406 Q710.25,942.7656 710.5156,942.5313 Q710.7813,942.2969 711.3906,942.2969 L711.6563,942.2969 L711.6563,935.6406 L711.3906,935.6406 Q710.7656,935.6406 710.5,935.4063 Q710.25,935.1719 710.25,934.7813 Q710.25,934.4063 710.5,934.1719 Q710.7656,933.9375 711.3906,933.9375 L719.0156,933.9375 L719.0156,936.5313 Q719.0156,937.1406 718.7813,937.4063 Q718.5625,937.6563 718.1719,937.6563 Q717.7969,937.6563 717.5625,937.4063 Q717.3281,937.1406 717.3281,936.5313 L717.3281,935.6406 L713.3594,935.6406 L713.3594,938.0938 L714.8438,938.0938 Q714.8438,937.4375 714.9688,937.25 Q715.2344,936.8438 715.7031,936.8438 Q716.0781,936.8438 716.3125,937.1094 Q716.5469,937.3594 716.5469,937.9688 L716.5469,939.9375 Q716.5469,940.4844 716.4219,940.6719 Q716.1563,941.0625 715.7031,941.0625 Q715.2344,941.0625 714.9688,940.6563 Q714.8438,940.4688 714.8438,939.7969 L713.3594,939.7969 Z " fill="#000000"/><text fill="#000000" font-family="sans-serif" font-size="14" lengthAdjust="spacing" textLength="97" x="728.5" y="944.7969">FileOccurrence</text><line style="stroke:#D4AC0D;stroke-width:2.0;" x1="700.5" x2="827.5" y1="955" y2="955"/><text fill="#000000" font-family="sans-serif" font-size="14" lengthAdjust="spacing" textLength="40" x="705.5" y="974.1074">FIRST</text><text fill="#000000" font-family="sans-serif" font-size="14" lengthAdjust="spacing" textLength="35" x="705.5" y="992.7285">LAST</text><text fill="#000000" font-family="sans-serif" font-size="14" lengthAdjust="spacing" textLength="35" x="705.5" y="1011.3496">NEXT</text><text fill="#000000" font-family="sans-serif" font-size="14" lengthAdjust="spacing" textLength="69" x="705.5" y="1029.9707">PREVIOUS</text><line style="stroke:#D4AC0D;stroke-width:2.0;" x1="700.5" x2="827.5" y1="1037.4844" y2="1037.4844"/></g><!--class FileControlInformation--><g id="elem_FileControlInformation"><rect codeLine="107" fill="#FEFECE" height="122.4844" id="FileControlInformation" rx="2.5" ry="2.5" style="stroke:#D4AC0D;stroke-width:2.0;" width="171" x="863.5" y="923"/><ellipse cx="878.5" cy="939" fill="#EB937F" rx="11" ry="11" style="stroke:#181818;stroke-width:1.0;"/><path d="M877.3594,939.7969 L877.3594,942.2969 L881.6875,942.2969 L881.6875,941.375 Q881.6875,940.7656 881.9219,940.5 Q882.1719,940.2344 882.5469,940.2344 Q882.9219,940.2344 883.1563,940.5 Q883.3906,940.7656 883.3906,941.375 L883.3906,944 L875.3906,944 Q874.7656,944 874.5,943.7656 Q874.25,943.5313 874.25,943.1406 Q874.25,942.7656 874.5156,942.5313 Q874.7813,942.2969 875.3906,942.2969 L875.6563,942.2969 L875.6563,935.6406 L875.3906,935.6406 Q874.7656,935.6406 874.5,935.4063 Q874.25,935.1719 874.25,934.7813 Q874.25,934.4063 874.5,934.1719 Q874.7656,933.9375 875.3906,933.9375 L883.0156,933.9375 L883.0156,936.5313 Q883.0156,937.1406 882.7813,937.4063 Q882.5625,937.6563 882.1719,937.6563 Q881.7969,937.6563 881.5625,937.4063 Q881.3281,937.1406 881.3281,936.5313 L881.3281,935.6406 L877.3594,935.6406 L877.3594,938.0938 L878.8438,938.0938 Q878.8438,937.4375 878.9688,937.25 Q879.2344,936.8438 879.7031,936.8438 Q880.0781,936.8438 880.3125,937.1094 Q880.5469,937.3594 880.5469,937.9688 L880.5469,939.9375 Q880.5469,940.4844 880.4219,940.6719 Q880.1563,941.0625 879.7031,941.0625 Q879.2344,941.0625 878.9688,940.6563 Q878.8438,940.4688 878.8438,939.7969 L877.3594,939.7969 Z " fill="#000000"/><text fill="#000000" font-family="sans-serif" font-size="14" lengthAdjust="spacing" textLength="139" x="892.5" y="944.7969">FileControlInformation</text><line style="stroke:#D4AC0D;stroke-width:2.0;" x1="864.5" x2="1033.5" y1="955" y2="955"/><text fill="#000000" font-family="sans-serif" font-size="14" lengthAdjust="spacing" textLength="22" x="869.5" y="974.1074">FCI</text><text fill="#000000" font-family="sans-serif" font-size="14" lengthAdjust="spacing" textLength="28" x="869.5" y="992.7285">FCP</text><text fill="#000000" font-family="sans-serif" font-size="14" lengthAdjust="spacing" textLength="30" x="869.5" y="1011.3496">FMD</text><text fill="#000000" font-family="sans-serif" font-size="14" lengthAdjust="spacing" textLength="103" x="869.5" y="1029.9707">NO_RESPONSE</text><line style="stroke:#D4AC0D;stroke-width:2.0;" x1="864.5" x2="1033.5" y1="1037.4844" y2="1037.4844"/></g><!--class CardRequest--><g id="elem_CardRequest"><rect codeLine="165" fill="#E9F7EF" height="85.2422" id="CardRequest" rx="2.5" ry="2.5" style="stroke:#27AE60;stroke-width:2.0;" width="303" x="1088.5" y="739.5"/><ellipse cx="1193.75" cy="755.5" fill="#ADD1B2" rx="11" ry="11" style="stroke:#181818;stroke-width:1.0;"/><path d="M1196.5156,751.375 Q1196.6719,751.1563 1196.8594,751.0469 Q1197.0469,750.9375 1197.2656,750.9375 Q1197.6406,750.9375 1197.875,751.2031 Q1198.1094,751.4531 1198.1094,752.0625 L1198.1094,753.5156 Q1198.1094,754.125 1197.875,754.3906 Q1197.6406,754.6563 1197.2656,754.6563 Q1196.9219,754.6563 1196.7188,754.4531 Q1196.5156,754.2656 1196.4063,753.75 Q1196.3594,753.3906 1196.1719,753.2031 Q1195.8438,752.8281 1195.2344,752.6094 Q1194.625,752.3906 1194,752.3906 Q1193.2344,752.3906 1192.5938,752.7188 Q1191.9688,753.0469 1191.4688,753.7969 Q1190.9844,754.5469 1190.9844,755.5781 L1190.9844,756.6719 Q1190.9844,757.9063 1191.875,758.7344 Q1192.7656,759.5469 1194.3594,759.5469 Q1195.2969,759.5469 1195.9531,759.2969 Q1196.3438,759.1406 1196.7656,758.7031 Q1197.0313,758.4375 1197.1719,758.3594 Q1197.3281,758.2813 1197.5313,758.2813 Q1197.8594,758.2813 1198.1094,758.5469 Q1198.375,758.7969 1198.375,759.1406 Q1198.375,759.4844 1198.0313,759.8906 Q1197.5313,760.4688 1196.7344,760.7969 Q1195.6563,761.25 1194.3594,761.25 Q1192.8438,761.25 1191.6406,760.625 Q1190.6563,760.125 1189.9688,759.0625 Q1189.2813,757.9844 1189.2813,756.7031 L1189.2813,755.5469 Q1189.2813,754.2188 1189.8906,753.0781 Q1190.5156,751.9219 1191.6094,751.3125 Q1192.7031,750.6875 1193.9375,750.6875 Q1194.6719,750.6875 1195.3125,750.8594 Q1195.9688,751.0156 1196.5156,751.375 Z " fill="#000000"/><text fill="#000000" font-family="sans-serif" font-size="14" lengthAdjust="spacing" textLength="84" x="1214.25" y="761.2969">CardRequest</text><line style="stroke:#27AE60;stroke-width:2.0;" x1="1089.5" x2="1390.5" y1="771.5" y2="771.5"/><text fill="#000000" font-family="sans-serif" font-size="14" font-weight="bold" lengthAdjust="spacing" textLength="102" x="1094.5" y="790.6074">apduRequests</text><text fill="#000000" font-family="sans-serif" font-size="14" lengthAdjust="spacing" textLength="102" x="1200.5" y="790.6074">: ApduRequest[]</text><text fill="#000000" font-family="sans-serif" font-size="14" font-weight="bold" lengthAdjust="spacing" textLength="227" x="1094.5" y="809.2285">stopOnUnsuccessfulStatusWord</text><text fill="#000000" font-family="sans-serif" font-size="14" lengthAdjust="spacing" textLength="60" x="1325.5" y="809.2285">: Boolean</text><line style="stroke:#27AE60;stroke-width:2.0;" x1="1089.5" x2="1390.5" y1="816.7422" y2="816.7422"/></g><!--class ApduRequest--><g id="elem_ApduRequest"><rect codeLine="166" fill="#E9F7EF" height="103.8633" id="ApduRequest" rx="2.5" ry="2.5" style="stroke:#27AE60;stroke-width:2.0;" width="234" x="1123" y="932"/><ellipse cx="1192.75" cy="948" fill="#ADD1B2" rx="11" ry="11" style="stroke:#181818;stroke-width:1.0;"/><path d="M1195.5156,943.875 Q1195.6719,943.6563 1195.8594,943.5469 Q1196.0469,943.4375 1196.2656,943.4375 Q1196.6406,943.4375 1196.875,943.7031 Q1197.1094,943.9531 1197.1094,944.5625 L1197.1094,946.0156 Q1197.1094,946.625 1196.875,946.8906 Q1196.6406,947.1563 1196.2656,947.1563 Q1195.9219,947.1563 1195.7188,946.9531 Q1195.5156,946.7656 1195.4063,946.25 Q1195.3594,945.8906 1195.1719,945.7031 Q1194.8438,945.3281 1194.2344,945.1094 Q1193.625,944.8906 1193,944.8906 Q1192.2344,944.8906 1191.5938,945.2188 Q1190.9688,945.5469 1190.4688,946.2969 Q1189.9844,947.0469 1189.9844,948.0781 L1189.9844,949.1719 Q1189.9844,950.4063 1190.875,951.2344 Q1191.7656,952.0469 1193.3594,952.0469 Q1194.2969,952.0469 1194.9531,951.7969 Q1195.3438,951.6406 1195.7656,951.2031 Q1196.0313,950.9375 1196.1719,950.8594 Q1196.3281,950.7813 1196.5313,950.7813 Q1196.8594,950.7813 1197.1094,951.0469 Q1197.375,951.2969 1197.375,951.6406 Q1197.375,951.9844 1197.0313,952.3906 Q1196.5313,952.9688 1195.7344,953.2969 Q1194.6563,953.75 1193.3594,953.75 Q1191.8438,953.75 1190.6406,953.125 Q1189.6563,952.625 1188.9688,951.5625 Q1188.2813,950.4844 1188.2813,949.2031 L1188.2813,948.0469 Q1188.2813,946.7188 1188.8906,945.5781 Q1189.5156,944.4219 1190.6094,943.8125 Q1191.7031,943.1875 1192.9375,943.1875 Q1193.6719,943.1875 1194.3125,943.3594 Q1194.9688,943.5156 1195.5156,943.875 Z " fill="#000000"/><text fill="#000000" font-family="sans-serif" font-size="14" lengthAdjust="spacing" textLength="86" x="1213.25" y="953.7969">ApduRequest</text><line style="stroke:#27AE60;stroke-width:2.0;" x1="1124" x2="1356" y1="964" y2="964"/><text fill="#000000" font-family="sans-serif" font-size="14" font-weight="bold" lengthAdjust="spacing" textLength="35" x="1129" y="983.1074">apdu</text><text fill="#000000" font-family="sans-serif" font-size="14" lengthAdjust="spacing" textLength="45" x="1168" y="983.1074">: String</text><text fill="#000000" font-family="sans-serif" font-size="14" font-weight="bold" lengthAdjust="spacing" textLength="165" x="1129" y="1001.7285">successfulStatusWords</text><text fill="#000000" font-family="sans-serif" font-size="14" lengthAdjust="spacing" textLength="53" x="1298" y="1001.7285">: String[]</text><text fill="#000000" font-family="sans-serif" font-size="14" font-weight="bold" lengthAdjust="spacing" textLength="27" x="1129" y="1020.3496">info</text><text fill="#000000" font-family="sans-serif" font-size="14" lengthAdjust="spacing" textLength="53" x="1160" y="1020.3496">: String?</text><line style="stroke:#27AE60;stroke-width:2.0;" x1="1124" x2="1356" y1="1027.8633" y2="1027.8633"/></g><!--class ChannelControl--><g id="elem_ChannelControl"><rect codeLine="122" fill="#FEFECE" height="85.2422" id="ChannelControl" rx="2.5" ry="2.5" style="stroke:#D4AC0D;stroke-width:2.0;" width="131" x="1052.5" y="556"/><ellipse cx="1067.5" cy="572" fill="#EB937F" rx="11" ry="11" style="stroke:#181818;stroke-width:1.0;"/><path d="M1066.3594,572.7969 L1066.3594,575.2969 L1070.6875,575.2969 L1070.6875,574.375 Q1070.6875,573.7656 1070.9219,573.5 Q1071.1719,573.2344 1071.5469,573.2344 Q1071.9219,573.2344 1072.1563,573.5 Q1072.3906,573.7656 1072.3906,574.375 L1072.3906,577 L1064.3906,577 Q1063.7656,577 1063.5,576.7656 Q1063.25,576.5313 1063.25,576.1406 Q1063.25,575.7656 1063.5156,575.5313 Q1063.7813,575.2969 1064.3906,575.2969 L1064.6563,575.2969 L1064.6563,568.6406 L1064.3906,568.6406 Q1063.7656,568.6406 1063.5,568.4063 Q1063.25,568.1719 1063.25,567.7813 Q1063.25,567.4063 1063.5,567.1719 Q1063.7656,566.9375 1064.3906,566.9375 L1072.0156,566.9375 L1072.0156,569.5313 Q1072.0156,570.1406 1071.7813,570.4063 Q1071.5625,570.6563 1071.1719,570.6563 Q1070.7969,570.6563 1070.5625,570.4063 Q1070.3281,570.1406 1070.3281,569.5313 L1070.3281,568.6406 L1066.3594,568.6406 L1066.3594,571.0938 L1067.8438,571.0938 Q1067.8438,570.4375 1067.9688,570.25 Q1068.2344,569.8438 1068.7031,569.8438 Q1069.0781,569.8438 1069.3125,570.1094 Q1069.5469,570.3594 1069.5469,570.9688 L1069.5469,572.9375 Q1069.5469,573.4844 1069.4219,573.6719 Q1069.1563,574.0625 1068.7031,574.0625 Q1068.2344,574.0625 1067.9688,573.6563 Q1067.8438,573.4688 1067.8438,572.7969 L1066.3594,572.7969 Z " fill="#000000"/><text fill="#000000" font-family="sans-serif" font-size="14" lengthAdjust="spacing" textLength="99" x="1081.5" y="577.7969">ChannelControl</text><line style="stroke:#D4AC0D;stroke-width:2.0;" x1="1053.5" x2="1182.5" y1="588" y2="588"/><text fill="#000000" font-family="sans-serif" font-size="14" lengthAdjust="spacing" textLength="82" x="1058.5" y="607.1074">KEEP_OPEN</text><text fill="#000000" font-family="sans-serif" font-size="14" lengthAdjust="spacing" textLength="101" x="1058.5" y="625.7285">CLOSE_AFTER</text><line style="stroke:#D4AC0D;stroke-width:2.0;" x1="1053.5" x2="1182.5" y1="633.2422" y2="633.2422"/></g><!--class TransmitCardRequestCmdBody--><g id="elem_TransmitCardRequestCmdBody"><rect codeLine="169" fill="#E9F7EF" height="103.8633" id="TransmitCardRequestCmdBody" rx="2.5" ry="2.5" style="stroke:#27AE60;stroke-width:2.0;" width="332" x="1074" y="382"/><ellipse cx="1135.75" cy="398" fill="#ADD1B2" rx="11" ry="11" style="stroke:#181818;stroke-width:1.0;"/><path d="M1138.5156,393.875 Q1138.6719,393.6563 1138.8594,393.5469 Q1139.0469,393.4375 1139.2656,393.4375 Q1139.6406,393.4375 1139.875,393.7031 Q1140.1094,393.9531 1140.1094,394.5625 L1140.1094,396.0156 Q1140.1094,396.625 1139.875,396.8906 Q1139.6406,397.1563 1139.2656,397.1563 Q1138.9219,397.1563 1138.7188,396.9531 Q1138.5156,396.7656 1138.4063,396.25 Q1138.3594,395.8906 1138.1719,395.7031 Q1137.8438,395.3281 1137.2344,395.1094 Q1136.625,394.8906 1136,394.8906 Q1135.2344,394.8906 1134.5938,395.2188 Q1133.9688,395.5469 1133.4688,396.2969 Q1132.9844,397.0469 1132.9844,398.0781 L1132.9844,399.1719 Q1132.9844,400.4063 1133.875,401.2344 Q1134.7656,402.0469 1136.3594,402.0469 Q1137.2969,402.0469 1137.9531,401.7969 Q1138.3438,401.6406 1138.7656,401.2031 Q1139.0313,400.9375 1139.1719,400.8594 Q1139.3281,400.7813 1139.5313,400.7813 Q1139.8594,400.7813 1140.1094,401.0469 Q1140.375,401.2969 1140.375,401.6406 Q1140.375,401.9844 1140.0313,402.3906 Q1139.5313,402.9688 1138.7344,403.2969 Q1137.6563,403.75 1136.3594,403.75 Q1134.8438,403.75 1133.6406,403.125 Q1132.6563,402.625 1131.9688,401.5625 Q1131.2813,400.4844 1131.2813,399.2031 L1131.2813,398.0469 Q1131.2813,396.7188 1131.8906,395.5781 Q1132.5156,394.4219 1133.6094,393.8125 Q1134.7031,393.1875 1135.9375,393.1875 Q1136.6719,393.1875 1137.3125,393.3594 Q1137.9688,393.5156 1138.5156,393.875 Z " fill="#000000"/><text fill="#000000" font-family="sans-serif" font-size="14" lengthAdjust="spacing" textLength="200" x="1156.25" y="403.7969">TransmitCardRequestCmdBody</text><line style="stroke:#27AE60;stroke-width:2.0;" x1="1075" x2="1405" y1="414" y2="414"/><text fill="#000000" font-family="sans-serif" font-size="14" font-weight="bold" lengthAdjust="spacing" textLength="53" x="1080" y="433.1074">service</text><text fill="#000000" font-family="sans-serif" font-size="14" lengthAdjust="spacing" textLength="66" x="1137" y="433.1074">: String = "</text><text fill="#000000" font-family="sans-serif" font-size="14" font-weight="bold" lengthAdjust="spacing" textLength="192" x="1203" y="433.1074">TRANSMIT_CARD_REQUEST</text><text fill="#000000" font-family="sans-serif" font-size="14" lengthAdjust="spacing" textLength="5" x="1395" y="433.1074">"</text><text fill="#000000" font-family="sans-serif" font-size="14" font-weight="bold" lengthAdjust="spacing" textLength="108" x="1080" y="451.7285">channelControl</text><text fill="#000000" font-family="sans-serif" font-size="14" lengthAdjust="spacing" textLength="107" x="1192" y="451.7285">: ChannelControl</text><text fill="#000000" font-family="sans-serif" font-size="14" font-weight="bold" lengthAdjust="spacing" textLength="90" x="1080" y="470.3496">cardRequest</text><text fill="#000000" font-family="sans-serif" font-size="14" lengthAdjust="spacing" textLength="92" x="1174" y="470.3496">: CardRequest</text><line style="stroke:#27AE60;stroke-width:2.0;" x1="1075" x2="1405" y1="477.8633" y2="477.8633"/></g><!--reverse link CmdBody to IsContactlessCmdBody--><g id="link_CmdBody_IsContactlessCmdBody"><path d="M394.6,318.25 C341.28,342.09 266.02,375.75 210.79,400.45 " fill="none" id="CmdBody-backto-IsContactlessCmdBody" style="stroke:#181818;stroke-width:2.0;"/><polygon fill="none" points="392.06,311.71,413.18,309.94,397.78,324.49,392.06,311.71" style="stroke:#181818;stroke-width:2.0;"/></g><!--reverse link CmdBody to IsCardPresentCmdBody--><g id="link_CmdBody_IsCardPresentCmdBody"><path d="M454,332.19 C450.97,354.03 447.35,380.1 444.55,400.26 " fill="none" id="CmdBody-backto-IsCardPresentCmdBody" style="stroke:#181818;stroke-width:2.0;"/><polygon fill="none" points="447.1,330.98,456.79,312.14,460.97,332.91,447.1,330.98" style="stroke:#181818;stroke-width:2.0;"/></g><!--reverse link CmdBody to TransmitCardSelectionRequestsCmdBody--><g id="link_CmdBody_TransmitCardSelectionRequestsCmdBody"><path d="M525.32,314.77 C566.44,330.99 621.32,352.65 672.88,372.98 " fill="none" id="CmdBody-backto-TransmitCardSelectionRequestsCmdBody" style="stroke:#181818;stroke-width:2.0;"/><polygon fill="none" points="522.63,321.24,506.6,307.38,527.77,308.21,522.63,321.24" style="stroke:#181818;stroke-width:2.0;"/></g><!--reverse link CmdBody to TransmitCardRequestCmdBody--><g id="link_CmdBody_TransmitCardRequestCmdBody"><path d="M526.82,294.57 C637.8,304.67 866.64,329.14 1056,373 C1067.46,375.65 1079.22,378.7 1090.99,381.99 " fill="none" id="CmdBody-backto-TransmitCardRequestCmdBody" style="stroke:#181818;stroke-width:2.0;"/><polygon fill="none" points="526.18,301.54,506.88,292.79,527.42,287.59,526.18,301.54" style="stroke:#181818;stroke-width:2.0;"/></g><!--reverse link CmdData to CmdBody--><g id="link_CmdData_CmdBody"><path codeLine="136" d="M460,198.29 C460,222.82 460,246.79 460,263.62 " fill="none" id="CmdData-backto-CmdBody" style="stroke:#3498DB;stroke-width:2.0;"/><polygon fill="#3498DB" points="460,185.05,456,191.05,460,197.05,464,191.05,460,185.05" style="stroke:#3498DB;stroke-width:2.0;"/><text fill="#000000" font-family="sans-serif" font-size="13" lengthAdjust="spacing" textLength="61" x="461" y="230.0283">JsonString</text><text fill="#000000" font-family="sans-serif" font-size="13" lengthAdjust="spacing" textLength="7" x="452.1469" y="252.6693">1</text></g><!--reverse link TransmitCardSelectionRequestsCmdBody to CardSelectionRequest--><g id="link_TransmitCardSelectionRequestsCmdBody_CardSelectionRequest"><path codeLine="138" d="M862.01,506.6 C870.73,523.47 879.75,540.91 887.52,555.94 " fill="none" id="TransmitCardSelectionRequestsCmdBody-backto-CardSelectionRequest" style="stroke:#3498DB;stroke-width:2.0;"/><polygon fill="#3498DB" points="856.04,495.05,855.2441,502.2171,861.5538,505.7082,862.3496,498.5412,856.04,495.05" style="stroke:#3498DB;stroke-width:2.0;"/><text fill="#000000" font-family="sans-serif" font-size="13" lengthAdjust="spacing" textLength="7" x="876.5388" y="544.8345">1</text></g><!--reverse link TransmitCardSelectionRequestsCmdBody to MultiSelectionProcessing--><g id="link_TransmitCardSelectionRequestsCmdBody_MultiSelectionProcessing"><path codeLine="139" d="M761.13,504.66 C745.11,522.13 728.42,540.33 714.11,555.94 " fill="none" id="TransmitCardSelectionRequestsCmdBody-backto-MultiSelectionProcessing" style="stroke:#3498DB;stroke-width:2.0;"/><polygon fill="#3498DB" points="769.94,495.05,762.9372,496.7705,761.8319,503.8964,768.8347,502.1759,769.94,495.05" style="stroke:#3498DB;stroke-width:2.0;"/><text fill="#000000" font-family="sans-serif" font-size="13" lengthAdjust="spacing" textLength="7" x="712.626" y="544.8345">1</text></g><!--reverse link TransmitCardSelectionRequestsCmdBody to ChannelControl--><g id="link_TransmitCardSelectionRequestsCmdBody_ChannelControl"><path codeLine="140" d="M945.08,501.59 C981.72,521.92 1020.65,543.51 1052.27,561.05 " fill="none" id="TransmitCardSelectionRequestsCmdBody-backto-ChannelControl" style="stroke:#3498DB;stroke-width:2.0;"/><polygon fill="#3498DB" points="933.27,495.05,936.5737,501.4598,943.7611,500.8755,940.4574,494.4657,933.27,495.05" style="stroke:#3498DB;stroke-width:2.0;"/><text fill="#000000" font-family="sans-serif" font-size="13" lengthAdjust="spacing" textLength="7" x="1037.698" y="553.0552">1</text></g><!--reverse link CardSelectionRequest to CardSelector--><g id="link_CardSelectionRequest_CardSelector"><path codeLine="142" d="M904.77,654.35 C903.62,669.26 902.35,685.72 901.12,701.7 " fill="none" id="CardSelectionRequest-backto-CardSelector" style="stroke:#3498DB;stroke-width:2.0;"/><polygon fill="#3498DB" points="905.79,641.14,901.3402,646.8144,904.8666,653.1044,909.3164,647.43,905.79,641.14" style="stroke:#3498DB;stroke-width:2.0;"/><text fill="#000000" font-family="sans-serif" font-size="13" lengthAdjust="spacing" textLength="7" x="894.3533" y="690.8447">1</text></g><!--reverse link CardSelectionRequest to CardRequest--><g id="link_CardSelectionRequest_CardRequest"><path codeLine="143" d="M996.53,647.49 C1048.67,676.08 1114.19,712.02 1164.13,739.4 " fill="none" id="CardSelectionRequest-backto-CardRequest" style="stroke:#3498DB;stroke-width:2.0;stroke-dasharray:7.0,7.0;"/><polygon fill="#3498DB" points="984.94,641.14,988.2813,647.5303,995.4652,646.9038,992.1238,640.5135,984.94,641.14" style="stroke:#3498DB;stroke-width:2.0;"/><text fill="#000000" font-family="sans-serif" font-size="13" lengthAdjust="spacing" textLength="22" x="1128.2851" y="728.2881">0..1</text></g><!--reverse link CardSelector to FileOccurrence--><g id="link_CardSelector_FileOccurrence"><path codeLine="145" d="M836.03,873.03 C825.01,889.86 813.74,907.07 803.48,922.73 " fill="none" id="CardSelector-backto-FileOccurrence" style="stroke:#3498DB;stroke-width:2.0;"/><polygon fill="#3498DB" points="843.23,862.05,836.5975,864.8802,836.6591,872.0911,843.2916,869.2608,843.23,862.05" style="stroke:#3498DB;stroke-width:2.0;"/><text fill="#000000" font-family="sans-serif" font-size="13" lengthAdjust="spacing" textLength="7" x="800.6402" y="911.68">1</text></g><!--reverse link CardSelector to FileControlInformation--><g id="link_CardSelector_FileControlInformation"><path codeLine="146" d="M919.83,874.95 C924.21,891.17 928.66,907.66 932.73,922.73 " fill="none" id="CardSelector-backto-FileControlInformation" style="stroke:#3498DB;stroke-width:2.0;"/><polygon fill="#3498DB" points="916.34,862.05,914.0418,868.8851,919.4673,873.6353,921.7654,866.8003,916.34,862.05" style="stroke:#3498DB;stroke-width:2.0;"/><text fill="#000000" font-family="sans-serif" font-size="13" lengthAdjust="spacing" textLength="7" x="923.4441" y="911.68">1</text></g><!--reverse link CardRequest to ApduRequest--><g id="link_CardRequest_ApduRequest"><path codeLine="148" d="M1240,838.3 C1240,867.57 1240,903.28 1240,931.9 " fill="none" id="CardRequest-backto-ApduRequest" style="stroke:#3498DB;stroke-width:2.0;"/><polygon fill="#3498DB" points="1240,824.93,1236,830.93,1240,836.93,1244,830.93,1240,824.93" style="stroke:#3498DB;stroke-width:2.0;"/><text fill="#000000" font-family="sans-serif" font-size="13" lengthAdjust="spacing" textLength="24" x="1214.3875" y="920.8139">1..N</text></g><!--reverse link TransmitCardRequestCmdBody to ChannelControl--><g id="link_TransmitCardRequestCmdBody_ChannelControl"><path codeLine="150" d="M1193.55,496.87 C1178.73,516.61 1162.69,537.97 1149.22,555.92 " fill="none" id="TransmitCardRequestCmdBody-backto-ChannelControl" style="stroke:#3498DB;stroke-width:2.0;"/><polygon fill="#3498DB" points="1201.4,486.42,1194.6,488.82,1194.2,496.02,1201,493.62,1201.4,486.42" style="stroke:#3498DB;stroke-width:2.0;"/><text fill="#000000" font-family="sans-serif" font-size="13" lengthAdjust="spacing" textLength="7" x="1146.6379" y="544.8113">1</text></g><!--reverse link TransmitCardRequestCmdBody to CardRequest--><g id="link_TransmitCardRequestCmdBody_CardRequest"><path codeLine="151" d="M1240,499.08 C1240,569.19 1240,679.53 1240,739.25 " fill="none" id="TransmitCardRequestCmdBody-backto-CardRequest" style="stroke:#3498DB;stroke-width:2.0;"/><polygon fill="#3498DB" points="1240,486.05,1236,492.05,1240,498.05,1244,492.05,1240,486.05" style="stroke:#3498DB;stroke-width:2.0;"/><text fill="#000000" font-family="sans-serif" font-size="13" lengthAdjust="spacing" textLength="7" x="1232.4422" y="728.1142">1</text></g><!--SRC=[jLPTSzf657tNhzYI1oVCW6t08MJoCK9Q9IHOeaXkw-bq65bQ6zLYb-wkx32T_FTUIOkGG83ZjhmWtJttdBqVUxKdCf8nqKuG_BwIrJ8co8o4vD5D8ac8lhYEZVJ9A0S4RB6C8vzAz1Z9EMhSPmujGVX3593Md_w3tugZcmPw85n4ZA9E-xpTotsDInEzx9nrkgspRglJUQMT41gYN1qGxzyZxpE-nF00hmPBOf9mWI8X4Y9GID1RD9ToATwUdixb8WvOp7Z0GYBQiAdJMtug_PkO-4ah9AqWzwunmQE8xcXh6VloLFif9BSH9SYOVPhYwtDalR46rc3Bt45Mn-fQlIrp5-4BtCVRw1uo- -RGDBVC5yZG3SliR9bVew5fT8r-oJmUsLzHjpTuOmvBrYiNeqvVnw_FqborMiYLgnZo8kU-H26Z9r0Hnk_pib3oM1I0tIA8bSfa4OER9kuZklIvlq124awON2s9FcGy9Dn8CufUw0FJCArQuAW27FRqFhwe1HfLHjCy7tPgWRW2nCD15wIp-B1jflijUHcnBqIEz-PHS4-94AXCgtFE7ijBm7HDufWzxh3umVqTPmaDbRA5BMpWUZ45CNkwSMO2vPI4H_ZUlUCa_F01Q4riOkC0RO74_HxqWJQFeD7NnasQG7MIS3XfHuMN6IpJxc73wX_Kte3Vu5vFDzVoXRsoWviuEQwVWh9uXjQ5DJoeleQgNbVQobfH_iG9eKUbxr9KfZsm-jWwg5rWrPbIuclpjlhgAUAhJ5k7FiB7j3Den-ZYYxBqgggSpqJ3iJriU_bKJ6Ue5gICo5Y4fYzzzBUMpjPcqmya7FTc4yQa2yERtg7tgD5iWaEpsL2O88u8bJOCpL5OGghLc0L-F2K-xDJs5sGNa4vvMDlZpic2INBONwGZgSxvXeMhp0fX3U5P-wxvD_0HWgXG4M-w0F5-JnCnScTfPdJ36sFNHIyXpbUGem_8TYOgGoDXC2g10UQaMBkJRnA-EcMwJMpm1Tl9NrKdJMKXhq_DsMIAtRGwU_Hz7auu4P3qVwDV4Yesu4rrsxqSUVcgYyVOy4QEFPlYdw-mwwcCg9rutATY4SbqFow9ITOgK_8NV5ZbipDpR0UbjgkJpQjTiwAS5aaies9jmbcGTW-zo_mkzook1US-fIHEoyzPd2jLJ913GfF5NXuLl3MQkjxiKlUCpzdxPEeOq0KpVJm61jMNDI4KkTj4plXMm8oNCCglWAZtZpKgy2agiyEU9GjKa7bvFghb9NiatA7fb9YIE_Aj1k97OOrL946QXziaBW9pfIyJyIkCCL5o-FqFvN4RnSG9WeHpGbMhM1LJ2QTACAAtZ2_yOcXPjKlhGbNPokN9diQwUh3nRvug5Vvbv5ovPO9T-ZMHCLB_a_mVfcp6va0tknF7Td6b4jjbzfTXKkbhVMCeSYGaMphqYfQoMoGrSneo1fTLMYYLI2fADOErXhAsJX64NYcuoaxrT2YrhnXFPiu4szcRCNPSFDCj3q_h9f0wzNl7ZWhalnasIgmqOOuU-ADdBGzA5u85KTORGjFMtzWct4SRvurYjo_KBVqj-YBIiv6LGdlIb2sewiQ6ulqnfhqpx5biMvsmvj1gzxiRJ7fHLYxr7kqsQforsyffEt2jmhIctphykm9Rs9fpNX6eRh_TjXkLirPW3_JlaNGznRCk_Ep6DzQldQlrXG_UNUzwZFVU_ufBwxuBqmRmlrmRDlG7leVxGL2wkiLzZkKw7GZi1wTHXUdPLxiTbkVSJpSa_m00]--></g></svg>