<?xml version="1.0" encoding="us-ascii" standalone="no"?><svg xmlns="http://www.w3.org/2000/svg" xmlns:xlink="http://www.w3.org/1999/xlink" contentStyleType="text/css" height="1217px" preserveAspectRatio="none" style="width:1425px;height:1217px;background:#FFFFFF;" version="1.1" viewBox="0 0 1425 1217" width="1425px" zoomAndPan="magnify"><defs/><g><!--class CmdData--><g id="elem_CmdData"><rect codeLine="170" fill="#E9F7EF" height="178.3477" id="CmdData" rx="2.5" ry="2.5" style="stroke:#27AE60;stroke-width:2.0;" width="201" x="445.5" y="7"/><ellipse cx="512.25" cy="23" fill="#ADD1B2" rx="11" ry="11" style="stroke:#181818;stroke-width:1.0;"/><path d="M515.0156,18.875 Q515.1719,18.6563 515.3594,18.5469 Q515.5469,18.4375 515.7656,18.4375 Q516.1406,18.4375 516.375,18.7031 Q516.6094,18.9531 516.6094,19.5625 L516.6094,21.0156 Q516.6094,21.625 516.375,21.8906 Q516.1406,22.1563 515.7656,22.1563 Q515.4219,22.1563 515.2188,21.9531 Q515.0156,21.7656 514.9063,21.25 Q514.8594,20.8906 514.6719,20.7031 Q514.3438,20.3281 513.7344,20.1094 Q513.125,19.8906 512.5,19.8906 Q511.7344,19.8906 511.0938,20.2188 Q510.4688,20.5469 509.9688,21.2969 Q509.4844,22.0469 509.4844,23.0781 L509.4844,24.1719 Q509.4844,25.4063 510.375,26.2344 Q511.2656,27.0469 512.8594,27.0469 Q513.7969,27.0469 514.4531,26.7969 Q514.8438,26.6406 515.2656,26.2031 Q515.5313,25.9375 515.6719,25.8594 Q515.8281,25.7813 516.0313,25.7813 Q516.3594,25.7813 516.6094,26.0469 Q516.875,26.2969 516.875,26.6406 Q516.875,26.9844 516.5313,27.3906 Q516.0313,27.9688 515.2344,28.2969 Q514.1563,28.75 512.8594,28.75 Q511.3438,28.75 510.1406,28.125 Q509.1563,27.625 508.4688,26.5625 Q507.7813,25.4844 507.7813,24.2031 L507.7813,23.0469 Q507.7813,21.7188 508.3906,20.5781 Q509.0156,19.4219 510.1094,18.8125 Q511.2031,18.1875 512.4375,18.1875 Q513.1719,18.1875 513.8125,18.3594 Q514.4688,18.5156 515.0156,18.875 Z " fill="#000000"/><text fill="#000000" font-family="sans-serif" font-size="14" lengthAdjust="spacing" textLength="59" x="532.75" y="28.7969">CmdData</text><line style="stroke:#27AE60;stroke-width:2.0;" x1="446.5" x2="645.5" y1="39" y2="39"/><text fill="#000000" font-family="sans-serif" font-size="14" font-weight="bold" lengthAdjust="spacing" textLength="43" x="451.5" y="58.1074">action</text><text fill="#000000" font-family="sans-serif" font-size="14" lengthAdjust="spacing" textLength="66" x="498.5" y="58.1074">: String = "</text><text fill="#000000" font-family="sans-serif" font-size="14" font-weight="bold" lengthAdjust="spacing" textLength="33" x="564.5" y="58.1074">CMD</text><text fill="#000000" font-family="sans-serif" font-size="14" lengthAdjust="spacing" textLength="5" x="597.5" y="58.1074">"</text><text fill="#000000" font-family="sans-serif" font-size="14" font-weight="bold" lengthAdjust="spacing" textLength="89" x="451.5" y="76.7285">clientNodeId</text><text fill="#000000" font-family="sans-serif" font-size="14" lengthAdjust="spacing" textLength="45" x="544.5" y="76.7285">: String</text><text fill="#000000" font-family="sans-serif" font-size="14" font-weight="bold" lengthAdjust="spacing" textLength="123" x="451.5" y="95.3496">localReaderName</text><text fill="#000000" font-family="sans-serif" font-size="14" lengthAdjust="spacing" textLength="45" x="578.5" y="95.3496">: String</text><text fill="#000000" font-family="sans-serif" font-size="14" font-weight="bold" lengthAdjust="spacing" textLength="97" x="451.5" y="113.9707">serverNodeId</text><text fill="#000000" font-family="sans-serif" font-size="14" lengthAdjust="spacing" textLength="45" x="552.5" y="113.9707">: String</text><text fill="#000000" font-family="sans-serif" font-size="14" font-weight="bold" lengthAdjust="spacing" textLength="140" x="451.5" y="132.5918">remoteReaderName</text><text fill="#000000" font-family="sans-serif" font-size="14" lengthAdjust="spacing" textLength="45" x="595.5" y="132.5918">: String</text><text fill="#000000" font-family="sans-serif" font-size="14" font-weight="bold" lengthAdjust="spacing" textLength="68" x="451.5" y="151.2129">sessionId</text><text fill="#000000" font-family="sans-serif" font-size="14" lengthAdjust="spacing" textLength="45" x="523.5" y="151.2129">: String</text><text fill="#000000" font-family="sans-serif" font-size="14" font-weight="bold" lengthAdjust="spacing" textLength="34" x="451.5" y="169.834">body</text><text fill="#000000" font-family="sans-serif" font-size="14" lengthAdjust="spacing" textLength="69" x="489.5" y="169.834">: CmdBody</text><line style="stroke:#27AE60;stroke-width:2.0;" x1="446.5" x2="645.5" y1="177.3477" y2="177.3477"/></g><!--class CmdBody--><g id="elem_CmdBody"><rect codeLine="171" fill="#E9F7EF" height="85.2422" id="CmdBody" rx="2.5" ry="2.5" style="stroke:#27AE60;stroke-width:2.0;" width="153" x="469.5" y="264"/><ellipse cx="511.5" cy="280" fill="#A9DCDF" rx="11" ry="11" style="stroke:#181818;stroke-width:1.0;"/><path d="M513.6875,281.7656 L509.5469,281.7656 L509.125,282.7969 L509.5469,282.7969 Q510.1563,282.7969 510.4219,283.0313 Q510.6875,283.2656 510.6875,283.6563 Q510.6875,284.0313 510.4219,284.2656 Q510.1563,284.5 509.5469,284.5 L507.25,284.5 Q506.6406,284.5 506.3906,284.2656 Q506.125,284.0313 506.125,283.6406 Q506.125,283.2656 506.4063,283.0313 Q506.6719,282.7813 507.2969,282.7969 L509.9688,276.1406 L508.8594,276.1406 Q508.25,276.1406 507.9844,275.9063 Q507.7188,275.6719 507.7188,275.2813 Q507.7188,274.9063 507.9844,274.6719 Q508.25,274.4375 508.8594,274.4375 L512.5313,274.4375 L515.9219,282.7969 Q516.5156,282.7969 516.7031,282.9375 Q517.0938,283.2031 517.0938,283.6563 Q517.0938,284.0313 516.8281,284.2656 Q516.5781,284.5 515.9688,284.5 L513.6719,284.5 Q513.0625,284.5 512.7969,284.2656 Q512.5313,284.0313 512.5313,283.6406 Q512.5313,283.2656 512.7969,283.0313 Q513.0625,282.7969 513.6719,282.7969 L514.0938,282.7969 L513.6875,281.7656 Z M512.9688,280.0625 L511.6094,276.6875 L510.2344,280.0625 L512.9688,280.0625 Z " fill="#000000"/><text fill="#000000" font-family="sans-serif" font-size="14" font-style="italic" lengthAdjust="spacing" textLength="61" x="531.5" y="285.7969">CmdBody</text><line style="stroke:#27AE60;stroke-width:2.0;" x1="470.5" x2="621.5" y1="296" y2="296"/><text fill="#000000" font-family="sans-serif" font-size="14" font-weight="bold" lengthAdjust="spacing" textLength="53" x="475.5" y="315.1074">service</text><text fill="#000000" font-family="sans-serif" font-size="14" lengthAdjust="spacing" textLength="45" x="532.5" y="315.1074">: String</text><text fill="#000000" font-family="sans-serif" font-size="14" font-weight="bold" lengthAdjust="spacing" textLength="80" x="475.5" y="333.7285">parameters</text><text fill="#000000" font-family="sans-serif" font-size="14" lengthAdjust="spacing" textLength="57" x="559.5" y="333.7285">: Object?</text><line style="stroke:#27AE60;stroke-width:2.0;" x1="470.5" x2="621.5" y1="341.2422" y2="341.2422"/></g><!--class IsContactlessCmdBody--><g id="elem_IsContactlessCmdBody"><rect codeLine="189" fill="#E9F7EF" height="66.6211" id="IsContactlessCmdBody" rx="2.5" ry="2.5" style="stroke:#27AE60;stroke-width:2.0;" width="262" x="7" y="419"/><ellipse cx="61.25" cy="435" fill="#ADD1B2" rx="11" ry="11" style="stroke:#181818;stroke-width:1.0;"/><path d="M64.0156,430.875 Q64.1719,430.6563 64.3594,430.5469 Q64.5469,430.4375 64.7656,430.4375 Q65.1406,430.4375 65.375,430.7031 Q65.6094,430.9531 65.6094,431.5625 L65.6094,433.0156 Q65.6094,433.625 65.375,433.8906 Q65.1406,434.1563 64.7656,434.1563 Q64.4219,434.1563 64.2188,433.9531 Q64.0156,433.7656 63.9063,433.25 Q63.8594,432.8906 63.6719,432.7031 Q63.3438,432.3281 62.7344,432.1094 Q62.125,431.8906 61.5,431.8906 Q60.7344,431.8906 60.0938,432.2188 Q59.4688,432.5469 58.9688,433.2969 Q58.4844,434.0469 58.4844,435.0781 L58.4844,436.1719 Q58.4844,437.4063 59.375,438.2344 Q60.2656,439.0469 61.8594,439.0469 Q62.7969,439.0469 63.4531,438.7969 Q63.8438,438.6406 64.2656,438.2031 Q64.5313,437.9375 64.6719,437.8594 Q64.8281,437.7813 65.0313,437.7813 Q65.3594,437.7813 65.6094,438.0469 Q65.875,438.2969 65.875,438.6406 Q65.875,438.9844 65.5313,439.3906 Q65.0313,439.9688 64.2344,440.2969 Q63.1563,440.75 61.8594,440.75 Q60.3438,440.75 59.1406,440.125 Q58.1563,439.625 57.4688,438.5625 Q56.7813,437.4844 56.7813,436.2031 L56.7813,435.0469 Q56.7813,433.7188 57.3906,432.5781 Q58.0156,431.4219 59.1094,430.8125 Q60.2031,430.1875 61.4375,430.1875 Q62.1719,430.1875 62.8125,430.3594 Q63.4688,430.5156 64.0156,430.875 Z " fill="#000000"/><text fill="#000000" font-family="sans-serif" font-size="14" lengthAdjust="spacing" textLength="145" x="81.75" y="440.7969">IsContactlessCmdBody</text><line style="stroke:#27AE60;stroke-width:2.0;" x1="8" x2="268" y1="451" y2="451"/><text fill="#000000" font-family="sans-serif" font-size="14" font-weight="bold" lengthAdjust="spacing" textLength="53" x="13" y="470.1074">service</text><text fill="#000000" font-family="sans-serif" font-size="14" lengthAdjust="spacing" textLength="66" x="70" y="470.1074">: String = "</text><text fill="#000000" font-family="sans-serif" font-size="14" font-weight="bold" lengthAdjust="spacing" textLength="122" x="136" y="470.1074">IS_CONTACTLESS</text><text fill="#000000" font-family="sans-serif" font-size="14" lengthAdjust="spacing" textLength="5" x="258" y="470.1074">"</text><line style="stroke:#27AE60;stroke-width:2.0;" x1="8" x2="268" y1="477.6211" y2="477.6211"/></g><!--class IsCardPresentCmdBody--><g id="elem_IsCardPresentCmdBody"><rect codeLine="186" fill="#E9F7EF" height="66.6211" id="IsCardPresentCmdBody" rx="2.5" ry="2.5" style="stroke:#27AE60;stroke-width:2.0;" width="272" x="304" y="419"/><ellipse cx="360.25" cy="435" fill="#ADD1B2" rx="11" ry="11" style="stroke:#181818;stroke-width:1.0;"/><path d="M363.0156,430.875 Q363.1719,430.6563 363.3594,430.5469 Q363.5469,430.4375 363.7656,430.4375 Q364.1406,430.4375 364.375,430.7031 Q364.6094,430.9531 364.6094,431.5625 L364.6094,433.0156 Q364.6094,433.625 364.375,433.8906 Q364.1406,434.1563 363.7656,434.1563 Q363.4219,434.1563 363.2188,433.9531 Q363.0156,433.7656 362.9063,433.25 Q362.8594,432.8906 362.6719,432.7031 Q362.3438,432.3281 361.7344,432.1094 Q361.125,431.8906 360.5,431.8906 Q359.7344,431.8906 359.0938,432.2188 Q358.4688,432.5469 357.9688,433.2969 Q357.4844,434.0469 357.4844,435.0781 L357.4844,436.1719 Q357.4844,437.4063 358.375,438.2344 Q359.2656,439.0469 360.8594,439.0469 Q361.7969,439.0469 362.4531,438.7969 Q362.8438,438.6406 363.2656,438.2031 Q363.5313,437.9375 363.6719,437.8594 Q363.8281,437.7813 364.0313,437.7813 Q364.3594,437.7813 364.6094,438.0469 Q364.875,438.2969 364.875,438.6406 Q364.875,438.9844 364.5313,439.3906 Q364.0313,439.9688 363.2344,440.2969 Q362.1563,440.75 360.8594,440.75 Q359.3438,440.75 358.1406,440.125 Q357.1563,439.625 356.4688,438.5625 Q355.7813,437.4844 355.7813,436.2031 L355.7813,435.0469 Q355.7813,433.7188 356.3906,432.5781 Q357.0156,431.4219 358.1094,430.8125 Q359.2031,430.1875 360.4375,430.1875 Q361.1719,430.1875 361.8125,430.3594 Q362.4688,430.5156 363.0156,430.875 Z " fill="#000000"/><text fill="#000000" font-family="sans-serif" font-size="14" lengthAdjust="spacing" textLength="151" x="380.75" y="440.7969">IsCardPresentCmdBody</text><line style="stroke:#27AE60;stroke-width:2.0;" x1="305" x2="575" y1="451" y2="451"/><text fill="#000000" font-family="sans-serif" font-size="14" font-weight="bold" lengthAdjust="spacing" textLength="53" x="310" y="470.1074">service</text><text fill="#000000" font-family="sans-serif" font-size="14" lengthAdjust="spacing" textLength="66" x="367" y="470.1074">: String = "</text><text fill="#000000" font-family="sans-serif" font-size="14" font-weight="bold" lengthAdjust="spacing" textLength="132" x="433" y="470.1074">IS_CARD_PRESENT</text><text fill="#000000" font-family="sans-serif" font-size="14" lengthAdjust="spacing" textLength="5" x="565" y="470.1074">"</text><line style="stroke:#27AE60;stroke-width:2.0;" x1="305" x2="575" y1="477.6211" y2="477.6211"/></g><!--class TransmitCardSelectionRequestsCmdBody--><g id="elem_TransmitCardSelectionRequestsCmdBody"><rect codeLine="174" fill="#E9F7EF" height="85.2422" id="TransmitCardSelectionRequestsCmdBody" rx="2.5" ry="2.5" style="stroke:#27AE60;stroke-width:2.0;" width="427" x="611.5" y="410"/><ellipse cx="688.25" cy="426" fill="#ADD1B2" rx="11" ry="11" style="stroke:#181818;stroke-width:1.0;"/><path d="M691.0156,421.875 Q691.1719,421.6563 691.3594,421.5469 Q691.5469,421.4375 691.7656,421.4375 Q692.1406,421.4375 692.375,421.7031 Q692.6094,421.9531 692.6094,422.5625 L692.6094,424.0156 Q692.6094,424.625 692.375,424.8906 Q692.1406,425.1563 691.7656,425.1563 Q691.4219,425.1563 691.2188,424.9531 Q691.0156,424.7656 690.9063,424.25 Q690.8594,423.8906 690.6719,423.7031 Q690.3438,423.3281 689.7344,423.1094 Q689.125,422.8906 688.5,422.8906 Q687.7344,422.8906 687.0938,423.2188 Q686.4688,423.5469 685.9688,424.2969 Q685.4844,425.0469 685.4844,426.0781 L685.4844,427.1719 Q685.4844,428.4063 686.375,429.2344 Q687.2656,430.0469 688.8594,430.0469 Q689.7969,430.0469 690.4531,429.7969 Q690.8438,429.6406 691.2656,429.2031 Q691.5313,428.9375 691.6719,428.8594 Q691.8281,428.7813 692.0313,428.7813 Q692.3594,428.7813 692.6094,429.0469 Q692.875,429.2969 692.875,429.6406 Q692.875,429.9844 692.5313,430.3906 Q692.0313,430.9688 691.2344,431.2969 Q690.1563,431.75 688.8594,431.75 Q687.3438,431.75 686.1406,431.125 Q685.1563,430.625 684.4688,429.5625 Q683.7813,428.4844 683.7813,427.2031 L683.7813,426.0469 Q683.7813,424.7188 684.3906,423.5781 Q685.0156,422.4219 686.1094,421.8125 Q687.2031,421.1875 688.4375,421.1875 Q689.1719,421.1875 689.8125,421.3594 Q690.4688,421.5156 691.0156,421.875 Z " fill="#000000"/><text fill="#000000" font-family="sans-serif" font-size="14" lengthAdjust="spacing" textLength="265" x="708.75" y="431.7969">TransmitCardSelectionRequestsCmdBody</text><line style="stroke:#27AE60;stroke-width:2.0;" x1="612.5" x2="1037.5" y1="442" y2="442"/><text fill="#000000" font-family="sans-serif" font-size="14" font-weight="bold" lengthAdjust="spacing" textLength="53" x="617.5" y="461.1074">service</text><text fill="#000000" font-family="sans-serif" font-size="14" lengthAdjust="spacing" textLength="66" x="674.5" y="461.1074">: String = "</text><text fill="#000000" font-family="sans-serif" font-size="14" font-weight="bold" lengthAdjust="spacing" textLength="287" x="740.5" y="461.1074">TRANSMIT_CARD_SELECTION_REQUESTS</text><text fill="#000000" font-family="sans-serif" font-size="14" lengthAdjust="spacing" textLength="5" x="1027.5" y="461.1074">"</text><text fill="#000000" font-family="sans-serif" font-size="14" font-weight="bold" lengthAdjust="spacing" textLength="80" x="617.5" y="479.7285">parameters</text><text fill="#000000" font-family="sans-serif" font-size="14" lengthAdjust="spacing" textLength="314" x="701.5" y="479.7285">: TransmitCardSelectionRequestsCmdParameters</text><line style="stroke:#27AE60;stroke-width:2.0;" x1="612.5" x2="1037.5" y1="487.2422" y2="487.2422"/></g><!--class TransmitCardSelectionRequestsCmdParameters--><g id="elem_TransmitCardSelectionRequestsCmdParameters"><rect codeLine="175" fill="#E9F7EF" height="103.8633" id="TransmitCardSelectionRequestsCmdParameters" rx="2.5" ry="2.5" style="stroke:#27AE60;stroke-width:2.0;" width="360" x="688" y="556"/><ellipse cx="712.9" cy="572" fill="#ADD1B2" rx="11" ry="11" style="stroke:#181818;stroke-width:1.0;"/><path d="M715.6656,567.875 Q715.8219,567.6563 716.0094,567.5469 Q716.1969,567.4375 716.4156,567.4375 Q716.7906,567.4375 717.025,567.7031 Q717.2594,567.9531 717.2594,568.5625 L717.2594,570.0156 Q717.2594,570.625 717.025,570.8906 Q716.7906,571.1563 716.4156,571.1563 Q716.0719,571.1563 715.8688,570.9531 Q715.6656,570.7656 715.5563,570.25 Q715.5094,569.8906 715.3219,569.7031 Q714.9938,569.3281 714.3844,569.1094 Q713.775,568.8906 713.15,568.8906 Q712.3844,568.8906 711.7438,569.2188 Q711.1188,569.5469 710.6188,570.2969 Q710.1344,571.0469 710.1344,572.0781 L710.1344,573.1719 Q710.1344,574.4063 711.025,575.2344 Q711.9156,576.0469 713.5094,576.0469 Q714.4469,576.0469 715.1031,575.7969 Q715.4938,575.6406 715.9156,575.2031 Q716.1813,574.9375 716.3219,574.8594 Q716.4781,574.7813 716.6813,574.7813 Q717.0094,574.7813 717.2594,575.0469 Q717.525,575.2969 717.525,575.6406 Q717.525,575.9844 717.1813,576.3906 Q716.6813,576.9688 715.8844,577.2969 Q714.8063,577.75 713.5094,577.75 Q711.9938,577.75 710.7906,577.125 Q709.8063,576.625 709.1188,575.5625 Q708.4313,574.4844 708.4313,573.2031 L708.4313,572.0469 Q708.4313,570.7188 709.0406,569.5781 Q709.6656,568.4219 710.7594,567.8125 Q711.8531,567.1875 713.0875,567.1875 Q713.8219,567.1875 714.4625,567.3594 Q715.1188,567.5156 715.6656,567.875 Z " fill="#000000"/><text fill="#000000" font-family="sans-serif" font-size="14" lengthAdjust="spacing" textLength="306" x="729.1" y="577.7969">TransmitCardSelectionRequestsCmdParameters</text><line style="stroke:#27AE60;stroke-width:2.0;" x1="689" x2="1047" y1="588" y2="588"/><text fill="#000000" font-family="sans-serif" font-size="14" font-weight="bold" lengthAdjust="spacing" textLength="179" x="694" y="607.1074">multiSelectionProcessing</text><text fill="#000000" font-family="sans-serif" font-size="14" lengthAdjust="spacing" textLength="165" x="877" y="607.1074">: MultiSelectionProcessing</text><text fill="#000000" font-family="sans-serif" font-size="14" font-weight="bold" lengthAdjust="spacing" textLength="108" x="694" y="625.7285">channelControl</text><text fill="#000000" font-family="sans-serif" font-size="14" lengthAdjust="spacing" textLength="107" x="806" y="625.7285">: ChannelControl</text><text fill="#000000" font-family="sans-serif" font-size="14" font-weight="bold" lengthAdjust="spacing" textLength="164" x="694" y="644.3496">cardSelectionRequests</text><text fill="#000000" font-family="sans-serif" font-size="14" lengthAdjust="spacing" textLength="158" x="862" y="644.3496">: CardSelectionRequest[]</text><line style="stroke:#27AE60;stroke-width:2.0;" x1="689" x2="1047" y1="651.8633" y2="651.8633"/></g><!--class MultiSelectionProcessing--><g id="elem_MultiSelectionProcessing"><rect codeLine="90" fill="#FEFECE" height="85.2422" id="MultiSelectionProcessing" rx="2.5" ry="2.5" style="stroke:#D4AC0D;stroke-width:2.0;" width="189" x="561.5" y="721"/><ellipse cx="576.5" cy="737" fill="#EB937F" rx="11" ry="11" style="stroke:#181818;stroke-width:1.0;"/><path d="M575.3594,737.7969 L575.3594,740.2969 L579.6875,740.2969 L579.6875,739.375 Q579.6875,738.7656 579.9219,738.5 Q580.1719,738.2344 580.5469,738.2344 Q580.9219,738.2344 581.1563,738.5 Q581.3906,738.7656 581.3906,739.375 L581.3906,742 L573.3906,742 Q572.7656,742 572.5,741.7656 Q572.25,741.5313 572.25,741.1406 Q572.25,740.7656 572.5156,740.5313 Q572.7813,740.2969 573.3906,740.2969 L573.6563,740.2969 L573.6563,733.6406 L573.3906,733.6406 Q572.7656,733.6406 572.5,733.4063 Q572.25,733.1719 572.25,732.7813 Q572.25,732.4063 572.5,732.1719 Q572.7656,731.9375 573.3906,731.9375 L581.0156,731.9375 L581.0156,734.5313 Q581.0156,735.1406 580.7813,735.4063 Q580.5625,735.6563 580.1719,735.6563 Q579.7969,735.6563 579.5625,735.4063 Q579.3281,735.1406 579.3281,734.5313 L579.3281,733.6406 L575.3594,733.6406 L575.3594,736.0938 L576.8438,736.0938 Q576.8438,735.4375 576.9688,735.25 Q577.2344,734.8438 577.7031,734.8438 Q578.0781,734.8438 578.3125,735.1094 Q578.5469,735.3594 578.5469,735.9688 L578.5469,737.9375 Q578.5469,738.4844 578.4219,738.6719 Q578.1563,739.0625 577.7031,739.0625 Q577.2344,739.0625 576.9688,738.6563 Q576.8438,738.4688 576.8438,737.7969 L575.3594,737.7969 Z " fill="#000000"/><text fill="#000000" font-family="sans-serif" font-size="14" lengthAdjust="spacing" textLength="157" x="590.5" y="742.7969">MultiSelectionProcessing</text><line style="stroke:#D4AC0D;stroke-width:2.0;" x1="562.5" x2="749.5" y1="753" y2="753"/><text fill="#000000" font-family="sans-serif" font-size="14" lengthAdjust="spacing" textLength="96" x="567.5" y="772.1074">FIRST_MATCH</text><text fill="#000000" font-family="sans-serif" font-size="14" lengthAdjust="spacing" textLength="100" x="567.5" y="790.7285">PROCESS_ALL</text><line style="stroke:#D4AC0D;stroke-width:2.0;" x1="562.5" x2="749.5" y1="798.2422" y2="798.2422"/></g><!--class CardSelectionRequest--><g id="elem_CardSelectionRequest"><rect codeLine="176" fill="#E9F7EF" height="85.2422" id="CardSelectionRequest" rx="2.5" ry="2.5" style="stroke:#27AE60;stroke-width:2.0;" width="206" x="786" y="721"/><ellipse cx="815.4" cy="737" fill="#ADD1B2" rx="11" ry="11" style="stroke:#181818;stroke-width:1.0;"/><path d="M818.1656,732.875 Q818.3219,732.6563 818.5094,732.5469 Q818.6969,732.4375 818.9156,732.4375 Q819.2906,732.4375 819.525,732.7031 Q819.7594,732.9531 819.7594,733.5625 L819.7594,735.0156 Q819.7594,735.625 819.525,735.8906 Q819.2906,736.1563 818.9156,736.1563 Q818.5719,736.1563 818.3688,735.9531 Q818.1656,735.7656 818.0563,735.25 Q818.0094,734.8906 817.8219,734.7031 Q817.4938,734.3281 816.8844,734.1094 Q816.275,733.8906 815.65,733.8906 Q814.8844,733.8906 814.2438,734.2188 Q813.6188,734.5469 813.1188,735.2969 Q812.6344,736.0469 812.6344,737.0781 L812.6344,738.1719 Q812.6344,739.4063 813.525,740.2344 Q814.4156,741.0469 816.0094,741.0469 Q816.9469,741.0469 817.6031,740.7969 Q817.9938,740.6406 818.4156,740.2031 Q818.6813,739.9375 818.8219,739.8594 Q818.9781,739.7813 819.1813,739.7813 Q819.5094,739.7813 819.7594,740.0469 Q820.025,740.2969 820.025,740.6406 Q820.025,740.9844 819.6813,741.3906 Q819.1813,741.9688 818.3844,742.2969 Q817.3063,742.75 816.0094,742.75 Q814.4938,742.75 813.2906,742.125 Q812.3063,741.625 811.6188,740.5625 Q810.9313,739.4844 810.9313,738.2031 L810.9313,737.0469 Q810.9313,735.7188 811.5406,734.5781 Q812.1656,733.4219 813.2594,732.8125 Q814.3531,732.1875 815.5875,732.1875 Q816.3219,732.1875 816.9625,732.3594 Q817.6188,732.5156 818.1656,732.875 Z " fill="#000000"/><text fill="#000000" font-family="sans-serif" font-size="14" lengthAdjust="spacing" textLength="142" x="832.6" y="742.7969">CardSelectionRequest</text><line style="stroke:#27AE60;stroke-width:2.0;" x1="787" x2="991" y1="753" y2="753"/><text fill="#000000" font-family="sans-serif" font-size="14" font-weight="bold" lengthAdjust="spacing" textLength="90" x="792" y="772.1074">cardSelector</text><text fill="#000000" font-family="sans-serif" font-size="14" lengthAdjust="spacing" textLength="91" x="886" y="772.1074">: CardSelector</text><text fill="#000000" font-family="sans-serif" font-size="14" font-weight="bold" lengthAdjust="spacing" textLength="90" x="792" y="790.7285">cardRequest</text><text fill="#000000" font-family="sans-serif" font-size="14" lengthAdjust="spacing" textLength="100" x="886" y="790.7285">: CardRequest?</text><line style="stroke:#27AE60;stroke-width:2.0;" x1="787" x2="991" y1="798.2422" y2="798.2422"/></g><!--class CardSelector--><g id="elem_CardSelector"><rect codeLine="177" fill="#E9F7EF" height="159.7266" id="CardSelector" rx="2.5" ry="2.5" style="stroke:#27AE60;stroke-width:2.0;" width="317" x="720.5" y="867"/><ellipse cx="833.25" cy="883" fill="#ADD1B2" rx="11" ry="11" style="stroke:#181818;stroke-width:1.0;"/><path d="M836.0156,878.875 Q836.1719,878.6563 836.3594,878.5469 Q836.5469,878.4375 836.7656,878.4375 Q837.1406,878.4375 837.375,878.7031 Q837.6094,878.9531 837.6094,879.5625 L837.6094,881.0156 Q837.6094,881.625 837.375,881.8906 Q837.1406,882.1563 836.7656,882.1563 Q836.4219,882.1563 836.2188,881.9531 Q836.0156,881.7656 835.9063,881.25 Q835.8594,880.8906 835.6719,880.7031 Q835.3438,880.3281 834.7344,880.1094 Q834.125,879.8906 833.5,879.8906 Q832.7344,879.8906 832.0938,880.2188 Q831.4688,880.5469 830.9688,881.2969 Q830.4844,882.0469 830.4844,883.0781 L830.4844,884.1719 Q830.4844,885.4063 831.375,886.2344 Q832.2656,887.0469 833.8594,887.0469 Q834.7969,887.0469 835.4531,886.7969 Q835.8438,886.6406 836.2656,886.2031 Q836.5313,885.9375 836.6719,885.8594 Q836.8281,885.7813 837.0313,885.7813 Q837.3594,885.7813 837.6094,886.0469 Q837.875,886.2969 837.875,886.6406 Q837.875,886.9844 837.5313,887.3906 Q837.0313,887.9688 836.2344,888.2969 Q835.1563,888.75 833.8594,888.75 Q832.3438,888.75 831.1406,888.125 Q830.1563,887.625 829.4688,886.5625 Q828.7813,885.4844 828.7813,884.2031 L828.7813,883.0469 Q828.7813,881.7188 829.3906,880.5781 Q830.0156,879.4219 831.1094,878.8125 Q832.2031,878.1875 833.4375,878.1875 Q834.1719,878.1875 834.8125,878.3594 Q835.4688,878.5156 836.0156,878.875 Z " fill="#000000"/><text fill="#000000" font-family="sans-serif" font-size="14" lengthAdjust="spacing" textLength="83" x="853.75" y="888.7969">CardSelector</text><line style="stroke:#27AE60;stroke-width:2.0;" x1="721.5" x2="1036.5" y1="899" y2="899"/><text fill="#000000" font-family="sans-serif" font-size="14" font-weight="bold" lengthAdjust="spacing" textLength="90" x="726.5" y="918.1074">cardProtocol</text><text fill="#000000" font-family="sans-serif" font-size="14" lengthAdjust="spacing" textLength="53" x="820.5" y="918.1074">: String?</text><text fill="#000000" font-family="sans-serif" font-size="14" font-weight="bold" lengthAdjust="spacing" textLength="140" x="726.5" y="936.7285">powerOnDataRegex</text><text fill="#000000" font-family="sans-serif" font-size="14" lengthAdjust="spacing" textLength="53" x="870.5" y="936.7285">: String?</text><text fill="#000000" font-family="sans-serif" font-size="14" font-weight="bold" lengthAdjust="spacing" textLength="21" x="726.5" y="955.3496">aid</text><text fill="#000000" font-family="sans-serif" font-size="14" lengthAdjust="spacing" textLength="53" x="751.5" y="955.3496">: String?</text><text fill="#000000" font-family="sans-serif" font-size="14" font-weight="bold" lengthAdjust="spacing" textLength="105" x="726.5" y="973.9707">fileOccurrence</text><text fill="#000000" font-family="sans-serif" font-size="14" lengthAdjust="spacing" textLength="105" x="835.5" y="973.9707">: FileOccurrence</text><text fill="#000000" font-family="sans-serif" font-size="14" font-weight="bold" lengthAdjust="spacing" textLength="154" x="726.5" y="992.5918">fileControlInformation</text><text fill="#000000" font-family="sans-serif" font-size="14" lengthAdjust="spacing" textLength="147" x="884.5" y="992.5918">: FileControlInformation</text><text fill="#000000" font-family="sans-serif" font-size="14" font-weight="bold" lengthAdjust="spacing" textLength="231" x="726.5" y="1011.2129">successfulSelectionStatusWords</text><text fill="#000000" font-family="sans-serif" font-size="14" lengthAdjust="spacing" textLength="53" x="961.5" y="1011.2129">: String[]</text><line style="stroke:#27AE60;stroke-width:2.0;" x1="721.5" x2="1036.5" y1="1018.7266" y2="1018.7266"/></g><!--class FileOccurrence--><g id="elem_FileOccurrence"><rect codeLine="106" fill="#FEFECE" height="122.4844" id="FileOccurrence" rx="2.5" ry="2.5" style="stroke:#D4AC0D;stroke-width:2.0;" width="129" x="683.5" y="1088"/><ellipse cx="698.5" cy="1104" fill="#EB937F" rx="11" ry="11" style="stroke:#181818;stroke-width:1.0;"/><path d="M697.3594,1104.7969 L697.3594,1107.2969 L701.6875,1107.2969 L701.6875,1106.375 Q701.6875,1105.7656 701.9219,1105.5 Q702.1719,1105.2344 702.5469,1105.2344 Q702.9219,1105.2344 703.1563,1105.5 Q703.3906,1105.7656 703.3906,1106.375 L703.3906,1109 L695.3906,1109 Q694.7656,1109 694.5,1108.7656 Q694.25,1108.5313 694.25,1108.1406 Q694.25,1107.7656 694.5156,1107.5313 Q694.7813,1107.2969 695.3906,1107.2969 L695.6563,1107.2969 L695.6563,1100.6406 L695.3906,1100.6406 Q694.7656,1100.6406 694.5,1100.4063 Q694.25,1100.1719 694.25,1099.7813 Q694.25,1099.4063 694.5,1099.1719 Q694.7656,1098.9375 695.3906,1098.9375 L703.0156,1098.9375 L703.0156,1101.5313 Q703.0156,1102.1406 702.7813,1102.4063 Q702.5625,1102.6563 702.1719,1102.6563 Q701.7969,1102.6563 701.5625,1102.4063 Q701.3281,1102.1406 701.3281,1101.5313 L701.3281,1100.6406 L697.3594,1100.6406 L697.3594,1103.0938 L698.8438,1103.0938 Q698.8438,1102.4375 698.9688,1102.25 Q699.2344,1101.8438 699.7031,1101.8438 Q700.0781,1101.8438 700.3125,1102.1094 Q700.5469,1102.3594 700.5469,1102.9688 L700.5469,1104.9375 Q700.5469,1105.4844 700.4219,1105.6719 Q700.1563,1106.0625 699.7031,1106.0625 Q699.2344,1106.0625 698.9688,1105.6563 Q698.8438,1105.4688 698.8438,1104.7969 L697.3594,1104.7969 Z " fill="#000000"/><text fill="#000000" font-family="sans-serif" font-size="14" lengthAdjust="spacing" textLength="97" x="712.5" y="1109.7969">FileOccurrence</text><line style="stroke:#D4AC0D;stroke-width:2.0;" x1="684.5" x2="811.5" y1="1120" y2="1120"/><text fill="#000000" font-family="sans-serif" font-size="14" lengthAdjust="spacing" textLength="40" x="689.5" y="1139.1074">FIRST</text><text fill="#000000" font-family="sans-serif" font-size="14" lengthAdjust="spacing" textLength="35" x="689.5" y="1157.7285">LAST</text><text fill="#000000" font-family="sans-serif" font-size="14" lengthAdjust="spacing" textLength="35" x="689.5" y="1176.3496">NEXT</text><text fill="#000000" font-family="sans-serif" font-size="14" lengthAdjust="spacing" textLength="69" x="689.5" y="1194.9707">PREVIOUS</text><line style="stroke:#D4AC0D;stroke-width:2.0;" x1="684.5" x2="811.5" y1="1202.4844" y2="1202.4844"/></g><!--class FileControlInformation--><g id="elem_FileControlInformation"><rect codeLine="112" fill="#FEFECE" height="122.4844" id="FileControlInformation" rx="2.5" ry="2.5" style="stroke:#D4AC0D;stroke-width:2.0;" width="171" x="847.5" y="1088"/><ellipse cx="862.5" cy="1104" fill="#EB937F" rx="11" ry="11" style="stroke:#181818;stroke-width:1.0;"/><path d="M861.3594,1104.7969 L861.3594,1107.2969 L865.6875,1107.2969 L865.6875,1106.375 Q865.6875,1105.7656 865.9219,1105.5 Q866.1719,1105.2344 866.5469,1105.2344 Q866.9219,1105.2344 867.1563,1105.5 Q867.3906,1105.7656 867.3906,1106.375 L867.3906,1109 L859.3906,1109 Q858.7656,1109 858.5,1108.7656 Q858.25,1108.5313 858.25,1108.1406 Q858.25,1107.7656 858.5156,1107.5313 Q858.7813,1107.2969 859.3906,1107.2969 L859.6563,1107.2969 L859.6563,1100.6406 L859.3906,1100.6406 Q858.7656,1100.6406 858.5,1100.4063 Q858.25,1100.1719 858.25,1099.7813 Q858.25,1099.4063 858.5,1099.1719 Q858.7656,1098.9375 859.3906,1098.9375 L867.0156,1098.9375 L867.0156,1101.5313 Q867.0156,1102.1406 866.7813,1102.4063 Q866.5625,1102.6563 866.1719,1102.6563 Q865.7969,1102.6563 865.5625,1102.4063 Q865.3281,1102.1406 865.3281,1101.5313 L865.3281,1100.6406 L861.3594,1100.6406 L861.3594,1103.0938 L862.8438,1103.0938 Q862.8438,1102.4375 862.9688,1102.25 Q863.2344,1101.8438 863.7031,1101.8438 Q864.0781,1101.8438 864.3125,1102.1094 Q864.5469,1102.3594 864.5469,1102.9688 L864.5469,1104.9375 Q864.5469,1105.4844 864.4219,1105.6719 Q864.1563,1106.0625 863.7031,1106.0625 Q863.2344,1106.0625 862.9688,1105.6563 Q862.8438,1105.4688 862.8438,1104.7969 L861.3594,1104.7969 Z " fill="#000000"/><text fill="#000000" font-family="sans-serif" font-size="14" lengthAdjust="spacing" textLength="139" x="876.5" y="1109.7969">FileControlInformation</text><line style="stroke:#D4AC0D;stroke-width:2.0;" x1="848.5" x2="1017.5" y1="1120" y2="1120"/><text fill="#000000" font-family="sans-serif" font-size="14" lengthAdjust="spacing" textLength="22" x="853.5" y="1139.1074">FCI</text><text fill="#000000" font-family="sans-serif" font-size="14" lengthAdjust="spacing" textLength="28" x="853.5" y="1157.7285">FCP</text><text fill="#000000" font-family="sans-serif" font-size="14" lengthAdjust="spacing" textLength="30" x="853.5" y="1176.3496">FMD</text><text fill="#000000" font-family="sans-serif" font-size="14" lengthAdjust="spacing" textLength="103" x="853.5" y="1194.9707">NO_RESPONSE</text><line style="stroke:#D4AC0D;stroke-width:2.0;" x1="848.5" x2="1017.5" y1="1202.4844" y2="1202.4844"/></g><!--class CardRequest--><g id="elem_CardRequest"><rect codeLine="178" fill="#E9F7EF" height="85.2422" id="CardRequest" rx="2.5" ry="2.5" style="stroke:#27AE60;stroke-width:2.0;" width="303" x="1072.5" y="904.5"/><ellipse cx="1177.75" cy="920.5" fill="#ADD1B2" rx="11" ry="11" style="stroke:#181818;stroke-width:1.0;"/><path d="M1180.5156,916.375 Q1180.6719,916.1563 1180.8594,916.0469 Q1181.0469,915.9375 1181.2656,915.9375 Q1181.6406,915.9375 1181.875,916.2031 Q1182.1094,916.4531 1182.1094,917.0625 L1182.1094,918.5156 Q1182.1094,919.125 1181.875,919.3906 Q1181.6406,919.6563 1181.2656,919.6563 Q1180.9219,919.6563 1180.7188,919.4531 Q1180.5156,919.2656 1180.4063,918.75 Q1180.3594,918.3906 1180.1719,918.2031 Q1179.8438,917.8281 1179.2344,917.6094 Q1178.625,917.3906 1178,917.3906 Q1177.2344,917.3906 1176.5938,917.7188 Q1175.9688,918.0469 1175.4688,918.7969 Q1174.9844,919.5469 1174.9844,920.5781 L1174.9844,921.6719 Q1174.9844,922.9063 1175.875,923.7344 Q1176.7656,924.5469 1178.3594,924.5469 Q1179.2969,924.5469 1179.9531,924.2969 Q1180.3438,924.1406 1180.7656,923.7031 Q1181.0313,923.4375 1181.1719,923.3594 Q1181.3281,923.2813 1181.5313,923.2813 Q1181.8594,923.2813 1182.1094,923.5469 Q1182.375,923.7969 1182.375,924.1406 Q1182.375,924.4844 1182.0313,924.8906 Q1181.5313,925.4688 1180.7344,925.7969 Q1179.6563,926.25 1178.3594,926.25 Q1176.8438,926.25 1175.6406,925.625 Q1174.6563,925.125 1173.9688,924.0625 Q1173.2813,922.9844 1173.2813,921.7031 L1173.2813,920.5469 Q1173.2813,919.2188 1173.8906,918.0781 Q1174.5156,916.9219 1175.6094,916.3125 Q1176.7031,915.6875 1177.9375,915.6875 Q1178.6719,915.6875 1179.3125,915.8594 Q1179.9688,916.0156 1180.5156,916.375 Z " fill="#000000"/><text fill="#000000" font-family="sans-serif" font-size="14" lengthAdjust="spacing" textLength="84" x="1198.25" y="926.2969">CardRequest</text><line style="stroke:#27AE60;stroke-width:2.0;" x1="1073.5" x2="1374.5" y1="936.5" y2="936.5"/><text fill="#000000" font-family="sans-serif" font-size="14" font-weight="bold" lengthAdjust="spacing" textLength="102" x="1078.5" y="955.6074">apduRequests</text><text fill="#000000" font-family="sans-serif" font-size="14" lengthAdjust="spacing" textLength="102" x="1184.5" y="955.6074">: ApduRequest[]</text><text fill="#000000" font-family="sans-serif" font-size="14" font-weight="bold" lengthAdjust="spacing" textLength="227" x="1078.5" y="974.2285">stopOnUnsuccessfulStatusWord</text><text fill="#000000" font-family="sans-serif" font-size="14" lengthAdjust="spacing" textLength="60" x="1309.5" y="974.2285">: Boolean</text><line style="stroke:#27AE60;stroke-width:2.0;" x1="1073.5" x2="1374.5" y1="981.7422" y2="981.7422"/></g><!--class ApduRequest--><g id="elem_ApduRequest"><rect codeLine="179" fill="#E9F7EF" height="103.8633" id="ApduRequest" rx="2.5" ry="2.5" style="stroke:#27AE60;stroke-width:2.0;" width="234" x="1107" y="1097"/><ellipse cx="1176.75" cy="1113" fill="#ADD1B2" rx="11" ry="11" style="stroke:#181818;stroke-width:1.0;"/><path d="M1179.5156,1108.875 Q1179.6719,1108.6563 1179.8594,1108.5469 Q1180.0469,1108.4375 1180.2656,1108.4375 Q1180.6406,1108.4375 1180.875,1108.7031 Q1181.1094,1108.9531 1181.1094,1109.5625 L1181.1094,1111.0156 Q1181.1094,1111.625 1180.875,1111.8906 Q1180.6406,1112.1563 1180.2656,1112.1563 Q1179.9219,1112.1563 1179.7188,1111.9531 Q1179.5156,1111.7656 1179.4063,1111.25 Q1179.3594,1110.8906 1179.1719,1110.7031 Q1178.8438,1110.3281 1178.2344,1110.1094 Q1177.625,1109.8906 1177,1109.8906 Q1176.2344,1109.8906 1175.5938,1110.2188 Q1174.9688,1110.5469 1174.4688,1111.2969 Q1173.9844,1112.0469 1173.9844,1113.0781 L1173.9844,1114.1719 Q1173.9844,1115.4063 1174.875,1116.2344 Q1175.7656,1117.0469 1177.3594,1117.0469 Q1178.2969,1117.0469 1178.9531,1116.7969 Q1179.3438,1116.6406 1179.7656,1116.2031 Q1180.0313,1115.9375 1180.1719,1115.8594 Q1180.3281,1115.7813 1180.5313,1115.7813 Q1180.8594,1115.7813 1181.1094,1116.0469 Q1181.375,1116.2969 1181.375,1116.6406 Q1181.375,1116.9844 1181.0313,1117.3906 Q1180.5313,1117.9688 1179.7344,1118.2969 Q1178.6563,1118.75 1177.3594,1118.75 Q1175.8438,1118.75 1174.6406,1118.125 Q1173.6563,1117.625 1172.9688,1116.5625 Q1172.2813,1115.4844 1172.2813,1114.2031 L1172.2813,1113.0469 Q1172.2813,1111.7188 1172.8906,1110.5781 Q1173.5156,1109.4219 1174.6094,1108.8125 Q1175.7031,1108.1875 1176.9375,1108.1875 Q1177.6719,1108.1875 1178.3125,1108.3594 Q1178.9688,1108.5156 1179.5156,1108.875 Z " fill="#000000"/><text fill="#000000" font-family="sans-serif" font-size="14" lengthAdjust="spacing" textLength="86" x="1197.25" y="1118.7969">ApduRequest</text><line style="stroke:#27AE60;stroke-width:2.0;" x1="1108" x2="1340" y1="1129" y2="1129"/><text fill="#000000" font-family="sans-serif" font-size="14" font-weight="bold" lengthAdjust="spacing" textLength="35" x="1113" y="1148.1074">apdu</text><text fill="#000000" font-family="sans-serif" font-size="14" lengthAdjust="spacing" textLength="45" x="1152" y="1148.1074">: String</text><text fill="#000000" font-family="sans-serif" font-size="14" font-weight="bold" lengthAdjust="spacing" textLength="165" x="1113" y="1166.7285">successfulStatusWords</text><text fill="#000000" font-family="sans-serif" font-size="14" lengthAdjust="spacing" textLength="53" x="1282" y="1166.7285">: String[]</text><text fill="#000000" font-family="sans-serif" font-size="14" font-weight="bold" lengthAdjust="spacing" textLength="27" x="1113" y="1185.3496">info</text><text fill="#000000" font-family="sans-serif" font-size="14" lengthAdjust="spacing" textLength="53" x="1144" y="1185.3496">: String?</text><line style="stroke:#27AE60;stroke-width:2.0;" x1="1108" x2="1340" y1="1192.8633" y2="1192.8633"/></g><!--class ChannelControl--><g id="elem_ChannelControl"><rect codeLine="127" fill="#FEFECE" height="85.2422" id="ChannelControl" rx="2.5" ry="2.5" style="stroke:#D4AC0D;stroke-width:2.0;" width="131" x="1035.5" y="721"/><ellipse cx="1050.5" cy="737" fill="#EB937F" rx="11" ry="11" style="stroke:#181818;stroke-width:1.0;"/><path d="M1049.3594,737.7969 L1049.3594,740.2969 L1053.6875,740.2969 L1053.6875,739.375 Q1053.6875,738.7656 1053.9219,738.5 Q1054.1719,738.2344 1054.5469,738.2344 Q1054.9219,738.2344 1055.1563,738.5 Q1055.3906,738.7656 1055.3906,739.375 L1055.3906,742 L1047.3906,742 Q1046.7656,742 1046.5,741.7656 Q1046.25,741.5313 1046.25,741.1406 Q1046.25,740.7656 1046.5156,740.5313 Q1046.7813,740.2969 1047.3906,740.2969 L1047.6563,740.2969 L1047.6563,733.6406 L1047.3906,733.6406 Q1046.7656,733.6406 1046.5,733.4063 Q1046.25,733.1719 1046.25,732.7813 Q1046.25,732.4063 1046.5,732.1719 Q1046.7656,731.9375 1047.3906,731.9375 L1055.0156,731.9375 L1055.0156,734.5313 Q1055.0156,735.1406 1054.7813,735.4063 Q1054.5625,735.6563 1054.1719,735.6563 Q1053.7969,735.6563 1053.5625,735.4063 Q1053.3281,735.1406 1053.3281,734.5313 L1053.3281,733.6406 L1049.3594,733.6406 L1049.3594,736.0938 L1050.8438,736.0938 Q1050.8438,735.4375 1050.9688,735.25 Q1051.2344,734.8438 1051.7031,734.8438 Q1052.0781,734.8438 1052.3125,735.1094 Q1052.5469,735.3594 1052.5469,735.9688 L1052.5469,737.9375 Q1052.5469,738.4844 1052.4219,738.6719 Q1052.1563,739.0625 1051.7031,739.0625 Q1051.2344,739.0625 1050.9688,738.6563 Q1050.8438,738.4688 1050.8438,737.7969 L1049.3594,737.7969 Z " fill="#000000"/><text fill="#000000" font-family="sans-serif" font-size="14" lengthAdjust="spacing" textLength="99" x="1064.5" y="742.7969">ChannelControl</text><line style="stroke:#D4AC0D;stroke-width:2.0;" x1="1036.5" x2="1165.5" y1="753" y2="753"/><text fill="#000000" font-family="sans-serif" font-size="14" lengthAdjust="spacing" textLength="82" x="1041.5" y="772.1074">KEEP_OPEN</text><text fill="#000000" font-family="sans-serif" font-size="14" lengthAdjust="spacing" textLength="101" x="1041.5" y="790.7285">CLOSE_AFTER</text><line style="stroke:#D4AC0D;stroke-width:2.0;" x1="1036.5" x2="1165.5" y1="798.2422" y2="798.2422"/></g><!--class TransmitCardRequestCmdBody--><g id="elem_TransmitCardRequestCmdBody"><rect codeLine="182" fill="#E9F7EF" height="85.2422" id="TransmitCardRequestCmdBody" rx="2.5" ry="2.5" style="stroke:#27AE60;stroke-width:2.0;" width="345" x="1073.5" y="410"/><ellipse cx="1141.75" cy="426" fill="#ADD1B2" rx="11" ry="11" style="stroke:#181818;stroke-width:1.0;"/><path d="M1144.5156,421.875 Q1144.6719,421.6563 1144.8594,421.5469 Q1145.0469,421.4375 1145.2656,421.4375 Q1145.6406,421.4375 1145.875,421.7031 Q1146.1094,421.9531 1146.1094,422.5625 L1146.1094,424.0156 Q1146.1094,424.625 1145.875,424.8906 Q1145.6406,425.1563 1145.2656,425.1563 Q1144.9219,425.1563 1144.7188,424.9531 Q1144.5156,424.7656 1144.4063,424.25 Q1144.3594,423.8906 1144.1719,423.7031 Q1143.8438,423.3281 1143.2344,423.1094 Q1142.625,422.8906 1142,422.8906 Q1141.2344,422.8906 1140.5938,423.2188 Q1139.9688,423.5469 1139.4688,424.2969 Q1138.9844,425.0469 1138.9844,426.0781 L1138.9844,427.1719 Q1138.9844,428.4063 1139.875,429.2344 Q1140.7656,430.0469 1142.3594,430.0469 Q1143.2969,430.0469 1143.9531,429.7969 Q1144.3438,429.6406 1144.7656,429.2031 Q1145.0313,428.9375 1145.1719,428.8594 Q1145.3281,428.7813 1145.5313,428.7813 Q1145.8594,428.7813 1146.1094,429.0469 Q1146.375,429.2969 1146.375,429.6406 Q1146.375,429.9844 1146.0313,430.3906 Q1145.5313,430.9688 1144.7344,431.2969 Q1143.6563,431.75 1142.3594,431.75 Q1140.8438,431.75 1139.6406,431.125 Q1138.6563,430.625 1137.9688,429.5625 Q1137.2813,428.4844 1137.2813,427.2031 L1137.2813,426.0469 Q1137.2813,424.7188 1137.8906,423.5781 Q1138.5156,422.4219 1139.6094,421.8125 Q1140.7031,421.1875 1141.9375,421.1875 Q1142.6719,421.1875 1143.3125,421.3594 Q1143.9688,421.5156 1144.5156,421.875 Z " fill="#000000"/><text fill="#000000" font-family="sans-serif" font-size="14" lengthAdjust="spacing" textLength="200" x="1162.25" y="431.7969">TransmitCardRequestCmdBody</text><line style="stroke:#27AE60;stroke-width:2.0;" x1="1074.5" x2="1417.5" y1="442" y2="442"/><text fill="#000000" font-family="sans-serif" font-size="14" font-weight="bold" lengthAdjust="spacing" textLength="53" x="1079.5" y="461.1074">service</text><text fill="#000000" font-family="sans-serif" font-size="14" lengthAdjust="spacing" textLength="66" x="1136.5" y="461.1074">: String = "</text><text fill="#000000" font-family="sans-serif" font-size="14" font-weight="bold" lengthAdjust="spacing" textLength="192" x="1202.5" y="461.1074">TRANSMIT_CARD_REQUEST</text><text fill="#000000" font-family="sans-serif" font-size="14" lengthAdjust="spacing" textLength="5" x="1394.5" y="461.1074">"</text><text fill="#000000" font-family="sans-serif" font-size="14" font-weight="bold" lengthAdjust="spacing" textLength="80" x="1079.5" y="479.7285">parameters</text><text fill="#000000" font-family="sans-serif" font-size="14" lengthAdjust="spacing" textLength="249" x="1163.5" y="479.7285">: TransmitCardRequestCmdParameters</text><line style="stroke:#27AE60;stroke-width:2.0;" x1="1074.5" x2="1417.5" y1="487.2422" y2="487.2422"/></g><!--class TransmitCardRequestCmdParameters--><g id="elem_TransmitCardRequestCmdParameters"><rect codeLine="183" fill="#E9F7EF" height="85.2422" id="TransmitCardRequestCmdParameters" rx="2.5" ry="2.5" style="stroke:#27AE60;stroke-width:2.0;" width="273" x="1087.5" y="565.5"/><ellipse cx="1102.5" cy="581.5" fill="#ADD1B2" rx="11" ry="11" style="stroke:#181818;stroke-width:1.0;"/><path d="M1105.2656,577.375 Q1105.4219,577.1563 1105.6094,577.0469 Q1105.7969,576.9375 1106.0156,576.9375 Q1106.3906,576.9375 1106.625,577.2031 Q1106.8594,577.4531 1106.8594,578.0625 L1106.8594,579.5156 Q1106.8594,580.125 1106.625,580.3906 Q1106.3906,580.6563 1106.0156,580.6563 Q1105.6719,580.6563 1105.4688,580.4531 Q1105.2656,580.2656 1105.1563,579.75 Q1105.1094,579.3906 1104.9219,579.2031 Q1104.5938,578.8281 1103.9844,578.6094 Q1103.375,578.3906 1102.75,578.3906 Q1101.9844,578.3906 1101.3438,578.7188 Q1100.7188,579.0469 1100.2188,579.7969 Q1099.7344,580.5469 1099.7344,581.5781 L1099.7344,582.6719 Q1099.7344,583.9063 1100.625,584.7344 Q1101.5156,585.5469 1103.1094,585.5469 Q1104.0469,585.5469 1104.7031,585.2969 Q1105.0938,585.1406 1105.5156,584.7031 Q1105.7813,584.4375 1105.9219,584.3594 Q1106.0781,584.2813 1106.2813,584.2813 Q1106.6094,584.2813 1106.8594,584.5469 Q1107.125,584.7969 1107.125,585.1406 Q1107.125,585.4844 1106.7813,585.8906 Q1106.2813,586.4688 1105.4844,586.7969 Q1104.4063,587.25 1103.1094,587.25 Q1101.5938,587.25 1100.3906,586.625 Q1099.4063,586.125 1098.7188,585.0625 Q1098.0313,583.9844 1098.0313,582.7031 L1098.0313,581.5469 Q1098.0313,580.2188 1098.6406,579.0781 Q1099.2656,577.9219 1100.3594,577.3125 Q1101.4531,576.6875 1102.6875,576.6875 Q1103.4219,576.6875 1104.0625,576.8594 Q1104.7188,577.0156 1105.2656,577.375 Z " fill="#000000"/><text fill="#000000" font-family="sans-serif" font-size="14" lengthAdjust="spacing" textLength="241" x="1116.5" y="587.2969">TransmitCardRequestCmdParameters</text><line style="stroke:#27AE60;stroke-width:2.0;" x1="1088.5" x2="1359.5" y1="597.5" y2="597.5"/><text fill="#000000" font-family="sans-serif" font-size="14" font-weight="bold" lengthAdjust="spacing" textLength="108" x="1093.5" y="616.6074">channelControl</text><text fill="#000000" font-family="sans-serif" font-size="14" lengthAdjust="spacing" textLength="107" x="1205.5" y="616.6074">: ChannelControl</text><text fill="#000000" font-family="sans-serif" font-size="14" font-weight="bold" lengthAdjust="spacing" textLength="90" x="1093.5" y="635.2285">cardRequest</text><text fill="#000000" font-family="sans-serif" font-size="14" lengthAdjust="spacing" textLength="92" x="1187.5" y="635.2285">: CardRequest</text><line style="stroke:#27AE60;stroke-width:2.0;" x1="1088.5" x2="1359.5" y1="642.7422" y2="642.7422"/></g><!--reverse link CmdBody to IsContactlessCmdBody--><g id="link_CmdBody_IsContactlessCmdBody"><path d="M450.251,341.294 C383.795,364.749 295.761,395.82 230.112,418.99 " fill="none" id="CmdBody-backto-IsContactlessCmdBody" style="stroke:#181818;stroke-width:2.0;"/><polygon fill="none" points="448.069,334.641,469.258,334.585,452.728,347.843,448.069,334.641" style="stroke:#181818;stroke-width:2.0;"/></g><!--reverse link CmdBody to IsCardPresentCmdBody--><g id="link_CmdBody_IsCardPresentCmdBody"><path d="M503.441,365.316 C490.09,383.453 475.819,402.84 464.2,418.624 " fill="none" id="CmdBody-backto-IsCardPresentCmdBody" style="stroke:#181818;stroke-width:2.0;"/><polygon fill="none" points="497.847,361.108,515.34,349.151,509.121,369.407,497.847,361.108" style="stroke:#181818;stroke-width:2.0;"/></g><!--reverse link CmdBody to TransmitCardSelectionRequestsCmdBody--><g id="link_CmdBody_TransmitCardSelectionRequestsCmdBody"><path d="M640.814,356.436 C674.404,373.773 711.86,393.105 744.177,409.785 " fill="none" id="CmdBody-backto-TransmitCardSelectionRequestsCmdBody" style="stroke:#181818;stroke-width:2.0;"/><polygon fill="none" points="637.169,362.432,622.607,347.039,643.59,349.992,637.169,362.432" style="stroke:#181818;stroke-width:2.0;"/></g><!--reverse link CmdBody to TransmitCardRequestCmdBody--><g id="link_CmdBody_TransmitCardRequestCmdBody"><path d="M642.181,326.333 C744.785,346.54 912.021,379.81 1056,410 C1061.7,411.195 1067.5,412.418 1073.35,413.659 " fill="none" id="CmdBody-backto-TransmitCardRequestCmdBody" style="stroke:#181818;stroke-width:2.0;"/><polygon fill="none" points="640.821,333.2,622.548,322.471,643.523,319.463,640.821,333.2" style="stroke:#181818;stroke-width:2.0;"/></g><!--reverse link CmdData to CmdBody--><g id="link_CmdData_CmdBody"><path codeLine="144" d="M546,198.34 C546,221.544 546,244.939 546,263.924 " fill="none" id="CmdData-backto-CmdBody" style="stroke:#3498DB;stroke-width:2.0;"/><polygon fill="#3498DB" points="546,185.12,542,191.12,546,197.12,550,191.12,546,185.12" style="stroke:#3498DB;stroke-width:2.0;"/><text fill="#000000" font-family="sans-serif" font-size="13" lengthAdjust="spacing" textLength="61" x="547" y="230.0283">JsonString</text><text fill="#000000" font-family="sans-serif" font-size="13" lengthAdjust="spacing" textLength="7" x="538.4422" y="252.816">1</text></g><!--reverse link TransmitCardSelectionRequestsCmdBody to TransmitCardSelectionRequestsCmdParameters--><g id="link_TransmitCardSelectionRequestsCmdBody_TransmitCardSelectionRequestsCmdParameters"><path codeLine="146" d="M840.206,507.783 C844.584,523.411 849.344,540.403 853.667,555.836 " fill="none" id="TransmitCardSelectionRequestsCmdBody-backto-TransmitCardSelectionRequestsCmdParameters" style="stroke:#3498DB;stroke-width:2.0;"/><polygon fill="#3498DB" points="836.636,495.039,834.4029,501.8956,839.8732,506.5941,842.1063,499.7375,836.636,495.039" style="stroke:#3498DB;stroke-width:2.0;"/><text fill="#000000" font-family="sans-serif" font-size="13" lengthAdjust="spacing" textLength="7" x="844.2707" y="544.7413">1</text></g><!--reverse link TransmitCardSelectionRequestsCmdParameters to CardSelectionRequest--><g id="link_TransmitCardSelectionRequestsCmdParameters_CardSelectionRequest"><path codeLine="148" d="M876.804,673.35 C878.998,689.392 881.295,706.177 883.295,720.799 " fill="none" id="TransmitCardSelectionRequestsCmdParameters-backto-CardSelectionRequest" style="stroke:#3498DB;stroke-width:2.0;"/><polygon fill="#3498DB" points="874.993,660.113,871.8429,666.5997,876.6189,672.0023,879.7691,665.5157,874.993,660.113" style="stroke:#3498DB;stroke-width:2.0;"/><text fill="#000000" font-family="sans-serif" font-size="13" lengthAdjust="spacing" textLength="20" x="860.792" y="709.6711">1..*</text></g><!--reverse link TransmitCardSelectionRequestsCmdParameters to MultiSelectionProcessing--><g id="link_TransmitCardSelectionRequestsCmdParameters_MultiSelectionProcessing"><path codeLine="149" d="M786.722,667.85 C762.341,685.503 736.111,704.495 713.593,720.799 " fill="none" id="TransmitCardSelectionRequestsCmdParameters-backto-MultiSelectionProcessing" style="stroke:#3498DB;stroke-width:2.0;"/><polygon fill="#3498DB" points="797.407,660.113,790.2013,660.3919,787.6873,667.1506,794.893,666.8717,797.407,660.113" style="stroke:#3498DB;stroke-width:2.0;"/><text fill="#000000" font-family="sans-serif" font-size="13" lengthAdjust="spacing" textLength="7" x="715.2141" y="709.6711">1</text></g><!--reverse link TransmitCardSelectionRequestsCmdParameters to ChannelControl--><g id="link_TransmitCardSelectionRequestsCmdParameters_ChannelControl"><path codeLine="150" d="M956.608,667.375 C983.608,685.162 1012.73,704.349 1037.7,720.799 " fill="none" id="TransmitCardSelectionRequestsCmdParameters-backto-ChannelControl" style="stroke:#3498DB;stroke-width:2.0;"/><polygon fill="#3498DB" points="945.586,660.113,948.3954,666.7543,955.6064,666.7154,952.797,660.0741,945.586,660.113" style="stroke:#3498DB;stroke-width:2.0;"/><text fill="#000000" font-family="sans-serif" font-size="13" lengthAdjust="spacing" textLength="7" x="1020.4713" y="709.9909">1</text></g><!--reverse link CardSelectionRequest to CardSelector--><g id="link_CardSelectionRequest_CardSelector"><path codeLine="152" d="M885.978,819.347 C885.156,834.263 884.249,850.723 883.369,866.701 " fill="none" id="CardSelectionRequest-backto-CardSelector" style="stroke:#3498DB;stroke-width:2.0;"/><polygon fill="#3498DB" points="886.706,806.14,882.3824,811.9112,886.0467,818.1219,890.3703,812.3507,886.706,806.14" style="stroke:#3498DB;stroke-width:2.0;"/><text fill="#000000" font-family="sans-serif" font-size="13" lengthAdjust="spacing" textLength="7" x="876.4464" y="855.8458">1</text></g><!--reverse link CardSelectionRequest to CardRequest--><g id="link_CardSelectionRequest_CardRequest"><path codeLine="153" d="M977.584,812.494 C1030.35,841.085 1096.67,877.015 1147.21,904.397 " fill="none" id="CardSelectionRequest-backto-CardRequest" style="stroke:#3498DB;stroke-width:2.0;stroke-dasharray:7.0,7.0;"/><polygon fill="#3498DB" points="965.856,806.14,969.2259,812.5152,976.4069,811.8565,973.037,805.4813,965.856,806.14" style="stroke:#3498DB;stroke-width:2.0;"/><text fill="#000000" font-family="sans-serif" font-size="13" lengthAdjust="spacing" textLength="22" x="1111.2185" y="893.2847">0..1</text></g><!--reverse link CardSelector to FileOccurrence--><g id="link_CardSelector_FileOccurrence"><path codeLine="155" d="M820.031,1038.029 C809.008,1054.859 797.735,1072.068 787.479,1087.726 " fill="none" id="CardSelector-backto-FileOccurrence" style="stroke:#3498DB;stroke-width:2.0;"/><polygon fill="#3498DB" points="827.225,1027.045,820.5913,1029.8724,820.6498,1037.0832,827.2835,1034.2559,827.225,1027.045" style="stroke:#3498DB;stroke-width:2.0;"/><text fill="#000000" font-family="sans-serif" font-size="13" lengthAdjust="spacing" textLength="7" x="784.6391" y="1076.6755">1</text></g><!--reverse link CardSelector to FileControlInformation--><g id="link_CardSelector_FileControlInformation"><path codeLine="156" d="M903.828,1039.954 C908.205,1056.168 912.66,1072.665 916.726,1087.726 " fill="none" id="CardSelector-backto-FileControlInformation" style="stroke:#3498DB;stroke-width:2.0;"/><polygon fill="#3498DB" points="900.342,1027.045,898.0441,1033.8802,903.4697,1038.6302,905.7676,1031.795,900.342,1027.045" style="stroke:#3498DB;stroke-width:2.0;"/><text fill="#000000" font-family="sans-serif" font-size="13" lengthAdjust="spacing" textLength="7" x="907.4396" y="1076.6755">1</text></g><!--reverse link CardRequest to ApduRequest--><g id="link_CardRequest_ApduRequest"><path codeLine="158" d="M1224,1003.297 C1224,1032.571 1224,1068.28 1224,1096.901 " fill="none" id="CardRequest-backto-ApduRequest" style="stroke:#3498DB;stroke-width:2.0;"/><polygon fill="#3498DB" points="1224,989.927,1220,995.927,1224,1001.927,1228,995.927,1224,989.927" style="stroke:#3498DB;stroke-width:2.0;"/><text fill="#000000" font-family="sans-serif" font-size="13" lengthAdjust="spacing" textLength="20" x="1202.6563" y="1085.8151">1..*</text></g><!--reverse link TransmitCardRequestCmdBody to TransmitCardRequestCmdParameters--><g id="link_TransmitCardRequestCmdBody_TransmitCardRequestCmdParameters"><path codeLine="160" d="M1238.18,508.047 C1235.48,526.924 1232.49,547.762 1229.96,565.427 " fill="none" id="TransmitCardRequestCmdBody-backto-TransmitCardRequestCmdParameters" style="stroke:#3498DB;stroke-width:2.0;"/><polygon fill="#3498DB" points="1240.05,495.039,1235.2394,500.411,1238.348,506.9177,1243.1585,501.5457,1240.05,495.039" style="stroke:#3498DB;stroke-width:2.0;"/><text fill="#000000" font-family="sans-serif" font-size="13" lengthAdjust="spacing" textLength="7" x="1223.3521" y="554.3195">1</text></g><!--reverse link TransmitCardRequestCmdParameters to ChannelControl--><g id="link_TransmitCardRequestCmdParameters_ChannelControl"><path codeLine="162" d="M1182.47,660.826 C1166.78,680.404 1149.15,702.409 1134.31,720.927 " fill="none" id="TransmitCardRequestCmdParameters-backto-ChannelControl" style="stroke:#3498DB;stroke-width:2.0;"/><polygon fill="#3498DB" points="1190.71,650.539,1183.838,652.7243,1183.2121,659.9081,1190.0841,657.7229,1190.71,650.539" style="stroke:#3498DB;stroke-width:2.0;"/><text fill="#000000" font-family="sans-serif" font-size="13" lengthAdjust="spacing" textLength="7" x="1132.061" y="709.8195">1</text></g><!--reverse link TransmitCardRequestCmdParameters to CardRequest--><g id="link_TransmitCardRequestCmdParameters_CardRequest"><path codeLine="163" d="M1224,663.9 C1224,731.232 1224,843.86 1224,904.434 " fill="none" id="TransmitCardRequestCmdParameters-backto-CardRequest" style="stroke:#3498DB;stroke-width:2.0;"/><polygon fill="#3498DB" points="1224,650.661,1220,656.661,1224,662.661,1228,656.661,1224,650.661" style="stroke:#3498DB;stroke-width:2.0;"/><text fill="#000000" font-family="sans-serif" font-size="13" lengthAdjust="spacing" textLength="7" x="1216.4422" y="893.3276">1</text></g><!--SRC=[jLTRSzeu57xdLsZfGrfc80cGqdHw6MFBBIt1B7PsDxEpmnXR2MwCHIMvAREp_tsFRTdOZhYatUK5- -Wxvpit7Sad8X0XQPmW-7qcctL8a15mmO95B8YFFjdM16dJKGRmw6eT1cuaq4CWbgXvdogqEM7V0e-qlxZVt7OOB9he6s4ye17gTiux_KnNlpBGy-vPjzS-wxMxtHUD4nBvA6C7nDktoFc8hp0ymAjEuv34ZAE0yvXmv1Fq6Ys5MFFNfwTBiGez6bBcKP_m3ZXrUijEXRi8YHktVTBsCcs521vvS1Urrw4hJXk_-EGsY0ZIvnzc-EOScQ_CI_Eo9kuYislsp7vDt4Fu0Wzm7Tr7ni0O6aPDV85qJJUDRaty4WqDlQSFIkBnQF8PzVgNhunXINfjOzGTQFZbMPAhTXlPOXD2NiJI5SYdqGbKXBBxh2mHUIWAG6yHn1g9U1M2MeFV1z7QPUuASK4OeMAp9jgGCfymFSaeUgPT6hfXAe6Z2d3OrmRuGWdKgnODutpOLG9n1OY7bpsWJkF34oFnjwIbXoxd6TvP1jvzH3X7PRCQO_IXl0IMRaWOqeT7Lbpl_exHEF8biubDh6CrcOGOVKq_Cy3aZFW7xBrvmuZ_xXsODR21zJrc2oGUzA4F6ii06ZqNRjC4hDEOmKuxIBnEOIbt7-lcO2_t5lmAz_kQaTCNyee7Yp0-p9-0qdY6veKvtCkUGsMlIsufhJ1_O8H41wdl4bJAVMaEiBcNky3AFIN9St6TVNCC-IRbrg2Fy27k5DhLU_YYJBsfCcSpKRSc3fuusLHCPcZ3IomYVUKRhd3HturajhPQhYTWkxTQC2Pj6DxH7NgBcgqMABHQJOdnme14OW93S-INa78rf9uRpeWBdaxS5NaCIAOyhErGPsH51TclpvEHf59UK7-JIY6i8Jmt_ccu2pY482fKn9ii5F7A8-UngJJj1DB8qpLhyOLuuZqOXFIDx7cIJqrtnjYsqNF8pWl8x3iqiQOohoEkqqW0BqnNdfEIxmBEgcESoB9UvKaAKD1hCsC-dM4xgUaEVfVvKqOubEfd-4j4XGFEJ9lOLoCdMxNn6ElEo9hCP_ZNQsmxCYFI4uUv4Ly58l779Y596sn6li9nB7uuCuSys3PhhOw7l9aMS0Zrk02sAeNRgpWKGO6TCkebFHlTfIvSxLZCTzVIZI8I9kt3Q9XrSqMKurJkP735ofz_GJmaYbSxwQNpvcXcE_ChpT4_fk_JcQL3yysryRZ8Y8gWY7th5sKrToWhOQHU0P7lxnKiS6wMhOFFWdeoDrbNlC-hJHy8iw9afCt87VckWBY1hv3U1Y6nF2zcZ4IotyoAg8IJTHX5jvIjt69Ucigbl95ZBydpRHmMYRE5AsB-EynqNd9eMwWgVxaywTDOamyJ_8SZIuL_6rdNTjd0OuToG_f8_a-pVpWIKciMR29xQariNAb4lSpkseyhNQTj1H23Z5hGjHLTHwNeYw1JfI6bSBEE2gQIaGgJuXHGcApbCGC647gbu38xrKqbsJvZF9rRKpn9t_InPUEvPZfufXfySjZid7OoaFzcnacoemRRblZ0E5C1jrlj2ODensREigPnJhqWRJxUQEGtZXRSpfldpI8Tp-GtoslqYIUR8wrruwZJ8pVrX4ajsGuJb7GocawdrLHFmDpcaqqsTm_bdx1PQ_0YOgNlXL9vwEOgQerE1pNFEXsfL4z2es8fDr-RQOy9QbZ5-AeGLDrFIrCU8SegrxQbgdcK- -A0iUChSBo-Ag_fTNwitLZN-MqUtctdPentNkwBBv9Tj-4ju7-vtMtDF_b6LLTLjk9k4BIJQd6NOhbtzkJaYOD_N_ZA-bUeV_Ys_yZAZtooR8ty2m00]--></g></svg>