<?xml version="1.0" encoding="us-ascii" standalone="no"?><svg xmlns="http://www.w3.org/2000/svg" xmlns:xlink="http://www.w3.org/1999/xlink" contentStyleType="text/css" height="319px" preserveAspectRatio="none" style="width:344px;height:319px;background:#FFFFFF;" version="1.1" viewBox="0 0 344 319" width="344px" zoomAndPan="magnify"><defs/><g><!--class ExecuteRemoteServiceData--><g id="elem_ExecuteRemoteServiceData"><rect codeLine="77" fill="#EBF5FB" height="141.1055" id="ExecuteRemoteServiceData" rx="2.5" ry="2.5" style="stroke:#3498DB;stroke-width:2.0;" width="330" x="7" y="7"/><ellipse cx="79.75" cy="23" fill="#ADD1B2" rx="11" ry="11" style="stroke:#181818;stroke-width:1.0;"/><path d="M82.5156,18.875 Q82.6719,18.6563 82.8594,18.5469 Q83.0469,18.4375 83.2656,18.4375 Q83.6406,18.4375 83.875,18.7031 Q84.1094,18.9531 84.1094,19.5625 L84.1094,21.0156 Q84.1094,21.625 83.875,21.8906 Q83.6406,22.1563 83.2656,22.1563 Q82.9219,22.1563 82.7188,21.9531 Q82.5156,21.7656 82.4063,21.25 Q82.3594,20.8906 82.1719,20.7031 Q81.8438,20.3281 81.2344,20.1094 Q80.625,19.8906 80,19.8906 Q79.2344,19.8906 78.5938,20.2188 Q77.9688,20.5469 77.4688,21.2969 Q76.9844,22.0469 76.9844,23.0781 L76.9844,24.1719 Q76.9844,25.4063 77.875,26.2344 Q78.7656,27.0469 80.3594,27.0469 Q81.2969,27.0469 81.9531,26.7969 Q82.3438,26.6406 82.7656,26.2031 Q83.0313,25.9375 83.1719,25.8594 Q83.3281,25.7813 83.5313,25.7813 Q83.8594,25.7813 84.1094,26.0469 Q84.375,26.2969 84.375,26.6406 Q84.375,26.9844 84.0313,27.3906 Q83.5313,27.9688 82.7344,28.2969 Q81.6563,28.75 80.3594,28.75 Q78.8438,28.75 77.6406,28.125 Q76.6563,27.625 75.9688,26.5625 Q75.2813,25.4844 75.2813,24.2031 L75.2813,23.0469 Q75.2813,21.7188 75.8906,20.5781 Q76.5156,19.4219 77.6094,18.8125 Q78.7031,18.1875 79.9375,18.1875 Q80.6719,18.1875 81.3125,18.3594 Q81.9688,18.5156 82.5156,18.875 Z " fill="#000000"/><text fill="#000000" font-family="sans-serif" font-size="14" lengthAdjust="spacing" textLength="176" x="100.25" y="28.7969">ExecuteRemoteServiceData</text><line style="stroke:#3498DB;stroke-width:2.0;" x1="8" x2="336" y1="39" y2="39"/><text fill="#000000" font-family="sans-serif" font-size="14" font-weight="bold" lengthAdjust="spacing" textLength="43" x="13" y="58.1074">action</text><text fill="#000000" font-family="sans-serif" font-size="14" lengthAdjust="spacing" textLength="66" x="60" y="58.1074">: String = "</text><text fill="#000000" font-family="sans-serif" font-size="14" font-weight="bold" lengthAdjust="spacing" textLength="200" x="126" y="58.1074">EXECUTE_REMOTE_SERVICE</text><text fill="#000000" font-family="sans-serif" font-size="14" lengthAdjust="spacing" textLength="5" x="326" y="58.1074">"</text><text fill="#000000" font-family="sans-serif" font-size="14" font-weight="bold" lengthAdjust="spacing" textLength="89" x="13" y="76.7285">clientNodeId</text><text fill="#000000" font-family="sans-serif" font-size="14" lengthAdjust="spacing" textLength="45" x="106" y="76.7285">: String</text><text fill="#000000" font-family="sans-serif" font-size="14" font-weight="bold" lengthAdjust="spacing" textLength="123" x="13" y="95.3496">localReaderName</text><text fill="#000000" font-family="sans-serif" font-size="14" lengthAdjust="spacing" textLength="45" x="140" y="95.3496">: String</text><text fill="#000000" font-family="sans-serif" font-size="14" font-weight="bold" lengthAdjust="spacing" textLength="68" x="13" y="113.9707">sessionId</text><text fill="#000000" font-family="sans-serif" font-size="14" lengthAdjust="spacing" textLength="45" x="85" y="113.9707">: String</text><text fill="#000000" font-family="sans-serif" font-size="14" font-weight="bold" lengthAdjust="spacing" textLength="34" x="13" y="132.5918">body</text><text fill="#000000" font-family="sans-serif" font-size="14" lengthAdjust="spacing" textLength="186" x="51" y="132.5918">: ExecuteRemoteServiceBody</text><line style="stroke:#3498DB;stroke-width:2.0;" x1="8" x2="336" y1="140.1055" y2="140.1055"/></g><!--class ExecuteRemoteServiceBody--><g id="elem_ExecuteRemoteServiceBody"><rect codeLine="78" fill="#EBF5FB" height="85.2422" id="ExecuteRemoteServiceBody" rx="2.5" ry="2.5" style="stroke:#3498DB;stroke-width:2.0;" width="210" x="67" y="227"/><ellipse cx="82" cy="243" fill="#ADD1B2" rx="11" ry="11" style="stroke:#181818;stroke-width:1.0;"/><path d="M84.7656,238.875 Q84.9219,238.6563 85.1094,238.5469 Q85.2969,238.4375 85.5156,238.4375 Q85.8906,238.4375 86.125,238.7031 Q86.3594,238.9531 86.3594,239.5625 L86.3594,241.0156 Q86.3594,241.625 86.125,241.8906 Q85.8906,242.1563 85.5156,242.1563 Q85.1719,242.1563 84.9688,241.9531 Q84.7656,241.7656 84.6563,241.25 Q84.6094,240.8906 84.4219,240.7031 Q84.0938,240.3281 83.4844,240.1094 Q82.875,239.8906 82.25,239.8906 Q81.4844,239.8906 80.8438,240.2188 Q80.2188,240.5469 79.7188,241.2969 Q79.2344,242.0469 79.2344,243.0781 L79.2344,244.1719 Q79.2344,245.4063 80.125,246.2344 Q81.0156,247.0469 82.6094,247.0469 Q83.5469,247.0469 84.2031,246.7969 Q84.5938,246.6406 85.0156,246.2031 Q85.2813,245.9375 85.4219,245.8594 Q85.5781,245.7813 85.7813,245.7813 Q86.1094,245.7813 86.3594,246.0469 Q86.625,246.2969 86.625,246.6406 Q86.625,246.9844 86.2813,247.3906 Q85.7813,247.9688 84.9844,248.2969 Q83.9063,248.75 82.6094,248.75 Q81.0938,248.75 79.8906,248.125 Q78.9063,247.625 78.2188,246.5625 Q77.5313,245.4844 77.5313,244.2031 L77.5313,243.0469 Q77.5313,241.7188 78.1406,240.5781 Q78.7656,239.4219 79.8594,238.8125 Q80.9531,238.1875 82.1875,238.1875 Q82.9219,238.1875 83.5625,238.3594 Q84.2188,238.5156 84.7656,238.875 Z " fill="#000000"/><text fill="#000000" font-family="sans-serif" font-size="14" lengthAdjust="spacing" textLength="178" x="96" y="248.7969">ExecuteRemoteServiceBody</text><line style="stroke:#3498DB;stroke-width:2.0;" x1="68" x2="276" y1="259" y2="259"/><text fill="#000000" font-family="sans-serif" font-size="14" font-weight="bold" lengthAdjust="spacing" textLength="66" x="73" y="278.1074">serviceId</text><text fill="#000000" font-family="sans-serif" font-size="14" lengthAdjust="spacing" textLength="45" x="143" y="278.1074">: String</text><text fill="#000000" font-family="sans-serif" font-size="14" font-weight="bold" lengthAdjust="spacing" textLength="67" x="73" y="296.7285">inputData</text><text fill="#000000" font-family="sans-serif" font-size="14" lengthAdjust="spacing" textLength="57" x="144" y="296.7285">: Object?</text><line style="stroke:#3498DB;stroke-width:2.0;" x1="68" x2="276" y1="304.2422" y2="304.2422"/></g><!--reverse link ExecuteRemoteServiceData to ExecuteRemoteServiceBody--><g id="link_ExecuteRemoteServiceData_ExecuteRemoteServiceBody"><path codeLine="70" d="M172,161.34 C172,183.95 172,207.5 172,226.74 " fill="none" id="ExecuteRemoteServiceData-backto-ExecuteRemoteServiceBody" style="stroke:#3498DB;stroke-width:2.0;"/><polygon fill="#3498DB" points="172,148.17,168,154.17,172,160.17,176,154.17,172,148.17" style="stroke:#3498DB;stroke-width:2.0;"/><text fill="#000000" font-family="sans-serif" font-size="13" lengthAdjust="spacing" textLength="61" x="173" y="193.0283">JsonString</text><text fill="#000000" font-family="sans-serif" font-size="13" lengthAdjust="spacing" textLength="7" x="164.4422" y="215.6026">1</text></g><!--SRC=[ZPNVSzeu4CVV_LTiwKDQppWanfIGQNfZIt9Bcq87oCtbgIFiJN0H5cF9oJ4t_Tyh_u02TU1umLvzTp-hNMbzfXCjq3e3y_k2wvL0e8dIMJBBDSRmUJ8QWlzjK0aYkLo9XASQdXCzXzQYT70KPaz9XCuF_iGTaSnQy8IPIcGAxldbkLVvidyOkPkoxsFsTMJ-9cpyzu0mUEDUk1tdekEuxblh3DCOgeICqyqDJ3-nhymyc5SYSu5vfY1HAaS5CS8rpBLUgUjsUwwN8f92Pf6CKPsRFDiFMLlpcK2UEp4wKUNTO3AFAdbCdPNWkcszYl4XIH78zuzZTdy9uLNO3_i7PXT2D-o4te6v0wpBUknGxG7jqO3I0tCNY4z2wXwOtq50IOVqTiotW-4Nw7ZzAnhiMEyc3DoUpzvT5BLo79ZejJ1rqNEk8PRfcMcIp1PLfr9ytlP4Fe3PQwhpfJ1kbbeawOfdV0bAOuPIhrVe1pABCID5HU6rtwU4Xet2mPumyFmUwpOAoNv4IYy3jr78zeGiw7SCkjmV6z8Ytnql8hXIbNuwJw95Yah1RbW_o-JpxfA9T8z2oES_el1eyPZ9F8rhSiX2HbWph9PGpoSNr8GSOtmYtllt6SOVFfYmb556ZeJTAbdFC-V0cYVce6-ClyjagD_op5o-a-1LAIlP7YDXxoZxj_YAUPvFD_YjVI-3cSXFymjHkPyWx8R1KVf6Mf_rcbrRzyWVCyJq9FgnK9NiVjXZuL7sLblVgHg-CH_Ir_y7lYxPlZb7x1IxbBgamxgxwFK-kPg9P3ISik6qceelZ5KhAY30_iN8ZF4nBgN6IJMbATSS_hEAaMpRFD9c9DYs6QKJC_FJHxY1bcqt1xNjLkqMYGHJFJIpTX3lEDUhGaPSZ96R3Gxv4lyKA7CP3RR9ToRZTMbjIZqmYzRF8tih1DkzrL-b9effHQwBGfHBezaFZFHV9hAffw-KZ19Ub4LPrei5jCr0QbssNixYTJsth-6pacbDhnfuwz-Fxgh-LOR9zFws-igTQDlcCfmgmLRt2m00]--></g></svg>