<?xml version="1.0" encoding="us-ascii" standalone="no"?><svg xmlns="http://www.w3.org/2000/svg" xmlns:xlink="http://www.w3.org/1999/xlink" contentStyleType="text/css" height="413px" preserveAspectRatio="none" style="width:620px;height:413px;background:#FFFFFF;" version="1.1" viewBox="0 0 620 413" width="620px" zoomAndPan="magnify"><defs/><g><rect fill="#D3D3D3" height="275.6191" style="stroke:#181818;stroke-width:1.0;" width="10" x="33.5" y="65.6211"/><rect fill="#D3D3D3" height="261.3281" style="stroke:#181818;stroke-width:1.0;" width="10" x="180.5" y="88.9121"/><rect fill="#D3D3D3" height="189.7461" style="stroke:#181818;stroke-width:1.0;" width="10" x="571.5" y="120.2031"/><rect fill="#EFEFEF" height="144.4551" rx="5" ry="5" style="stroke:#000000;stroke-width:1.5;" width="604.5" x="10" y="135.2031"/><line style="stroke:#181818;stroke-width:0.5;stroke-dasharray:5.0,5.0;" x1="38" x2="38" y1="55.6211" y2="359.2402"/><line style="stroke:#181818;stroke-width:0.5;stroke-dasharray:5.0,5.0;" x1="185" x2="185" y1="55.6211" y2="359.2402"/><line style="stroke:#181818;stroke-width:0.5;stroke-dasharray:5.0,5.0;" x1="576.5" x2="576.5" y1="55.6211" y2="359.2402"/><text fill="#000000" font-family="sans-serif" font-size="14" lengthAdjust="spacing" textLength="31" x="20" y="52.1074">Card</text><ellipse cx="38.5" cy="21" fill="#E2E2F0" rx="12" ry="12" style="stroke:#181818;stroke-width:0.5;"/><line style="stroke:#181818;stroke-width:0.5;" x1="26.5" x2="50.5" y1="35" y2="35"/><text fill="#000000" font-family="sans-serif" font-size="14" lengthAdjust="spacing" textLength="31" x="20" y="373.3477">Card</text><ellipse cx="38.5" cy="392.8613" fill="#E2E2F0" rx="12" ry="12" style="stroke:#181818;stroke-width:0.5;"/><line style="stroke:#181818;stroke-width:0.5;" x1="26.5" x2="50.5" y1="406.8613" y2="406.8613"/><rect fill="#E2E2F0" height="32.6211" rx="5" ry="5" style="stroke:#181818;stroke-width:0.5;" width="69" x="151" y="22"/><text fill="#000000" font-family="sans-serif" font-size="14" lengthAdjust="spacing" textLength="55" x="158" y="44.1074">Terminal</text><rect fill="#E2E2F0" height="32.6211" rx="5" ry="5" style="stroke:#181818;stroke-width:0.5;" width="69" x="151" y="358.2402"/><text fill="#000000" font-family="sans-serif" font-size="14" lengthAdjust="spacing" textLength="55" x="158" y="380.3477">Terminal</text><rect fill="#E2E2F0" height="32.6211" rx="5" ry="5" style="stroke:#181818;stroke-width:0.5;" width="56" x="548.5" y="22"/><text fill="#000000" font-family="sans-serif" font-size="14" lengthAdjust="spacing" textLength="42" x="555.5" y="44.1074">Server</text><rect fill="#E2E2F0" height="32.6211" rx="5" ry="5" style="stroke:#181818;stroke-width:0.5;" width="56" x="548.5" y="358.2402"/><text fill="#000000" font-family="sans-serif" font-size="14" lengthAdjust="spacing" textLength="42" x="555.5" y="380.3477">Server</text><rect fill="#D3D3D3" height="275.6191" style="stroke:#181818;stroke-width:1.0;" width="10" x="33.5" y="65.6211"/><rect fill="#D3D3D3" height="261.3281" style="stroke:#181818;stroke-width:1.0;" width="10" x="180.5" y="88.9121"/><rect fill="#D3D3D3" height="189.7461" style="stroke:#181818;stroke-width:1.0;" width="10" x="571.5" y="120.2031"/><polygon fill="#181818" points="168.5,84.9121,178.5,88.9121,168.5,88.9121" style="stroke:#181818;stroke-width:1.0;"/><line style="stroke:#181818;stroke-width:1.0;stroke-dasharray:2.0,2.0;" x1="43.5" x2="179.5" y1="88.9121" y2="88.9121"/><text fill="#000000" font-family="sans-serif" font-size="13" lengthAdjust="spacing" textLength="100" x="50.5" y="83.6494">a card is inserted</text><polygon fill="#FF0000" points="559.5,116.2031,569.5,120.2031,559.5,124.2031,563.5,120.2031" style="stroke:#FF0000;stroke-width:1.0;"/><line style="stroke:#FF0000;stroke-width:1.0;" x1="190.5" x2="565.5" y1="120.2031" y2="120.2031"/><text fill="#000000" font-family="sans-serif" font-size="13" lengthAdjust="spacing" textLength="42" x="197.5" y="114.9404">JSON (</text><text fill="#000000" font-family="sans-serif" font-size="13" font-weight="bold" lengthAdjust="spacing" textLength="183" x="239.5" y="114.9404">EXECUTE_REMOTE_SERVICE</text><text fill="#000000" font-family="sans-serif" font-size="13" lengthAdjust="spacing" textLength="137" x="422.5" y="114.9404">, transaction input data)</text><path d="M15,135.2031 L83,135.2031 L83,144.4941 L73,154.4941 L10,154.4941 L10,140.2031 A5,5 0 0 1 15,135.2031 " fill="#EEEEEE" style="stroke:#000000;stroke-width:1.5;"/><rect fill="none" height="144.4551" rx="5" ry="5" style="stroke:#000000;stroke-width:1.5;" width="604.5" x="10" y="135.2031"/><text fill="#000000" font-family="sans-serif" font-size="13" font-weight="bold" lengthAdjust="spacing" textLength="28" x="25" y="150.2314">loop</text><text fill="#000000" font-family="sans-serif" font-size="11" font-weight="bold" lengthAdjust="spacing" textLength="429" x="98" y="149.0732">[while there are actions to be performed with the card or the terminal reader]</text><polygon fill="#0000FF" points="201.5,173.7852,191.5,177.7852,201.5,181.7852,197.5,177.7852" style="stroke:#0000FF;stroke-width:1.0;"/><line style="stroke:#0000FF;stroke-width:1.0;stroke-dasharray:2.0,2.0;" x1="195.5" x2="570.5" y1="177.7852" y2="177.7852"/><text fill="#000000" font-family="sans-serif" font-size="13" lengthAdjust="spacing" textLength="42" x="207.5" y="172.5225">JSON (</text><text fill="#000000" font-family="sans-serif" font-size="13" font-weight="bold" lengthAdjust="spacing" textLength="29" x="249.5" y="172.5225">CMD</text><text fill="#000000" font-family="sans-serif" font-size="13" lengthAdjust="spacing" textLength="47" x="278.5" y="172.5225">, action)</text><polygon fill="#FF0000" points="54.5,205.0762,44.5,209.0762,54.5,213.0762,50.5,209.0762" style="stroke:#FF0000;stroke-width:1.0;"/><line style="stroke:#FF0000;stroke-width:1.0;" x1="48.5" x2="179.5" y1="209.0762" y2="209.0762"/><text fill="#000000" font-family="sans-serif" font-size="13" lengthAdjust="spacing" textLength="93" x="60.5" y="203.8135">process (action)</text><polygon fill="#0000FF" points="168.5,236.3672,178.5,240.3672,168.5,244.3672,172.5,240.3672" style="stroke:#0000FF;stroke-width:1.0;"/><line style="stroke:#0000FF;stroke-width:1.0;stroke-dasharray:2.0,2.0;" x1="43.5" x2="174.5" y1="240.3672" y2="240.3672"/><text fill="#000000" font-family="sans-serif" font-size="13" lengthAdjust="spacing" textLength="32" x="50.5" y="235.1045">result</text><polygon fill="#FF0000" points="559.5,267.6582,569.5,271.6582,559.5,275.6582,563.5,271.6582" style="stroke:#FF0000;stroke-width:1.0;"/><line style="stroke:#FF0000;stroke-width:1.0;" x1="190.5" x2="565.5" y1="271.6582" y2="271.6582"/><text fill="#000000" font-family="sans-serif" font-size="13" lengthAdjust="spacing" textLength="42" x="197.5" y="266.3955">JSON (</text><text fill="#000000" font-family="sans-serif" font-size="13" font-weight="bold" lengthAdjust="spacing" textLength="35" x="239.5" y="266.3955">RESP</text><text fill="#000000" font-family="sans-serif" font-size="13" lengthAdjust="spacing" textLength="44" x="274.5" y="266.3955">, result)</text><polygon fill="#0000FF" points="201.5,305.9492,191.5,309.9492,201.5,313.9492,197.5,309.9492" style="stroke:#0000FF;stroke-width:1.0;"/><line style="stroke:#0000FF;stroke-width:1.0;stroke-dasharray:2.0,2.0;" x1="195.5" x2="575.5" y1="309.9492" y2="309.9492"/><text fill="#000000" font-family="sans-serif" font-size="13" lengthAdjust="spacing" textLength="42" x="207.5" y="304.6865">JSON (</text><text fill="#000000" font-family="sans-serif" font-size="13" font-weight="bold" lengthAdjust="spacing" textLength="150" x="249.5" y="304.6865">END_REMOTE_SERVICE</text><text fill="#000000" font-family="sans-serif" font-size="13" lengthAdjust="spacing" textLength="145" x="399.5" y="304.6865">, transaction output data)</text><polygon fill="#181818" points="168.5,337.2402,178.5,341.2402,168.5,341.2402" style="stroke:#181818;stroke-width:1.0;"/><line style="stroke:#181818;stroke-width:1.0;stroke-dasharray:2.0,2.0;" x1="38.5" x2="179.5" y1="341.2402" y2="341.2402"/><text fill="#000000" font-family="sans-serif" font-size="13" lengthAdjust="spacing" textLength="113" x="45.5" y="335.9775">the card is removed</text><!--SRC=[ZLBRIiD047tVhnZQXrwme3uA2XBN6xQLDegW8ciocgNfRfoTjFZtRZRHHYreGiWaC-USsJFJWyD3YC_bMFf02BVGfb2abZ2pfKaZImO9zdP5RvDn-5QYIV2OoAxZJ2SBWyx1lX2zYYoQJc8vYGCT6jRy3fr8KTe1vI3nWV0qh1DTACFGYP6MsgYyJkVQGxuNp95MI27jGYY4IbYl56EWW-wLVituZF1TXE_HwA4XWWDGTOrse8s7CwPjU5tL9gZ_ZEwxXEdZKQFeUIxdqmdqXqDv9wERM3xDv7ZgNtCvkxs8v72u0qpAk8hQ6gzLb0ofOZLeoJLaBJcHMrj0LvvMDwmpdIDmXeIWgYUGEM0BpmW5qekb9QQmrfnLPVNHB8MO6n-1KANU9F1N8-XFyvoN-3WwslZoUPveV58rNqiD0kgd1q7b00goIJNd_hVQOFWMVa9NvhoLxvUdCpc_hfgeCGE_DNv8_-XTJax-c8CjUJE857zCGcpPbozR_SOGBktABqmB6FRt0m00]--></g></svg>