<?xml version="1.0" encoding="us-ascii" standalone="no"?><svg xmlns="http://www.w3.org/2000/svg" xmlns:xlink="http://www.w3.org/1999/xlink" contentStyleType="text/css" height="396px" preserveAspectRatio="none" style="width:401px;height:396px;background:#FFFFFF;" version="1.1" viewBox="0 0 401 396" width="401px" zoomAndPan="magnify"><defs/><g><text fill="#000000" font-family="sans-serif" font-size="14" font-weight="bold" lengthAdjust="spacing" textLength="198" x="97.5" y="25.1074">Keyple Distributed JSON API</text><text fill="#000000" font-family="sans-serif" font-size="14" font-weight="bold" lengthAdjust="spacing" textLength="373" x="10" y="43.7285">compliant with "keyple-service-java-lib" version 2.1.4</text><text fill="#000000" font-family="sans-serif" font-size="14" font-weight="bold" lengthAdjust="spacing" textLength="288" x="52.5" y="62.3496">EXECUTE_REMOTE_SERVICE (2023-03-22)</text><!--class ExecuteRemoteServiceMessage--><g id="elem_ExecuteRemoteServiceMessage"><rect codeLine="77" fill="#EBF5FB" height="141.1055" id="ExecuteRemoteServiceMessage" rx="2.5" ry="2.5" style="stroke:#3498DB;stroke-width:2.0;" width="330" x="38.5" y="83.8633"/><ellipse cx="97.75" cy="99.8633" fill="#ADD1B2" rx="11" ry="11" style="stroke:#181818;stroke-width:1.0;"/><path d="M100.5156,95.7383 Q100.6719,95.5195 100.8594,95.4102 Q101.0469,95.3008 101.2656,95.3008 Q101.6406,95.3008 101.875,95.5664 Q102.1094,95.8164 102.1094,96.4258 L102.1094,97.8789 Q102.1094,98.4883 101.875,98.7539 Q101.6406,99.0195 101.2656,99.0195 Q100.9219,99.0195 100.7188,98.8164 Q100.5156,98.6289 100.4063,98.1133 Q100.3594,97.7539 100.1719,97.5664 Q99.8438,97.1914 99.2344,96.9727 Q98.625,96.7539 98,96.7539 Q97.2344,96.7539 96.5938,97.082 Q95.9688,97.4102 95.4688,98.1602 Q94.9844,98.9102 94.9844,99.9414 L94.9844,101.0352 Q94.9844,102.2695 95.875,103.0977 Q96.7656,103.9102 98.3594,103.9102 Q99.2969,103.9102 99.9531,103.6602 Q100.3438,103.5039 100.7656,103.0664 Q101.0313,102.8008 101.1719,102.7227 Q101.3281,102.6445 101.5313,102.6445 Q101.8594,102.6445 102.1094,102.9102 Q102.375,103.1602 102.375,103.5039 Q102.375,103.8477 102.0313,104.2539 Q101.5313,104.832 100.7344,105.1602 Q99.6563,105.6133 98.3594,105.6133 Q96.8438,105.6133 95.6406,104.9883 Q94.6563,104.4883 93.9688,103.4258 Q93.2813,102.3477 93.2813,101.0664 L93.2813,99.9102 Q93.2813,98.582 93.8906,97.4414 Q94.5156,96.2852 95.6094,95.6758 Q96.7031,95.0508 97.9375,95.0508 Q98.6719,95.0508 99.3125,95.2227 Q99.9688,95.3789 100.5156,95.7383 Z " fill="#000000"/><text fill="#000000" font-family="sans-serif" font-size="14" lengthAdjust="spacing" textLength="203" x="118.25" y="105.6602">ExecuteRemoteServiceMessage</text><line style="stroke:#3498DB;stroke-width:2.0;" x1="39.5" x2="367.5" y1="115.8633" y2="115.8633"/><text fill="#000000" font-family="sans-serif" font-size="14" font-weight="bold" lengthAdjust="spacing" textLength="43" x="44.5" y="134.9707">action</text><text fill="#000000" font-family="sans-serif" font-size="14" lengthAdjust="spacing" textLength="66" x="91.5" y="134.9707">: String = "</text><text fill="#000000" font-family="sans-serif" font-size="14" font-weight="bold" lengthAdjust="spacing" textLength="200" x="157.5" y="134.9707">EXECUTE_REMOTE_SERVICE</text><text fill="#000000" font-family="sans-serif" font-size="14" lengthAdjust="spacing" textLength="5" x="357.5" y="134.9707">"</text><text fill="#000000" font-family="sans-serif" font-size="14" font-weight="bold" lengthAdjust="spacing" textLength="89" x="44.5" y="153.5918">clientNodeId</text><text fill="#000000" font-family="sans-serif" font-size="14" lengthAdjust="spacing" textLength="45" x="137.5" y="153.5918">: String</text><text fill="#000000" font-family="sans-serif" font-size="14" font-weight="bold" lengthAdjust="spacing" textLength="123" x="44.5" y="172.2129">localReaderName</text><text fill="#000000" font-family="sans-serif" font-size="14" lengthAdjust="spacing" textLength="45" x="171.5" y="172.2129">: String</text><text fill="#000000" font-family="sans-serif" font-size="14" font-weight="bold" lengthAdjust="spacing" textLength="68" x="44.5" y="190.834">sessionId</text><text fill="#000000" font-family="sans-serif" font-size="14" lengthAdjust="spacing" textLength="45" x="116.5" y="190.834">: String</text><text fill="#000000" font-family="sans-serif" font-size="14" font-weight="bold" lengthAdjust="spacing" textLength="34" x="44.5" y="209.4551">body</text><text fill="#000000" font-family="sans-serif" font-size="14" lengthAdjust="spacing" textLength="186" x="82.5" y="209.4551">: ExecuteRemoteServiceBody</text><line style="stroke:#3498DB;stroke-width:2.0;" x1="39.5" x2="367.5" y1="216.9688" y2="216.9688"/></g><!--class ExecuteRemoteServiceBody--><g id="elem_ExecuteRemoteServiceBody"><rect codeLine="78" fill="#EBF5FB" height="85.2422" id="ExecuteRemoteServiceBody" rx="2.5" ry="2.5" style="stroke:#3498DB;stroke-width:2.0;" width="210" x="98.5" y="303.8633"/><ellipse cx="113.5" cy="319.8633" fill="#ADD1B2" rx="11" ry="11" style="stroke:#181818;stroke-width:1.0;"/><path d="M116.2656,315.7383 Q116.4219,315.5195 116.6094,315.4102 Q116.7969,315.3008 117.0156,315.3008 Q117.3906,315.3008 117.625,315.5664 Q117.8594,315.8164 117.8594,316.4258 L117.8594,317.8789 Q117.8594,318.4883 117.625,318.7539 Q117.3906,319.0195 117.0156,319.0195 Q116.6719,319.0195 116.4688,318.8164 Q116.2656,318.6289 116.1563,318.1133 Q116.1094,317.7539 115.9219,317.5664 Q115.5938,317.1914 114.9844,316.9727 Q114.375,316.7539 113.75,316.7539 Q112.9844,316.7539 112.3438,317.082 Q111.7188,317.4102 111.2188,318.1602 Q110.7344,318.9102 110.7344,319.9414 L110.7344,321.0352 Q110.7344,322.2695 111.625,323.0977 Q112.5156,323.9102 114.1094,323.9102 Q115.0469,323.9102 115.7031,323.6602 Q116.0938,323.5039 116.5156,323.0664 Q116.7813,322.8008 116.9219,322.7227 Q117.0781,322.6445 117.2813,322.6445 Q117.6094,322.6445 117.8594,322.9102 Q118.125,323.1602 118.125,323.5039 Q118.125,323.8477 117.7813,324.2539 Q117.2813,324.832 116.4844,325.1602 Q115.4063,325.6133 114.1094,325.6133 Q112.5938,325.6133 111.3906,324.9883 Q110.4063,324.4883 109.7188,323.4258 Q109.0313,322.3477 109.0313,321.0664 L109.0313,319.9102 Q109.0313,318.582 109.6406,317.4414 Q110.2656,316.2852 111.3594,315.6758 Q112.4531,315.0508 113.6875,315.0508 Q114.4219,315.0508 115.0625,315.2227 Q115.7188,315.3789 116.2656,315.7383 Z " fill="#000000"/><text fill="#000000" font-family="sans-serif" font-size="14" lengthAdjust="spacing" textLength="178" x="127.5" y="325.6602">ExecuteRemoteServiceBody</text><line style="stroke:#3498DB;stroke-width:2.0;" x1="99.5" x2="307.5" y1="335.8633" y2="335.8633"/><text fill="#000000" font-family="sans-serif" font-size="14" font-weight="bold" lengthAdjust="spacing" textLength="66" x="104.5" y="354.9707">serviceId</text><text fill="#000000" font-family="sans-serif" font-size="14" lengthAdjust="spacing" textLength="45" x="174.5" y="354.9707">: String</text><text fill="#000000" font-family="sans-serif" font-size="14" font-weight="bold" lengthAdjust="spacing" textLength="67" x="104.5" y="373.5918">inputData</text><text fill="#000000" font-family="sans-serif" font-size="14" lengthAdjust="spacing" textLength="57" x="175.5" y="373.5918">: Object?</text><line style="stroke:#3498DB;stroke-width:2.0;" x1="99.5" x2="307.5" y1="381.1055" y2="381.1055"/></g><!--reverse link ExecuteRemoteServiceMessage to ExecuteRemoteServiceBody--><g id="link_ExecuteRemoteServiceMessage_ExecuteRemoteServiceBody"><path codeLine="70" d="M203.5,238.2003 C203.5,260.8143 203.5,284.3623 203.5,303.6064 " fill="none" id="ExecuteRemoteServiceMessage-backto-ExecuteRemoteServiceBody" style="stroke:#3498DB;stroke-width:2.0;"/><polygon fill="#3498DB" points="203.5,225.0333,199.5,231.0333,203.5,237.0333,207.5,231.0333,203.5,225.0333" style="stroke:#3498DB;stroke-width:2.0;"/><text fill="#000000" font-family="sans-serif" font-size="13" lengthAdjust="spacing" textLength="61" x="204.5" y="269.8916">JsonString</text><text fill="#000000" font-family="sans-serif" font-size="13" lengthAdjust="spacing" textLength="7" x="195.9422" y="292.4694">1</text></g><!--SRC=[ZLLHaz8m47xlhrZnGUrCZxjIvBZnTDeaLVGE7E0Sxya9xHvKGiCqwPsCutytj0K1AyWBxPTlzzli9bzreWLQO7wVSBKK23HHEaickSOOFeu6VV0_zuhrI2wM8k6fXgT4pw0nB_YEmkmnYT3vpX-v8v990nunKubCmJsxEFEAKFQLaRin-pPajmFpDsB3Bpt2uALxxhQSyvRZkgyiJ6FGHJ7M2xY-Xl47TilCWtabCXUOPmeIfN9K42DSmKphfRfgDcTw8I8fP1R96DMPgRBva3KrdmZakHEZ4vNHDP1vLCaqTPQ2wwRrBCQ794KWtzuFsVq5X9TXD-mUm2w4RjWAlGEu1QpDEkoGxG7jq83I0xWDn2SXTG_Wrn1GqYAT7VYcr_y4BQzxIOCTz6x4mEtuxFNvkbUE0oEz4gOlUiOrn39zOKOaitavfnIVjXEH3s3sckfy8KoOfUP9kkGPNu3IcA7KgoNwWSnYpCYwe_3Sxr92mrfYRuyOU7w7jMk9P3yZfHU1MqjaUqGMT5j6kjWVwzDrlJjHH72bIlvubaJp59M2tRH-bicdtIMJwHw5a4z_PU7HV9h9F8qhvP25ZB1wiOf2FP-SKvDoYF69V6_UP1Y_VMlIKaOPEP9sosGTpvm3QvQOWxu1_xJ9g7xECtFrJWel2rgXxJ4ITevg_o5VCi_pwKP-Y-zLC17vQVqrgTXF4BR3uAZwXbgTzKgxGlUKtsU8wKdfwPfLQ7V33WkFQc-vrPsgn3VmeVhgVyHNXRPlpX4xfLrGNT9YxLtfrRvowObaq1-p_hXqnN-ugXMjHO3zmCXu-10NKkEezEXRSnFu5E5dOSgspIDjNC6sZPkEZEUdKxY6XctNvxNjHXKMYGHJtJTssujtWgjL8ICkXiZD7ljyWNyJbAd2oDR5JcIyAj2wwWEpQFqwihqrORktwhDKfsAcaMlADI-M1fFl6Ebt9hDfgQ-KZ1A-Rekoh6Czj8qjDIuQ_oxaUUNUL_1HoRGge1pZZNy_k2kdM0AZyVrD-QqxFRpDhJZLY2tlDm00]--></g></svg>