<?xml version="1.0" encoding="us-ascii" standalone="no"?><svg xmlns="http://www.w3.org/2000/svg" xmlns:xlink="http://www.w3.org/1999/xlink" contentStyleType="text/css" height="850px" preserveAspectRatio="none" style="width:1413px;height:850px;background:#FFFFFF;" version="1.1" viewBox="0 0 1413 850" width="1413px" zoomAndPan="magnify"><defs/><g><!--class RespData--><g id="elem_RespData"><rect codeLine="136" fill="#EBF5FB" height="178.3477" id="RespData" rx="2.5" ry="2.5" style="stroke:#3498DB;stroke-width:2.0;" width="201" x="445.5" y="7"/><ellipse cx="510.25" cy="23" fill="#ADD1B2" rx="11" ry="11" style="stroke:#181818;stroke-width:1.0;"/><path d="M513.0156,18.875 Q513.1719,18.6563 513.3594,18.5469 Q513.5469,18.4375 513.7656,18.4375 Q514.1406,18.4375 514.375,18.7031 Q514.6094,18.9531 514.6094,19.5625 L514.6094,21.0156 Q514.6094,21.625 514.375,21.8906 Q514.1406,22.1563 513.7656,22.1563 Q513.4219,22.1563 513.2188,21.9531 Q513.0156,21.7656 512.9063,21.25 Q512.8594,20.8906 512.6719,20.7031 Q512.3438,20.3281 511.7344,20.1094 Q511.125,19.8906 510.5,19.8906 Q509.7344,19.8906 509.0938,20.2188 Q508.4688,20.5469 507.9688,21.2969 Q507.4844,22.0469 507.4844,23.0781 L507.4844,24.1719 Q507.4844,25.4063 508.375,26.2344 Q509.2656,27.0469 510.8594,27.0469 Q511.7969,27.0469 512.4531,26.7969 Q512.8438,26.6406 513.2656,26.2031 Q513.5313,25.9375 513.6719,25.8594 Q513.8281,25.7813 514.0313,25.7813 Q514.3594,25.7813 514.6094,26.0469 Q514.875,26.2969 514.875,26.6406 Q514.875,26.9844 514.5313,27.3906 Q514.0313,27.9688 513.2344,28.2969 Q512.1563,28.75 510.8594,28.75 Q509.3438,28.75 508.1406,28.125 Q507.1563,27.625 506.4688,26.5625 Q505.7813,25.4844 505.7813,24.2031 L505.7813,23.0469 Q505.7813,21.7188 506.3906,20.5781 Q507.0156,19.4219 508.1094,18.8125 Q509.2031,18.1875 510.4375,18.1875 Q511.1719,18.1875 511.8125,18.3594 Q512.4688,18.5156 513.0156,18.875 Z " fill="#000000"/><text fill="#000000" font-family="sans-serif" font-size="14" lengthAdjust="spacing" textLength="63" x="530.75" y="28.7969">RespData</text><line style="stroke:#3498DB;stroke-width:2.0;" x1="446.5" x2="645.5" y1="39" y2="39"/><text fill="#000000" font-family="sans-serif" font-size="14" font-weight="bold" lengthAdjust="spacing" textLength="43" x="451.5" y="58.1074">action</text><text fill="#000000" font-family="sans-serif" font-size="14" lengthAdjust="spacing" textLength="66" x="498.5" y="58.1074">: String = "</text><text fill="#000000" font-family="sans-serif" font-size="14" font-weight="bold" lengthAdjust="spacing" textLength="37" x="564.5" y="58.1074">RESP</text><text fill="#000000" font-family="sans-serif" font-size="14" lengthAdjust="spacing" textLength="5" x="601.5" y="58.1074">"</text><text fill="#000000" font-family="sans-serif" font-size="14" font-weight="bold" lengthAdjust="spacing" textLength="89" x="451.5" y="76.7285">clientNodeId</text><text fill="#000000" font-family="sans-serif" font-size="14" lengthAdjust="spacing" textLength="45" x="544.5" y="76.7285">: String</text><text fill="#000000" font-family="sans-serif" font-size="14" font-weight="bold" lengthAdjust="spacing" textLength="123" x="451.5" y="95.3496">localReaderName</text><text fill="#000000" font-family="sans-serif" font-size="14" lengthAdjust="spacing" textLength="45" x="578.5" y="95.3496">: String</text><text fill="#000000" font-family="sans-serif" font-size="14" font-weight="bold" lengthAdjust="spacing" textLength="97" x="451.5" y="113.9707">serverNodeId</text><text fill="#000000" font-family="sans-serif" font-size="14" lengthAdjust="spacing" textLength="45" x="552.5" y="113.9707">: String</text><text fill="#000000" font-family="sans-serif" font-size="14" font-weight="bold" lengthAdjust="spacing" textLength="140" x="451.5" y="132.5918">remoteReaderName</text><text fill="#000000" font-family="sans-serif" font-size="14" lengthAdjust="spacing" textLength="45" x="595.5" y="132.5918">: String</text><text fill="#000000" font-family="sans-serif" font-size="14" font-weight="bold" lengthAdjust="spacing" textLength="68" x="451.5" y="151.2129">sessionId</text><text fill="#000000" font-family="sans-serif" font-size="14" lengthAdjust="spacing" textLength="45" x="523.5" y="151.2129">: String</text><text fill="#000000" font-family="sans-serif" font-size="14" font-weight="bold" lengthAdjust="spacing" textLength="34" x="451.5" y="169.834">body</text><text fill="#000000" font-family="sans-serif" font-size="14" lengthAdjust="spacing" textLength="73" x="489.5" y="169.834">: RespBody</text><line style="stroke:#3498DB;stroke-width:2.0;" x1="446.5" x2="645.5" y1="177.3477" y2="177.3477"/></g><!--class RespBody--><g id="elem_RespBody"><rect codeLine="137" fill="#EBF5FB" height="103.8633" id="RespBody" rx="2.5" ry="2.5" style="stroke:#3498DB;stroke-width:2.0;" width="114" x="489" y="264"/><ellipse cx="511.65" cy="280" fill="#A9DCDF" rx="11" ry="11" style="stroke:#181818;stroke-width:1.0;"/><path d="M513.8375,281.7656 L509.6969,281.7656 L509.275,282.7969 L509.6969,282.7969 Q510.3063,282.7969 510.5719,283.0313 Q510.8375,283.2656 510.8375,283.6563 Q510.8375,284.0313 510.5719,284.2656 Q510.3063,284.5 509.6969,284.5 L507.4,284.5 Q506.7906,284.5 506.5406,284.2656 Q506.275,284.0313 506.275,283.6406 Q506.275,283.2656 506.5563,283.0313 Q506.8219,282.7813 507.4469,282.7969 L510.1188,276.1406 L509.0094,276.1406 Q508.4,276.1406 508.1344,275.9063 Q507.8688,275.6719 507.8688,275.2813 Q507.8688,274.9063 508.1344,274.6719 Q508.4,274.4375 509.0094,274.4375 L512.6813,274.4375 L516.0719,282.7969 Q516.6656,282.7969 516.8531,282.9375 Q517.2438,283.2031 517.2438,283.6563 Q517.2438,284.0313 516.9781,284.2656 Q516.7281,284.5 516.1188,284.5 L513.8219,284.5 Q513.2125,284.5 512.9469,284.2656 Q512.6813,284.0313 512.6813,283.6406 Q512.6813,283.2656 512.9469,283.0313 Q513.2125,282.7969 513.8219,282.7969 L514.2438,282.7969 L513.8375,281.7656 Z M513.1188,280.0625 L511.7594,276.6875 L510.3844,280.0625 L513.1188,280.0625 Z " fill="#000000"/><text fill="#000000" font-family="sans-serif" font-size="14" font-style="italic" lengthAdjust="spacing" textLength="65" x="527.35" y="285.7969">RespBody</text><line style="stroke:#3498DB;stroke-width:2.0;" x1="490" x2="602" y1="296" y2="296"/><text fill="#000000" font-family="sans-serif" font-size="14" font-weight="bold" lengthAdjust="spacing" textLength="53" x="495" y="315.1074">service</text><text fill="#000000" font-family="sans-serif" font-size="14" lengthAdjust="spacing" textLength="45" x="552" y="315.1074">: String</text><text fill="#000000" font-family="sans-serif" font-size="14" font-weight="bold" lengthAdjust="spacing" textLength="41" x="495" y="333.7285">result</text><text fill="#000000" font-family="sans-serif" font-size="14" lengthAdjust="spacing" textLength="57" x="540" y="333.7285">: Object?</text><text fill="#000000" font-family="sans-serif" font-size="14" font-weight="bold" lengthAdjust="spacing" textLength="36" x="495" y="352.3496">error</text><text fill="#000000" font-family="sans-serif" font-size="14" lengthAdjust="spacing" textLength="48" x="535" y="352.3496">: Error?</text><line style="stroke:#3498DB;stroke-width:2.0;" x1="490" x2="602" y1="359.8633" y2="359.8633"/></g><!--class Error--><g id="elem_Error"><rect codeLine="139" fill="#EBF5FB" height="85.2422" id="Error" rx="2.5" ry="2.5" style="stroke:#3498DB;stroke-width:2.0;" width="124" x="638" y="273.5"/><ellipse cx="680" cy="289.5" fill="#ADD1B2" rx="11" ry="11" style="stroke:#181818;stroke-width:1.0;"/><path d="M682.7656,285.375 Q682.9219,285.1563 683.1094,285.0469 Q683.2969,284.9375 683.5156,284.9375 Q683.8906,284.9375 684.125,285.2031 Q684.3594,285.4531 684.3594,286.0625 L684.3594,287.5156 Q684.3594,288.125 684.125,288.3906 Q683.8906,288.6563 683.5156,288.6563 Q683.1719,288.6563 682.9688,288.4531 Q682.7656,288.2656 682.6563,287.75 Q682.6094,287.3906 682.4219,287.2031 Q682.0938,286.8281 681.4844,286.6094 Q680.875,286.3906 680.25,286.3906 Q679.4844,286.3906 678.8438,286.7188 Q678.2188,287.0469 677.7188,287.7969 Q677.2344,288.5469 677.2344,289.5781 L677.2344,290.6719 Q677.2344,291.9063 678.125,292.7344 Q679.0156,293.5469 680.6094,293.5469 Q681.5469,293.5469 682.2031,293.2969 Q682.5938,293.1406 683.0156,292.7031 Q683.2813,292.4375 683.4219,292.3594 Q683.5781,292.2813 683.7813,292.2813 Q684.1094,292.2813 684.3594,292.5469 Q684.625,292.7969 684.625,293.1406 Q684.625,293.4844 684.2813,293.8906 Q683.7813,294.4688 682.9844,294.7969 Q681.9063,295.25 680.6094,295.25 Q679.0938,295.25 677.8906,294.625 Q676.9063,294.125 676.2188,293.0625 Q675.5313,291.9844 675.5313,290.7031 L675.5313,289.5469 Q675.5313,288.2188 676.1406,287.0781 Q676.7656,285.9219 677.8594,285.3125 Q678.9531,284.6875 680.1875,284.6875 Q680.9219,284.6875 681.5625,284.8594 Q682.2188,285.0156 682.7656,285.375 Z " fill="#000000"/><text fill="#000000" font-family="sans-serif" font-size="14" lengthAdjust="spacing" textLength="32" x="700" y="295.2969">Error</text><line style="stroke:#3498DB;stroke-width:2.0;" x1="639" x2="761" y1="305.5" y2="305.5"/><text fill="#000000" font-family="sans-serif" font-size="14" font-weight="bold" lengthAdjust="spacing" textLength="35" x="644" y="324.6074">code</text><text fill="#000000" font-family="sans-serif" font-size="14" lengthAdjust="spacing" textLength="45" x="683" y="324.6074">: String</text><text fill="#000000" font-family="sans-serif" font-size="14" font-weight="bold" lengthAdjust="spacing" textLength="63" x="644" y="343.2285">message</text><text fill="#000000" font-family="sans-serif" font-size="14" lengthAdjust="spacing" textLength="45" x="711" y="343.2285">: String</text><line style="stroke:#3498DB;stroke-width:2.0;" x1="639" x2="761" y1="350.7422" y2="350.7422"/></g><!--class IsContactlessRespBody--><g id="elem_IsContactlessRespBody"><rect codeLine="152" fill="#EBF5FB" height="85.2422" id="IsContactlessRespBody" rx="2.5" ry="2.5" style="stroke:#3498DB;stroke-width:2.0;" width="262" x="7" y="429"/><ellipse cx="59.25" cy="445" fill="#ADD1B2" rx="11" ry="11" style="stroke:#181818;stroke-width:1.0;"/><path d="M62.0156,440.875 Q62.1719,440.6563 62.3594,440.5469 Q62.5469,440.4375 62.7656,440.4375 Q63.1406,440.4375 63.375,440.7031 Q63.6094,440.9531 63.6094,441.5625 L63.6094,443.0156 Q63.6094,443.625 63.375,443.8906 Q63.1406,444.1563 62.7656,444.1563 Q62.4219,444.1563 62.2188,443.9531 Q62.0156,443.7656 61.9063,443.25 Q61.8594,442.8906 61.6719,442.7031 Q61.3438,442.3281 60.7344,442.1094 Q60.125,441.8906 59.5,441.8906 Q58.7344,441.8906 58.0938,442.2188 Q57.4688,442.5469 56.9688,443.2969 Q56.4844,444.0469 56.4844,445.0781 L56.4844,446.1719 Q56.4844,447.4063 57.375,448.2344 Q58.2656,449.0469 59.8594,449.0469 Q60.7969,449.0469 61.4531,448.7969 Q61.8438,448.6406 62.2656,448.2031 Q62.5313,447.9375 62.6719,447.8594 Q62.8281,447.7813 63.0313,447.7813 Q63.3594,447.7813 63.6094,448.0469 Q63.875,448.2969 63.875,448.6406 Q63.875,448.9844 63.5313,449.3906 Q63.0313,449.9688 62.2344,450.2969 Q61.1563,450.75 59.8594,450.75 Q58.3438,450.75 57.1406,450.125 Q56.1563,449.625 55.4688,448.5625 Q54.7813,447.4844 54.7813,446.2031 L54.7813,445.0469 Q54.7813,443.7188 55.3906,442.5781 Q56.0156,441.4219 57.1094,440.8125 Q58.2031,440.1875 59.4375,440.1875 Q60.1719,440.1875 60.8125,440.3594 Q61.4688,440.5156 62.0156,440.875 Z " fill="#000000"/><text fill="#000000" font-family="sans-serif" font-size="14" lengthAdjust="spacing" textLength="149" x="79.75" y="450.7969">IsContactlessRespBody</text><line style="stroke:#3498DB;stroke-width:2.0;" x1="8" x2="268" y1="461" y2="461"/><text fill="#000000" font-family="sans-serif" font-size="14" font-weight="bold" lengthAdjust="spacing" textLength="53" x="13" y="480.1074">service</text><text fill="#000000" font-family="sans-serif" font-size="14" lengthAdjust="spacing" textLength="66" x="70" y="480.1074">: String = "</text><text fill="#000000" font-family="sans-serif" font-size="14" font-weight="bold" lengthAdjust="spacing" textLength="122" x="136" y="480.1074">IS_CONTACTLESS</text><text fill="#000000" font-family="sans-serif" font-size="14" lengthAdjust="spacing" textLength="5" x="258" y="480.1074">"</text><text fill="#000000" font-family="sans-serif" font-size="14" font-weight="bold" lengthAdjust="spacing" textLength="41" x="13" y="498.7285">result</text><text fill="#000000" font-family="sans-serif" font-size="14" lengthAdjust="spacing" textLength="68" x="58" y="498.7285">: Boolean?</text><line style="stroke:#3498DB;stroke-width:2.0;" x1="8" x2="268" y1="506.2422" y2="506.2422"/></g><!--class IsCardPresentRespBody--><g id="elem_IsCardPresentRespBody"><rect codeLine="149" fill="#EBF5FB" height="85.2422" id="IsCardPresentRespBody" rx="2.5" ry="2.5" style="stroke:#3498DB;stroke-width:2.0;" width="272" x="304" y="429"/><ellipse cx="358.25" cy="445" fill="#ADD1B2" rx="11" ry="11" style="stroke:#181818;stroke-width:1.0;"/><path d="M361.0156,440.875 Q361.1719,440.6563 361.3594,440.5469 Q361.5469,440.4375 361.7656,440.4375 Q362.1406,440.4375 362.375,440.7031 Q362.6094,440.9531 362.6094,441.5625 L362.6094,443.0156 Q362.6094,443.625 362.375,443.8906 Q362.1406,444.1563 361.7656,444.1563 Q361.4219,444.1563 361.2188,443.9531 Q361.0156,443.7656 360.9063,443.25 Q360.8594,442.8906 360.6719,442.7031 Q360.3438,442.3281 359.7344,442.1094 Q359.125,441.8906 358.5,441.8906 Q357.7344,441.8906 357.0938,442.2188 Q356.4688,442.5469 355.9688,443.2969 Q355.4844,444.0469 355.4844,445.0781 L355.4844,446.1719 Q355.4844,447.4063 356.375,448.2344 Q357.2656,449.0469 358.8594,449.0469 Q359.7969,449.0469 360.4531,448.7969 Q360.8438,448.6406 361.2656,448.2031 Q361.5313,447.9375 361.6719,447.8594 Q361.8281,447.7813 362.0313,447.7813 Q362.3594,447.7813 362.6094,448.0469 Q362.875,448.2969 362.875,448.6406 Q362.875,448.9844 362.5313,449.3906 Q362.0313,449.9688 361.2344,450.2969 Q360.1563,450.75 358.8594,450.75 Q357.3438,450.75 356.1406,450.125 Q355.1563,449.625 354.4688,448.5625 Q353.7813,447.4844 353.7813,446.2031 L353.7813,445.0469 Q353.7813,443.7188 354.3906,442.5781 Q355.0156,441.4219 356.1094,440.8125 Q357.2031,440.1875 358.4375,440.1875 Q359.1719,440.1875 359.8125,440.3594 Q360.4688,440.5156 361.0156,440.875 Z " fill="#000000"/><text fill="#000000" font-family="sans-serif" font-size="14" lengthAdjust="spacing" textLength="155" x="378.75" y="450.7969">IsCardPresentRespBody</text><line style="stroke:#3498DB;stroke-width:2.0;" x1="305" x2="575" y1="461" y2="461"/><text fill="#000000" font-family="sans-serif" font-size="14" font-weight="bold" lengthAdjust="spacing" textLength="53" x="310" y="480.1074">service</text><text fill="#000000" font-family="sans-serif" font-size="14" lengthAdjust="spacing" textLength="66" x="367" y="480.1074">: String = "</text><text fill="#000000" font-family="sans-serif" font-size="14" font-weight="bold" lengthAdjust="spacing" textLength="132" x="433" y="480.1074">IS_CARD_PRESENT</text><text fill="#000000" font-family="sans-serif" font-size="14" lengthAdjust="spacing" textLength="5" x="565" y="480.1074">"</text><text fill="#000000" font-family="sans-serif" font-size="14" font-weight="bold" lengthAdjust="spacing" textLength="41" x="310" y="498.7285">result</text><text fill="#000000" font-family="sans-serif" font-size="14" lengthAdjust="spacing" textLength="68" x="355" y="498.7285">: Boolean?</text><line style="stroke:#3498DB;stroke-width:2.0;" x1="305" x2="575" y1="506.2422" y2="506.2422"/></g><!--class TransmitCardSelectionRequestsRespBody--><g id="elem_TransmitCardSelectionRequestsRespBody"><rect codeLine="143" fill="#EBF5FB" height="85.2422" id="TransmitCardSelectionRequestsRespBody" rx="2.5" ry="2.5" style="stroke:#3498DB;stroke-width:2.0;" width="427" x="611.5" y="429"/><ellipse cx="686.25" cy="445" fill="#ADD1B2" rx="11" ry="11" style="stroke:#181818;stroke-width:1.0;"/><path d="M689.0156,440.875 Q689.1719,440.6563 689.3594,440.5469 Q689.5469,440.4375 689.7656,440.4375 Q690.1406,440.4375 690.375,440.7031 Q690.6094,440.9531 690.6094,441.5625 L690.6094,443.0156 Q690.6094,443.625 690.375,443.8906 Q690.1406,444.1563 689.7656,444.1563 Q689.4219,444.1563 689.2188,443.9531 Q689.0156,443.7656 688.9063,443.25 Q688.8594,442.8906 688.6719,442.7031 Q688.3438,442.3281 687.7344,442.1094 Q687.125,441.8906 686.5,441.8906 Q685.7344,441.8906 685.0938,442.2188 Q684.4688,442.5469 683.9688,443.2969 Q683.4844,444.0469 683.4844,445.0781 L683.4844,446.1719 Q683.4844,447.4063 684.375,448.2344 Q685.2656,449.0469 686.8594,449.0469 Q687.7969,449.0469 688.4531,448.7969 Q688.8438,448.6406 689.2656,448.2031 Q689.5313,447.9375 689.6719,447.8594 Q689.8281,447.7813 690.0313,447.7813 Q690.3594,447.7813 690.6094,448.0469 Q690.875,448.2969 690.875,448.6406 Q690.875,448.9844 690.5313,449.3906 Q690.0313,449.9688 689.2344,450.2969 Q688.1563,450.75 686.8594,450.75 Q685.3438,450.75 684.1406,450.125 Q683.1563,449.625 682.4688,448.5625 Q681.7813,447.4844 681.7813,446.2031 L681.7813,445.0469 Q681.7813,443.7188 682.3906,442.5781 Q683.0156,441.4219 684.1094,440.8125 Q685.2031,440.1875 686.4375,440.1875 Q687.1719,440.1875 687.8125,440.3594 Q688.4688,440.5156 689.0156,440.875 Z " fill="#000000"/><text fill="#000000" font-family="sans-serif" font-size="14" lengthAdjust="spacing" textLength="269" x="706.75" y="450.7969">TransmitCardSelectionRequestsRespBody</text><line style="stroke:#3498DB;stroke-width:2.0;" x1="612.5" x2="1037.5" y1="461" y2="461"/><text fill="#000000" font-family="sans-serif" font-size="14" font-weight="bold" lengthAdjust="spacing" textLength="53" x="617.5" y="480.1074">service</text><text fill="#000000" font-family="sans-serif" font-size="14" lengthAdjust="spacing" textLength="66" x="674.5" y="480.1074">: String = "</text><text fill="#000000" font-family="sans-serif" font-size="14" font-weight="bold" lengthAdjust="spacing" textLength="287" x="740.5" y="480.1074">TRANSMIT_CARD_SELECTION_REQUESTS</text><text fill="#000000" font-family="sans-serif" font-size="14" lengthAdjust="spacing" textLength="5" x="1027.5" y="480.1074">"</text><text fill="#000000" font-family="sans-serif" font-size="14" font-weight="bold" lengthAdjust="spacing" textLength="41" x="617.5" y="498.7285">result</text><text fill="#000000" font-family="sans-serif" font-size="14" lengthAdjust="spacing" textLength="177" x="662.5" y="498.7285">: CardSelectionResponse[]?</text><line style="stroke:#3498DB;stroke-width:2.0;" x1="612.5" x2="1037.5" y1="506.2422" y2="506.2422"/></g><!--class CardSelectionResponse--><g id="elem_CardSelectionResponse"><rect codeLine="144" fill="#EBF5FB" height="122.4844" id="CardSelectionResponse" rx="2.5" ry="2.5" style="stroke:#3498DB;stroke-width:2.0;" width="321" x="725.5" y="575"/><ellipse cx="805.25" cy="591" fill="#ADD1B2" rx="11" ry="11" style="stroke:#181818;stroke-width:1.0;"/><path d="M808.0156,586.875 Q808.1719,586.6563 808.3594,586.5469 Q808.5469,586.4375 808.7656,586.4375 Q809.1406,586.4375 809.375,586.7031 Q809.6094,586.9531 809.6094,587.5625 L809.6094,589.0156 Q809.6094,589.625 809.375,589.8906 Q809.1406,590.1563 808.7656,590.1563 Q808.4219,590.1563 808.2188,589.9531 Q808.0156,589.7656 807.9063,589.25 Q807.8594,588.8906 807.6719,588.7031 Q807.3438,588.3281 806.7344,588.1094 Q806.125,587.8906 805.5,587.8906 Q804.7344,587.8906 804.0938,588.2188 Q803.4688,588.5469 802.9688,589.2969 Q802.4844,590.0469 802.4844,591.0781 L802.4844,592.1719 Q802.4844,593.4063 803.375,594.2344 Q804.2656,595.0469 805.8594,595.0469 Q806.7969,595.0469 807.4531,594.7969 Q807.8438,594.6406 808.2656,594.2031 Q808.5313,593.9375 808.6719,593.8594 Q808.8281,593.7813 809.0313,593.7813 Q809.3594,593.7813 809.6094,594.0469 Q809.875,594.2969 809.875,594.6406 Q809.875,594.9844 809.5313,595.3906 Q809.0313,595.9688 808.2344,596.2969 Q807.1563,596.75 805.8594,596.75 Q804.3438,596.75 803.1406,596.125 Q802.1563,595.625 801.4688,594.5625 Q800.7813,593.4844 800.7813,592.2031 L800.7813,591.0469 Q800.7813,589.7188 801.3906,588.5781 Q802.0156,587.4219 803.1094,586.8125 Q804.2031,586.1875 805.4375,586.1875 Q806.1719,586.1875 806.8125,586.3594 Q807.4688,586.5156 808.0156,586.875 Z " fill="#000000"/><text fill="#000000" font-family="sans-serif" font-size="14" lengthAdjust="spacing" textLength="153" x="825.75" y="596.7969">CardSelectionResponse</text><line style="stroke:#3498DB;stroke-width:2.0;" x1="726.5" x2="1045.5" y1="607" y2="607"/><text fill="#000000" font-family="sans-serif" font-size="14" font-weight="bold" lengthAdjust="spacing" textLength="86" x="731.5" y="626.1074">hasMatched</text><text fill="#000000" font-family="sans-serif" font-size="14" lengthAdjust="spacing" textLength="60" x="821.5" y="626.1074">: Boolean</text><text fill="#000000" font-family="sans-serif" font-size="14" font-weight="bold" lengthAdjust="spacing" textLength="95" x="731.5" y="644.7285">powerOnData</text><text fill="#000000" font-family="sans-serif" font-size="14" lengthAdjust="spacing" textLength="53" x="830.5" y="644.7285">: String?</text><text fill="#000000" font-family="sans-serif" font-size="14" font-weight="bold" lengthAdjust="spacing" textLength="192" x="731.5" y="663.3496">selectApplicationResponse</text><text fill="#000000" font-family="sans-serif" font-size="14" lengthAdjust="spacing" textLength="113" x="927.5" y="663.3496">: ApduResponse?</text><text fill="#000000" font-family="sans-serif" font-size="14" font-weight="bold" lengthAdjust="spacing" textLength="102" x="731.5" y="681.9707">cardResponse</text><text fill="#000000" font-family="sans-serif" font-size="14" lengthAdjust="spacing" textLength="111" x="837.5" y="681.9707">: CardResponse?</text><line style="stroke:#3498DB;stroke-width:2.0;" x1="726.5" x2="1045.5" y1="689.4844" y2="689.4844"/></g><!--class CardResponse--><g id="elem_CardResponse"><rect codeLine="145" fill="#EBF5FB" height="85.2422" id="CardResponse" rx="2.5" ry="2.5" style="stroke:#3498DB;stroke-width:2.0;" width="243" x="1081.5" y="593.5"/><ellipse cx="1151.25" cy="609.5" fill="#ADD1B2" rx="11" ry="11" style="stroke:#181818;stroke-width:1.0;"/><path d="M1154.0156,605.375 Q1154.1719,605.1563 1154.3594,605.0469 Q1154.5469,604.9375 1154.7656,604.9375 Q1155.1406,604.9375 1155.375,605.2031 Q1155.6094,605.4531 1155.6094,606.0625 L1155.6094,607.5156 Q1155.6094,608.125 1155.375,608.3906 Q1155.1406,608.6563 1154.7656,608.6563 Q1154.4219,608.6563 1154.2188,608.4531 Q1154.0156,608.2656 1153.9063,607.75 Q1153.8594,607.3906 1153.6719,607.2031 Q1153.3438,606.8281 1152.7344,606.6094 Q1152.125,606.3906 1151.5,606.3906 Q1150.7344,606.3906 1150.0938,606.7188 Q1149.4688,607.0469 1148.9688,607.7969 Q1148.4844,608.5469 1148.4844,609.5781 L1148.4844,610.6719 Q1148.4844,611.9063 1149.375,612.7344 Q1150.2656,613.5469 1151.8594,613.5469 Q1152.7969,613.5469 1153.4531,613.2969 Q1153.8438,613.1406 1154.2656,612.7031 Q1154.5313,612.4375 1154.6719,612.3594 Q1154.8281,612.2813 1155.0313,612.2813 Q1155.3594,612.2813 1155.6094,612.5469 Q1155.875,612.7969 1155.875,613.1406 Q1155.875,613.4844 1155.5313,613.8906 Q1155.0313,614.4688 1154.2344,614.7969 Q1153.1563,615.25 1151.8594,615.25 Q1150.3438,615.25 1149.1406,614.625 Q1148.1563,614.125 1147.4688,613.0625 Q1146.7813,611.9844 1146.7813,610.7031 L1146.7813,609.5469 Q1146.7813,608.2188 1147.3906,607.0781 Q1148.0156,605.9219 1149.1094,605.3125 Q1150.2031,604.6875 1151.4375,604.6875 Q1152.1719,604.6875 1152.8125,604.8594 Q1153.4688,605.0156 1154.0156,605.375 Z " fill="#000000"/><text fill="#000000" font-family="sans-serif" font-size="14" lengthAdjust="spacing" textLength="95" x="1171.75" y="615.2969">CardResponse</text><line style="stroke:#3498DB;stroke-width:2.0;" x1="1082.5" x2="1323.5" y1="625.5" y2="625.5"/><text fill="#000000" font-family="sans-serif" font-size="14" font-weight="bold" lengthAdjust="spacing" textLength="158" x="1087.5" y="644.6074">isLogicalChannelOpen</text><text fill="#000000" font-family="sans-serif" font-size="14" lengthAdjust="spacing" textLength="60" x="1249.5" y="644.6074">: Boolean</text><text fill="#000000" font-family="sans-serif" font-size="14" font-weight="bold" lengthAdjust="spacing" textLength="114" x="1087.5" y="663.2285">apduResponses</text><text fill="#000000" font-family="sans-serif" font-size="14" lengthAdjust="spacing" textLength="113" x="1205.5" y="663.2285">: ApduResponse[]</text><line style="stroke:#3498DB;stroke-width:2.0;" x1="1082.5" x2="1323.5" y1="670.7422" y2="670.7422"/></g><!--class ApduResponse--><g id="elem_ApduResponse"><rect codeLine="146" fill="#EBF5FB" height="85.2422" id="ApduResponse" rx="2.5" ry="2.5" style="stroke:#3498DB;stroke-width:2.0;" width="141" x="1008.5" y="758"/><ellipse cx="1028.9" cy="774" fill="#ADD1B2" rx="11" ry="11" style="stroke:#181818;stroke-width:1.0;"/><path d="M1031.6656,769.875 Q1031.8219,769.6563 1032.0094,769.5469 Q1032.1969,769.4375 1032.4156,769.4375 Q1032.7906,769.4375 1033.025,769.7031 Q1033.2594,769.9531 1033.2594,770.5625 L1033.2594,772.0156 Q1033.2594,772.625 1033.025,772.8906 Q1032.7906,773.1563 1032.4156,773.1563 Q1032.0719,773.1563 1031.8688,772.9531 Q1031.6656,772.7656 1031.5563,772.25 Q1031.5094,771.8906 1031.3219,771.7031 Q1030.9938,771.3281 1030.3844,771.1094 Q1029.775,770.8906 1029.15,770.8906 Q1028.3844,770.8906 1027.7438,771.2188 Q1027.1188,771.5469 1026.6188,772.2969 Q1026.1344,773.0469 1026.1344,774.0781 L1026.1344,775.1719 Q1026.1344,776.4063 1027.025,777.2344 Q1027.9156,778.0469 1029.5094,778.0469 Q1030.4469,778.0469 1031.1031,777.7969 Q1031.4938,777.6406 1031.9156,777.2031 Q1032.1813,776.9375 1032.3219,776.8594 Q1032.4781,776.7813 1032.6813,776.7813 Q1033.0094,776.7813 1033.2594,777.0469 Q1033.525,777.2969 1033.525,777.6406 Q1033.525,777.9844 1033.1813,778.3906 Q1032.6813,778.9688 1031.8844,779.2969 Q1030.8063,779.75 1029.5094,779.75 Q1027.9938,779.75 1026.7906,779.125 Q1025.8063,778.625 1025.1188,777.5625 Q1024.4313,776.4844 1024.4313,775.2031 L1024.4313,774.0469 Q1024.4313,772.7188 1025.0406,771.5781 Q1025.6656,770.4219 1026.7594,769.8125 Q1027.8531,769.1875 1029.0875,769.1875 Q1029.8219,769.1875 1030.4625,769.3594 Q1031.1188,769.5156 1031.6656,769.875 Z " fill="#000000"/><text fill="#000000" font-family="sans-serif" font-size="14" lengthAdjust="spacing" textLength="97" x="1044.1" y="779.7969">ApduResponse</text><line style="stroke:#3498DB;stroke-width:2.0;" x1="1009.5" x2="1148.5" y1="790" y2="790"/><text fill="#000000" font-family="sans-serif" font-size="14" font-weight="bold" lengthAdjust="spacing" textLength="35" x="1014.5" y="809.1074">apdu</text><text fill="#000000" font-family="sans-serif" font-size="14" lengthAdjust="spacing" textLength="45" x="1053.5" y="809.1074">: String</text><text fill="#000000" font-family="sans-serif" font-size="14" font-weight="bold" lengthAdjust="spacing" textLength="80" x="1014.5" y="827.7285">statusWord</text><text fill="#000000" font-family="sans-serif" font-size="14" lengthAdjust="spacing" textLength="45" x="1098.5" y="827.7285">: String</text><line style="stroke:#3498DB;stroke-width:2.0;" x1="1009.5" x2="1148.5" y1="835.2422" y2="835.2422"/></g><!--class TransmitCardRequestRespBody--><g id="elem_TransmitCardRequestRespBody"><rect codeLine="142" fill="#EBF5FB" height="85.2422" id="TransmitCardRequestRespBody" rx="2.5" ry="2.5" style="stroke:#3498DB;stroke-width:2.0;" width="332" x="1074" y="429"/><ellipse cx="1133.75" cy="445" fill="#ADD1B2" rx="11" ry="11" style="stroke:#181818;stroke-width:1.0;"/><path d="M1136.5156,440.875 Q1136.6719,440.6563 1136.8594,440.5469 Q1137.0469,440.4375 1137.2656,440.4375 Q1137.6406,440.4375 1137.875,440.7031 Q1138.1094,440.9531 1138.1094,441.5625 L1138.1094,443.0156 Q1138.1094,443.625 1137.875,443.8906 Q1137.6406,444.1563 1137.2656,444.1563 Q1136.9219,444.1563 1136.7188,443.9531 Q1136.5156,443.7656 1136.4063,443.25 Q1136.3594,442.8906 1136.1719,442.7031 Q1135.8438,442.3281 1135.2344,442.1094 Q1134.625,441.8906 1134,441.8906 Q1133.2344,441.8906 1132.5938,442.2188 Q1131.9688,442.5469 1131.4688,443.2969 Q1130.9844,444.0469 1130.9844,445.0781 L1130.9844,446.1719 Q1130.9844,447.4063 1131.875,448.2344 Q1132.7656,449.0469 1134.3594,449.0469 Q1135.2969,449.0469 1135.9531,448.7969 Q1136.3438,448.6406 1136.7656,448.2031 Q1137.0313,447.9375 1137.1719,447.8594 Q1137.3281,447.7813 1137.5313,447.7813 Q1137.8594,447.7813 1138.1094,448.0469 Q1138.375,448.2969 1138.375,448.6406 Q1138.375,448.9844 1138.0313,449.3906 Q1137.5313,449.9688 1136.7344,450.2969 Q1135.6563,450.75 1134.3594,450.75 Q1132.8438,450.75 1131.6406,450.125 Q1130.6563,449.625 1129.9688,448.5625 Q1129.2813,447.4844 1129.2813,446.2031 L1129.2813,445.0469 Q1129.2813,443.7188 1129.8906,442.5781 Q1130.5156,441.4219 1131.6094,440.8125 Q1132.7031,440.1875 1133.9375,440.1875 Q1134.6719,440.1875 1135.3125,440.3594 Q1135.9688,440.5156 1136.5156,440.875 Z " fill="#000000"/><text fill="#000000" font-family="sans-serif" font-size="14" lengthAdjust="spacing" textLength="204" x="1154.25" y="450.7969">TransmitCardRequestRespBody</text><line style="stroke:#3498DB;stroke-width:2.0;" x1="1075" x2="1405" y1="461" y2="461"/><text fill="#000000" font-family="sans-serif" font-size="14" font-weight="bold" lengthAdjust="spacing" textLength="53" x="1080" y="480.1074">service</text><text fill="#000000" font-family="sans-serif" font-size="14" lengthAdjust="spacing" textLength="66" x="1137" y="480.1074">: String = "</text><text fill="#000000" font-family="sans-serif" font-size="14" font-weight="bold" lengthAdjust="spacing" textLength="192" x="1203" y="480.1074">TRANSMIT_CARD_REQUEST</text><text fill="#000000" font-family="sans-serif" font-size="14" lengthAdjust="spacing" textLength="5" x="1395" y="480.1074">"</text><text fill="#000000" font-family="sans-serif" font-size="14" font-weight="bold" lengthAdjust="spacing" textLength="41" x="1080" y="498.7285">result</text><text fill="#000000" font-family="sans-serif" font-size="14" lengthAdjust="spacing" textLength="111" x="1125" y="498.7285">: CardResponse?</text><line style="stroke:#3498DB;stroke-width:2.0;" x1="1075" x2="1405" y1="506.2422" y2="506.2422"/></g><!--reverse link RespBody to IsContactlessRespBody--><g id="link_RespBody_IsContactlessRespBody"><path d="M470.014,345.588 C407.722,369.024 318.706,402.514 248.523,428.918 " fill="none" id="RespBody-backto-IsContactlessRespBody" style="stroke:#181818;stroke-width:2.0;"/><polygon fill="none" points="467.656,338.996,488.84,338.505,472.586,352.099,467.656,338.996" style="stroke:#181818;stroke-width:2.0;"/></g><!--reverse link RespBody to IsCardPresentRespBody--><g id="link_RespBody_IsCardPresentRespBody"><path d="M499.23,384.729 C488.869,399.731 478.187,415.2 468.797,428.799 " fill="none" id="RespBody-backto-IsCardPresentRespBody" style="stroke:#181818;stroke-width:2.0;"/><polygon fill="none" points="493.579,380.593,510.704,368.113,505.099,388.548,493.579,380.593" style="stroke:#181818;stroke-width:2.0;"/></g><!--reverse link RespBody to TransmitCardSelectionRequestsRespBody--><g id="link_RespBody_TransmitCardSelectionRequestsRespBody"><path d="M620.701,367.945 C666.013,394.446 702.726,413.18 735.012,428.881 " fill="none" id="RespBody-backto-TransmitCardSelectionRequestsRespBody" style="stroke:#181818;stroke-width:2.0;"/><polygon fill="none" points="616.897,373.827,603.259,357.61,624.033,361.783,616.897,373.827" style="stroke:#181818;stroke-width:2.0;"/></g><!--reverse link RespBody to TransmitCardRequestRespBody--><g id="link_RespBody_TransmitCardRequestRespBody"><path d="M621.984,367.303 C806.417,436.155 869.714,395.021 1056,429 C1061.8,430.058 1067.69,431.172 1073.64,432.329 " fill="none" id="RespBody-backto-TransmitCardRequestRespBody" style="stroke:#181818;stroke-width:2.0;"/><polygon fill="none" points="619.298,373.769,603.148,360.052,624.327,360.704,619.298,373.769" style="stroke:#181818;stroke-width:2.0;"/></g><!--reverse link RespData to RespBody--><g id="link_RespData_RespBody"><path codeLine="117" d="M546,198.355 C546,221.108 546,244.307 546,263.961 " fill="none" id="RespData-backto-RespBody" style="stroke:#3498DB;stroke-width:2.0;"/><polygon fill="#3498DB" points="546,185.041,542,191.041,546,197.041,550,191.041,546,185.041" style="stroke:#3498DB;stroke-width:2.0;"/><text fill="#000000" font-family="sans-serif" font-size="13" lengthAdjust="spacing" textLength="61" x="547" y="230.0283">JsonString</text><text fill="#000000" font-family="sans-serif" font-size="13" lengthAdjust="spacing" textLength="7" x="538.5297" y="252.8831">1</text></g><!--reverse link RespBody to Error--><g id="link_RespBody_Error"><path codeLine="119" d="M616.201,316 C623.452,316 630.703,316 637.954,316 " fill="none" id="RespBody-backto-Error" style="stroke:#3498DB;stroke-width:2.0;stroke-dasharray:7.0,7.0;"/><polygon fill="#3498DB" points="603.148,316,609.148,320,615.148,316,609.148,312,603.148,316" style="stroke:#3498DB;stroke-width:2.0;"/><text fill="#000000" font-family="sans-serif" font-size="13" lengthAdjust="spacing" textLength="22" x="607.9646" y="312.1013">0..1</text></g><!--reverse link TransmitCardSelectionRequestsRespBody to CardSelectionResponse--><g id="link_TransmitCardSelectionRequestsRespBody_CardSelectionResponse"><path codeLine="121" d="M845.421,526.899 C851.208,542.315 857.54,559.185 863.446,574.917 " fill="none" id="TransmitCardSelectionRequestsRespBody-backto-CardSelectionResponse" style="stroke:#3498DB;stroke-width:2.0;stroke-dasharray:7.0,7.0;"/><polygon fill="#3498DB" points="840.709,514.348,839.0733,521.3711,844.9271,525.5822,846.5628,518.5591,840.709,514.348" style="stroke:#3498DB;stroke-width:2.0;"/><text fill="#000000" font-family="sans-serif" font-size="13" lengthAdjust="spacing" textLength="20" x="839.6819" y="563.8886">0..*</text></g><!--reverse link CardSelectionResponse to CardResponse--><g id="link_CardSelectionResponse_CardResponse"><path codeLine="123" d="M1059.72,636 C1066.97,636 1074.22,636 1081.48,636 " fill="none" id="CardSelectionResponse-backto-CardResponse" style="stroke:#3498DB;stroke-width:2.0;stroke-dasharray:7.0,7.0;"/><polygon fill="#3498DB" points="1046.67,636,1052.67,640,1058.67,636,1052.67,632,1046.67,636" style="stroke:#3498DB;stroke-width:2.0;"/><text fill="#000000" font-family="sans-serif" font-size="13" lengthAdjust="spacing" textLength="22" x="1051.4046" y="632.5118">0..1</text></g><!--reverse link CardSelectionResponse to ApduResponse--><g id="link_CardSelectionResponse_ApduResponse"><path codeLine="124" d="M967.292,705.446 C988.481,723.286 1010.67,741.97 1029.64,757.9423 " fill="none" id="CardSelectionResponse-backto-ApduResponse" style="stroke:#3498DB;stroke-width:2.0;stroke-dasharray:7.0,7.0;"/><polygon fill="#3498DB" points="957.318,697.047,959.3314,703.9713,966.4975,704.7759,964.4841,697.8516,957.318,697.047" style="stroke:#3498DB;stroke-width:2.0;"/><text fill="#000000" font-family="sans-serif" font-size="13" lengthAdjust="spacing" textLength="22" x="998.0201" y="746.8368">0..1</text></g><!--reverse link CardResponse to ApduResponse--><g id="link_CardResponse_ApduResponse"><path codeLine="126" d="M1163,689.416 C1146.11,711.55 1126.72,736.965 1110.82,757.794 " fill="none" id="CardResponse-backto-ApduResponse" style="stroke:#3498DB;stroke-width:2.0;"/><polygon fill="#3498DB" points="1171.07,678.848,1164.251,681.1936,1163.7935,688.3901,1170.6124,686.0446,1171.07,678.848" style="stroke:#3498DB;stroke-width:2.0;"/><text fill="#000000" font-family="sans-serif" font-size="13" lengthAdjust="spacing" textLength="20" x="1094.2976" y="746.6653">1..*</text></g><!--reverse link TransmitCardRequestRespBody to CardResponse--><g id="link_TransmitCardRequestRespBody_CardResponse"><path codeLine="128" d="M1227.58,527.038 C1222.66,548.663 1217.09,573.127 1212.5,593.294 " fill="none" id="TransmitCardRequestRespBody-backto-CardResponse" style="stroke:#3498DB;stroke-width:2.0;stroke-dasharray:7.0,7.0;"/><polygon fill="#3498DB" points="1230.47,514.348,1225.237,519.3095,1227.8042,526.0481,1233.0371,521.0867,1230.47,514.348" style="stroke:#3498DB;stroke-width:2.0;"/><text fill="#000000" font-family="sans-serif" font-size="13" lengthAdjust="spacing" textLength="22" x="1190.2609" y="582.1653">0..1</text></g><!--SRC=[hLPjRzf84FxkNx57FwIr14c0b10rZOozxj4Io66YKrHLqM9lmOtPTNVNoQ7J_VSRls1iOqXwEJwPsMVcUMPsFECZvQk0QaS8Vb_eEWmeidofX3-F5FNGPsSoHiRDC0MuV1K6Fc4AFVbgYHeFYKDJKl7ekxJvWpoIPk3F6-YH2kbpXjgjqrOtzPrYvmQzRP-qEysJJhFTVgSTKUQXb1uWbvTezZk-nl00VqqU1JGI4lbIHbGYZw8Bj5Ggb1V7nqkr2bmUSE5oZyeMg3h-BeuLcGUKH4sFDjtKkyO4Zz9Vi6OO47Mi_URHxpwZoBp_DCLtfyW-j_jsls9k8xjjT-nknTn1-0ptS1NTHLRF6bXMnNo6JCEqhNR5_1uDBBDZzWhcqN3y1NMw_NDhKB3UEXYrUmP-VnBNgjb4Zbe7K1Ur90fvd1t1bN3naDuBeq_v3V3l279bAbe5uAR91v-5H90LaeeAojKwfCQ02uyACwueUcFqBTEoQu734d3GDNhuh1PebYDQrkcWNGl49I0Uz3j0dUI7nrQij-1b1aJA53zR-ku3erAYObX32FvKF898TpG8-DDE5E8-B0IFc9SnszZ69gudoo1Mrp1FB0WvfTupyJvy4DJx-172MjZ2ve6mEHBtkj07sjA7HjyOjsK2rfj8mAlsB76Om1BkBZRjta7kBVWSTxk6jQ7FxIK5yo1wdZy69VaCx3DxS91z0yrwFUFEh2NcJu9IzYpr8aObt7sxX-s3t3asUwSoyesvohv-2VawuJQWZ_1pt0cqRNRmMP5wNMPEPw8v6S_mU9PEnMI8QcuS4jfGXXPH1FsjnUDLruchu8NNTHYK3inlja2NgA7hiOkkDpAG6_YKgJ7CpQ5NW6Qd0NT9CAK4n8x9Yku2uaaFPtlS1LrnHG_xotWgrJdFkRTEh75Y0_YZ_QEHEMmYo0jjKuvFyfIpnLEdH4Q1IkoJ-G_gggliWCAC48aTnqzNG09bJPwpkYRFEKEyONR3ho0DiYWT9766pdryNuOv6s77GM_Zsh_BuWwboPc2P61iopmJ-fU2BVYYrDBhB5DiBxQGyO1ps7hiQgl9c5htDo0cRgIgA2Ay6t26hdYTg0B72rJDfiROkHxEKZy7Zx0v6qx6zrFynorsPfNQpGHXSkMhMAn30vfq-fJ-X2y3zOfQFYTYaqSvaOe86N8cwTTlSMAfsbf0BcP9v3LHxf9wnR9aXo5_ecB2ulUweFOgpoCEQeJm3UQIOl04QuHUj35iF5oGKWAP1KDPyOvGNuxu0eW2SqaOey4afAn6CYdGoXqXNx_b94NpTcY1iMPCAA8Y-ITCpPrNh7ndsKtjxvQiIVwl7iduQXkyMbeGQqZ9NJ-vAgbf-SJMuVkcSThOYdYJVVPTeC-IionTBJ_MMy9VB5KBDKvQBV1BHrJcf6alUplqLkglD_OqQ1wl_hWgejGp6zzzhhbNgGbAZ5jqKfr4Q3twqFqMg6e5fajrPDnDRjETcXgSsTq87zYnc- -IlHif1vIsoDRwwiRDG_tAHAmurTzE3MZVMUa-YidzXoLJTV-rlPbx_mi0]--></g></svg>