<?xml version="1.0" encoding="us-ascii" standalone="no"?><svg xmlns="http://www.w3.org/2000/svg" xmlns:xlink="http://www.w3.org/1999/xlink" contentStyleType="text/css" height="831px" preserveAspectRatio="none" style="width:1413px;height:831px;background:#FFFFFF;" version="1.1" viewBox="0 0 1413 831" width="1413px" zoomAndPan="magnify"><defs/><g><!--class RespData--><g id="elem_RespData"><rect codeLine="127" fill="#EBF5FB" height="178.3477" id="RespData" rx="2.5" ry="2.5" style="stroke:#3498DB;stroke-width:2.0;" width="201" x="445.5" y="7"/><ellipse cx="510.25" cy="23" fill="#ADD1B2" rx="11" ry="11" style="stroke:#181818;stroke-width:1.0;"/><path d="M513.0156,18.875 Q513.1719,18.6563 513.3594,18.5469 Q513.5469,18.4375 513.7656,18.4375 Q514.1406,18.4375 514.375,18.7031 Q514.6094,18.9531 514.6094,19.5625 L514.6094,21.0156 Q514.6094,21.625 514.375,21.8906 Q514.1406,22.1563 513.7656,22.1563 Q513.4219,22.1563 513.2188,21.9531 Q513.0156,21.7656 512.9063,21.25 Q512.8594,20.8906 512.6719,20.7031 Q512.3438,20.3281 511.7344,20.1094 Q511.125,19.8906 510.5,19.8906 Q509.7344,19.8906 509.0938,20.2188 Q508.4688,20.5469 507.9688,21.2969 Q507.4844,22.0469 507.4844,23.0781 L507.4844,24.1719 Q507.4844,25.4063 508.375,26.2344 Q509.2656,27.0469 510.8594,27.0469 Q511.7969,27.0469 512.4531,26.7969 Q512.8438,26.6406 513.2656,26.2031 Q513.5313,25.9375 513.6719,25.8594 Q513.8281,25.7813 514.0313,25.7813 Q514.3594,25.7813 514.6094,26.0469 Q514.875,26.2969 514.875,26.6406 Q514.875,26.9844 514.5313,27.3906 Q514.0313,27.9688 513.2344,28.2969 Q512.1563,28.75 510.8594,28.75 Q509.3438,28.75 508.1406,28.125 Q507.1563,27.625 506.4688,26.5625 Q505.7813,25.4844 505.7813,24.2031 L505.7813,23.0469 Q505.7813,21.7188 506.3906,20.5781 Q507.0156,19.4219 508.1094,18.8125 Q509.2031,18.1875 510.4375,18.1875 Q511.1719,18.1875 511.8125,18.3594 Q512.4688,18.5156 513.0156,18.875 Z " fill="#000000"/><text fill="#000000" font-family="sans-serif" font-size="14" lengthAdjust="spacing" textLength="63" x="530.75" y="28.7969">RespData</text><line style="stroke:#3498DB;stroke-width:2.0;" x1="446.5" x2="645.5" y1="39" y2="39"/><text fill="#000000" font-family="sans-serif" font-size="14" font-weight="bold" lengthAdjust="spacing" textLength="43" x="451.5" y="58.1074">action</text><text fill="#000000" font-family="sans-serif" font-size="14" lengthAdjust="spacing" textLength="66" x="498.5" y="58.1074">: String = "</text><text fill="#000000" font-family="sans-serif" font-size="14" font-weight="bold" lengthAdjust="spacing" textLength="37" x="564.5" y="58.1074">RESP</text><text fill="#000000" font-family="sans-serif" font-size="14" lengthAdjust="spacing" textLength="5" x="601.5" y="58.1074">"</text><text fill="#000000" font-family="sans-serif" font-size="14" font-weight="bold" lengthAdjust="spacing" textLength="89" x="451.5" y="76.7285">clientNodeId</text><text fill="#000000" font-family="sans-serif" font-size="14" lengthAdjust="spacing" textLength="45" x="544.5" y="76.7285">: String</text><text fill="#000000" font-family="sans-serif" font-size="14" font-weight="bold" lengthAdjust="spacing" textLength="123" x="451.5" y="95.3496">localReaderName</text><text fill="#000000" font-family="sans-serif" font-size="14" lengthAdjust="spacing" textLength="45" x="578.5" y="95.3496">: String</text><text fill="#000000" font-family="sans-serif" font-size="14" font-weight="bold" lengthAdjust="spacing" textLength="97" x="451.5" y="113.9707">serverNodeId</text><text fill="#000000" font-family="sans-serif" font-size="14" lengthAdjust="spacing" textLength="45" x="552.5" y="113.9707">: String</text><text fill="#000000" font-family="sans-serif" font-size="14" font-weight="bold" lengthAdjust="spacing" textLength="140" x="451.5" y="132.5918">remoteReaderName</text><text fill="#000000" font-family="sans-serif" font-size="14" lengthAdjust="spacing" textLength="45" x="595.5" y="132.5918">: String</text><text fill="#000000" font-family="sans-serif" font-size="14" font-weight="bold" lengthAdjust="spacing" textLength="68" x="451.5" y="151.2129">sessionId</text><text fill="#000000" font-family="sans-serif" font-size="14" lengthAdjust="spacing" textLength="45" x="523.5" y="151.2129">: String</text><text fill="#000000" font-family="sans-serif" font-size="14" font-weight="bold" lengthAdjust="spacing" textLength="34" x="451.5" y="169.834">body</text><text fill="#000000" font-family="sans-serif" font-size="14" lengthAdjust="spacing" textLength="73" x="489.5" y="169.834">: RespBody</text><line style="stroke:#3498DB;stroke-width:2.0;" x1="446.5" x2="645.5" y1="177.3477" y2="177.3477"/></g><!--class RespBody--><g id="elem_RespBody"><rect codeLine="128" fill="#EBF5FB" height="85.2422" id="RespBody" rx="2.5" ry="2.5" style="stroke:#3498DB;stroke-width:2.0;" width="114" x="489" y="264"/><ellipse cx="511.65" cy="280" fill="#A9DCDF" rx="11" ry="11" style="stroke:#181818;stroke-width:1.0;"/><path d="M513.8375,281.7656 L509.6969,281.7656 L509.275,282.7969 L509.6969,282.7969 Q510.3063,282.7969 510.5719,283.0313 Q510.8375,283.2656 510.8375,283.6563 Q510.8375,284.0313 510.5719,284.2656 Q510.3063,284.5 509.6969,284.5 L507.4,284.5 Q506.7906,284.5 506.5406,284.2656 Q506.275,284.0313 506.275,283.6406 Q506.275,283.2656 506.5563,283.0313 Q506.8219,282.7813 507.4469,282.7969 L510.1188,276.1406 L509.0094,276.1406 Q508.4,276.1406 508.1344,275.9063 Q507.8688,275.6719 507.8688,275.2813 Q507.8688,274.9063 508.1344,274.6719 Q508.4,274.4375 509.0094,274.4375 L512.6813,274.4375 L516.0719,282.7969 Q516.6656,282.7969 516.8531,282.9375 Q517.2438,283.2031 517.2438,283.6563 Q517.2438,284.0313 516.9781,284.2656 Q516.7281,284.5 516.1188,284.5 L513.8219,284.5 Q513.2125,284.5 512.9469,284.2656 Q512.6813,284.0313 512.6813,283.6406 Q512.6813,283.2656 512.9469,283.0313 Q513.2125,282.7969 513.8219,282.7969 L514.2438,282.7969 L513.8375,281.7656 Z M513.1188,280.0625 L511.7594,276.6875 L510.3844,280.0625 L513.1188,280.0625 Z " fill="#000000"/><text fill="#000000" font-family="sans-serif" font-size="14" font-style="italic" lengthAdjust="spacing" textLength="65" x="527.35" y="285.7969">RespBody</text><line style="stroke:#3498DB;stroke-width:2.0;" x1="490" x2="602" y1="296" y2="296"/><text fill="#000000" font-family="sans-serif" font-size="14" font-weight="bold" lengthAdjust="spacing" textLength="53" x="495" y="315.1074">service</text><text fill="#000000" font-family="sans-serif" font-size="14" lengthAdjust="spacing" textLength="45" x="552" y="315.1074">: String</text><text fill="#000000" font-family="sans-serif" font-size="14" font-weight="bold" lengthAdjust="spacing" textLength="41" x="495" y="333.7285">result</text><text fill="#000000" font-family="sans-serif" font-size="14" lengthAdjust="spacing" textLength="49" x="540" y="333.7285">: Object</text><line style="stroke:#3498DB;stroke-width:2.0;" x1="490" x2="602" y1="341.2422" y2="341.2422"/></g><!--class IsContactlessRespBody--><g id="elem_IsContactlessRespBody"><rect codeLine="141" fill="#EBF5FB" height="85.2422" id="IsContactlessRespBody" rx="2.5" ry="2.5" style="stroke:#3498DB;stroke-width:2.0;" width="262" x="7" y="410"/><ellipse cx="59.25" cy="426" fill="#ADD1B2" rx="11" ry="11" style="stroke:#181818;stroke-width:1.0;"/><path d="M62.0156,421.875 Q62.1719,421.6563 62.3594,421.5469 Q62.5469,421.4375 62.7656,421.4375 Q63.1406,421.4375 63.375,421.7031 Q63.6094,421.9531 63.6094,422.5625 L63.6094,424.0156 Q63.6094,424.625 63.375,424.8906 Q63.1406,425.1563 62.7656,425.1563 Q62.4219,425.1563 62.2188,424.9531 Q62.0156,424.7656 61.9063,424.25 Q61.8594,423.8906 61.6719,423.7031 Q61.3438,423.3281 60.7344,423.1094 Q60.125,422.8906 59.5,422.8906 Q58.7344,422.8906 58.0938,423.2188 Q57.4688,423.5469 56.9688,424.2969 Q56.4844,425.0469 56.4844,426.0781 L56.4844,427.1719 Q56.4844,428.4063 57.375,429.2344 Q58.2656,430.0469 59.8594,430.0469 Q60.7969,430.0469 61.4531,429.7969 Q61.8438,429.6406 62.2656,429.2031 Q62.5313,428.9375 62.6719,428.8594 Q62.8281,428.7813 63.0313,428.7813 Q63.3594,428.7813 63.6094,429.0469 Q63.875,429.2969 63.875,429.6406 Q63.875,429.9844 63.5313,430.3906 Q63.0313,430.9688 62.2344,431.2969 Q61.1563,431.75 59.8594,431.75 Q58.3438,431.75 57.1406,431.125 Q56.1563,430.625 55.4688,429.5625 Q54.7813,428.4844 54.7813,427.2031 L54.7813,426.0469 Q54.7813,424.7188 55.3906,423.5781 Q56.0156,422.4219 57.1094,421.8125 Q58.2031,421.1875 59.4375,421.1875 Q60.1719,421.1875 60.8125,421.3594 Q61.4688,421.5156 62.0156,421.875 Z " fill="#000000"/><text fill="#000000" font-family="sans-serif" font-size="14" lengthAdjust="spacing" textLength="149" x="79.75" y="431.7969">IsContactlessRespBody</text><line style="stroke:#3498DB;stroke-width:2.0;" x1="8" x2="268" y1="442" y2="442"/><text fill="#000000" font-family="sans-serif" font-size="14" font-weight="bold" lengthAdjust="spacing" textLength="53" x="13" y="461.1074">service</text><text fill="#000000" font-family="sans-serif" font-size="14" lengthAdjust="spacing" textLength="66" x="70" y="461.1074">: String = "</text><text fill="#000000" font-family="sans-serif" font-size="14" font-weight="bold" lengthAdjust="spacing" textLength="122" x="136" y="461.1074">IS_CONTACTLESS</text><text fill="#000000" font-family="sans-serif" font-size="14" lengthAdjust="spacing" textLength="5" x="258" y="461.1074">"</text><text fill="#000000" font-family="sans-serif" font-size="14" font-weight="bold" lengthAdjust="spacing" textLength="41" x="13" y="479.7285">result</text><text fill="#000000" font-family="sans-serif" font-size="14" lengthAdjust="spacing" textLength="60" x="58" y="479.7285">: Boolean</text><line style="stroke:#3498DB;stroke-width:2.0;" x1="8" x2="268" y1="487.2422" y2="487.2422"/></g><!--class IsCardPresentRespBody--><g id="elem_IsCardPresentRespBody"><rect codeLine="138" fill="#EBF5FB" height="85.2422" id="IsCardPresentRespBody" rx="2.5" ry="2.5" style="stroke:#3498DB;stroke-width:2.0;" width="272" x="304" y="410"/><ellipse cx="358.25" cy="426" fill="#ADD1B2" rx="11" ry="11" style="stroke:#181818;stroke-width:1.0;"/><path d="M361.0156,421.875 Q361.1719,421.6563 361.3594,421.5469 Q361.5469,421.4375 361.7656,421.4375 Q362.1406,421.4375 362.375,421.7031 Q362.6094,421.9531 362.6094,422.5625 L362.6094,424.0156 Q362.6094,424.625 362.375,424.8906 Q362.1406,425.1563 361.7656,425.1563 Q361.4219,425.1563 361.2188,424.9531 Q361.0156,424.7656 360.9063,424.25 Q360.8594,423.8906 360.6719,423.7031 Q360.3438,423.3281 359.7344,423.1094 Q359.125,422.8906 358.5,422.8906 Q357.7344,422.8906 357.0938,423.2188 Q356.4688,423.5469 355.9688,424.2969 Q355.4844,425.0469 355.4844,426.0781 L355.4844,427.1719 Q355.4844,428.4063 356.375,429.2344 Q357.2656,430.0469 358.8594,430.0469 Q359.7969,430.0469 360.4531,429.7969 Q360.8438,429.6406 361.2656,429.2031 Q361.5313,428.9375 361.6719,428.8594 Q361.8281,428.7813 362.0313,428.7813 Q362.3594,428.7813 362.6094,429.0469 Q362.875,429.2969 362.875,429.6406 Q362.875,429.9844 362.5313,430.3906 Q362.0313,430.9688 361.2344,431.2969 Q360.1563,431.75 358.8594,431.75 Q357.3438,431.75 356.1406,431.125 Q355.1563,430.625 354.4688,429.5625 Q353.7813,428.4844 353.7813,427.2031 L353.7813,426.0469 Q353.7813,424.7188 354.3906,423.5781 Q355.0156,422.4219 356.1094,421.8125 Q357.2031,421.1875 358.4375,421.1875 Q359.1719,421.1875 359.8125,421.3594 Q360.4688,421.5156 361.0156,421.875 Z " fill="#000000"/><text fill="#000000" font-family="sans-serif" font-size="14" lengthAdjust="spacing" textLength="155" x="378.75" y="431.7969">IsCardPresentRespBody</text><line style="stroke:#3498DB;stroke-width:2.0;" x1="305" x2="575" y1="442" y2="442"/><text fill="#000000" font-family="sans-serif" font-size="14" font-weight="bold" lengthAdjust="spacing" textLength="53" x="310" y="461.1074">service</text><text fill="#000000" font-family="sans-serif" font-size="14" lengthAdjust="spacing" textLength="66" x="367" y="461.1074">: String = "</text><text fill="#000000" font-family="sans-serif" font-size="14" font-weight="bold" lengthAdjust="spacing" textLength="132" x="433" y="461.1074">IS_CARD_PRESENT</text><text fill="#000000" font-family="sans-serif" font-size="14" lengthAdjust="spacing" textLength="5" x="565" y="461.1074">"</text><text fill="#000000" font-family="sans-serif" font-size="14" font-weight="bold" lengthAdjust="spacing" textLength="41" x="310" y="479.7285">result</text><text fill="#000000" font-family="sans-serif" font-size="14" lengthAdjust="spacing" textLength="60" x="355" y="479.7285">: Boolean</text><line style="stroke:#3498DB;stroke-width:2.0;" x1="305" x2="575" y1="487.2422" y2="487.2422"/></g><!--class TransmitCardSelectionRequestsRespBody--><g id="elem_TransmitCardSelectionRequestsRespBody"><rect codeLine="132" fill="#EBF5FB" height="85.2422" id="TransmitCardSelectionRequestsRespBody" rx="2.5" ry="2.5" style="stroke:#3498DB;stroke-width:2.0;" width="427" x="611.5" y="410"/><ellipse cx="686.25" cy="426" fill="#ADD1B2" rx="11" ry="11" style="stroke:#181818;stroke-width:1.0;"/><path d="M689.0156,421.875 Q689.1719,421.6563 689.3594,421.5469 Q689.5469,421.4375 689.7656,421.4375 Q690.1406,421.4375 690.375,421.7031 Q690.6094,421.9531 690.6094,422.5625 L690.6094,424.0156 Q690.6094,424.625 690.375,424.8906 Q690.1406,425.1563 689.7656,425.1563 Q689.4219,425.1563 689.2188,424.9531 Q689.0156,424.7656 688.9063,424.25 Q688.8594,423.8906 688.6719,423.7031 Q688.3438,423.3281 687.7344,423.1094 Q687.125,422.8906 686.5,422.8906 Q685.7344,422.8906 685.0938,423.2188 Q684.4688,423.5469 683.9688,424.2969 Q683.4844,425.0469 683.4844,426.0781 L683.4844,427.1719 Q683.4844,428.4063 684.375,429.2344 Q685.2656,430.0469 686.8594,430.0469 Q687.7969,430.0469 688.4531,429.7969 Q688.8438,429.6406 689.2656,429.2031 Q689.5313,428.9375 689.6719,428.8594 Q689.8281,428.7813 690.0313,428.7813 Q690.3594,428.7813 690.6094,429.0469 Q690.875,429.2969 690.875,429.6406 Q690.875,429.9844 690.5313,430.3906 Q690.0313,430.9688 689.2344,431.2969 Q688.1563,431.75 686.8594,431.75 Q685.3438,431.75 684.1406,431.125 Q683.1563,430.625 682.4688,429.5625 Q681.7813,428.4844 681.7813,427.2031 L681.7813,426.0469 Q681.7813,424.7188 682.3906,423.5781 Q683.0156,422.4219 684.1094,421.8125 Q685.2031,421.1875 686.4375,421.1875 Q687.1719,421.1875 687.8125,421.3594 Q688.4688,421.5156 689.0156,421.875 Z " fill="#000000"/><text fill="#000000" font-family="sans-serif" font-size="14" lengthAdjust="spacing" textLength="269" x="706.75" y="431.7969">TransmitCardSelectionRequestsRespBody</text><line style="stroke:#3498DB;stroke-width:2.0;" x1="612.5" x2="1037.5" y1="442" y2="442"/><text fill="#000000" font-family="sans-serif" font-size="14" font-weight="bold" lengthAdjust="spacing" textLength="53" x="617.5" y="461.1074">service</text><text fill="#000000" font-family="sans-serif" font-size="14" lengthAdjust="spacing" textLength="66" x="674.5" y="461.1074">: String = "</text><text fill="#000000" font-family="sans-serif" font-size="14" font-weight="bold" lengthAdjust="spacing" textLength="287" x="740.5" y="461.1074">TRANSMIT_CARD_SELECTION_REQUESTS</text><text fill="#000000" font-family="sans-serif" font-size="14" lengthAdjust="spacing" textLength="5" x="1027.5" y="461.1074">"</text><text fill="#000000" font-family="sans-serif" font-size="14" font-weight="bold" lengthAdjust="spacing" textLength="41" x="617.5" y="479.7285">result</text><text fill="#000000" font-family="sans-serif" font-size="14" lengthAdjust="spacing" textLength="161" x="662.5" y="479.7285">: CardSelectionResponse</text><line style="stroke:#3498DB;stroke-width:2.0;" x1="612.5" x2="1037.5" y1="487.2422" y2="487.2422"/></g><!--class CardSelectionResponse--><g id="elem_CardSelectionResponse"><rect codeLine="133" fill="#EBF5FB" height="122.4844" id="CardSelectionResponse" rx="2.5" ry="2.5" style="stroke:#3498DB;stroke-width:2.0;" width="321" x="737.5" y="556"/><ellipse cx="817.25" cy="572" fill="#ADD1B2" rx="11" ry="11" style="stroke:#181818;stroke-width:1.0;"/><path d="M820.0156,567.875 Q820.1719,567.6563 820.3594,567.5469 Q820.5469,567.4375 820.7656,567.4375 Q821.1406,567.4375 821.375,567.7031 Q821.6094,567.9531 821.6094,568.5625 L821.6094,570.0156 Q821.6094,570.625 821.375,570.8906 Q821.1406,571.1563 820.7656,571.1563 Q820.4219,571.1563 820.2188,570.9531 Q820.0156,570.7656 819.9063,570.25 Q819.8594,569.8906 819.6719,569.7031 Q819.3438,569.3281 818.7344,569.1094 Q818.125,568.8906 817.5,568.8906 Q816.7344,568.8906 816.0938,569.2188 Q815.4688,569.5469 814.9688,570.2969 Q814.4844,571.0469 814.4844,572.0781 L814.4844,573.1719 Q814.4844,574.4063 815.375,575.2344 Q816.2656,576.0469 817.8594,576.0469 Q818.7969,576.0469 819.4531,575.7969 Q819.8438,575.6406 820.2656,575.2031 Q820.5313,574.9375 820.6719,574.8594 Q820.8281,574.7813 821.0313,574.7813 Q821.3594,574.7813 821.6094,575.0469 Q821.875,575.2969 821.875,575.6406 Q821.875,575.9844 821.5313,576.3906 Q821.0313,576.9688 820.2344,577.2969 Q819.1563,577.75 817.8594,577.75 Q816.3438,577.75 815.1406,577.125 Q814.1563,576.625 813.4688,575.5625 Q812.7813,574.4844 812.7813,573.2031 L812.7813,572.0469 Q812.7813,570.7188 813.3906,569.5781 Q814.0156,568.4219 815.1094,567.8125 Q816.2031,567.1875 817.4375,567.1875 Q818.1719,567.1875 818.8125,567.3594 Q819.4688,567.5156 820.0156,567.875 Z " fill="#000000"/><text fill="#000000" font-family="sans-serif" font-size="14" lengthAdjust="spacing" textLength="153" x="837.75" y="577.7969">CardSelectionResponse</text><line style="stroke:#3498DB;stroke-width:2.0;" x1="738.5" x2="1057.5" y1="588" y2="588"/><text fill="#000000" font-family="sans-serif" font-size="14" font-weight="bold" lengthAdjust="spacing" textLength="95" x="743.5" y="607.1074">powerOnData</text><text fill="#000000" font-family="sans-serif" font-size="14" lengthAdjust="spacing" textLength="45" x="842.5" y="607.1074">: String</text><text fill="#000000" font-family="sans-serif" font-size="14" font-weight="bold" lengthAdjust="spacing" textLength="86" x="743.5" y="625.7285">hasMatched</text><text fill="#000000" font-family="sans-serif" font-size="14" lengthAdjust="spacing" textLength="60" x="833.5" y="625.7285">: Boolean</text><text fill="#000000" font-family="sans-serif" font-size="14" font-weight="bold" lengthAdjust="spacing" textLength="192" x="743.5" y="644.3496">selectApplicationResponse</text><text fill="#000000" font-family="sans-serif" font-size="14" lengthAdjust="spacing" textLength="113" x="939.5" y="644.3496">: ApduResponse?</text><text fill="#000000" font-family="sans-serif" font-size="14" font-weight="bold" lengthAdjust="spacing" textLength="102" x="743.5" y="662.9707">cardResponse</text><text fill="#000000" font-family="sans-serif" font-size="14" lengthAdjust="spacing" textLength="111" x="849.5" y="662.9707">: CardResponse?</text><line style="stroke:#3498DB;stroke-width:2.0;" x1="738.5" x2="1057.5" y1="670.4844" y2="670.4844"/></g><!--class CardResponse--><g id="elem_CardResponse"><rect codeLine="134" fill="#EBF5FB" height="85.2422" id="CardResponse" rx="2.5" ry="2.5" style="stroke:#3498DB;stroke-width:2.0;" width="243" x="1093.5" y="574.5"/><ellipse cx="1163.25" cy="590.5" fill="#ADD1B2" rx="11" ry="11" style="stroke:#181818;stroke-width:1.0;"/><path d="M1166.0156,586.375 Q1166.1719,586.1563 1166.3594,586.0469 Q1166.5469,585.9375 1166.7656,585.9375 Q1167.1406,585.9375 1167.375,586.2031 Q1167.6094,586.4531 1167.6094,587.0625 L1167.6094,588.5156 Q1167.6094,589.125 1167.375,589.3906 Q1167.1406,589.6563 1166.7656,589.6563 Q1166.4219,589.6563 1166.2188,589.4531 Q1166.0156,589.2656 1165.9063,588.75 Q1165.8594,588.3906 1165.6719,588.2031 Q1165.3438,587.8281 1164.7344,587.6094 Q1164.125,587.3906 1163.5,587.3906 Q1162.7344,587.3906 1162.0938,587.7188 Q1161.4688,588.0469 1160.9688,588.7969 Q1160.4844,589.5469 1160.4844,590.5781 L1160.4844,591.6719 Q1160.4844,592.9063 1161.375,593.7344 Q1162.2656,594.5469 1163.8594,594.5469 Q1164.7969,594.5469 1165.4531,594.2969 Q1165.8438,594.1406 1166.2656,593.7031 Q1166.5313,593.4375 1166.6719,593.3594 Q1166.8281,593.2813 1167.0313,593.2813 Q1167.3594,593.2813 1167.6094,593.5469 Q1167.875,593.7969 1167.875,594.1406 Q1167.875,594.4844 1167.5313,594.8906 Q1167.0313,595.4688 1166.2344,595.7969 Q1165.1563,596.25 1163.8594,596.25 Q1162.3438,596.25 1161.1406,595.625 Q1160.1563,595.125 1159.4688,594.0625 Q1158.7813,592.9844 1158.7813,591.7031 L1158.7813,590.5469 Q1158.7813,589.2188 1159.3906,588.0781 Q1160.0156,586.9219 1161.1094,586.3125 Q1162.2031,585.6875 1163.4375,585.6875 Q1164.1719,585.6875 1164.8125,585.8594 Q1165.4688,586.0156 1166.0156,586.375 Z " fill="#000000"/><text fill="#000000" font-family="sans-serif" font-size="14" lengthAdjust="spacing" textLength="95" x="1183.75" y="596.2969">CardResponse</text><line style="stroke:#3498DB;stroke-width:2.0;" x1="1094.5" x2="1335.5" y1="606.5" y2="606.5"/><text fill="#000000" font-family="sans-serif" font-size="14" font-weight="bold" lengthAdjust="spacing" textLength="158" x="1099.5" y="625.6074">isLogicalChannelOpen</text><text fill="#000000" font-family="sans-serif" font-size="14" lengthAdjust="spacing" textLength="60" x="1261.5" y="625.6074">: Boolean</text><text fill="#000000" font-family="sans-serif" font-size="14" font-weight="bold" lengthAdjust="spacing" textLength="114" x="1099.5" y="644.2285">apduResponses</text><text fill="#000000" font-family="sans-serif" font-size="14" lengthAdjust="spacing" textLength="113" x="1217.5" y="644.2285">: ApduResponse[]</text><line style="stroke:#3498DB;stroke-width:2.0;" x1="1094.5" x2="1335.5" y1="651.7422" y2="651.7422"/></g><!--class ApduResponse--><g id="elem_ApduResponse"><rect codeLine="135" fill="#EBF5FB" height="85.2422" id="ApduResponse" rx="2.5" ry="2.5" style="stroke:#3498DB;stroke-width:2.0;" width="141" x="985.5" y="739"/><ellipse cx="1005.9" cy="755" fill="#ADD1B2" rx="11" ry="11" style="stroke:#181818;stroke-width:1.0;"/><path d="M1008.6656,750.875 Q1008.8219,750.6563 1009.0094,750.5469 Q1009.1969,750.4375 1009.4156,750.4375 Q1009.7906,750.4375 1010.025,750.7031 Q1010.2594,750.9531 1010.2594,751.5625 L1010.2594,753.0156 Q1010.2594,753.625 1010.025,753.8906 Q1009.7906,754.1563 1009.4156,754.1563 Q1009.0719,754.1563 1008.8688,753.9531 Q1008.6656,753.7656 1008.5563,753.25 Q1008.5094,752.8906 1008.3219,752.7031 Q1007.9938,752.3281 1007.3844,752.1094 Q1006.775,751.8906 1006.15,751.8906 Q1005.3844,751.8906 1004.7438,752.2188 Q1004.1188,752.5469 1003.6188,753.2969 Q1003.1344,754.0469 1003.1344,755.0781 L1003.1344,756.1719 Q1003.1344,757.4063 1004.025,758.2344 Q1004.9156,759.0469 1006.5094,759.0469 Q1007.4469,759.0469 1008.1031,758.7969 Q1008.4938,758.6406 1008.9156,758.2031 Q1009.1813,757.9375 1009.3219,757.8594 Q1009.4781,757.7813 1009.6813,757.7813 Q1010.0094,757.7813 1010.2594,758.0469 Q1010.525,758.2969 1010.525,758.6406 Q1010.525,758.9844 1010.1813,759.3906 Q1009.6813,759.9688 1008.8844,760.2969 Q1007.8063,760.75 1006.5094,760.75 Q1004.9938,760.75 1003.7906,760.125 Q1002.8063,759.625 1002.1188,758.5625 Q1001.4313,757.4844 1001.4313,756.2031 L1001.4313,755.0469 Q1001.4313,753.7188 1002.0406,752.5781 Q1002.6656,751.4219 1003.7594,750.8125 Q1004.8531,750.1875 1006.0875,750.1875 Q1006.8219,750.1875 1007.4625,750.3594 Q1008.1188,750.5156 1008.6656,750.875 Z " fill="#000000"/><text fill="#000000" font-family="sans-serif" font-size="14" lengthAdjust="spacing" textLength="97" x="1021.1" y="760.7969">ApduResponse</text><line style="stroke:#3498DB;stroke-width:2.0;" x1="986.5" x2="1125.5" y1="771" y2="771"/><text fill="#000000" font-family="sans-serif" font-size="14" font-weight="bold" lengthAdjust="spacing" textLength="35" x="991.5" y="790.1074">apdu</text><text fill="#000000" font-family="sans-serif" font-size="14" lengthAdjust="spacing" textLength="45" x="1030.5" y="790.1074">: String</text><text fill="#000000" font-family="sans-serif" font-size="14" font-weight="bold" lengthAdjust="spacing" textLength="80" x="991.5" y="808.7285">statusWord</text><text fill="#000000" font-family="sans-serif" font-size="14" lengthAdjust="spacing" textLength="45" x="1075.5" y="808.7285">: String</text><line style="stroke:#3498DB;stroke-width:2.0;" x1="986.5" x2="1125.5" y1="816.2422" y2="816.2422"/></g><!--class TransmitCardRequestRespBody--><g id="elem_TransmitCardRequestRespBody"><rect codeLine="131" fill="#EBF5FB" height="85.2422" id="TransmitCardRequestRespBody" rx="2.5" ry="2.5" style="stroke:#3498DB;stroke-width:2.0;" width="332" x="1074" y="410"/><ellipse cx="1133.75" cy="426" fill="#ADD1B2" rx="11" ry="11" style="stroke:#181818;stroke-width:1.0;"/><path d="M1136.5156,421.875 Q1136.6719,421.6563 1136.8594,421.5469 Q1137.0469,421.4375 1137.2656,421.4375 Q1137.6406,421.4375 1137.875,421.7031 Q1138.1094,421.9531 1138.1094,422.5625 L1138.1094,424.0156 Q1138.1094,424.625 1137.875,424.8906 Q1137.6406,425.1563 1137.2656,425.1563 Q1136.9219,425.1563 1136.7188,424.9531 Q1136.5156,424.7656 1136.4063,424.25 Q1136.3594,423.8906 1136.1719,423.7031 Q1135.8438,423.3281 1135.2344,423.1094 Q1134.625,422.8906 1134,422.8906 Q1133.2344,422.8906 1132.5938,423.2188 Q1131.9688,423.5469 1131.4688,424.2969 Q1130.9844,425.0469 1130.9844,426.0781 L1130.9844,427.1719 Q1130.9844,428.4063 1131.875,429.2344 Q1132.7656,430.0469 1134.3594,430.0469 Q1135.2969,430.0469 1135.9531,429.7969 Q1136.3438,429.6406 1136.7656,429.2031 Q1137.0313,428.9375 1137.1719,428.8594 Q1137.3281,428.7813 1137.5313,428.7813 Q1137.8594,428.7813 1138.1094,429.0469 Q1138.375,429.2969 1138.375,429.6406 Q1138.375,429.9844 1138.0313,430.3906 Q1137.5313,430.9688 1136.7344,431.2969 Q1135.6563,431.75 1134.3594,431.75 Q1132.8438,431.75 1131.6406,431.125 Q1130.6563,430.625 1129.9688,429.5625 Q1129.2813,428.4844 1129.2813,427.2031 L1129.2813,426.0469 Q1129.2813,424.7188 1129.8906,423.5781 Q1130.5156,422.4219 1131.6094,421.8125 Q1132.7031,421.1875 1133.9375,421.1875 Q1134.6719,421.1875 1135.3125,421.3594 Q1135.9688,421.5156 1136.5156,421.875 Z " fill="#000000"/><text fill="#000000" font-family="sans-serif" font-size="14" lengthAdjust="spacing" textLength="204" x="1154.25" y="431.7969">TransmitCardRequestRespBody</text><line style="stroke:#3498DB;stroke-width:2.0;" x1="1075" x2="1405" y1="442" y2="442"/><text fill="#000000" font-family="sans-serif" font-size="14" font-weight="bold" lengthAdjust="spacing" textLength="53" x="1080" y="461.1074">service</text><text fill="#000000" font-family="sans-serif" font-size="14" lengthAdjust="spacing" textLength="66" x="1137" y="461.1074">: String = "</text><text fill="#000000" font-family="sans-serif" font-size="14" font-weight="bold" lengthAdjust="spacing" textLength="192" x="1203" y="461.1074">TRANSMIT_CARD_REQUEST</text><text fill="#000000" font-family="sans-serif" font-size="14" lengthAdjust="spacing" textLength="5" x="1395" y="461.1074">"</text><text fill="#000000" font-family="sans-serif" font-size="14" font-weight="bold" lengthAdjust="spacing" textLength="41" x="1080" y="479.7285">result</text><text fill="#000000" font-family="sans-serif" font-size="14" lengthAdjust="spacing" textLength="103" x="1125" y="479.7285">: CardResponse</text><line style="stroke:#3498DB;stroke-width:2.0;" x1="1075" x2="1405" y1="487.2422" y2="487.2422"/></g><!--reverse link RespBody to IsContactlessRespBody--><g id="link_RespBody_IsContactlessRespBody"><path d="M469.86,334.37 C409.77,355.58 324.88,385.54 256,409.85 " fill="none" id="RespBody-backto-IsContactlessRespBody" style="stroke:#181818;stroke-width:2.0;"/><polygon fill="none" points="467.65,327.73,488.84,327.67,472.31,340.93,467.65,327.73" style="stroke:#181818;stroke-width:2.0;"/></g><!--reverse link RespBody to IsCardPresentRespBody--><g id="link_RespBody_IsCardPresentRespBody"><path d="M503.33,365.46 C492.37,380.35 480.8,396.07 470.59,409.94 " fill="none" id="RespBody-backto-IsCardPresentRespBody" style="stroke:#181818;stroke-width:2.0;"/><polygon fill="none" points="497.85,361.11,515.34,349.15,509.12,369.41,497.85,361.11" style="stroke:#181818;stroke-width:2.0;"/></g><!--reverse link RespBody to TransmitCardSelectionRequestsRespBody--><g id="link_RespBody_TransmitCardSelectionRequestsRespBody"><path d="M621.11,346.27 C659.23,365.94 705.55,389.85 744.41,409.91 " fill="none" id="RespBody-backto-TransmitCardSelectionRequestsRespBody" style="stroke:#181818;stroke-width:2.0;"/><polygon fill="none" points="617.69,352.38,603.13,336.99,624.12,339.94,617.69,352.38" style="stroke:#181818;stroke-width:2.0;"/></g><!--reverse link RespBody to TransmitCardRequestRespBody--><g id="link_RespBody_TransmitCardRequestRespBody"><path d="M622.85,322.36 C722.77,341.82 902.67,377.3 1056,410 C1061.76,411.23 1067.63,412.49 1073.55,413.77 " fill="none" id="RespBody-backto-TransmitCardRequestRespBody" style="stroke:#181818;stroke-width:2.0;"/><polygon fill="none" points="621.37,329.2,603.07,318.52,624.04,315.46,621.37,329.2" style="stroke:#181818;stroke-width:2.0;"/></g><!--reverse link RespData to RespBody--><g id="link_RespData_RespBody"><path codeLine="110" d="M546,198.34 C546,221.54 546,244.94 546,263.92 " fill="none" id="RespData-backto-RespBody" style="stroke:#3498DB;stroke-width:2.0;"/><polygon fill="#3498DB" points="546,185.12,542,191.12,546,197.12,550,191.12,546,185.12" style="stroke:#3498DB;stroke-width:2.0;"/><text fill="#000000" font-family="sans-serif" font-size="13" lengthAdjust="spacing" textLength="61" x="547" y="230.0283">JsonString</text><text fill="#000000" font-family="sans-serif" font-size="13" lengthAdjust="spacing" textLength="7" x="538.4422" y="252.8113">1</text></g><!--reverse link TransmitCardSelectionRequestsRespBody to CardSelectionResponse--><g id="link_TransmitCardSelectionRequestsRespBody_CardSelectionResponse"><path codeLine="112" d="M849.23,507.44 C856.21,522.98 863.87,540.03 871.01,555.92 " fill="none" id="TransmitCardSelectionRequestsRespBody-backto-CardSelectionResponse" style="stroke:#3498DB;stroke-width:2.0;"/><polygon fill="#3498DB" points="843.8,495.35,842.6109,502.4624,848.7189,506.2955,849.908,499.1831,843.8,495.35" style="stroke:#3498DB;stroke-width:2.0;"/><text fill="#000000" font-family="sans-serif" font-size="13" lengthAdjust="spacing" textLength="7" x="860.4846" y="544.892">1</text></g><!--reverse link CardSelectionResponse to CardResponse--><g id="link_CardSelectionResponse_CardResponse"><path codeLine="114" d="M1071.72,617 C1078.97,617 1086.22,617 1093.48,617 " fill="none" id="CardSelectionResponse-backto-CardResponse" style="stroke:#3498DB;stroke-width:2.0;stroke-dasharray:7.0,7.0;"/><polygon fill="#3498DB" points="1058.67,617,1064.67,621,1070.67,617,1064.67,613,1058.67,617" style="stroke:#3498DB;stroke-width:2.0;"/><text fill="#000000" font-family="sans-serif" font-size="13" lengthAdjust="spacing" textLength="22" x="1063.4046" y="613.5118">0..1</text></g><!--reverse link CardSelectionResponse to ApduResponse--><g id="link_CardSelectionResponse_ApduResponse"><path codeLine="115" d="M965.73,687.66 C982.72,705.13 1000.41,723.33 1015.59,738.94 " fill="none" id="CardSelectionResponse-backto-ApduResponse" style="stroke:#3498DB;stroke-width:2.0;stroke-dasharray:7.0,7.0;"/><polygon fill="#3498DB" points="956.38,678.05,957.6897,685.1412,964.7391,686.6596,963.4294,679.5684,956.38,678.05" style="stroke:#3498DB;stroke-width:2.0;"/><text fill="#000000" font-family="sans-serif" font-size="13" lengthAdjust="spacing" textLength="22" x="985.3965" y="727.8345">0..1</text></g><!--reverse link CardResponse to ApduResponse--><g id="link_CardResponse_ApduResponse"><path codeLine="117" d="M1164.89,669.21 C1142.96,691.62 1117.56,717.59 1096.81,738.79 " fill="none" id="CardResponse-backto-ApduResponse" style="stroke:#3498DB;stroke-width:2.0;"/><polygon fill="#3498DB" points="1174.05,659.85,1166.9947,661.3411,1165.6576,668.4271,1172.7128,666.936,1174.05,659.85" style="stroke:#3498DB;stroke-width:2.0;"/><text fill="#000000" font-family="sans-serif" font-size="13" lengthAdjust="spacing" textLength="24" x="1077.4016" y="727.6606">1..N</text></g><!--reverse link TransmitCardRequestRespBody to CardResponse--><g id="link_TransmitCardRequestRespBody_CardResponse"><path codeLine="119" d="M1231.56,508.34 C1228.25,529.89 1224.5,554.22 1221.42,574.29 " fill="none" id="TransmitCardRequestRespBody-backto-CardResponse" style="stroke:#3498DB;stroke-width:2.0;"/><polygon fill="#3498DB" points="1233.56,495.35,1228.6902,500.6683,1231.7264,507.2091,1236.5962,501.8907,1233.56,495.35" style="stroke:#3498DB;stroke-width:2.0;"/><text fill="#000000" font-family="sans-serif" font-size="13" lengthAdjust="spacing" textLength="7" x="1214.8854" y="563.1606">1</text></g><!--SRC=[hLPjSzf64FwkNt4b7vmm0xO53iOJ9wENKqg2mKNoT3oTZkUGBg1Ot2cwarscq__UrGj24WASklw4zvxTvzczlLsTI5y6L3b1yFULhiE08jCNClBdiQGU-c9F9qYx7MK0bw_2m2TCecTVBb7hCNNe21ez-IxjV2TFf1FuynPwef7mEKDgzxpRptndsBv5RzKpjTSvwtLKzProGfc7Cdg0N5yZvrTyW-47_6lmEA1n990lH4m5yYYwGaifGt5rUhgKgy3b0OzSxb7H1LMdtw9JIUO19N77enqtysummK_XBrWd38WyLNxnw3UVKMGyV9xX-tDaNLf3QrWpgyXIhPxLhvbx25_W0QwZ-yWScBffrimNoD0CorHhvlT8DusUCIYPnwF9LzJh3ozDlMIzip5I1nf-VvRKgjD1jbm7K1Uv919vd9t0bV3eCRiNHf-B6-3V4EJAPBmAm4qHZpuBIKHMI4WQKIxN8TLq7daqCfAAeZVQq3HCgn4ugW3rlZR05ur0enhHDCzrjH68Aq2i3tj0dUQ79sQYj-Hb14I83EyiVVUHKI5GEQmMHVovV0IHxcaGyEUTACHzN4GyPbxER64B6xYPB8UOVSquCo7aZ7f7udtu457luqS8Qs8J6mV25aWyw4CVA4iV6drZt9O9M6_Z29xQKU8mXQNSVMnOWuFSM_0bxlSrSqDVs2iAva5yd3y1fVdereMb7sJVGFDUpxbpQuNvSqGfEqgzI50fzz0QOEiWTu7DtrHElZ7NsTSl8L-dt1hq4Jx6dK9LeuSlojJhAdCs4utfnC4J9vkAwH1Lt2GajA48JI89-bj9nckxJLm93xxTXa5fm_nc2tIDMkrsuj9kjtAG6_YKoGdCpP5NWkQd0NT9CAC4n4x8Yku2aaaFPtlS8xhYaXxs5ybKQdAUSs-TMfF4TFX7-KSXSzX4a1VQffoS52ddYwT9YOW3cTgdy-_KbH0CoZUo7v9wQeOpnhQDtYQrUPVNSoGCpYIGmLWL1HFzIyAMUX5rLkugnRRm9KKwvx2Ls5QIDZCVRa5BSizrJIJoRi4NBkrrcaeSnqKvCsrYtuoSpCt6Osmue-daOOP_kyEsKwkS4n4cLhvCjDeqe6aVpkWFsDlo5PKy9cAJHZMFcWWHSYOeP9L9RJmjb8JycKPJbhogtPPQ4d53fBkaNgLUcnoIc5e8NqSkASTEiLhenHl3fyr312KLa54oVAe8tj7fYp5V055WB0bZD9Y6b3M88YLQiIFaZpyBah9vEqx0sF209P6n-1tcMVcieMdoMzhVANc3_5_zaVCrzdQvY9bMJGZk-kbD2KKfHcaRFZnQvwsjXZVvzzWL-Y8uoxDLNjRmcs3DFPT7LfJcutOtyXTBsKMjisut3xBZky-ryAfSR8LnYqvLThkJVUX3TrPESTSptLzZxNvwbwslp60xzsDyO9rjFW7s3ly2yFgUAqBzp22hEJLVGWDetrcbxENa_iDggBl_tB8hlFy5]--></g></svg>