<?xml version="1.0" encoding="UTF-8" standalone="no"?><svg xmlns="http://www.w3.org/2000/svg" xmlns:xlink="http://www.w3.org/1999/xlink" contentScriptType="application/ecmascript" contentStyleType="text/css" height="398px" preserveAspectRatio="none" style="width:824px;height:398px;" version="1.1" viewBox="0 0 824 398" width="824px" zoomAndPan="magnify"><defs/><g><!--MD5=[e8e21ba3995782366e9aa9ad2c6b2d5f]
class PoResource--><rect fill="#FEFECE" height="75.6719" id="PoResource" style="stroke: #D4AC0D; stroke-width: 1.5;" width="188" x="187" y="79"/><ellipse cx="202" cy="95" fill="#ADD1B2" rx="11" ry="11" style="stroke: #ADD1B2; stroke-width: 1.0;"/><path d="M204,91.5 Q204.2031,91 204.4375,90.75 Q204.6719,90.5 204.9375,90.5 Q205.4063,90.5 205.7031,90.7813 Q206,91.0625 206,91.7188 L206,93.2813 Q206,93.9375 205.7188,94.2188 Q205.4375,94.5 205,94.5 Q204.6094,94.5 204.3594,94.3281 Q204.1094,94.1563 204,93.7031 Q203.9531,93.3906 203.7813,93.2188 Q203.4688,92.8906 202.9063,92.7031 Q202.3438,92.5 201.7813,92.5 Q201.0781,92.5 200.4844,92.7813 Q199.9063,93.0625 199.4531,93.6875 Q199,94.3125 199,95.1719 L199,96.0938 Q199,97.125 199.8438,97.8125 Q200.6875,98.5 202.1875,98.5 Q203.0781,98.5 203.7031,98.2969 Q204.0625,98.1875 204.4688,97.8281 Q204.7344,97.625 204.875,97.5625 Q205.0156,97.5 205.1875,97.5 Q205.5156,97.5 205.75,97.7656 Q206,98.0156 206,98.375 Q206,98.7188 205.6563,99.125 Q205.1563,99.7188 204.3594,100.0469 Q203.3125,100.5 202.0313,100.5 Q200.5313,100.5 199.3281,99.9063 Q198.3594,99.4375 197.6719,98.4219 Q197,97.4063 197,96.2031 L197,95.1094 Q197,93.8594 197.5938,92.7656 Q198.2031,91.6719 199.25,91.0938 Q200.3125,90.5 201.5,90.5 Q202.2188,90.5 202.8438,90.75 Q203.4688,91 204,91.5 Z "/><ellipse cx="221" cy="94.5" fill="#84BE84" rx="3" ry="3" style="stroke: #038048; stroke-width: 1.0;"/><text fill="#000000" font-family="sans-serif" font-size="12" lengthAdjust="spacingAndGlyphs" textLength="81" x="227" y="99.9102">CardResource</text><rect fill="#FFFFFF" height="17.0938" style="stroke: #000000; stroke-width: 1.0; stroke-dasharray: 2.0,2.0;" width="62" x="316" y="76"/><text fill="#000000" font-family="sans-serif" font-size="12" font-style="italic" lengthAdjust="spacingAndGlyphs" textLength="60" x="317" y="89.457">CalypsoPo</text><line style="stroke: #D4AC0D; stroke-width: 1.5;" x1="188" x2="374" y1="111" y2="111"/><line style="stroke: #D4AC0D; stroke-width: 1.5;" x1="188" x2="374" y1="119" y2="119"/><ellipse cx="198" cy="130" fill="#84BE84" rx="3" ry="3" style="stroke: #038048; stroke-width: 1.0;"/><text fill="#000000" font-family="sans-serif" font-size="11" lengthAdjust="spacingAndGlyphs" textLength="74" x="207" y="134.4189">CardResource(</text><text fill="#FF0000" font-family="sans-serif" font-size="11" lengthAdjust="spacingAndGlyphs" textLength="35" x="281" y="134.4189">Reader</text><text fill="#000000" font-family="sans-serif" font-size="11" lengthAdjust="spacingAndGlyphs" textLength="50" x="319" y="134.4189">poReader,</text><text fill="#000000" font-family="sans-serif" font-size="11" lengthAdjust="spacingAndGlyphs" textLength="73" x="207" y="148.2549">CalypsoPo po);</text><!--MD5=[43918d86839edc1befb88ea50efcfbfb]
class SamResource--><rect fill="#FEFECE" height="75.6719" id="SamResource" style="stroke: #D4AC0D; stroke-width: 1.5;" width="199" x="611.5" y="79"/><ellipse cx="626.5" cy="95" fill="#ADD1B2" rx="11" ry="11" style="stroke: #ADD1B2; stroke-width: 1.0;"/><path d="M628.5,91.5 Q628.7031,91 628.9375,90.75 Q629.1719,90.5 629.4375,90.5 Q629.9063,90.5 630.2031,90.7813 Q630.5,91.0625 630.5,91.7188 L630.5,93.2813 Q630.5,93.9375 630.2188,94.2188 Q629.9375,94.5 629.5,94.5 Q629.1094,94.5 628.8594,94.3281 Q628.6094,94.1563 628.5,93.7031 Q628.4531,93.3906 628.2813,93.2188 Q627.9688,92.8906 627.4063,92.7031 Q626.8438,92.5 626.2813,92.5 Q625.5781,92.5 624.9844,92.7813 Q624.4063,93.0625 623.9531,93.6875 Q623.5,94.3125 623.5,95.1719 L623.5,96.0938 Q623.5,97.125 624.3438,97.8125 Q625.1875,98.5 626.6875,98.5 Q627.5781,98.5 628.2031,98.2969 Q628.5625,98.1875 628.9688,97.8281 Q629.2344,97.625 629.375,97.5625 Q629.5156,97.5 629.6875,97.5 Q630.0156,97.5 630.25,97.7656 Q630.5,98.0156 630.5,98.375 Q630.5,98.7188 630.1563,99.125 Q629.6563,99.7188 628.8594,100.0469 Q627.8125,100.5 626.5313,100.5 Q625.0313,100.5 623.8281,99.9063 Q622.8594,99.4375 622.1719,98.4219 Q621.5,97.4063 621.5,96.2031 L621.5,95.1094 Q621.5,93.8594 622.0938,92.7656 Q622.7031,91.6719 623.75,91.0938 Q624.8125,90.5 626,90.5 Q626.7188,90.5 627.3438,90.75 Q627.9688,91 628.5,91.5 Z "/><ellipse cx="645.5" cy="94.5" fill="#84BE84" rx="3" ry="3" style="stroke: #038048; stroke-width: 1.0;"/><text fill="#000000" font-family="sans-serif" font-size="12" lengthAdjust="spacingAndGlyphs" textLength="81" x="651.5" y="99.9102">CardResource</text><rect fill="#FFFFFF" height="17.0938" style="stroke: #000000; stroke-width: 1.0; stroke-dasharray: 2.0,2.0;" width="73" x="740.5" y="76"/><text fill="#000000" font-family="sans-serif" font-size="12" font-style="italic" lengthAdjust="spacingAndGlyphs" textLength="71" x="741.5" y="89.457">CalypsoSam</text><line style="stroke: #D4AC0D; stroke-width: 1.5;" x1="612.5" x2="809.5" y1="111" y2="111"/><line style="stroke: #D4AC0D; stroke-width: 1.5;" x1="612.5" x2="809.5" y1="119" y2="119"/><ellipse cx="622.5" cy="130" fill="#84BE84" rx="3" ry="3" style="stroke: #038048; stroke-width: 1.0;"/><text fill="#000000" font-family="sans-serif" font-size="11" lengthAdjust="spacingAndGlyphs" textLength="74" x="631.5" y="134.4189">CardResource(</text><text fill="#FF0000" font-family="sans-serif" font-size="11" lengthAdjust="spacingAndGlyphs" textLength="35" x="705.5" y="134.4189">Reader</text><text fill="#000000" font-family="sans-serif" font-size="11" lengthAdjust="spacingAndGlyphs" textLength="58" x="743.5" y="134.4189">samReader,</text><text fill="#000000" font-family="sans-serif" font-size="11" lengthAdjust="spacingAndGlyphs" textLength="90" x="631.5" y="148.2549">CalypsoSam sam);</text><!--MD5=[e4d4ea7db949ad9d239210033b878e09]
class PoSecuritySetting--><rect fill="#FEFECE" height="48" id="PoSecuritySetting" style="stroke: #D4AC0D; stroke-width: 1.5;" width="166" x="410" y="93"/><ellipse cx="425" cy="109" fill="#ADD1B2" rx="11" ry="11" style="stroke: #ADD1B2; stroke-width: 1.0;"/><path d="M427,105.5 Q427.2031,105 427.4375,104.75 Q427.6719,104.5 427.9375,104.5 Q428.4063,104.5 428.7031,104.7813 Q429,105.0625 429,105.7188 L429,107.2813 Q429,107.9375 428.7188,108.2188 Q428.4375,108.5 428,108.5 Q427.6094,108.5 427.3594,108.3281 Q427.1094,108.1563 427,107.7031 Q426.9531,107.3906 426.7813,107.2188 Q426.4688,106.8906 425.9063,106.7031 Q425.3438,106.5 424.7813,106.5 Q424.0781,106.5 423.4844,106.7813 Q422.9063,107.0625 422.4531,107.6875 Q422,108.3125 422,109.1719 L422,110.0938 Q422,111.125 422.8438,111.8125 Q423.6875,112.5 425.1875,112.5 Q426.0781,112.5 426.7031,112.2969 Q427.0625,112.1875 427.4688,111.8281 Q427.7344,111.625 427.875,111.5625 Q428.0156,111.5 428.1875,111.5 Q428.5156,111.5 428.75,111.7656 Q429,112.0156 429,112.375 Q429,112.7188 428.6563,113.125 Q428.1563,113.7188 427.3594,114.0469 Q426.3125,114.5 425.0313,114.5 Q423.5313,114.5 422.3281,113.9063 Q421.3594,113.4375 420.6719,112.4219 Q420,111.4063 420,110.2031 L420,109.1094 Q420,107.8594 420.5938,106.7656 Q421.2031,105.6719 422.25,105.0938 Q423.3125,104.5 424.5,104.5 Q425.2188,104.5 425.8438,104.75 Q426.4688,105 427,105.5 Z "/><ellipse cx="444" cy="108.5" fill="#84BE84" rx="3" ry="3" style="stroke: #038048; stroke-width: 1.0;"/><text fill="#000000" font-family="sans-serif" font-size="12" font-weight="bold" lengthAdjust="spacingAndGlyphs" textLength="24" x="450" y="113.9102">final</text><text fill="#000000" font-family="sans-serif" font-size="12" lengthAdjust="spacingAndGlyphs" textLength="96" x="477" y="113.9102">PoSecuritySetting</text><line style="stroke: #D4AC0D; stroke-width: 1.5;" x1="411" x2="575" y1="125" y2="125"/><line style="stroke: #D4AC0D; stroke-width: 1.5;" x1="411" x2="575" y1="133" y2="133"/><!--MD5=[346f733d3079e77ece8ec0605238a57f]
class CalypsoPo--><rect fill="#FEFECE" height="172.5234" id="CalypsoPo" style="stroke: #D4AC0D; stroke-width: 1.5;" width="296" x="38" y="215"/><ellipse cx="146.25" cy="231" fill="#ADD1B2" rx="11" ry="11" style="stroke: #ADD1B2; stroke-width: 1.0;"/><path d="M148.25,227.5 Q148.4531,227 148.6875,226.75 Q148.9219,226.5 149.1875,226.5 Q149.6563,226.5 149.9531,226.7813 Q150.25,227.0625 150.25,227.7188 L150.25,229.2813 Q150.25,229.9375 149.9688,230.2188 Q149.6875,230.5 149.25,230.5 Q148.8594,230.5 148.6094,230.3281 Q148.3594,230.1563 148.25,229.7031 Q148.2031,229.3906 148.0313,229.2188 Q147.7188,228.8906 147.1563,228.7031 Q146.5938,228.5 146.0313,228.5 Q145.3281,228.5 144.7344,228.7813 Q144.1563,229.0625 143.7031,229.6875 Q143.25,230.3125 143.25,231.1719 L143.25,232.0938 Q143.25,233.125 144.0938,233.8125 Q144.9375,234.5 146.4375,234.5 Q147.3281,234.5 147.9531,234.2969 Q148.3125,234.1875 148.7188,233.8281 Q148.9844,233.625 149.125,233.5625 Q149.2656,233.5 149.4375,233.5 Q149.7656,233.5 150,233.7656 Q150.25,234.0156 150.25,234.375 Q150.25,234.7188 149.9063,235.125 Q149.4063,235.7188 148.6094,236.0469 Q147.5625,236.5 146.2813,236.5 Q144.7813,236.5 143.5781,235.9063 Q142.6094,235.4375 141.9219,234.4219 Q141.25,233.4063 141.25,232.2031 L141.25,231.1094 Q141.25,229.8594 141.8438,228.7656 Q142.4531,227.6719 143.5,227.0938 Q144.5625,226.5 145.75,226.5 Q146.4688,226.5 147.0938,226.75 Q147.7188,227 148.25,227.5 Z "/><ellipse cx="171.75" cy="230.5" fill="#84BE84" rx="3" ry="3" style="stroke: #038048; stroke-width: 1.0;"/><text fill="#000000" font-family="sans-serif" font-size="12" lengthAdjust="spacingAndGlyphs" textLength="60" x="177.75" y="235.9102">CalypsoPo</text><line style="stroke: #D4AC0D; stroke-width: 1.5;" x1="39" x2="333" y1="247" y2="247"/><line style="stroke: #D4AC0D; stroke-width: 1.5;" x1="39" x2="333" y1="255" y2="255"/><polygon fill="#4177AF" points="49,262,45,268,53,268" style="stroke: #1963A0; stroke-width: 1.0;"/><text fill="#000000" font-family="sans-serif" font-size="11" lengthAdjust="spacingAndGlyphs" textLength="55" x="58" y="270.4189">CalypsoPo(</text><text fill="#FF0000" font-family="sans-serif" font-size="11" lengthAdjust="spacingAndGlyphs" textLength="116" x="113" y="270.4189">CardSelectionResponse</text><text fill="#000000" font-family="sans-serif" font-size="11" lengthAdjust="spacingAndGlyphs" textLength="96" x="232" y="270.4189">selectionResponse)</text><text fill="#000000" font-family="sans-serif" font-size="11" lengthAdjust="spacingAndGlyphs" textLength="0" x="61" y="284.2549"/><ellipse cx="49" cy="293.6719" fill="#84BE84" rx="3" ry="3" style="stroke: #038048; stroke-width: 1.0;"/><text fill="#000000" font-family="sans-serif" font-size="11" font-weight="bold" lengthAdjust="spacingAndGlyphs" textLength="23" x="58" y="298.0908">final</text><text fill="#000000" font-family="sans-serif" font-size="11" lengthAdjust="spacingAndGlyphs" textLength="92" x="84" y="298.0908">String getDfName()</text><ellipse cx="49" cy="307.5078" fill="#84BE84" rx="3" ry="3" style="stroke: #038048; stroke-width: 1.0;"/><text fill="#000000" font-family="sans-serif" font-size="11" font-weight="bold" lengthAdjust="spacingAndGlyphs" textLength="23" x="58" y="311.9268">final</text><text fill="#000000" font-family="sans-serif" font-size="11" lengthAdjust="spacingAndGlyphs" textLength="171" x="84" y="311.9268">String getApplicationSerialNumber()</text><ellipse cx="49" cy="321.3438" fill="#84BE84" rx="3" ry="3" style="stroke: #038048; stroke-width: 1.0;"/><text fill="#000000" font-family="sans-serif" font-size="11" font-weight="bold" lengthAdjust="spacingAndGlyphs" textLength="23" x="58" y="325.7627">final</text><text fill="#000000" font-family="sans-serif" font-size="11" lengthAdjust="spacingAndGlyphs" textLength="107" x="84" y="325.7627">String getStartupInfo()</text><text fill="#000000" font-family="sans-serif" font-size="11" lengthAdjust="spacingAndGlyphs" textLength="0" x="61" y="339.5986"/><ellipse cx="49" cy="349.0156" fill="#84BE84" rx="3" ry="3" style="stroke: #038048; stroke-width: 1.0;"/><text fill="#000000" font-family="sans-serif" font-size="11" font-weight="bold" lengthAdjust="spacingAndGlyphs" textLength="23" x="58" y="353.4346">final</text><text fill="#000000" font-family="sans-serif" font-size="11" lengthAdjust="spacingAndGlyphs" textLength="0" x="84" y="353.4346"/><text fill="#4169E1" font-family="sans-serif" font-size="11" font-style="italic" font-weight="bold" lengthAdjust="spacingAndGlyphs" textLength="89" x="84" y="353.4346">boolean is_Xxx()</text><text fill="#000000" font-family="sans-serif" font-size="11" lengthAdjust="spacingAndGlyphs" textLength="0" x="61" y="367.2705"/><ellipse cx="49" cy="376.6875" fill="#84BE84" rx="3" ry="3" style="stroke: #038048; stroke-width: 1.0;"/><text fill="#000000" font-family="sans-serif" font-size="11" font-weight="bold" lengthAdjust="spacingAndGlyphs" textLength="23" x="58" y="381.1064">final</text><text fill="#000000" font-family="sans-serif" font-size="11" lengthAdjust="spacingAndGlyphs" textLength="0" x="84" y="381.1064"/><text fill="#4169E1" font-family="sans-serif" font-size="11" font-style="italic" font-weight="bold" lengthAdjust="spacingAndGlyphs" textLength="96" x="84" y="381.1064">Xxx getData_Xxx()</text><!--MD5=[8eb5cec01ad571a9feeff1db4f73a667]
class PoTransaction--><rect fill="#FEFECE" height="144.8516" id="PoTransaction" style="stroke: #D4AC0D; stroke-width: 1.5;" width="441" x="369.5" y="229"/><ellipse cx="540.25" cy="245" fill="#ADD1B2" rx="11" ry="11" style="stroke: #ADD1B2; stroke-width: 1.0;"/><path d="M542.25,241.5 Q542.4531,241 542.6875,240.75 Q542.9219,240.5 543.1875,240.5 Q543.6563,240.5 543.9531,240.7813 Q544.25,241.0625 544.25,241.7188 L544.25,243.2813 Q544.25,243.9375 543.9688,244.2188 Q543.6875,244.5 543.25,244.5 Q542.8594,244.5 542.6094,244.3281 Q542.3594,244.1563 542.25,243.7031 Q542.2031,243.3906 542.0313,243.2188 Q541.7188,242.8906 541.1563,242.7031 Q540.5938,242.5 540.0313,242.5 Q539.3281,242.5 538.7344,242.7813 Q538.1563,243.0625 537.7031,243.6875 Q537.25,244.3125 537.25,245.1719 L537.25,246.0938 Q537.25,247.125 538.0938,247.8125 Q538.9375,248.5 540.4375,248.5 Q541.3281,248.5 541.9531,248.2969 Q542.3125,248.1875 542.7188,247.8281 Q542.9844,247.625 543.125,247.5625 Q543.2656,247.5 543.4375,247.5 Q543.7656,247.5 544,247.7656 Q544.25,248.0156 544.25,248.375 Q544.25,248.7188 543.9063,249.125 Q543.4063,249.7188 542.6094,250.0469 Q541.5625,250.5 540.2813,250.5 Q538.7813,250.5 537.5781,249.9063 Q536.6094,249.4375 535.9219,248.4219 Q535.25,247.4063 535.25,246.2031 L535.25,245.1094 Q535.25,243.8594 535.8438,242.7656 Q536.4531,241.6719 537.5,241.0938 Q538.5625,240.5 539.75,240.5 Q540.4688,240.5 541.0938,240.75 Q541.7188,241 542.25,241.5 Z "/><ellipse cx="565.75" cy="244.5" fill="#84BE84" rx="3" ry="3" style="stroke: #038048; stroke-width: 1.0;"/><text fill="#000000" font-family="sans-serif" font-size="12" lengthAdjust="spacingAndGlyphs" textLength="80" x="571.75" y="249.9102">PoTransaction</text><line style="stroke: #D4AC0D; stroke-width: 1.5;" x1="370.5" x2="809.5" y1="261" y2="261"/><line style="stroke: #D4AC0D; stroke-width: 1.5;" x1="370.5" x2="809.5" y1="269" y2="269"/><ellipse cx="380.5" cy="280" fill="#84BE84" rx="3" ry="3" style="stroke: #038048; stroke-width: 1.0;"/><text fill="#000000" font-family="sans-serif" font-size="11" lengthAdjust="spacingAndGlyphs" textLength="415" x="389.5" y="284.4189">PoTransaction(CardResource&lt;CalypsoPo&gt; po, PoSecuritySetting[0..1] securitySetting)</text><text fill="#000000" font-family="sans-serif" font-size="11" lengthAdjust="spacingAndGlyphs" textLength="0" x="392.5" y="298.2549"/><ellipse cx="380.5" cy="307.6719" fill="#84BE84" rx="3" ry="3" style="stroke: #038048; stroke-width: 1.0;"/><text fill="#000000" font-family="sans-serif" font-size="11" font-weight="bold" lengthAdjust="spacingAndGlyphs" textLength="23" x="389.5" y="312.0908">final</text><text fill="#000000" font-family="sans-serif" font-size="11" lengthAdjust="spacingAndGlyphs" textLength="0" x="415.5" y="312.0908"/><text fill="#4169E1" font-family="sans-serif" font-size="11" font-style="italic" font-weight="bold" lengthAdjust="spacingAndGlyphs" textLength="131" x="415.5" y="312.0908">prepareCommand_Xxx()</text><text fill="#000000" font-family="sans-serif" font-size="11" lengthAdjust="spacingAndGlyphs" textLength="0" x="392.5" y="325.9268"/><ellipse cx="380.5" cy="335.3438" fill="#84BE84" rx="3" ry="3" style="stroke: #038048; stroke-width: 1.0;"/><text fill="#000000" font-family="sans-serif" font-size="11" font-weight="bold" lengthAdjust="spacingAndGlyphs" textLength="23" x="389.5" y="339.7627">final</text><text fill="#000000" font-family="sans-serif" font-size="11" lengthAdjust="spacingAndGlyphs" textLength="0" x="415.5" y="339.7627"/><text fill="#4169E1" font-family="sans-serif" font-size="11" font-style="italic" font-weight="bold" lengthAdjust="spacingAndGlyphs" textLength="182" x="415.5" y="339.7627">boolean processCommands_Xxx()</text><text fill="#000000" font-family="sans-serif" font-size="11" lengthAdjust="spacingAndGlyphs" textLength="0" x="392.5" y="353.5986"/><ellipse cx="380.5" cy="363.0156" fill="#84BE84" rx="3" ry="3" style="stroke: #038048; stroke-width: 1.0;"/><text fill="#000000" font-family="sans-serif" font-size="11" font-weight="bold" lengthAdjust="spacingAndGlyphs" textLength="23" x="389.5" y="367.4346">final</text><text fill="#000000" font-family="sans-serif" font-size="11" lengthAdjust="spacingAndGlyphs" textLength="0" x="415.5" y="367.4346"/><text fill="#4169E1" font-family="sans-serif" font-size="11" font-style="italic" font-weight="bold" lengthAdjust="spacingAndGlyphs" textLength="202" x="415.5" y="367.4346">Xxx_SecureData getXxx_SecureData()</text><!--MD5=[e4e6b0c197a4fe408c8d4c7214bc9356]
link PoResource to PoTransaction--><path d="M343.903,155.152 C376.657,174.496 418.005,198.917 457.413,222.192 " fill="none" id="PoResource-&gt;PoTransaction" style="stroke: #A80036; stroke-width: 1.0;"/><polygon fill="#FFFFFF" points="468.742,228.883,465.6099,222.3876,458.4095,222.7806,461.5416,229.2759,468.742,228.883" style="stroke: #A80036; stroke-width: 1.0;"/><text fill="#000000" font-family="sans-serif" font-size="13" lengthAdjust="spacingAndGlyphs" textLength="7" x="346.3704" y="176.0568">1</text><text fill="#000000" font-family="sans-serif" font-size="13" lengthAdjust="spacingAndGlyphs" textLength="7" x="448.8763" y="218.0903">1</text><!--MD5=[7ef23bb65cbd7f21990abf12f0f9fb41]
link PoSecuritySetting to PoTransaction--><path d="M505.285,141.114 C515.545,160.417 530.827,189.17 545.599,216.963 " fill="none" id="PoSecuritySetting-&gt;PoTransaction" style="stroke: #A80036; stroke-width: 1.0;"/><polygon fill="#FFFFFF" points="551.883,228.785,552.5989,221.6095,546.2507,218.1889,545.5348,225.3644,551.883,228.785" style="stroke: #A80036; stroke-width: 1.0;"/><text fill="#000000" font-family="sans-serif" font-size="13" lengthAdjust="spacingAndGlyphs" textLength="22" x="483.5982" y="162.4798">0..1</text><text fill="#000000" font-family="sans-serif" font-size="13" lengthAdjust="spacingAndGlyphs" textLength="7" x="540.5912" y="217.9822">1</text><!--MD5=[37dbed8b9216f61bc352547fd6848c07]
reverse link PoResource to CalypsoPo--><path d="M255.355,167.264 C247.685,182.001 239.041,198.605 230.526,214.963 " fill="none" id="PoResource&lt;-CalypsoPo" style="stroke: #A80036; stroke-width: 1.0;"/><polygon fill="#FFFFFF" points="261.546,155.372,255.2273,158.8468,256.0045,166.0159,262.3232,162.5411,261.546,155.372" style="stroke: #A80036; stroke-width: 1.0;"/><text fill="#000000" font-family="sans-serif" font-size="13" lengthAdjust="spacingAndGlyphs" textLength="7" x="250.8877" y="176.3118">1</text><text fill="#000000" font-family="sans-serif" font-size="13" lengthAdjust="spacingAndGlyphs" textLength="7" x="227.1799" y="204.0753">1</text><!--MD5=[a40139effe78355afd96e1fe38f816a4]
reverse link PoSecuritySetting to SamResource--><path d="M589.274,117 C596.634,117 603.993,117 611.352,117 " fill="none" id="PoSecuritySetting&lt;-SamResource" style="stroke: #A80036; stroke-width: 1.0;"/><polygon fill="#FFFFFF" points="576.027,117,582.027,121,588.027,117,582.027,113,576.027,117" style="stroke: #A80036; stroke-width: 1.0;"/><text fill="#000000" font-family="sans-serif" font-size="13" lengthAdjust="spacingAndGlyphs" textLength="7" x="587.9114" y="113.7983">1</text><text fill="#000000" font-family="sans-serif" font-size="13" lengthAdjust="spacingAndGlyphs" textLength="22" x="583.9776" y="131.6702">0..1</text><!--MD5=[4fae7473818f03b79e7e0ec0aa516fd0]
link PoResource to SamResource--><!--MD5=[28853d7d4774648031efdfbce9819f20]
@startuml
skinparam ClassBorderColor #D4AC0D
skinparam stereotypeABorderColor #A9DCDF
skinparam stereotypeIBorderColor #B4A7E5
skinparam stereotypeCBorderColor #ADD1B2
skinparam stereotypeEBorderColor #EB93DF
skinparam shadowing false

skinparam StateBorderColor #D4AC0D
skinparam ActivityBorderColor #D4AC0D

skinparam ClassBackgroundColor<<red>> #FDEDEC
skinparam ClassBorderColor<<red>> #E74C3C
hide <<red>> stereotype
skinparam ClassBackgroundColor<<purple>> #F4ECF7
skinparam ClassBorderColor<<purple>> #8E44AD
hide <<purple>> stereotype
skinparam ClassBackgroundColor<<blue>> #EBF5FB
skinparam ClassBorderColor<<blue>> #3498DB
hide <<blue>> stereotype
skinparam ClassBackgroundColor<<green>> #EAFAF1
skinparam ClassBorderColor<<green>> #2ECC71
hide <<green>> stereotype

skinparam ClassBackgroundColor<<orange>> #FDF2E9
skinparam ClassBorderColor<<orange>> #E67E22
hide <<orange>> stereotype

skinparam ClassBackgroundColor<<grey>> #EAECEE
skinparam ClassBorderColor<<grey>> #2C3E50
hide <<grey>> stereotype

together {
  +class "CardResource<CalypsoPo>" as PoResource {
    +CardResource(<color:red>Reader</color> poReader,
    CalypsoPo po);
  }

  +class "CardResource<CalypsoSam>" as SamResource {
    +CardResource(<color:red>Reader</color> samReader,
    CalypsoSam sam);
  }

  +class "<b>final</b> PoSecuritySetting" as PoSecuritySetting {
  }

  +class CalypsoPo {
    ~CalypsoPo(<color:red>CardSelectionResponse</color> selectionResponse)

    +<b>final</b> String getDfName()
    +<b>final</b> String getApplicationSerialNumber()
    +<b>final</b> String getStartupInfo()

    +<b>final</b> <color:royalBlue><b><i>boolean is_Xxx()</i></b></color>

    +<b>final</b> <color:royalBlue><b><i>Xxx getData_Xxx()</i></b></color>
  }

  +class PoTransaction {
    +PoTransaction(CardResource<CalypsoPo> po, PoSecuritySetting[0..1] securitySetting)

    +<b>final</b> <color:royalBlue><b><i>prepareCommand_Xxx()</i></b></color>

    +<b>final</b> <color:royalBlue><b><i>boolean processCommands_Xxx()</i></b></color>

    +<b>final</b> <color:royalBlue><b><i>Xxx_SecureData getXxx_SecureData()</i></b></color>
  }

  PoTransaction "1" o-up- "1" PoResource
  PoTransaction "1" o-up- "0..1" PoSecuritySetting
  PoResource "1" o-down- "1" CalypsoPo
  SamResource "0..1 " -right-o " 1" PoSecuritySetting
  PoResource -right[hidden]- SamResource
}
@enduml

PlantUML version 1.2020.09(Sun May 10 14:51:06 MUT 2020)
(GPL source distribution)
Java Runtime: OpenJDK Runtime Environment
JVM: OpenJDK 64-Bit Server VM
Java Version: 11.0.7+10-b765.64
Operating System: Windows 10
Default Encoding: Cp1252
Language: fr
Country: FR
--></g></svg>