<?xml version="1.0" encoding="UTF-8" standalone="no"?><svg xmlns="http://www.w3.org/2000/svg" xmlns:xlink="http://www.w3.org/1999/xlink" contentScriptType="application/ecmascript" contentStyleType="text/css" height="226px" preserveAspectRatio="none" style="width:185px;height:226px;" version="1.1" viewBox="0 0 185 226" width="185px" zoomAndPan="magnify"><defs/><g><!--MD5=[29efb591025f25d72f2b0c8b1457fdf5]
class Wait for Card Insertion--><rect fill="#FEFECE" height="48" id="Wait for Card Insertion" style="stroke: #D4AC0D; stroke-width: 1.5;" width="154" x="6.5" y="8"/><ellipse cx="21.5" cy="24" fill="#ADD1B2" rx="11" ry="11" style="stroke: #ADD1B2; stroke-width: 1.0;"/><path d="M23.5,20.5 Q23.7031,20 23.9375,19.75 Q24.1719,19.5 24.4375,19.5 Q24.9063,19.5 25.2031,19.7813 Q25.5,20.0625 25.5,20.7188 L25.5,22.2813 Q25.5,22.9375 25.2188,23.2188 Q24.9375,23.5 24.5,23.5 Q24.1094,23.5 23.8594,23.3281 Q23.6094,23.1563 23.5,22.7031 Q23.4531,22.3906 23.2813,22.2188 Q22.9688,21.8906 22.4063,21.7031 Q21.8438,21.5 21.2813,21.5 Q20.5781,21.5 19.9844,21.7813 Q19.4063,22.0625 18.9531,22.6875 Q18.5,23.3125 18.5,24.1719 L18.5,25.0938 Q18.5,26.125 19.3438,26.8125 Q20.1875,27.5 21.6875,27.5 Q22.5781,27.5 23.2031,27.2969 Q23.5625,27.1875 23.9688,26.8281 Q24.2344,26.625 24.375,26.5625 Q24.5156,26.5 24.6875,26.5 Q25.0156,26.5 25.25,26.7656 Q25.5,27.0156 25.5,27.375 Q25.5,27.7188 25.1563,28.125 Q24.6563,28.7188 23.8594,29.0469 Q22.8125,29.5 21.5313,29.5 Q20.0313,29.5 18.8281,28.9063 Q17.8594,28.4375 17.1719,27.4219 Q16.5,26.4063 16.5,25.2031 L16.5,24.1094 Q16.5,22.8594 17.0938,21.7656 Q17.7031,20.6719 18.75,20.0938 Q19.8125,19.5 21,19.5 Q21.7188,19.5 22.3438,19.75 Q22.9688,20 23.5,20.5 Z "/><text fill="#000000" font-family="sans-serif" font-size="12" lengthAdjust="spacingAndGlyphs" textLength="122" x="35.5" y="28.9102">Wait for Card Insertion</text><line style="stroke: #D4AC0D; stroke-width: 1.5;" x1="7.5" x2="159.5" y1="40" y2="40"/><line style="stroke: #D4AC0D; stroke-width: 1.5;" x1="7.5" x2="159.5" y1="48" y2="48"/><!--MD5=[3d181f37b5d335d1c1ee59386c13063f]
class Wait for Card Removal--><rect fill="#FEFECE" height="48" id="Wait for Card Removal" style="stroke: #D4AC0D; stroke-width: 1.5;" width="155" x="6" y="167"/><ellipse cx="21" cy="183" fill="#ADD1B2" rx="11" ry="11" style="stroke: #ADD1B2; stroke-width: 1.0;"/><path d="M23,179.5 Q23.2031,179 23.4375,178.75 Q23.6719,178.5 23.9375,178.5 Q24.4063,178.5 24.7031,178.7813 Q25,179.0625 25,179.7188 L25,181.2813 Q25,181.9375 24.7188,182.2188 Q24.4375,182.5 24,182.5 Q23.6094,182.5 23.3594,182.3281 Q23.1094,182.1563 23,181.7031 Q22.9531,181.3906 22.7813,181.2188 Q22.4688,180.8906 21.9063,180.7031 Q21.3438,180.5 20.7813,180.5 Q20.0781,180.5 19.4844,180.7813 Q18.9063,181.0625 18.4531,181.6875 Q18,182.3125 18,183.1719 L18,184.0938 Q18,185.125 18.8438,185.8125 Q19.6875,186.5 21.1875,186.5 Q22.0781,186.5 22.7031,186.2969 Q23.0625,186.1875 23.4688,185.8281 Q23.7344,185.625 23.875,185.5625 Q24.0156,185.5 24.1875,185.5 Q24.5156,185.5 24.75,185.7656 Q25,186.0156 25,186.375 Q25,186.7188 24.6563,187.125 Q24.1563,187.7188 23.3594,188.0469 Q22.3125,188.5 21.0313,188.5 Q19.5313,188.5 18.3281,187.9063 Q17.3594,187.4375 16.6719,186.4219 Q16,185.4063 16,184.2031 L16,183.1094 Q16,181.8594 16.5938,180.7656 Q17.2031,179.6719 18.25,179.0938 Q19.3125,178.5 20.5,178.5 Q21.2188,178.5 21.8438,178.75 Q22.4688,179 23,179.5 Z "/><text fill="#000000" font-family="sans-serif" font-size="12" lengthAdjust="spacingAndGlyphs" textLength="123" x="35" y="187.9102">Wait for Card Removal</text><line style="stroke: #D4AC0D; stroke-width: 1.5;" x1="7" x2="160" y1="199" y2="199"/><line style="stroke: #D4AC0D; stroke-width: 1.5;" x1="7" x2="160" y1="207" y2="207"/><!--MD5=[9b705d345ab57a0496b0741137161482]
link Wait for Card Insertion to Wait for Card Removal--><path d="M48.2347,56.141 C38.7299,64.332 29.659,74.431 24.5,86 C15.2686,106.702 15.2686,116.2983 24.5,137 C28.9336,146.9424 36.2561,155.7988 44.2603,163.2917 " fill="none" id="Wait for Card Insertion-&gt;Wait for Card Removal" style="stroke: #FF0000; stroke-width: 1.0;"/><polygon fill="#FF0000" points="48.2347,166.8593,44.2092,157.8707,44.5139,163.5193,38.8652,163.824,48.2347,166.8593" style="stroke: #FF0000; stroke-width: 1.0;"/><text fill="#000000" font-family="sans-serif" font-size="13" lengthAdjust="spacingAndGlyphs" textLength="70" x="25.5" y="100.4951">notifies card</text><text fill="#000000" font-family="sans-serif" font-size="13" lengthAdjust="spacingAndGlyphs" textLength="46" x="37.5" y="116.8467">inserted</text><text fill="#000000" font-family="sans-serif" font-size="13" lengthAdjust="spacingAndGlyphs" textLength="64" x="28.5" y="133.1982">or selected</text><!--MD5=[7e1a57d76bfe4d1d3a3377a2e67addf5]
reverse link Wait for Card Insertion to Wait for Card Removal--><path d="M94.2495,60.951 C96.8235,68.922 99.2012,77.699 100.5,86 C104.0036,108.394 104.0036,114.606 100.5,137 C98.9317,147.0244 95.79,157.7417 92.6294,166.8972 " fill="none" id="Wait for Card Insertion&lt;-Wait for Card Removal" style="stroke: #FF0000; stroke-width: 1.0;"/><polygon fill="#FF0000" points="92.6294,56.103,91.6899,65.9069,94.215,60.8449,99.277,63.37,92.6294,56.103" style="stroke: #FF0000; stroke-width: 1.0;"/><text fill="#000000" font-family="sans-serif" font-size="13" lengthAdjust="spacingAndGlyphs" textLength="70" x="103.5" y="108.9951">notifies card</text><text fill="#000000" font-family="sans-serif" font-size="13" lengthAdjust="spacingAndGlyphs" textLength="48" x="114.5" y="125.3467">removed</text><!--MD5=[6a164cc6cd1cb6719de95199e79586ab]
@startuml
skinparam ClassBorderColor #D4AC0D
skinparam stereotypeABorderColor #A9DCDF
skinparam stereotypeIBorderColor #B4A7E5
skinparam stereotypeCBorderColor #ADD1B2
skinparam stereotypeEBorderColor #EB93DF
skinparam shadowing false

skinparam StateBorderColor #D4AC0D
skinparam ActivityBorderColor #D4AC0D

skinparam ClassBackgroundColor<<red>> #FDEDEC
skinparam ClassBorderColor<<red>> #E74C3C
hide <<red>> stereotype
skinparam ClassBackgroundColor<<purple>> #F4ECF7
skinparam ClassBorderColor<<purple>> #8E44AD
hide <<purple>> stereotype
skinparam ClassBackgroundColor<<blue>> #EBF5FB
skinparam ClassBorderColor<<blue>> #3498DB
hide <<blue>> stereotype
skinparam ClassBackgroundColor<<green>> #EAFAF1
skinparam ClassBorderColor<<green>> #2ECC71
hide <<green>> stereotype

skinparam ClassBackgroundColor<<orange>> #FDF2E9
skinparam ClassBorderColor<<orange>> #E67E22
hide <<orange>> stereotype

skinparam ClassBackgroundColor<<grey>> #EAECEE
skinparam ClassBorderColor<<grey>> #2C3E50
hide <<grey>> stereotype
hide empty description

  "Wait for Card Insertion" -down[#Red]-> "Wait for Card Removal" : notifies card\ninserted\nor selected
  "Wait for Card Removal" -up[#Red]-> "Wait for Card Insertion" : notifies card\nremoved
@enduml

PlantUML version 1.2020.09(Sun May 10 14:51:06 MUT 2020)
(GPL source distribution)
Java Runtime: OpenJDK Runtime Environment
JVM: OpenJDK 64-Bit Server VM
Java Version: 11.0.7+10-b765.64
Operating System: Windows 10
Default Encoding: Cp1252
Language: fr
Country: FR
--></g></svg>