<?xml version="1.0" encoding="UTF-8" standalone="no"?><svg xmlns="http://www.w3.org/2000/svg" xmlns:xlink="http://www.w3.org/1999/xlink" contentScriptType="application/ecmascript" contentStyleType="text/css" height="1310px" preserveAspectRatio="none" style="width:2097px;height:1310px;background:#FFFFFF;" version="1.1" viewBox="0 0 2097 1310" width="2097.5px" zoomAndPan="magnify"><defs><filter height="1" id="b8vo114pxmhjz0" width="1" x="0" y="0"><feFlood flood-color="#ADD8E6" result="flood"/><feComposite in="SourceGraphic" in2="flood" operator="over"/></filter></defs><g><rect fill="#ADD8E6" height="753.0469" style="stroke:#A80036;stroke-width:2.5;" width="25" x="156.25" y="283.0469"/><rect fill="#FFC0CB" height="674.668" style="stroke:#A80036;stroke-width:2.5;" width="25" x="543.75" y="338.9258"/><rect fill="#FFC0CB" height="522.9102" style="stroke:#A80036;stroke-width:2.5;" width="25" x="1096.25" y="414.8047"/><rect fill="#ADD8E6" height="75.8789" style="stroke:#A80036;stroke-width:2.5;" width="25" x="1531.25" y="785.957"/><line style="stroke:#A80036;stroke-width:2.5;stroke-dasharray:5.0,5.0;" x1="167.5" x2="167.5" y1="258.0469" y2="1058.5938"/><line style="stroke:#A80036;stroke-width:2.5;stroke-dasharray:5.0,5.0;" x1="555" x2="555" y1="258.0469" y2="1058.5938"/><line style="stroke:#A80036;stroke-width:2.5;stroke-dasharray:5.0,5.0;" x1="1108.75" x2="1108.75" y1="258.0469" y2="1058.5938"/><line style="stroke:#A80036;stroke-width:2.5;stroke-dasharray:5.0,5.0;" x1="1543.75" x2="1543.75" y1="258.0469" y2="1058.5938"/><rect fill="#ADD8E6" height="123.0469" rx="12.5" ry="12.5" style="stroke:#A80036;stroke-width:3.75;" width="312.5" x="12.5" y="132.5"/><text fill="#000000" font-family="sans-serif" font-size="35" lengthAdjust="spacing" textLength="180" x="78.75" y="186.333">nodeClient:</text><text fill="#000000" font-family="sans-serif" font-size="35" font-weight="bold" lengthAdjust="spacing" textLength="277.5" x="30" y="230.3564">SyncNodeClient</text><rect fill="#ADD8E6" height="123.0469" rx="12.5" ry="12.5" style="stroke:#A80036;stroke-width:3.75;" width="312.5" x="12.5" y="1056.0938"/><text fill="#000000" font-family="sans-serif" font-size="35" lengthAdjust="spacing" textLength="180" x="78.75" y="1109.9268">nodeClient:</text><text fill="#000000" font-family="sans-serif" font-size="35" font-weight="bold" lengthAdjust="spacing" textLength="277.5" x="30" y="1153.9502">SyncNodeClient</text><text fill="#000000" font-family="sans-serif" font-size="35" lengthAdjust="spacing" textLength="285" x="406.25" y="206.333">userSenderClient:</text><text fill="#000000" filter="url(#b8vo114pxmhjz0)" font-family="sans-serif" font-size="35" font-weight="bold" lengthAdjust="spacing" textLength="397.5" x="350" y="250.3564">SyncEndpointClientSpi</text><ellipse cx="556.25" cy="37.5" fill="#FEFECE" rx="20" ry="20" style="stroke:#A80036;stroke-width:5.0;"/><path d="M556.25,57.5 L556.25,125 M523.75,77.5 L588.75,77.5 M556.25,125 L523.75,162.5 M556.25,125 L588.75,162.5 " fill="none" style="stroke:#A80036;stroke-width:5.0;"/><text fill="#000000" font-family="sans-serif" font-size="35" lengthAdjust="spacing" textLength="285" x="406.25" y="1092.4268">userSenderClient:</text><text fill="#000000" filter="url(#b8vo114pxmhjz0)" font-family="sans-serif" font-size="35" font-weight="bold" lengthAdjust="spacing" textLength="397.5" x="350" y="1136.4502">SyncEndpointClientSpi</text><ellipse cx="556.25" cy="1169.1406" fill="#FEFECE" rx="20" ry="20" style="stroke:#A80036;stroke-width:5.0;"/><path d="M556.25,1189.1406 L556.25,1256.6406 M523.75,1209.1406 L588.75,1209.1406 M556.25,1256.6406 L523.75,1294.1406 M556.25,1256.6406 L588.75,1294.1406 " fill="none" style="stroke:#A80036;stroke-width:5.0;"/><text fill="#000000" font-family="sans-serif" font-size="35" lengthAdjust="spacing" textLength="330" x="936.25" y="250.3564">userControllerServer</text><ellipse cx="1108.75" cy="81.5234" fill="#FEFECE" rx="20" ry="20" style="stroke:#A80036;stroke-width:5.0;"/><path d="M1108.75,101.5234 L1108.75,169.0234 M1076.25,121.5234 L1141.25,121.5234 M1108.75,169.0234 L1076.25,206.5234 M1108.75,169.0234 L1141.25,206.5234 " fill="none" style="stroke:#A80036;stroke-width:5.0;"/><text fill="#000000" font-family="sans-serif" font-size="35" lengthAdjust="spacing" textLength="330" x="936.25" y="1092.4268">userControllerServer</text><ellipse cx="1108.75" cy="1125.1172" fill="#FEFECE" rx="20" ry="20" style="stroke:#A80036;stroke-width:5.0;"/><path d="M1108.75,1145.1172 L1108.75,1212.6172 M1076.25,1165.1172 L1141.25,1165.1172 M1108.75,1212.6172 L1076.25,1250.1172 M1108.75,1212.6172 L1141.25,1250.1172 " fill="none" style="stroke:#A80036;stroke-width:5.0;"/><rect fill="#ADD8E6" height="123.0469" rx="12.5" ry="12.5" style="stroke:#A80036;stroke-width:3.75;" width="330" x="1378.75" y="132.5"/><text fill="#000000" font-family="sans-serif" font-size="35" lengthAdjust="spacing" textLength="195" x="1446.25" y="186.333">nodeServer:</text><text fill="#000000" font-family="sans-serif" font-size="35" font-weight="bold" lengthAdjust="spacing" textLength="295" x="1396.25" y="230.3564">SyncNodeServer</text><rect fill="#ADD8E6" height="123.0469" rx="12.5" ry="12.5" style="stroke:#A80036;stroke-width:3.75;" width="330" x="1378.75" y="1056.0938"/><text fill="#000000" font-family="sans-serif" font-size="35" lengthAdjust="spacing" textLength="195" x="1446.25" y="1109.9268">nodeServer:</text><text fill="#000000" font-family="sans-serif" font-size="35" font-weight="bold" lengthAdjust="spacing" textLength="295" x="1396.25" y="1153.9502">SyncNodeServer</text><rect fill="#ADD8E6" height="753.0469" style="stroke:#A80036;stroke-width:2.5;" width="25" x="156.25" y="283.0469"/><rect fill="#FFC0CB" height="674.668" style="stroke:#A80036;stroke-width:2.5;" width="25" x="543.75" y="338.9258"/><rect fill="#FFC0CB" height="522.9102" style="stroke:#A80036;stroke-width:2.5;" width="25" x="1096.25" y="414.8047"/><rect fill="#ADD8E6" height="75.8789" style="stroke:#A80036;stroke-width:2.5;" width="25" x="1531.25" y="785.957"/><polygon fill="#A80036" points="513.75,328.9258,538.75,338.9258,513.75,348.9258,523.75,338.9258" style="stroke:#A80036;stroke-width:2.5;"/><line style="stroke:#A80036;stroke-width:2.5;" x1="181.25" x2="528.75" y1="338.9258" y2="338.9258"/><text fill="#000000" font-family="sans-serif" font-size="32.5" lengthAdjust="spacing" textLength="210" x="198.75" y="326.7847">sendRequest (</text><text fill="#FF0000" font-family="sans-serif" font-size="32.5" lengthAdjust="spacing" textLength="67.5" x="408.75" y="326.7847">dtoA</text><text fill="#000000" font-family="sans-serif" font-size="32.5" lengthAdjust="spacing" textLength="10" x="476.25" y="326.7847">)</text><polygon fill="#A80036" points="1066.25,404.8047,1091.25,414.8047,1066.25,424.8047,1076.25,414.8047" style="stroke:#A80036;stroke-width:2.5;"/><line style="stroke:#A80036;stroke-width:2.5;" x1="568.75" x2="1081.25" y1="414.8047" y2="414.8047"/><text fill="#000000" font-family="sans-serif" font-size="32.5" lengthAdjust="spacing" textLength="402.5" x="586.25" y="402.6636">send synchronous request (</text><text fill="#FF0000" font-family="sans-serif" font-size="32.5" lengthAdjust="spacing" textLength="67.5" x="988.75" y="402.6636">dtoA</text><text fill="#000000" font-family="sans-serif" font-size="32.5" lengthAdjust="spacing" textLength="10" x="1056.25" y="402.6636">)</text><line style="stroke:#A80036;stroke-width:2.5;" x1="1121.25" x2="1226.25" y1="584.1309" y2="584.1309"/><line style="stroke:#A80036;stroke-width:2.5;" x1="1226.25" x2="1226.25" y1="584.1309" y2="616.6309"/><line style="stroke:#A80036;stroke-width:2.5;" x1="1123.75" x2="1226.25" y1="616.6309" y2="616.6309"/><polygon fill="#A80036" points="1148.75,606.6309,1123.75,616.6309,1148.75,626.6309,1138.75,616.6309" style="stroke:#A80036;stroke-width:2.5;"/><text fill="#000000" font-family="sans-serif" font-size="32.5" lengthAdjust="spacing" textLength="375" x="1138.75" y="571.9897">[...]Server.getSyncNode ()</text><path d="M1542.5,459.8047 L1542.5,704.8047 A12.5,12.5 0 0 0 1555,717.3047 L2067.5,717.3047 A12.5,12.5 0 0 0 2080,704.8047 L2080,472.3047 L2055,447.3047 L1555,447.3047 A12.5,12.5 0 0 0 1542.5,459.8047 " fill="#FBFB77" style="stroke:#A80036;stroke-width:2.5;"/><path d="M2055,447.3047 L2055,466.0547 A6.25,6.25 0 0 0 2061.25,472.3047 L2080,472.3047 L2055,447.3047 " fill="#FBFB77" style="stroke:#A80036;stroke-width:2.5;"/><text fill="#000000" font-family="sans-serif" font-size="32.5" lengthAdjust="spacing" textLength="392.5" x="1557.5" y="493.5425">The node accessor method</text><text fill="#000000" font-family="sans-serif" font-size="32.5" lengthAdjust="spacing" textLength="437.5" x="1557.5" y="534.4214">is provided by the extension of</text><text fill="#000000" font-family="sans-serif" font-size="32.5" lengthAdjust="spacing" textLength="485" x="1557.5" y="575.3003">the remote plugin or local service,</text><text fill="#000000" font-family="sans-serif" font-size="32.5" lengthAdjust="spacing" textLength="330" x="1557.5" y="616.1792">depends on your case:</text><ellipse cx="1571.25" cy="645.4492" fill="#000000" rx="6.25" ry="6.25" style="stroke:#000000;stroke-width:0.0;"/><text fill="#000000" font-family="sans-serif" font-size="32.5" font-weight="bold" lengthAdjust="spacing" textLength="225" x="1590" y="657.0581">RemotePlugin</text><text fill="#000000" font-family="sans-serif" font-size="32.5" lengthAdjust="spacing" textLength="90" x="1815" y="657.0581">Server</text><ellipse cx="1571.25" cy="686.3281" fill="#000000" rx="6.25" ry="6.25" style="stroke:#000000;stroke-width:0.0;"/><text fill="#000000" font-family="sans-serif" font-size="32.5" font-weight="bold" lengthAdjust="spacing" textLength="207.5" x="1590" y="697.937">LocalService</text><text fill="#000000" font-family="sans-serif" font-size="32.5" lengthAdjust="spacing" textLength="90" x="1797.5" y="697.937">Server</text><polygon fill="#A80036" points="1501.25,775.957,1526.25,785.957,1501.25,795.957,1511.25,785.957" style="stroke:#A80036;stroke-width:2.5;"/><line style="stroke:#A80036;stroke-width:2.5;" x1="1121.25" x2="1516.25" y1="785.957" y2="785.957"/><text fill="#000000" font-family="sans-serif" font-size="32.5" lengthAdjust="spacing" textLength="175" x="1138.75" y="773.8159">onRequest (</text><text fill="#FF0000" font-family="sans-serif" font-size="32.5" lengthAdjust="spacing" textLength="67.5" x="1313.75" y="773.8159">dtoA</text><text fill="#000000" font-family="sans-serif" font-size="32.5" lengthAdjust="spacing" textLength="10" x="1381.25" y="773.8159">)</text><polygon fill="#A80036" points="1148.75,851.8359,1123.75,861.8359,1148.75,871.8359,1138.75,861.8359" style="stroke:#A80036;stroke-width:2.5;"/><line style="stroke:#A80036;stroke-width:2.5;stroke-dasharray:2.0,2.0;" x1="1133.75" x2="1541.25" y1="861.8359" y2="861.8359"/><text fill="#0000FF" font-family="sans-serif" font-size="32.5" lengthAdjust="spacing" textLength="87.5" x="1163.75" y="849.6948">[dtoB]</text><polygon fill="#A80036" points="596.25,927.7148,571.25,937.7148,596.25,947.7148,586.25,937.7148" style="stroke:#A80036;stroke-width:2.5;"/><line style="stroke:#A80036;stroke-width:2.5;stroke-dasharray:2.0,2.0;" x1="581.25" x2="1106.25" y1="937.7148" y2="937.7148"/><text fill="#0000FF" font-family="sans-serif" font-size="32.5" lengthAdjust="spacing" textLength="87.5" x="611.25" y="925.5737">[dtoB]</text><polygon fill="#A80036" points="208.75,1003.5938,183.75,1013.5938,208.75,1023.5938,198.75,1013.5938" style="stroke:#A80036;stroke-width:2.5;"/><line style="stroke:#A80036;stroke-width:2.5;stroke-dasharray:2.0,2.0;" x1="193.75" x2="553.75" y1="1013.5938" y2="1013.5938"/><text fill="#0000FF" font-family="sans-serif" font-size="32.5" lengthAdjust="spacing" textLength="87.5" x="223.75" y="1001.4526">[dtoB]</text><!--MD5=[be597eedcbdbaf7427c48eeb7954e1ce]
@startuml

' == THEME ==

skinparam Shadowing false
skinparam RoundCorner 10

' == CONTENT ==

participant "nodeClient:\n**SyncNodeClient**" as nodeClient #LightBlue
actor "userSenderClient:\n**<back:LightBlue>SyncEndpointClientSpi**" as userSenderClient

actor "userControllerServer" as userControllerServer
participant "nodeServer:\n**SyncNodeServer**" as nodeServer #LightBlue

activate nodeClient #LightBlue
nodeClient -> userSenderClient : sendRequest (<color:red>dtoA</color>)
activate userSenderClient #Pink
userSenderClient -> userControllerServer : send synchronous request (<color:red>dtoA</color>)

activate userControllerServer #Pink
userControllerServer -> userControllerServer : [...]Server.getSyncNode ()
note right
    The node accessor method
    is provided by the extension of
    the remote plugin or local service,
    depends on your case:
    * **RemotePlugin**Server
    * **LocalService**Server
end note
userControllerServer -> nodeServer : onRequest (<color:red>dtoA</color>)
activate nodeServer #LightBlue
return <color:blue>[dtoB]</color>
return <color:blue>[dtoB]</color>
return <color:blue>[dtoB]</color>


@enduml

@startuml


skinparam Shadowing false
skinparam RoundCorner 10


participant "nodeClient:\n**SyncNodeClient**" as nodeClient #LightBlue
actor "userSenderClient:\n**<back:LightBlue>SyncEndpointClientSpi**" as userSenderClient

actor "userControllerServer" as userControllerServer
participant "nodeServer:\n**SyncNodeServer**" as nodeServer #LightBlue

activate nodeClient #LightBlue
nodeClient -> userSenderClient : sendRequest (<color:red>dtoA</color>)
activate userSenderClient #Pink
userSenderClient -> userControllerServer : send synchronous request (<color:red>dtoA</color>)

activate userControllerServer #Pink
userControllerServer -> userControllerServer : [...]Server.getSyncNode ()
note right
    The node accessor method
    is provided by the extension of
    the remote plugin or local service,
    depends on your case:
    * **RemotePlugin**Server
    * **LocalService**Server
end note
userControllerServer -> nodeServer : onRequest (<color:red>dtoA</color>)
activate nodeServer #LightBlue
return <color:blue>[dtoB]</color>
return <color:blue>[dtoB]</color>
return <color:blue>[dtoB]</color>


@enduml

PlantUML version 1.2021.7(Sun May 23 14:40:07 CEST 2021)
(GPL source distribution)
Java Runtime: OpenJDK Runtime Environment
JVM: OpenJDK 64-Bit Server VM
Default Encoding: Cp1252
Language: fr
Country: FR
--></g></svg>