<svg xmlns="http://www.w3.org/2000/svg" xmlns:xlink="http://www.w3.org/1999/xlink" contentStyleType="text/css" height="1199px" preserveAspectRatio="none" style="width:1415px;height:1199px;background:#FFFFFF;" version="1.1" viewBox="0 0 1415 1199" width="1415px" zoomAndPan="magnify"><defs/><g><!--class MessageDto--><g id="elem_MessageDto"><rect codeLine="170" fill="#E9F7EF" height="178.3477" id="MessageDto" rx="2.5" ry="2.5" style="stroke:#27AE60;stroke-width:2.0;" width="192.5234" x="446.5" y="7"/><ellipse cx="499.2153" cy="23" fill="#ADD1B2" rx="11" ry="11" style="stroke:#181818;stroke-width:1.0;"/><path d="M501.981,18.875 Q502.1372,18.6563 502.3247,18.5469 Q502.5122,18.4375 502.731,18.4375 Q503.106,18.4375 503.3403,18.7031 Q503.5747,18.9531 503.5747,19.5625 L503.5747,21.0156 Q503.5747,21.625 503.3403,21.8906 Q503.106,22.1563 502.731,22.1563 Q502.3872,22.1563 502.1841,21.9531 Q501.981,21.7656 501.8716,21.25 Q501.8247,20.8906 501.6372,20.7031 Q501.3091,20.3281 500.6997,20.1094 Q500.0903,19.8906 499.4653,19.8906 Q498.6997,19.8906 498.0591,20.2188 Q497.4341,20.5469 496.9341,21.2969 Q496.4497,22.0469 496.4497,23.0781 L496.4497,24.1719 Q496.4497,25.4063 497.3403,26.2344 Q498.231,27.0469 499.8247,27.0469 Q500.7622,27.0469 501.4185,26.7969 Q501.8091,26.6406 502.231,26.2031 Q502.4966,25.9375 502.6372,25.8594 Q502.7935,25.7813 502.9966,25.7813 Q503.3247,25.7813 503.5747,26.0469 Q503.8403,26.2969 503.8403,26.6406 Q503.8403,26.9844 503.4966,27.3906 Q502.9966,27.9688 502.1997,28.2969 Q501.1216,28.75 499.8247,28.75 Q498.3091,28.75 497.106,28.125 Q496.1216,27.625 495.4341,26.5625 Q494.7466,25.4844 494.7466,24.2031 L494.7466,23.0469 Q494.7466,21.7188 495.356,20.5781 Q495.981,19.4219 497.0747,18.8125 Q498.1685,18.1875 499.4028,18.1875 Q500.1372,18.1875 500.7778,18.3594 Q501.4341,18.5156 501.981,18.875 Z " fill="#000000"/><text fill="#000000" font-family="sans-serif" font-size="14" lengthAdjust="spacing" textLength="78.5928" x="519.7153" y="28.7969">MessageDto</text><line style="stroke:#27AE60;stroke-width:2.0;" x1="447.5" x2="638.0234" y1="39" y2="39"/><text fill="#000000" font-family="sans-serif" font-size="14" font-weight="bold" lengthAdjust="spacing" textLength="41.2275" x="452.5" y="58.1074">action</text><text fill="#000000" font-family="sans-serif" font-size="14" lengthAdjust="spacing" textLength="65.2764" x="497.6172" y="58.1074">: String = "</text><text fill="#000000" font-family="sans-serif" font-size="14" font-weight="bold" lengthAdjust="spacing" textLength="31.8828" x="562.8936" y="58.1074">CMD</text><text fill="#000000" font-family="sans-serif" font-size="14" lengthAdjust="spacing" textLength="4.9697" x="594.7764" y="58.1074">"</text><text fill="#000000" font-family="sans-serif" font-size="14" font-weight="bold" lengthAdjust="spacing" textLength="33.4414" x="452.5" y="76.7285">body</text><text fill="#000000" font-family="sans-serif" font-size="14" lengthAdjust="spacing" textLength="69.248" x="489.8311" y="76.7285">: CmdBody</text><text fill="#000000" font-family="sans-serif" font-size="14" font-weight="bold" lengthAdjust="spacing" textLength="64.5791" x="452.5" y="95.3496">sessionId</text><text fill="#000000" font-family="sans-serif" font-size="14" lengthAdjust="spacing" textLength="44.3516" x="520.9688" y="95.3496">: String</text><text fill="#000000" font-family="sans-serif" font-size="14" font-weight="bold" lengthAdjust="spacing" textLength="84.0068" x="452.5" y="113.9707">clientNodeId</text><text fill="#000000" font-family="sans-serif" font-size="14" lengthAdjust="spacing" textLength="44.3516" x="540.3965" y="113.9707">: String</text><text fill="#000000" font-family="sans-serif" font-size="14" font-weight="bold" lengthAdjust="spacing" textLength="117.5029" x="452.5" y="132.5918">localReaderName</text><text fill="#000000" font-family="sans-serif" font-size="14" lengthAdjust="spacing" textLength="44.3516" x="573.8926" y="132.5918">: String</text><text fill="#000000" font-family="sans-serif" font-size="14" font-weight="bold" lengthAdjust="spacing" textLength="89.4824" x="452.5" y="151.2129">serverNodeId</text><text fill="#000000" font-family="sans-serif" font-size="14" lengthAdjust="spacing" textLength="44.3516" x="545.8721" y="151.2129">: String</text><text fill="#000000" font-family="sans-serif" font-size="14" font-weight="bold" lengthAdjust="spacing" textLength="132.2822" x="452.5" y="169.834">remoteReaderName</text><text fill="#000000" font-family="sans-serif" font-size="14" lengthAdjust="spacing" textLength="44.3516" x="588.6719" y="169.834">: String</text><line style="stroke:#27AE60;stroke-width:2.0;" x1="447.5" x2="638.0234" y1="177.3477" y2="177.3477"/></g><!--class CmdBody--><g id="elem_CmdBody"><rect codeLine="171" fill="#E9F7EF" height="66.6211" id="CmdBody" rx="2.5" ry="2.5" style="stroke:#27AE60;stroke-width:2.0;" width="108.5098" x="488.5" y="264"/><ellipse cx="510.2685" cy="280" fill="#A9DCDF" rx="11" ry="11" style="stroke:#181818;stroke-width:1.0;"/><path d="M512.456,281.7656 L508.3153,281.7656 L507.8935,282.7969 L508.3153,282.7969 Q508.9247,282.7969 509.1903,283.0313 Q509.456,283.2656 509.456,283.6563 Q509.456,284.0313 509.1903,284.2656 Q508.9247,284.5 508.3153,284.5 L506.0185,284.5 Q505.4091,284.5 505.1591,284.2656 Q504.8935,284.0313 504.8935,283.6406 Q504.8935,283.2656 505.1747,283.0313 Q505.4403,282.7813 506.0653,282.7969 L508.7372,276.1406 L507.6278,276.1406 Q507.0185,276.1406 506.7528,275.9063 Q506.4872,275.6719 506.4872,275.2813 Q506.4872,274.9063 506.7528,274.6719 Q507.0185,274.4375 507.6278,274.4375 L511.2997,274.4375 L514.6903,282.7969 Q515.2841,282.7969 515.4716,282.9375 Q515.8622,283.2031 515.8622,283.6563 Q515.8622,284.0313 515.5966,284.2656 Q515.3466,284.5 514.7372,284.5 L512.4403,284.5 Q511.831,284.5 511.5653,284.2656 Q511.2997,284.0313 511.2997,283.6406 Q511.2997,283.2656 511.5653,283.0313 Q511.831,282.7969 512.4403,282.7969 L512.8622,282.7969 L512.456,281.7656 Z M511.7372,280.0625 L510.3778,276.6875 L509.0028,280.0625 L511.7372,280.0625 Z " fill="#000000"/><text fill="#000000" font-family="sans-serif" font-size="14" font-style="italic" lengthAdjust="spacing" textLength="61.4688" x="525.7726" y="285.7969">CmdBody</text><line style="stroke:#27AE60;stroke-width:2.0;" x1="489.5" x2="596.0098" y1="296" y2="296"/><text fill="#000000" font-family="sans-serif" font-size="14" font-weight="bold" lengthAdjust="spacing" textLength="48.2686" x="494.5" y="315.1074">service</text><text fill="#000000" font-family="sans-serif" font-size="14" lengthAdjust="spacing" textLength="44.3516" x="546.6582" y="315.1074">: String</text><line style="stroke:#27AE60;stroke-width:2.0;" x1="489.5" x2="596.0098" y1="322.6211" y2="322.6211"/></g><!--class IsContactlessCmdBody--><g id="elem_IsContactlessCmdBody"><rect codeLine="189" fill="#E9F7EF" height="66.6211" id="IsContactlessCmdBody" rx="2.5" ry="2.5" style="stroke:#27AE60;stroke-width:2.0;" width="260.418" x="7" y="401"/><ellipse cx="60.2075" cy="417" fill="#ADD1B2" rx="11" ry="11" style="stroke:#181818;stroke-width:1.0;"/><path d="M62.9731,412.875 Q63.1294,412.6563 63.3169,412.5469 Q63.5044,412.4375 63.7231,412.4375 Q64.0981,412.4375 64.3325,412.7031 Q64.5669,412.9531 64.5669,413.5625 L64.5669,415.0156 Q64.5669,415.625 64.3325,415.8906 Q64.0981,416.1563 63.7231,416.1563 Q63.3794,416.1563 63.1763,415.9531 Q62.9731,415.7656 62.8638,415.25 Q62.8169,414.8906 62.6294,414.7031 Q62.3013,414.3281 61.6919,414.1094 Q61.0825,413.8906 60.4575,413.8906 Q59.6919,413.8906 59.0513,414.2188 Q58.4263,414.5469 57.9263,415.2969 Q57.4419,416.0469 57.4419,417.0781 L57.4419,418.1719 Q57.4419,419.4063 58.3325,420.2344 Q59.2231,421.0469 60.8169,421.0469 Q61.7544,421.0469 62.4106,420.7969 Q62.8013,420.6406 63.2231,420.2031 Q63.4888,419.9375 63.6294,419.8594 Q63.7856,419.7813 63.9888,419.7813 Q64.3169,419.7813 64.5669,420.0469 Q64.8325,420.2969 64.8325,420.6406 Q64.8325,420.9844 64.4888,421.3906 Q63.9888,421.9688 63.1919,422.2969 Q62.1138,422.75 60.8169,422.75 Q59.3013,422.75 58.0981,422.125 Q57.1138,421.625 56.4263,420.5625 Q55.7388,419.4844 55.7388,418.2031 L55.7388,417.0469 Q55.7388,415.7188 56.3481,414.5781 Q56.9731,413.4219 58.0669,412.8125 Q59.1606,412.1875 60.395,412.1875 Q61.1294,412.1875 61.77,412.3594 Q62.4263,412.5156 62.9731,412.875 Z " fill="#000000"/><text fill="#000000" font-family="sans-serif" font-size="14" lengthAdjust="spacing" textLength="145.5029" x="80.7075" y="422.7969">IsContactlessCmdBody</text><line style="stroke:#27AE60;stroke-width:2.0;" x1="8" x2="266.418" y1="433" y2="433"/><text fill="#000000" font-family="sans-serif" font-size="14" font-weight="bold" lengthAdjust="spacing" textLength="48.2686" x="13" y="452.1074">service</text><text fill="#000000" font-family="sans-serif" font-size="14" lengthAdjust="spacing" textLength="65.2764" x="65.1582" y="452.1074">: String = "</text><text fill="#000000" font-family="sans-serif" font-size="14" font-weight="bold" lengthAdjust="spacing" textLength="126.0137" x="130.4346" y="452.1074">IS_CONTACTLESS</text><text fill="#000000" font-family="sans-serif" font-size="14" lengthAdjust="spacing" textLength="4.9697" x="256.4482" y="452.1074">"</text><line style="stroke:#27AE60;stroke-width:2.0;" x1="8" x2="266.418" y1="459.6211" y2="459.6211"/></g><!--class IsCardPresentCmdBody--><g id="elem_IsCardPresentCmdBody"><rect codeLine="186" fill="#E9F7EF" height="66.6211" id="IsCardPresentCmdBody" rx="2.5" ry="2.5" style="stroke:#27AE60;stroke-width:2.0;" width="269.7695" x="302" y="401"/><ellipse cx="357.1592" cy="417" fill="#ADD1B2" rx="11" ry="11" style="stroke:#181818;stroke-width:1.0;"/><path d="M359.9248,412.875 Q360.0811,412.6563 360.2686,412.5469 Q360.4561,412.4375 360.6748,412.4375 Q361.0498,412.4375 361.2842,412.7031 Q361.5186,412.9531 361.5186,413.5625 L361.5186,415.0156 Q361.5186,415.625 361.2842,415.8906 Q361.0498,416.1563 360.6748,416.1563 Q360.3311,416.1563 360.1279,415.9531 Q359.9248,415.7656 359.8154,415.25 Q359.7686,414.8906 359.5811,414.7031 Q359.2529,414.3281 358.6436,414.1094 Q358.0342,413.8906 357.4092,413.8906 Q356.6436,413.8906 356.0029,414.2188 Q355.3779,414.5469 354.8779,415.2969 Q354.3936,416.0469 354.3936,417.0781 L354.3936,418.1719 Q354.3936,419.4063 355.2842,420.2344 Q356.1748,421.0469 357.7686,421.0469 Q358.7061,421.0469 359.3623,420.7969 Q359.7529,420.6406 360.1748,420.2031 Q360.4404,419.9375 360.5811,419.8594 Q360.7373,419.7813 360.9404,419.7813 Q361.2686,419.7813 361.5186,420.0469 Q361.7842,420.2969 361.7842,420.6406 Q361.7842,420.9844 361.4404,421.3906 Q360.9404,421.9688 360.1436,422.2969 Q359.0654,422.75 357.7686,422.75 Q356.2529,422.75 355.0498,422.125 Q354.0654,421.625 353.3779,420.5625 Q352.6904,419.4844 352.6904,418.2031 L352.6904,417.0469 Q352.6904,415.7188 353.2998,414.5781 Q353.9248,413.4219 355.0186,412.8125 Q356.1123,412.1875 357.3467,412.1875 Q358.0811,412.1875 358.7217,412.3594 Q359.3779,412.5156 359.9248,412.875 Z " fill="#000000"/><text fill="#000000" font-family="sans-serif" font-size="14" lengthAdjust="spacing" textLength="150.9512" x="377.6592" y="422.7969">IsCardPresentCmdBody</text><line style="stroke:#27AE60;stroke-width:2.0;" x1="303" x2="570.7695" y1="433" y2="433"/><text fill="#000000" font-family="sans-serif" font-size="14" font-weight="bold" lengthAdjust="spacing" textLength="48.2686" x="308" y="452.1074">service</text><text fill="#000000" font-family="sans-serif" font-size="14" lengthAdjust="spacing" textLength="65.2764" x="360.1582" y="452.1074">: String = "</text><text fill="#000000" font-family="sans-serif" font-size="14" font-weight="bold" lengthAdjust="spacing" textLength="135.3652" x="425.4346" y="452.1074">IS_CARD_PRESENT</text><text fill="#000000" font-family="sans-serif" font-size="14" lengthAdjust="spacing" textLength="4.9697" x="560.7998" y="452.1074">"</text><line style="stroke:#27AE60;stroke-width:2.0;" x1="303" x2="570.7695" y1="459.6211" y2="459.6211"/></g><!--class TransmitCardSelectionRequestsCmdBody--><g id="elem_TransmitCardSelectionRequestsCmdBody"><rect codeLine="174" fill="#E9F7EF" height="85.2422" id="TransmitCardSelectionRequestsCmdBody" rx="2.5" ry="2.5" style="stroke:#27AE60;stroke-width:2.0;" width="427.6592" x="607" y="392"/><ellipse cx="685.0801" cy="408" fill="#ADD1B2" rx="11" ry="11" style="stroke:#181818;stroke-width:1.0;"/><path d="M687.8457,403.875 Q688.002,403.6563 688.1895,403.5469 Q688.377,403.4375 688.5957,403.4375 Q688.9707,403.4375 689.2051,403.7031 Q689.4395,403.9531 689.4395,404.5625 L689.4395,406.0156 Q689.4395,406.625 689.2051,406.8906 Q688.9707,407.1563 688.5957,407.1563 Q688.252,407.1563 688.0488,406.9531 Q687.8457,406.7656 687.7363,406.25 Q687.6895,405.8906 687.502,405.7031 Q687.1738,405.3281 686.5645,405.1094 Q685.9551,404.8906 685.3301,404.8906 Q684.5645,404.8906 683.9238,405.2188 Q683.2988,405.5469 682.7988,406.2969 Q682.3145,407.0469 682.3145,408.0781 L682.3145,409.1719 Q682.3145,410.4063 683.2051,411.2344 Q684.0957,412.0469 685.6895,412.0469 Q686.627,412.0469 687.2832,411.7969 Q687.6738,411.6406 688.0957,411.2031 Q688.3613,410.9375 688.502,410.8594 Q688.6582,410.7813 688.8613,410.7813 Q689.1895,410.7813 689.4395,411.0469 Q689.7051,411.2969 689.7051,411.6406 Q689.7051,411.9844 689.3613,412.3906 Q688.8613,412.9688 688.0645,413.2969 Q686.9863,413.75 685.6895,413.75 Q684.1738,413.75 682.9707,413.125 Q681.9863,412.625 681.2988,411.5625 Q680.6113,410.4844 680.6113,409.2031 L680.6113,408.0469 Q680.6113,406.7188 681.2207,405.5781 Q681.8457,404.4219 682.9395,403.8125 Q684.0332,403.1875 685.2676,403.1875 Q686.002,403.1875 686.6426,403.3594 Q687.2988,403.5156 687.8457,403.875 Z " fill="#000000"/><text fill="#000000" font-family="sans-serif" font-size="14" lengthAdjust="spacing" textLength="262.999" x="705.5801" y="413.7969">TransmitCardSelectionRequestsCmdBody</text><line style="stroke:#27AE60;stroke-width:2.0;" x1="608" x2="1033.6592" y1="424" y2="424"/><text fill="#000000" font-family="sans-serif" font-size="14" font-weight="bold" lengthAdjust="spacing" textLength="48.2686" x="613" y="443.1074">service</text><text fill="#000000" font-family="sans-serif" font-size="14" lengthAdjust="spacing" textLength="65.2764" x="665.1582" y="443.1074">: String = "</text><text fill="#000000" font-family="sans-serif" font-size="14" font-weight="bold" lengthAdjust="spacing" textLength="293.2549" x="730.4346" y="443.1074">TRANSMIT_CARD_SELECTION_REQUESTS</text><text fill="#000000" font-family="sans-serif" font-size="14" lengthAdjust="spacing" textLength="4.9697" x="1023.6895" y="443.1074">"</text><text fill="#000000" font-family="sans-serif" font-size="14" font-weight="bold" lengthAdjust="spacing" textLength="75.4893" x="613" y="461.7285">parameters</text><text fill="#000000" font-family="sans-serif" font-size="14" lengthAdjust="spacing" textLength="311.2266" x="692.3789" y="461.7285">: TransmitCardSelectionRequestsCmdParameters</text><line style="stroke:#27AE60;stroke-width:2.0;" x1="608" x2="1033.6592" y1="469.2422" y2="469.2422"/></g><!--class TransmitCardSelectionRequestsCmdParameters--><g id="elem_TransmitCardSelectionRequestsCmdParameters"><rect codeLine="175" fill="#E9F7EF" height="103.8633" id="TransmitCardSelectionRequestsCmdParameters" rx="2.5" ry="2.5" style="stroke:#27AE60;stroke-width:2.0;" width="351.2334" x="690.5" y="538"/><ellipse cx="712.6038" cy="554" fill="#ADD1B2" rx="11" ry="11" style="stroke:#181818;stroke-width:1.0;"/><path d="M715.3694,549.875 Q715.5256,549.6563 715.7131,549.5469 Q715.9006,549.4375 716.1194,549.4375 Q716.4944,549.4375 716.7288,549.7031 Q716.9631,549.9531 716.9631,550.5625 L716.9631,552.0156 Q716.9631,552.625 716.7288,552.8906 Q716.4944,553.1563 716.1194,553.1563 Q715.7756,553.1563 715.5725,552.9531 Q715.3694,552.7656 715.26,552.25 Q715.2131,551.8906 715.0256,551.7031 Q714.6975,551.3281 714.0881,551.1094 Q713.4788,550.8906 712.8538,550.8906 Q712.0881,550.8906 711.4475,551.2188 Q710.8225,551.5469 710.3225,552.2969 Q709.8381,553.0469 709.8381,554.0781 L709.8381,555.1719 Q709.8381,556.4063 710.7288,557.2344 Q711.6194,558.0469 713.2131,558.0469 Q714.1506,558.0469 714.8069,557.7969 Q715.1975,557.6406 715.6194,557.2031 Q715.885,556.9375 716.0256,556.8594 Q716.1819,556.7813 716.385,556.7813 Q716.7131,556.7813 716.9631,557.0469 Q717.2288,557.2969 717.2288,557.6406 Q717.2288,557.9844 716.885,558.3906 Q716.385,558.9688 715.5881,559.2969 Q714.51,559.75 713.2131,559.75 Q711.6975,559.75 710.4944,559.125 Q709.51,558.625 708.8225,557.5625 Q708.135,556.4844 708.135,555.2031 L708.135,554.0469 Q708.135,552.7188 708.7444,551.5781 Q709.3694,550.4219 710.4631,549.8125 Q711.5569,549.1875 712.7913,549.1875 Q713.5256,549.1875 714.1663,549.3594 Q714.8225,549.5156 715.3694,549.875 Z " fill="#000000"/><text fill="#000000" font-family="sans-serif" font-size="14" lengthAdjust="spacing" textLength="303.4473" x="728.1824" y="559.7969">TransmitCardSelectionRequestsCmdParameters</text><line style="stroke:#27AE60;stroke-width:2.0;" x1="691.5" x2="1040.7334" y1="570" y2="570"/><text fill="#000000" font-family="sans-serif" font-size="14" font-weight="bold" lengthAdjust="spacing" textLength="171.1582" x="696.5" y="589.1074">multiSelectionProcessing</text><text fill="#000000" font-family="sans-serif" font-size="14" lengthAdjust="spacing" textLength="164.1855" x="871.5479" y="589.1074">: MultiSelectionProcessing</text><text fill="#000000" font-family="sans-serif" font-size="14" font-weight="bold" lengthAdjust="spacing" textLength="102.6689" x="696.5" y="607.7285">channelControl</text><text fill="#000000" font-family="sans-serif" font-size="14" lengthAdjust="spacing" textLength="105.0615" x="803.0586" y="607.7285">: ChannelControl</text><text fill="#000000" font-family="sans-serif" font-size="14" font-weight="bold" lengthAdjust="spacing" textLength="154.834" x="696.5" y="626.3496">cardSelectionRequests</text><text fill="#000000" font-family="sans-serif" font-size="14" lengthAdjust="spacing" textLength="155.6406" x="855.2236" y="626.3496">: CardSelectionRequest[]</text><line style="stroke:#27AE60;stroke-width:2.0;" x1="691.5" x2="1040.7334" y1="633.8633" y2="633.8633"/></g><!--class MultiSelectionProcessing--><g id="elem_MultiSelectionProcessing"><rect codeLine="89" fill="#FEFECE" height="85.2422" id="MultiSelectionProcessing" rx="2.5" ry="2.5" style="stroke:#D4AC0D;stroke-width:2.0;" width="188.4063" x="564" y="703"/><ellipse cx="579" cy="719" fill="#EB937F" rx="11" ry="11" style="stroke:#181818;stroke-width:1.0;"/><path d="M577.8594,719.7969 L577.8594,722.2969 L582.1875,722.2969 L582.1875,721.375 Q582.1875,720.7656 582.4219,720.5 Q582.6719,720.2344 583.0469,720.2344 Q583.4219,720.2344 583.6563,720.5 Q583.8906,720.7656 583.8906,721.375 L583.8906,724 L575.8906,724 Q575.2656,724 575,723.7656 Q574.75,723.5313 574.75,723.1406 Q574.75,722.7656 575.0156,722.5313 Q575.2813,722.2969 575.8906,722.2969 L576.1563,722.2969 L576.1563,715.6406 L575.8906,715.6406 Q575.2656,715.6406 575,715.4063 Q574.75,715.1719 574.75,714.7813 Q574.75,714.4063 575,714.1719 Q575.2656,713.9375 575.8906,713.9375 L583.5156,713.9375 L583.5156,716.5313 Q583.5156,717.1406 583.2813,717.4063 Q583.0625,717.6563 582.6719,717.6563 Q582.2969,717.6563 582.0625,717.4063 Q581.8281,717.1406 581.8281,716.5313 L581.8281,715.6406 L577.8594,715.6406 L577.8594,718.0938 L579.3438,718.0938 Q579.3438,717.4375 579.4688,717.25 Q579.7344,716.8438 580.2031,716.8438 Q580.5781,716.8438 580.8125,717.1094 Q581.0469,717.3594 581.0469,717.9688 L581.0469,719.9375 Q581.0469,720.4844 580.9219,720.6719 Q580.6563,721.0625 580.2031,721.0625 Q579.7344,721.0625 579.4688,720.6563 Q579.3438,720.4688 579.3438,719.7969 L577.8594,719.7969 Z " fill="#000000"/><text fill="#000000" font-family="sans-serif" font-size="14" lengthAdjust="spacing" textLength="156.4063" x="593" y="724.7969">MultiSelectionProcessing</text><line style="stroke:#D4AC0D;stroke-width:2.0;" x1="565" x2="751.4063" y1="735" y2="735"/><text fill="#000000" font-family="sans-serif" font-size="14" lengthAdjust="spacing" textLength="98" x="570" y="754.1074">FIRST_MATCH</text><text fill="#000000" font-family="sans-serif" font-size="14" lengthAdjust="spacing" textLength="101.1582" x="570" y="772.7285">PROCESS_ALL</text><line style="stroke:#D4AC0D;stroke-width:2.0;" x1="565" x2="751.4063" y1="780.2422" y2="780.2422"/></g><!--class CardSelectionRequest--><g id="elem_CardSelectionRequest"><rect codeLine="176" fill="#E9F7EF" height="85.2422" id="CardSelectionRequest" rx="2.5" ry="2.5" style="stroke:#27AE60;stroke-width:2.0;" width="198.751" x="787.5" y="703"/><ellipse cx="814.501" cy="719" fill="#ADD1B2" rx="11" ry="11" style="stroke:#181818;stroke-width:1.0;"/><path d="M817.2667,714.875 Q817.4229,714.6563 817.6104,714.5469 Q817.7979,714.4375 818.0167,714.4375 Q818.3917,714.4375 818.626,714.7031 Q818.8604,714.9531 818.8604,715.5625 L818.8604,717.0156 Q818.8604,717.625 818.626,717.8906 Q818.3917,718.1563 818.0167,718.1563 Q817.6729,718.1563 817.4698,717.9531 Q817.2667,717.7656 817.1573,717.25 Q817.1104,716.8906 816.9229,716.7031 Q816.5948,716.3281 815.9854,716.1094 Q815.376,715.8906 814.751,715.8906 Q813.9854,715.8906 813.3448,716.2188 Q812.7198,716.5469 812.2198,717.2969 Q811.7354,718.0469 811.7354,719.0781 L811.7354,720.1719 Q811.7354,721.4063 812.626,722.2344 Q813.5167,723.0469 815.1104,723.0469 Q816.0479,723.0469 816.7042,722.7969 Q817.0948,722.6406 817.5167,722.2031 Q817.7823,721.9375 817.9229,721.8594 Q818.0792,721.7813 818.2823,721.7813 Q818.6104,721.7813 818.8604,722.0469 Q819.126,722.2969 819.126,722.6406 Q819.126,722.9844 818.7823,723.3906 Q818.2823,723.9688 817.4854,724.2969 Q816.4073,724.75 815.1104,724.75 Q813.5948,724.75 812.3917,724.125 Q811.4073,723.625 810.7198,722.5625 Q810.0323,721.4844 810.0323,720.2031 L810.0323,719.0469 Q810.0323,717.7188 810.6417,716.5781 Q811.2667,715.4219 812.3604,714.8125 Q813.4542,714.1875 814.6885,714.1875 Q815.4229,714.1875 816.0635,714.3594 Q816.7198,714.5156 817.2667,714.875 Z " fill="#000000"/><text fill="#000000" font-family="sans-serif" font-size="14" lengthAdjust="spacing" textLength="140.082" x="831.1679" y="724.7969">CardSelectionRequest</text><line style="stroke:#27AE60;stroke-width:2.0;" x1="788.5" x2="985.251" y1="735" y2="735"/><text fill="#000000" font-family="sans-serif" font-size="14" font-weight="bold" lengthAdjust="spacing" textLength="84.8203" x="793.5" y="754.1074">cardSelector</text><text fill="#000000" font-family="sans-serif" font-size="14" lengthAdjust="spacing" textLength="89.4824" x="882.21" y="754.1074">: CardSelector</text><text fill="#000000" font-family="sans-serif" font-size="14" font-weight="bold" lengthAdjust="spacing" textLength="84.8066" x="793.5" y="772.7285">cardRequest</text><text fill="#000000" font-family="sans-serif" font-size="14" lengthAdjust="spacing" textLength="98.0547" x="882.1963" y="772.7285">: CardRequest?</text><line style="stroke:#27AE60;stroke-width:2.0;" x1="788.5" x2="985.251" y1="780.2422" y2="780.2422"/></g><!--class CardSelector--><g id="elem_CardSelector"><rect codeLine="177" fill="#E9F7EF" height="159.7266" id="CardSelector" rx="2.5" ry="2.5" style="stroke:#27AE60;stroke-width:2.0;" width="308.3789" x="717" y="849"/><ellipse cx="826.0879" cy="865" fill="#ADD1B2" rx="11" ry="11" style="stroke:#181818;stroke-width:1.0;"/><path d="M828.8535,860.875 Q829.0098,860.6563 829.1973,860.5469 Q829.3848,860.4375 829.6035,860.4375 Q829.9785,860.4375 830.2129,860.7031 Q830.4473,860.9531 830.4473,861.5625 L830.4473,863.0156 Q830.4473,863.625 830.2129,863.8906 Q829.9785,864.1563 829.6035,864.1563 Q829.2598,864.1563 829.0566,863.9531 Q828.8535,863.7656 828.7441,863.25 Q828.6973,862.8906 828.5098,862.7031 Q828.1816,862.3281 827.5723,862.1094 Q826.9629,861.8906 826.3379,861.8906 Q825.5723,861.8906 824.9316,862.2188 Q824.3066,862.5469 823.8066,863.2969 Q823.3223,864.0469 823.3223,865.0781 L823.3223,866.1719 Q823.3223,867.4063 824.2129,868.2344 Q825.1035,869.0469 826.6973,869.0469 Q827.6348,869.0469 828.291,868.7969 Q828.6816,868.6406 829.1035,868.2031 Q829.3691,867.9375 829.5098,867.8594 Q829.666,867.7813 829.8691,867.7813 Q830.1973,867.7813 830.4473,868.0469 Q830.7129,868.2969 830.7129,868.6406 Q830.7129,868.9844 830.3691,869.3906 Q829.8691,869.9688 829.0723,870.2969 Q827.9941,870.75 826.6973,870.75 Q825.1816,870.75 823.9785,870.125 Q822.9941,869.625 822.3066,868.5625 Q821.6191,867.4844 821.6191,866.2031 L821.6191,865.0469 Q821.6191,863.7188 822.2285,862.5781 Q822.8535,861.4219 823.9473,860.8125 Q825.041,860.1875 826.2754,860.1875 Q827.0098,860.1875 827.6504,860.3594 Q828.3066,860.5156 828.8535,860.875 Z " fill="#000000"/><text fill="#000000" font-family="sans-serif" font-size="14" lengthAdjust="spacing" textLength="81.7031" x="846.5879" y="870.7969">CardSelector</text><line style="stroke:#27AE60;stroke-width:2.0;" x1="718" x2="1024.3789" y1="881" y2="881"/><text fill="#000000" font-family="sans-serif" font-size="14" font-weight="bold" lengthAdjust="spacing" textLength="86.3516" x="723" y="900.1074">cardProtocol</text><text fill="#000000" font-family="sans-serif" font-size="14" lengthAdjust="spacing" textLength="52.1377" x="813.2412" y="900.1074">: String?</text><text fill="#000000" font-family="sans-serif" font-size="14" font-weight="bold" lengthAdjust="spacing" textLength="133.0342" x="723" y="918.7285">powerOnDataRegex</text><text fill="#000000" font-family="sans-serif" font-size="14" lengthAdjust="spacing" textLength="52.1377" x="859.9238" y="918.7285">: String?</text><text fill="#000000" font-family="sans-serif" font-size="14" font-weight="bold" lengthAdjust="spacing" textLength="20.2275" x="723" y="937.3496">aid</text><text fill="#000000" font-family="sans-serif" font-size="14" lengthAdjust="spacing" textLength="52.1377" x="747.1172" y="937.3496">: String?</text><text fill="#000000" font-family="sans-serif" font-size="14" font-weight="bold" lengthAdjust="spacing" textLength="98.0479" x="723" y="955.9707">fileOccurrence</text><text fill="#000000" font-family="sans-serif" font-size="14" lengthAdjust="spacing" textLength="102.6963" x="824.9375" y="955.9707">: FileOccurrence</text><text fill="#000000" font-family="sans-serif" font-size="14" font-weight="bold" lengthAdjust="spacing" textLength="146.9863" x="723" y="974.5918">fileControlInformation</text><text fill="#000000" font-family="sans-serif" font-size="14" lengthAdjust="spacing" textLength="145.5029" x="873.876" y="974.5918">: FileControlInformation</text><text fill="#000000" font-family="sans-serif" font-size="14" font-weight="bold" lengthAdjust="spacing" textLength="220.9512" x="723" y="993.2129">successfulSelectionStatusWords</text><text fill="#000000" font-family="sans-serif" font-size="14" lengthAdjust="spacing" textLength="52.1309" x="947.8408" y="993.2129">: String[]</text><line style="stroke:#27AE60;stroke-width:2.0;" x1="718" x2="1024.3789" y1="1000.7266" y2="1000.7266"/></g><!--class FileOccurrence--><g id="elem_FileOccurrence"><rect codeLine="105" fill="#FEFECE" height="122.4844" id="FileOccurrence" rx="2.5" ry="2.5" style="stroke:#D4AC0D;stroke-width:2.0;" width="126.917" x="679.5" y="1070"/><ellipse cx="694.5" cy="1086" fill="#EB937F" rx="11" ry="11" style="stroke:#181818;stroke-width:1.0;"/><path d="M693.3594,1086.7969 L693.3594,1089.2969 L697.6875,1089.2969 L697.6875,1088.375 Q697.6875,1087.7656 697.9219,1087.5 Q698.1719,1087.2344 698.5469,1087.2344 Q698.9219,1087.2344 699.1563,1087.5 Q699.3906,1087.7656 699.3906,1088.375 L699.3906,1091 L691.3906,1091 Q690.7656,1091 690.5,1090.7656 Q690.25,1090.5313 690.25,1090.1406 Q690.25,1089.7656 690.5156,1089.5313 Q690.7813,1089.2969 691.3906,1089.2969 L691.6563,1089.2969 L691.6563,1082.6406 L691.3906,1082.6406 Q690.7656,1082.6406 690.5,1082.4063 Q690.25,1082.1719 690.25,1081.7813 Q690.25,1081.4063 690.5,1081.1719 Q690.7656,1080.9375 691.3906,1080.9375 L699.0156,1080.9375 L699.0156,1083.5313 Q699.0156,1084.1406 698.7813,1084.4063 Q698.5625,1084.6563 698.1719,1084.6563 Q697.7969,1084.6563 697.5625,1084.4063 Q697.3281,1084.1406 697.3281,1083.5313 L697.3281,1082.6406 L693.3594,1082.6406 L693.3594,1085.0938 L694.8438,1085.0938 Q694.8438,1084.4375 694.9688,1084.25 Q695.2344,1083.8438 695.7031,1083.8438 Q696.0781,1083.8438 696.3125,1084.1094 Q696.5469,1084.3594 696.5469,1084.9688 L696.5469,1086.9375 Q696.5469,1087.4844 696.4219,1087.6719 Q696.1563,1088.0625 695.7031,1088.0625 Q695.2344,1088.0625 694.9688,1087.6563 Q694.8438,1087.4688 694.8438,1086.7969 L693.3594,1086.7969 Z " fill="#000000"/><text fill="#000000" font-family="sans-serif" font-size="14" lengthAdjust="spacing" textLength="94.917" x="708.5" y="1091.7969">FileOccurrence</text><line style="stroke:#D4AC0D;stroke-width:2.0;" x1="680.5" x2="805.417" y1="1102" y2="1102"/><text fill="#000000" font-family="sans-serif" font-size="14" lengthAdjust="spacing" textLength="40.4414" x="685.5" y="1121.1074">FIRST</text><text fill="#000000" font-family="sans-serif" font-size="14" lengthAdjust="spacing" textLength="35.0137" x="685.5" y="1139.7285">LAST</text><text fill="#000000" font-family="sans-serif" font-size="14" lengthAdjust="spacing" textLength="37.3379" x="685.5" y="1158.3496">NEXT</text><text fill="#000000" font-family="sans-serif" font-size="14" lengthAdjust="spacing" textLength="72.3516" x="685.5" y="1176.9707">PREVIOUS</text><line style="stroke:#D4AC0D;stroke-width:2.0;" x1="680.5" x2="805.417" y1="1184.4844" y2="1184.4844"/></g><!--class FileControlInformation--><g id="elem_FileControlInformation"><rect codeLine="111" fill="#FEFECE" height="122.4844" id="FileControlInformation" rx="2.5" ry="2.5" style="stroke:#D4AC0D;stroke-width:2.0;" width="169.7236" x="842" y="1070"/><ellipse cx="857" cy="1086" fill="#EB937F" rx="11" ry="11" style="stroke:#181818;stroke-width:1.0;"/><path d="M855.8594,1086.7969 L855.8594,1089.2969 L860.1875,1089.2969 L860.1875,1088.375 Q860.1875,1087.7656 860.4219,1087.5 Q860.6719,1087.2344 861.0469,1087.2344 Q861.4219,1087.2344 861.6563,1087.5 Q861.8906,1087.7656 861.8906,1088.375 L861.8906,1091 L853.8906,1091 Q853.2656,1091 853,1090.7656 Q852.75,1090.5313 852.75,1090.1406 Q852.75,1089.7656 853.0156,1089.5313 Q853.2813,1089.2969 853.8906,1089.2969 L854.1563,1089.2969 L854.1563,1082.6406 L853.8906,1082.6406 Q853.2656,1082.6406 853,1082.4063 Q852.75,1082.1719 852.75,1081.7813 Q852.75,1081.4063 853,1081.1719 Q853.2656,1080.9375 853.8906,1080.9375 L861.5156,1080.9375 L861.5156,1083.5313 Q861.5156,1084.1406 861.2813,1084.4063 Q861.0625,1084.6563 860.6719,1084.6563 Q860.2969,1084.6563 860.0625,1084.4063 Q859.8281,1084.1406 859.8281,1083.5313 L859.8281,1082.6406 L855.8594,1082.6406 L855.8594,1085.0938 L857.3438,1085.0938 Q857.3438,1084.4375 857.4688,1084.25 Q857.7344,1083.8438 858.2031,1083.8438 Q858.5781,1083.8438 858.8125,1084.1094 Q859.0469,1084.3594 859.0469,1084.9688 L859.0469,1086.9375 Q859.0469,1087.4844 858.9219,1087.6719 Q858.6563,1088.0625 858.2031,1088.0625 Q857.7344,1088.0625 857.4688,1087.6563 Q857.3438,1087.4688 857.3438,1086.7969 L855.8594,1086.7969 Z " fill="#000000"/><text fill="#000000" font-family="sans-serif" font-size="14" lengthAdjust="spacing" textLength="137.7236" x="871" y="1091.7969">FileControlInformation</text><line style="stroke:#D4AC0D;stroke-width:2.0;" x1="843" x2="1010.7236" y1="1102" y2="1102"/><text fill="#000000" font-family="sans-serif" font-size="14" lengthAdjust="spacing" textLength="22.5518" x="848" y="1121.1074">FCI</text><text fill="#000000" font-family="sans-serif" font-size="14" lengthAdjust="spacing" textLength="28" x="848" y="1139.7285">FCP</text><text fill="#000000" font-family="sans-serif" font-size="14" lengthAdjust="spacing" textLength="30.3242" x="848" y="1158.3496">FMD</text><text fill="#000000" font-family="sans-serif" font-size="14" lengthAdjust="spacing" textLength="106.5859" x="848" y="1176.9707">NO_RESPONSE</text><line style="stroke:#D4AC0D;stroke-width:2.0;" x1="843" x2="1010.7236" y1="1184.4844" y2="1184.4844"/></g><!--class CardRequest--><g id="elem_CardRequest"><rect codeLine="178" fill="#E9F7EF" height="103.8633" id="CardRequest" rx="2.5" ry="2.5" style="stroke:#27AE60;stroke-width:2.0;" width="310.7783" x="1060.5" y="877"/><ellipse cx="1170.3945" cy="893" fill="#ADD1B2" rx="11" ry="11" style="stroke:#181818;stroke-width:1.0;"/><path d="M1173.1602,888.875 Q1173.3164,888.6563 1173.5039,888.5469 Q1173.6914,888.4375 1173.9102,888.4375 Q1174.2852,888.4375 1174.5195,888.7031 Q1174.7539,888.9531 1174.7539,889.5625 L1174.7539,891.0156 Q1174.7539,891.625 1174.5195,891.8906 Q1174.2852,892.1563 1173.9102,892.1563 Q1173.5664,892.1563 1173.3633,891.9531 Q1173.1602,891.7656 1173.0508,891.25 Q1173.0039,890.8906 1172.8164,890.7031 Q1172.4883,890.3281 1171.8789,890.1094 Q1171.2695,889.8906 1170.6445,889.8906 Q1169.8789,889.8906 1169.2383,890.2188 Q1168.6133,890.5469 1168.1133,891.2969 Q1167.6289,892.0469 1167.6289,893.0781 L1167.6289,894.1719 Q1167.6289,895.4063 1168.5195,896.2344 Q1169.4102,897.0469 1171.0039,897.0469 Q1171.9414,897.0469 1172.5977,896.7969 Q1172.9883,896.6406 1173.4102,896.2031 Q1173.6758,895.9375 1173.8164,895.8594 Q1173.9727,895.7813 1174.1758,895.7813 Q1174.5039,895.7813 1174.7539,896.0469 Q1175.0195,896.2969 1175.0195,896.6406 Q1175.0195,896.9844 1174.6758,897.3906 Q1174.1758,897.9688 1173.3789,898.2969 Q1172.3008,898.75 1171.0039,898.75 Q1169.4883,898.75 1168.2852,898.125 Q1167.3008,897.625 1166.6133,896.5625 Q1165.9258,895.4844 1165.9258,894.2031 L1165.9258,893.0469 Q1165.9258,891.7188 1166.5352,890.5781 Q1167.1602,889.4219 1168.2539,888.8125 Q1169.3477,888.1875 1170.582,888.1875 Q1171.3164,888.1875 1171.957,888.3594 Q1172.6133,888.5156 1173.1602,888.875 Z " fill="#000000"/><text fill="#000000" font-family="sans-serif" font-size="14" lengthAdjust="spacing" textLength="82.4893" x="1190.8945" y="898.7969">CardRequest</text><line style="stroke:#27AE60;stroke-width:2.0;" x1="1061.5" x2="1370.2783" y1="909" y2="909"/><text fill="#000000" font-family="sans-serif" font-size="14" font-weight="bold" lengthAdjust="spacing" textLength="96.4619" x="1066.5" y="928.1074">apduRequests</text><text fill="#000000" font-family="sans-serif" font-size="14" lengthAdjust="spacing" textLength="100.3994" x="1166.8516" y="928.1074">: ApduRequest[]</text><text fill="#000000" font-family="sans-serif" font-size="14" font-weight="bold" lengthAdjust="spacing" textLength="218.5791" x="1066.5" y="946.7285">stopOnUnsuccessfulStatusWord</text><text fill="#000000" font-family="sans-serif" font-size="14" lengthAdjust="spacing" textLength="66.9443" x="1288.9688" y="946.7285">: Boolean?</text><text fill="#000000" font-family="sans-serif" font-size="14" font-weight="bold" lengthAdjust="spacing" textLength="227.9443" x="1066.5" y="965.3496">isStatusCodesVerificationEnabled</text><text fill="#000000" font-family="sans-serif" font-size="14" lengthAdjust="spacing" textLength="66.9443" x="1298.334" y="965.3496">: Boolean?</text><line style="stroke:#27AE60;stroke-width:2.0;" x1="1061.5" x2="1370.2783" y1="972.8633" y2="972.8633"/></g><!--class ApduRequest--><g id="elem_ApduRequest"><rect codeLine="179" fill="#E9F7EF" height="103.8633" id="ApduRequest" rx="2.5" ry="2.5" style="stroke:#27AE60;stroke-width:2.0;" width="226.7305" x="1102.5" y="1079"/><ellipse cx="1169.1948" cy="1095" fill="#ADD1B2" rx="11" ry="11" style="stroke:#181818;stroke-width:1.0;"/><path d="M1171.9604,1090.875 Q1172.1167,1090.6563 1172.3042,1090.5469 Q1172.4917,1090.4375 1172.7104,1090.4375 Q1173.0854,1090.4375 1173.3198,1090.7031 Q1173.5542,1090.9531 1173.5542,1091.5625 L1173.5542,1093.0156 Q1173.5542,1093.625 1173.3198,1093.8906 Q1173.0854,1094.1563 1172.7104,1094.1563 Q1172.3667,1094.1563 1172.1636,1093.9531 Q1171.9604,1093.7656 1171.8511,1093.25 Q1171.8042,1092.8906 1171.6167,1092.7031 Q1171.2886,1092.3281 1170.6792,1092.1094 Q1170.0698,1091.8906 1169.4448,1091.8906 Q1168.6792,1091.8906 1168.0386,1092.2188 Q1167.4136,1092.5469 1166.9136,1093.2969 Q1166.4292,1094.0469 1166.4292,1095.0781 L1166.4292,1096.1719 Q1166.4292,1097.4063 1167.3198,1098.2344 Q1168.2104,1099.0469 1169.8042,1099.0469 Q1170.7417,1099.0469 1171.3979,1098.7969 Q1171.7886,1098.6406 1172.2104,1098.2031 Q1172.4761,1097.9375 1172.6167,1097.8594 Q1172.7729,1097.7813 1172.9761,1097.7813 Q1173.3042,1097.7813 1173.5542,1098.0469 Q1173.8198,1098.2969 1173.8198,1098.6406 Q1173.8198,1098.9844 1173.4761,1099.3906 Q1172.9761,1099.9688 1172.1792,1100.2969 Q1171.1011,1100.75 1169.8042,1100.75 Q1168.2886,1100.75 1167.0854,1100.125 Q1166.1011,1099.625 1165.4136,1098.5625 Q1164.7261,1097.4844 1164.7261,1096.2031 L1164.7261,1095.0469 Q1164.7261,1093.7188 1165.3354,1092.5781 Q1165.9604,1091.4219 1167.0542,1090.8125 Q1168.1479,1090.1875 1169.3823,1090.1875 Q1170.1167,1090.1875 1170.7573,1090.3594 Q1171.4136,1090.5156 1171.9604,1090.875 Z " fill="#000000"/><text fill="#000000" font-family="sans-serif" font-size="14" lengthAdjust="spacing" textLength="84.8408" x="1189.6948" y="1100.7969">ApduRequest</text><line style="stroke:#27AE60;stroke-width:2.0;" x1="1103.5" x2="1328.2305" y1="1111" y2="1111"/><text fill="#000000" font-family="sans-serif" font-size="14" font-weight="bold" lengthAdjust="spacing" textLength="33.4414" x="1108.5" y="1130.1074">apdu</text><text fill="#000000" font-family="sans-serif" font-size="14" lengthAdjust="spacing" textLength="44.3516" x="1145.8311" y="1130.1074">: String</text><text fill="#000000" font-family="sans-serif" font-size="14" font-weight="bold" lengthAdjust="spacing" textLength="158.71" x="1108.5" y="1148.7285">successfulStatusWords</text><text fill="#000000" font-family="sans-serif" font-size="14" lengthAdjust="spacing" textLength="52.1309" x="1271.0996" y="1148.7285">: String[]</text><text fill="#000000" font-family="sans-serif" font-size="14" font-weight="bold" lengthAdjust="spacing" textLength="25.6553" x="1108.5" y="1167.3496">info</text><text fill="#000000" font-family="sans-serif" font-size="14" lengthAdjust="spacing" textLength="52.1377" x="1138.0449" y="1167.3496">: String?</text><line style="stroke:#27AE60;stroke-width:2.0;" x1="1103.5" x2="1328.2305" y1="1174.8633" y2="1174.8633"/></g><!--class ChannelControl--><g id="elem_ChannelControl"><rect codeLine="127" fill="#FEFECE" height="85.2422" id="ChannelControl" rx="2.5" ry="2.5" style="stroke:#D4AC0D;stroke-width:2.0;" width="129.2822" x="1029.5" y="703"/><ellipse cx="1044.5" cy="719" fill="#EB937F" rx="11" ry="11" style="stroke:#181818;stroke-width:1.0;"/><path d="M1043.3594,719.7969 L1043.3594,722.2969 L1047.6875,722.2969 L1047.6875,721.375 Q1047.6875,720.7656 1047.9219,720.5 Q1048.1719,720.2344 1048.5469,720.2344 Q1048.9219,720.2344 1049.1563,720.5 Q1049.3906,720.7656 1049.3906,721.375 L1049.3906,724 L1041.3906,724 Q1040.7656,724 1040.5,723.7656 Q1040.25,723.5313 1040.25,723.1406 Q1040.25,722.7656 1040.5156,722.5313 Q1040.7813,722.2969 1041.3906,722.2969 L1041.6563,722.2969 L1041.6563,715.6406 L1041.3906,715.6406 Q1040.7656,715.6406 1040.5,715.4063 Q1040.25,715.1719 1040.25,714.7813 Q1040.25,714.4063 1040.5,714.1719 Q1040.7656,713.9375 1041.3906,713.9375 L1049.0156,713.9375 L1049.0156,716.5313 Q1049.0156,717.1406 1048.7813,717.4063 Q1048.5625,717.6563 1048.1719,717.6563 Q1047.7969,717.6563 1047.5625,717.4063 Q1047.3281,717.1406 1047.3281,716.5313 L1047.3281,715.6406 L1043.3594,715.6406 L1043.3594,718.0938 L1044.8438,718.0938 Q1044.8438,717.4375 1044.9688,717.25 Q1045.2344,716.8438 1045.7031,716.8438 Q1046.0781,716.8438 1046.3125,717.1094 Q1046.5469,717.3594 1046.5469,717.9688 L1046.5469,719.9375 Q1046.5469,720.4844 1046.4219,720.6719 Q1046.1563,721.0625 1045.7031,721.0625 Q1045.2344,721.0625 1044.9688,720.6563 Q1044.8438,720.4688 1044.8438,719.7969 L1043.3594,719.7969 Z " fill="#000000"/><text fill="#000000" font-family="sans-serif" font-size="14" lengthAdjust="spacing" textLength="97.2822" x="1058.5" y="724.7969">ChannelControl</text><line style="stroke:#D4AC0D;stroke-width:2.0;" x1="1030.5" x2="1157.7822" y1="735" y2="735"/><text fill="#000000" font-family="sans-serif" font-size="14" lengthAdjust="spacing" textLength="84.8135" x="1035.5" y="754.1074">KEEP_OPEN</text><text fill="#000000" font-family="sans-serif" font-size="14" lengthAdjust="spacing" textLength="101.1377" x="1035.5" y="772.7285">CLOSE_AFTER</text><line style="stroke:#D4AC0D;stroke-width:2.0;" x1="1030.5" x2="1157.7822" y1="780.2422" y2="780.2422"/></g><!--class TransmitCardRequestCmdBody--><g id="elem_TransmitCardRequestCmdBody"><rect codeLine="182" fill="#E9F7EF" height="85.2422" id="TransmitCardRequestCmdBody" rx="2.5" ry="2.5" style="stroke:#27AE60;stroke-width:2.0;" width="338.0127" x="1070" y="392"/><ellipse cx="1135.5532" cy="408" fill="#ADD1B2" rx="11" ry="11" style="stroke:#181818;stroke-width:1.0;"/><path d="M1138.3188,403.875 Q1138.4751,403.6563 1138.6626,403.5469 Q1138.8501,403.4375 1139.0688,403.4375 Q1139.4438,403.4375 1139.6782,403.7031 Q1139.9126,403.9531 1139.9126,404.5625 L1139.9126,406.0156 Q1139.9126,406.625 1139.6782,406.8906 Q1139.4438,407.1563 1139.0688,407.1563 Q1138.7251,407.1563 1138.522,406.9531 Q1138.3188,406.7656 1138.2095,406.25 Q1138.1626,405.8906 1137.9751,405.7031 Q1137.647,405.3281 1137.0376,405.1094 Q1136.4282,404.8906 1135.8032,404.8906 Q1135.0376,404.8906 1134.397,405.2188 Q1133.772,405.5469 1133.272,406.2969 Q1132.7876,407.0469 1132.7876,408.0781 L1132.7876,409.1719 Q1132.7876,410.4063 1133.6782,411.2344 Q1134.5688,412.0469 1136.1626,412.0469 Q1137.1001,412.0469 1137.7563,411.7969 Q1138.147,411.6406 1138.5688,411.2031 Q1138.8345,410.9375 1138.9751,410.8594 Q1139.1313,410.7813 1139.3345,410.7813 Q1139.6626,410.7813 1139.9126,411.0469 Q1140.1782,411.2969 1140.1782,411.6406 Q1140.1782,411.9844 1139.8345,412.3906 Q1139.3345,412.9688 1138.5376,413.2969 Q1137.4595,413.75 1136.1626,413.75 Q1134.647,413.75 1133.4438,413.125 Q1132.4595,412.625 1131.772,411.5625 Q1131.0845,410.4844 1131.0845,409.2031 L1131.0845,408.0469 Q1131.0845,406.7188 1131.6938,405.5781 Q1132.3188,404.4219 1133.4126,403.8125 Q1134.5063,403.1875 1135.7407,403.1875 Q1136.4751,403.1875 1137.1157,403.3594 Q1137.772,403.5156 1138.3188,403.875 Z " fill="#000000"/><text fill="#000000" font-family="sans-serif" font-size="14" lengthAdjust="spacing" textLength="198.4063" x="1156.0532" y="413.7969">TransmitCardRequestCmdBody</text><line style="stroke:#27AE60;stroke-width:2.0;" x1="1071" x2="1407.0127" y1="424" y2="424"/><text fill="#000000" font-family="sans-serif" font-size="14" font-weight="bold" lengthAdjust="spacing" textLength="48.2686" x="1076" y="443.1074">service</text><text fill="#000000" font-family="sans-serif" font-size="14" lengthAdjust="spacing" textLength="65.2764" x="1128.1582" y="443.1074">: String = "</text><text fill="#000000" font-family="sans-serif" font-size="14" font-weight="bold" lengthAdjust="spacing" textLength="196.0137" x="1193.4346" y="443.1074">TRANSMIT_CARD_REQUEST</text><text fill="#000000" font-family="sans-serif" font-size="14" lengthAdjust="spacing" textLength="4.9697" x="1389.4482" y="443.1074">"</text><text fill="#000000" font-family="sans-serif" font-size="14" font-weight="bold" lengthAdjust="spacing" textLength="75.4893" x="1076" y="461.7285">parameters</text><text fill="#000000" font-family="sans-serif" font-size="14" lengthAdjust="spacing" textLength="246.6338" x="1155.3789" y="461.7285">: TransmitCardRequestCmdParameters</text><line style="stroke:#27AE60;stroke-width:2.0;" x1="1071" x2="1407.0127" y1="469.2422" y2="469.2422"/></g><!--class TransmitCardRequestCmdParameters--><g id="elem_TransmitCardRequestCmdParameters"><rect codeLine="183" fill="#E9F7EF" height="85.2422" id="TransmitCardRequestCmdParameters" rx="2.5" ry="2.5" style="stroke:#27AE60;stroke-width:2.0;" width="270.8545" x="1080.5" y="547.5"/><ellipse cx="1095.5" cy="563.5" fill="#ADD1B2" rx="11" ry="11" style="stroke:#181818;stroke-width:1.0;"/><path d="M1098.2656,559.375 Q1098.4219,559.1563 1098.6094,559.0469 Q1098.7969,558.9375 1099.0156,558.9375 Q1099.3906,558.9375 1099.625,559.2031 Q1099.8594,559.4531 1099.8594,560.0625 L1099.8594,561.5156 Q1099.8594,562.125 1099.625,562.3906 Q1099.3906,562.6563 1099.0156,562.6563 Q1098.6719,562.6563 1098.4688,562.4531 Q1098.2656,562.2656 1098.1563,561.75 Q1098.1094,561.3906 1097.9219,561.2031 Q1097.5938,560.8281 1096.9844,560.6094 Q1096.375,560.3906 1095.75,560.3906 Q1094.9844,560.3906 1094.3438,560.7188 Q1093.7188,561.0469 1093.2188,561.7969 Q1092.7344,562.5469 1092.7344,563.5781 L1092.7344,564.6719 Q1092.7344,565.9063 1093.625,566.7344 Q1094.5156,567.5469 1096.1094,567.5469 Q1097.0469,567.5469 1097.7031,567.2969 Q1098.0938,567.1406 1098.5156,566.7031 Q1098.7813,566.4375 1098.9219,566.3594 Q1099.0781,566.2813 1099.2813,566.2813 Q1099.6094,566.2813 1099.8594,566.5469 Q1100.125,566.7969 1100.125,567.1406 Q1100.125,567.4844 1099.7813,567.8906 Q1099.2813,568.4688 1098.4844,568.7969 Q1097.4063,569.25 1096.1094,569.25 Q1094.5938,569.25 1093.3906,568.625 Q1092.4063,568.125 1091.7188,567.0625 Q1091.0313,565.9844 1091.0313,564.7031 L1091.0313,563.5469 Q1091.0313,562.2188 1091.6406,561.0781 Q1092.2656,559.9219 1093.3594,559.3125 Q1094.4531,558.6875 1095.6875,558.6875 Q1096.4219,558.6875 1097.0625,558.8594 Q1097.7188,559.0156 1098.2656,559.375 Z " fill="#000000"/><text fill="#000000" font-family="sans-serif" font-size="14" lengthAdjust="spacing" textLength="238.8545" x="1109.5" y="569.2969">TransmitCardRequestCmdParameters</text><line style="stroke:#27AE60;stroke-width:2.0;" x1="1081.5" x2="1350.3545" y1="579.5" y2="579.5"/><text fill="#000000" font-family="sans-serif" font-size="14" font-weight="bold" lengthAdjust="spacing" textLength="102.6689" x="1086.5" y="598.6074">channelControl</text><text fill="#000000" font-family="sans-serif" font-size="14" lengthAdjust="spacing" textLength="105.0615" x="1193.0586" y="598.6074">: ChannelControl</text><text fill="#000000" font-family="sans-serif" font-size="14" font-weight="bold" lengthAdjust="spacing" textLength="84.8066" x="1086.5" y="617.2285">cardRequest</text><text fill="#000000" font-family="sans-serif" font-size="14" lengthAdjust="spacing" textLength="90.2686" x="1175.1963" y="617.2285">: CardRequest</text><line style="stroke:#27AE60;stroke-width:2.0;" x1="1081.5" x2="1350.3545" y1="624.7422" y2="624.7422"/></g><!--reverse link CmdBody to IsContactlessCmdBody--><g id="link_CmdBody_IsContactlessCmdBody"><path d="M471.1645,322.3864 C406.3385,343.9414 314.246,374.564 234.79,400.984 " fill="none" id="CmdBody-backto-IsContactlessCmdBody" style="stroke:#181818;stroke-width:2.0;"/><polygon fill="none" points="488.245,316.707,469.2713,316.6929,473.0576,328.0799,488.245,316.707" style="stroke:#181818;stroke-width:2.0;"/></g><!--reverse link CmdBody to IsCardPresentCmdBody--><g id="link_CmdBody_IsCardPresentCmdBody"><path d="M506.2239,345.3374 C489.6809,366.4064 479.36,379.551 462.791,400.653 " fill="none" id="CmdBody-backto-IsCardPresentCmdBody" style="stroke:#181818;stroke-width:2.0;"/><polygon fill="none" points="517.34,331.18,501.5047,341.632,510.943,349.0428,517.34,331.18" style="stroke:#181818;stroke-width:2.0;"/></g><!--reverse link CmdBody to TransmitCardSelectionRequestsCmdBody--><g id="link_CmdBody_TransmitCardSelectionRequestsCmdBody"><path d="M613.7839,332.8737 C652.9999,351.9167 690.449,370.103 735.34,391.903 " fill="none" id="CmdBody-backto-TransmitCardSelectionRequestsCmdBody" style="stroke:#181818;stroke-width:2.0;"/><polygon fill="none" points="597.592,325.011,611.163,338.271,616.4048,327.4764,597.592,325.011" style="stroke:#181818;stroke-width:2.0;"/></g><!--reverse link CmdBody to TransmitCardRequestCmdBody--><g id="link_CmdBody_TransmitCardRequestCmdBody"><path d="M615.5892,310.9012 C709.1612,327.0062 887.817,358.443 1053,392 C1058.51,393.12 1064.11,394.274 1069.76,395.453 " fill="none" id="CmdBody-backto-TransmitCardRequestCmdBody" style="stroke:#181818;stroke-width:2.0;"/><polygon fill="none" points="597.85,307.848,614.5715,316.8142,616.6069,304.9881,597.85,307.848" style="stroke:#181818;stroke-width:2.0;"/></g><!--reverse link MessageDto to CmdBody--><g id="link_MessageDto_CmdBody"><path codeLine="144" d="M543,197.08 C543,225.059 543,242.274 543,263.766 " fill="none" id="MessageDto-backto-CmdBody" style="stroke:#3498DB;stroke-width:2.0;"/><polygon fill="#3498DB" points="543,185.08,539,191.08,543,197.08,547,191.08,543,185.08" style="stroke:#3498DB;stroke-width:2.0;"/><text fill="#000000" font-family="sans-serif" font-size="13" lengthAdjust="spacing" textLength="61.4199" x="544" y="230.0283">JsonString</text><text fill="#000000" font-family="sans-serif" font-size="13" lengthAdjust="spacing" textLength="7.23" x="535.4015" y="252.8073">1</text></g><!--reverse link TransmitCardSelectionRequestsCmdBody to TransmitCardSelectionRequestsCmdParameters--><g id="link_TransmitCardSelectionRequestsCmdBody_TransmitCardSelectionRequestsCmdParameters"><path codeLine="146" d="M836.5536,488.5544 C842.0456,507.2894 845.21,518.082 851.001,537.836 " fill="none" id="TransmitCardSelectionRequestsCmdBody-backto-TransmitCardSelectionRequestsCmdParameters" style="stroke:#3498DB;stroke-width:2.0;"/><polygon fill="#3498DB" points="833.178,477.039,831.0273,483.9219,836.5536,488.5544,838.7043,481.6715,833.178,477.039" style="stroke:#3498DB;stroke-width:2.0;"/><text fill="#000000" font-family="sans-serif" font-size="13" lengthAdjust="spacing" textLength="7.23" x="841.515" y="526.7413">1</text></g><!--reverse link TransmitCardSelectionRequestsCmdParameters to CardSelectionRequest--><g id="link_TransmitCardSelectionRequestsCmdParameters_CardSelectionRequest"><path codeLine="148" d="M874.6193,654.0023 C877.3153,673.7123 878.734,684.082 881.295,702.799 " fill="none" id="TransmitCardSelectionRequestsCmdParameters-backto-CardSelectionRequest" style="stroke:#3498DB;stroke-width:2.0;"/><polygon fill="#3498DB" points="872.993,642.113,869.843,648.5997,874.6193,654.0023,877.7692,647.5156,872.993,642.113" style="stroke:#3498DB;stroke-width:2.0;"/><text fill="#000000" font-family="sans-serif" font-size="13" lengthAdjust="spacing" textLength="19.5127" x="859.9324" y="691.6711">1..*</text></g><!--reverse link TransmitCardSelectionRequestsCmdParameters to MultiSelectionProcessing--><g id="link_TransmitCardSelectionRequestsCmdParameters_MultiSelectionProcessing"><path codeLine="149" d="M787.0836,649.2385 C760.3756,668.9485 739.869,684.082 714.506,702.799 " fill="none" id="TransmitCardSelectionRequestsCmdParameters-backto-MultiSelectionProcessing" style="stroke:#3498DB;stroke-width:2.0;"/><polygon fill="#3498DB" points="796.739,642.113,789.5361,642.4573,787.0836,649.2385,794.2865,648.8942,796.739,642.113" style="stroke:#3498DB;stroke-width:2.0;"/><text fill="#000000" font-family="sans-serif" font-size="13" lengthAdjust="spacing" textLength="7.23" x="715.9398" y="691.6711">1</text></g><!--reverse link TransmitCardSelectionRequestsCmdParameters to ChannelControl--><g id="link_TransmitCardSelectionRequestsCmdParameters_ChannelControl"><path codeLine="150" d="M951.8753,648.8147 C981.1513,668.5247 1004.259,684.082 1032.06,702.799 " fill="none" id="TransmitCardSelectionRequestsCmdParameters-backto-ChannelControl" style="stroke:#3498DB;stroke-width:2.0;"/><polygon fill="#3498DB" points="941.921,642.113,944.6642,648.7819,951.8753,648.8147,949.132,642.1458,941.921,642.113" style="stroke:#3498DB;stroke-width:2.0;"/><text fill="#000000" font-family="sans-serif" font-size="13" lengthAdjust="spacing" textLength="7.23" x="1014.6263" y="691.6711">1</text></g><!--reverse link CardSelectionRequest to CardSelector--><g id="link_CardSelectionRequest_CardSelector"><path codeLine="152" d="M882.2751,800.0936 C880.6881,818.0946 879.83,827.831 877.991,848.701 " fill="none" id="CardSelectionRequest-backto-CardSelector" style="stroke:#3498DB;stroke-width:2.0;"/><polygon fill="#3498DB" points="883.329,788.14,878.8175,793.7655,882.2751,800.0936,886.7866,794.4681,883.329,788.14" style="stroke:#3498DB;stroke-width:2.0;"/><text fill="#000000" font-family="sans-serif" font-size="13" lengthAdjust="spacing" textLength="7.23" x="871.2953" y="837.8458">1</text></g><!--reverse link CardSelectionRequest to CardRequest--><g id="link_CardSelectionRequest_CardRequest"><path codeLine="153" d="M972.9863,793.9362 C1020.7973,820.3102 1072.45,848.807 1123.25,876.834 " fill="none" id="CardSelectionRequest-backto-CardRequest" style="stroke:#3498DB;stroke-width:2.0;stroke-dasharray:7.0,7.0;"/><polygon fill="#3498DB" points="962.479,788.14,965.8006,794.5405,972.9863,793.9362,969.6647,787.5356,962.479,788.14" style="stroke:#3498DB;stroke-width:2.0;"/><text fill="#000000" font-family="sans-serif" font-size="13" lengthAdjust="spacing" textLength="21.6836" x="1088.4366" y="865.7391">0..1</text></g><!--reverse link CardSelector to FileOccurrence--><g id="link_CardSelector_FileOccurrence"><path codeLine="155" d="M813.9424,1019.1523 C801.0144,1039.3523 793.791,1050.639 781.575,1069.726 " fill="none" id="CardSelector-backto-FileOccurrence" style="stroke:#3498DB;stroke-width:2.0;"/><polygon fill="#3498DB" points="820.411,1009.045,813.8076,1011.9424,813.9424,1019.1523,820.5458,1016.2548,820.411,1009.045" style="stroke:#3498DB;stroke-width:2.0;"/><text fill="#000000" font-family="sans-serif" font-size="13" lengthAdjust="spacing" textLength="7.23" x="778.6486" y="1058.6755">1</text></g><!--reverse link CardSelector to FileControlInformation--><g id="link_CardSelector_FileControlInformation"><path codeLine="156" d="M896.3686,1020.6006 C902.0246,1040.8006 904.779,1050.639 910.123,1069.726 " fill="none" id="CardSelector-backto-FileControlInformation" style="stroke:#3498DB;stroke-width:2.0;"/><polygon fill="#3498DB" points="893.133,1009.045,890.8989,1015.9013,896.3686,1020.6006,898.6026,1013.7443,893.133,1009.045" style="stroke:#3498DB;stroke-width:2.0;"/><text fill="#000000" font-family="sans-serif" font-size="13" lengthAdjust="spacing" textLength="7.23" x="900.7962" y="1058.6755">1</text></g><!--reverse link CardRequest to ApduRequest--><g id="link_CardRequest_ApduRequest"><path codeLine="158" d="M1216,993.245 C1216,1023.221 1216,1048.935 1216,1078.888 " fill="none" id="CardRequest-backto-ApduRequest" style="stroke:#3498DB;stroke-width:2.0;"/><polygon fill="#3498DB" points="1216,981.245,1212,987.245,1216,993.245,1220,987.245,1216,981.245" style="stroke:#3498DB;stroke-width:2.0;"/><text fill="#000000" font-family="sans-serif" font-size="13" lengthAdjust="spacing" textLength="19.5127" x="1195.776" y="1067.8003">1..*</text></g><!--reverse link TransmitCardRequestCmdBody to TransmitCardRequestCmdParameters--><g id="link_TransmitCardRequestCmdBody_TransmitCardRequestCmdParameters"><path codeLine="160" d="M1230.9979,488.9059 C1227.7179,510.7479 1225.5,525.581 1222.23,547.427 " fill="none" id="TransmitCardRequestCmdBody-backto-TransmitCardRequestCmdParameters" style="stroke:#3498DB;stroke-width:2.0;"/><polygon fill="#3498DB" points="1232.78,477.039,1227.9333,482.3785,1230.9979,488.9059,1235.8446,483.5665,1232.78,477.039" style="stroke:#3498DB;stroke-width:2.0;"/><text fill="#000000" font-family="sans-serif" font-size="13" lengthAdjust="spacing" textLength="7.23" x="1215.695" y="536.3195">1</text></g><!--reverse link TransmitCardRequestCmdParameters to ChannelControl--><g id="link_TransmitCardRequestCmdParameters_ChannelControl"><path codeLine="162" d="M1175.5235,641.9332 C1158.1635,663.7752 1144.4,681.081 1127.04,702.927 " fill="none" id="TransmitCardRequestCmdParameters-backto-ChannelControl" style="stroke:#3498DB;stroke-width:2.0;"/><polygon fill="#3498DB" points="1182.99,632.539,1176.1253,634.7473,1175.5235,641.9332,1182.3881,639.7249,1182.99,632.539" style="stroke:#3498DB;stroke-width:2.0;"/><text fill="#000000" font-family="sans-serif" font-size="13" lengthAdjust="spacing" textLength="7.23" x="1124.7438" y="691.8195">1</text></g><!--reverse link TransmitCardRequestCmdParameters to CardRequest--><g id="link_TransmitCardRequestCmdParameters_CardRequest"><path codeLine="163" d="M1216,644.661 C1216,706.385 1216,810.007 1216,876.807 " fill="none" id="TransmitCardRequestCmdParameters-backto-CardRequest" style="stroke:#3498DB;stroke-width:2.0;"/><polygon fill="#3498DB" points="1216,632.661,1212,638.661,1216,644.661,1220,638.661,1216,632.661" style="stroke:#3498DB;stroke-width:2.0;"/><text fill="#000000" font-family="sans-serif" font-size="13" lengthAdjust="spacing" textLength="7.23" x="1208.56" y="865.7084">1</text></g><!--SRC=[jLTRSzeu57xdLsZfGrfc80cGqdHw6MFBBIt1B7QwczdPOHnR43V6OYMvAREp_tsFRTdOZhYatUK5- -Wxvpit7Sad8X0XQPmW-7qcctL8a15mmOBRM10VVRAj2TAcempWqTKw3Dn8e8T0tA7cVQhGveHz2ppI_kf-SzjXSDj4tmZZ0OrGjtFUwMUw-fM1ddVFkhtsMQ_TxRved938Hnax8Dw-HSv7V8NX0Lvr6eSaPXm5dCU48v-Wr-XEY3L_VNfw9rQXHqFAFEeJtW6dJXViLBYt8N7Zja_QNgQj4C4Z3vPHUnswuhJnYqyMGKIGFlymmpVdo7nbNfgNDN4NcLspP_PhuXx25tY0w-W-CWR6q31guWkaQxffT6lYbsXew3rzK1AFHvFFgDU_V6KCIz9h6wFkGCClpv9SjTl85fiGyYBkN85y6fr0HIYxpyeIaOUY07I18DP8nAiGr1hyFeZMBdDNY0l221MRDT66bFc4wKb6qJFjqj0DKmaSLO33lZR05qgWNhLe6EV3hXA8Aq0ylEm1THeVdXY9loKjFNGvp_3ENU3THuHpL3QhCKOVoajWwOQ48NruPCNrxfUCnf4lcKriOXshoIJ4w6lwcG4cPyG_OE_D6qRyT-_0h84DhEynMo3ne0zzqBWBeD5puJPDm3gD6UoqWyJh59Pozx5k3lPoRy6lSB-l6Jbz8QzuS1l6X_aJK1hFqBmmXtlPSwZiTSajfHNc3uoGw23rCa6bt9Vc09jxkGkit5EIF1VNsJV7a6zIRWtw21_YJg5TlOSlojIRAdCs4tLhuk29aqt5P8OslCGYke8MTvV441JztKZ6QwlbUW9sVAi5azA6-HqjqLlKRBL0fzLgIimjzJSfGb_vGtYMOWxMG7VabxJbaXS6918JcBIgrP1wRZWZBeGtSLVaCI0v6c1jXpeZAog8Ml-VXdiBvn14XRAGfSj5lFBKgUf0aaRsFCcQfZjZRDleEIJW1UJl7PfOKvcz4TTf9C0qp52UsoNV1Pn8n_1aYQto93akwBMPCP_Ei9rKRWU_o_mf8nno-pFy9QB20MUcJUohaPEjsdYCTMTaJUOp_EirjXsP4Uc9mzo8hmAH-6EJaAGzD2D_mQ4hVZWpXppOzcEwIGWqFK-D7F9cMi0XrEC2sAeKRg_YK0G5TigebxH_j4nTkDgnc6-7EpUAI9Yq3wDXjfKgeXodSYU3ArR- -1FY8L6ysaaldJT7CzkPNscE_Z5zdyui7Pflhet7HKPK14NiMxyegxb3MGaZzGg8V7-lO87JiMmTV1RKaxd9kk9zNctwG9WL6QvmPsH9lYiWRk0hf8iW99RdnOoHIFQRMH6LSB8EesX1sSejHgAfNCeREVQIF2_Yi4YSBLmHyzzWSlEIGzj2LVdBvKcVnffycE3V7Lag_6LaNTjb0uyToWtf8_a_pVvXyAVMBDX4zjIQsBXIYNgPtRKVLxfEsmeW1Xcre6ihkevAqHT1fqf3Ik7-7ELL27YshYVNxY-41Ol0Ivt6KNBHhkdaxfMOA-ufpWg57xNaIqSWNvKkaIcjxaJ9zXdZwToQuadwfeyj6yyrqy4prRIK4shdY9I1_3U3KP8TDGstn0Tce0gutPzFc5ux9a2MDOrpwWLfyNcZKRgCjE3ktZnl5Xbv9hzeNgDFFDbKQRaRHvqwkQadJ7Z9TfYWf9FHT3gjfdfovZQVRBAvUvZ_XCrQZnSHAtqlbCh3EbTHQtGwg7dMwKYbUX8Q5Kkv-TeiV4nGmoh6NeMWwdvQcl8KKLQvjZDLpQFS6WUC7L-1u_LLUKql-sFjnhhEx_hmRZitOxplwbzyikowAsy1_yl5S6l-oPUnkggo6tU3eADKYxiKo-sp9oTF7F_xmbUsG8NwXpyK7bdvaQ-ThP5_0G00]--></g></svg>