<?xml version="1.0" encoding="UTF-8" standalone="no"?><svg xmlns="http://www.w3.org/2000/svg" xmlns:xlink="http://www.w3.org/1999/xlink" contentScriptType="application/ecmascript" contentStyleType="text/css" height="485px" preserveAspectRatio="none" style="width:733px;height:485px;background:#FFFFFF;" version="1.1" viewBox="0 0 733 485" width="733px" zoomAndPan="magnify"><defs/><g><!--MD5=[294e55279abb2c7a1cded07edeb7cf0a]
cluster packCommonApi--><polygon fill="#F8F9F9" points="192,128,285,128,292,151.6094,295,151.6094,295,198,192,198,192,128" style="stroke:#000000;stroke-width:1.5;"/><line style="stroke:#000000;stroke-width:1.5;" x1="192" x2="292" y1="151.6094" y2="151.6094"/><text fill="#000000" font-family="sans-serif" font-size="14" font-weight="bold" lengthAdjust="spacing" textLength="87" x="196" y="144.5332">Common API</text><!--MD5=[ac52b3fd37c28f4d54976d8525cbd016]
cluster packExtension--><polygon fill="#F8F9F9" points="16,119,158,119,165,142.6094,168,142.6094,168,316,16,316,16,119" style="stroke:#000000;stroke-width:1.5;"/><line style="stroke:#000000;stroke-width:1.5;" x1="16" x2="165" y1="142.6094" y2="142.6094"/><text fill="#000000" font-family="sans-serif" font-size="14" font-weight="bold" lengthAdjust="spacing" textLength="136" x="20" y="135.5332">Card Extension Xxx</text><!--MD5=[e8a1417bd47fac7d568c195a69f51aa8]
cluster packReaderApi--><polygon fill="#F8F9F9" points="465,128,694,128,701,151.6094,715,151.6094,715,198,465,198,465,128" style="stroke:#000000;stroke-width:1.5;"/><line style="stroke:#000000;stroke-width:1.5;" x1="465" x2="701" y1="151.6094" y2="151.6094"/><text fill="#000000" font-family="sans-serif" font-size="14" font-weight="bold" lengthAdjust="spacing" textLength="223" x="469" y="144.5332">Calypsonet Terminal Reader API</text><!--MD5=[c9b12d7b2c4b1fc61915ee9f9b21580e]
cluster packService--><polygon fill="#F8F9F9" points="319,128,431,128,438,151.6094,441,151.6094,441,316,319,316,319,128" style="stroke:#000000;stroke-width:1.5;"/><line style="stroke:#000000;stroke-width:1.5;" x1="319" x2="438" y1="151.6094" y2="151.6094"/><text fill="#000000" font-family="sans-serif" font-size="14" font-weight="bold" lengthAdjust="spacing" textLength="106" x="323" y="144.5332">Keyple Service</text><!--MD5=[6c2c8b6ab22a2002edbb9a37cc194759]
cluster packCardApi--><polygon fill="#F8F9F9" points="157,366,368,366,375,389.6094,378,389.6094,378,478,157,478,157,366" style="stroke:#000000;stroke-width:1.5;"/><line style="stroke:#000000;stroke-width:1.5;" x1="157" x2="375" y1="389.6094" y2="389.6094"/><text fill="#000000" font-family="sans-serif" font-size="14" font-weight="bold" lengthAdjust="spacing" textLength="205" x="161" y="382.5332">Calypsonet Terminal Card API</text><!--MD5=[108b8ec4cbe602fd6a8c36d5380724bc]
entity commonApi--><ellipse cx="270" cy="173" fill="#E9F7EF" rx="8" ry="8" style="stroke:#27AE60;stroke-width:1.5;"/><!--MD5=[f402d5c63cff53329f3c218bbd0560cc]
entity specificCardExtensionApi--><ellipse cx="116" cy="173" fill="#E9F7EF" rx="8" ry="8" style="stroke:#27AE60;stroke-width:1.5;"/><!--MD5=[535f43d417660373b2263710d106a2e4]
entity extension--><rect fill="#E9F7EF" height="47.6094" style="stroke:#27AE60;stroke-width:1.5;" width="90" x="62" y="252"/><rect fill="#E9F7EF" height="10" style="stroke:#27AE60;stroke-width:1.5;" width="15" x="132" y="257"/><rect fill="#E9F7EF" height="2" style="stroke:#27AE60;stroke-width:1.5;" width="4" x="130" y="259"/><rect fill="#E9F7EF" height="2" style="stroke:#27AE60;stroke-width:1.5;" width="4" x="130" y="263"/><text fill="#000000" font-family="sans-serif" font-size="14" lengthAdjust="spacing" textLength="50" x="77" y="286.5332">Adapter</text><!--MD5=[0fda63aba32982abbdb07b83db27d91d]
entity readerApi--><ellipse cx="690" cy="173" fill="#FEFECE" rx="8" ry="8" style="stroke:#D4AC0D;stroke-width:1.5;"/><text fill="#000000" font-family="sans-serif" font-size="14" lengthAdjust="spacing" textLength="0" x="658" y="204.5332"/><text fill="#000000" font-family="sans-serif" font-size="14" lengthAdjust="spacing" textLength="72" x="654" y="222.1426">Reader API</text><!--MD5=[0d41bcbc4e060d66485fd8221bb1b7ba]
entity selectionApi--><ellipse cx="590" cy="173" fill="#FEFECE" rx="8" ry="8" style="stroke:#D4AC0D;stroke-width:1.5;"/><text fill="#000000" font-family="sans-serif" font-size="14" lengthAdjust="spacing" textLength="0" x="552.5" y="204.5332"/><text fill="#000000" font-family="sans-serif" font-size="14" lengthAdjust="spacing" textLength="83" x="548.5" y="222.1426">Selection API</text><!--MD5=[1b875c2263d3bc01d1d54d814852db4c]
entity selectionSpi--><ellipse cx="490" cy="173" fill="#E9F7EF" rx="8" ry="8" style="stroke:#27AE60;stroke-width:1.5;"/><text fill="#000000" font-family="sans-serif" font-size="14" lengthAdjust="spacing" textLength="0" x="452.5" y="204.5332"/><text fill="#000000" font-family="sans-serif" font-size="14" lengthAdjust="spacing" textLength="83" x="448.5" y="222.1426">Selection SPI</text><!--MD5=[7dffe31cf74252a1bd377ad28c4a004f]
entity serviceApi--><ellipse cx="380" cy="173" fill="#FEFECE" rx="8" ry="8" style="stroke:#D4AC0D;stroke-width:1.5;"/><!--MD5=[38bfa9dc6018363cafe15f923a4b8db9]
entity service--><rect fill="#FEFECE" height="47.6094" style="stroke:#D4AC0D;stroke-width:1.5;" width="90" x="335" y="252"/><rect fill="#FEFECE" height="10" style="stroke:#D4AC0D;stroke-width:1.5;" width="15" x="405" y="257"/><rect fill="#FEFECE" height="2" style="stroke:#D4AC0D;stroke-width:1.5;" width="4" x="403" y="259"/><rect fill="#FEFECE" height="2" style="stroke:#D4AC0D;stroke-width:1.5;" width="4" x="403" y="263"/><text fill="#000000" font-family="sans-serif" font-size="14" lengthAdjust="spacing" textLength="50" x="350" y="286.5332">Adapter</text><!--MD5=[9c7f5ad1afce88c433e504bd5753a996]
entity cardSpi--><ellipse cx="223" cy="432" fill="#E9F7EF" rx="8" ry="8" style="stroke:#27AE60;stroke-width:1.5;"/><text fill="#000000" font-family="sans-serif" font-size="14" lengthAdjust="spacing" textLength="21" x="212.5" y="463.5332">SPI</text><!--MD5=[f74f7ef7641fa41957945dcfb119390e]
entity cardApi--><ellipse cx="312" cy="432" fill="#FEFECE" rx="8" ry="8" style="stroke:#D4AC0D;stroke-width:1.5;"/><text fill="#000000" font-family="sans-serif" font-size="14" lengthAdjust="spacing" textLength="21" x="301.5" y="463.5332">API</text><!--MD5=[37c33c71ce9550fe283f62c54b59719b]
entity application--><rect fill="#EBF5FB" height="47.6094" style="stroke:#3498DB;stroke-width:1.5;" width="149" x="360.5" y="7"/><rect fill="#EBF5FB" height="10" style="stroke:#3498DB;stroke-width:1.5;" width="15" x="489.5" y="12"/><rect fill="#EBF5FB" height="2" style="stroke:#3498DB;stroke-width:1.5;" width="4" x="487.5" y="14"/><rect fill="#EBF5FB" height="2" style="stroke:#3498DB;stroke-width:1.5;" width="4" x="487.5" y="18"/><text fill="#000000" font-family="sans-serif" font-size="14" lengthAdjust="spacing" textLength="109" x="375.5" y="41.5332">Client Application</text><!--MD5=[97cb687705b43309886ad24724cbb257]
link commonApi to extension--><path d="M260.769,179.72 C238.814,193.324 182.478,228.232 144.443,251.799 " fill="none" id="commonApi-extension" style="stroke:#27AE60;stroke-width:1.0;"/><!--MD5=[a8851ad37ac5d7495f09bb79969e487f]
link selectionSpi to extension--><path d="M480.836,181.51 C471.412,188.852 456.029,199.803 441,206 C342.607,246.574 217.721,264.188 152.055,271.081 " fill="none" id="selectionSpi-extension" style="stroke:#27AE60;stroke-width:1.0;"/><!--MD5=[af500f273bfd406437f3fb97b5209ad9]
link specificCardExtensionApi to extension--><path d="M115.263,182.265 C113.928,197.247 111.064,229.392 109.085,251.601 " fill="none" id="specificCardExtensionApi-extension" style="stroke:#27AE60;stroke-width:1.0;"/><!--MD5=[c972e42a57bbdf1c0b9ca638d5b3e053]
link extension to cardSpi--><path d="M124.366,300.055 C150.785,335.129 199.808,400.211 216.918,422.9262 " fill="none" id="extension-cardSpi" style="stroke:#27AE60;stroke-width:1.0;"/><!--MD5=[d28946eb54196e7507811bcb95f3b5ce]
link serviceApi to service--><path d="M380,182.265 C380,197.247 380,229.392 380,251.601 " fill="none" id="serviceApi-service" style="stroke:#D4AC0D;stroke-width:1.0;"/><!--MD5=[f27256bd465bf7d599d67b671e2fc2d5]
link readerApi to service--><path d="M680.709,178.539 C666.992,185.133 640.413,197.501 617,206 C551.34,229.835 473.212,251.291 425.112,263.735 " fill="none" id="readerApi-service" style="stroke:#D4AC0D;stroke-width:1.0;"/><!--MD5=[231b7d29158983668849c93110ca6d1d]
link selectionApi to service--><path d="M580.64,180.05 C565.652,189.607 535.183,208.496 508,222 C481.075,235.376 449.926,248.326 425.098,258.077 " fill="none" id="selectionApi-service" style="stroke:#D4AC0D;stroke-width:1.0;"/><!--MD5=[2523936cee4f99c1b1f73b34e1a6b0f7]
link service to cardApi--><path d="M369.82,300.055 C354.333,335.129 325.595,400.211 315.565,422.9262 " fill="none" id="service-cardApi" style="stroke:#D4AC0D;stroke-width:1.0;"/><!--MD5=[613e7e914a8210605b9b474b688c1ac0]
link application to commonApi--><path d="M394.995,55.119 C371.586,69.62 342.174,89.585 319,111 C302.829,125.944 287.491,146.419 278.415,159.43 " fill="none" id="application-to-commonApi" style="stroke:#A80036;stroke-width:1.0;stroke-dasharray:7.0,7.0;"/><polygon fill="#A80036" points="275.364,163.862,283.7613,158.7156,278.1985,159.7431,277.171,154.1803,275.364,163.862" style="stroke:#A80036;stroke-width:1.0;"/><text fill="#000000" font-family="sans-serif" font-size="13" lengthAdjust="spacing" textLength="21" x="350" y="99.4951">use</text><!--MD5=[70fe944fe17b6948044b7ea691eb942e]
link application to specificCardExtensionApi--><path d="M373.825,55.011 C350.568,64.022 323.923,74.664 300,85 C275.18,95.724 269.444,99.443 245,111 C202.973,130.87 153.245,154.386 129.688,165.527 " fill="none" id="application-to-specificCardExtensionApi" style="stroke:#A80036;stroke-width:1.0;stroke-dasharray:7.0,7.0;"/><polygon fill="#A80036" points="125.071,167.71,134.9172,167.4791,129.5912,165.5728,131.4976,160.2468,125.071,167.71" style="stroke:#A80036;stroke-width:1.0;"/><text fill="#000000" font-family="sans-serif" font-size="13" lengthAdjust="spacing" textLength="21" x="301" y="99.4951">use</text><!--MD5=[db23a741fbf4de00f2351072712c6d6c]
link application to readerApi--><path d="M500.412,55.128 C536.105,69.027 580.356,88.392 617,111 C640.383,125.427 664.203,146.863 678.018,160.107 " fill="none" id="application-to-readerApi" style="stroke:#A80036;stroke-width:1.0;stroke-dasharray:7.0,7.0;"/><polygon fill="#A80036" points="681.64,163.612,677.9527,154.4794,678.0464,160.1355,672.3903,160.2292,681.64,163.612" style="stroke:#A80036;stroke-width:1.0;"/><text fill="#000000" font-family="sans-serif" font-size="13" lengthAdjust="spacing" textLength="21" x="604" y="99.4951">use</text><!--MD5=[709950cff7e8bd0e8379c878de446c5d]
link application to selectionApi--><path d="M460.87,55.195 C471.186,64.456 483.164,75.223 494,85 C523.809,111.896 558.722,143.582 577.128,160.302 " fill="none" id="application-to-selectionApi" style="stroke:#A80036;stroke-width:1.0;stroke-dasharray:7.0,7.0;"/><polygon fill="#A80036" points="581.012,163.831,577.0405,154.8184,577.3113,160.4688,571.6609,160.7396,581.012,163.831" style="stroke:#A80036;stroke-width:1.0;"/><text fill="#000000" font-family="sans-serif" font-size="13" lengthAdjust="spacing" textLength="21" x="514" y="99.4951">use</text><!--MD5=[e1915561728177c50fc7ab13a7caef2d]
link application to selectionSpi--><path d="M444.082,55.118 C455.712,84.721 475.475,135.028 484.816,158.804 " fill="none" id="application-to-selectionSpi" style="stroke:#A80036;stroke-width:1.0;stroke-dasharray:7.0,7.0;"/><polygon fill="#A80036" points="486.748,163.723,487.1799,153.8836,484.9196,159.0693,479.734,156.809,486.748,163.723" style="stroke:#A80036;stroke-width:1.0;"/><text fill="#000000" font-family="sans-serif" font-size="13" lengthAdjust="spacing" textLength="21" x="464" y="99.4951">use</text><!--MD5=[879ca4a963ad0fc65afcfcf02bc7792f]
link application to serviceApi--><path d="M425.918,55.118 C414.288,84.721 394.525,135.028 385.184,158.804 " fill="none" id="application-to-serviceApi" style="stroke:#A80036;stroke-width:1.0;stroke-dasharray:7.0,7.0;"/><polygon fill="#A80036" points="383.252,163.723,390.266,156.809,385.0804,159.0693,382.8201,153.8836,383.252,163.723" style="stroke:#A80036;stroke-width:1.0;"/><text fill="#000000" font-family="sans-serif" font-size="13" lengthAdjust="spacing" textLength="21" x="416" y="99.4951">use</text><!--MD5=[d6c7ae0c444d3684621ccf0a039b4c14]
link service to cardSpi--><path d="M334.662,281.405 C301.078,287.219 257.122,300.708 233,332 C213.637,357.119 216.904,397.127 220.3,417.7492 " fill="none" id="service-to-cardSpi" style="stroke:#A80036;stroke-width:1.0;stroke-dasharray:7.0,7.0;"/><polygon fill="#A80036" points="221.198,422.7888,223.5578,413.2268,220.3212,417.8663,215.6817,414.6297,221.198,422.7888" style="stroke:#A80036;stroke-width:1.0;"/><text fill="#000000" font-family="sans-serif" font-size="13" lengthAdjust="spacing" textLength="21" x="234" y="346.4951">use</text><!--MD5=[1d9a71772be4b1c8979e1d29a9b1326d]
reverse link commonApi to serviceApi--><path d="M284.064,173 C306.961,173 351.667,173 370.874,173 " fill="none" id="commonApi-backto-serviceApi" style="stroke:#A80036;stroke-width:1.0;stroke-dasharray:7.0,7.0;"/><polygon fill="#A80036" points="279.002,173,288.002,177,284.002,173,288.002,169,279.002,173" style="stroke:#A80036;stroke-width:1.0;"/><text fill="#000000" font-family="sans-serif" font-size="13" lengthAdjust="spacing" textLength="21" x="326.5" y="166.4951">use</text><!--MD5=[b84145f68a9638efe3b1cde23adb3c4f]
link extension to cardApi--><path d="M152.316,284.2 C185.379,291.446 229.551,305.502 260,332 C287.137,355.616 302.233,396.9115 308.501,417.9208 " fill="none" id="extension-to-cardApi" style="stroke:#A80036;stroke-width:1.0;stroke-dasharray:7.0,7.0;"/><polygon fill="#A80036" points="309.907,422.8019,311.2604,413.0465,308.5234,417.9971,303.5728,415.2602,309.907,422.8019" style="stroke:#A80036;stroke-width:1.0;"/><text fill="#000000" font-family="sans-serif" font-size="13" lengthAdjust="spacing" textLength="21" x="278" y="346.4951">use</text><!--MD5=[13a81f79b1b24c973be082c1fdbd2297]
link selectionApi to readerApi--><path d="M599.229,173 C616.716,173 654.793,173 675.644,173 " fill="none" id="selectionApi-to-readerApi" style="stroke:#A80036;stroke-width:1.0;stroke-dasharray:7.0,7.0;"/><polygon fill="#A80036" points="680.794,173,671.794,169,675.794,173,671.794,177,680.794,173" style="stroke:#A80036;stroke-width:1.0;"/><text fill="#000000" font-family="sans-serif" font-size="13" lengthAdjust="spacing" textLength="21" x="629.5" y="166.4951">use</text><!--MD5=[ecfaa83e29f3ca4e38745e296a5716e5]
reverse link selectionSpi to selectionApi--><path d="M504.383,173 C525.248,173 563.324,173 580.794,173 " fill="none" id="selectionSpi-backto-selectionApi" style="stroke:#A80036;stroke-width:1.0;stroke-dasharray:7.0,7.0;"/><polygon fill="#A80036" points="499.229,173,508.229,177,504.229,173,508.229,169,499.229,173" style="stroke:#A80036;stroke-width:1.0;"/><text fill="#000000" font-family="sans-serif" font-size="13" lengthAdjust="spacing" textLength="21" x="529.5" y="166.4951">use</text><!--MD5=[b20cc1beef283e4f2ab59983ad08108a]
@startuml

' == THEME ==

'Couleurs issues de : https://htmlcolorcodes.com/fr/tableau-de-couleur/tableau-de-couleur-design-plat/
!define COLOR_YELLOW D4AC0D
!define COLOR_RED E74C3C
!define COLOR_PURPLE 8E44AD
!define COLOR_BLUE 3498DB
!define COLOR_GREEN 27AE60
!define COLOR_GREY 2C3E50

!define C_GREY1 F8F9F9
!define C_GREY2 F2F3F4
!define C_GREY3 E5E7E9
!define C_GREY4 D7DBDD
!define C_GREY5 CACFD2
!define C_GREY6 BDC3C7
!define C_LINK 3498DB
!define C_USE 27AE60

skinparam Shadowing false
skinparam component {
    BorderColor #D4AC0D
    ' Red
    BackgroundColor<<red>> #FDEDEC
    BorderColor<<red>> #E74C3C
    ' Purple
    BackgroundColor<<purple>> #F4ECF7
    BorderColor<<purple>> #8E44AD
    ' blue
    BackgroundColor<<blue>> #EBF5FB
    BorderColor<<blue>> #3498DB
    ' Green
    BackgroundColor<<green>> #E9F7EF
    BorderColor<<green>> #27AE60
    ' Grey
    BackgroundColor<<grey>> #EAECEE
    BorderColor<<grey>> #2C3E50
}
skinparam interface {
    BorderColor #D4AC0D
    ' Red
    BackgroundColor<<red>> #FDEDEC
    BorderColor<<red>> #E74C3C
    ' Purple
    BackgroundColor<<purple>> #F4ECF7
    BorderColor<<purple>> #8E44AD
    ' blue
    BackgroundColor<<blue>> #EBF5FB
    BorderColor<<blue>> #3498DB
    ' Green
    BackgroundColor<<green>> #E9F7EF
    BorderColor<<green>> #27AE60
    ' Grey
    BackgroundColor<<grey>> #EAECEE
    BorderColor<<grey>> #2C3E50
}
hide <<red>> stereotype
hide <<purple>> stereotype
hide <<blue>> stereotype
hide <<green>> stereotype
hide <<grey>> stereotype

' == COMPONENTS ==

[Client Application] as application <<blue>>
package "Common API" as packCommonApi {
    interface " " as commonApi <<green>>
}
package "Card Extension Xxx" as packExtension {
    interface " " as specificCardExtensionApi <<green>>
    [Adapter] as extension <<green>>
}
package "Calypsonet Terminal Reader API" as packReaderApi {
    interface "\nReader API" as readerApi
    interface "\nSelection API" as selectionApi
    interface "\nSelection SPI" as selectionSpi <<green>>
}
package "Keyple Service" as packService {
    interface " " as serviceApi
    [Adapter] as service
}
package "Calypsonet Terminal Card API" as packCardApi {
    interface "SPI" as cardSpi <<green>>
    interface "API" as cardApi
}

' == ASSOCIATIONS ==

extension -up- commonApi #COLOR_GREEN
extension -up- selectionSpi #COLOR_GREEN

extension -up- specificCardExtensionApi #COLOR_GREEN
extension - - cardSpi #COLOR_GREEN

service -up- serviceApi #COLOR_YELLOW
service -up- readerApi #COLOR_YELLOW
service -up- selectionApi #COLOR_YELLOW
service - - cardApi #COLOR_YELLOW

' USE

application ..> commonApi : use
application ..> specificCardExtensionApi : use
application ..> readerApi : use
application ..> selectionApi : use
application ..> selectionSpi : use
application ..> serviceApi : use

service ..> cardSpi : use

serviceApi .left.> commonApi : "      use"

extension ..> cardApi : use

selectionApi .right.> readerApi : "   use   "
selectionApi .left.> selectionSpi : "   use   "

' == STYLE ==

package packExtension #C_GREY1 {
}
package packCommonApi #C_GREY1 {
}
package packReaderApi #C_GREY1 {
}
package packService #C_GREY1 {
}
package packCardApi #C_GREY1 {
}

@enduml

@startuml




skinparam Shadowing false
skinparam component {
    BorderColor #D4AC0D
    BackgroundColor<<red>> #FDEDEC
    BorderColor<<red>> #E74C3C
    BackgroundColor<<purple>> #F4ECF7
    BorderColor<<purple>> #8E44AD
    BackgroundColor<<blue>> #EBF5FB
    BorderColor<<blue>> #3498DB
    BackgroundColor<<green>> #E9F7EF
    BorderColor<<green>> #27AE60
    BackgroundColor<<grey>> #EAECEE
    BorderColor<<grey>> #2C3E50
}
skinparam interface {
    BorderColor #D4AC0D
    BackgroundColor<<red>> #FDEDEC
    BorderColor<<red>> #E74C3C
    BackgroundColor<<purple>> #F4ECF7
    BorderColor<<purple>> #8E44AD
    BackgroundColor<<blue>> #EBF5FB
    BorderColor<<blue>> #3498DB
    BackgroundColor<<green>> #E9F7EF
    BorderColor<<green>> #27AE60
    BackgroundColor<<grey>> #EAECEE
    BorderColor<<grey>> #2C3E50
}
hide <<red>> stereotype
hide <<purple>> stereotype
hide <<blue>> stereotype
hide <<green>> stereotype
hide <<grey>> stereotype


[Client Application] as application <<blue>>
package "Common API" as packCommonApi {
    interface " " as commonApi <<green>>
}
package "Card Extension Xxx" as packExtension {
    interface " " as specificCardExtensionApi <<green>>
    [Adapter] as extension <<green>>
}
package "Calypsonet Terminal Reader API" as packReaderApi {
    interface "\nReader API" as readerApi
    interface "\nSelection API" as selectionApi
    interface "\nSelection SPI" as selectionSpi <<green>>
}
package "Keyple Service" as packService {
    interface " " as serviceApi
    [Adapter] as service
}
package "Calypsonet Terminal Card API" as packCardApi {
    interface "SPI" as cardSpi <<green>>
    interface "API" as cardApi
}


extension -up- commonApi #27AE60
extension -up- selectionSpi #27AE60

extension -up- specificCardExtensionApi #27AE60
extension - - cardSpi #27AE60

service -up- serviceApi #D4AC0D
service -up- readerApi #D4AC0D
service -up- selectionApi #D4AC0D
service - - cardApi #D4AC0D


application ..> commonApi : use
application ..> specificCardExtensionApi : use
application ..> readerApi : use
application ..> selectionApi : use
application ..> selectionSpi : use
application ..> serviceApi : use

service ..> cardSpi : use

serviceApi .left.> commonApi : "      use"

extension ..> cardApi : use

selectionApi .right.> readerApi : "   use   "
selectionApi .left.> selectionSpi : "   use   "


package packExtension #F8F9F9 {
}
package packCommonApi #F8F9F9 {
}
package packReaderApi #F8F9F9 {
}
package packService #F8F9F9 {
}
package packCardApi #F8F9F9 {
}

@enduml

PlantUML version 1.2021.11(Sat Oct 02 15:26:11 CEST 2021)
(GPL source distribution)
Java Runtime: OpenJDK Runtime Environment
JVM: OpenJDK 64-Bit Server VM
Default Encoding: Cp1252
Language: fr
Country: FR
--></g></svg>