<?xml version="1.0" encoding="us-ascii" standalone="no"?><svg xmlns="http://www.w3.org/2000/svg" xmlns:xlink="http://www.w3.org/1999/xlink" contentStyleType="text/css" height="493px" preserveAspectRatio="none" style="width:723px;height:493px;background:#FFFFFF;" version="1.1" viewBox="0 0 723 493" width="723px" zoomAndPan="magnify"><defs/><g><!--cluster packCommonApi--><g id="cluster_packCommonApi"><path d="M184.5,130 L272.5,130 A3.75,3.75 0 0 1 275,132.5 L282,154.6211 L282.5,154.6211 A2.5,2.5 0 0 1 285,157.1211 L285,198.5 A2.5,2.5 0 0 1 282.5,201 L184.5,201 A2.5,2.5 0 0 1 182,198.5 L182,132.5 A2.5,2.5 0 0 1 184.5,130 " fill="#F8F9F9" style="stroke:#000000;stroke-width:1.5;"/><line style="stroke:#000000;stroke-width:1.5;" x1="182" x2="282" y1="154.6211" y2="154.6211"/><text fill="#000000" font-family="sans-serif" font-size="14" font-weight="bold" lengthAdjust="spacing" textLength="87" x="186" y="147.1074">Common API</text></g><!--cluster packExtension--><g id="cluster_packExtension"><path d="M8.5,121 L145.5,121 A3.75,3.75 0 0 1 148,123.5 L155,145.6211 L155.5,145.6211 A2.5,2.5 0 0 1 158,148.1211 L158,317.5 A2.5,2.5 0 0 1 155.5,320 L8.5,320 A2.5,2.5 0 0 1 6,317.5 L6,123.5 A2.5,2.5 0 0 1 8.5,121 " fill="#F8F9F9" style="stroke:#000000;stroke-width:1.5;"/><line style="stroke:#000000;stroke-width:1.5;" x1="6" x2="155" y1="145.6211" y2="145.6211"/><text fill="#000000" font-family="sans-serif" font-size="14" font-weight="bold" lengthAdjust="spacing" textLength="136" x="10" y="138.1074">Card Extension Xxx</text></g><!--cluster packReaderApi--><g id="cluster_packReaderApi"><path d="M457.5,130 L592.5,130 A3.75,3.75 0 0 1 595,132.5 L602,154.6211 L702.5,154.6211 A2.5,2.5 0 0 1 705,157.1211 L705,198.5 A2.5,2.5 0 0 1 702.5,201 L457.5,201 A2.5,2.5 0 0 1 455,198.5 L455,132.5 A2.5,2.5 0 0 1 457.5,130 " fill="#F8F9F9" style="stroke:#000000;stroke-width:1.5;"/><line style="stroke:#000000;stroke-width:1.5;" x1="455" x2="602" y1="154.6211" y2="154.6211"/><text fill="#000000" font-family="sans-serif" font-size="14" font-weight="bold" lengthAdjust="spacing" textLength="134" x="459" y="147.1074">Keypop Reader API</text></g><!--cluster packService--><g id="cluster_packService"><path d="M311.5,130 L418.5,130 A3.75,3.75 0 0 1 421,132.5 L428,154.6211 L428.5,154.6211 A2.5,2.5 0 0 1 431,157.1211 L431,317.5 A2.5,2.5 0 0 1 428.5,320 L311.5,320 A2.5,2.5 0 0 1 309,317.5 L309,132.5 A2.5,2.5 0 0 1 311.5,130 " fill="#F8F9F9" style="stroke:#000000;stroke-width:1.5;"/><line style="stroke:#000000;stroke-width:1.5;" x1="309" x2="428" y1="154.6211" y2="154.6211"/><text fill="#000000" font-family="sans-serif" font-size="14" font-weight="bold" lengthAdjust="spacing" textLength="106" x="313" y="147.1074">Keyple Service</text></g><!--cluster packCardApi--><g id="cluster_packCardApi"><path d="M172.5,371 L289.5,371 A3.75,3.75 0 0 1 292,373.5 L299,395.6211 L342.5,395.6211 A2.5,2.5 0 0 1 345,398.1211 L345,483.5 A2.5,2.5 0 0 1 342.5,486 L172.5,486 A2.5,2.5 0 0 1 170,483.5 L170,373.5 A2.5,2.5 0 0 1 172.5,371 " fill="#F8F9F9" style="stroke:#000000;stroke-width:1.5;"/><line style="stroke:#000000;stroke-width:1.5;" x1="170" x2="299" y1="395.6211" y2="395.6211"/><text fill="#000000" font-family="sans-serif" font-size="14" font-weight="bold" lengthAdjust="spacing" textLength="116" x="174" y="388.1074">Keypop Card API</text></g><!--entity commonApi--><g id="elem_commonApi"><ellipse cx="260" cy="176" fill="#E9F7EF" rx="8" ry="8" style="stroke:#27AE60;stroke-width:0.5;"/></g><!--entity specificCardExtensionApi--><g id="elem_specificCardExtensionApi"><ellipse cx="106" cy="176" fill="#E9F7EF" rx="8" ry="8" style="stroke:#27AE60;stroke-width:0.5;"/></g><!--entity extension--><g id="elem_extension"><rect fill="#E9F7EF" height="48.6211" rx="2.5" ry="2.5" style="stroke:#27AE60;stroke-width:0.5;" width="90" x="52" y="255"/><rect fill="#E9F7EF" height="10" style="stroke:#27AE60;stroke-width:0.5;" width="15" x="122" y="260"/><rect fill="#E9F7EF" height="2" style="stroke:#27AE60;stroke-width:0.5;" width="4" x="120" y="262"/><rect fill="#E9F7EF" height="2" style="stroke:#27AE60;stroke-width:0.5;" width="4" x="120" y="266"/><text fill="#000000" font-family="sans-serif" font-size="14" lengthAdjust="spacing" textLength="50" x="67" y="290.1074">Adapter</text></g><!--entity readerApi--><g id="elem_readerApi"><ellipse cx="680" cy="176" fill="#F1F1F1" rx="8" ry="8" style="stroke:#D4AC0D;stroke-width:0.5;"/><text fill="#000000" font-family="sans-serif" font-size="14" lengthAdjust="spacing" textLength="4" x="644" y="208.1074">&#160;</text><text fill="#000000" font-family="sans-serif" font-size="14" lengthAdjust="spacing" textLength="72" x="644" y="226.7285">Reader API</text></g><!--entity selectionApi--><g id="elem_selectionApi"><ellipse cx="580" cy="176" fill="#F1F1F1" rx="8" ry="8" style="stroke:#D4AC0D;stroke-width:0.5;"/><text fill="#000000" font-family="sans-serif" font-size="14" lengthAdjust="spacing" textLength="4" x="538.5" y="208.1074">&#160;</text><text fill="#000000" font-family="sans-serif" font-size="14" lengthAdjust="spacing" textLength="83" x="538.5" y="226.7285">Selection API</text></g><!--entity selectionSpi--><g id="elem_selectionSpi"><ellipse cx="480" cy="176" fill="#E9F7EF" rx="8" ry="8" style="stroke:#27AE60;stroke-width:0.5;"/><text fill="#000000" font-family="sans-serif" font-size="14" lengthAdjust="spacing" textLength="4" x="438.5" y="208.1074">&#160;</text><text fill="#000000" font-family="sans-serif" font-size="14" lengthAdjust="spacing" textLength="83" x="438.5" y="226.7285">Selection SPI</text></g><!--entity serviceApi--><g id="elem_serviceApi"><ellipse cx="370" cy="176" fill="#F1F1F1" rx="8" ry="8" style="stroke:#D4AC0D;stroke-width:0.5;"/></g><!--entity service--><g id="elem_service"><rect fill="#F1F1F1" height="48.6211" rx="2.5" ry="2.5" style="stroke:#D4AC0D;stroke-width:0.5;" width="90" x="325" y="255"/><rect fill="#F1F1F1" height="10" style="stroke:#D4AC0D;stroke-width:0.5;" width="15" x="395" y="260"/><rect fill="#F1F1F1" height="2" style="stroke:#D4AC0D;stroke-width:0.5;" width="4" x="393" y="262"/><rect fill="#F1F1F1" height="2" style="stroke:#D4AC0D;stroke-width:0.5;" width="4" x="393" y="266"/><text fill="#000000" font-family="sans-serif" font-size="14" lengthAdjust="spacing" textLength="50" x="340" y="290.1074">Adapter</text></g><!--entity cardSpi--><g id="elem_cardSpi"><ellipse cx="213" cy="439" fill="#E9F7EF" rx="8" ry="8" style="stroke:#27AE60;stroke-width:0.5;"/><text fill="#000000" font-family="sans-serif" font-size="14" lengthAdjust="spacing" textLength="21" x="202.5" y="471.1074">SPI</text></g><!--entity cardApi--><g id="elem_cardApi"><ellipse cx="302" cy="439" fill="#F1F1F1" rx="8" ry="8" style="stroke:#D4AC0D;stroke-width:0.5;"/><text fill="#000000" font-family="sans-serif" font-size="14" lengthAdjust="spacing" textLength="21" x="291.5" y="471.1074">API</text></g><!--entity application--><g id="elem_application"><rect fill="#EBF5FB" height="48.6211" rx="2.5" ry="2.5" style="stroke:#3498DB;stroke-width:0.5;" width="109" x="370.5" y="7"/><rect fill="#EBF5FB" height="10" style="stroke:#3498DB;stroke-width:0.5;" width="15" x="459.5" y="12"/><rect fill="#EBF5FB" height="2" style="stroke:#3498DB;stroke-width:0.5;" width="4" x="457.5" y="14"/><rect fill="#EBF5FB" height="2" style="stroke:#3498DB;stroke-width:0.5;" width="4" x="457.5" y="18"/><text fill="#000000" font-family="sans-serif" font-size="14" lengthAdjust="spacing" textLength="69" x="385.5" y="42.1074">Application</text></g><!--link commonApi to extension--><g id="link_commonApi_extension"><path d="M250.769,182.748 C228.882,196.377 172.823,231.285 134.794,254.966 " fill="none" id="commonApi-extension" style="stroke:#27AE60;stroke-width:1.0;"/></g><!--link selectionSpi to extension--><g id="link_selectionSpi_extension"><path d="M470.835,184.506 C461.409,191.844 446.024,202.792 431,209 C332.606,249.657 207.72,267.484 142.055,274.496 " fill="none" id="selectionSpi-extension" style="stroke:#27AE60;stroke-width:1.0;"/></g><!--link specificCardExtensionApi to extension--><g id="link_specificCardExtensionApi_extension"><path d="M105.263,185.306 C103.928,200.362 101.064,232.666 99.085,254.985 " fill="none" id="specificCardExtensionApi-extension" style="stroke:#27AE60;stroke-width:1.0;"/></g><!--link extension to cardSpi--><g id="link_extension_cardSpi"><path d="M114.366,304.079 C140.785,339.95 189.808,406.5113 206.918,429.7427 " fill="none" id="extension-cardSpi" style="stroke:#27AE60;stroke-width:1.0;"/></g><!--link serviceApi to service--><g id="link_serviceApi_service"><path d="M370,185.306 C370,200.362 370,232.666 370,254.985 " fill="none" id="serviceApi-service" style="stroke:#D4AC0D;stroke-width:1.0;"/></g><!--link readerApi to service--><g id="link_readerApi_service"><path d="M670.707,181.533 C656.987,188.12 630.405,200.478 607,209 C541.326,232.913 463.201,254.55 415.106,267.115 " fill="none" id="readerApi-service" style="stroke:#D4AC0D;stroke-width:1.0;"/></g><!--link selectionApi to service--><g id="link_selectionApi_service"><path d="M570.635,183.04 C555.639,192.582 525.16,211.451 498,225 C471.06,238.44 439.911,251.51 415.086,261.368 " fill="none" id="selectionApi-service" style="stroke:#D4AC0D;stroke-width:1.0;"/></g><!--link service to cardApi--><g id="link_service_cardApi"><path d="M359.82,304.079 C344.333,339.95 315.595,406.5113 305.565,429.7427 " fill="none" id="service-cardApi" style="stroke:#D4AC0D;stroke-width:1.0;"/></g><!--link application to commonApi--><g id="link_application_commonApi"><path d="M384.965,56.118 C361.546,70.917 332.133,91.261 309,113 C290.804,130.099 277.046,149.2322 268.687,161.7502 " fill="none" id="application-to-commonApi" style="stroke:#181818;stroke-width:1.0;stroke-dasharray:7.0,7.0;"/><polygon fill="#181818" points="265.355,166.74,273.6795,161.4766,268.1316,162.5818,267.0264,157.034,265.355,166.74" style="stroke:#181818;stroke-width:1.0;"/><text fill="#000000" font-family="sans-serif" font-size="13" lengthAdjust="spacing" textLength="21" x="340" y="101.0283">use</text></g><!--link application to specificCardExtensionApi--><g id="link_application_specificCardExtensionApi"><path d="M370.432,53.078 C345.702,62.671 316.198,74.491 290,86 C221.774,115.971 147.0022,153.9187 120.4162,167.5737 " fill="none" id="application-to-specificCardExtensionApi" style="stroke:#181818;stroke-width:1.0;stroke-dasharray:7.0,7.0;"/><polygon fill="#181818" points="115.079,170.315,124.9123,169.7612,119.5266,168.0306,121.2573,162.645,115.079,170.315" style="stroke:#181818;stroke-width:1.0;"/><text fill="#000000" font-family="sans-serif" font-size="13" lengthAdjust="spacing" textLength="21" x="291" y="101.0283">use</text></g><!--link application to readerApi--><g id="link_application_readerApi"><path d="M479.614,51.893 C516.879,66.25 566.61,87.663 607,113 C632.917,129.259 655.0381,149.9417 667.8231,162.6707 " fill="none" id="application-to-readerApi" style="stroke:#181818;stroke-width:1.0;stroke-dasharray:7.0,7.0;"/><polygon fill="#181818" points="672.075,166.904,668.5193,157.7194,668.5317,163.3762,662.8749,163.3887,672.075,166.904" style="stroke:#181818;stroke-width:1.0;"/><text fill="#000000" font-family="sans-serif" font-size="13" lengthAdjust="spacing" textLength="21" x="594" y="101.0283">use</text></g><!--link application to selectionApi--><g id="link_application_selectionApi"><path d="M451.196,56.141 C461.45,65.425 473.299,76.188 484,86 C516.331,115.643 550.0904,147.0814 566.9074,162.7754 " fill="none" id="application-to-selectionApi" style="stroke:#181818;stroke-width:1.0;stroke-dasharray:7.0,7.0;"/><polygon fill="#181818" points="571.294,166.869,567.4432,157.8041,567.6385,163.4576,561.985,163.6529,571.294,166.869" style="stroke:#181818;stroke-width:1.0;"/><text fill="#000000" font-family="sans-serif" font-size="13" lengthAdjust="spacing" textLength="21" x="504" y="101.0283">use</text></g><!--link application to selectionSpi--><g id="link_application_selectionSpi"><path d="M434.082,56.031 C446.653,88.6 466.5645,140.1905 474.7075,161.2875 " fill="none" id="application-to-selectionSpi" style="stroke:#181818;stroke-width:1.0;stroke-dasharray:7.0,7.0;"/><polygon fill="#181818" points="476.868,166.885,477.3589,157.0484,475.0676,162.2204,469.8955,159.9291,476.868,166.885" style="stroke:#181818;stroke-width:1.0;"/><text fill="#000000" font-family="sans-serif" font-size="13" lengthAdjust="spacing" textLength="21" x="454" y="101.0283">use</text></g><!--link application to serviceApi--><g id="link_application_serviceApi"><path d="M415.918,56.031 C403.347,88.6 383.4355,140.1905 375.2925,161.2875 " fill="none" id="application-to-serviceApi" style="stroke:#181818;stroke-width:1.0;stroke-dasharray:7.0,7.0;"/><polygon fill="#181818" points="373.132,166.885,380.1045,159.9291,374.9324,162.2204,372.6411,157.0484,373.132,166.885" style="stroke:#181818;stroke-width:1.0;"/><text fill="#000000" font-family="sans-serif" font-size="13" lengthAdjust="spacing" textLength="21" x="406" y="101.0283">use</text></g><!--link service to cardSpi--><g id="link_service_cardSpi"><path d="M324.972,284.984 C291.325,290.872 247.139,304.493 223,336 C201.249,364.39 206.332,405.1914 210.017,423.9426 " fill="none" id="service-to-cardSpi" style="stroke:#181818;stroke-width:1.0;stroke-dasharray:7.0,7.0;"/><polygon fill="#181818" points="211.174,429.83,213.3634,420.2276,210.2098,424.9238,205.5136,421.7702,211.174,429.83" style="stroke:#181818;stroke-width:1.0;"/><text fill="#000000" font-family="sans-serif" font-size="13" lengthAdjust="spacing" textLength="21" x="224" y="351.0283">use</text></g><!--reverse link commonApi to serviceApi--><g id="link_commonApi_serviceApi"><path d="M275.002,176 C295.629,176 340.127,176 360.874,176 " fill="none" id="commonApi-backto-serviceApi" style="stroke:#181818;stroke-width:1.0;stroke-dasharray:7.0,7.0;"/><polygon fill="#181818" points="269.002,176,278.002,180,274.002,176,278.002,172,269.002,176" style="stroke:#181818;stroke-width:1.0;"/><text fill="#000000" font-family="sans-serif" font-size="13" lengthAdjust="spacing" textLength="21" x="316.5" y="169.0283">use</text></g><!--link extension to cardApi--><g id="link_extension_cardApi"><path d="M142.068,287.68 C175.219,294.964 219.614,309.152 250,336 C280.089,362.585 293.5578,404.9166 298.5388,424.0417 " fill="none" id="extension-to-cardApi" style="stroke:#181818;stroke-width:1.0;stroke-dasharray:7.0,7.0;"/><polygon fill="#181818" points="300.051,429.848,301.6536,420.1304,298.7908,425.0094,293.9118,422.1467,300.051,429.848" style="stroke:#181818;stroke-width:1.0;"/><text fill="#000000" font-family="sans-serif" font-size="13" lengthAdjust="spacing" textLength="21" x="268" y="351.0283">use</text></g><!--link selectionApi to readerApi--><g id="link_selectionApi_readerApi"><path d="M589.229,176 C608.279,176 645.762,176 664.794,176 " fill="none" id="selectionApi-to-readerApi" style="stroke:#181818;stroke-width:1.0;stroke-dasharray:7.0,7.0;"/><polygon fill="#181818" points="670.794,176,661.794,172,665.794,176,661.794,180,670.794,176" style="stroke:#181818;stroke-width:1.0;"/><text fill="#000000" font-family="sans-serif" font-size="13" lengthAdjust="spacing" textLength="21" x="619.5" y="169.0283">use</text></g><!--reverse link selectionSpi to selectionApi--><g id="link_selectionSpi_selectionApi"><path d="M495.229,176 C514.279,176 551.762,176 570.794,176 " fill="none" id="selectionSpi-backto-selectionApi" style="stroke:#181818;stroke-width:1.0;stroke-dasharray:7.0,7.0;"/><polygon fill="#181818" points="489.229,176,498.229,180,494.229,176,498.229,172,489.229,176" style="stroke:#181818;stroke-width:1.0;"/><text fill="#000000" font-family="sans-serif" font-size="13" lengthAdjust="spacing" textLength="21" x="519.5" y="169.0283">use</text></g><!--SRC=[xPPTJ-9058Rl-olEmWLNW0ieOjIaj5ENY40ePjUu6rFR0HfBE-d7hiJuttVwCUrqskhr9ik5WVC-VMVEHyVfmDKLRBwXEqI_I597yI87Htu0TX14E00BmmNimv045_t-FZmufkTulkbPEEYPtg6_zVkXyUnW8-fQk6kcJzU4wDV0thbTuXXXN_fYuQtjOb2My-NwwG7Dvylle8vavKGLj3LI0Or7ob0HXDNzUZL7S8v68rbyQ3g_Hp0SJSxLgQ3Sh15Qm60iexEJglG00sM8Ja-aGah2Nq4xroRQH0WFG1jeGsqaX8U0Jj4OYVG8rB4wLLKXV0gAh6ZgG0YVmLIbIO-vy7oskArazNIl8vQF5BpOBZ5yum3wth2yFxQxWwtX19XJQDE8vs8tX3S9w6Vg-HRsbRYhqCvQ4CSxiCPMIXZcoyxt8jTAgCjB7rlNrz3MLAGYHJJ9vQnhgTSgyec3w-r8eYME8wHeuwfZGMJjJasVdQZ1CbQIFKorKsrQDMHwLitKxiR7sAttsyLIOZZHnaYh6kP0rehSyTXeU4pyPAGWLEkNwDayldCDjDqG-rl3nFyR-2yrS6_JevJLDg0jn5vu99Z5ymfLfIpNgi3sNAiSouBKYGzwPNctMYxGOgCdf_sZJ8XZcqPeU-ulC08mYj_vmXAXkHix32t5Enoe8AzchHYEusb89dOsZCLmjY21p1p8zqkBKLWQlWNeDSHk4A_vu_KrjowY3TO1mQQzjStO8uVBAyNFFSgMGUYZIO8uDwtTpYq-4e_G5yUWdImbcePg4_tf2hpFs2gfOmURINaP7B389xmkydfJJUCa70mwzd_R9iupo7utLZELsIvALSkqcaeb_IiD10tKLedjtwI0NcaI1yeS6E_cFPjTMTUNoapUp9QBT7gBNdOZqkKchStzhnUfKlbAO8Li6gyc-swUMzatgnvRdvMPKUdjfqpb4_GHn4zE4zTbPHG0Mb9wSP0a_eNlzQwv8bv0HEyDejvOb7gyoAF1Za_X4qJ_0CbhcW9v_abAMLFAKWpt7BmDXQHRa7mesk8dWXcLrk3stlFjtJuKCcwbHlHlIw2pXONSU3wTUNtpC4ylvkp5Av-CRNO_VUFUpVAvt8YikHbhGDYHqRnCFbmSy1S0]--></g></svg>