<?xml version="1.0" encoding="UTF-8" standalone="no"?><svg xmlns="http://www.w3.org/2000/svg" xmlns:xlink="http://www.w3.org/1999/xlink" contentStyleType="text/css" height="644px" preserveAspectRatio="none" style="width:1596px;height:644px;background:#FFFFFF;" version="1.1" viewBox="0 0 1596 644" width="1596px" zoomAndPan="magnify"><defs><filter height="1" id="boxsk9zhtxzkq0" width="1" x="0" y="0"><feFlood flood-color="#FFFF00" result="flood"/><feComposite in="SourceGraphic" in2="flood" operator="over"/></filter><filter height="1" id="boxsk9zhtxzkq1" width="1" x="0" y="0"><feFlood flood-color="#00FFFF" result="flood"/><feComposite in="SourceGraphic" in2="flood" operator="over"/></filter></defs><g><!--MD5=[57463d4f0d656587f620adfbe8cee83d]
cluster packCalypsonetPublic--><g id="cluster_packCalypsonetPublic"><path d="M903.5,6.0137 L1195.5,6.0137 A3.75,3.75 0 0 1 1198,8.5137 L1205,30.6348 L1586.5,30.6348 A2.5,2.5 0 0 1 1589,33.1348 L1589,121.5137 A2.5,2.5 0 0 1 1586.5,124.0137 L903.5,124.0137 A2.5,2.5 0 0 1 901,121.5137 L901,8.5137 A2.5,2.5 0 0 1 903.5,6.0137 " fill="#F8F9F9" style="stroke:#000000;stroke-width:1.5;"/><line style="stroke:#000000;stroke-width:1.5;" x1="901" x2="1205" y1="30.6348" y2="30.6348"/><text fill="#000000" font-family="sans-serif" font-size="14" font-weight="bold" lengthAdjust="spacing" textLength="291" x="905" y="23.1211">Calypso Networks Association public APIs</text></g><!--MD5=[29d756ef8ff9dbccebdbf9c7abb33baf]
cluster packCalypsonetPrivate--><g id="cluster_packCalypsonetPrivate"><path d="M1015.5,535.5137 L1560.5,535.5137 A3.75,3.75 0 0 1 1563,538.0137 L1570,560.1348 L1570.5,560.1348 A2.5,2.5 0 0 1 1573,562.6348 L1573,635.0137 A2.5,2.5 0 0 1 1570.5,637.5137 L1015.5,637.5137 A2.5,2.5 0 0 1 1013,635.0137 L1013,538.0137 A2.5,2.5 0 0 1 1015.5,535.5137 " fill="#D7DBDD" style="stroke:#000000;stroke-width:1.5;"/><line style="stroke:#000000;stroke-width:1.5;" x1="1013" x2="1570" y1="560.1348" y2="560.1348"/><text fill="#000000" font-family="sans-serif" font-size="14" font-weight="bold" lengthAdjust="spacing" textLength="544" x="1017" y="552.6211">Calypso Networks Association internal APIs  (hidden for the client application)</text></g><!--MD5=[fa748c0050d71d88d66b284603ec55cc]
cluster packMain--><g id="cluster_packMain"><path d="M8.5,164.0137 L315.5,164.0137 A3.75,3.75 0 0 1 318,166.5137 L325,188.6348 L1563.5,188.6348 A2.5,2.5 0 0 1 1566,191.1348 L1566,501.0137 A2.5,2.5 0 0 1 1563.5,503.5137 L8.5,503.5137 A2.5,2.5 0 0 1 6,501.0137 L6,166.5137 A2.5,2.5 0 0 1 8.5,164.0137 " fill="#F8F9F9" style="stroke:#000000;stroke-width:1.5;"/><line style="stroke:#000000;stroke-width:1.5;" x1="6" x2="325" y1="188.6348" y2="188.6348"/><text fill="#000000" font-family="sans-serif" font-size="14" font-weight="bold" lengthAdjust="spacing" textLength="306" x="10" y="181.1211">Keyple public components (APIs &amp; libraries)</text></g><!--MD5=[867378565e6f99e68f2ca6b68bfc0810]
cluster packApi--><g id="cluster_packApi"><path d="M97.5,535.5137 L476.5,535.5137 A3.75,3.75 0 0 1 479,538.0137 L486,560.1348 L939.5,560.1348 A2.5,2.5 0 0 1 942,562.6348 L942,635.0137 A2.5,2.5 0 0 1 939.5,637.5137 L97.5,637.5137 A2.5,2.5 0 0 1 95,635.0137 L95,538.0137 A2.5,2.5 0 0 1 97.5,535.5137 " fill="#D7DBDD" style="stroke:#000000;stroke-width:1.5;"/><line style="stroke:#000000;stroke-width:1.5;" x1="95" x2="486" y1="560.1348" y2="560.1348"/><text fill="#000000" font-family="sans-serif" font-size="14" font-weight="bold" lengthAdjust="spacing" textLength="378" x="99" y="552.6211">Keyple internal APIs (hidden for the client application)</text></g><!--MD5=[0fda63aba32982abbdb07b83db27d91d]
entity readerApi--><g id="elem_readerApi"><rect fill="#FDF2E9" height="48.6211" rx="2.5" ry="2.5" style="stroke:#E67E22;stroke-width:2.0;" width="290" x="944" y="51.0137"/><rect fill="#FDF2E9" height="10" style="stroke:#E67E22;stroke-width:2.0;" width="15" x="1214" y="56.0137"/><rect fill="#FDF2E9" height="2" style="stroke:#E67E22;stroke-width:2.0;" width="4" x="1212" y="58.0137"/><rect fill="#FDF2E9" height="2" style="stroke:#E67E22;stroke-width:2.0;" width="4" x="1212" y="62.0137"/><text fill="#000000" font-family="sans-serif" font-size="14" font-weight="bold" lengthAdjust="spacing" textLength="250" x="959" y="86.1211">calypsonet-terminal-reader-java-api</text></g><!--MD5=[1ca801befaff286e049057b0f9cc4296]
entity calypsoApi--><g id="elem_calypsoApi"><rect fill="#FDF2E9" height="48.6211" rx="2.5" ry="2.5" style="stroke:#E67E22;stroke-width:2.0;" width="296" x="1269" y="51.0137"/><rect fill="#FDF2E9" height="10" style="stroke:#E67E22;stroke-width:2.0;" width="15" x="1545" y="56.0137"/><rect fill="#FDF2E9" height="2" style="stroke:#E67E22;stroke-width:2.0;" width="4" x="1543" y="58.0137"/><rect fill="#FDF2E9" height="2" style="stroke:#E67E22;stroke-width:2.0;" width="4" x="1543" y="62.0137"/><text fill="#000000" font-family="sans-serif" font-size="14" font-weight="bold" lengthAdjust="spacing" textLength="256" x="1284" y="86.1211">calypsonet-terminal-calypso-java-api</text></g><!--MD5=[f74f7ef7641fa41957945dcfb119390e]
entity cardApi--><g id="elem_cardApi"><rect fill="#FDF2E9" height="48.6211" rx="2.5" ry="2.5" style="stroke:#E67E22;stroke-width:2.0;" width="274" x="1143" y="572.5137"/><rect fill="#FDF2E9" height="10" style="stroke:#E67E22;stroke-width:2.0;" width="15" x="1397" y="577.5137"/><rect fill="#FDF2E9" height="2" style="stroke:#E67E22;stroke-width:2.0;" width="4" x="1395" y="579.5137"/><rect fill="#FDF2E9" height="2" style="stroke:#E67E22;stroke-width:2.0;" width="4" x="1395" y="583.5137"/><text fill="#000000" font-family="sans-serif" font-size="14" font-weight="bold" lengthAdjust="spacing" textLength="234" x="1158" y="607.6211">calypsonet-terminal-card-java-api</text></g><!--MD5=[8e6a9284dc1da0ef8b54fdd8dc5bfba7]
entity plugin--><g id="elem_plugin"><rect fill="#FDEDEC" height="85.8633" rx="2.5" ry="2.5" style="stroke:#E74C3C;stroke-width:2.0;" width="237" x="49.5" y="223.5137"/><rect fill="#FDEDEC" height="10" style="stroke:#E74C3C;stroke-width:2.0;" width="15" x="266.5" y="228.5137"/><rect fill="#FDEDEC" height="2" style="stroke:#E74C3C;stroke-width:2.0;" width="4" x="264.5" y="230.5137"/><rect fill="#FDEDEC" height="2" style="stroke:#E74C3C;stroke-width:2.0;" width="4" x="264.5" y="234.5137"/><text fill="#000000" font-family="sans-serif" font-size="14" lengthAdjust="spacing" textLength="183" x="64.5" y="258.6211">Specific Plugin (PCSC, etc...)</text><text fill="#000000" font-family="sans-serif" font-size="14" lengthAdjust="spacing" textLength="23" x="64.5" y="277.2422">use</text><text fill="#000000" filter="url(#boxsk9zhtxzkq0)" font-family="sans-serif" font-size="14" font-weight="bold" lengthAdjust="spacing" textLength="129" x="91.5" y="277.2422">keyple-util-java-lib</text><text fill="#000000" font-family="sans-serif" font-size="14" lengthAdjust="spacing" textLength="23" x="64.5" y="295.8633">use</text><text fill="#000000" filter="url(#boxsk9zhtxzkq1)" font-family="sans-serif" font-size="14" font-weight="bold" lengthAdjust="spacing" textLength="170" x="91.5" y="295.8633">keyple-common-java-api</text></g><!--MD5=[535f43d417660373b2263710d106a2e4]
entity extension--><g id="elem_extension"><rect fill="#E9F7EF" height="85.8633" rx="2.5" ry="2.5" style="stroke:#27AE60;stroke-width:2.0;" width="293" x="1224.5" y="369.5137"/><rect fill="#E9F7EF" height="10" style="stroke:#27AE60;stroke-width:2.0;" width="15" x="1497.5" y="374.5137"/><rect fill="#E9F7EF" height="2" style="stroke:#27AE60;stroke-width:2.0;" width="4" x="1495.5" y="376.5137"/><rect fill="#E9F7EF" height="2" style="stroke:#27AE60;stroke-width:2.0;" width="4" x="1495.5" y="380.5137"/><text fill="#000000" font-family="sans-serif" font-size="14" lengthAdjust="spacing" textLength="253" x="1239.5" y="404.6211">Specific Card Extension (Calypso, etc...)</text><text fill="#000000" font-family="sans-serif" font-size="14" lengthAdjust="spacing" textLength="23" x="1239.5" y="423.2422">use</text><text fill="#000000" filter="url(#boxsk9zhtxzkq0)" font-family="sans-serif" font-size="14" font-weight="bold" lengthAdjust="spacing" textLength="129" x="1266.5" y="423.2422">keyple-util-java-lib</text><text fill="#000000" font-family="sans-serif" font-size="14" lengthAdjust="spacing" textLength="23" x="1239.5" y="441.8633">use</text><text fill="#000000" filter="url(#boxsk9zhtxzkq1)" font-family="sans-serif" font-size="14" font-weight="bold" lengthAdjust="spacing" textLength="170" x="1266.5" y="441.8633">keyple-common-java-api</text></g><!--MD5=[38bfa9dc6018363cafe15f923a4b8db9]
entity service--><g id="elem_service"><rect fill="#FEFECE" height="85.8633" rx="2.5" ry="2.5" style="stroke:#D4AC0D;stroke-width:2.0;" width="237" x="952.5" y="369.5137"/><rect fill="#FEFECE" height="10" style="stroke:#D4AC0D;stroke-width:2.0;" width="15" x="1169.5" y="374.5137"/><rect fill="#FEFECE" height="2" style="stroke:#D4AC0D;stroke-width:2.0;" width="4" x="1167.5" y="376.5137"/><rect fill="#FEFECE" height="2" style="stroke:#D4AC0D;stroke-width:2.0;" width="4" x="1167.5" y="380.5137"/><text fill="#000000" font-family="sans-serif" font-size="14" font-weight="bold" lengthAdjust="spacing" textLength="160" x="967.5" y="404.6211">keyple-service-java-lib</text><text fill="#000000" font-family="sans-serif" font-size="14" lengthAdjust="spacing" textLength="23" x="967.5" y="423.2422">use</text><text fill="#000000" filter="url(#boxsk9zhtxzkq0)" font-family="sans-serif" font-size="14" font-weight="bold" lengthAdjust="spacing" textLength="129" x="994.5" y="423.2422">keyple-util-java-lib</text><text fill="#000000" font-family="sans-serif" font-size="14" lengthAdjust="spacing" textLength="23" x="967.5" y="441.8633">use</text><text fill="#000000" filter="url(#boxsk9zhtxzkq1)" font-family="sans-serif" font-size="14" font-weight="bold" lengthAdjust="spacing" textLength="170" x="994.5" y="441.8633">keyple-common-java-api</text></g><!--MD5=[91a1a4d9fd79d02b8727f340600b76ba]
entity serviceResource--><g id="elem_serviceResource"><rect fill="#EAECEE" height="67.2422" rx="2.5" ry="2.5" style="stroke:#2C3E50;stroke-width:2.0;" width="269" x="952.5" y="233.0137"/><rect fill="#EAECEE" height="10" style="stroke:#2C3E50;stroke-width:2.0;" width="15" x="1201.5" y="238.0137"/><rect fill="#EAECEE" height="2" style="stroke:#2C3E50;stroke-width:2.0;" width="4" x="1199.5" y="240.0137"/><rect fill="#EAECEE" height="2" style="stroke:#2C3E50;stroke-width:2.0;" width="4" x="1199.5" y="244.0137"/><text fill="#000000" font-family="sans-serif" font-size="14" font-weight="bold" lengthAdjust="spacing" textLength="229" x="967.5" y="268.1211">keyple-service-resource-java-lib</text><text fill="#000000" font-family="sans-serif" font-size="14" lengthAdjust="spacing" textLength="23" x="967.5" y="286.7422">use</text><text fill="#000000" filter="url(#boxsk9zhtxzkq0)" font-family="sans-serif" font-size="14" font-weight="bold" lengthAdjust="spacing" textLength="129" x="994.5" y="286.7422">keyple-util-java-lib</text></g><!--MD5=[57220784cd10fd02b95ed95124c16164]
entity network--><g id="elem_network"><rect fill="#F4ECF7" height="67.2422" rx="2.5" ry="2.5" style="stroke:#8E44AD;stroke-width:2.0;" width="286" x="466" y="233.0137"/><rect fill="#F4ECF7" height="10" style="stroke:#8E44AD;stroke-width:2.0;" width="15" x="732" y="238.0137"/><rect fill="#F4ECF7" height="2" style="stroke:#8E44AD;stroke-width:2.0;" width="4" x="730" y="240.0137"/><rect fill="#F4ECF7" height="2" style="stroke:#8E44AD;stroke-width:2.0;" width="4" x="730" y="244.0137"/><text fill="#000000" font-family="sans-serif" font-size="14" font-weight="bold" lengthAdjust="spacing" textLength="246" x="481" y="268.1211">keyple-distributed-network-java-lib</text><text fill="#000000" font-family="sans-serif" font-size="14" lengthAdjust="spacing" textLength="23" x="481" y="286.7422">use</text><text fill="#000000" filter="url(#boxsk9zhtxzkq0)" font-family="sans-serif" font-size="14" font-weight="bold" lengthAdjust="spacing" textLength="129" x="508" y="286.7422">keyple-util-java-lib</text></g><!--MD5=[d4fd26f9614fa07fe76bdcffa998e3d3]
entity local--><g id="elem_local"><rect fill="#F4ECF7" height="85.8633" rx="2.5" ry="2.5" style="stroke:#8E44AD;stroke-width:2.0;" width="262" x="634" y="369.5137"/><rect fill="#F4ECF7" height="10" style="stroke:#8E44AD;stroke-width:2.0;" width="15" x="876" y="374.5137"/><rect fill="#F4ECF7" height="2" style="stroke:#8E44AD;stroke-width:2.0;" width="4" x="874" y="376.5137"/><rect fill="#F4ECF7" height="2" style="stroke:#8E44AD;stroke-width:2.0;" width="4" x="874" y="380.5137"/><text fill="#000000" font-family="sans-serif" font-size="14" font-weight="bold" lengthAdjust="spacing" textLength="222" x="649" y="404.6211">keyple-distributed-local-java-lib</text><text fill="#000000" font-family="sans-serif" font-size="14" lengthAdjust="spacing" textLength="23" x="649" y="423.2422">use</text><text fill="#000000" filter="url(#boxsk9zhtxzkq0)" font-family="sans-serif" font-size="14" font-weight="bold" lengthAdjust="spacing" textLength="129" x="676" y="423.2422">keyple-util-java-lib</text><text fill="#000000" font-family="sans-serif" font-size="14" lengthAdjust="spacing" textLength="23" x="649" y="441.8633">use</text><text fill="#000000" filter="url(#boxsk9zhtxzkq1)" font-family="sans-serif" font-size="14" font-weight="bold" lengthAdjust="spacing" textLength="170" x="676" y="441.8633">keyple-common-java-api</text></g><!--MD5=[200d7cc177ce404b822df68e5d127056]
entity remote--><g id="elem_remote"><rect fill="#F4ECF7" height="85.8633" rx="2.5" ry="2.5" style="stroke:#8E44AD;stroke-width:2.0;" width="279" x="319.5" y="369.5137"/><rect fill="#F4ECF7" height="10" style="stroke:#8E44AD;stroke-width:2.0;" width="15" x="578.5" y="374.5137"/><rect fill="#F4ECF7" height="2" style="stroke:#8E44AD;stroke-width:2.0;" width="4" x="576.5" y="376.5137"/><rect fill="#F4ECF7" height="2" style="stroke:#8E44AD;stroke-width:2.0;" width="4" x="576.5" y="380.5137"/><text fill="#000000" font-family="sans-serif" font-size="14" font-weight="bold" lengthAdjust="spacing" textLength="239" x="334.5" y="404.6211">keyple-distributed-remote-java-lib</text><text fill="#000000" font-family="sans-serif" font-size="14" lengthAdjust="spacing" textLength="23" x="334.5" y="423.2422">use</text><text fill="#000000" filter="url(#boxsk9zhtxzkq0)" font-family="sans-serif" font-size="14" font-weight="bold" lengthAdjust="spacing" textLength="129" x="361.5" y="423.2422">keyple-util-java-lib</text><text fill="#000000" font-family="sans-serif" font-size="14" lengthAdjust="spacing" textLength="23" x="334.5" y="441.8633">use</text><text fill="#000000" filter="url(#boxsk9zhtxzkq1)" font-family="sans-serif" font-size="14" font-weight="bold" lengthAdjust="spacing" textLength="170" x="361.5" y="441.8633">keyple-common-java-api</text></g><!--MD5=[c91beeae9d23cda8fa2ee4b23a5f449e]
entity pluginApi--><g id="elem_pluginApi"><rect fill="#FEFECE" height="48.6211" rx="2.5" ry="2.5" style="stroke:#D4AC0D;stroke-width:2.0;" width="195" x="111.5" y="572.5137"/><rect fill="#FEFECE" height="10" style="stroke:#D4AC0D;stroke-width:2.0;" width="15" x="286.5" y="577.5137"/><rect fill="#FEFECE" height="2" style="stroke:#D4AC0D;stroke-width:2.0;" width="4" x="284.5" y="579.5137"/><rect fill="#FEFECE" height="2" style="stroke:#D4AC0D;stroke-width:2.0;" width="4" x="284.5" y="583.5137"/><text fill="#000000" font-family="sans-serif" font-size="14" font-weight="bold" lengthAdjust="spacing" textLength="155" x="126.5" y="607.6211">keyple-plugin-java-api</text></g><!--MD5=[7befd9ad872e32f647489e758c0991a9]
entity distributedLocalApi--><g id="elem_distributedLocalApi"><rect fill="#FEFECE" height="48.6211" rx="2.5" ry="2.5" style="stroke:#D4AC0D;stroke-width:2.0;" width="266" x="660" y="572.5137"/><rect fill="#FEFECE" height="10" style="stroke:#D4AC0D;stroke-width:2.0;" width="15" x="906" y="577.5137"/><rect fill="#FEFECE" height="2" style="stroke:#D4AC0D;stroke-width:2.0;" width="4" x="904" y="579.5137"/><rect fill="#FEFECE" height="2" style="stroke:#D4AC0D;stroke-width:2.0;" width="4" x="904" y="583.5137"/><text fill="#000000" font-family="sans-serif" font-size="14" font-weight="bold" lengthAdjust="spacing" textLength="226" x="675" y="607.6211">keyple-distributed-local-java-api</text></g><!--MD5=[04ffbea9664a4d8b3a5d5b2bcefdf330]
entity distributedRemoteApi--><g id="elem_distributedRemoteApi"><rect fill="#FEFECE" height="48.6211" rx="2.5" ry="2.5" style="stroke:#D4AC0D;stroke-width:2.0;" width="283" x="341.5" y="572.5137"/><rect fill="#FEFECE" height="10" style="stroke:#D4AC0D;stroke-width:2.0;" width="15" x="604.5" y="577.5137"/><rect fill="#FEFECE" height="2" style="stroke:#D4AC0D;stroke-width:2.0;" width="4" x="602.5" y="579.5137"/><rect fill="#FEFECE" height="2" style="stroke:#D4AC0D;stroke-width:2.0;" width="4" x="602.5" y="583.5137"/><text fill="#000000" font-family="sans-serif" font-size="14" font-weight="bold" lengthAdjust="spacing" textLength="243" x="356.5" y="607.6211">keyple-distributed-remote-java-api</text></g><!--MD5=[37c33c71ce9550fe283f62c54b59719b]
entity application--><g id="elem_application"><rect fill="#EBF5FB" height="48.6211" rx="2.5" ry="2.5" style="stroke:#3498DB;stroke-width:2.0;" width="149" x="332.5" y="51.0137"/><rect fill="#EBF5FB" height="10" style="stroke:#3498DB;stroke-width:2.0;" width="15" x="461.5" y="56.0137"/><rect fill="#EBF5FB" height="2" style="stroke:#3498DB;stroke-width:2.0;" width="4" x="459.5" y="58.0137"/><rect fill="#EBF5FB" height="2" style="stroke:#3498DB;stroke-width:2.0;" width="4" x="459.5" y="62.0137"/><text fill="#000000" font-family="sans-serif" font-size="14" lengthAdjust="spacing" textLength="109" x="347.5" y="86.1211">Client Application</text></g><!--MD5=[ff5ebf69d7e821c0dbbf77d5fe3170c5]
link application to packCalypsonetPublic--><g id="link_application_packCalypsonetPublic"><path d="M481.516,75.5137 C552.6935,75.5137 623.8712,75.5137 695.0491,75.5137 C730.6381,75.5137 766.227,75.5137 801.816,75.5137 C819.6105,75.5137 837.405,75.5137 855.1995,75.5137 C864.0968,75.5137 872.994,75.5137 881.8913,75.5137 C886.3399,75.5137 890.7885,75.5137 895.2371,75.5137 C896.3493,75.5137 897.4614,75.5137 898.5736,75.5137 C899.1297,75.5137 899.6858,75.5137 900.2418,75.5137 " fill="none" id="application-to-packCalypsonetPublic" style="stroke:#3498DB;stroke-width:2.0;"/><polygon fill="#3498DB" points="900.2418,75.5137,891.2418,71.5137,895.2418,75.5137,891.2418,79.5137,900.2418,75.5137" style="stroke:#3498DB;stroke-width:2.0;"/></g><!--MD5=[1488bd814bfce1c270d10cdde1d74a4f]
link application to packMain--><g id="link_application_packMain"><path d="M332.135,80.8747 C235.113,88.1447 73.543,106.2947 33,148.0137 C28.4635,152.6817 24.7558,157.9799 21.7415,163.6826 " fill="none" id="application-to-packMain" style="stroke:#3498DB;stroke-width:2.0;"/><polygon fill="#3498DB" points="21.7415,163.6826,29.4836,157.595,24.078,159.2622,22.4108,153.8566,21.7415,163.6826" style="stroke:#3498DB;stroke-width:2.0;"/></g><!--MD5=[f3e8fc8d2e795f19f51e601c66efb1b9]
link calypsoApi to readerApi--><g id="link_calypsoApi_readerApi"><path d="M1268.75,75.5137 C1258.92,75.5137 1249.08,75.5137 1239.25,75.5137 " fill="none" id="calypsoApi-to-readerApi" style="stroke:#E67E22;stroke-width:2.0;"/><polygon fill="#E67E22" points="1234.1,75.5137,1243.1,79.5137,1239.1,75.5137,1243.1,71.5137,1234.1,75.5137" style="stroke:#E67E22;stroke-width:2.0;"/></g><!--MD5=[b84145f68a9638efe3b1cde23adb3c4f]
link extension to cardApi--><g id="link_extension_cardApi"><path d="M1349.89,455.8417 C1332.75,490.2247 1309.04,537.7647 1294.12,567.6944 " fill="none" id="extension-to-cardApi" style="stroke:#27AE60;stroke-width:2.0;"/><polygon fill="#27AE60" points="1291.8,572.3421,1299.3975,566.0749,1294.0324,567.8681,1292.2392,562.503,1291.8,572.3421" style="stroke:#27AE60;stroke-width:2.0;"/></g><!--MD5=[39b1edf8889298d7473da6cfa063b6c7]
reverse link readerApi to extension--><g id="link_readerApi_extension"><path d="M1149.9,101.9717 C1180.06,114.1737 1217.18,128.5827 1251,140.0137 C1263.26,144.1577 1269.59,139.1297 1279,148.0137 C1341.54,207.0527 1361.58,310.8987 1368,369.0337 " fill="none" id="readerApi-backto-extension" style="stroke:#27AE60;stroke-width:2.0;"/><polygon fill="#27AE60" points="1145.12,100.0327,1151.9479,107.1305,1149.7511,101.9177,1154.9639,99.7208,1145.12,100.0327" style="stroke:#27AE60;stroke-width:2.0;"/></g><!--MD5=[4b7e4247c0bcddb93fd1479137d7111a]
reverse link calypsoApi to extension--><g id="link_calypsoApi_extension"><path d="M1413.06,105.2157 C1404.93,164.4037 1386.28,300.2467 1376.78,369.4017 " fill="none" id="calypsoApi-backto-extension" style="stroke:#27AE60;stroke-width:2.0;stroke-dasharray:7.0,7.0;"/><polygon fill="#27AE60" points="1413.77,100.0707,1408.584,108.4436,1413.0905,105.0243,1416.5098,109.5308,1413.77,100.0707" style="stroke:#27AE60;stroke-width:2.0;"/></g><!--MD5=[05d0944eb5037f285fc00ff169c3449f]
reverse link serviceResource to extension--><g id="link_serviceResource_extension"><path d="M1156.24,302.6187 C1195.96,322.7587 1246.09,348.1767 1287.92,369.3897 " fill="none" id="serviceResource-backto-extension" style="stroke:#27AE60;stroke-width:2.0;stroke-dasharray:7.0,7.0;"/><polygon fill="#27AE60" points="1151.44,300.1897,1157.664,307.8226,1155.9012,302.4474,1161.2764,300.6847,1151.44,300.1897" style="stroke:#27AE60;stroke-width:2.0;"/></g><!--MD5=[e41df91f541512673a0e31599b8ee993]
link plugin to pluginApi--><g id="link_plugin_pluginApi"><path d="M173.276,309.7867 C181.737,377.5757 198.123,508.8677 205.385,567.0503 " fill="none" id="plugin-to-pluginApi" style="stroke:#E74C3C;stroke-width:2.0;"/><polygon fill="#E74C3C" points="206.017,572.1149,208.8715,562.6887,205.3977,567.1534,200.9331,563.6796,206.017,572.1149" style="stroke:#E74C3C;stroke-width:2.0;"/></g><!--MD5=[3bb137f5d2fdf2eddbf56d075b4f5976]
reverse link readerApi to service--><g id="link_readerApi_service"><path d="M1183.61,102.2097 C1205.46,112.7697 1226.06,127.5147 1239,148.0137 C1277.31,208.7137 1274.2,246.9607 1239,309.5137 C1224.86,334.6407 1201.75,354.2937 1177.13,369.3477 " fill="none" id="readerApi-backto-service" style="stroke:#D4AC0D;stroke-width:2.0;"/><polygon fill="#D4AC0D" points="1178.94,100.0197,1185.3836,107.4682,1183.4651,102.1466,1188.7867,100.2281,1178.94,100.0197" style="stroke:#D4AC0D;stroke-width:2.0;"/></g><!--MD5=[dd1eccd1e7426faad07553cf68d2ac5f]
link service to pluginApi--><g id="link_service_pluginApi"><path d="M1023.64,455.7127 C993.86,479.3917 953.351,506.6857 912,519.5137 C849.594,538.8727 386.877,509.7447 324,527.5137 C294.439,535.8677 264.744,553.8579 242.935,569.3059 " fill="none" id="service-to-pluginApi" style="stroke:#D4AC0D;stroke-width:2.0;"/><polygon fill="#D4AC0D" points="238.681,572.358,248.3255,570.3622,242.7438,569.4435,243.6624,563.8618,238.681,572.358" style="stroke:#D4AC0D;stroke-width:2.0;"/></g><!--MD5=[2523936cee4f99c1b1f73b34e1a6b0f7]
link service to cardApi--><g id="link_service_cardApi"><path d="M1119.21,455.6117 C1159.06,490.4097 1214.48,538.7987 1248.75,568.725 " fill="none" id="service-to-cardApi" style="stroke:#D4AC0D;stroke-width:2.0;"/><polygon fill="#D4AC0D" points="1252.82,572.2808,1248.687,563.341,1249.0594,568.9856,1243.4148,569.358,1252.82,572.2808" style="stroke:#D4AC0D;stroke-width:2.0;"/></g><!--MD5=[911ff9493972b9d616a6a191b3acdad0]
link service to distributedRemoteApi--><g id="link_service_distributedRemoteApi"><path d="M1023.22,455.7457 C993.45,479.2757 953.089,506.4057 912,519.5137 C854.813,537.7577 700.603,514.5197 642,527.5137 C602.704,536.2267 561.012,554.5684 530.183,570.0808 " fill="none" id="service-to-distributedRemoteApi" style="stroke:#D4AC0D;stroke-width:2.0;"/><polygon fill="#D4AC0D" points="525.715,572.3475,535.551,571.8441,530.1743,570.0859,531.9325,564.7092,525.715,572.3475" style="stroke:#D4AC0D;stroke-width:2.0;"/></g><!--MD5=[35229a0a0734c85a6b51f1905fa13c02]
link service to distributedLocalApi--><g id="link_service_distributedLocalApi"><path d="M1008.48,455.5417 C979.248,475.1027 943.92,498.6157 912,519.5137 C886.379,536.2877 857.486,554.8699 834.586,569.5194 " fill="none" id="service-to-distributedLocalApi" style="stroke:#D4AC0D;stroke-width:2.0;"/><polygon fill="#D4AC0D" points="830.089,572.3952,839.8261,570.9155,834.3011,569.7011,835.5155,564.1761,830.089,572.3952" style="stroke:#D4AC0D;stroke-width:2.0;"/></g><!--MD5=[c7ba9937d98748f72832d88fb369b1c8]
reverse link readerApi to serviceResource--><g id="link_readerApi_serviceResource"><path d="M1088.69,105.3737 C1088.33,139.6897 1087.73,196.8267 1087.35,232.7657 " fill="none" id="readerApi-backto-serviceResource" style="stroke:#2C3E50;stroke-width:2.0;"/><polygon fill="#2C3E50" points="1088.75,100.0687,1084.6551,109.0259,1088.6971,105.0684,1092.6546,109.1105,1088.75,100.0687" style="stroke:#2C3E50;stroke-width:2.0;"/></g><!--MD5=[ded5d3d861a905cc39dafceb68152eca]
link serviceResource to service--><g id="link_serviceResource_service"><path d="M1083.37,300.1897 C1081.26,319.1647 1078.57,343.3957 1076.23,364.4037 " fill="none" id="serviceResource-to-service" style="stroke:#2C3E50;stroke-width:2.0;"/><polygon fill="#2C3E50" points="1075.68,369.3897,1080.6502,360.8869,1076.2326,364.4203,1072.6992,360.0027,1075.68,369.3897" style="stroke:#2C3E50;stroke-width:2.0;"/></g><!--MD5=[6b8af92c48757bac50848b7abb7c7576]
reverse link network to local--><g id="link_network_local"><path d="M648.099,303.6057 C669.744,323.5847 696.759,348.5217 719.365,369.3897 " fill="none" id="network-backto-local" style="stroke:#8E44AD;stroke-width:2.0;"/><polygon fill="#8E44AD" points="644.399,300.1897,648.2994,309.2333,648.0731,303.581,653.7255,303.3547,644.399,300.1897" style="stroke:#8E44AD;stroke-width:2.0;"/></g><!--MD5=[f8b0df4bff9d8c01b39b5fe2d94c34a6]
link local to distributedLocalApi--><g id="link_local_distributedLocalApi"><path d="M771.494,455.8417 C776.748,490.0827 784.003,537.3727 788.598,567.324 " fill="none" id="local-to-distributedLocalApi" style="stroke:#8E44AD;stroke-width:2.0;"/><polygon fill="#8E44AD" points="789.368,572.3421,791.9567,562.8395,788.6097,567.3999,784.0493,564.0528,789.368,572.3421" style="stroke:#8E44AD;stroke-width:2.0;"/></g><!--MD5=[eaffbedb458b00db5e9113ca809c1ddf]
reverse link network to remote--><g id="link_network_remote"><path d="M571.146,303.8537 C550.378,323.7907 524.526,348.6087 502.879,369.3897 " fill="none" id="network-backto-remote" style="stroke:#8E44AD;stroke-width:2.0;"/><polygon fill="#8E44AD" points="574.963,300.1897,565.7004,303.5369,571.3561,303.6523,571.2406,309.308,574.963,300.1897" style="stroke:#8E44AD;stroke-width:2.0;"/></g><!--MD5=[167487473dec959b258d2eb14d4f8ae2]
link remote to distributedRemoteApi--><g id="link_remote_distributedRemoteApi"><path d="M464.566,455.8417 C469.069,490.0827 475.288,537.3727 479.227,567.324 " fill="none" id="remote-to-distributedRemoteApi" style="stroke:#8E44AD;stroke-width:2.0;"/><polygon fill="#8E44AD" points="479.887,572.3421,482.6792,562.8973,479.235,567.3848,474.7475,563.9405,479.887,572.3421" style="stroke:#8E44AD;stroke-width:2.0;"/></g><!--MD5=[5fab6e96c6aa12bd14cf02a0f3c1eb1f]
@startuml

' == THEME ==

'Couleurs issues de : https://htmlcolorcodes.com/fr/tableau-de-couleur/tableau-de-couleur-design-plat/
!define C_GREY1 F8F9F9
!define C_GREY2 F2F3F4
!define C_GREY3 E5E7E9
!define C_GREY4 D7DBDD
!define COLOR_YELLOW D4AC0D
!define COLOR_RED E74C3C
!define COLOR_PURPLE 8E44AD
!define COLOR_BLUE 3498DB
!define COLOR_GREEN 27AE60
!define COLOR_ORANGE E67E22
!define COLOR_GREY 2C3E50

' - - Styles that don't work with new version of plantuml - -
skinparam stereotypeABorderColor #A9DCDF
skinparam stereotypeIBorderColor #B4A7E5
skinparam stereotypeCBorderColor #ADD1B2
skinparam stereotypeEBorderColor #EB93DF
' - - END - -

skinparam ArrowThickness 2

skinparam component {
    BorderThickness 2
    ' Yellow
    BackgroundColor #FEFECE
    BorderColor #D4AC0D
    ' Red
    BackgroundColor<<red>> #FDEDEC
    BorderColor<<red>> #E74C3C
    ' Purple
    BackgroundColor<<purple>> #F4ECF7
    BorderColor<<purple>> #8E44AD
    ' blue
    BackgroundColor<<blue>> #EBF5FB
    BorderColor<<blue>> #3498DB
    ' Green
    BackgroundColor<<green>> #E9F7EF
    BorderColor<<green>> #27AE60
    ' Orange
    BackgroundColor<<orange>> #FDF2E9
    BorderColor<<orange>> #E67E22
    ' Grey
    BackgroundColor<<grey>> #EAECEE
    BorderColor<<grey>> #2C3E50
}
skinparam interface {
    BorderThickness 2
    ' Yellow
    BackgroundColor #FEFECE
    BorderColor #D4AC0D
    ' Red
    BackgroundColor<<red>> #FDEDEC
    BorderColor<<red>> #E74C3C
    ' Purple
    BackgroundColor<<purple>> #F4ECF7
    BorderColor<<purple>> #8E44AD
    ' blue
    BackgroundColor<<blue>> #EBF5FB
    BorderColor<<blue>> #3498DB
    ' Green
    BackgroundColor<<green>> #E9F7EF
    BorderColor<<green>> #27AE60
    ' Orange
    BackgroundColor<<orange>> #FDF2E9
    BorderColor<<orange>> #E67E22
    ' Grey
    BackgroundColor<<grey>> #EAECEE
    BorderColor<<grey>> #2C3E50
}
hide <<red>> stereotype
hide <<purple>> stereotype
hide <<blue>> stereotype
hide <<green>> stereotype
hide <<orange>> stereotype
hide <<grey>> stereotype

' == COMPONENTS ==

[Client Application] as application <<blue>>

package "Calypso Networks Association public APIs" as packCalypsonetPublic #C_GREY1 {
    [**calypsonet-terminal-reader-java-api**] as readerApi <<orange>>
    [**calypsonet-terminal-calypso-java-api**] as calypsoApi <<orange>>
}
package "Calypso Networks Association internal APIs  (hidden for the client application)" as packCalypsonetPrivate #C_GREY4 {
    [**calypsonet-terminal-card-java-api**] as cardApi <<orange>>
}
package "Keyple public components (APIs & libraries)" as packMain #C_GREY1 {
    together {
        [Specific Card Extension (Calypso, etc...)\nuse <back:yellow>**keyple-util-java-lib**</back>\nuse <back:cyan>**keyple-common-java-api**</back>] as extension <<green>>
        [**keyple-service-java-lib**\nuse <back:yellow>**keyple-util-java-lib**</back>\nuse <back:cyan>**keyple-common-java-api**</back>] as service
        [**keyple-service-resource-java-lib**\nuse <back:yellow>**keyple-util-java-lib**</back>] as serviceResource <<grey>>
    }
    [Specific Plugin (PCSC, etc...)\nuse <back:yellow>**keyple-util-java-lib**</back>\nuse <back:cyan>**keyple-common-java-api**</back>] as plugin <<red>>
    together {
        [**keyple-distributed-network-java-lib**\nuse <back:yellow>**keyple-util-java-lib**</back>] as network <<purple>>
        [**keyple-distributed-local-java-lib**\nuse <back:yellow>**keyple-util-java-lib**</back>\nuse <back:cyan>**keyple-common-java-api**</back>] as local <<purple>>
        [**keyple-distributed-remote-java-lib**\nuse <back:yellow>**keyple-util-java-lib**</back>\nuse <back:cyan>**keyple-common-java-api**</back>] as remote <<purple>>
    }
}
package "Keyple internal APIs (hidden for the client application)" as packApi #C_GREY4 {
    [**keyple-plugin-java-api**] as pluginApi
    [**keyple-distributed-local-java-api**] as distributedLocalApi
    [**keyple-distributed-remote-java-api**] as distributedRemoteApi
}

' == ASSOCIATIONS ==

application -right-> packCalypsonetPublic #COLOR_BLUE
application - -> packMain #COLOR_BLUE

calypsoApi -right-> readerApi #COLOR_ORANGE

extension - -> cardApi #COLOR_GREEN
extension -up-> readerApi #COLOR_GREEN
extension .up.> calypsoApi #COLOR_GREEN
extension .up.> serviceResource #COLOR_GREEN

plugin - -> pluginApi #COLOR_RED

service -up-> readerApi #COLOR_YELLOW
service - -> pluginApi #COLOR_YELLOW
service - -> cardApi #COLOR_YELLOW
service - -> distributedRemoteApi #COLOR_YELLOW
service - -> distributedLocalApi #COLOR_YELLOW

serviceResource -up-> readerApi #COLOR_GREY
serviceResource - -> service #COLOR_GREY

local -up-> network #COLOR_PURPLE
local - -> distributedLocalApi #COLOR_PURPLE

remote -up-> network #COLOR_PURPLE
remote - -> distributedRemoteApi #COLOR_PURPLE

' == LAYOUT ==

'local -[hidden]-> cardApi
'local -[hidden]-> pluginApi
'packMain - -> packApi

@enduml

@startuml



skinparam stereotypeABorderColor #A9DCDF
skinparam stereotypeIBorderColor #B4A7E5
skinparam stereotypeCBorderColor #ADD1B2
skinparam stereotypeEBorderColor #EB93DF

skinparam ArrowThickness 2

skinparam component {
    BorderThickness 2
    BackgroundColor #FEFECE
    BorderColor #D4AC0D
    BackgroundColor<<red>> #FDEDEC
    BorderColor<<red>> #E74C3C
    BackgroundColor<<purple>> #F4ECF7
    BorderColor<<purple>> #8E44AD
    BackgroundColor<<blue>> #EBF5FB
    BorderColor<<blue>> #3498DB
    BackgroundColor<<green>> #E9F7EF
    BorderColor<<green>> #27AE60
    BackgroundColor<<orange>> #FDF2E9
    BorderColor<<orange>> #E67E22
    BackgroundColor<<grey>> #EAECEE
    BorderColor<<grey>> #2C3E50
}
skinparam interface {
    BorderThickness 2
    BackgroundColor #FEFECE
    BorderColor #D4AC0D
    BackgroundColor<<red>> #FDEDEC
    BorderColor<<red>> #E74C3C
    BackgroundColor<<purple>> #F4ECF7
    BorderColor<<purple>> #8E44AD
    BackgroundColor<<blue>> #EBF5FB
    BorderColor<<blue>> #3498DB
    BackgroundColor<<green>> #E9F7EF
    BorderColor<<green>> #27AE60
    BackgroundColor<<orange>> #FDF2E9
    BorderColor<<orange>> #E67E22
    BackgroundColor<<grey>> #EAECEE
    BorderColor<<grey>> #2C3E50
}
hide <<red>> stereotype
hide <<purple>> stereotype
hide <<blue>> stereotype
hide <<green>> stereotype
hide <<orange>> stereotype
hide <<grey>> stereotype


[Client Application] as application <<blue>>

package "Calypso Networks Association public APIs" as packCalypsonetPublic #F8F9F9 {
    [**calypsonet-terminal-reader-java-api**] as readerApi <<orange>>
    [**calypsonet-terminal-calypso-java-api**] as calypsoApi <<orange>>
}
package "Calypso Networks Association internal APIs  (hidden for the client application)" as packCalypsonetPrivate #D7DBDD {
    [**calypsonet-terminal-card-java-api**] as cardApi <<orange>>
}
package "Keyple public components (APIs & libraries)" as packMain #F8F9F9 {
    together {
        [Specific Card Extension (Calypso, etc...)\nuse <back:yellow>**keyple-util-java-lib**</back>\nuse <back:cyan>**keyple-common-java-api**</back>] as extension <<green>>
        [**keyple-service-java-lib**\nuse <back:yellow>**keyple-util-java-lib**</back>\nuse <back:cyan>**keyple-common-java-api**</back>] as service
        [**keyple-service-resource-java-lib**\nuse <back:yellow>**keyple-util-java-lib**</back>] as serviceResource <<grey>>
    }
    [Specific Plugin (PCSC, etc...)\nuse <back:yellow>**keyple-util-java-lib**</back>\nuse <back:cyan>**keyple-common-java-api**</back>] as plugin <<red>>
    together {
        [**keyple-distributed-network-java-lib**\nuse <back:yellow>**keyple-util-java-lib**</back>] as network <<purple>>
        [**keyple-distributed-local-java-lib**\nuse <back:yellow>**keyple-util-java-lib**</back>\nuse <back:cyan>**keyple-common-java-api**</back>] as local <<purple>>
        [**keyple-distributed-remote-java-lib**\nuse <back:yellow>**keyple-util-java-lib**</back>\nuse <back:cyan>**keyple-common-java-api**</back>] as remote <<purple>>
    }
}
package "Keyple internal APIs (hidden for the client application)" as packApi #D7DBDD {
    [**keyple-plugin-java-api**] as pluginApi
    [**keyple-distributed-local-java-api**] as distributedLocalApi
    [**keyple-distributed-remote-java-api**] as distributedRemoteApi
}


application -right-> packCalypsonetPublic #3498DB
application - -> packMain #3498DB

calypsoApi -right-> readerApi #E67E22

extension - -> cardApi #27AE60
extension -up-> readerApi #27AE60
extension .up.> calypsoApi #27AE60
extension .up.> serviceResource #27AE60

plugin - -> pluginApi #E74C3C

service -up-> readerApi #D4AC0D
service - -> pluginApi #D4AC0D
service - -> cardApi #D4AC0D
service - -> distributedRemoteApi #D4AC0D
service - -> distributedLocalApi #D4AC0D

serviceResource -up-> readerApi #2C3E50
serviceResource - -> service #2C3E50

local -up-> network #8E44AD
local - -> distributedLocalApi #8E44AD

remote -up-> network #8E44AD
remote - -> distributedRemoteApi #8E44AD



@enduml

PlantUML version 1.2022.13(Sat Nov 19 14:22:17 CET 2022)
(GPL source distribution)
Java Runtime: OpenJDK Runtime Environment
JVM: OpenJDK 64-Bit Server VM
Default Encoding: Cp1252
Language: fr
Country: FR
--></g></svg>