<svg xmlns="http://www.w3.org/2000/svg" xmlns:xlink="http://www.w3.org/1999/xlink" contentStyleType="text/css" data-diagram-type="CLASS" height="964.8px" preserveAspectRatio="none" style="width:1548px;height:964px;background:#FFFFFF;" version="1.1" viewBox="0 0 1548 964" width="1548px" zoomAndPan="magnify"><defs><filter height="1" id="b1gccan6id68qh0" width="1" x="0" y="0"><feFlood flood-color="#FEFECE" result="flood"/><feComposite in="SourceGraphic" in2="flood" operator="over"/></filter><filter height="1" id="b1gccan6id68qh1" width="1" x="0" y="0"><feFlood flood-color="#ADD8E6" result="flood"/><feComposite in="SourceGraphic" in2="flood" operator="over"/></filter><filter height="1" id="b1gccan6id68qh2" width="1" x="0" y="0"><feFlood flood-color="#DDA0DD" result="flood"/><feComposite in="SourceGraphic" in2="flood" operator="over"/></filter></defs><g><g class="legend" data-source-line="51"><rect fill="#DDDDDD" height="101.3813" rx="9" ry="9" style="stroke:#000000;stroke-width:1.2;" width="224.3578" x="653.4211" y="14.4"/><text fill="#000000" font-family="sans-serif" font-size="16.8" lengthAdjust="spacing" text-decoration="underline" textLength="103.6629" x="659.4211" y="38.5289">Colors legend</text><text fill="#000000" font-family="sans-serif" font-size="16.8" lengthAdjust="spacing" textLength="4.6676" x="767.7516" y="38.5289">:</text><ellipse cx="666.0211" cy="56.0906" fill="#000000" rx="3" ry="3"/><text fill="#000000" filter="url(#b1gccan6id68qh0)" font-family="sans-serif" font-size="16.8" lengthAdjust="spacing" textLength="197.9578" x="673.8211" y="60.8742">Public API (for application)</text><ellipse cx="666.0211" cy="78.4359" fill="#000000" rx="3" ry="3"/><text fill="#000000" filter="url(#b1gccan6id68qh1)" font-family="sans-serif" font-size="16.8" lengthAdjust="spacing" textLength="122.3332" x="673.8211" y="83.2195">Private adapters</text><ellipse cx="666.0211" cy="100.7813" fill="#000000" rx="3" ry="3"/><text fill="#000000" filter="url(#b1gccan6id68qh2)" font-family="sans-serif" font-size="16.8" lengthAdjust="spacing" textLength="142.882" x="673.8211" y="105.5648">Keyple internal API</text></g><!--cluster commonApi--><g class="cluster" data-entity="commonApi" data-source-line="58" data-uid="ent0002" id="cluster_commonApi"><path d="M365.4,138.5977 L627.0984,138.5977 A4.5,4.5 0 0 1 630.0984,141.5977 L638.4984,190.4883 L1260.6,190.4883 A3,3 0 0 1 1263.6,193.4883 L1263.6,298.7977 A3,3 0 0 1 1260.6,301.7977 L365.4,301.7977 A3,3 0 0 1 362.4,298.7977 L362.4,141.5977 A3,3 0 0 1 365.4,138.5977" fill="#F8F9F9" style="stroke:#000000;stroke-width:1.8;"/><line style="stroke:#000000;stroke-width:1.8;" x1="362.4" x2="638.4984" y1="190.4883" y2="190.4883"/><text fill="#000000" font-family="sans-serif" font-size="16.8" font-weight="bold" lengthAdjust="spacing" textLength="105.4676" x="444.7154" y="159.1266">Common API</text><text fill="#000000" font-family="sans-serif" font-size="16.8" font-weight="bold" lengthAdjust="spacing" textLength="260.4984" x="367.2" y="181.4719">org.eclipse.keyple.core.common</text></g><!--cluster pluginSpi--><g class="cluster" data-entity="pluginSpi" data-source-line="67" data-uid="ent0006" id="cluster_pluginSpi"><path d="M521.4,790.1977 L792.4172,790.1977 A4.5,4.5 0 0 1 795.4172,793.1977 L803.8172,842.0883 L1072.2,842.0883 A3,3 0 0 1 1075.2,845.0883 L1075.2,953.9977 A3,3 0 0 1 1072.2,956.9977 L521.4,956.9977 A3,3 0 0 1 518.4,953.9977 L518.4,793.1977 A3,3 0 0 1 521.4,790.1977" fill="#F8F9F9" style="stroke:#000000;stroke-width:1.8;"/><line style="stroke:#000000;stroke-width:1.8;" x1="518.4" x2="803.8172" y1="842.0883" y2="842.0883"/><text fill="#000000" font-family="sans-serif" font-size="16.8" font-weight="bold" lengthAdjust="spacing" textLength="84" x="616.1086" y="810.7266">Plugin API</text><text fill="#000000" font-family="sans-serif" font-size="16.8" font-weight="bold" lengthAdjust="spacing" textLength="269.8172" x="523.2" y="833.0719">org.eclipse.keyple.core.plugin.spi</text></g><!--cluster pluginStorageCardApi--><g class="cluster" data-entity="pluginStorageCardApi" data-source-line="82" data-uid="ent0010" id="cluster_pluginStorageCardApi"><path d="M1116.6,790.1977 L1524.8637,790.1977 A4.5,4.5 0 0 1 1527.8637,793.1977 L1536.2637,842.0883 L1536.6,842.0883 A3,3 0 0 1 1539.6,845.0883 L1539.6,953.9977 A3,3 0 0 1 1536.6,956.9977 L1116.6,956.9977 A3,3 0 0 1 1113.6,953.9977 L1113.6,793.1977 A3,3 0 0 1 1116.6,790.1977" fill="#F8F9F9" style="stroke:#000000;stroke-width:1.8;"/><line style="stroke:#000000;stroke-width:1.8;" x1="1113.6" x2="1536.2637" y1="842.0883" y2="842.0883"/><text fill="#000000" font-family="sans-serif" font-size="16.8" font-weight="bold" lengthAdjust="spacing" textLength="194.1598" x="1224.852" y="810.7266">Plugin Storage Card API</text><text fill="#000000" font-family="sans-serif" font-size="16.8" font-weight="bold" lengthAdjust="spacing" textLength="407.0637" x="1118.4" y="833.0719">org.eclipse.keyple.core.plugin.storagecard.internal</text></g><!--cluster specificPluginApi--><g class="cluster" data-entity="specificPluginApi" data-source-line="89" data-uid="ent0012" id="cluster_specificPluginApi"><path d="M10.2,360.5977 L244.8199,360.5977 A4.5,4.5 0 0 1 247.8199,363.5977 L256.2199,412.4883 L1356.6,412.4883 A3,3 0 0 1 1359.6,415.4883 L1359.6,737.9977 A3,3 0 0 1 1356.6,740.9977 L10.2,740.9977 A3,3 0 0 1 7.2,737.9977 L7.2,363.5977 A3,3 0 0 1 10.2,360.5977" fill="#F8F9F9" style="stroke:#000000;stroke-width:1.8;"/><line style="stroke:#000000;stroke-width:1.8;" x1="7.2" x2="256.2199" y1="412.4883" y2="412.4883"/><text fill="#000000" font-family="sans-serif" font-size="16.8" font-weight="bold" lengthAdjust="spacing" textLength="85.8867" x="85.7666" y="381.1266">Plugin Xxx</text><text fill="#000000" font-family="sans-serif" font-size="16.8" font-weight="bold" lengthAdjust="spacing" textLength="233.4199" x="12" y="403.4719">org.eclipse.keyple.plugin.xxx</text></g><!--class KeyplePluginExtensionFactory--><g class="entity" data-entity="KeyplePluginExtensionFactory" data-source-line="59" data-uid="ent0003" id="entity_KeyplePluginExtensionFactory"><rect fill="#FEFECE" height="57.6" rx="3" ry="3" style="stroke:#D4AC0D;stroke-width:2.4;" width="279.4582" x="414.6" y="215.3977"/><ellipse cx="432.6" cy="234.5977" fill="#B4A7E5" rx="13.2" ry="13.2" style="stroke:#B4A7E5;stroke-width:1.2;"/><path d="M433.7438,230.5664 L433.7438,238.5539 L435.8063,238.5539 Q436.5375,238.5539 436.8563,238.8352 Q437.175,239.1164 437.175,239.5852 Q437.175,240.0352 436.8563,240.3164 Q436.5375,240.5977 435.8063,240.5977 L429.6375,240.5977 Q428.9063,240.5977 428.5875,240.3164 Q428.2688,240.0352 428.2688,239.5664 Q428.2688,239.1164 428.5875,238.8352 Q428.9063,238.5539 429.6375,238.5539 L431.7,238.5539 L431.7,230.5664 L429.6375,230.5664 Q428.9063,230.5664 428.5875,230.2852 Q428.2688,230.0039 428.2688,229.5352 Q428.2688,229.0852 428.5875,228.8039 Q428.9063,228.5227 429.6375,228.5227 L435.8063,228.5227 Q436.5375,228.5227 436.8563,228.8039 Q437.175,229.0852 437.175,229.5352 Q437.175,230.0039 436.8563,230.2852 Q436.5375,230.5664 435.8063,230.5664 L433.7438,230.5664 Z " fill="#000000"/><ellipse cx="455.4" cy="233.9977" fill="#84BE84" rx="3.6" ry="3.6" style="stroke:#038048;stroke-width:1.2;"/><text fill="#000000" font-family="sans-serif" font-size="16.8" font-style="italic" lengthAdjust="spacing" textLength="227.8582" x="462.6" y="241.5539">KeyplePluginExtensionFactory</text><line style="stroke:#D4AC0D;stroke-width:2.4;" x1="415.8" x2="692.8582" y1="253.7977" y2="253.7977"/><line style="stroke:#D4AC0D;stroke-width:2.4;" x1="415.8" x2="692.8582" y1="263.3977" y2="263.3977"/></g><!--class KeyplePluginExtension--><g class="entity" data-entity="KeyplePluginExtension" data-source-line="61" data-uid="ent0004" id="entity_KeyplePluginExtension"><rect fill="#FEFECE" height="57.6" rx="3" ry="3" style="stroke:#D4AC0D;stroke-width:2.4;" width="223.4473" x="736.8" y="215.3977"/><ellipse cx="754.8" cy="234.5977" fill="#B4A7E5" rx="13.2" ry="13.2" style="stroke:#B4A7E5;stroke-width:1.2;"/><path d="M755.9438,230.5664 L755.9438,238.5539 L758.0063,238.5539 Q758.7375,238.5539 759.0563,238.8352 Q759.375,239.1164 759.375,239.5852 Q759.375,240.0352 759.0563,240.3164 Q758.7375,240.5977 758.0063,240.5977 L751.8375,240.5977 Q751.1062,240.5977 750.7875,240.3164 Q750.4688,240.0352 750.4688,239.5664 Q750.4688,239.1164 750.7875,238.8352 Q751.1062,238.5539 751.8375,238.5539 L753.9,238.5539 L753.9,230.5664 L751.8375,230.5664 Q751.1062,230.5664 750.7875,230.2852 Q750.4688,230.0039 750.4688,229.5352 Q750.4688,229.0852 750.7875,228.8039 Q751.1062,228.5227 751.8375,228.5227 L758.0063,228.5227 Q758.7375,228.5227 759.0563,228.8039 Q759.375,229.0852 759.375,229.5352 Q759.375,230.0039 759.0563,230.2852 Q758.7375,230.5664 758.0063,230.5664 L755.9438,230.5664 Z " fill="#000000"/><ellipse cx="777.6" cy="233.9977" fill="#84BE84" rx="3.6" ry="3.6" style="stroke:#038048;stroke-width:1.2;"/><text fill="#000000" font-family="sans-serif" font-size="16.8" font-style="italic" lengthAdjust="spacing" textLength="171.8473" x="784.8" y="241.5539">KeyplePluginExtension</text><line style="stroke:#D4AC0D;stroke-width:2.4;" x1="738" x2="959.0473" y1="253.7977" y2="253.7977"/><line style="stroke:#D4AC0D;stroke-width:2.4;" x1="738" x2="959.0473" y1="263.3977" y2="263.3977"/></g><!--class KeypleReaderExtension--><g class="entity" data-entity="KeypleReaderExtension" data-source-line="63" data-uid="ent0005" id="entity_KeypleReaderExtension"><rect fill="#FEFECE" height="57.6" rx="3" ry="3" style="stroke:#D4AC0D;stroke-width:2.4;" width="231.8473" x="1002.6" y="215.3977"/><ellipse cx="1020.6" cy="234.5977" fill="#B4A7E5" rx="13.2" ry="13.2" style="stroke:#B4A7E5;stroke-width:1.2;"/><path d="M1021.7438,230.5664 L1021.7438,238.5539 L1023.8063,238.5539 Q1024.5375,238.5539 1024.8563,238.8352 Q1025.175,239.1164 1025.175,239.5852 Q1025.175,240.0352 1024.8563,240.3164 Q1024.5375,240.5977 1023.8063,240.5977 L1017.6375,240.5977 Q1016.9063,240.5977 1016.5875,240.3164 Q1016.2688,240.0352 1016.2688,239.5664 Q1016.2688,239.1164 1016.5875,238.8352 Q1016.9063,238.5539 1017.6375,238.5539 L1019.7,238.5539 L1019.7,230.5664 L1017.6375,230.5664 Q1016.9063,230.5664 1016.5875,230.2852 Q1016.2688,230.0039 1016.2688,229.5352 Q1016.2688,229.0852 1016.5875,228.8039 Q1016.9063,228.5227 1017.6375,228.5227 L1023.8063,228.5227 Q1024.5375,228.5227 1024.8563,228.8039 Q1025.175,229.0852 1025.175,229.5352 Q1025.175,230.0039 1024.8563,230.2852 Q1024.5375,230.5664 1023.8063,230.5664 L1021.7438,230.5664 Z " fill="#000000"/><ellipse cx="1043.4" cy="233.9977" fill="#84BE84" rx="3.6" ry="3.6" style="stroke:#038048;stroke-width:1.2;"/><text fill="#000000" font-family="sans-serif" font-size="16.8" font-style="italic" lengthAdjust="spacing" textLength="180.2473" x="1050.6" y="241.5539">KeypleReaderExtension</text><line style="stroke:#D4AC0D;stroke-width:2.4;" x1="1003.8" x2="1233.2473" y1="253.7977" y2="253.7977"/><line style="stroke:#D4AC0D;stroke-width:2.4;" x1="1003.8" x2="1233.2473" y1="263.3977" y2="263.3977"/></g><!--class ReaderSpi--><g class="entity" data-entity="ReaderSpi" data-source-line="68" data-uid="ent0007" id="entity_ReaderSpi"><rect fill="#F4ECF7" height="79.9453" rx="3" ry="3" style="stroke:#8E44AD;stroke-width:2.4;" width="130.9816" x="924.6" y="857.3977"/><ellipse cx="942.6" cy="876.5977" fill="#B4A7E5" rx="13.2" ry="13.2" style="stroke:#B4A7E5;stroke-width:1.2;"/><path d="M943.7438,872.5664 L943.7438,880.5539 L945.8063,880.5539 Q946.5375,880.5539 946.8562,880.8352 Q947.175,881.1164 947.175,881.5852 Q947.175,882.0352 946.8562,882.3164 Q946.5375,882.5977 945.8063,882.5977 L939.6375,882.5977 Q938.9063,882.5977 938.5875,882.3164 Q938.2688,882.0352 938.2688,881.5664 Q938.2688,881.1164 938.5875,880.8352 Q938.9063,880.5539 939.6375,880.5539 L941.7,880.5539 L941.7,872.5664 L939.6375,872.5664 Q938.9063,872.5664 938.5875,872.2852 Q938.2688,872.0039 938.2688,871.5352 Q938.2688,871.0852 938.5875,870.8039 Q938.9063,870.5227 939.6375,870.5227 L945.8063,870.5227 Q946.5375,870.5227 946.8562,870.8039 Q947.175,871.0852 947.175,871.5352 Q947.175,872.0039 946.8562,872.2852 Q946.5375,872.5664 945.8063,872.5664 L943.7438,872.5664 Z " fill="#000000"/><ellipse cx="965.4" cy="875.9977" fill="#84BE84" rx="3.6" ry="3.6" style="stroke:#038048;stroke-width:1.2;"/><text fill="#000000" font-family="sans-serif" font-size="16.8" font-style="italic" lengthAdjust="spacing" textLength="79.3816" x="972.6" y="883.5539">ReaderSpi</text><line style="stroke:#8E44AD;stroke-width:2.4;" x1="925.8" x2="1054.3816" y1="895.7977" y2="895.7977"/><line style="stroke:#8E44AD;stroke-width:1.2;" x1="925.8" x2="1054.3816" y1="905.3977" y2="905.3977"/><text fill="#000000" font-family="sans-serif" font-size="16.8" lengthAdjust="spacing" textLength="14.0027" x="931.8" y="928.3266">...</text></g><!--class PluginSpi--><g class="entity" data-entity="PluginSpi" data-source-line="72" data-uid="ent0008" id="entity_PluginSpi"><rect fill="#F4ECF7" height="79.9453" rx="3" ry="3" style="stroke:#8E44AD;stroke-width:2.4;" width="122.5816" x="759.6" y="857.3977"/><ellipse cx="777.6" cy="876.5977" fill="#B4A7E5" rx="13.2" ry="13.2" style="stroke:#B4A7E5;stroke-width:1.2;"/><path d="M778.7438,872.5664 L778.7438,880.5539 L780.8063,880.5539 Q781.5375,880.5539 781.8562,880.8352 Q782.175,881.1164 782.175,881.5852 Q782.175,882.0352 781.8562,882.3164 Q781.5375,882.5977 780.8063,882.5977 L774.6375,882.5977 Q773.9063,882.5977 773.5875,882.3164 Q773.2688,882.0352 773.2688,881.5664 Q773.2688,881.1164 773.5875,880.8352 Q773.9063,880.5539 774.6375,880.5539 L776.7,880.5539 L776.7,872.5664 L774.6375,872.5664 Q773.9063,872.5664 773.5875,872.2852 Q773.2688,872.0039 773.2688,871.5352 Q773.2688,871.0852 773.5875,870.8039 Q773.9063,870.5227 774.6375,870.5227 L780.8063,870.5227 Q781.5375,870.5227 781.8562,870.8039 Q782.175,871.0852 782.175,871.5352 Q782.175,872.0039 781.8562,872.2852 Q781.5375,872.5664 780.8063,872.5664 L778.7438,872.5664 Z " fill="#000000"/><ellipse cx="800.4" cy="875.9977" fill="#84BE84" rx="3.6" ry="3.6" style="stroke:#038048;stroke-width:1.2;"/><text fill="#000000" font-family="sans-serif" font-size="16.8" font-style="italic" lengthAdjust="spacing" textLength="70.9816" x="807.6" y="883.5539">PluginSpi</text><line style="stroke:#8E44AD;stroke-width:2.4;" x1="760.8" x2="880.9816" y1="895.7977" y2="895.7977"/><line style="stroke:#8E44AD;stroke-width:1.2;" x1="760.8" x2="880.9816" y1="905.3977" y2="905.3977"/><text fill="#000000" font-family="sans-serif" font-size="16.8" lengthAdjust="spacing" textLength="14.0027" x="766.8" y="928.3266">...</text></g><!--class PluginFactorySpi--><g class="entity" data-entity="PluginFactorySpi" data-source-line="76" data-uid="ent0009" id="entity_PluginFactorySpi"><rect fill="#F4ECF7" height="79.9453" rx="3" ry="3" style="stroke:#8E44AD;stroke-width:2.4;" width="178.5926" x="538.2" y="857.3977"/><ellipse cx="556.2" cy="876.5977" fill="#B4A7E5" rx="13.2" ry="13.2" style="stroke:#B4A7E5;stroke-width:1.2;"/><path d="M557.3438,872.5664 L557.3438,880.5539 L559.4063,880.5539 Q560.1375,880.5539 560.4563,880.8352 Q560.775,881.1164 560.775,881.5852 Q560.775,882.0352 560.4563,882.3164 Q560.1375,882.5977 559.4063,882.5977 L553.2375,882.5977 Q552.5063,882.5977 552.1875,882.3164 Q551.8688,882.0352 551.8688,881.5664 Q551.8688,881.1164 552.1875,880.8352 Q552.5063,880.5539 553.2375,880.5539 L555.3,880.5539 L555.3,872.5664 L553.2375,872.5664 Q552.5063,872.5664 552.1875,872.2852 Q551.8688,872.0039 551.8688,871.5352 Q551.8688,871.0852 552.1875,870.8039 Q552.5063,870.5227 553.2375,870.5227 L559.4063,870.5227 Q560.1375,870.5227 560.4563,870.8039 Q560.775,871.0852 560.775,871.5352 Q560.775,872.0039 560.4563,872.2852 Q560.1375,872.5664 559.4063,872.5664 L557.3438,872.5664 Z " fill="#000000"/><ellipse cx="579" cy="875.9977" fill="#84BE84" rx="3.6" ry="3.6" style="stroke:#038048;stroke-width:1.2;"/><text fill="#000000" font-family="sans-serif" font-size="16.8" font-style="italic" lengthAdjust="spacing" textLength="126.9926" x="586.2" y="883.5539">PluginFactorySpi</text><line style="stroke:#8E44AD;stroke-width:2.4;" x1="539.4" x2="715.5926" y1="895.7977" y2="895.7977"/><line style="stroke:#8E44AD;stroke-width:1.2;" x1="539.4" x2="715.5926" y1="905.3977" y2="905.3977"/><text fill="#000000" font-family="sans-serif" font-size="16.8" lengthAdjust="spacing" textLength="14.0027" x="545.4" y="928.3266">...</text></g><!--class CommandProcessorApi--><g class="entity" data-entity="CommandProcessorApi" data-source-line="83" data-uid="ent0011" id="entity_CommandProcessorApi"><rect fill="#F4ECF7" height="79.9453" rx="3" ry="3" style="stroke:#8E44AD;stroke-width:2.4;" width="229.0008" x="1138.2" y="857.3977"/><ellipse cx="1156.2" cy="876.5977" fill="#B4A7E5" rx="13.2" ry="13.2" style="stroke:#B4A7E5;stroke-width:1.2;"/><path d="M1157.3438,872.5664 L1157.3438,880.5539 L1159.4063,880.5539 Q1160.1375,880.5539 1160.4563,880.8352 Q1160.775,881.1164 1160.775,881.5852 Q1160.775,882.0352 1160.4563,882.3164 Q1160.1375,882.5977 1159.4063,882.5977 L1153.2375,882.5977 Q1152.5063,882.5977 1152.1875,882.3164 Q1151.8687,882.0352 1151.8687,881.5664 Q1151.8687,881.1164 1152.1875,880.8352 Q1152.5063,880.5539 1153.2375,880.5539 L1155.3,880.5539 L1155.3,872.5664 L1153.2375,872.5664 Q1152.5063,872.5664 1152.1875,872.2852 Q1151.8687,872.0039 1151.8687,871.5352 Q1151.8687,871.0852 1152.1875,870.8039 Q1152.5063,870.5227 1153.2375,870.5227 L1159.4063,870.5227 Q1160.1375,870.5227 1160.4563,870.8039 Q1160.775,871.0852 1160.775,871.5352 Q1160.775,872.0039 1160.4563,872.2852 Q1160.1375,872.5664 1159.4063,872.5664 L1157.3438,872.5664 Z " fill="#000000"/><ellipse cx="1179" cy="875.9977" fill="#84BE84" rx="3.6" ry="3.6" style="stroke:#038048;stroke-width:1.2;"/><text fill="#000000" font-family="sans-serif" font-size="16.8" font-style="italic" lengthAdjust="spacing" textLength="177.4008" x="1186.2" y="883.5539">CommandProcessorApi</text><line style="stroke:#8E44AD;stroke-width:2.4;" x1="1139.4" x2="1366.0008" y1="895.7977" y2="895.7977"/><line style="stroke:#8E44AD;stroke-width:1.2;" x1="1139.4" x2="1366.0008" y1="905.3977" y2="905.3977"/><text fill="#000000" font-family="sans-serif" font-size="16.8" lengthAdjust="spacing" textLength="14.0027" x="1145.4" y="928.3266">...</text></g><!--class XxxPluginFactoryProvider--><g class="entity" data-entity="XxxPluginFactoryProvider" data-source-line="90" data-uid="ent0013" id="entity_XxxPluginFactoryProvider"><rect fill="#FEFECE" height="79.9453" rx="3" ry="3" style="stroke:#D4AC0D;stroke-width:2.4;" width="284.0766" x="59.4" y="446.9977"/><ellipse cx="77.4" cy="466.1977" fill="#ADD1B2" rx="13.2" ry="13.2" style="stroke:#ADD1B2;stroke-width:1.2;"/><path d="M80.7188,461.2477 Q80.9063,460.9852 81.1313,460.8539 Q81.3563,460.7227 81.6187,460.7227 Q82.0688,460.7227 82.35,461.0414 Q82.6313,461.3414 82.6313,462.0727 L82.6313,463.8164 Q82.6313,464.5477 82.35,464.8664 Q82.0688,465.1852 81.6187,465.1852 Q81.2063,465.1852 80.9625,464.9414 Q80.7188,464.7164 80.5875,464.0977 Q80.5313,463.6664 80.3062,463.4414 Q79.9125,462.9914 79.1812,462.7289 Q78.45,462.4664 77.7,462.4664 Q76.7813,462.4664 76.0125,462.8602 Q75.2625,463.2539 74.6625,464.1539 Q74.0813,465.0539 74.0813,466.2914 L74.0813,467.6039 Q74.0813,469.0852 75.15,470.0789 Q76.2188,471.0539 78.1313,471.0539 Q79.2563,471.0539 80.0438,470.7539 Q80.5125,470.5664 81.0188,470.0414 Q81.3375,469.7227 81.5063,469.6289 Q81.6938,469.5352 81.9375,469.5352 Q82.3313,469.5352 82.6313,469.8539 Q82.95,470.1539 82.95,470.5664 Q82.95,470.9789 82.5375,471.4664 Q81.9375,472.1602 80.9813,472.5539 Q79.6875,473.0977 78.1313,473.0977 Q76.3125,473.0977 74.8687,472.3477 Q73.6875,471.7477 72.8625,470.4727 Q72.0375,469.1789 72.0375,467.6414 L72.0375,466.2539 Q72.0375,464.6602 72.7688,463.2914 Q73.5188,461.9039 74.8313,461.1727 Q76.1438,460.4227 77.625,460.4227 Q78.5063,460.4227 79.275,460.6289 Q80.0625,460.8164 80.7188,461.2477 Z " fill="#000000"/><ellipse cx="100.2" cy="465.5977" fill="#84BE84" rx="3.6" ry="3.6" style="stroke:#038048;stroke-width:1.2;"/><text fill="#000000" font-family="sans-serif" font-size="16.8" font-weight="bold" lengthAdjust="spacing" textLength="34.5352" x="107.4" y="473.1539">final</text><text fill="#000000" font-family="sans-serif" font-size="16.8" lengthAdjust="spacing" textLength="193.2738" x="146.6027" y="473.1539">XxxPluginFactoryProvider</text><line style="stroke:#D4AC0D;stroke-width:2.4;" x1="60.6" x2="342.2766" y1="485.3977" y2="485.3977"/><line style="stroke:#D4AC0D;stroke-width:2.4;" x1="60.6" x2="342.2766" y1="494.9977" y2="494.9977"/><ellipse cx="72.6" cy="512.7703" fill="#84BE84" rx="3.6" ry="3.6" style="stroke:#038048;stroke-width:1.2;"/><text fill="#000000" font-family="sans-serif" font-size="16.8" lengthAdjust="spacing" text-decoration="underline" textLength="230.6063" x="83.4" y="517.9266">XxxPluginFactory getFactory ()</text></g><!--class XxxPluginFactory--><g class="entity" data-entity="XxxPluginFactory" data-source-line="94" data-uid="ent0014" id="entity_XxxPluginFactory"><rect fill="#FEFECE" height="79.9453" rx="3" ry="3" style="stroke:#D4AC0D;stroke-width:2.4;" width="219.8227" x="429" y="446.9977"/><ellipse cx="463.8776" cy="466.1977" fill="#B4A7E5" rx="13.2" ry="13.2" style="stroke:#B4A7E5;stroke-width:1.2;"/><path d="M465.0214,462.1664 L465.0214,470.1539 L467.0839,470.1539 Q467.8151,470.1539 468.1339,470.4352 Q468.4526,470.7164 468.4526,471.1852 Q468.4526,471.6352 468.1339,471.9164 Q467.8151,472.1977 467.0839,472.1977 L460.9151,472.1977 Q460.1839,472.1977 459.8651,471.9164 Q459.5464,471.6352 459.5464,471.1664 Q459.5464,470.7164 459.8651,470.4352 Q460.1839,470.1539 460.9151,470.1539 L462.9776,470.1539 L462.9776,462.1664 L460.9151,462.1664 Q460.1839,462.1664 459.8651,461.8852 Q459.5464,461.6039 459.5464,461.1352 Q459.5464,460.6852 459.8651,460.4039 Q460.1839,460.1227 460.9151,460.1227 L467.0839,460.1227 Q467.8151,460.1227 468.1339,460.4039 Q468.4526,460.6852 468.4526,461.1352 Q468.4526,461.6039 468.1339,461.8852 Q467.8151,462.1664 467.0839,462.1664 L465.0214,462.1664 Z " fill="#000000"/><ellipse cx="490.4282" cy="465.5977" fill="#84BE84" rx="3.6" ry="3.6" style="stroke:#038048;stroke-width:1.2;"/><text fill="#000000" font-family="sans-serif" font-size="16.8" font-style="italic" lengthAdjust="spacing" textLength="130.7168" x="497.6282" y="473.1539">XxxPluginFactory</text><line style="stroke:#D4AC0D;stroke-width:2.4;" x1="430.2" x2="647.6227" y1="485.3977" y2="485.3977"/><line style="stroke:#D4AC0D;stroke-width:1.2;" x1="430.2" x2="647.6227" y1="494.9977" y2="494.9977"/><text fill="#000000" font-family="sans-serif" font-size="16.8" lengthAdjust="spacing" textLength="205.4227" x="436.2" y="517.9266">custom settings... (optional)</text></g><!--class XxxPlugin--><g class="entity" data-entity="XxxPlugin" data-source-line="98" data-uid="ent0016" id="entity_XxxPlugin"><rect fill="#FEFECE" height="79.9453" rx="3" ry="3" style="stroke:#D4AC0D;stroke-width:2.4;" width="219.8227" x="753" y="446.9977"/><ellipse cx="813.8584" cy="466.1977" fill="#B4A7E5" rx="13.2" ry="13.2" style="stroke:#B4A7E5;stroke-width:1.2;"/><path d="M815.0021,462.1664 L815.0021,470.1539 L817.0646,470.1539 Q817.7959,470.1539 818.1146,470.4352 Q818.4334,470.7164 818.4334,471.1852 Q818.4334,471.6352 818.1146,471.9164 Q817.7959,472.1977 817.0646,472.1977 L810.8959,472.1977 Q810.1646,472.1977 809.8459,471.9164 Q809.5271,471.6352 809.5271,471.1664 Q809.5271,470.7164 809.8459,470.4352 Q810.1646,470.1539 810.8959,470.1539 L812.9584,470.1539 L812.9584,462.1664 L810.8959,462.1664 Q810.1646,462.1664 809.8459,461.8852 Q809.5271,461.6039 809.5271,461.1352 Q809.5271,460.6852 809.8459,460.4039 Q810.1646,460.1227 810.8959,460.1227 L817.0646,460.1227 Q817.7959,460.1227 818.1146,460.4039 Q818.4334,460.6852 818.4334,461.1352 Q818.4334,461.6039 818.1146,461.8852 Q817.7959,462.1664 817.0646,462.1664 L815.0021,462.1664 Z " fill="#000000"/><ellipse cx="844.4584" cy="465.5977" fill="#84BE84" rx="3.6" ry="3.6" style="stroke:#038048;stroke-width:1.2;"/><text fill="#000000" font-family="sans-serif" font-size="16.8" font-style="italic" lengthAdjust="spacing" textLength="74.7059" x="851.6584" y="473.1539">XxxPlugin</text><line style="stroke:#D4AC0D;stroke-width:2.4;" x1="754.2" x2="971.6227" y1="485.3977" y2="485.3977"/><line style="stroke:#D4AC0D;stroke-width:1.2;" x1="754.2" x2="971.6227" y1="494.9977" y2="494.9977"/><text fill="#000000" font-family="sans-serif" font-size="16.8" lengthAdjust="spacing" textLength="205.4227" x="760.2" y="517.9266">custom settings... (optional)</text></g><!--class XxxReader--><g class="entity" data-entity="XxxReader" data-source-line="102" data-uid="ent0018" id="entity_XxxReader"><rect fill="#FEFECE" height="79.9453" rx="3" ry="3" style="stroke:#D4AC0D;stroke-width:2.4;" width="219.8227" x="1018.2" y="446.9977"/><ellipse cx="1074.8584" cy="466.1977" fill="#B4A7E5" rx="13.2" ry="13.2" style="stroke:#B4A7E5;stroke-width:1.2;"/><path d="M1076.0021,462.1664 L1076.0021,470.1539 L1078.0646,470.1539 Q1078.7959,470.1539 1079.1146,470.4352 Q1079.4334,470.7164 1079.4334,471.1852 Q1079.4334,471.6352 1079.1146,471.9164 Q1078.7959,472.1977 1078.0646,472.1977 L1071.8959,472.1977 Q1071.1646,472.1977 1070.8459,471.9164 Q1070.5271,471.6352 1070.5271,471.1664 Q1070.5271,470.7164 1070.8459,470.4352 Q1071.1646,470.1539 1071.8959,470.1539 L1073.9584,470.1539 L1073.9584,462.1664 L1071.8959,462.1664 Q1071.1646,462.1664 1070.8459,461.8852 Q1070.5271,461.6039 1070.5271,461.1352 Q1070.5271,460.6852 1070.8459,460.4039 Q1071.1646,460.1227 1071.8959,460.1227 L1078.0646,460.1227 Q1078.7959,460.1227 1079.1146,460.4039 Q1079.4334,460.6852 1079.4334,461.1352 Q1079.4334,461.6039 1079.1146,461.8852 Q1078.7959,462.1664 1078.0646,462.1664 L1076.0021,462.1664 Z " fill="#000000"/><ellipse cx="1105.4584" cy="465.5977" fill="#84BE84" rx="3.6" ry="3.6" style="stroke:#038048;stroke-width:1.2;"/><text fill="#000000" font-family="sans-serif" font-size="16.8" font-style="italic" lengthAdjust="spacing" textLength="83.1059" x="1112.6584" y="473.1539">XxxReader</text><line style="stroke:#D4AC0D;stroke-width:2.4;" x1="1019.4" x2="1236.8227" y1="485.3977" y2="485.3977"/><line style="stroke:#D4AC0D;stroke-width:1.2;" x1="1019.4" x2="1236.8227" y1="494.9977" y2="494.9977"/><text fill="#000000" font-family="sans-serif" font-size="16.8" lengthAdjust="spacing" textLength="205.4227" x="1025.4" y="517.9266">custom settings... (optional)</text></g><!--class XxxPluginFactoryAdapter--><g class="entity" data-entity="XxxPluginFactoryAdapter" data-source-line="107" data-uid="ent0020" id="entity_XxxPluginFactoryAdapter"><rect fill="#EBF5FB" height="79.9453" rx="3" ry="3" style="stroke:#3498DB;stroke-width:2.4;" width="280.3605" x="363.6" y="622.1977"/><ellipse cx="381.6" cy="641.3977" fill="#ADD1B2" rx="13.2" ry="13.2" style="stroke:#ADD1B2;stroke-width:1.2;"/><path d="M384.9188,636.4477 Q385.1063,636.1852 385.3313,636.0539 Q385.5563,635.9227 385.8187,635.9227 Q386.2688,635.9227 386.55,636.2414 Q386.8313,636.5414 386.8313,637.2727 L386.8313,639.0164 Q386.8313,639.7477 386.55,640.0664 Q386.2688,640.3852 385.8187,640.3852 Q385.4063,640.3852 385.1625,640.1414 Q384.9188,639.9164 384.7875,639.2977 Q384.7313,638.8664 384.5062,638.6414 Q384.1125,638.1914 383.3812,637.9289 Q382.65,637.6664 381.9,637.6664 Q380.9813,637.6664 380.2125,638.0602 Q379.4625,638.4539 378.8625,639.3539 Q378.2813,640.2539 378.2813,641.4914 L378.2813,642.8039 Q378.2813,644.2852 379.35,645.2789 Q380.4188,646.2539 382.3313,646.2539 Q383.4563,646.2539 384.2438,645.9539 Q384.7125,645.7664 385.2188,645.2414 Q385.5375,644.9227 385.7063,644.8289 Q385.8938,644.7352 386.1375,644.7352 Q386.5313,644.7352 386.8313,645.0539 Q387.15,645.3539 387.15,645.7664 Q387.15,646.1789 386.7375,646.6664 Q386.1375,647.3602 385.1813,647.7539 Q383.8875,648.2977 382.3313,648.2977 Q380.5125,648.2977 379.0687,647.5477 Q377.8875,646.9477 377.0625,645.6727 Q376.2375,644.3789 376.2375,642.8414 L376.2375,641.4539 Q376.2375,639.8602 376.9688,638.4914 Q377.7188,637.1039 379.0313,636.3727 Q380.3438,635.6227 381.825,635.6227 Q382.7063,635.6227 383.475,635.8289 Q384.2625,636.0164 384.9188,636.4477 Z " fill="#000000"/><polygon fill="#4177AF" points="404.4,635.9977,399.6,643.1977,409.2,643.1977" style="stroke:#1963A0;stroke-width:1.2;"/><text fill="#000000" font-family="sans-serif" font-size="16.8" font-weight="bold" lengthAdjust="spacing" textLength="34.5352" x="411.6" y="648.3539">final</text><text fill="#000000" font-family="sans-serif" font-size="16.8" lengthAdjust="spacing" textLength="189.5578" x="450.8027" y="648.3539">XxxPluginFactoryAdapter</text><line style="stroke:#3498DB;stroke-width:2.4;" x1="364.8" x2="642.7605" y1="660.5977" y2="660.5977"/><line style="stroke:#3498DB;stroke-width:1.2;" x1="364.8" x2="642.7605" y1="670.1977" y2="670.1977"/><text fill="#000000" font-family="sans-serif" font-size="16.8" lengthAdjust="spacing" textLength="14.0027" x="370.8" y="693.1266">...</text></g><!--class XxxPluginAdapter--><g class="entity" data-entity="XxxPluginAdapter" data-source-line="111" data-uid="ent0023" id="entity_XxxPluginAdapter"><rect fill="#EBF5FB" height="79.9453" rx="3" ry="3" style="stroke:#3498DB;stroke-width:2.4;" width="224.3496" x="754.2" y="622.1977"/><ellipse cx="772.2" cy="641.3977" fill="#ADD1B2" rx="13.2" ry="13.2" style="stroke:#ADD1B2;stroke-width:1.2;"/><path d="M775.5188,636.4477 Q775.7063,636.1852 775.9313,636.0539 Q776.1563,635.9227 776.4187,635.9227 Q776.8688,635.9227 777.15,636.2414 Q777.4313,636.5414 777.4313,637.2727 L777.4313,639.0164 Q777.4313,639.7477 777.15,640.0664 Q776.8688,640.3852 776.4187,640.3852 Q776.0063,640.3852 775.7625,640.1414 Q775.5188,639.9164 775.3875,639.2977 Q775.3313,638.8664 775.1062,638.6414 Q774.7125,638.1914 773.9812,637.9289 Q773.25,637.6664 772.5,637.6664 Q771.5813,637.6664 770.8125,638.0602 Q770.0625,638.4539 769.4625,639.3539 Q768.8813,640.2539 768.8813,641.4914 L768.8813,642.8039 Q768.8813,644.2852 769.95,645.2789 Q771.0188,646.2539 772.9313,646.2539 Q774.0563,646.2539 774.8438,645.9539 Q775.3125,645.7664 775.8188,645.2414 Q776.1375,644.9227 776.3063,644.8289 Q776.4938,644.7352 776.7375,644.7352 Q777.1313,644.7352 777.4313,645.0539 Q777.75,645.3539 777.75,645.7664 Q777.75,646.1789 777.3375,646.6664 Q776.7375,647.3602 775.7813,647.7539 Q774.4875,648.2977 772.9313,648.2977 Q771.1125,648.2977 769.6687,647.5477 Q768.4875,646.9477 767.6625,645.6727 Q766.8375,644.3789 766.8375,642.8414 L766.8375,641.4539 Q766.8375,639.8602 767.5688,638.4914 Q768.3188,637.1039 769.6313,636.3727 Q770.9438,635.6227 772.425,635.6227 Q773.3063,635.6227 774.075,635.8289 Q774.8625,636.0164 775.5188,636.4477 Z " fill="#000000"/><polygon fill="#4177AF" points="795,635.9977,790.2,643.1977,799.8,643.1977" style="stroke:#1963A0;stroke-width:1.2;"/><text fill="#000000" font-family="sans-serif" font-size="16.8" font-weight="bold" lengthAdjust="spacing" textLength="34.5352" x="802.2" y="648.3539">final</text><text fill="#000000" font-family="sans-serif" font-size="16.8" lengthAdjust="spacing" textLength="133.5469" x="841.4027" y="648.3539">XxxPluginAdapter</text><line style="stroke:#3498DB;stroke-width:2.4;" x1="755.4" x2="977.3496" y1="660.5977" y2="660.5977"/><line style="stroke:#3498DB;stroke-width:1.2;" x1="755.4" x2="977.3496" y1="670.1977" y2="670.1977"/><text fill="#000000" font-family="sans-serif" font-size="16.8" lengthAdjust="spacing" textLength="14.0027" x="761.4" y="693.1266">...</text></g><!--class XxxReaderAdapter--><g class="entity" data-entity="XxxReaderAdapter" data-source-line="115" data-uid="ent0026" id="entity_XxxReaderAdapter"><rect fill="#EBF5FB" height="79.9453" rx="3" ry="3" style="stroke:#3498DB;stroke-width:2.4;" width="232.7496" x="1088.4" y="622.1977"/><ellipse cx="1106.4" cy="641.3977" fill="#ADD1B2" rx="13.2" ry="13.2" style="stroke:#ADD1B2;stroke-width:1.2;"/><path d="M1109.7188,636.4477 Q1109.9063,636.1852 1110.1313,636.0539 Q1110.3563,635.9227 1110.6187,635.9227 Q1111.0688,635.9227 1111.35,636.2414 Q1111.6313,636.5414 1111.6313,637.2727 L1111.6313,639.0164 Q1111.6313,639.7477 1111.35,640.0664 Q1111.0688,640.3852 1110.6187,640.3852 Q1110.2063,640.3852 1109.9625,640.1414 Q1109.7188,639.9164 1109.5875,639.2977 Q1109.5313,638.8664 1109.3062,638.6414 Q1108.9125,638.1914 1108.1812,637.9289 Q1107.45,637.6664 1106.7,637.6664 Q1105.7813,637.6664 1105.0125,638.0602 Q1104.2625,638.4539 1103.6625,639.3539 Q1103.0813,640.2539 1103.0813,641.4914 L1103.0813,642.8039 Q1103.0813,644.2852 1104.15,645.2789 Q1105.2188,646.2539 1107.1313,646.2539 Q1108.2563,646.2539 1109.0438,645.9539 Q1109.5125,645.7664 1110.0188,645.2414 Q1110.3375,644.9227 1110.5063,644.8289 Q1110.6938,644.7352 1110.9375,644.7352 Q1111.3313,644.7352 1111.6313,645.0539 Q1111.95,645.3539 1111.95,645.7664 Q1111.95,646.1789 1111.5375,646.6664 Q1110.9375,647.3602 1109.9813,647.7539 Q1108.6875,648.2977 1107.1313,648.2977 Q1105.3125,648.2977 1103.8687,647.5477 Q1102.6875,646.9477 1101.8625,645.6727 Q1101.0375,644.3789 1101.0375,642.8414 L1101.0375,641.4539 Q1101.0375,639.8602 1101.7688,638.4914 Q1102.5188,637.1039 1103.8313,636.3727 Q1105.1438,635.6227 1106.625,635.6227 Q1107.5063,635.6227 1108.275,635.8289 Q1109.0625,636.0164 1109.7188,636.4477 Z " fill="#000000"/><polygon fill="#4177AF" points="1129.2,635.9977,1124.4,643.1977,1134,643.1977" style="stroke:#1963A0;stroke-width:1.2;"/><text fill="#000000" font-family="sans-serif" font-size="16.8" font-weight="bold" lengthAdjust="spacing" textLength="34.5352" x="1136.4" y="648.3539">final</text><text fill="#000000" font-family="sans-serif" font-size="16.8" lengthAdjust="spacing" textLength="141.9469" x="1175.6027" y="648.3539">XxxReaderAdapter</text><line style="stroke:#3498DB;stroke-width:2.4;" x1="1089.6" x2="1319.9496" y1="660.5977" y2="660.5977"/><line style="stroke:#3498DB;stroke-width:1.2;" x1="1089.6" x2="1319.9496" y1="670.1977" y2="670.1977"/><text fill="#000000" font-family="sans-serif" font-size="16.8" lengthAdjust="spacing" textLength="14.0027" x="1095.6" y="693.1266">...</text></g><!--reverse link KeyplePluginExtensionFactory to XxxPluginFactory--><g class="link" data-entity-1="KeyplePluginExtensionFactory" data-entity-2="XxxPluginFactory" data-source-line="95" data-uid="lnk15" id="link_KeyplePluginExtensionFactory_XxxPluginFactory"><path d="M551.1828,295.0207 C548.4108,337.9087 544.488,398.3377 541.332,446.9857" fill="none" id="KeyplePluginExtensionFactory-backto-XxxPluginFactory" style="stroke:#181818;stroke-width:2.4;"/><polygon fill="none" points="552.576,273.4657,543.9978,294.5563,558.3678,295.4851,552.576,273.4657" style="stroke:#181818;stroke-width:2.4;"/></g><!--reverse link KeyplePluginExtension to XxxPlugin--><g class="link" data-entity-1="KeyplePluginExtension" data-entity-2="XxxPlugin" data-source-line="99" data-uid="lnk17" id="link_KeyplePluginExtension_XxxPlugin"><path d="M851.371,295.027 C853.939,337.915 857.556,398.3377 860.46,446.9857" fill="none" id="KeyplePluginExtension-backto-XxxPlugin" style="stroke:#181818;stroke-width:2.4;"/><polygon fill="none" points="850.08,273.4657,844.1839,295.4574,858.5582,294.5967,850.08,273.4657" style="stroke:#181818;stroke-width:2.4;"/></g><!--reverse link KeypleReaderExtension to XxxReader--><g class="link" data-entity-1="KeypleReaderExtension" data-entity-2="XxxReader" data-source-line="103" data-uid="lnk19" id="link_KeypleReaderExtension_XxxReader"><path d="M1120.3796,295.0484 C1122.0956,337.9364 1124.508,398.3377 1126.44,446.9857" fill="none" id="KeypleReaderExtension-backto-XxxReader" style="stroke:#181818;stroke-width:2.4;"/><polygon fill="none" points="1119.516,273.4657,1113.1853,295.3362,1127.5738,294.7605,1119.516,273.4657" style="stroke:#181818;stroke-width:2.4;"/></g><!--reverse link XxxPluginFactory to XxxPluginFactoryAdapter--><g class="link" data-entity-1="XxxPluginFactory" data-entity-2="XxxPluginFactoryAdapter" data-source-line="108" data-uid="lnk21" id="link_XxxPluginFactory_XxxPluginFactoryAdapter"><path d="M526.6351,548.7876 C520.9351,577.0596 517.548,593.9017 511.86,622.1377" fill="none" id="XxxPluginFactory-backto-XxxPluginFactoryAdapter" style="stroke:#181818;stroke-width:2.4;stroke-dasharray:8.4,8.4;"/><polygon fill="none" points="530.904,527.6137,519.5771,547.3646,533.693,550.2106,530.904,527.6137" style="stroke:#181818;stroke-width:2.4;"/></g><!--reverse link PluginFactorySpi to XxxPluginFactoryAdapter--><g class="link" data-entity-1="PluginFactorySpi" data-entity-2="XxxPluginFactoryAdapter" data-source-line="108" data-uid="lnk22" id="link_PluginFactorySpi_XxxPluginFactoryAdapter"><path d="M596.6028,838.0199 C573.8508,795.1679 547.764,746.0257 524.964,703.0897" fill="none" id="PluginFactorySpi-backto-XxxPluginFactoryAdapter" style="stroke:#181818;stroke-width:2.4;stroke-dasharray:8.4,8.4;"/><polygon fill="none" points="606.732,857.0977,602.962,834.6435,590.2436,841.3963,606.732,857.0977" style="stroke:#181818;stroke-width:2.4;"/></g><!--link XxxPluginFactoryAdapter to PluginFactorySpi--><!--reverse link XxxPlugin to XxxPluginAdapter--><g class="link" data-entity-1="XxxPlugin" data-entity-2="XxxPluginAdapter" data-source-line="112" data-uid="lnk24" id="link_XxxPlugin_XxxPluginAdapter"><path d="M864.0651,549.209 C864.6531,577.481 864.996,593.9017 865.584,622.1377" fill="none" id="XxxPlugin-backto-XxxPluginAdapter" style="stroke:#181818;stroke-width:2.4;stroke-dasharray:8.4,8.4;"/><polygon fill="none" points="863.616,527.6137,856.8667,549.3587,871.2636,549.0593,863.616,527.6137" style="stroke:#181818;stroke-width:2.4;"/></g><!--reverse link PluginSpi to XxxPluginAdapter--><g class="link" data-entity-1="PluginSpi" data-entity-2="XxxPluginAdapter" data-source-line="112" data-uid="lnk25" id="link_PluginSpi_XxxPluginAdapter"><path d="M832.647,835.9011 C841.047,793.0491 850.248,746.0257 858.66,703.0897" fill="none" id="PluginSpi-backto-XxxPluginAdapter" style="stroke:#181818;stroke-width:2.4;stroke-dasharray:8.4,8.4;"/><polygon fill="none" points="828.492,857.0977,839.7126,837.2861,825.5815,834.516,828.492,857.0977" style="stroke:#181818;stroke-width:2.4;"/></g><!--link XxxPluginAdapter to PluginSpi--><!--reverse link XxxReader to XxxReaderAdapter--><g class="link" data-entity-1="XxxReader" data-entity-2="XxxReaderAdapter" data-source-line="116" data-uid="lnk27" id="link_XxxReader_XxxReaderAdapter"><path d="M1154.2028,547.3492 C1166.7788,575.6212 1174.884,593.9017 1187.436,622.1377" fill="none" id="XxxReader-backto-XxxReaderAdapter" style="stroke:#181818;stroke-width:2.4;stroke-dasharray:8.4,8.4;"/><polygon fill="none" points="1145.424,527.6137,1147.6243,550.2755,1160.7813,544.423,1145.424,527.6137" style="stroke:#181818;stroke-width:2.4;"/></g><!--reverse link ReaderSpi to XxxReaderAdapter--><g class="link" data-entity-1="ReaderSpi" data-entity-2="XxxReaderAdapter" data-source-line="116" data-uid="lnk28" id="link_ReaderSpi_XxxReaderAdapter"><path d="M1040.9021,841.2252 C1080.4541,798.3732 1128.744,746.0257 1168.368,703.0897" fill="none" id="ReaderSpi-backto-XxxReaderAdapter" style="stroke:#181818;stroke-width:2.4;stroke-dasharray:8.4,8.4;"/><polygon fill="none" points="1026.252,857.0977,1046.1929,846.1086,1035.6113,836.3418,1026.252,857.0977" style="stroke:#181818;stroke-width:2.4;"/></g><!--link XxxReaderAdapter to ReaderSpi--><!--reverse link CommandProcessorApi to XxxReaderAdapter--><g class="link" data-entity-1="CommandProcessorApi" data-entity-2="XxxReaderAdapter" data-source-line="116" data-uid="lnk29" id="link_CommandProcessorApi_XxxReaderAdapter"><path d="M1240.3341,835.9435 C1231.4901,793.0915 1221.792,746.0257 1212.948,703.0897" fill="none" id="CommandProcessorApi-backto-XxxReaderAdapter" style="stroke:#181818;stroke-width:2.4;stroke-dasharray:8.4,8.4;"/><polygon fill="none" points="1244.7,857.0977,1247.3855,834.4882,1233.2827,837.3988,1244.7,857.0977" style="stroke:#181818;stroke-width:2.4;"/></g><!--link XxxReaderAdapter to CommandProcessorApi--><!--link XxxPluginFactoryProvider to XxxPluginFactoryAdapter--><g class="link" data-entity-1="XxxPluginFactoryProvider" data-entity-2="XxxPluginFactoryAdapter" data-source-line="124" data-uid="lnk30" id="link_XxxPluginFactoryProvider_XxxPluginFactoryAdapter"><path codeLine="124" d="M270.216,527.6137 C319.704,555.8857 379.9682,590.3303 429.3962,618.5663" fill="none" id="XxxPluginFactoryProvider-to-XxxPluginFactoryAdapter" style="stroke:#3498DB;stroke-width:2.4;stroke-dasharray:8.4,8.4;"/><polygon fill="#3498DB" points="435.648,622.1377,428.6512,612.6127,430.4382,619.1615,423.8894,620.9485,435.648,622.1377" style="stroke:#3498DB;stroke-width:2.4;"/><polygon fill="#000000" points="382.0096,577.9489,374.335,569.502,370.8357,575.6262,382.0096,577.9489" style="stroke:#000000;stroke-width:1.2;"/><text fill="#000000" font-family="sans-serif" font-size="15.6" lengthAdjust="spacing" textLength="51.1646" x="387.6" y="581.4316">provide</text></g><!--link XxxPluginFactoryAdapter to XxxPluginAdapter--><g class="link" data-entity-1="XxxPluginFactoryAdapter" data-entity-2="XxxPluginAdapter" data-source-line="125" data-uid="lnk31" id="link_XxxPluginFactoryAdapter_XxxPluginAdapter"><path codeLine="125" d="M644.628,662.3977 C680.844,662.3977 712.128,662.3977 746.7,662.3977" fill="none" id="XxxPluginFactoryAdapter-to-XxxPluginAdapter" style="stroke:#3498DB;stroke-width:2.4;stroke-dasharray:8.4,8.4;"/><polygon fill="#3498DB" points="753.9,662.3977,743.1,657.5977,747.9,662.3977,743.1,667.1977,753.9,662.3977" style="stroke:#3498DB;stroke-width:2.4;"/><polygon fill="#000000" points="677.1,647.5723,666.2459,644.0456,666.2459,651.099,677.1,647.5723" style="stroke:#000000;stroke-width:1.2;"/><text fill="#000000" font-family="sans-serif" font-size="15.6" lengthAdjust="spacing" textLength="51.1646" x="681.9" y="654.0316">provide</text></g><!--link XxxPluginAdapter to XxxReaderAdapter--><g class="link" data-entity-1="XxxPluginAdapter" data-entity-2="XxxReaderAdapter" data-source-line="126" data-uid="lnk32" id="link_XxxPluginAdapter_XxxReaderAdapter"><path codeLine="126" d="M978.612,662.3977 C1013.82,662.3977 1045.56,662.3977 1081.056,662.3977" fill="none" id="XxxPluginAdapter-to-XxxReaderAdapter" style="stroke:#3498DB;stroke-width:2.4;stroke-dasharray:8.4,8.4;"/><polygon fill="#3498DB" points="1088.256,662.3977,1077.456,657.5977,1082.256,662.3977,1077.456,667.1977,1088.256,662.3977" style="stroke:#3498DB;stroke-width:2.4;"/><polygon fill="#000000" points="1011.3,647.5723,1000.4459,644.0456,1000.4459,651.099,1011.3,647.5723" style="stroke:#000000;stroke-width:1.2;"/><text fill="#000000" font-family="sans-serif" font-size="15.6" lengthAdjust="spacing" textLength="51.1646" x="1016.1" y="654.0316">provide</text></g><!--link commonApi to specificPluginApi--><!--SRC=[jLVRRjiu47tNLymc3xcqbblRgUCWDI1BL1iqJOmaHJVONGICHDj2P4aWgSH6aFts7TritInx5rq_6DBmp9p38MT87S3dpt3tbNmd-A0e1xeVkYpa0XmXGYR0Pd06Coa3STPkp-JSjNpNvvPlCw5Q_hmzuMr97rr6mvRDMbRYNMF2H-5ClLRWKjbMVhFPnF4Ow0zVRiZzHp1FpO4vA9axO7RChjahcRj0JaYVbD4zCFh6o31AvXFGDTqqEYNp9nWPUbVlvyoN5rVVeDiRd1gZdFN7BO5ENoEVFkICz-JoyledcCGaEi6aGQi5jtBfOhxaZ4gmVUz0melFd-35aJFms0iyCouStmD_0fW3JuPp5zqKyUHu0ULq3a8opdov39WsyhdDk1vb6lQrWQ4RPYtmeW0SzRG-EQa5wiM8Xl5nrAa5aWAGZ0PTf8xdHwwCI6_EItUf40d-RkPOJnuJ0l9XDSxzb_mGHhfdhkk_LA9GwsdA_T2pK-OqjRLaASJeQVe70qFUC7jBlFDppkpX4CCQn21wGzWLalHxk3-KcOC5a1dNQKBMSSW3bsqb3c9OpDqZkjblv5w3JqclfnaP_SfUKF3eXjlv8r0ydv5vOeuQsJDeMWCfTsejC7_XZ7bRgQSHAkOUc7rYDdAli6cjfUIPkSo-t8Ly6NDhk8_8DkuOsj6xv2HFlImo8pNsIltwwevStSNTqcLJvjaW_K01_3qyn1459FQ71pYBxSTm_eZwphB6CHo7ZwvZWJQ-WCC9xcKQ1FXE9VQ7e_DsX1qM75rdEfEZQ276t7ccaW6rQO3AH1qwSCFvy1jRufO1nqEKHzs8AyD6aXE5YXAWXKuPxEd-V8xT2M5_UZwVginodK0mzIcEWwsUHtyHPW-eWEHH2nnuZRdVnKGJQZ58cCTkE7Kyif3CYzgUIItfysMAVjl9fnbymoWkOHNybfjK4h1vKa6CKKNWn1DBNc_h9fOmheUY7tR4x55LrNgzurB8V-UNPcu7zvgPtw9hzAvJRk-MXiJ1GhoQxPryNfBXA5pjsaUxY7hscFiMTdoVQ_z9zU-BHQtGLEDYiOWbYO1PpiIn4g-S7YigSTWxFiRZchh7nr70GZ9HtpDMEO_3R1hC2N_tAYHMf_LM0SEKoUpny2YtZjB7aLanoZfFbJ0isiTshgxK7Sge9g_Hpmfn5V5GPr8wtbHWgk7G3wBcGjsZ5VAjKTUkWlvF9KczRLHItm1-aP83qD8EkpBzlNLRfIwrkoeT0sUEqkVCarN8-tNpKHjglsPsMJKLvz0Wk5PfayIgjbyfAbdAagY2iIGg6SkBMZNdzxMjIctkJ3l9ZtiLRWnqjvpui1QAih5xgEfmuoROJxyspY18u31KDc7pONRoBpeMirZdc5nhBhNxwn_9hMPzjhV-mCkGpRo_MjLckr5mpgcyYvMAe1nujOADg9frh4wz8Y6Acippzkx-CldKpKwTzNJtiy_HrxVLwFe-q31QF1NhWDMpAezIagAeWDHA9hBxU9D7CHUxUvJMSUMuRiervPRxEga5hfl5Ji1Snsl2Rw_jdFS_]--></g></svg>