<?xml version="1.0" encoding="us-ascii" standalone="no"?><svg xmlns="http://www.w3.org/2000/svg" xmlns:xlink="http://www.w3.org/1999/xlink" contentStyleType="text/css" height="2108px" preserveAspectRatio="none" style="width:1034px;height:2108px;background:#FFFFFF;" version="1.1" viewBox="0 0 1034 2108" width="1034px" zoomAndPan="magnify"><defs><filter height="1" id="bf1mlwpjdc8lp0" width="1" x="0" y="0"><feFlood flood-color="#E9F7EF" result="flood"/><feComposite in="SourceGraphic" in2="flood" operator="over"/></filter><filter height="1" id="bf1mlwpjdc8lp1" width="1" x="0" y="0"><feFlood flood-color="#F4ECF7" result="flood"/><feComposite in="SourceGraphic" in2="flood" operator="over"/></filter><filter height="1" id="bf1mlwpjdc8lp2" width="1" x="0" y="0"><feFlood flood-color="#FEFECE" result="flood"/><feComposite in="SourceGraphic" in2="flood" operator="over"/></filter></defs><g><rect fill="#DDDDDD" height="84.4844" id="_legend" rx="7.5" ry="7.5" style="stroke:#000000;stroke-width:1.0;" width="110" x="460.9063" y="22"/><text fill="#000000" font-family="sans-serif" font-size="14" lengthAdjust="spacing" text-decoration="underline" textLength="88" x="465.9063" y="42.1074">Colors legend</text><text fill="#000000" font-family="sans-serif" font-size="14" lengthAdjust="spacing" textLength="4" x="557.9063" y="42.1074">:</text><ellipse cx="471.4063" cy="56.7422" fill="#000000" rx="2.5" ry="2.5" style="stroke:#000000;stroke-width:0.0;"/><text fill="#000000" filter="url(#bf1mlwpjdc8lp0)" font-family="sans-serif" font-size="14" lengthAdjust="spacing" textLength="81" x="477.9063" y="60.7285">Common API</text><ellipse cx="471.4063" cy="75.3633" fill="#000000" rx="2.5" ry="2.5" style="stroke:#000000;stroke-width:0.0;"/><text fill="#000000" filter="url(#bf1mlwpjdc8lp1)" font-family="sans-serif" font-size="14" lengthAdjust="spacing" textLength="88" x="477.9063" y="79.3496">Plugin Xxx API</text><ellipse cx="471.4063" cy="93.9844" fill="#000000" rx="2.5" ry="2.5" style="stroke:#000000;stroke-width:0.0;"/><text fill="#000000" filter="url(#bf1mlwpjdc8lp2)" font-family="sans-serif" font-size="14" lengthAdjust="spacing" textLength="64" x="477.9063" y="97.9707">Plugin API</text><ellipse cx="622.1875" cy="129.4844" fill="#222222" rx="10" ry="10" style="stroke:#222222;stroke-width:1.0;"/><polygon fill="#EBF5FB" points="533.1875,159.4844,711.1875,159.4844,723.1875,175.4453,711.1875,191.4063,533.1875,191.4063,521.1875,175.4453,533.1875,159.4844" style="stroke:#181818;stroke-width:0.5;"/><text fill="#000000" font-family="sans-serif" font-size="12" lengthAdjust="spacing" textLength="172" x="533.1875" y="172.4336">Does the plugin have to provide</text><text fill="#000000" font-family="sans-serif" font-size="12" lengthAdjust="spacing" textLength="178" x="533.1875" y="188.3945">a reader allocation mechanism?</text><text fill="#000000" font-family="sans-serif" font-size="12" lengthAdjust="spacing" textLength="19" x="502.1875" y="172.4336">yes</text><text fill="#000000" font-family="sans-serif" font-size="12" lengthAdjust="spacing" textLength="14" x="723.1875" y="172.4336">no</text><rect fill="#F8F9F9" height="198.5039" rx="3" ry="3" style="stroke:#000000;stroke-width:1.5;" width="211" x="279.8125" y="201.4063"/><path d="M433.8125,201.4063 L433.8125,213.0273 L423.8125,223.0273 L279.8125,223.0273 " fill="none" style="stroke:#000000;stroke-width:1.5;"/><text fill="#000000" font-family="sans-serif" font-size="14" lengthAdjust="spacing" textLength="128" x="290.8125" y="217.5137">Plugin factory object</text><rect fill="#E9F7EF" height="35.9609" rx="12.5" ry="12.5" style="stroke:#181818;stroke-width:0.5;" width="191" x="289.8125" y="240.0273"/><text fill="#000000" font-family="sans-serif" font-size="12" font-weight="bold" lengthAdjust="spacing" textLength="171" x="299.8125" y="262.9766">KeyplePluginExtensionFactory</text><rect fill="#F4ECF7" height="35.9609" rx="12.5" ry="12.5" style="stroke:#181818;stroke-width:0.5;" width="164" x="303.3125" y="295.9883"/><text fill="#000000" font-family="sans-serif" font-size="12" lengthAdjust="spacing" textLength="42" x="313.3125" y="318.9375">specific</text><text fill="#000000" font-family="sans-serif" font-size="12" font-weight="bold" lengthAdjust="spacing" textLength="99" x="358.3125" y="318.9375">XxxPluginFactory</text><rect fill="#FEFECE" height="35.9609" rx="12.5" ry="12.5" style="stroke:#181818;stroke-width:0.5;" width="140" x="315.3125" y="351.9492"/><text fill="#000000" font-family="sans-serif" font-size="12" font-weight="bold" lengthAdjust="spacing" textLength="120" x="325.3125" y="374.8984">PoolPluginFactorySpi</text><rect fill="#F8F9F9" height="206.5039" rx="3" ry="3" style="stroke:#000000;stroke-width:1.5;" width="169" x="300.8125" y="409.9102"/><path d="M407.8125,409.9102 L407.8125,421.5313 L397.8125,431.5313 L300.8125,431.5313 " fill="none" style="stroke:#000000;stroke-width:1.5;"/><text fill="#000000" font-family="sans-serif" font-size="14" lengthAdjust="spacing" textLength="81" x="311.8125" y="426.0176">Plugin object</text><rect fill="#E9F7EF" height="35.9609" rx="12.5" ry="12.5" style="stroke:#181818;stroke-width:0.5;" width="149" x="310.8125" y="448.5313"/><text fill="#000000" font-family="sans-serif" font-size="12" font-weight="bold" lengthAdjust="spacing" textLength="129" x="320.8125" y="471.4805">KeyplePluginExtension</text><rect fill="#F4ECF7" height="35.9609" rx="12.5" ry="12.5" style="stroke:#181818;stroke-width:0.5;" width="122" x="324.3125" y="504.4922"/><text fill="#000000" font-family="sans-serif" font-size="12" lengthAdjust="spacing" textLength="42" x="334.3125" y="527.4414">specific</text><text fill="#000000" font-family="sans-serif" font-size="12" font-weight="bold" lengthAdjust="spacing" textLength="57" x="379.3125" y="527.4414">XxxPlugin</text><rect fill="#FEFECE" height="35.9609" rx="12.5" ry="12.5" style="stroke:#181818;stroke-width:0.5;" width="98" x="336.3125" y="560.4531"/><text fill="#000000" font-family="sans-serif" font-size="12" font-weight="bold" lengthAdjust="spacing" textLength="78" x="346.3125" y="583.4023">PoolPluginSpi</text><rect fill="#F8F9F9" height="198.5039" rx="3" ry="3" style="stroke:#000000;stroke-width:1.5;" width="211" x="753.5625" y="201.4063"/><path d="M907.5625,201.4063 L907.5625,213.0273 L897.5625,223.0273 L753.5625,223.0273 " fill="none" style="stroke:#000000;stroke-width:1.5;"/><text fill="#000000" font-family="sans-serif" font-size="14" lengthAdjust="spacing" textLength="128" x="764.5625" y="217.5137">Plugin factory object</text><rect fill="#E9F7EF" height="35.9609" rx="12.5" ry="12.5" style="stroke:#181818;stroke-width:0.5;" width="191" x="763.5625" y="240.0273"/><text fill="#000000" font-family="sans-serif" font-size="12" font-weight="bold" lengthAdjust="spacing" textLength="171" x="773.5625" y="262.9766">KeyplePluginExtensionFactory</text><rect fill="#F4ECF7" height="35.9609" rx="12.5" ry="12.5" style="stroke:#181818;stroke-width:0.5;" width="164" x="777.0625" y="295.9883"/><text fill="#000000" font-family="sans-serif" font-size="12" lengthAdjust="spacing" textLength="42" x="787.0625" y="318.9375">specific</text><text fill="#000000" font-family="sans-serif" font-size="12" font-weight="bold" lengthAdjust="spacing" textLength="99" x="832.0625" y="318.9375">XxxPluginFactory</text><rect fill="#FEFECE" height="35.9609" rx="12.5" ry="12.5" style="stroke:#181818;stroke-width:0.5;" width="115" x="801.5625" y="351.9492"/><text fill="#000000" font-family="sans-serif" font-size="12" font-weight="bold" lengthAdjust="spacing" textLength="95" x="811.5625" y="374.8984">PluginFactorySpi</text><rect fill="#F8F9F9" height="382.3086" rx="3" ry="3" style="stroke:#000000;stroke-width:1.5;" width="513" x="510.8125" y="409.9102"/><path d="M617.8125,409.9102 L617.8125,421.5313 L607.8125,431.5313 L510.8125,431.5313 " fill="none" style="stroke:#000000;stroke-width:1.5;"/><text fill="#000000" font-family="sans-serif" font-size="14" lengthAdjust="spacing" textLength="81" x="521.8125" y="426.0176">Plugin object</text><rect fill="#E9F7EF" height="35.9609" rx="12.5" ry="12.5" style="stroke:#181818;stroke-width:0.5;" width="149" x="784.5625" y="448.5313"/><text fill="#000000" font-family="sans-serif" font-size="12" font-weight="bold" lengthAdjust="spacing" textLength="129" x="794.5625" y="471.4805">KeyplePluginExtension</text><rect fill="#F4ECF7" height="35.9609" rx="12.5" ry="12.5" style="stroke:#181818;stroke-width:0.5;" width="122" x="798.0625" y="504.4922"/><text fill="#000000" font-family="sans-serif" font-size="12" lengthAdjust="spacing" textLength="42" x="808.0625" y="527.4414">specific</text><text fill="#000000" font-family="sans-serif" font-size="12" font-weight="bold" lengthAdjust="spacing" textLength="57" x="853.0625" y="527.4414">XxxPlugin</text><polygon fill="#EBF5FB" points="790.5625,560.4531,927.5625,560.4531,939.5625,572.4531,927.5625,584.4531,790.5625,584.4531,778.5625,572.4531,790.5625,560.4531" style="stroke:#181818;stroke-width:0.5;"/><text fill="#000000" font-family="sans-serif" font-size="12" lengthAdjust="spacing" textLength="137" x="790.5625" y="577.4219">Is the reader removable?</text><text fill="#000000" font-family="sans-serif" font-size="12" lengthAdjust="spacing" textLength="19" x="759.5625" y="569.4414">yes</text><text fill="#000000" font-family="sans-serif" font-size="12" lengthAdjust="spacing" textLength="14" x="939.5625" y="569.4414">no</text><polygon fill="#EBF5FB" points="685.3125,594.4531,800.3125,594.4531,812.3125,634.3555,800.3125,674.2578,685.3125,674.2578,673.3125,634.3555,685.3125,594.4531" style="stroke:#181818;stroke-width:0.5;"/><text fill="#000000" font-family="sans-serif" font-size="12" lengthAdjust="spacing" textLength="87" x="685.3125" y="607.4023">Does the plugin</text><text fill="#000000" font-family="sans-serif" font-size="12" lengthAdjust="spacing" textLength="107" x="685.3125" y="623.3633">work autonomously</text><text fill="#000000" font-family="sans-serif" font-size="12" lengthAdjust="spacing" textLength="85" x="685.3125" y="639.3242">to detect reader</text><text fill="#000000" font-family="sans-serif" font-size="12" lengthAdjust="spacing" textLength="67" x="685.3125" y="655.2852">connections</text><text fill="#000000" font-family="sans-serif" font-size="12" lengthAdjust="spacing" textLength="115" x="685.3125" y="671.2461">and disconnections?</text><text fill="#000000" font-family="sans-serif" font-size="12" lengthAdjust="spacing" textLength="19" x="654.3125" y="631.3438">yes</text><text fill="#000000" font-family="sans-serif" font-size="12" lengthAdjust="spacing" textLength="14" x="812.3125" y="631.3438">no</text><rect fill="#FEFECE" height="35.9609" rx="12.5" ry="12.5" style="stroke:#181818;stroke-width:0.5;" width="210" x="540.8125" y="684.2578"/><text fill="#000000" font-family="sans-serif" font-size="12" font-weight="bold" lengthAdjust="spacing" textLength="190" x="550.8125" y="707.207">AutonomousObservablePluginSpi</text><rect fill="#FEFECE" height="35.9609" rx="12.5" ry="12.5" style="stroke:#181818;stroke-width:0.5;" width="138" x="770.8125" y="684.2578"/><text fill="#000000" font-family="sans-serif" font-size="12" font-weight="bold" lengthAdjust="spacing" textLength="118" x="780.8125" y="707.207">ObservablePluginSpi</text><polygon fill="#EBF5FB" points="742.8125,726.2188,754.8125,738.2188,742.8125,750.2188,730.8125,738.2188,742.8125,726.2188" style="stroke:#181818;stroke-width:0.5;"/><rect fill="#FEFECE" height="35.9609" rx="12.5" ry="12.5" style="stroke:#181818;stroke-width:0.5;" width="73" x="938.8125" y="594.4531"/><text fill="#000000" font-family="sans-serif" font-size="12" font-weight="bold" lengthAdjust="spacing" textLength="53" x="948.8125" y="617.4023">PluginSpi</text><polygon fill="#EBF5FB" points="859.0625,756.2188,871.0625,768.2188,859.0625,780.2188,847.0625,768.2188,859.0625,756.2188" style="stroke:#181818;stroke-width:0.5;"/><polygon fill="#EBF5FB" points="622.1875,798.2188,634.1875,810.2188,622.1875,822.2188,610.1875,810.2188,622.1875,798.2188" style="stroke:#181818;stroke-width:0.5;"/><rect fill="#F8F9F9" height="1223.4297" rx="3" ry="3" style="stroke:#000000;stroke-width:1.5;" width="852" x="11" y="832.2188"/><path d="M126,832.2188 L126,843.8398 L116,853.8398 L11,853.8398 " fill="none" style="stroke:#000000;stroke-width:1.5;"/><text fill="#000000" font-family="sans-serif" font-size="14" lengthAdjust="spacing" textLength="89" x="22" y="848.3262">Reader object</text><rect fill="#E9F7EF" height="35.9609" rx="12.5" ry="12.5" style="stroke:#181818;stroke-width:0.5;" width="155" x="544.6875" y="870.8398"/><text fill="#000000" font-family="sans-serif" font-size="12" font-weight="bold" lengthAdjust="spacing" textLength="135" x="554.6875" y="893.7891">KeypleReaderExtension</text><rect fill="#F4ECF7" height="35.9609" rx="12.5" ry="12.5" style="stroke:#181818;stroke-width:0.5;" width="128" x="558.1875" y="926.8008"/><text fill="#000000" font-family="sans-serif" font-size="12" lengthAdjust="spacing" textLength="42" x="568.1875" y="949.75">specific</text><text fill="#000000" font-family="sans-serif" font-size="12" font-weight="bold" lengthAdjust="spacing" textLength="63" x="613.1875" y="949.75">XxxReader</text><rect fill="#FEFECE" height="35.9609" rx="12.5" ry="12.5" style="stroke:#181818;stroke-width:0.5;" width="104" x="570.1875" y="1040.6641"/><text fill="#000000" font-family="sans-serif" font-size="12" font-weight="bold" lengthAdjust="spacing" textLength="84" x="580.1875" y="1063.6133">PoolReaderSpi</text><polygon fill="#EBF5FB" points="496.6875,982.7617,747.6875,982.7617,759.6875,998.7227,747.6875,1014.6836,496.6875,1014.6836,484.6875,998.7227,496.6875,982.7617" style="stroke:#181818;stroke-width:0.5;"/><text fill="#000000" font-family="sans-serif" font-size="12" lengthAdjust="spacing" textLength="19" x="626.1875" y="1027.6328">yes</text><text fill="#000000" font-family="sans-serif" font-size="12" lengthAdjust="spacing" textLength="205" x="496.6875" y="995.7109">Is the reader associated with a plugin</text><text fill="#000000" font-family="sans-serif" font-size="12" lengthAdjust="spacing" textLength="251" x="496.6875" y="1011.6719">that provides a reader allocation mechanism?</text><text fill="#000000" font-family="sans-serif" font-size="12" lengthAdjust="spacing" textLength="14" x="759.6875" y="995.7109">no</text><polygon fill="#EBF5FB" points="622.1875,1096.625,634.1875,1108.625,622.1875,1120.625,610.1875,1108.625,622.1875,1096.625" style="stroke:#181818;stroke-width:0.5;"/><rect fill="#FEFECE" height="35.9609" rx="12.5" ry="12.5" style="stroke:#181818;stroke-width:0.5;" width="151" x="546.6875" y="1198.5273"/><text fill="#000000" font-family="sans-serif" font-size="12" font-weight="bold" lengthAdjust="spacing" textLength="131" x="556.6875" y="1221.4766">ConfigurableReaderSpi</text><polygon fill="#EBF5FB" points="482.6875,1140.625,761.6875,1140.625,773.6875,1156.5859,761.6875,1172.5469,482.6875,1172.5469,470.6875,1156.5859,482.6875,1140.625" style="stroke:#181818;stroke-width:0.5;"/><text fill="#000000" font-family="sans-serif" font-size="12" lengthAdjust="spacing" textLength="19" x="626.1875" y="1185.4961">yes</text><text fill="#000000" font-family="sans-serif" font-size="12" lengthAdjust="spacing" textLength="193" x="482.6875" y="1153.5742">Is it possible to select the protocols</text><text fill="#000000" font-family="sans-serif" font-size="12" lengthAdjust="spacing" textLength="279" x="482.6875" y="1169.5352">used by the reader to communicate with the cards?</text><text fill="#000000" font-family="sans-serif" font-size="12" lengthAdjust="spacing" textLength="14" x="773.6875" y="1153.5742">no</text><polygon fill="#EBF5FB" points="622.1875,1254.4883,634.1875,1266.4883,622.1875,1278.4883,610.1875,1266.4883,622.1875,1254.4883" style="stroke:#181818;stroke-width:0.5;"/><rect fill="#FEFECE" height="35.9609" rx="12.5" ry="12.5" style="stroke:#181818;stroke-width:0.5;" width="204" x="520.1875" y="1356.3906"/><text fill="#000000" font-family="sans-serif" font-size="12" font-weight="bold" lengthAdjust="spacing" textLength="184" x="530.1875" y="1379.3398">AutonomousSelectionReaderSpi</text><polygon fill="#EBF5FB" points="507.6875,1298.4883,736.6875,1298.4883,748.6875,1314.4492,736.6875,1330.4102,507.6875,1330.4102,495.6875,1314.4492,507.6875,1298.4883" style="stroke:#181818;stroke-width:0.5;"/><text fill="#000000" font-family="sans-serif" font-size="12" lengthAdjust="spacing" textLength="19" x="626.1875" y="1343.3594">yes</text><text fill="#000000" font-family="sans-serif" font-size="12" lengthAdjust="spacing" textLength="229" x="507.6875" y="1311.4375">Is the selection command sent to the card</text><text fill="#000000" font-family="sans-serif" font-size="12" lengthAdjust="spacing" textLength="215" x="507.6875" y="1327.3984">managed autonomously by the reader?</text><text fill="#000000" font-family="sans-serif" font-size="12" lengthAdjust="spacing" textLength="14" x="748.6875" y="1311.4375">no</text><polygon fill="#EBF5FB" points="622.1875,1412.3516,634.1875,1424.3516,622.1875,1436.3516,610.1875,1424.3516,622.1875,1412.3516" style="stroke:#181818;stroke-width:0.5;"/><polygon fill="#EBF5FB" points="538.6875,1456.3516,705.6875,1456.3516,717.6875,1480.293,705.6875,1504.2344,538.6875,1504.2344,526.6875,1480.293,538.6875,1456.3516" style="stroke:#181818;stroke-width:0.5;"/><text fill="#000000" font-family="sans-serif" font-size="12" lengthAdjust="spacing" textLength="79" x="538.6875" y="1469.3008">Is it necessary</text><text fill="#000000" font-family="sans-serif" font-size="12" lengthAdjust="spacing" textLength="126" x="538.6875" y="1485.2617">to dynamically manage</text><text fill="#000000" font-family="sans-serif" font-size="12" lengthAdjust="spacing" textLength="167" x="538.6875" y="1501.2227">card insertions and removals?</text><text fill="#000000" font-family="sans-serif" font-size="12" lengthAdjust="spacing" textLength="19" x="507.6875" y="1477.2813">yes</text><text fill="#000000" font-family="sans-serif" font-size="12" lengthAdjust="spacing" textLength="14" x="717.6875" y="1477.2813">no</text><rect fill="#FEFECE" height="35.9609" rx="12.5" ry="12.5" style="stroke:#181818;stroke-width:0.5;" width="144" x="368.875" y="1514.2344"/><text fill="#000000" font-family="sans-serif" font-size="12" font-weight="bold" lengthAdjust="spacing" textLength="124" x="378.875" y="1537.1836">ObservableReaderSpi</text><polygon fill="#EBF5FB" points="371.875,1570.1953,509.875,1570.1953,521.875,1594.1367,509.875,1618.0781,371.875,1618.0781,359.875,1594.1367,371.875,1570.1953" style="stroke:#181818;stroke-width:0.5;"/><text fill="#000000" font-family="sans-serif" font-size="12" lengthAdjust="spacing" textLength="89" x="371.875" y="1583.1445">Does the reader</text><text fill="#000000" font-family="sans-serif" font-size="12" lengthAdjust="spacing" textLength="107" x="371.875" y="1599.1055">work autonomously</text><text fill="#000000" font-family="sans-serif" font-size="12" lengthAdjust="spacing" textLength="138" x="371.875" y="1615.0664">to detect card insertions?</text><text fill="#000000" font-family="sans-serif" font-size="12" lengthAdjust="spacing" textLength="19" x="340.875" y="1591.125">yes</text><text fill="#000000" font-family="sans-serif" font-size="12" lengthAdjust="spacing" textLength="14" x="521.875" y="1591.125">no</text><polygon fill="#EBF5FB" points="189.25,1628.0781,330.25,1628.0781,342.25,1652.0195,330.25,1675.9609,189.25,1675.9609,177.25,1652.0195,189.25,1628.0781" style="stroke:#181818;stroke-width:0.5;"/><text fill="#000000" font-family="sans-serif" font-size="12" lengthAdjust="spacing" textLength="141" x="189.25" y="1641.0273">Does the reader generate</text><text fill="#000000" font-family="sans-serif" font-size="12" lengthAdjust="spacing" textLength="117" x="189.25" y="1656.9883">asynchronous events</text><text fill="#000000" font-family="sans-serif" font-size="12" lengthAdjust="spacing" textLength="135" x="189.25" y="1672.9492">when a card is inserted?</text><text fill="#000000" font-family="sans-serif" font-size="12" lengthAdjust="spacing" textLength="19" x="158.25" y="1649.0078">yes</text><text fill="#000000" font-family="sans-serif" font-size="12" lengthAdjust="spacing" textLength="14" x="342.25" y="1649.0078">no</text><rect fill="#FEFECE" height="35.9609" rx="12.5" ry="12.5" style="stroke:#181818;stroke-width:0.5;" width="235" x="23" y="1685.9609"/><text fill="#000000" font-family="sans-serif" font-size="12" font-weight="bold" lengthAdjust="spacing" textLength="215" x="33" y="1708.9102">CardInsertionWaiterAsynchronousSpi</text><rect fill="#FEFECE" height="35.9609" rx="12.5" ry="12.5" style="stroke:#181818;stroke-width:0.5;" width="202" x="278" y="1685.9609"/><text fill="#000000" font-family="sans-serif" font-size="12" font-weight="bold" lengthAdjust="spacing" textLength="182" x="288" y="1708.9102">CardInsertionWaiterBlockingSpi</text><polygon fill="#EBF5FB" points="259.75,1727.9219,271.75,1739.9219,259.75,1751.9219,247.75,1739.9219,259.75,1727.9219" style="stroke:#181818;stroke-width:0.5;"/><rect fill="#FEFECE" height="35.9609" rx="12.5" ry="12.5" style="stroke:#181818;stroke-width:0.5;" width="224" x="510" y="1628.0781"/><text fill="#000000" font-family="sans-serif" font-size="12" font-weight="bold" lengthAdjust="spacing" textLength="204" x="520" y="1651.0273">CardInsertionWaiterNonBlockingSpi</text><polygon fill="#EBF5FB" points="440.875,1757.9219,452.875,1769.9219,440.875,1781.9219,428.875,1769.9219,440.875,1757.9219" style="stroke:#181818;stroke-width:0.5;"/><polygon fill="#EBF5FB" points="373.875,1801.9219,507.875,1801.9219,519.875,1825.8633,507.875,1849.8047,373.875,1849.8047,361.875,1825.8633,373.875,1801.9219" style="stroke:#181818;stroke-width:0.5;"/><text fill="#000000" font-family="sans-serif" font-size="12" lengthAdjust="spacing" textLength="89" x="373.875" y="1814.8711">Does the reader</text><text fill="#000000" font-family="sans-serif" font-size="12" lengthAdjust="spacing" textLength="107" x="373.875" y="1830.832">work autonomously</text><text fill="#000000" font-family="sans-serif" font-size="12" lengthAdjust="spacing" textLength="134" x="373.875" y="1846.793">to detect card removals?</text><text fill="#000000" font-family="sans-serif" font-size="12" lengthAdjust="spacing" textLength="19" x="342.875" y="1822.8516">yes</text><text fill="#000000" font-family="sans-serif" font-size="12" lengthAdjust="spacing" textLength="14" x="519.875" y="1822.8516">no</text><polygon fill="#EBF5FB" points="190,1859.8047,331,1859.8047,343,1883.7461,331,1907.6875,190,1907.6875,178,1883.7461,190,1859.8047" style="stroke:#181818;stroke-width:0.5;"/><text fill="#000000" font-family="sans-serif" font-size="12" lengthAdjust="spacing" textLength="141" x="190" y="1872.7539">Does the reader generate</text><text fill="#000000" font-family="sans-serif" font-size="12" lengthAdjust="spacing" textLength="117" x="190" y="1888.7148">asynchronous events</text><text fill="#000000" font-family="sans-serif" font-size="12" lengthAdjust="spacing" textLength="138" x="190" y="1904.6758">when a card is removed?</text><text fill="#000000" font-family="sans-serif" font-size="12" lengthAdjust="spacing" textLength="19" x="159" y="1880.7344">yes</text><text fill="#000000" font-family="sans-serif" font-size="12" lengthAdjust="spacing" textLength="14" x="343" y="1880.7344">no</text><rect fill="#FEFECE" height="35.9609" rx="12.5" ry="12.5" style="stroke:#181818;stroke-width:0.5;" width="234" x="24.75" y="1917.6875"/><text fill="#000000" font-family="sans-serif" font-size="12" font-weight="bold" lengthAdjust="spacing" textLength="214" x="34.75" y="1940.6367">CardRemovalWaiterAsynchronousSpi</text><rect fill="#FEFECE" height="35.9609" rx="12.5" ry="12.5" style="stroke:#181818;stroke-width:0.5;" width="201" x="278.75" y="1917.6875"/><text fill="#000000" font-family="sans-serif" font-size="12" font-weight="bold" lengthAdjust="spacing" textLength="181" x="288.75" y="1940.6367">CardRemovalWaiterBlockingSpi</text><polygon fill="#EBF5FB" points="260.5,1959.6484,272.5,1971.6484,260.5,1983.6484,248.5,1971.6484,260.5,1959.6484" style="stroke:#181818;stroke-width:0.5;"/><rect fill="#FEFECE" height="35.9609" rx="12.5" ry="12.5" style="stroke:#181818;stroke-width:0.5;" width="223" x="509.75" y="1859.8047"/><text fill="#000000" font-family="sans-serif" font-size="12" font-weight="bold" lengthAdjust="spacing" textLength="203" x="519.75" y="1882.7539">CardRemovalWaiterNonBlockingSpi</text><polygon fill="#EBF5FB" points="440.875,1989.6484,452.875,2001.6484,440.875,2013.6484,428.875,2001.6484,440.875,1989.6484" style="stroke:#181818;stroke-width:0.5;"/><rect fill="#FEFECE" height="35.9609" rx="12.5" ry="12.5" style="stroke:#181818;stroke-width:0.5;" width="79" x="764" y="1514.2344"/><text fill="#000000" font-family="sans-serif" font-size="12" font-weight="bold" lengthAdjust="spacing" textLength="59" x="774" y="1537.1836">ReaderSpi</text><polygon fill="#EBF5FB" points="622.1875,2019.6484,634.1875,2031.6484,622.1875,2043.6484,610.1875,2031.6484,622.1875,2019.6484" style="stroke:#181818;stroke-width:0.5;"/><ellipse cx="622.1875" cy="2086.6484" fill="none" rx="11" ry="11" style="stroke:#222222;stroke-width:1.0;"/><ellipse cx="622.1875" cy="2086.6484" fill="#222222" rx="6" ry="6" style="stroke:#222222;stroke-width:1.0;"/><line style="stroke:#181818;stroke-width:1.0;" x1="385.3125" x2="385.3125" y1="275.9883" y2="295.9883"/><polygon fill="#181818" points="381.3125,285.9883,385.3125,295.9883,389.3125,285.9883,385.3125,289.9883" style="stroke:#181818;stroke-width:1.0;"/><line style="stroke:#181818;stroke-width:1.0;" x1="385.3125" x2="385.3125" y1="331.9492" y2="351.9492"/><polygon fill="#181818" points="381.3125,341.9492,385.3125,351.9492,389.3125,341.9492,385.3125,345.9492" style="stroke:#181818;stroke-width:1.0;"/><line style="stroke:#181818;stroke-width:1.0;" x1="385.3125" x2="385.3125" y1="484.4922" y2="504.4922"/><polygon fill="#181818" points="381.3125,494.4922,385.3125,504.4922,389.3125,494.4922,385.3125,498.4922" style="stroke:#181818;stroke-width:1.0;"/><line style="stroke:#181818;stroke-width:1.0;" x1="385.3125" x2="385.3125" y1="540.4531" y2="560.4531"/><polygon fill="#181818" points="381.3125,550.4531,385.3125,560.4531,389.3125,550.4531,385.3125,554.4531" style="stroke:#181818;stroke-width:1.0;"/><line style="stroke:#181818;stroke-width:1.0;" x1="385.3125" x2="385.3125" y1="387.9102" y2="448.5313"/><polygon fill="#181818" points="381.3125,438.5313,385.3125,448.5313,389.3125,438.5313,385.3125,442.5313" style="stroke:#181818;stroke-width:1.0;"/><line style="stroke:#181818;stroke-width:1.0;" x1="859.0625" x2="859.0625" y1="275.9883" y2="295.9883"/><polygon fill="#181818" points="855.0625,285.9883,859.0625,295.9883,863.0625,285.9883,859.0625,289.9883" style="stroke:#181818;stroke-width:1.0;"/><line style="stroke:#181818;stroke-width:1.0;" x1="859.0625" x2="859.0625" y1="331.9492" y2="351.9492"/><polygon fill="#181818" points="855.0625,341.9492,859.0625,351.9492,863.0625,341.9492,859.0625,345.9492" style="stroke:#181818;stroke-width:1.0;"/><line style="stroke:#181818;stroke-width:1.0;" x1="859.0625" x2="859.0625" y1="484.4922" y2="504.4922"/><polygon fill="#181818" points="855.0625,494.4922,859.0625,504.4922,863.0625,494.4922,859.0625,498.4922" style="stroke:#181818;stroke-width:1.0;"/><line style="stroke:#181818;stroke-width:1.0;" x1="673.3125" x2="645.8125" y1="634.3555" y2="634.3555"/><line style="stroke:#181818;stroke-width:1.0;" x1="645.8125" x2="645.8125" y1="634.3555" y2="684.2578"/><polygon fill="#181818" points="641.8125,674.2578,645.8125,684.2578,649.8125,674.2578,645.8125,678.2578" style="stroke:#181818;stroke-width:1.0;"/><line style="stroke:#181818;stroke-width:1.0;" x1="812.3125" x2="839.8125" y1="634.3555" y2="634.3555"/><line style="stroke:#181818;stroke-width:1.0;" x1="839.8125" x2="839.8125" y1="634.3555" y2="684.2578"/><polygon fill="#181818" points="835.8125,674.2578,839.8125,684.2578,843.8125,674.2578,839.8125,678.2578" style="stroke:#181818;stroke-width:1.0;"/><line style="stroke:#181818;stroke-width:1.0;" x1="645.8125" x2="645.8125" y1="720.2188" y2="738.2188"/><line style="stroke:#181818;stroke-width:1.0;" x1="645.8125" x2="730.8125" y1="738.2188" y2="738.2188"/><polygon fill="#181818" points="720.8125,734.2188,730.8125,738.2188,720.8125,742.2188,724.8125,738.2188" style="stroke:#181818;stroke-width:1.0;"/><line style="stroke:#181818;stroke-width:1.0;" x1="839.8125" x2="839.8125" y1="720.2188" y2="738.2188"/><line style="stroke:#181818;stroke-width:1.0;" x1="839.8125" x2="754.8125" y1="738.2188" y2="738.2188"/><polygon fill="#181818" points="764.8125,734.2188,754.8125,738.2188,764.8125,742.2188,760.8125,738.2188" style="stroke:#181818;stroke-width:1.0;"/><line style="stroke:#181818;stroke-width:1.0;" x1="778.5625" x2="742.8125" y1="572.4531" y2="572.4531"/><line style="stroke:#181818;stroke-width:1.0;" x1="742.8125" x2="742.8125" y1="572.4531" y2="594.4531"/><polygon fill="#181818" points="738.8125,584.4531,742.8125,594.4531,746.8125,584.4531,742.8125,588.4531" style="stroke:#181818;stroke-width:1.0;"/><line style="stroke:#181818;stroke-width:1.0;" x1="939.5625" x2="975.3125" y1="572.4531" y2="572.4531"/><line style="stroke:#181818;stroke-width:1.0;" x1="975.3125" x2="975.3125" y1="572.4531" y2="594.4531"/><polygon fill="#181818" points="971.3125,584.4531,975.3125,594.4531,979.3125,584.4531,975.3125,588.4531" style="stroke:#181818;stroke-width:1.0;"/><line style="stroke:#181818;stroke-width:1.0;" x1="742.8125" x2="742.8125" y1="750.2188" y2="768.2188"/><line style="stroke:#181818;stroke-width:1.0;" x1="742.8125" x2="847.0625" y1="768.2188" y2="768.2188"/><polygon fill="#181818" points="837.0625,764.2188,847.0625,768.2188,837.0625,772.2188,841.0625,768.2188" style="stroke:#181818;stroke-width:1.0;"/><line style="stroke:#181818;stroke-width:1.0;" x1="975.3125" x2="975.3125" y1="630.4141" y2="768.2188"/><line style="stroke:#181818;stroke-width:1.0;" x1="975.3125" x2="871.0625" y1="768.2188" y2="768.2188"/><polygon fill="#181818" points="881.0625,764.2188,871.0625,768.2188,881.0625,772.2188,877.0625,768.2188" style="stroke:#181818;stroke-width:1.0;"/><line style="stroke:#181818;stroke-width:1.0;" x1="859.0625" x2="859.0625" y1="540.4531" y2="560.4531"/><polygon fill="#181818" points="855.0625,550.4531,859.0625,560.4531,863.0625,550.4531,859.0625,554.4531" style="stroke:#181818;stroke-width:1.0;"/><line style="stroke:#181818;stroke-width:1.0;" x1="859.0625" x2="859.0625" y1="387.9102" y2="448.5313"/><polygon fill="#181818" points="855.0625,438.5313,859.0625,448.5313,863.0625,438.5313,859.0625,442.5313" style="stroke:#181818;stroke-width:1.0;"/><line style="stroke:#181818;stroke-width:1.0;" x1="521.1875" x2="385.3125" y1="175.4453" y2="175.4453"/><line style="stroke:#181818;stroke-width:1.0;" x1="385.3125" x2="385.3125" y1="175.4453" y2="240.0273"/><polygon fill="#181818" points="381.3125,230.0273,385.3125,240.0273,389.3125,230.0273,385.3125,234.0273" style="stroke:#181818;stroke-width:1.0;"/><line style="stroke:#181818;stroke-width:1.0;" x1="723.1875" x2="859.0625" y1="175.4453" y2="175.4453"/><line style="stroke:#181818;stroke-width:1.0;" x1="859.0625" x2="859.0625" y1="175.4453" y2="240.0273"/><polygon fill="#181818" points="855.0625,230.0273,859.0625,240.0273,863.0625,230.0273,859.0625,234.0273" style="stroke:#181818;stroke-width:1.0;"/><line style="stroke:#181818;stroke-width:1.0;" x1="385.3125" x2="385.3125" y1="596.4141" y2="810.2188"/><line style="stroke:#181818;stroke-width:1.0;" x1="385.3125" x2="610.1875" y1="810.2188" y2="810.2188"/><polygon fill="#181818" points="600.1875,806.2188,610.1875,810.2188,600.1875,814.2188,604.1875,810.2188" style="stroke:#181818;stroke-width:1.0;"/><line style="stroke:#181818;stroke-width:1.0;" x1="859.0625" x2="859.0625" y1="780.2188" y2="810.2188"/><line style="stroke:#181818;stroke-width:1.0;" x1="859.0625" x2="634.1875" y1="810.2188" y2="810.2188"/><polygon fill="#181818" points="644.1875,806.2188,634.1875,810.2188,644.1875,814.2188,640.1875,810.2188" style="stroke:#181818;stroke-width:1.0;"/><line style="stroke:#181818;stroke-width:1.0;" x1="622.1875" x2="622.1875" y1="139.4844" y2="159.4844"/><polygon fill="#181818" points="618.1875,149.4844,622.1875,159.4844,626.1875,149.4844,622.1875,153.4844" style="stroke:#181818;stroke-width:1.0;"/><line style="stroke:#181818;stroke-width:1.0;" x1="622.1875" x2="622.1875" y1="906.8008" y2="926.8008"/><polygon fill="#181818" points="618.1875,916.8008,622.1875,926.8008,626.1875,916.8008,622.1875,920.8008" style="stroke:#181818;stroke-width:1.0;"/><line style="stroke:#181818;stroke-width:1.0;" x1="622.1875" x2="622.1875" y1="1014.6836" y2="1040.6641"/><polygon fill="#181818" points="618.1875,1030.6641,622.1875,1040.6641,626.1875,1030.6641,622.1875,1034.6641" style="stroke:#181818;stroke-width:1.0;"/><line style="stroke:#181818;stroke-width:1.0;" x1="759.6875" x2="771.6875" y1="998.7227" y2="998.7227"/><polygon fill="#181818" points="767.6875,1046.6641,771.6875,1056.6641,775.6875,1046.6641,771.6875,1050.6641" style="stroke:#181818;stroke-width:1.0;"/><line style="stroke:#181818;stroke-width:1.0;" x1="771.6875" x2="771.6875" y1="998.7227" y2="1108.625"/><line style="stroke:#181818;stroke-width:1.0;" x1="771.6875" x2="634.1875" y1="1108.625" y2="1108.625"/><polygon fill="#181818" points="644.1875,1104.625,634.1875,1108.625,644.1875,1112.625,640.1875,1108.625" style="stroke:#181818;stroke-width:1.0;"/><line style="stroke:#181818;stroke-width:1.0;" x1="622.1875" x2="622.1875" y1="1076.625" y2="1096.625"/><polygon fill="#181818" points="618.1875,1086.625,622.1875,1096.625,626.1875,1086.625,622.1875,1090.625" style="stroke:#181818;stroke-width:1.0;"/><line style="stroke:#181818;stroke-width:1.0;" x1="622.1875" x2="622.1875" y1="962.7617" y2="982.7617"/><polygon fill="#181818" points="618.1875,972.7617,622.1875,982.7617,626.1875,972.7617,622.1875,976.7617" style="stroke:#181818;stroke-width:1.0;"/><line style="stroke:#181818;stroke-width:1.0;" x1="622.1875" x2="622.1875" y1="1172.5469" y2="1198.5273"/><polygon fill="#181818" points="618.1875,1188.5273,622.1875,1198.5273,626.1875,1188.5273,622.1875,1192.5273" style="stroke:#181818;stroke-width:1.0;"/><line style="stroke:#181818;stroke-width:1.0;" x1="773.6875" x2="785.6875" y1="1156.5859" y2="1156.5859"/><polygon fill="#181818" points="781.6875,1204.5273,785.6875,1214.5273,789.6875,1204.5273,785.6875,1208.5273" style="stroke:#181818;stroke-width:1.0;"/><line style="stroke:#181818;stroke-width:1.0;" x1="785.6875" x2="785.6875" y1="1156.5859" y2="1266.4883"/><line style="stroke:#181818;stroke-width:1.0;" x1="785.6875" x2="634.1875" y1="1266.4883" y2="1266.4883"/><polygon fill="#181818" points="644.1875,1262.4883,634.1875,1266.4883,644.1875,1270.4883,640.1875,1266.4883" style="stroke:#181818;stroke-width:1.0;"/><line style="stroke:#181818;stroke-width:1.0;" x1="622.1875" x2="622.1875" y1="1234.4883" y2="1254.4883"/><polygon fill="#181818" points="618.1875,1244.4883,622.1875,1254.4883,626.1875,1244.4883,622.1875,1248.4883" style="stroke:#181818;stroke-width:1.0;"/><line style="stroke:#181818;stroke-width:1.0;" x1="622.1875" x2="622.1875" y1="1120.625" y2="1140.625"/><polygon fill="#181818" points="618.1875,1130.625,622.1875,1140.625,626.1875,1130.625,622.1875,1134.625" style="stroke:#181818;stroke-width:1.0;"/><line style="stroke:#181818;stroke-width:1.0;" x1="622.1875" x2="622.1875" y1="1330.4102" y2="1356.3906"/><polygon fill="#181818" points="618.1875,1346.3906,622.1875,1356.3906,626.1875,1346.3906,622.1875,1350.3906" style="stroke:#181818;stroke-width:1.0;"/><line style="stroke:#181818;stroke-width:1.0;" x1="748.6875" x2="760.6875" y1="1314.4492" y2="1314.4492"/><polygon fill="#181818" points="756.6875,1362.3906,760.6875,1372.3906,764.6875,1362.3906,760.6875,1366.3906" style="stroke:#181818;stroke-width:1.0;"/><line style="stroke:#181818;stroke-width:1.0;" x1="760.6875" x2="760.6875" y1="1314.4492" y2="1424.3516"/><line style="stroke:#181818;stroke-width:1.0;" x1="760.6875" x2="634.1875" y1="1424.3516" y2="1424.3516"/><polygon fill="#181818" points="644.1875,1420.3516,634.1875,1424.3516,644.1875,1428.3516,640.1875,1424.3516" style="stroke:#181818;stroke-width:1.0;"/><line style="stroke:#181818;stroke-width:1.0;" x1="622.1875" x2="622.1875" y1="1392.3516" y2="1412.3516"/><polygon fill="#181818" points="618.1875,1402.3516,622.1875,1412.3516,626.1875,1402.3516,622.1875,1406.3516" style="stroke:#181818;stroke-width:1.0;"/><line style="stroke:#181818;stroke-width:1.0;" x1="622.1875" x2="622.1875" y1="1278.4883" y2="1298.4883"/><polygon fill="#181818" points="618.1875,1288.4883,622.1875,1298.4883,626.1875,1288.4883,622.1875,1292.4883" style="stroke:#181818;stroke-width:1.0;"/><line style="stroke:#181818;stroke-width:1.0;" x1="177.25" x2="140.5" y1="1652.0195" y2="1652.0195"/><line style="stroke:#181818;stroke-width:1.0;" x1="140.5" x2="140.5" y1="1652.0195" y2="1685.9609"/><polygon fill="#181818" points="136.5,1675.9609,140.5,1685.9609,144.5,1675.9609,140.5,1679.9609" style="stroke:#181818;stroke-width:1.0;"/><line style="stroke:#181818;stroke-width:1.0;" x1="342.25" x2="379" y1="1652.0195" y2="1652.0195"/><line style="stroke:#181818;stroke-width:1.0;" x1="379" x2="379" y1="1652.0195" y2="1685.9609"/><polygon fill="#181818" points="375,1675.9609,379,1685.9609,383,1675.9609,379,1679.9609" style="stroke:#181818;stroke-width:1.0;"/><line style="stroke:#181818;stroke-width:1.0;" x1="140.5" x2="140.5" y1="1721.9219" y2="1739.9219"/><line style="stroke:#181818;stroke-width:1.0;" x1="140.5" x2="247.75" y1="1739.9219" y2="1739.9219"/><polygon fill="#181818" points="237.75,1735.9219,247.75,1739.9219,237.75,1743.9219,241.75,1739.9219" style="stroke:#181818;stroke-width:1.0;"/><line style="stroke:#181818;stroke-width:1.0;" x1="379" x2="379" y1="1721.9219" y2="1739.9219"/><line style="stroke:#181818;stroke-width:1.0;" x1="379" x2="271.75" y1="1739.9219" y2="1739.9219"/><polygon fill="#181818" points="281.75,1735.9219,271.75,1739.9219,281.75,1743.9219,277.75,1739.9219" style="stroke:#181818;stroke-width:1.0;"/><line style="stroke:#181818;stroke-width:1.0;" x1="359.875" x2="259.75" y1="1594.1367" y2="1594.1367"/><line style="stroke:#181818;stroke-width:1.0;" x1="259.75" x2="259.75" y1="1594.1367" y2="1628.0781"/><polygon fill="#181818" points="255.75,1618.0781,259.75,1628.0781,263.75,1618.0781,259.75,1622.0781" style="stroke:#181818;stroke-width:1.0;"/><line style="stroke:#181818;stroke-width:1.0;" x1="521.875" x2="622" y1="1594.1367" y2="1594.1367"/><line style="stroke:#181818;stroke-width:1.0;" x1="622" x2="622" y1="1594.1367" y2="1628.0781"/><polygon fill="#181818" points="618,1618.0781,622,1628.0781,626,1618.0781,622,1622.0781" style="stroke:#181818;stroke-width:1.0;"/><line style="stroke:#181818;stroke-width:1.0;" x1="259.75" x2="259.75" y1="1751.9219" y2="1769.9219"/><line style="stroke:#181818;stroke-width:1.0;" x1="259.75" x2="428.875" y1="1769.9219" y2="1769.9219"/><polygon fill="#181818" points="418.875,1765.9219,428.875,1769.9219,418.875,1773.9219,422.875,1769.9219" style="stroke:#181818;stroke-width:1.0;"/><line style="stroke:#181818;stroke-width:1.0;" x1="622" x2="622" y1="1664.0391" y2="1769.9219"/><line style="stroke:#181818;stroke-width:1.0;" x1="622" x2="452.875" y1="1769.9219" y2="1769.9219"/><polygon fill="#181818" points="462.875,1765.9219,452.875,1769.9219,462.875,1773.9219,458.875,1769.9219" style="stroke:#181818;stroke-width:1.0;"/><line style="stroke:#181818;stroke-width:1.0;" x1="440.875" x2="440.875" y1="1550.1953" y2="1570.1953"/><polygon fill="#181818" points="436.875,1560.1953,440.875,1570.1953,444.875,1560.1953,440.875,1564.1953" style="stroke:#181818;stroke-width:1.0;"/><line style="stroke:#181818;stroke-width:1.0;" x1="178" x2="141.75" y1="1883.7461" y2="1883.7461"/><line style="stroke:#181818;stroke-width:1.0;" x1="141.75" x2="141.75" y1="1883.7461" y2="1917.6875"/><polygon fill="#181818" points="137.75,1907.6875,141.75,1917.6875,145.75,1907.6875,141.75,1911.6875" style="stroke:#181818;stroke-width:1.0;"/><line style="stroke:#181818;stroke-width:1.0;" x1="343" x2="379.25" y1="1883.7461" y2="1883.7461"/><line style="stroke:#181818;stroke-width:1.0;" x1="379.25" x2="379.25" y1="1883.7461" y2="1917.6875"/><polygon fill="#181818" points="375.25,1907.6875,379.25,1917.6875,383.25,1907.6875,379.25,1911.6875" style="stroke:#181818;stroke-width:1.0;"/><line style="stroke:#181818;stroke-width:1.0;" x1="141.75" x2="141.75" y1="1953.6484" y2="1971.6484"/><line style="stroke:#181818;stroke-width:1.0;" x1="141.75" x2="248.5" y1="1971.6484" y2="1971.6484"/><polygon fill="#181818" points="238.5,1967.6484,248.5,1971.6484,238.5,1975.6484,242.5,1971.6484" style="stroke:#181818;stroke-width:1.0;"/><line style="stroke:#181818;stroke-width:1.0;" x1="379.25" x2="379.25" y1="1953.6484" y2="1971.6484"/><line style="stroke:#181818;stroke-width:1.0;" x1="379.25" x2="272.5" y1="1971.6484" y2="1971.6484"/><polygon fill="#181818" points="282.5,1967.6484,272.5,1971.6484,282.5,1975.6484,278.5,1971.6484" style="stroke:#181818;stroke-width:1.0;"/><line style="stroke:#181818;stroke-width:1.0;" x1="361.875" x2="260.5" y1="1825.8633" y2="1825.8633"/><line style="stroke:#181818;stroke-width:1.0;" x1="260.5" x2="260.5" y1="1825.8633" y2="1859.8047"/><polygon fill="#181818" points="256.5,1849.8047,260.5,1859.8047,264.5,1849.8047,260.5,1853.8047" style="stroke:#181818;stroke-width:1.0;"/><line style="stroke:#181818;stroke-width:1.0;" x1="519.875" x2="621.25" y1="1825.8633" y2="1825.8633"/><line style="stroke:#181818;stroke-width:1.0;" x1="621.25" x2="621.25" y1="1825.8633" y2="1859.8047"/><polygon fill="#181818" points="617.25,1849.8047,621.25,1859.8047,625.25,1849.8047,621.25,1853.8047" style="stroke:#181818;stroke-width:1.0;"/><line style="stroke:#181818;stroke-width:1.0;" x1="260.5" x2="260.5" y1="1983.6484" y2="2001.6484"/><line style="stroke:#181818;stroke-width:1.0;" x1="260.5" x2="428.875" y1="2001.6484" y2="2001.6484"/><polygon fill="#181818" points="418.875,1997.6484,428.875,2001.6484,418.875,2005.6484,422.875,2001.6484" style="stroke:#181818;stroke-width:1.0;"/><line style="stroke:#181818;stroke-width:1.0;" x1="621.25" x2="621.25" y1="1895.7656" y2="2001.6484"/><line style="stroke:#181818;stroke-width:1.0;" x1="621.25" x2="452.875" y1="2001.6484" y2="2001.6484"/><polygon fill="#181818" points="462.875,1997.6484,452.875,2001.6484,462.875,2005.6484,458.875,2001.6484" style="stroke:#181818;stroke-width:1.0;"/><line style="stroke:#181818;stroke-width:1.0;" x1="440.875" x2="440.875" y1="1781.9219" y2="1801.9219"/><polygon fill="#181818" points="436.875,1791.9219,440.875,1801.9219,444.875,1791.9219,440.875,1795.9219" style="stroke:#181818;stroke-width:1.0;"/><line style="stroke:#181818;stroke-width:1.0;" x1="526.6875" x2="440.875" y1="1480.293" y2="1480.293"/><line style="stroke:#181818;stroke-width:1.0;" x1="440.875" x2="440.875" y1="1480.293" y2="1514.2344"/><polygon fill="#181818" points="436.875,1504.2344,440.875,1514.2344,444.875,1504.2344,440.875,1508.2344" style="stroke:#181818;stroke-width:1.0;"/><line style="stroke:#181818;stroke-width:1.0;" x1="717.6875" x2="803.5" y1="1480.293" y2="1480.293"/><line style="stroke:#181818;stroke-width:1.0;" x1="803.5" x2="803.5" y1="1480.293" y2="1514.2344"/><polygon fill="#181818" points="799.5,1504.2344,803.5,1514.2344,807.5,1504.2344,803.5,1508.2344" style="stroke:#181818;stroke-width:1.0;"/><line style="stroke:#181818;stroke-width:1.0;" x1="440.875" x2="440.875" y1="2013.6484" y2="2031.6484"/><line style="stroke:#181818;stroke-width:1.0;" x1="440.875" x2="610.1875" y1="2031.6484" y2="2031.6484"/><polygon fill="#181818" points="600.1875,2027.6484,610.1875,2031.6484,600.1875,2035.6484,604.1875,2031.6484" style="stroke:#181818;stroke-width:1.0;"/><line style="stroke:#181818;stroke-width:1.0;" x1="803.5" x2="803.5" y1="1550.1953" y2="2031.6484"/><line style="stroke:#181818;stroke-width:1.0;" x1="803.5" x2="634.1875" y1="2031.6484" y2="2031.6484"/><polygon fill="#181818" points="644.1875,2027.6484,634.1875,2031.6484,644.1875,2035.6484,640.1875,2031.6484" style="stroke:#181818;stroke-width:1.0;"/><line style="stroke:#181818;stroke-width:1.0;" x1="622.1875" x2="622.1875" y1="1436.3516" y2="1456.3516"/><polygon fill="#181818" points="618.1875,1446.3516,622.1875,1456.3516,626.1875,1446.3516,622.1875,1450.3516" style="stroke:#181818;stroke-width:1.0;"/><line style="stroke:#181818;stroke-width:1.0;" x1="622.1875" x2="622.1875" y1="822.2188" y2="870.8398"/><polygon fill="#181818" points="618.1875,860.8398,622.1875,870.8398,626.1875,860.8398,622.1875,864.8398" style="stroke:#181818;stroke-width:1.0;"/><line style="stroke:#181818;stroke-width:1.0;" x1="622.1875" x2="622.1875" y1="2043.6484" y2="2075.6484"/><polygon fill="#181818" points="618.1875,2065.6484,622.1875,2075.6484,626.1875,2065.6484,622.1875,2069.6484" style="stroke:#181818;stroke-width:1.0;"/><!--SRC=[rLRRRjj647tdLqpJXpe2N25kBhLgkB0KiZ1g98AC80qWG5YH8t9hSfVONKfc2lrxPxcKJOgIBHj-QFaWYBCpPywUkO0_ZMIHOg4qSAqBr10X320n9jU3VZynMHhALAfGHgX_3cNMNwY-OVCKMN4SuN7eedUOwA_ciJZEKsRwtWyHBhX06Ct-cFZVta3mQt0Qd6wPJo0u2Nu9tZRCt_ohgyzV8V03V-GtxECla_6L3y5RVnHyQDY7Lrzyy8V1ks3O1lS_WNyQVF03xqoRCiLpZuM6BxafFt8MAvR1FnxG4t6MIH7LR_OPil0cLh8GqSWgKIUvEmwaCDVyEyARaygshdwPKdBL0DdjbJDbkE5IF9YkKkpkVEAEb405xskijNVMhs-bRxWWMBhFTS8YkU8YXWLBDNfUYZ7IpOpCgx3Ph4gWmTbdCnXKzXwSpOd3e9RjV2GpKWGknfTdVNjmlkNbId4-JekO2_ZhzdQ_gwlcnhNXPdav6fwd3QdYUNm1HnybDQH9478NaR0b4d_8bLpo2AU2WK8MaH8iJMN8AYap31CckCv-VsrZ1HoLg5zlwVqAe6Qne3wGgWGv_nj30tHoNuiVQmq6lTwVMEOfkXZ_rg3G11Eus5xljsQ84sIWSmpvWeVGwv4eBd9tW9E5aeobJ5kErpdV-Axttk0vp0-d_3ZN5acaLeCZ8VydWl-7nRO3SEdQlsvoXPbSsaNRxUncqDRKJCLAgXjWXP52PhBGQJaLD4GH6diJXpqLeHI2teckfhcYUOouRjZsfzpMzE8kqUUvHbKHxZJAvcctopx8Gu14n1VUmx3Tocy1tOEiFVVVQ_N0nDLXkmSwzNT-dVhlgxrpjrxUxi8phMN8cS48LjmamEvAQn9cDkjGmnFNuQwHTbmQkhIbh5LfqEIKNshDgJXsDMjChJPL-obf97qzK3yLcgZFo-QTo9S-9x92S2AAxbxsE6Ggqezp7Kcnu76XR5CycRFDuuXQXImDs_0QXR6qDYocWimi9kRDsMbVut6Yz-DmlSdu78rf3b5hfkhPBGNBIBYK-3YIDC146RYWIQa65koLtCP83z3pViGwx3fxPRCo7jmhMtGEN5brSz2N02fg2zf4kXHXeYX5eG6NL29gfvL5OdKANMV1wF0TDQB8omsthumRL1UDHCzUL3jmXpI9z4qMly3Ese7-IOez2ThWpwpVm_tpCjMhSZorU1D7x8LBrq9zuSAri0yfMnUs2TdT8LNWsdu_o_nV]--></g></svg>