<?xml version="1.0" encoding="UTF-8" standalone="no"?><svg xmlns="http://www.w3.org/2000/svg" xmlns:xlink="http://www.w3.org/1999/xlink" contentScriptType="application/ecmascript" contentStyleType="text/css" height="802px" preserveAspectRatio="none" style="width:1098px;height:802px;background:#FFFFFF;" version="1.1" viewBox="0 0 1098 802" width="1098px" zoomAndPan="magnify"><defs><filter height="1" id="bw0y8d51wzlhu0" width="1" x="0" y="0"><feFlood flood-color="#FEFECE" result="flood"/><feComposite in="SourceGraphic" in2="flood" operator="over"/></filter><filter height="1" id="bw0y8d51wzlhu1" width="1" x="0" y="0"><feFlood flood-color="#ADD8E6" result="flood"/><feComposite in="SourceGraphic" in2="flood" operator="over"/></filter><filter height="1" id="bw0y8d51wzlhu2" width="1" x="0" y="0"><feFlood flood-color="#DDA0DD" result="flood"/><feComposite in="SourceGraphic" in2="flood" operator="over"/></filter></defs><g><rect fill="#DDDDDD" height="80.4375" rx="5" ry="5" style="stroke:#000000;stroke-width:1.0;" width="228" x="428" y="8"/><text fill="#000000" font-family="sans-serif" font-size="14" lengthAdjust="spacing" text-decoration="underline" textLength="88" x="434" y="27.5332">Colors legend</text><text fill="#000000" font-family="sans-serif" font-size="14" lengthAdjust="spacing" textLength="4" x="526" y="27.5332">:</text><ellipse cx="439.5" cy="40.7188" fill="#000000" rx="2.5" ry="2.5" style="stroke:#000000;stroke-width:0.0;"/><text fill="#000000" filter="url(#bw0y8d51wzlhu0)" font-family="sans-serif" font-size="14" lengthAdjust="spacing" textLength="203" x="447" y="45.1426">Public API (for client application)</text><ellipse cx="439.5" cy="58.3281" fill="#000000" rx="2.5" ry="2.5" style="stroke:#000000;stroke-width:0.0;"/><text fill="#000000" filter="url(#bw0y8d51wzlhu1)" font-family="sans-serif" font-size="14" lengthAdjust="spacing" textLength="104" x="447" y="62.752">Private adapters</text><ellipse cx="439.5" cy="75.9375" fill="#000000" rx="2.5" ry="2.5" style="stroke:#000000;stroke-width:0.0;"/><text fill="#000000" filter="url(#bw0y8d51wzlhu2)" font-family="sans-serif" font-size="14" lengthAdjust="spacing" textLength="119" x="447" y="80.3613">Keyple internal API</text><!--MD5=[5e9f90057dc6411d2856ad2f5cede32e]
cluster commonApi--><polygon fill="#F8F9F9" points="285,103.4375,519,103.4375,526,144.6563,978,144.6563,978,237.4375,285,237.4375,285,103.4375" style="stroke:#000000;stroke-width:1.5;"/><line style="stroke:#000000;stroke-width:1.5;" x1="285" x2="526" y1="144.6563" y2="144.6563"/><text fill="#000000" font-family="sans-serif" font-size="14" font-weight="bold" lengthAdjust="spacing" textLength="87" x="359.5" y="119.9707">Common API</text><text fill="#000000" font-family="sans-serif" font-size="14" font-weight="bold" lengthAdjust="spacing" textLength="228" x="289" y="137.5801">org.eclipse.keyple.core.common</text><!--MD5=[6cb19e7d8351e03571d64db4601c3623]
cluster pluginSpi--><polygon fill="#F8F9F9" points="433,663.4375,677,663.4375,684,704.6563,869,704.6563,869,795.4375,433,795.4375,433,663.4375" style="stroke:#000000;stroke-width:1.5;"/><line style="stroke:#000000;stroke-width:1.5;" x1="433" x2="684" y1="704.6563" y2="704.6563"/><text fill="#000000" font-family="sans-serif" font-size="14" font-weight="bold" lengthAdjust="spacing" textLength="70" x="521" y="679.9707">Plugin API</text><text fill="#000000" font-family="sans-serif" font-size="14" font-weight="bold" lengthAdjust="spacing" textLength="238" x="437" y="697.5801">org.eclipse.keyple.core.plugin.spi</text><!--MD5=[f4079738657ebf8f47a9de3e76e08740]
cluster specificPluginApi--><polygon fill="#F8F9F9" points="16,286.4375,227,286.4375,234,327.6563,1081,327.6563,1081,622.4375,16,622.4375,16,286.4375" style="stroke:#000000;stroke-width:1.5;"/><line style="stroke:#000000;stroke-width:1.5;" x1="16" x2="234" y1="327.6563" y2="327.6563"/><text fill="#000000" font-family="sans-serif" font-size="14" font-weight="bold" lengthAdjust="spacing" textLength="73" x="86" y="302.9707">Plugin Xxx</text><text fill="#000000" font-family="sans-serif" font-size="14" font-weight="bold" lengthAdjust="spacing" textLength="205" x="20" y="320.5801">org.eclipse.keyple.plugin.xxx</text><!--MD5=[c9fcbc22b46e6fe8dd529abbe4ed4a83]
class KeyplePluginExtensionFactory--><rect codeLine="53" fill="#FEFECE" height="48" id="KeyplePluginExtensionFactory" style="stroke:#D4AC0D;stroke-width:1.5;" width="210" x="328" y="165.4375"/><ellipse cx="343" cy="181.4375" fill="#B4A7E5" rx="11" ry="11" style="stroke:#B4A7E5;stroke-width:1.0;"/><path d="M344,178.4375 L344,184.4375 L346,184.4375 L346.4844,184.4375 L347,185.0625 L347,185.4375 L347,185.8125 L346.4844,186.4375 L346,186.4375 L340,186.4375 L339.5156,186.4375 L339,185.8125 L339,185.4375 L339,185.0625 L339.5156,184.4375 L340,184.4375 L342,184.4375 L342,178.4375 L340,178.4375 L339.5156,178.4375 L339,177.8125 L339,177.4375 L339,177.0625 L339.5156,176.4375 L340,176.4375 L346,176.4375 L346.4844,176.4375 L347,177.0625 L347,177.4375 L347,177.8125 L346.4844,178.4375 L346,178.4375 L344,178.4375 Z " fill="#000000"/><ellipse cx="362" cy="180.9375" fill="#84BE84" rx="3" ry="3" style="stroke:#038048;stroke-width:1.0;"/><text fill="#000000" font-family="sans-serif" font-size="12" font-style="italic" lengthAdjust="spacing" textLength="167" x="368" y="186.3477">KeyplePluginExtensionFactory</text><line style="stroke:#D4AC0D;stroke-width:1.5;" x1="329" x2="537" y1="197.4375" y2="197.4375"/><line style="stroke:#D4AC0D;stroke-width:1.5;" x1="329" x2="537" y1="205.4375" y2="205.4375"/><!--MD5=[afffbc881b1d922900a05d5f1575661b]
class KeyplePluginExtension--><rect codeLine="55" fill="#FEFECE" height="48" id="KeyplePluginExtension" style="stroke:#D4AC0D;stroke-width:1.5;" width="170" x="573" y="165.4375"/><ellipse cx="588" cy="181.4375" fill="#B4A7E5" rx="11" ry="11" style="stroke:#B4A7E5;stroke-width:1.0;"/><path d="M589,178.4375 L589,184.4375 L591,184.4375 L591.4844,184.4375 L592,185.0625 L592,185.4375 L592,185.8125 L591.4844,186.4375 L591,186.4375 L585,186.4375 L584.5156,186.4375 L584,185.8125 L584,185.4375 L584,185.0625 L584.5156,184.4375 L585,184.4375 L587,184.4375 L587,178.4375 L585,178.4375 L584.5156,178.4375 L584,177.8125 L584,177.4375 L584,177.0625 L584.5156,176.4375 L585,176.4375 L591,176.4375 L591.4844,176.4375 L592,177.0625 L592,177.4375 L592,177.8125 L591.4844,178.4375 L591,178.4375 L589,178.4375 Z " fill="#000000"/><ellipse cx="607" cy="180.9375" fill="#84BE84" rx="3" ry="3" style="stroke:#038048;stroke-width:1.0;"/><text fill="#000000" font-family="sans-serif" font-size="12" font-style="italic" lengthAdjust="spacing" textLength="127" x="613" y="186.3477">KeyplePluginExtension</text><line style="stroke:#D4AC0D;stroke-width:1.5;" x1="574" x2="742" y1="197.4375" y2="197.4375"/><line style="stroke:#D4AC0D;stroke-width:1.5;" x1="574" x2="742" y1="205.4375" y2="205.4375"/><!--MD5=[d0367e54e30269e1f6406d1a6d3c359c]
class KeypleReaderExtension--><rect codeLine="57" fill="#FEFECE" height="48" id="KeypleReaderExtension" style="stroke:#D4AC0D;stroke-width:1.5;" width="176" x="778" y="165.4375"/><ellipse cx="793" cy="181.4375" fill="#B4A7E5" rx="11" ry="11" style="stroke:#B4A7E5;stroke-width:1.0;"/><path d="M794,178.4375 L794,184.4375 L796,184.4375 L796.4844,184.4375 L797,185.0625 L797,185.4375 L797,185.8125 L796.4844,186.4375 L796,186.4375 L790,186.4375 L789.5156,186.4375 L789,185.8125 L789,185.4375 L789,185.0625 L789.5156,184.4375 L790,184.4375 L792,184.4375 L792,178.4375 L790,178.4375 L789.5156,178.4375 L789,177.8125 L789,177.4375 L789,177.0625 L789.5156,176.4375 L790,176.4375 L796,176.4375 L796.4844,176.4375 L797,177.0625 L797,177.4375 L797,177.8125 L796.4844,178.4375 L796,178.4375 L794,178.4375 Z " fill="#000000"/><ellipse cx="812" cy="180.9375" fill="#84BE84" rx="3" ry="3" style="stroke:#038048;stroke-width:1.0;"/><text fill="#000000" font-family="sans-serif" font-size="12" font-style="italic" lengthAdjust="spacing" textLength="133" x="818" y="186.3477">KeypleReaderExtension</text><line style="stroke:#D4AC0D;stroke-width:1.5;" x1="779" x2="953" y1="197.4375" y2="197.4375"/><line style="stroke:#D4AC0D;stroke-width:1.5;" x1="779" x2="953" y1="205.4375" y2="205.4375"/><!--MD5=[b139ab9773e4f9d5f3343a17f6c03cd6]
class ReaderSpi--><rect codeLine="131" fill="#F4ECF7" height="61.8359" id="ReaderSpi" style="stroke:#8E44AD;stroke-width:1.5;" width="102" x="751" y="717.4375"/><ellipse cx="766" cy="733.4375" fill="#B4A7E5" rx="11" ry="11" style="stroke:#B4A7E5;stroke-width:1.0;"/><path d="M767,730.4375 L767,736.4375 L769,736.4375 L769.4844,736.4375 L770,737.0625 L770,737.4375 L770,737.8125 L769.4844,738.4375 L769,738.4375 L763,738.4375 L762.5156,738.4375 L762,737.8125 L762,737.4375 L762,737.0625 L762.5156,736.4375 L763,736.4375 L765,736.4375 L765,730.4375 L763,730.4375 L762.5156,730.4375 L762,729.8125 L762,729.4375 L762,729.0625 L762.5156,728.4375 L763,728.4375 L769,728.4375 L769.4844,728.4375 L770,729.0625 L770,729.4375 L770,729.8125 L769.4844,730.4375 L769,730.4375 L767,730.4375 Z " fill="#000000"/><ellipse cx="785" cy="732.9375" fill="#84BE84" rx="3" ry="3" style="stroke:#038048;stroke-width:1.0;"/><text fill="#000000" font-family="sans-serif" font-size="12" font-style="italic" lengthAdjust="spacing" textLength="59" x="791" y="738.3477">ReaderSpi</text><line style="stroke:#8E44AD;stroke-width:1.5;" x1="752" x2="852" y1="749.4375" y2="749.4375"/><line style="stroke:#8E44AD;stroke-width:1.0;" x1="752" x2="852" y1="757.4375" y2="757.4375"/><text fill="#000000" font-family="sans-serif" font-size="11" lengthAdjust="spacing" textLength="9" x="757" y="772.8564">...</text><!--MD5=[b7f0fd29174c4bdbe9801878c5229577]
class PluginSpi--><rect codeLine="132" fill="#F4ECF7" height="61.8359" id="PluginSpi" style="stroke:#8E44AD;stroke-width:1.5;" width="96" x="620" y="717.4375"/><ellipse cx="635" cy="733.4375" fill="#B4A7E5" rx="11" ry="11" style="stroke:#B4A7E5;stroke-width:1.0;"/><path d="M636,730.4375 L636,736.4375 L638,736.4375 L638.4844,736.4375 L639,737.0625 L639,737.4375 L639,737.8125 L638.4844,738.4375 L638,738.4375 L632,738.4375 L631.5156,738.4375 L631,737.8125 L631,737.4375 L631,737.0625 L631.5156,736.4375 L632,736.4375 L634,736.4375 L634,730.4375 L632,730.4375 L631.5156,730.4375 L631,729.8125 L631,729.4375 L631,729.0625 L631.5156,728.4375 L632,728.4375 L638,728.4375 L638.4844,728.4375 L639,729.0625 L639,729.4375 L639,729.8125 L638.4844,730.4375 L638,730.4375 L636,730.4375 Z " fill="#000000"/><ellipse cx="654" cy="732.9375" fill="#84BE84" rx="3" ry="3" style="stroke:#038048;stroke-width:1.0;"/><text fill="#000000" font-family="sans-serif" font-size="12" font-style="italic" lengthAdjust="spacing" textLength="53" x="660" y="738.3477">PluginSpi</text><line style="stroke:#8E44AD;stroke-width:1.5;" x1="621" x2="715" y1="749.4375" y2="749.4375"/><line style="stroke:#8E44AD;stroke-width:1.0;" x1="621" x2="715" y1="757.4375" y2="757.4375"/><text fill="#000000" font-family="sans-serif" font-size="11" lengthAdjust="spacing" textLength="9" x="626" y="772.8564">...</text><!--MD5=[1dbdc6fbf367d908234c3412457bed60]
class PluginFactorySpi--><rect codeLine="133" fill="#F4ECF7" height="61.8359" id="PluginFactorySpi" style="stroke:#8E44AD;stroke-width:1.5;" width="136" x="449" y="717.4375"/><ellipse cx="464" cy="733.4375" fill="#B4A7E5" rx="11" ry="11" style="stroke:#B4A7E5;stroke-width:1.0;"/><path d="M465,730.4375 L465,736.4375 L467,736.4375 L467.4844,736.4375 L468,737.0625 L468,737.4375 L468,737.8125 L467.4844,738.4375 L467,738.4375 L461,738.4375 L460.5156,738.4375 L460,737.8125 L460,737.4375 L460,737.0625 L460.5156,736.4375 L461,736.4375 L463,736.4375 L463,730.4375 L461,730.4375 L460.5156,730.4375 L460,729.8125 L460,729.4375 L460,729.0625 L460.5156,728.4375 L461,728.4375 L467,728.4375 L467.4844,728.4375 L468,729.0625 L468,729.4375 L468,729.8125 L467.4844,730.4375 L467,730.4375 L465,730.4375 Z " fill="#000000"/><ellipse cx="483" cy="732.9375" fill="#84BE84" rx="3" ry="3" style="stroke:#038048;stroke-width:1.0;"/><text fill="#000000" font-family="sans-serif" font-size="12" font-style="italic" lengthAdjust="spacing" textLength="93" x="489" y="738.3477">PluginFactorySpi</text><line style="stroke:#8E44AD;stroke-width:1.5;" x1="450" x2="584" y1="749.4375" y2="749.4375"/><line style="stroke:#8E44AD;stroke-width:1.0;" x1="450" x2="584" y1="757.4375" y2="757.4375"/><text fill="#000000" font-family="sans-serif" font-size="11" lengthAdjust="spacing" textLength="9" x="455" y="772.8564">...</text><!--MD5=[4670e3288db9b9619ceff04e1207677d]
class XxxPluginFactoryProvider--><rect codeLine="77" fill="#FEFECE" height="61.8359" id="XxxPluginFactoryProvider" style="stroke:#D4AC0D;stroke-width:1.5;" width="211" x="59.5" y="372.4375"/><ellipse cx="74.5" cy="388.4375" fill="#ADD1B2" rx="11" ry="11" style="stroke:#ADD1B2;stroke-width:1.0;"/><path d="M76.5,384.9375 Q76.7031,384.4375 76.9375,384.1875 Q77.1719,383.9375 77.4375,383.9375 Q77.9063,383.9375 78.2031,384.2188 Q78.5,384.5 78.5,385.1563 L78.5,386.7188 Q78.5,387.375 78.2188,387.6563 Q77.9375,387.9375 77.5,387.9375 Q77.1094,387.9375 76.8594,387.7656 Q76.6094,387.5938 76.5,387.1406 Q76.4531,386.8281 76.2813,386.6563 Q75.9688,386.3281 75.4063,386.1406 Q74.8438,385.9375 74.2813,385.9375 Q73.5781,385.9375 72.9844,386.2188 Q72.4063,386.5 71.9531,387.125 Q71.5,387.75 71.5,388.6094 L71.5,389.5313 Q71.5,390.5625 72.3438,391.25 Q73.1875,391.9375 74.6875,391.9375 Q75.5781,391.9375 76.2031,391.7344 Q76.5625,391.625 76.9688,391.2656 Q77.2344,391.0625 77.375,391 Q77.5156,390.9375 77.6875,390.9375 Q78.0156,390.9375 78.25,391.2031 Q78.5,391.4531 78.5,391.8125 Q78.5,392.1563 78.1563,392.5625 Q77.6563,393.1563 76.8594,393.4844 Q75.8125,393.9375 74.5313,393.9375 Q73.0313,393.9375 71.8281,393.3438 Q70.8594,392.875 70.1719,391.8594 Q69.5,390.8438 69.5,389.6406 L69.5,388.5469 Q69.5,387.2969 70.0938,386.2031 Q70.7031,385.1094 71.75,384.5313 Q72.8125,383.9375 74,383.9375 Q74.7188,383.9375 75.3438,384.1875 Q75.9688,384.4375 76.5,384.9375 Z " fill="#000000"/><ellipse cx="93.5" cy="387.9375" fill="#84BE84" rx="3" ry="3" style="stroke:#038048;stroke-width:1.0;"/><text fill="#000000" font-family="sans-serif" font-size="12" font-style="italic" font-weight="bold" lengthAdjust="spacing" textLength="24" x="99.5" y="393.3477">final</text><text fill="#000000" font-family="sans-serif" font-size="12" font-style="italic" lengthAdjust="spacing" textLength="141" x="126.5" y="393.3477">XxxPluginFactoryProvider</text><line style="stroke:#D4AC0D;stroke-width:1.5;" x1="60.5" x2="269.5" y1="404.4375" y2="404.4375"/><line style="stroke:#D4AC0D;stroke-width:1.5;" x1="60.5" x2="269.5" y1="412.4375" y2="412.4375"/><ellipse cx="70.5" cy="423.4375" fill="#84BE84" rx="3" ry="3" style="stroke:#038048;stroke-width:1.0;"/><text fill="#000000" font-family="sans-serif" font-size="11" lengthAdjust="spacing" text-decoration="underline" textLength="150" x="79.5" y="427.8564">XxxPluginFactory getFactory ()</text><!--MD5=[c861a2fc75b723c3851515a646acb623]
class XxxPluginFactory--><rect codeLine="81" fill="#FEFECE" height="61.8359" id="XxxPluginFactory" style="stroke:#D4AC0D;stroke-width:1.5;" width="145" x="349.5" y="372.4375"/><ellipse cx="367.65" cy="388.4375" fill="#B4A7E5" rx="11" ry="11" style="stroke:#B4A7E5;stroke-width:1.0;"/><path d="M368.65,385.4375 L368.65,391.4375 L370.65,391.4375 L371.1344,391.4375 L371.65,392.0625 L371.65,392.4375 L371.65,392.8125 L371.1344,393.4375 L370.65,393.4375 L364.65,393.4375 L364.1656,393.4375 L363.65,392.8125 L363.65,392.4375 L363.65,392.0625 L364.1656,391.4375 L364.65,391.4375 L366.65,391.4375 L366.65,385.4375 L364.65,385.4375 L364.1656,385.4375 L363.65,384.8125 L363.65,384.4375 L363.65,384.0625 L364.1656,383.4375 L364.65,383.4375 L370.65,383.4375 L371.1344,383.4375 L371.65,384.0625 L371.65,384.4375 L371.65,384.8125 L371.1344,385.4375 L370.65,385.4375 L368.65,385.4375 Z " fill="#000000"/><ellipse cx="387.35" cy="387.9375" fill="#84BE84" rx="3" ry="3" style="stroke:#038048;stroke-width:1.0;"/><text fill="#000000" font-family="sans-serif" font-size="12" font-style="italic" lengthAdjust="spacing" textLength="95" x="393.35" y="393.3477">XxxPluginFactory</text><line style="stroke:#D4AC0D;stroke-width:1.5;" x1="350.5" x2="493.5" y1="404.4375" y2="404.4375"/><line style="stroke:#D4AC0D;stroke-width:1.0;" x1="350.5" x2="493.5" y1="412.4375" y2="412.4375"/><text fill="#000000" font-family="sans-serif" font-size="11" lengthAdjust="spacing" textLength="133" x="355.5" y="427.8564">custom settings... (optional)</text><!--MD5=[edf63986a93c13a89744cca57b13c331]
class XxxPlugin--><rect codeLine="85" fill="#FEFECE" height="61.8359" id="XxxPlugin" style="stroke:#D4AC0D;stroke-width:1.5;" width="145" x="604.5" y="372.4375"/><ellipse cx="640.65" cy="388.4375" fill="#B4A7E5" rx="11" ry="11" style="stroke:#B4A7E5;stroke-width:1.0;"/><path d="M641.65,385.4375 L641.65,391.4375 L643.65,391.4375 L644.1344,391.4375 L644.65,392.0625 L644.65,392.4375 L644.65,392.8125 L644.1344,393.4375 L643.65,393.4375 L637.65,393.4375 L637.1656,393.4375 L636.65,392.8125 L636.65,392.4375 L636.65,392.0625 L637.1656,391.4375 L637.65,391.4375 L639.65,391.4375 L639.65,385.4375 L637.65,385.4375 L637.1656,385.4375 L636.65,384.8125 L636.65,384.4375 L636.65,384.0625 L637.1656,383.4375 L637.65,383.4375 L643.65,383.4375 L644.1344,383.4375 L644.65,384.0625 L644.65,384.4375 L644.65,384.8125 L644.1344,385.4375 L643.65,385.4375 L641.65,385.4375 Z " fill="#000000"/><ellipse cx="664.35" cy="387.9375" fill="#84BE84" rx="3" ry="3" style="stroke:#038048;stroke-width:1.0;"/><text fill="#000000" font-family="sans-serif" font-size="12" font-style="italic" lengthAdjust="spacing" textLength="55" x="670.35" y="393.3477">XxxPlugin</text><line style="stroke:#D4AC0D;stroke-width:1.5;" x1="605.5" x2="748.5" y1="404.4375" y2="404.4375"/><line style="stroke:#D4AC0D;stroke-width:1.0;" x1="605.5" x2="748.5" y1="412.4375" y2="412.4375"/><text fill="#000000" font-family="sans-serif" font-size="11" lengthAdjust="spacing" textLength="133" x="610.5" y="427.8564">custom settings... (optional)</text><!--MD5=[61382160f1f1a1de4e6f719b0ee6b0da]
class XxxReader--><rect codeLine="89" fill="#FEFECE" height="61.8359" id="XxxReader" style="stroke:#D4AC0D;stroke-width:1.5;" width="145" x="798.5" y="372.4375"/><ellipse cx="831.95" cy="388.4375" fill="#B4A7E5" rx="11" ry="11" style="stroke:#B4A7E5;stroke-width:1.0;"/><path d="M832.95,385.4375 L832.95,391.4375 L834.95,391.4375 L835.4344,391.4375 L835.95,392.0625 L835.95,392.4375 L835.95,392.8125 L835.4344,393.4375 L834.95,393.4375 L828.95,393.4375 L828.4656,393.4375 L827.95,392.8125 L827.95,392.4375 L827.95,392.0625 L828.4656,391.4375 L828.95,391.4375 L830.95,391.4375 L830.95,385.4375 L828.95,385.4375 L828.4656,385.4375 L827.95,384.8125 L827.95,384.4375 L827.95,384.0625 L828.4656,383.4375 L828.95,383.4375 L834.95,383.4375 L835.4344,383.4375 L835.95,384.0625 L835.95,384.4375 L835.95,384.8125 L835.4344,385.4375 L834.95,385.4375 L832.95,385.4375 Z " fill="#000000"/><ellipse cx="855.05" cy="387.9375" fill="#84BE84" rx="3" ry="3" style="stroke:#038048;stroke-width:1.0;"/><text fill="#000000" font-family="sans-serif" font-size="12" font-style="italic" lengthAdjust="spacing" textLength="61" x="861.05" y="393.3477">XxxReader</text><line style="stroke:#D4AC0D;stroke-width:1.5;" x1="799.5" x2="942.5" y1="404.4375" y2="404.4375"/><line style="stroke:#D4AC0D;stroke-width:1.0;" x1="799.5" x2="942.5" y1="412.4375" y2="412.4375"/><text fill="#000000" font-family="sans-serif" font-size="11" lengthAdjust="spacing" textLength="133" x="804.5" y="427.8564">custom settings... (optional)</text><!--MD5=[f2a163533d7859ad611dbb51fc1329ed]
class XxxPluginFactoryAdapter--><rect codeLine="130" fill="#EBF5FB" height="61.8359" id="XxxPluginFactoryAdapter" style="stroke:#3498DB;stroke-width:1.5;" width="208" x="303" y="512.4375"/><ellipse cx="318" cy="528.4375" fill="#ADD1B2" rx="11" ry="11" style="stroke:#ADD1B2;stroke-width:1.0;"/><path d="M320,524.9375 Q320.2031,524.4375 320.4375,524.1875 Q320.6719,523.9375 320.9375,523.9375 Q321.4063,523.9375 321.7031,524.2188 Q322,524.5 322,525.1563 L322,526.7188 Q322,527.375 321.7188,527.6563 Q321.4375,527.9375 321,527.9375 Q320.6094,527.9375 320.3594,527.7656 Q320.1094,527.5938 320,527.1406 Q319.9531,526.8281 319.7813,526.6563 Q319.4688,526.3281 318.9063,526.1406 Q318.3438,525.9375 317.7813,525.9375 Q317.0781,525.9375 316.4844,526.2188 Q315.9063,526.5 315.4531,527.125 Q315,527.75 315,528.6094 L315,529.5313 Q315,530.5625 315.8438,531.25 Q316.6875,531.9375 318.1875,531.9375 Q319.0781,531.9375 319.7031,531.7344 Q320.0625,531.625 320.4688,531.2656 Q320.7344,531.0625 320.875,531 Q321.0156,530.9375 321.1875,530.9375 Q321.5156,530.9375 321.75,531.2031 Q322,531.4531 322,531.8125 Q322,532.1563 321.6563,532.5625 Q321.1563,533.1563 320.3594,533.4844 Q319.3125,533.9375 318.0313,533.9375 Q316.5313,533.9375 315.3281,533.3438 Q314.3594,532.875 313.6719,531.8594 Q313,530.8438 313,529.6406 L313,528.5469 Q313,527.2969 313.5938,526.2031 Q314.2031,525.1094 315.25,524.5313 Q316.3125,523.9375 317.5,523.9375 Q318.2188,523.9375 318.8438,524.1875 Q319.4688,524.4375 320,524.9375 Z " fill="#000000"/><polygon fill="#4177AF" points="337,523.9375,333,529.9375,341,529.9375" style="stroke:#1963A0;stroke-width:1.0;"/><text fill="#000000" font-family="sans-serif" font-size="12" font-style="italic" font-weight="bold" lengthAdjust="spacing" textLength="24" x="343" y="533.3477">final</text><text fill="#000000" font-family="sans-serif" font-size="12" font-style="italic" lengthAdjust="spacing" textLength="138" x="370" y="533.3477">XxxPluginFactoryAdapter</text><line style="stroke:#3498DB;stroke-width:1.5;" x1="304" x2="510" y1="544.4375" y2="544.4375"/><line style="stroke:#3498DB;stroke-width:1.0;" x1="304" x2="510" y1="552.4375" y2="552.4375"/><text fill="#000000" font-family="sans-serif" font-size="11" lengthAdjust="spacing" textLength="9" x="309" y="567.8564">...</text><!--MD5=[f8b9e63a901e6376487cfc3ea9a67a98]
class XxxPluginAdapter--><rect codeLine="129" fill="#EBF5FB" height="61.8359" id="XxxPluginAdapter" style="stroke:#3498DB;stroke-width:1.5;" width="168" x="601" y="512.4375"/><ellipse cx="616" cy="528.4375" fill="#ADD1B2" rx="11" ry="11" style="stroke:#ADD1B2;stroke-width:1.0;"/><path d="M618,524.9375 Q618.2031,524.4375 618.4375,524.1875 Q618.6719,523.9375 618.9375,523.9375 Q619.4063,523.9375 619.7031,524.2188 Q620,524.5 620,525.1563 L620,526.7188 Q620,527.375 619.7188,527.6563 Q619.4375,527.9375 619,527.9375 Q618.6094,527.9375 618.3594,527.7656 Q618.1094,527.5938 618,527.1406 Q617.9531,526.8281 617.7813,526.6563 Q617.4688,526.3281 616.9063,526.1406 Q616.3438,525.9375 615.7813,525.9375 Q615.0781,525.9375 614.4844,526.2188 Q613.9063,526.5 613.4531,527.125 Q613,527.75 613,528.6094 L613,529.5313 Q613,530.5625 613.8438,531.25 Q614.6875,531.9375 616.1875,531.9375 Q617.0781,531.9375 617.7031,531.7344 Q618.0625,531.625 618.4688,531.2656 Q618.7344,531.0625 618.875,531 Q619.0156,530.9375 619.1875,530.9375 Q619.5156,530.9375 619.75,531.2031 Q620,531.4531 620,531.8125 Q620,532.1563 619.6563,532.5625 Q619.1563,533.1563 618.3594,533.4844 Q617.3125,533.9375 616.0313,533.9375 Q614.5313,533.9375 613.3281,533.3438 Q612.3594,532.875 611.6719,531.8594 Q611,530.8438 611,529.6406 L611,528.5469 Q611,527.2969 611.5938,526.2031 Q612.2031,525.1094 613.25,524.5313 Q614.3125,523.9375 615.5,523.9375 Q616.2188,523.9375 616.8438,524.1875 Q617.4688,524.4375 618,524.9375 Z " fill="#000000"/><polygon fill="#4177AF" points="635,523.9375,631,529.9375,639,529.9375" style="stroke:#1963A0;stroke-width:1.0;"/><text fill="#000000" font-family="sans-serif" font-size="12" font-style="italic" font-weight="bold" lengthAdjust="spacing" textLength="24" x="641" y="533.3477">final</text><text fill="#000000" font-family="sans-serif" font-size="12" font-style="italic" lengthAdjust="spacing" textLength="98" x="668" y="533.3477">XxxPluginAdapter</text><line style="stroke:#3498DB;stroke-width:1.5;" x1="602" x2="768" y1="544.4375" y2="544.4375"/><line style="stroke:#3498DB;stroke-width:1.0;" x1="602" x2="768" y1="552.4375" y2="552.4375"/><text fill="#000000" font-family="sans-serif" font-size="11" lengthAdjust="spacing" textLength="9" x="607" y="567.8564">...</text><!--MD5=[fc930e6e7f8d38ef4c79caeb41bf5ed0]
class XxxReaderAdapter--><rect codeLine="128" fill="#EBF5FB" height="61.8359" id="XxxReaderAdapter" style="stroke:#3498DB;stroke-width:1.5;" width="174" x="859" y="512.4375"/><ellipse cx="874" cy="528.4375" fill="#ADD1B2" rx="11" ry="11" style="stroke:#ADD1B2;stroke-width:1.0;"/><path d="M876,524.9375 Q876.2031,524.4375 876.4375,524.1875 Q876.6719,523.9375 876.9375,523.9375 Q877.4063,523.9375 877.7031,524.2188 Q878,524.5 878,525.1563 L878,526.7188 Q878,527.375 877.7188,527.6563 Q877.4375,527.9375 877,527.9375 Q876.6094,527.9375 876.3594,527.7656 Q876.1094,527.5938 876,527.1406 Q875.9531,526.8281 875.7813,526.6563 Q875.4688,526.3281 874.9063,526.1406 Q874.3438,525.9375 873.7813,525.9375 Q873.0781,525.9375 872.4844,526.2188 Q871.9063,526.5 871.4531,527.125 Q871,527.75 871,528.6094 L871,529.5313 Q871,530.5625 871.8438,531.25 Q872.6875,531.9375 874.1875,531.9375 Q875.0781,531.9375 875.7031,531.7344 Q876.0625,531.625 876.4688,531.2656 Q876.7344,531.0625 876.875,531 Q877.0156,530.9375 877.1875,530.9375 Q877.5156,530.9375 877.75,531.2031 Q878,531.4531 878,531.8125 Q878,532.1563 877.6563,532.5625 Q877.1563,533.1563 876.3594,533.4844 Q875.3125,533.9375 874.0313,533.9375 Q872.5313,533.9375 871.3281,533.3438 Q870.3594,532.875 869.6719,531.8594 Q869,530.8438 869,529.6406 L869,528.5469 Q869,527.2969 869.5938,526.2031 Q870.2031,525.1094 871.25,524.5313 Q872.3125,523.9375 873.5,523.9375 Q874.2188,523.9375 874.8438,524.1875 Q875.4688,524.4375 876,524.9375 Z " fill="#000000"/><polygon fill="#4177AF" points="893,523.9375,889,529.9375,897,529.9375" style="stroke:#1963A0;stroke-width:1.0;"/><text fill="#000000" font-family="sans-serif" font-size="12" font-style="italic" font-weight="bold" lengthAdjust="spacing" textLength="24" x="899" y="533.3477">final</text><text fill="#000000" font-family="sans-serif" font-size="12" font-style="italic" lengthAdjust="spacing" textLength="104" x="926" y="533.3477">XxxReaderAdapter</text><line style="stroke:#3498DB;stroke-width:1.5;" x1="860" x2="1032" y1="544.4375" y2="544.4375"/><line style="stroke:#3498DB;stroke-width:1.0;" x1="860" x2="1032" y1="552.4375" y2="552.4375"/><text fill="#000000" font-family="sans-serif" font-size="11" lengthAdjust="spacing" textLength="9" x="865" y="567.8564">...</text><!--MD5=[c310a337bee6afad6a3dc4dc77667e7c]
reverse link KeyplePluginExtensionFactory to XxxPluginFactory--><path d="M430.761,233.5815 C428.621,274.8275 425.45,335.9505 423.567,372.2325 " fill="none" id="KeyplePluginExtensionFactory-backto-XxxPluginFactory" style="stroke:#A80036;stroke-width:1.0;"/><polygon fill="none" points="423.775,233.1395,431.802,213.5285,437.756,233.8645,423.775,233.1395" style="stroke:#A80036;stroke-width:1.0;"/><!--MD5=[4f6d4bb488040b36314039cabf0f5483]
reverse link KeyplePluginExtension to XxxPlugin--><path d="M661.867,233.5815 C665.563,274.8275 671.041,335.9505 674.293,372.2325 " fill="none" id="KeyplePluginExtension-backto-XxxPlugin" style="stroke:#A80036;stroke-width:1.0;"/><polygon fill="none" points="654.883,234.0735,660.07,213.5285,668.827,232.8245,654.883,234.0735" style="stroke:#A80036;stroke-width:1.0;"/><!--MD5=[a3aa9fcf70875956441eaefe24651fb6]
reverse link KeypleReaderExtension to XxxReader--><path d="M867.018,233.5815 C867.99,274.8275 869.432,335.9505 870.288,372.2325 " fill="none" id="KeypleReaderExtension-backto-XxxReader" style="stroke:#A80036;stroke-width:1.0;"/><polygon fill="none" points="860.018,233.6885,866.545,213.5285,874.014,233.3585,860.018,233.6885" style="stroke:#A80036;stroke-width:1.0;"/><!--MD5=[822c766258b4a633187c41757eaf7e83]
reverse link XxxPluginFactory to XxxPluginFactoryAdapter--><path d="M416.521,454.8445 C414.429,474.0935 412.11,495.4285 410.284,512.2235 " fill="none" id="XxxPluginFactory-backto-XxxPluginFactoryAdapter" style="stroke:#A80036;stroke-width:1.0;stroke-dasharray:7.0,7.0;"/><polygon fill="none" points="409.588,453.8485,418.708,434.7225,423.506,455.3615,409.588,453.8485" style="stroke:#A80036;stroke-width:1.0;"/><!--MD5=[52693224c56908da6ab15f9855dc48cc]
reverse link PluginFactorySpi to XxxPluginFactoryAdapter--><path d="M493.865,698.9275 C485.639,682.1655 476.146,663.3525 467,646.4375 C453.71,621.8595 437.607,594.6085 425.431,574.4615 " fill="none" id="PluginFactorySpi-backto-XxxPluginFactoryAdapter" style="stroke:#A80036;stroke-width:1.0;stroke-dasharray:7.0,7.0;"/><polygon fill="none" points="500.247,696.0455,502.684,717.0949,487.653,702.1595,500.247,696.0455" style="stroke:#A80036;stroke-width:1.0;"/><!--MD5=[3aac7e11a633f26a1af41c6990461abe]
link XxxPluginFactoryAdapter to PluginFactorySpi--><!--MD5=[ec4d3f429ade4f3c24ba9a20eb7fdf88]
reverse link XxxPlugin to XxxPluginAdapter--><path d="M679.922,454.8445 C681.038,474.0935 682.275,495.4285 683.248,512.2235 " fill="none" id="XxxPlugin-backto-XxxPluginAdapter" style="stroke:#A80036;stroke-width:1.0;stroke-dasharray:7.0,7.0;"/><polygon fill="none" points="672.925,455.0935,678.756,434.7225,686.901,454.2835,672.925,455.0935" style="stroke:#A80036;stroke-width:1.0;"/><!--MD5=[e197c0c4110c303d5365143b1d016246]
reverse link PluginSpi to XxxPluginAdapter--><path d="M674.025,697.3005 C675.802,681.3755 677.634,663.6825 679,647.4375 C681.056,622.9835 682.63,595.2045 683.649,574.6635 " fill="none" id="PluginSpi-backto-XxxPluginAdapter" style="stroke:#A80036;stroke-width:1.0;stroke-dasharray:7.0,7.0;"/><polygon fill="none" points="680.966,698.2135,671.725,717.2823,667.058,696.6135,680.966,698.2135" style="stroke:#A80036;stroke-width:1.0;"/><!--MD5=[db73c0cecaec0cbb5969a1954583f634]
link XxxPluginAdapter to PluginSpi--><!--MD5=[0070e8aed7e42b9f02a6bf437a31fc28]
reverse link XxxReader to XxxReaderAdapter--><path d="M897.059,452.3865 C907.86,472.2605 920.061,494.7105 929.579,512.2235 " fill="none" id="XxxReader-backto-XxxReaderAdapter" style="stroke:#A80036;stroke-width:1.0;stroke-dasharray:7.0,7.0;"/><polygon fill="none" points="890.859,455.6375,887.459,434.7225,903.16,448.9525,890.859,455.6375" style="stroke:#A80036;stroke-width:1.0;"/><!--MD5=[c7a95d765dd8e7f9c38cfd22bf83d0a8]
reverse link ReaderSpi to XxxReaderAdapter--><path d="M835.051,700.8455 C862.509,662.1365 900.779,608.1865 924.442,574.8285 " fill="none" id="ReaderSpi-backto-XxxReaderAdapter" style="stroke:#A80036;stroke-width:1.0;stroke-dasharray:7.0,7.0;"/><polygon fill="none" points="840.751,704.9085,823.47,717.1706,829.332,696.8075,840.751,704.9085" style="stroke:#A80036;stroke-width:1.0;"/><!--MD5=[9835f447d4320c0c05d1977a5c0b9743]
link XxxReaderAdapter to ReaderSpi--><!--MD5=[5bbb153480334c416aa0fffa6e20cd50]
link XxxPluginFactoryProvider to XxxPluginFactoryAdapter--><path codeLine="111" d="M217.809,434.5515 C256.699,456.7285 309.542,486.8625 349.497,509.6465 " fill="none" id="XxxPluginFactoryProvider-to-XxxPluginFactoryAdapter" style="stroke:#3498DB;stroke-width:1.0;stroke-dasharray:7.0,7.0;"/><polygon fill="#3498DB" points="354.304,512.3875,348.4682,504.4538,349.9609,509.9102,344.5045,511.4029,354.304,512.3875" style="stroke:#3498DB;stroke-width:1.0;"/><polygon fill="#000000" points="310.3434,476.0901,303.9419,469.0565,301.0303,474.1625,310.3434,476.0901" style="stroke:#000000;stroke-width:1.0;"/><text fill="#000000" font-family="sans-serif" font-size="13" lengthAdjust="spacing" textLength="40" x="315" y="478.9326">provide</text><!--MD5=[b5cbe9d896bbaed5b678a37d555ecc67]
link XxxPluginFactoryAdapter to XxxPluginAdapter--><path codeLine="112" d="M511.308,543.4375 C539.04,543.4375 568.741,543.4375 595.599,543.4375 " fill="none" id="XxxPluginFactoryAdapter-to-XxxPluginAdapter" style="stroke:#3498DB;stroke-width:1.0;stroke-dasharray:7.0,7.0;"/><polygon fill="#3498DB" points="600.931,543.4375,591.931,539.4375,595.931,543.4375,591.931,547.4375,600.931,543.4375" style="stroke:#3498DB;stroke-width:1.0;"/><polygon fill="#000000" points="538.5,531.6133,529.4549,528.6744,529.4549,534.5522,538.5,531.6133" style="stroke:#000000;stroke-width:1.0;"/><text fill="#000000" font-family="sans-serif" font-size="13" lengthAdjust="spacing" textLength="40" x="542.5" y="536.9326">provide</text><!--MD5=[c6b02b9849202f06839b9a7065c00be5]
link XxxPluginAdapter to XxxReaderAdapter--><path codeLine="113" d="M769.019,543.4375 C796.094,543.4375 826.241,543.4375 853.869,543.4375 " fill="none" id="XxxPluginAdapter-to-XxxReaderAdapter" style="stroke:#3498DB;stroke-width:1.0;stroke-dasharray:7.0,7.0;"/><polygon fill="#3498DB" points="858.997,543.4375,849.997,539.4375,853.997,543.4375,849.997,547.4375,858.997,543.4375" style="stroke:#3498DB;stroke-width:1.0;"/><polygon fill="#000000" points="796.5,531.6133,787.4549,528.6744,787.4549,534.5522,796.5,531.6133" style="stroke:#000000;stroke-width:1.0;"/><text fill="#000000" font-family="sans-serif" font-size="13" lengthAdjust="spacing" textLength="40" x="800.5" y="536.9326">provide</text><!--MD5=[506555e07322f0d0508c5c27794c4ca4]
link commonApi to specificPluginApi--><!--MD5=[46371df5c7475c79eafdab5755b00bdb]
@startuml

' == THEME ==

'Couleurs issues de : https://htmlcolorcodes.com/fr/tableau-de-couleur/tableau-de-couleur-design-plat/
!define C_GREY1 F8F9F9
!define C_GREY2 F2F3F4
!define C_GREY3 E5E7E9
!define C_GREY4 D7DBDD
!define C_GREY5 CACFD2
!define C_GREY6 BDC3C7
!define C_LINK 3498DB
!define C_USE 27AE60
!define C_YELLOW FEFECE

skinparam Shadowing false
skinparam ClassFontStyle italic
skinparam ClassBorderColor #D4AC0D
skinparam stereotypeABorderColor #A9DCDF
skinparam stereotypeIBorderColor #B4A7E5
skinparam stereotypeCBorderColor #ADD1B2
skinparam stereotypeEBorderColor #EB93DF
' Red
skinparam ClassBackgroundColor<<red>> #FDEDEC
skinparam ClassBorderColor<<red>> #E74C3C
hide <<red>> stereotype
' Purple
skinparam ClassBackgroundColor<<purple>> #F4ECF7
skinparam ClassBorderColor<<purple>> #8E44AD
hide <<purple>> stereotype
' blue
skinparam ClassBackgroundColor<<blue>> #EBF5FB
skinparam ClassBorderColor<<blue>> #3498DB
hide <<blue>> stereotype
' Green
skinparam ClassBackgroundColor<<green>> #E9F7EF
skinparam ClassBorderColor<<green>> #27AE60
hide <<green>> stereotype
' Grey
skinparam ClassBackgroundColor<<grey>> #EAECEE
skinparam ClassBorderColor<<grey>> #2C3E50
hide <<grey>> stereotype

' == CONTENT ==

legend top
    __Colors legend__ :
    * <back:C_YELLOW>Public API (for client application)</back>
    * <back:lightBlue>Private adapters</back>
    * <back:plum>Keyple internal API</back>
end legend

package "Common API\norg.eclipse.keyple.core.common" as commonApi {
    +interface KeyplePluginExtensionFactory {
    }
    +interface KeyplePluginExtension {
    }
    +interface KeypleReaderExtension {
    }
}

package "Plugin API\norg.eclipse.keyple.core.plugin.spi" as pluginSpi {
    +interface ReaderSpi {
        - -
        ...
    }
    +interface PluginSpi {
        - -
        ...
    }
    +interface PluginFactorySpi {
        - -
        ...
    }
}

package "Plugin Xxx\norg.eclipse.keyple.plugin.xxx" as specificPluginApi {
    +class "**final** XxxPluginFactoryProvider" as XxxPluginFactoryProvider {
        +{static} XxxPluginFactory getFactory ()
    }
    together {
        +interface XxxPluginFactory extends KeyplePluginExtensionFactory {
            - -
            custom settings... (optional)
        }
        +interface XxxPlugin extends KeyplePluginExtension {
            - -
            custom settings... (optional)
        }
        +interface XxxReader extends KeypleReaderExtension {
            - -
            custom settings... (optional)
        }
        ' Adapters
        ~class "**final** XxxPluginFactoryAdapter" as XxxPluginFactoryAdapter implements XxxPluginFactory, PluginFactorySpi {
            - -
            ...
        }
        ~class "**final** XxxPluginAdapter" as XxxPluginAdapter implements XxxPlugin, PluginSpi {
            - -
            ...
        }
        ~class "**final** XxxReaderAdapter" as XxxReaderAdapter implements XxxReader, ReaderSpi {
            - -
            ...
        }
    }
}

' Associations

XxxPluginFactoryProvider ..> XxxPluginFactoryAdapter #C_LINK : provide >
XxxPluginFactoryAdapter .> XxxPluginAdapter #C_LINK : provide >
XxxPluginAdapter .> XxxReaderAdapter #C_LINK : provide >

' == LAYOUT ==

commonApi -[hidden]- specificPluginApi
XxxPluginFactoryAdapter -[hidden]- PluginFactorySpi
XxxReaderAdapter -[hidden]- ReaderSpi
XxxPluginAdapter -[hidden]- PluginSpi

' == STYLE ==

package commonApi #C_GREY1 {}
package pluginSpi #C_GREY1 {}
package specificPluginApi #C_GREY1 {}

class XxxReaderAdapter <<blue>>
class XxxPluginAdapter <<blue>>
class XxxPluginFactoryAdapter <<blue>>
interface ReaderSpi <<purple>>
interface PluginSpi <<purple>>
interface PluginFactorySpi <<purple>>

@enduml

@startuml



skinparam Shadowing false
skinparam ClassFontStyle italic
skinparam ClassBorderColor #D4AC0D
skinparam stereotypeABorderColor #A9DCDF
skinparam stereotypeIBorderColor #B4A7E5
skinparam stereotypeCBorderColor #ADD1B2
skinparam stereotypeEBorderColor #EB93DF
skinparam ClassBackgroundColor<<red>> #FDEDEC
skinparam ClassBorderColor<<red>> #E74C3C
hide <<red>> stereotype
skinparam ClassBackgroundColor<<purple>> #F4ECF7
skinparam ClassBorderColor<<purple>> #8E44AD
hide <<purple>> stereotype
skinparam ClassBackgroundColor<<blue>> #EBF5FB
skinparam ClassBorderColor<<blue>> #3498DB
hide <<blue>> stereotype
skinparam ClassBackgroundColor<<green>> #E9F7EF
skinparam ClassBorderColor<<green>> #27AE60
hide <<green>> stereotype
skinparam ClassBackgroundColor<<grey>> #EAECEE
skinparam ClassBorderColor<<grey>> #2C3E50
hide <<grey>> stereotype


legend top
    __Colors legend__ :
    * <back:FEFECE>Public API (for client application)</back>
    * <back:lightBlue>Private adapters</back>
    * <back:plum>Keyple internal API</back>
end legend

package "Common API\norg.eclipse.keyple.core.common" as commonApi {
    +interface KeyplePluginExtensionFactory {
    }
    +interface KeyplePluginExtension {
    }
    +interface KeypleReaderExtension {
    }
}

package "Plugin API\norg.eclipse.keyple.core.plugin.spi" as pluginSpi {
    +interface ReaderSpi {
        - -
        ...
    }
    +interface PluginSpi {
        - -
        ...
    }
    +interface PluginFactorySpi {
        - -
        ...
    }
}

package "Plugin Xxx\norg.eclipse.keyple.plugin.xxx" as specificPluginApi {
    +class "**final** XxxPluginFactoryProvider" as XxxPluginFactoryProvider {
        +{static} XxxPluginFactory getFactory ()
    }
    together {
        +interface XxxPluginFactory extends KeyplePluginExtensionFactory {
            - -
            custom settings... (optional)
        }
        +interface XxxPlugin extends KeyplePluginExtension {
            - -
            custom settings... (optional)
        }
        +interface XxxReader extends KeypleReaderExtension {
            - -
            custom settings... (optional)
        }
        ~class "**final** XxxPluginFactoryAdapter" as XxxPluginFactoryAdapter implements XxxPluginFactory, PluginFactorySpi {
            - -
            ...
        }
        ~class "**final** XxxPluginAdapter" as XxxPluginAdapter implements XxxPlugin, PluginSpi {
            - -
            ...
        }
        ~class "**final** XxxReaderAdapter" as XxxReaderAdapter implements XxxReader, ReaderSpi {
            - -
            ...
        }
    }
}


XxxPluginFactoryProvider ..> XxxPluginFactoryAdapter #3498DB : provide >
XxxPluginFactoryAdapter .> XxxPluginAdapter #3498DB : provide >
XxxPluginAdapter .> XxxReaderAdapter #3498DB : provide >


commonApi -[hidden]- specificPluginApi
XxxPluginFactoryAdapter -[hidden]- PluginFactorySpi
XxxReaderAdapter -[hidden]- ReaderSpi
XxxPluginAdapter -[hidden]- PluginSpi


package commonApi #F8F9F9 {}
package pluginSpi #F8F9F9 {}
package specificPluginApi #F8F9F9 {}

class XxxReaderAdapter <<blue>>
class XxxPluginAdapter <<blue>>
class XxxPluginFactoryAdapter <<blue>>
interface ReaderSpi <<purple>>
interface PluginSpi <<purple>>
interface PluginFactorySpi <<purple>>

@enduml

PlantUML version 1.2021.11(Sat Oct 02 15:26:11 CEST 2021)
(GPL source distribution)
Java Runtime: OpenJDK Runtime Environment
JVM: OpenJDK 64-Bit Server VM
Default Encoding: Cp1252
Language: fr
Country: FR
--></g></svg>