<?xml version="1.0" encoding="us-ascii" standalone="no"?><svg xmlns="http://www.w3.org/2000/svg" xmlns:xlink="http://www.w3.org/1999/xlink" contentStyleType="text/css" height="804px" preserveAspectRatio="none" style="width:1136px;height:804px;background:#FFFFFF;" version="1.1" viewBox="0 0 1136 804" width="1136px" zoomAndPan="magnify"><defs><filter height="1" id="b1p5u5qzagw3wn0" width="1" x="0" y="0"><feFlood flood-color="#FEFECE" result="flood"/><feComposite in="SourceGraphic" in2="flood" operator="over"/></filter><filter height="1" id="b1p5u5qzagw3wn1" width="1" x="0" y="0"><feFlood flood-color="#ADD8E6" result="flood"/><feComposite in="SourceGraphic" in2="flood" operator="over"/></filter><filter height="1" id="b1p5u5qzagw3wn2" width="1" x="0" y="0"><feFlood flood-color="#DDA0DD" result="flood"/><feComposite in="SourceGraphic" in2="flood" operator="over"/></filter></defs><g><rect fill="#DDDDDD" height="84.4844" id="_legend" rx="7.5" ry="7.5" style="stroke:#000000;stroke-width:1.0;" width="225" x="448.5" y="12"/><text fill="#000000" font-family="sans-serif" font-size="14" lengthAdjust="spacing" text-decoration="underline" textLength="88" x="453.5" y="32.1074">Colors legend</text><text fill="#000000" font-family="sans-serif" font-size="14" lengthAdjust="spacing" textLength="4" x="545.5" y="32.1074">:</text><ellipse cx="459" cy="46.7422" fill="#000000" rx="2.5" ry="2.5" style="stroke:#000000;stroke-width:0.0;"/><text fill="#000000" filter="url(#b1p5u5qzagw3wn0)" font-family="sans-serif" font-size="14" lengthAdjust="spacing" textLength="203" x="465.5" y="50.7285">Public API (for client application)</text><ellipse cx="459" cy="65.3633" fill="#000000" rx="2.5" ry="2.5" style="stroke:#000000;stroke-width:0.0;"/><text fill="#000000" filter="url(#b1p5u5qzagw3wn1)" font-family="sans-serif" font-size="14" lengthAdjust="spacing" textLength="104" x="465.5" y="69.3496">Private adapters</text><ellipse cx="459" cy="83.9844" fill="#000000" rx="2.5" ry="2.5" style="stroke:#000000;stroke-width:0.0;"/><text fill="#000000" filter="url(#b1p5u5qzagw3wn2)" font-family="sans-serif" font-size="14" lengthAdjust="spacing" textLength="119" x="465.5" y="87.9707">Keyple internal API</text><!--cluster commonApi--><g id="cluster_commonApi"><path d="M298.5,115.498 L527.5,115.498 A3.75,3.75 0 0 1 530,117.998 L537,158.7402 L1044.5,158.7402 A2.5,2.5 0 0 1 1047,161.2402 L1047,248.998 A2.5,2.5 0 0 1 1044.5,251.498 L298.5,251.498 A2.5,2.5 0 0 1 296,248.998 L296,117.998 A2.5,2.5 0 0 1 298.5,115.498 " fill="#F8F9F9" style="stroke:#000000;stroke-width:1.5;"/><line style="stroke:#000000;stroke-width:1.5;" x1="296" x2="537" y1="158.7402" y2="158.7402"/><text fill="#000000" font-family="sans-serif" font-size="14" font-weight="bold" lengthAdjust="spacing" textLength="87" x="370.5" y="132.6055">Common API</text><text fill="#000000" font-family="sans-serif" font-size="14" font-weight="bold" lengthAdjust="spacing" textLength="228" x="300" y="151.2266">org.eclipse.keyple.core.common</text></g><!--cluster pluginSpi--><g id="cluster_pluginSpi"><path d="M455.5,658.498 L694.5,658.498 A3.75,3.75 0 0 1 697,660.998 L704,701.7402 L914.5,701.7402 A2.5,2.5 0 0 1 917,704.2402 L917,794.998 A2.5,2.5 0 0 1 914.5,797.498 L455.5,797.498 A2.5,2.5 0 0 1 453,794.998 L453,660.998 A2.5,2.5 0 0 1 455.5,658.498 " fill="#F8F9F9" style="stroke:#000000;stroke-width:1.5;"/><line style="stroke:#000000;stroke-width:1.5;" x1="453" x2="704" y1="701.7402" y2="701.7402"/><text fill="#000000" font-family="sans-serif" font-size="14" font-weight="bold" lengthAdjust="spacing" textLength="70" x="541" y="675.6055">Plugin API</text><text fill="#000000" font-family="sans-serif" font-size="14" font-weight="bold" lengthAdjust="spacing" textLength="238" x="457" y="694.2266">org.eclipse.keyple.core.plugin.spi</text></g><!--cluster specificPluginApi--><g id="cluster_specificPluginApi"><path d="M8.5,300.498 L214.5,300.498 A3.75,3.75 0 0 1 217,302.998 L224,343.7402 L1126.5,343.7402 A2.5,2.5 0 0 1 1129,346.2402 L1129,614.998 A2.5,2.5 0 0 1 1126.5,617.498 L8.5,617.498 A2.5,2.5 0 0 1 6,614.998 L6,302.998 A2.5,2.5 0 0 1 8.5,300.498 " fill="#F8F9F9" style="stroke:#000000;stroke-width:1.5;"/><line style="stroke:#000000;stroke-width:1.5;" x1="6" x2="224" y1="343.7402" y2="343.7402"/><text fill="#000000" font-family="sans-serif" font-size="14" font-weight="bold" lengthAdjust="spacing" textLength="73" x="76" y="317.6055">Plugin Xxx</text><text fill="#000000" font-family="sans-serif" font-size="14" font-weight="bold" lengthAdjust="spacing" textLength="205" x="10" y="336.2266">org.eclipse.keyple.plugin.xxx</text></g><!--class KeyplePluginExtensionFactory--><g id="elem_KeyplePluginExtensionFactory"><rect codeLine="59" fill="#FEFECE" height="48" id="KeyplePluginExtensionFactory" rx="2.5" ry="2.5" style="stroke:#D4AC0D;stroke-width:2.0;" width="234" x="339" y="179.498"/><ellipse cx="354" cy="195.498" fill="#B4A7E5" rx="11" ry="11" style="stroke:#181818;stroke-width:1.0;"/><path d="M354.9531,192.1387 L354.9531,198.7949 L356.6719,198.7949 Q357.2813,198.7949 357.5469,199.0293 Q357.8125,199.2637 357.8125,199.6543 Q357.8125,200.0293 357.5469,200.2637 Q357.2813,200.498 356.6719,200.498 L351.5313,200.498 Q350.9219,200.498 350.6563,200.2637 Q350.3906,200.0293 350.3906,199.6387 Q350.3906,199.2637 350.6563,199.0293 Q350.9219,198.7949 351.5313,198.7949 L353.25,198.7949 L353.25,192.1387 L351.5313,192.1387 Q350.9219,192.1387 350.6563,191.9043 Q350.3906,191.6699 350.3906,191.2793 Q350.3906,190.9043 350.6563,190.6699 Q350.9219,190.4355 351.5313,190.4355 L356.6719,190.4355 Q357.2813,190.4355 357.5469,190.6699 Q357.8125,190.9043 357.8125,191.2793 Q357.8125,191.6699 357.5469,191.9043 Q357.2813,192.1387 356.6719,192.1387 L354.9531,192.1387 Z " fill="#000000"/><ellipse cx="373" cy="194.998" fill="#84BE84" rx="3" ry="3" style="stroke:#038048;stroke-width:1.0;"/><text fill="#000000" font-family="sans-serif" font-size="14" font-style="italic" lengthAdjust="spacing" textLength="191" x="379" y="201.2949">KeyplePluginExtensionFactory</text><line style="stroke:#D4AC0D;stroke-width:2.0;" x1="340" x2="572" y1="211.498" y2="211.498"/><line style="stroke:#D4AC0D;stroke-width:2.0;" x1="340" x2="572" y1="219.498" y2="219.498"/></g><!--class KeyplePluginExtension--><g id="elem_KeyplePluginExtension"><rect codeLine="61" fill="#FEFECE" height="48" id="KeyplePluginExtension" rx="2.5" ry="2.5" style="stroke:#D4AC0D;stroke-width:2.0;" width="186" x="608" y="179.498"/><ellipse cx="623" cy="195.498" fill="#B4A7E5" rx="11" ry="11" style="stroke:#181818;stroke-width:1.0;"/><path d="M623.9531,192.1387 L623.9531,198.7949 L625.6719,198.7949 Q626.2813,198.7949 626.5469,199.0293 Q626.8125,199.2637 626.8125,199.6543 Q626.8125,200.0293 626.5469,200.2637 Q626.2813,200.498 625.6719,200.498 L620.5313,200.498 Q619.9219,200.498 619.6563,200.2637 Q619.3906,200.0293 619.3906,199.6387 Q619.3906,199.2637 619.6563,199.0293 Q619.9219,198.7949 620.5313,198.7949 L622.25,198.7949 L622.25,192.1387 L620.5313,192.1387 Q619.9219,192.1387 619.6563,191.9043 Q619.3906,191.6699 619.3906,191.2793 Q619.3906,190.9043 619.6563,190.6699 Q619.9219,190.4355 620.5313,190.4355 L625.6719,190.4355 Q626.2813,190.4355 626.5469,190.6699 Q626.8125,190.9043 626.8125,191.2793 Q626.8125,191.6699 626.5469,191.9043 Q626.2813,192.1387 625.6719,192.1387 L623.9531,192.1387 Z " fill="#000000"/><ellipse cx="642" cy="194.998" fill="#84BE84" rx="3" ry="3" style="stroke:#038048;stroke-width:1.0;"/><text fill="#000000" font-family="sans-serif" font-size="14" font-style="italic" lengthAdjust="spacing" textLength="143" x="648" y="201.2949">KeyplePluginExtension</text><line style="stroke:#D4AC0D;stroke-width:2.0;" x1="609" x2="793" y1="211.498" y2="211.498"/><line style="stroke:#D4AC0D;stroke-width:2.0;" x1="609" x2="793" y1="219.498" y2="219.498"/></g><!--class KeypleReaderExtension--><g id="elem_KeypleReaderExtension"><rect codeLine="63" fill="#FEFECE" height="48" id="KeypleReaderExtension" rx="2.5" ry="2.5" style="stroke:#D4AC0D;stroke-width:2.0;" width="194" x="829" y="179.498"/><ellipse cx="844" cy="195.498" fill="#B4A7E5" rx="11" ry="11" style="stroke:#181818;stroke-width:1.0;"/><path d="M844.9531,192.1387 L844.9531,198.7949 L846.6719,198.7949 Q847.2813,198.7949 847.5469,199.0293 Q847.8125,199.2637 847.8125,199.6543 Q847.8125,200.0293 847.5469,200.2637 Q847.2813,200.498 846.6719,200.498 L841.5313,200.498 Q840.9219,200.498 840.6563,200.2637 Q840.3906,200.0293 840.3906,199.6387 Q840.3906,199.2637 840.6563,199.0293 Q840.9219,198.7949 841.5313,198.7949 L843.25,198.7949 L843.25,192.1387 L841.5313,192.1387 Q840.9219,192.1387 840.6563,191.9043 Q840.3906,191.6699 840.3906,191.2793 Q840.3906,190.9043 840.6563,190.6699 Q840.9219,190.4355 841.5313,190.4355 L846.6719,190.4355 Q847.2813,190.4355 847.5469,190.6699 Q847.8125,190.9043 847.8125,191.2793 Q847.8125,191.6699 847.5469,191.9043 Q847.2813,192.1387 846.6719,192.1387 L844.9531,192.1387 Z " fill="#000000"/><ellipse cx="863" cy="194.998" fill="#84BE84" rx="3" ry="3" style="stroke:#038048;stroke-width:1.0;"/><text fill="#000000" font-family="sans-serif" font-size="14" font-style="italic" lengthAdjust="spacing" textLength="151" x="869" y="201.2949">KeypleReaderExtension</text><line style="stroke:#D4AC0D;stroke-width:2.0;" x1="830" x2="1022" y1="211.498" y2="211.498"/><line style="stroke:#D4AC0D;stroke-width:2.0;" x1="830" x2="1022" y1="219.498" y2="219.498"/></g><!--class ReaderSpi--><g id="elem_ReaderSpi"><rect codeLine="137" fill="#F4ECF7" height="66.6211" id="ReaderSpi" rx="2.5" ry="2.5" style="stroke:#8E44AD;stroke-width:2.0;" width="110" x="791" y="714.498"/><ellipse cx="806" cy="730.498" fill="#B4A7E5" rx="11" ry="11" style="stroke:#181818;stroke-width:1.0;"/><path d="M806.9531,727.1387 L806.9531,733.7949 L808.6719,733.7949 Q809.2813,733.7949 809.5469,734.0293 Q809.8125,734.2637 809.8125,734.6543 Q809.8125,735.0293 809.5469,735.2637 Q809.2813,735.498 808.6719,735.498 L803.5313,735.498 Q802.9219,735.498 802.6563,735.2637 Q802.3906,735.0293 802.3906,734.6387 Q802.3906,734.2637 802.6563,734.0293 Q802.9219,733.7949 803.5313,733.7949 L805.25,733.7949 L805.25,727.1387 L803.5313,727.1387 Q802.9219,727.1387 802.6563,726.9043 Q802.3906,726.6699 802.3906,726.2793 Q802.3906,725.9043 802.6563,725.6699 Q802.9219,725.4355 803.5313,725.4355 L808.6719,725.4355 Q809.2813,725.4355 809.5469,725.6699 Q809.8125,725.9043 809.8125,726.2793 Q809.8125,726.6699 809.5469,726.9043 Q809.2813,727.1387 808.6719,727.1387 L806.9531,727.1387 Z " fill="#000000"/><ellipse cx="825" cy="729.998" fill="#84BE84" rx="3" ry="3" style="stroke:#038048;stroke-width:1.0;"/><text fill="#000000" font-family="sans-serif" font-size="14" font-style="italic" lengthAdjust="spacing" textLength="67" x="831" y="736.2949">ReaderSpi</text><line style="stroke:#8E44AD;stroke-width:2.0;" x1="792" x2="900" y1="746.498" y2="746.498"/><line style="stroke:#8E44AD;stroke-width:1.0;" x1="792" x2="900" y1="754.498" y2="754.498"/><text fill="#000000" font-family="sans-serif" font-size="14" lengthAdjust="spacing" textLength="12" x="797" y="773.6055">...</text></g><!--class PluginSpi--><g id="elem_PluginSpi"><rect codeLine="138" fill="#F4ECF7" height="66.6211" id="PluginSpi" rx="2.5" ry="2.5" style="stroke:#8E44AD;stroke-width:2.0;" width="102" x="654" y="714.498"/><ellipse cx="669" cy="730.498" fill="#B4A7E5" rx="11" ry="11" style="stroke:#181818;stroke-width:1.0;"/><path d="M669.9531,727.1387 L669.9531,733.7949 L671.6719,733.7949 Q672.2813,733.7949 672.5469,734.0293 Q672.8125,734.2637 672.8125,734.6543 Q672.8125,735.0293 672.5469,735.2637 Q672.2813,735.498 671.6719,735.498 L666.5313,735.498 Q665.9219,735.498 665.6563,735.2637 Q665.3906,735.0293 665.3906,734.6387 Q665.3906,734.2637 665.6563,734.0293 Q665.9219,733.7949 666.5313,733.7949 L668.25,733.7949 L668.25,727.1387 L666.5313,727.1387 Q665.9219,727.1387 665.6563,726.9043 Q665.3906,726.6699 665.3906,726.2793 Q665.3906,725.9043 665.6563,725.6699 Q665.9219,725.4355 666.5313,725.4355 L671.6719,725.4355 Q672.2813,725.4355 672.5469,725.6699 Q672.8125,725.9043 672.8125,726.2793 Q672.8125,726.6699 672.5469,726.9043 Q672.2813,727.1387 671.6719,727.1387 L669.9531,727.1387 Z " fill="#000000"/><ellipse cx="688" cy="729.998" fill="#84BE84" rx="3" ry="3" style="stroke:#038048;stroke-width:1.0;"/><text fill="#000000" font-family="sans-serif" font-size="14" font-style="italic" lengthAdjust="spacing" textLength="59" x="694" y="736.2949">PluginSpi</text><line style="stroke:#8E44AD;stroke-width:2.0;" x1="655" x2="755" y1="746.498" y2="746.498"/><line style="stroke:#8E44AD;stroke-width:1.0;" x1="655" x2="755" y1="754.498" y2="754.498"/><text fill="#000000" font-family="sans-serif" font-size="14" lengthAdjust="spacing" textLength="12" x="660" y="773.6055">...</text></g><!--class PluginFactorySpi--><g id="elem_PluginFactorySpi"><rect codeLine="139" fill="#F4ECF7" height="66.6211" id="PluginFactorySpi" rx="2.5" ry="2.5" style="stroke:#8E44AD;stroke-width:2.0;" width="150" x="469" y="714.498"/><ellipse cx="484" cy="730.498" fill="#B4A7E5" rx="11" ry="11" style="stroke:#181818;stroke-width:1.0;"/><path d="M484.9531,727.1387 L484.9531,733.7949 L486.6719,733.7949 Q487.2813,733.7949 487.5469,734.0293 Q487.8125,734.2637 487.8125,734.6543 Q487.8125,735.0293 487.5469,735.2637 Q487.2813,735.498 486.6719,735.498 L481.5313,735.498 Q480.9219,735.498 480.6563,735.2637 Q480.3906,735.0293 480.3906,734.6387 Q480.3906,734.2637 480.6563,734.0293 Q480.9219,733.7949 481.5313,733.7949 L483.25,733.7949 L483.25,727.1387 L481.5313,727.1387 Q480.9219,727.1387 480.6563,726.9043 Q480.3906,726.6699 480.3906,726.2793 Q480.3906,725.9043 480.6563,725.6699 Q480.9219,725.4355 481.5313,725.4355 L486.6719,725.4355 Q487.2813,725.4355 487.5469,725.6699 Q487.8125,725.9043 487.8125,726.2793 Q487.8125,726.6699 487.5469,726.9043 Q487.2813,727.1387 486.6719,727.1387 L484.9531,727.1387 Z " fill="#000000"/><ellipse cx="503" cy="729.998" fill="#84BE84" rx="3" ry="3" style="stroke:#038048;stroke-width:1.0;"/><text fill="#000000" font-family="sans-serif" font-size="14" font-style="italic" lengthAdjust="spacing" textLength="107" x="509" y="736.2949">PluginFactorySpi</text><line style="stroke:#8E44AD;stroke-width:2.0;" x1="470" x2="618" y1="746.498" y2="746.498"/><line style="stroke:#8E44AD;stroke-width:1.0;" x1="470" x2="618" y1="754.498" y2="754.498"/><text fill="#000000" font-family="sans-serif" font-size="14" lengthAdjust="spacing" textLength="12" x="475" y="773.6055">...</text></g><!--class XxxPluginFactoryProvider--><g id="elem_XxxPluginFactoryProvider"><rect codeLine="83" fill="#FEFECE" height="66.6211" id="XxxPluginFactoryProvider" rx="2.5" ry="2.5" style="stroke:#D4AC0D;stroke-width:2.0;" width="237" x="49.5" y="372.498"/><ellipse cx="64.5" cy="388.498" fill="#ADD1B2" rx="11" ry="11" style="stroke:#181818;stroke-width:1.0;"/><path d="M67.2656,384.373 Q67.4219,384.1543 67.6094,384.0449 Q67.7969,383.9355 68.0156,383.9355 Q68.3906,383.9355 68.625,384.2012 Q68.8594,384.4512 68.8594,385.0605 L68.8594,386.5137 Q68.8594,387.123 68.625,387.3887 Q68.3906,387.6543 68.0156,387.6543 Q67.6719,387.6543 67.4688,387.4512 Q67.2656,387.2637 67.1563,386.748 Q67.1094,386.3887 66.9219,386.2012 Q66.5938,385.8262 65.9844,385.6074 Q65.375,385.3887 64.75,385.3887 Q63.9844,385.3887 63.3438,385.7168 Q62.7188,386.0449 62.2188,386.7949 Q61.7344,387.5449 61.7344,388.5762 L61.7344,389.6699 Q61.7344,390.9043 62.625,391.7324 Q63.5156,392.5449 65.1094,392.5449 Q66.0469,392.5449 66.7031,392.2949 Q67.0938,392.1387 67.5156,391.7012 Q67.7813,391.4355 67.9219,391.3574 Q68.0781,391.2793 68.2813,391.2793 Q68.6094,391.2793 68.8594,391.5449 Q69.125,391.7949 69.125,392.1387 Q69.125,392.4824 68.7813,392.8887 Q68.2813,393.4668 67.4844,393.7949 Q66.4063,394.248 65.1094,394.248 Q63.5938,394.248 62.3906,393.623 Q61.4063,393.123 60.7188,392.0605 Q60.0313,390.9824 60.0313,389.7012 L60.0313,388.5449 Q60.0313,387.2168 60.6406,386.0762 Q61.2656,384.9199 62.3594,384.3105 Q63.4531,383.6855 64.6875,383.6855 Q65.4219,383.6855 66.0625,383.8574 Q66.7188,384.0137 67.2656,384.373 Z " fill="#000000"/><ellipse cx="83.5" cy="387.998" fill="#84BE84" rx="3" ry="3" style="stroke:#038048;stroke-width:1.0;"/><text fill="#000000" font-family="sans-serif" font-size="14" font-weight="bold" lengthAdjust="spacing" textLength="30" x="89.5" y="394.2949">final</text><text fill="#000000" font-family="sans-serif" font-size="14" lengthAdjust="spacing" textLength="160" x="123.5" y="394.2949">XxxPluginFactoryProvider</text><line style="stroke:#D4AC0D;stroke-width:2.0;" x1="50.5" x2="285.5" y1="404.498" y2="404.498"/><line style="stroke:#D4AC0D;stroke-width:2.0;" x1="50.5" x2="285.5" y1="412.498" y2="412.498"/><ellipse cx="60.5" cy="427.3086" fill="#84BE84" rx="3" ry="3" style="stroke:#038048;stroke-width:1.0;"/><text fill="#000000" font-family="sans-serif" font-size="14" lengthAdjust="spacing" text-decoration="underline" textLength="193" x="69.5" y="431.6055">XxxPluginFactory getFactory ()</text></g><!--class XxxPluginFactory--><g id="elem_XxxPluginFactory"><rect codeLine="87" fill="#FEFECE" height="66.6211" id="XxxPluginFactory" rx="2.5" ry="2.5" style="stroke:#D4AC0D;stroke-width:2.0;" width="186" x="358" y="372.498"/><ellipse cx="388.75" cy="388.498" fill="#B4A7E5" rx="11" ry="11" style="stroke:#181818;stroke-width:1.0;"/><path d="M389.7031,385.1387 L389.7031,391.7949 L391.4219,391.7949 Q392.0313,391.7949 392.2969,392.0293 Q392.5625,392.2637 392.5625,392.6543 Q392.5625,393.0293 392.2969,393.2637 Q392.0313,393.498 391.4219,393.498 L386.2813,393.498 Q385.6719,393.498 385.4063,393.2637 Q385.1406,393.0293 385.1406,392.6387 Q385.1406,392.2637 385.4063,392.0293 Q385.6719,391.7949 386.2813,391.7949 L388,391.7949 L388,385.1387 L386.2813,385.1387 Q385.6719,385.1387 385.4063,384.9043 Q385.1406,384.6699 385.1406,384.2793 Q385.1406,383.9043 385.4063,383.6699 Q385.6719,383.4355 386.2813,383.4355 L391.4219,383.4355 Q392.0313,383.4355 392.2969,383.6699 Q392.5625,383.9043 392.5625,384.2793 Q392.5625,384.6699 392.2969,384.9043 Q392.0313,385.1387 391.4219,385.1387 L389.7031,385.1387 Z " fill="#000000"/><ellipse cx="411.25" cy="387.998" fill="#84BE84" rx="3" ry="3" style="stroke:#038048;stroke-width:1.0;"/><text fill="#000000" font-family="sans-serif" font-size="14" font-style="italic" lengthAdjust="spacing" textLength="108" x="417.25" y="394.2949">XxxPluginFactory</text><line style="stroke:#D4AC0D;stroke-width:2.0;" x1="359" x2="543" y1="404.498" y2="404.498"/><line style="stroke:#D4AC0D;stroke-width:1.0;" x1="359" x2="543" y1="412.498" y2="412.498"/><text fill="#000000" font-family="sans-serif" font-size="14" lengthAdjust="spacing" textLength="174" x="364" y="431.6055">custom settings... (optional)</text></g><!--class XxxPlugin--><g id="elem_XxxPlugin"><rect codeLine="91" fill="#FEFECE" height="66.6211" id="XxxPlugin" rx="2.5" ry="2.5" style="stroke:#D4AC0D;stroke-width:2.0;" width="186" x="613" y="372.498"/><ellipse cx="666.25" cy="388.498" fill="#B4A7E5" rx="11" ry="11" style="stroke:#181818;stroke-width:1.0;"/><path d="M667.2031,385.1387 L667.2031,391.7949 L668.9219,391.7949 Q669.5313,391.7949 669.7969,392.0293 Q670.0625,392.2637 670.0625,392.6543 Q670.0625,393.0293 669.7969,393.2637 Q669.5313,393.498 668.9219,393.498 L663.7813,393.498 Q663.1719,393.498 662.9063,393.2637 Q662.6406,393.0293 662.6406,392.6387 Q662.6406,392.2637 662.9063,392.0293 Q663.1719,391.7949 663.7813,391.7949 L665.5,391.7949 L665.5,385.1387 L663.7813,385.1387 Q663.1719,385.1387 662.9063,384.9043 Q662.6406,384.6699 662.6406,384.2793 Q662.6406,383.9043 662.9063,383.6699 Q663.1719,383.4355 663.7813,383.4355 L668.9219,383.4355 Q669.5313,383.4355 669.7969,383.6699 Q670.0625,383.9043 670.0625,384.2793 Q670.0625,384.6699 669.7969,384.9043 Q669.5313,385.1387 668.9219,385.1387 L667.2031,385.1387 Z " fill="#000000"/><ellipse cx="691.75" cy="387.998" fill="#84BE84" rx="3" ry="3" style="stroke:#038048;stroke-width:1.0;"/><text fill="#000000" font-family="sans-serif" font-size="14" font-style="italic" lengthAdjust="spacing" textLength="60" x="697.75" y="394.2949">XxxPlugin</text><line style="stroke:#D4AC0D;stroke-width:2.0;" x1="614" x2="798" y1="404.498" y2="404.498"/><line style="stroke:#D4AC0D;stroke-width:1.0;" x1="614" x2="798" y1="412.498" y2="412.498"/><text fill="#000000" font-family="sans-serif" font-size="14" lengthAdjust="spacing" textLength="174" x="619" y="431.6055">custom settings... (optional)</text></g><!--class XxxReader--><g id="elem_XxxReader"><rect codeLine="95" fill="#FEFECE" height="66.6211" id="XxxReader" rx="2.5" ry="2.5" style="stroke:#D4AC0D;stroke-width:2.0;" width="186" x="836" y="372.498"/><ellipse cx="885.25" cy="388.498" fill="#B4A7E5" rx="11" ry="11" style="stroke:#181818;stroke-width:1.0;"/><path d="M886.2031,385.1387 L886.2031,391.7949 L887.9219,391.7949 Q888.5313,391.7949 888.7969,392.0293 Q889.0625,392.2637 889.0625,392.6543 Q889.0625,393.0293 888.7969,393.2637 Q888.5313,393.498 887.9219,393.498 L882.7813,393.498 Q882.1719,393.498 881.9063,393.2637 Q881.6406,393.0293 881.6406,392.6387 Q881.6406,392.2637 881.9063,392.0293 Q882.1719,391.7949 882.7813,391.7949 L884.5,391.7949 L884.5,385.1387 L882.7813,385.1387 Q882.1719,385.1387 881.9063,384.9043 Q881.6406,384.6699 881.6406,384.2793 Q881.6406,383.9043 881.9063,383.6699 Q882.1719,383.4355 882.7813,383.4355 L887.9219,383.4355 Q888.5313,383.4355 888.7969,383.6699 Q889.0625,383.9043 889.0625,384.2793 Q889.0625,384.6699 888.7969,384.9043 Q888.5313,385.1387 887.9219,385.1387 L886.2031,385.1387 Z " fill="#000000"/><ellipse cx="910.75" cy="387.998" fill="#84BE84" rx="3" ry="3" style="stroke:#038048;stroke-width:1.0;"/><text fill="#000000" font-family="sans-serif" font-size="14" font-style="italic" lengthAdjust="spacing" textLength="68" x="916.75" y="394.2949">XxxReader</text><line style="stroke:#D4AC0D;stroke-width:2.0;" x1="837" x2="1021" y1="404.498" y2="404.498"/><line style="stroke:#D4AC0D;stroke-width:1.0;" x1="837" x2="1021" y1="412.498" y2="412.498"/><text fill="#000000" font-family="sans-serif" font-size="14" lengthAdjust="spacing" textLength="174" x="842" y="431.6055">custom settings... (optional)</text></g><!--class XxxPluginFactoryAdapter--><g id="elem_XxxPluginFactoryAdapter"><rect codeLine="136" fill="#EBF5FB" height="66.6211" id="XxxPluginFactoryAdapter" rx="2.5" ry="2.5" style="stroke:#3498DB;stroke-width:2.0;" width="234" x="303" y="518.498"/><ellipse cx="318" cy="534.498" fill="#ADD1B2" rx="11" ry="11" style="stroke:#181818;stroke-width:1.0;"/><path d="M320.7656,530.373 Q320.9219,530.1543 321.1094,530.0449 Q321.2969,529.9355 321.5156,529.9355 Q321.8906,529.9355 322.125,530.2012 Q322.3594,530.4512 322.3594,531.0605 L322.3594,532.5137 Q322.3594,533.123 322.125,533.3887 Q321.8906,533.6543 321.5156,533.6543 Q321.1719,533.6543 320.9688,533.4512 Q320.7656,533.2637 320.6563,532.748 Q320.6094,532.3887 320.4219,532.2012 Q320.0938,531.8262 319.4844,531.6074 Q318.875,531.3887 318.25,531.3887 Q317.4844,531.3887 316.8438,531.7168 Q316.2188,532.0449 315.7188,532.7949 Q315.2344,533.5449 315.2344,534.5762 L315.2344,535.6699 Q315.2344,536.9043 316.125,537.7324 Q317.0156,538.5449 318.6094,538.5449 Q319.5469,538.5449 320.2031,538.2949 Q320.5938,538.1387 321.0156,537.7012 Q321.2813,537.4355 321.4219,537.3574 Q321.5781,537.2793 321.7813,537.2793 Q322.1094,537.2793 322.3594,537.5449 Q322.625,537.7949 322.625,538.1387 Q322.625,538.4824 322.2813,538.8887 Q321.7813,539.4668 320.9844,539.7949 Q319.9063,540.248 318.6094,540.248 Q317.0938,540.248 315.8906,539.623 Q314.9063,539.123 314.2188,538.0605 Q313.5313,536.9824 313.5313,535.7012 L313.5313,534.5449 Q313.5313,533.2168 314.1406,532.0762 Q314.7656,530.9199 315.8594,530.3105 Q316.9531,529.6855 318.1875,529.6855 Q318.9219,529.6855 319.5625,529.8574 Q320.2188,530.0137 320.7656,530.373 Z " fill="#000000"/><polygon fill="#4177AF" points="337,529.998,333,535.998,341,535.998" style="stroke:#1963A0;stroke-width:1.0;"/><text fill="#000000" font-family="sans-serif" font-size="14" font-weight="bold" lengthAdjust="spacing" textLength="30" x="343" y="540.2949">final</text><text fill="#000000" font-family="sans-serif" font-size="14" lengthAdjust="spacing" textLength="157" x="377" y="540.2949">XxxPluginFactoryAdapter</text><line style="stroke:#3498DB;stroke-width:2.0;" x1="304" x2="536" y1="550.498" y2="550.498"/><line style="stroke:#3498DB;stroke-width:1.0;" x1="304" x2="536" y1="558.498" y2="558.498"/><text fill="#000000" font-family="sans-serif" font-size="14" lengthAdjust="spacing" textLength="12" x="309" y="577.6055">...</text></g><!--class XxxPluginAdapter--><g id="elem_XxxPluginAdapter"><rect codeLine="135" fill="#EBF5FB" height="66.6211" id="XxxPluginAdapter" rx="2.5" ry="2.5" style="stroke:#3498DB;stroke-width:2.0;" width="186" x="627" y="518.498"/><ellipse cx="642" cy="534.498" fill="#ADD1B2" rx="11" ry="11" style="stroke:#181818;stroke-width:1.0;"/><path d="M644.7656,530.373 Q644.9219,530.1543 645.1094,530.0449 Q645.2969,529.9355 645.5156,529.9355 Q645.8906,529.9355 646.125,530.2012 Q646.3594,530.4512 646.3594,531.0605 L646.3594,532.5137 Q646.3594,533.123 646.125,533.3887 Q645.8906,533.6543 645.5156,533.6543 Q645.1719,533.6543 644.9688,533.4512 Q644.7656,533.2637 644.6563,532.748 Q644.6094,532.3887 644.4219,532.2012 Q644.0938,531.8262 643.4844,531.6074 Q642.875,531.3887 642.25,531.3887 Q641.4844,531.3887 640.8438,531.7168 Q640.2188,532.0449 639.7188,532.7949 Q639.2344,533.5449 639.2344,534.5762 L639.2344,535.6699 Q639.2344,536.9043 640.125,537.7324 Q641.0156,538.5449 642.6094,538.5449 Q643.5469,538.5449 644.2031,538.2949 Q644.5938,538.1387 645.0156,537.7012 Q645.2813,537.4355 645.4219,537.3574 Q645.5781,537.2793 645.7813,537.2793 Q646.1094,537.2793 646.3594,537.5449 Q646.625,537.7949 646.625,538.1387 Q646.625,538.4824 646.2813,538.8887 Q645.7813,539.4668 644.9844,539.7949 Q643.9063,540.248 642.6094,540.248 Q641.0938,540.248 639.8906,539.623 Q638.9063,539.123 638.2188,538.0605 Q637.5313,536.9824 637.5313,535.7012 L637.5313,534.5449 Q637.5313,533.2168 638.1406,532.0762 Q638.7656,530.9199 639.8594,530.3105 Q640.9531,529.6855 642.1875,529.6855 Q642.9219,529.6855 643.5625,529.8574 Q644.2188,530.0137 644.7656,530.373 Z " fill="#000000"/><polygon fill="#4177AF" points="661,529.998,657,535.998,665,535.998" style="stroke:#1963A0;stroke-width:1.0;"/><text fill="#000000" font-family="sans-serif" font-size="14" font-weight="bold" lengthAdjust="spacing" textLength="30" x="667" y="540.2949">final</text><text fill="#000000" font-family="sans-serif" font-size="14" lengthAdjust="spacing" textLength="109" x="701" y="540.2949">XxxPluginAdapter</text><line style="stroke:#3498DB;stroke-width:2.0;" x1="628" x2="812" y1="550.498" y2="550.498"/><line style="stroke:#3498DB;stroke-width:1.0;" x1="628" x2="812" y1="558.498" y2="558.498"/><text fill="#000000" font-family="sans-serif" font-size="14" lengthAdjust="spacing" textLength="12" x="633" y="577.6055">...</text></g><!--class XxxReaderAdapter--><g id="elem_XxxReaderAdapter"><rect codeLine="134" fill="#EBF5FB" height="66.6211" id="XxxReaderAdapter" rx="2.5" ry="2.5" style="stroke:#3498DB;stroke-width:2.0;" width="194" x="903" y="518.498"/><ellipse cx="918" cy="534.498" fill="#ADD1B2" rx="11" ry="11" style="stroke:#181818;stroke-width:1.0;"/><path d="M920.7656,530.373 Q920.9219,530.1543 921.1094,530.0449 Q921.2969,529.9355 921.5156,529.9355 Q921.8906,529.9355 922.125,530.2012 Q922.3594,530.4512 922.3594,531.0605 L922.3594,532.5137 Q922.3594,533.123 922.125,533.3887 Q921.8906,533.6543 921.5156,533.6543 Q921.1719,533.6543 920.9688,533.4512 Q920.7656,533.2637 920.6563,532.748 Q920.6094,532.3887 920.4219,532.2012 Q920.0938,531.8262 919.4844,531.6074 Q918.875,531.3887 918.25,531.3887 Q917.4844,531.3887 916.8438,531.7168 Q916.2188,532.0449 915.7188,532.7949 Q915.2344,533.5449 915.2344,534.5762 L915.2344,535.6699 Q915.2344,536.9043 916.125,537.7324 Q917.0156,538.5449 918.6094,538.5449 Q919.5469,538.5449 920.2031,538.2949 Q920.5938,538.1387 921.0156,537.7012 Q921.2813,537.4355 921.4219,537.3574 Q921.5781,537.2793 921.7813,537.2793 Q922.1094,537.2793 922.3594,537.5449 Q922.625,537.7949 922.625,538.1387 Q922.625,538.4824 922.2813,538.8887 Q921.7813,539.4668 920.9844,539.7949 Q919.9063,540.248 918.6094,540.248 Q917.0938,540.248 915.8906,539.623 Q914.9063,539.123 914.2188,538.0605 Q913.5313,536.9824 913.5313,535.7012 L913.5313,534.5449 Q913.5313,533.2168 914.1406,532.0762 Q914.7656,530.9199 915.8594,530.3105 Q916.9531,529.6855 918.1875,529.6855 Q918.9219,529.6855 919.5625,529.8574 Q920.2188,530.0137 920.7656,530.373 Z " fill="#000000"/><polygon fill="#4177AF" points="937,529.998,933,535.998,941,535.998" style="stroke:#1963A0;stroke-width:1.0;"/><text fill="#000000" font-family="sans-serif" font-size="14" font-weight="bold" lengthAdjust="spacing" textLength="30" x="943" y="540.2949">final</text><text fill="#000000" font-family="sans-serif" font-size="14" lengthAdjust="spacing" textLength="117" x="977" y="540.2949">XxxReaderAdapter</text><line style="stroke:#3498DB;stroke-width:2.0;" x1="904" x2="1096" y1="550.498" y2="550.498"/><line style="stroke:#3498DB;stroke-width:1.0;" x1="904" x2="1096" y1="558.498" y2="558.498"/><text fill="#000000" font-family="sans-serif" font-size="14" lengthAdjust="spacing" textLength="12" x="909" y="577.6055">...</text></g><!--reverse link KeyplePluginExtensionFactory to XxxPluginFactory--><g id="link_KeyplePluginExtensionFactory_XxxPluginFactory"><path d="M454.912,248.109 C453.979,285.55 452.654,338.679 451.811,372.49 " fill="none" id="KeyplePluginExtensionFactory-backto-XxxPluginFactory" style="stroke:#181818;stroke-width:2.0;"/><polygon fill="none" points="447.92,247.71,455.417,227.89,461.916,248.059,447.92,247.71" style="stroke:#181818;stroke-width:2.0;"/></g><!--reverse link KeyplePluginExtension to XxxPlugin--><g id="link_KeyplePluginExtension_XxxPlugin"><path d="M702.088,248.109 C703.021,285.55 704.346,338.679 705.189,372.49 " fill="none" id="KeyplePluginExtension-backto-XxxPlugin" style="stroke:#181818;stroke-width:2.0;"/><polygon fill="none" points="695.084,248.059,701.583,227.89,709.08,247.71,695.084,248.059" style="stroke:#181818;stroke-width:2.0;"/></g><!--reverse link KeypleReaderExtension to XxxReader--><g id="link_KeypleReaderExtension_XxxReader"><path d="M926.653,248.109 C927.213,285.55 928.008,338.679 928.514,372.49 " fill="none" id="KeypleReaderExtension-backto-XxxReader" style="stroke:#181818;stroke-width:2.0;"/><polygon fill="none" points="919.65,247.993,926.35,227.89,933.649,247.783,919.65,247.993" style="stroke:#181818;stroke-width:2.0;"/></g><!--reverse link XxxPluginFactory to XxxPluginFactoryAdapter--><g id="link_XxxPluginFactory_XxxPluginFactoryAdapter"><path d="M439.754,459.239 C435.493,479.032 430.767,500.983 427.007,518.451 " fill="none" id="XxxPluginFactory-backto-XxxPluginFactoryAdapter" style="stroke:#181818;stroke-width:2.0;stroke-dasharray:7.0,7.0;"/><polygon fill="none" points="432.913,457.753,443.966,439.674,446.6,460.699,432.913,457.753" style="stroke:#181818;stroke-width:2.0;"/></g><!--reverse link PluginFactorySpi to XxxPluginFactoryAdapter--><g id="link_PluginFactorySpi_XxxPluginFactoryAdapter"><path d="M518.752,696.542 C509.351,678.802 498.226,658.948 487,641.498 C474.697,622.374 459.5,602.077 446.692,585.751 " fill="none" id="PluginFactorySpi-backto-XxxPluginFactoryAdapter" style="stroke:#181818;stroke-width:2.0;stroke-dasharray:7.0,7.0;"/><polygon fill="none" points="525.026,693.436,528.027,714.4119,512.6,699.886,525.026,693.436" style="stroke:#181818;stroke-width:2.0;"/></g><!--link XxxPluginFactoryAdapter to PluginFactorySpi--><!--reverse link XxxPlugin to XxxPluginAdapter--><g id="link_XxxPlugin_XxxPluginAdapter"><path d="M711.14,459.865 C713.048,479.493 715.155,501.167 716.836,518.451 " fill="none" id="XxxPlugin-backto-XxxPluginAdapter" style="stroke:#181818;stroke-width:2.0;stroke-dasharray:7.0,7.0;"/><polygon fill="none" points="704.145,460.257,709.177,439.674,718.079,458.903,704.145,460.257" style="stroke:#181818;stroke-width:2.0;"/></g><!--reverse link PluginSpi to XxxPluginAdapter--><g id="link_PluginSpi_XxxPluginAdapter"><path d="M710.479,694.03 C712.075,677.533 713.729,659.271 715,642.498 C716.422,623.721 717.617,602.7 718.482,585.75 " fill="none" id="PluginSpi-backto-XxxPluginAdapter" style="stroke:#181818;stroke-width:2.0;stroke-dasharray:7.0,7.0;"/><polygon fill="none" points="717.43,694.871,708.487,714.081,703.499,693.487,717.43,694.871" style="stroke:#181818;stroke-width:2.0;"/></g><!--link XxxPluginAdapter to PluginSpi--><!--reverse link XxxReader to XxxReaderAdapter--><g id="link_XxxReader_XxxReaderAdapter"><path d="M953.99,457.681 C963.945,477.873 975.113,500.523 983.95,518.451 " fill="none" id="XxxReader-backto-XxxReaderAdapter" style="stroke:#181818;stroke-width:2.0;stroke-dasharray:7.0,7.0;"/><polygon fill="none" points="947.677,460.708,945.111,439.674,960.234,454.516,947.677,460.708" style="stroke:#181818;stroke-width:2.0;"/></g><!--reverse link ReaderSpi to XxxReaderAdapter--><g id="link_ReaderSpi_XxxReaderAdapter"><path d="M884.479,698.525 C912.374,663.384 949.355,616.798 973.876,585.907 " fill="none" id="ReaderSpi-backto-XxxReaderAdapter" style="stroke:#181818;stroke-width:2.0;stroke-dasharray:7.0,7.0;"/><polygon fill="none" points="889.912,702.939,871.995,714.2514,878.947,694.235,889.912,702.939" style="stroke:#181818;stroke-width:2.0;"/></g><!--link XxxReaderAdapter to ReaderSpi--><!--link XxxPluginFactoryProvider to XxxPluginFactoryAdapter--><g id="link_XxxPluginFactoryProvider_XxxPluginFactoryAdapter"><path codeLine="117" d="M225.183,439.674 C264.974,462.412 317.974,492.698 358.648,515.94 " fill="none" id="XxxPluginFactoryProvider-to-XxxPluginFactoryAdapter" style="stroke:#3498DB;stroke-width:2.0;stroke-dasharray:7.0,7.0;"/><polygon fill="#3498DB" points="363.044,518.451,357.2152,510.5122,358.703,515.9699,353.2454,517.4577,363.044,518.451" style="stroke:#3498DB;stroke-width:2.0;"/><polygon fill="#000000" points="319.3412,481.6243,312.946,474.5849,310.0298,479.6883,319.3412,481.6243" style="stroke:#000000;stroke-width:1.0;"/><text fill="#000000" font-family="sans-serif" font-size="13" lengthAdjust="spacing" textLength="40" x="324" y="484.5264">provide</text></g><!--link XxxPluginFactoryAdapter to XxxPluginAdapter--><g id="link_XxxPluginFactoryAdapter_XxxPluginAdapter"><path codeLine="118" d="M537.277,551.998 C565.279,551.998 594.881,551.998 621.916,551.998 " fill="none" id="XxxPluginFactoryAdapter-to-XxxPluginAdapter" style="stroke:#3498DB;stroke-width:2.0;stroke-dasharray:7.0,7.0;"/><polygon fill="#3498DB" points="626.933,551.998,617.933,547.998,621.933,551.998,617.933,555.998,626.933,551.998" style="stroke:#3498DB;stroke-width:2.0;"/><polygon fill="#000000" points="564.5,539.6436,555.4549,536.7046,555.4549,542.5825,564.5,539.6436" style="stroke:#000000;stroke-width:1.0;"/><text fill="#000000" font-family="sans-serif" font-size="13" lengthAdjust="spacing" textLength="40" x="568.5" y="545.0264">provide</text></g><!--link XxxPluginAdapter to XxxReaderAdapter--><g id="link_XxxPluginAdapter_XxxReaderAdapter"><path codeLine="119" d="M813.236,551.998 C840.343,551.998 870.093,551.998 897.725,551.998 " fill="none" id="XxxPluginAdapter-to-XxxReaderAdapter" style="stroke:#3498DB;stroke-width:2.0;stroke-dasharray:7.0,7.0;"/><polygon fill="#3498DB" points="902.858,551.998,893.858,547.998,897.858,551.998,893.858,555.998,902.858,551.998" style="stroke:#3498DB;stroke-width:2.0;"/><polygon fill="#000000" points="840.5,539.6436,831.4549,536.7046,831.4549,542.5825,840.5,539.6436" style="stroke:#000000;stroke-width:1.0;"/><text fill="#000000" font-family="sans-serif" font-size="13" lengthAdjust="spacing" textLength="40" x="844.5" y="545.0264">provide</text></g><!--link commonApi to specificPluginApi--><!--SRC=[jLTjR-8u4FwUNp7NVkZB7c4Nw5AgBb98dDrgkHQrNTrLTwSgJGn4c3YodHPKSR_zd3VoIk2alNoeql4pypmp7e_32Npv0e_Vq6z8lYZAYKu3WWF6mUKym1mS35Sm5yBdL-tsN2o9JGbbDdKmLsswR4zPMrWl15j1oy4jE_QkCSbNxiwybayiqLP-SV3KzJ3epr_lqTCdC2_DWJaecJjWTioksIkPku0kK1-LqJqm-iR8C4hc2z0rtJGw9VDd61bwL-_dpEERs-_GxGqkZL7E-kC1GQUleSyVSyOdD1xV_GucCf6EPD6WrO87iIQoNc9k2N2eToBWZR85lBbY3Xv-WrVCk4ize5EGDV14i2JIJU4Br_CjPYs12ymm5MiVQoFA7CpqiD9mh0qCtJ1hWJS5uAYdzT55BL0lHZICJwDEBH0LW6Wqw4hgA3zqQuHwSruwiJYFyOzprrvuc7F8XzKOes_v9Hdf2HD2tofHB7inOpJmd8GvAMqjMG8nUfh-qP0Xxx6p9zxrDSFES2Z36iX0UaFOBHBrUx8_bBah3q1gpCeaMIS1ymdUI-n7i8YxXtIptyYTWIzHhwSPAVtMNb3mGeBz_24eocTaNfYZHlOKcfo1X3kn5fY_CeozlTIp41Ln3ym-CXkvjzZah2NagRdClZw4V1rnQxAFq3xk2DhHk-WYJxqkCajgEIlrkzj7TFiOJKk2PzXpG51V0VayFqSHESJsvsUuYkpdSFqYzLsbWsCu2Lw8QuCskO7JgUnbcxZO4s3vlZHRGew9i-jsw38i-1DtDXUZS3ycp7sr10RBiNmfaDUXVH8iXz_nMdOEk9v4UHO9ALDig3mMgYY-j5Wp34SwNIxba9AmlppAPYgMqdoErKKKHqvy5lu9CKTWSOXVDT-5zuZxGqGqjMmCCVE413FNGok1lN3wcPOjA5idwCr1FitWUsp9dQo2Dxcaue3DIVaHHkM-6oKM__jGbrZCc2s5ZnoCwQkgglLw9wMG_yqlgTm1xZMP_x5QrMQU9BrQhQAakOzjT-hQiLTkL-tmpC3H-Rcy_onoVXu6BCYQCFegZmsBmknQp0d_yCw5x7DxKm7338lqzVGiLn51vSgy62KhKYKC3Zl2oNMeUa13rjGrVEo02oflIIo4wysuB3MSKZyyfXOvso8tZReE5VH_AeaxTwUI-gFqavISW9RCggtfdxrjbRZKTbMo1kvIIb_AyLc5_9eTOxNX5DLabvwcOWuDWckLDaciQlkPekAjB8ag64kYuhMygBenTv2eQ0B9xUQSscvqcN55sJaJL7MuSskFau_oA_1ZE0oLNTXyc8FyYux5sjGvnhV_M7kw-n5V_jdTr_fJVZCusFkxLHsXEmNddCgzgLG4vS3RVQccKWaPecBT3uzFu_WNNdetPFAFqrzXxvljQdR_rQrMBueyIeaxiW9IAscbNvTD7iKK3_SebNlhc4t4kbxFlhLhWTb9FGYO6pSv_By0]--></g></svg>