<svg xmlns="http://www.w3.org/2000/svg" xmlns:xlink="http://www.w3.org/1999/xlink" contentStyleType="text/css" height="449px" preserveAspectRatio="none" style="width:401px;height:449px;background:#FFFFFF;" version="1.1" viewBox="0 0 401 449" width="401px" zoomAndPan="magnify"><defs/><g><!--class MessageDto--><g id="elem_MessageDto"><rect codeLine="79" fill="#EBF5FB" height="196.9688" id="MessageDto" rx="2.5" ry="2.5" style="stroke:#3498DB;stroke-width:2.0;" width="330.4111" x="35.5" y="7"/><ellipse cx="157.1592" cy="23" fill="#ADD1B2" rx="11" ry="11" style="stroke:#181818;stroke-width:1.0;"/><path d="M159.9248,18.875 Q160.0811,18.6563 160.2686,18.5469 Q160.4561,18.4375 160.6748,18.4375 Q161.0498,18.4375 161.2842,18.7031 Q161.5186,18.9531 161.5186,19.5625 L161.5186,21.0156 Q161.5186,21.625 161.2842,21.8906 Q161.0498,22.1563 160.6748,22.1563 Q160.3311,22.1563 160.1279,21.9531 Q159.9248,21.7656 159.8154,21.25 Q159.7686,20.8906 159.5811,20.7031 Q159.2529,20.3281 158.6436,20.1094 Q158.0342,19.8906 157.4092,19.8906 Q156.6436,19.8906 156.0029,20.2188 Q155.3779,20.5469 154.8779,21.2969 Q154.3936,22.0469 154.3936,23.0781 L154.3936,24.1719 Q154.3936,25.4063 155.2842,26.2344 Q156.1748,27.0469 157.7686,27.0469 Q158.7061,27.0469 159.3623,26.7969 Q159.7529,26.6406 160.1748,26.2031 Q160.4404,25.9375 160.5811,25.8594 Q160.7373,25.7813 160.9404,25.7813 Q161.2686,25.7813 161.5186,26.0469 Q161.7842,26.2969 161.7842,26.6406 Q161.7842,26.9844 161.4404,27.3906 Q160.9404,27.9688 160.1436,28.2969 Q159.0654,28.75 157.7686,28.75 Q156.2529,28.75 155.0498,28.125 Q154.0654,27.625 153.3779,26.5625 Q152.6904,25.4844 152.6904,24.2031 L152.6904,23.0469 Q152.6904,21.7188 153.2998,20.5781 Q153.9248,19.4219 155.0186,18.8125 Q156.1123,18.1875 157.3467,18.1875 Q158.0811,18.1875 158.7217,18.3594 Q159.3779,18.5156 159.9248,18.875 Z " fill="#000000"/><text fill="#000000" font-family="sans-serif" font-size="14" lengthAdjust="spacing" textLength="78.5928" x="177.6592" y="28.7969">MessageDto</text><line style="stroke:#3498DB;stroke-width:2.0;" x1="36.5" x2="364.9111" y1="39" y2="39"/><text fill="#000000" font-family="sans-serif" font-size="14" font-weight="bold" lengthAdjust="spacing" textLength="56.0273" x="41.5" y="58.1074">apiLevel</text><text fill="#000000" font-family="sans-serif" font-size="14" lengthAdjust="spacing" textLength="81.3135" x="101.417" y="58.1074">: Number = 3</text><text fill="#000000" font-family="sans-serif" font-size="14" font-weight="bold" lengthAdjust="spacing" textLength="64.5791" x="41.5" y="76.7285">sessionId</text><text fill="#000000" font-family="sans-serif" font-size="14" lengthAdjust="spacing" textLength="44.3516" x="109.9688" y="76.7285">: String</text><text fill="#000000" font-family="sans-serif" font-size="14" font-weight="bold" lengthAdjust="spacing" textLength="41.2275" x="41.5" y="95.3496">action</text><text fill="#000000" font-family="sans-serif" font-size="14" lengthAdjust="spacing" textLength="65.2764" x="86.6172" y="95.3496">: String = "</text><text fill="#000000" font-family="sans-serif" font-size="14" font-weight="bold" lengthAdjust="spacing" textLength="203.0479" x="151.8936" y="95.3496">EXECUTE_REMOTE_SERVICE</text><text fill="#000000" font-family="sans-serif" font-size="14" lengthAdjust="spacing" textLength="4.9697" x="354.9414" y="95.3496">"</text><text fill="#000000" font-family="sans-serif" font-size="14" font-weight="bold" lengthAdjust="spacing" textLength="84.0068" x="41.5" y="113.9707">clientNodeId</text><text fill="#000000" font-family="sans-serif" font-size="14" lengthAdjust="spacing" textLength="44.3516" x="129.3965" y="113.9707">: String</text><text fill="#808080" font-family="sans-serif" font-size="14" font-weight="bold" lengthAdjust="spacing" textLength="89.4824" x="41.5" y="132.5918">serverNodeId</text><text fill="#808080" font-family="sans-serif" font-size="14" lengthAdjust="spacing" textLength="29.5723" x="134.8721" y="132.5918">: null</text><text fill="#000000" font-family="sans-serif" font-size="14" font-weight="bold" lengthAdjust="spacing" textLength="117.5029" x="41.5" y="151.2129">localReaderName</text><text fill="#000000" font-family="sans-serif" font-size="14" lengthAdjust="spacing" textLength="44.3516" x="162.8926" y="151.2129">: String</text><text fill="#808080" font-family="sans-serif" font-size="14" font-weight="bold" lengthAdjust="spacing" textLength="132.2822" x="41.5" y="169.834">remoteReaderName</text><text fill="#808080" font-family="sans-serif" font-size="14" lengthAdjust="spacing" textLength="29.5723" x="177.6719" y="169.834">: null</text><text fill="#000000" font-family="sans-serif" font-size="14" font-weight="bold" lengthAdjust="spacing" textLength="33.4414" x="41.5" y="188.4551">body</text><text fill="#000000" font-family="sans-serif" font-size="14" lengthAdjust="spacing" textLength="44.3516" x="78.8311" y="188.4551">: String</text><line style="stroke:#3498DB;stroke-width:2.0;" x1="36.5" x2="364.9111" y1="195.9688" y2="195.9688"/></g><!--class ExecuteRemoteServiceBody--><g id="elem_ExecuteRemoteServiceBody"><rect codeLine="80" fill="#EBF5FB" height="159.7266" id="ExecuteRemoteServiceBody" rx="2.5" ry="2.5" style="stroke:#3498DB;stroke-width:2.0;" width="387.2451" x="7" y="283"/><ellipse cx="107.2729" cy="299" fill="#ADD1B2" rx="11" ry="11" style="stroke:#181818;stroke-width:1.0;"/><path d="M110.0386,294.875 Q110.1948,294.6563 110.3823,294.5469 Q110.5698,294.4375 110.7886,294.4375 Q111.1636,294.4375 111.3979,294.7031 Q111.6323,294.9531 111.6323,295.5625 L111.6323,297.0156 Q111.6323,297.625 111.3979,297.8906 Q111.1636,298.1563 110.7886,298.1563 Q110.4448,298.1563 110.2417,297.9531 Q110.0386,297.7656 109.9292,297.25 Q109.8823,296.8906 109.6948,296.7031 Q109.3667,296.3281 108.7573,296.1094 Q108.1479,295.8906 107.5229,295.8906 Q106.7573,295.8906 106.1167,296.2188 Q105.4917,296.5469 104.9917,297.2969 Q104.5073,298.0469 104.5073,299.0781 L104.5073,300.1719 Q104.5073,301.4063 105.3979,302.2344 Q106.2886,303.0469 107.8823,303.0469 Q108.8198,303.0469 109.4761,302.7969 Q109.8667,302.6406 110.2886,302.2031 Q110.5542,301.9375 110.6948,301.8594 Q110.8511,301.7813 111.0542,301.7813 Q111.3823,301.7813 111.6323,302.0469 Q111.8979,302.2969 111.8979,302.6406 Q111.8979,302.9844 111.5542,303.3906 Q111.0542,303.9688 110.2573,304.2969 Q109.1792,304.75 107.8823,304.75 Q106.3667,304.75 105.1636,304.125 Q104.1792,303.625 103.4917,302.5625 Q102.8042,301.4844 102.8042,300.2031 L102.8042,299.0469 Q102.8042,297.7188 103.4136,296.5781 Q104.0386,295.4219 105.1323,294.8125 Q106.2261,294.1875 107.4604,294.1875 Q108.1948,294.1875 108.8354,294.3594 Q109.4917,294.5156 110.0386,294.875 Z " fill="#000000"/><text fill="#000000" font-family="sans-serif" font-size="14" lengthAdjust="spacing" textLength="178.1992" x="127.7729" y="304.7969">ExecuteRemoteServiceBody</text><line style="stroke:#3498DB;stroke-width:2.0;" x1="8" x2="393.2451" y1="315" y2="315"/><text fill="#000000" font-family="sans-serif" font-size="14" font-weight="bold" lengthAdjust="spacing" textLength="87.9238" x="13" y="334.1074">coreApiLevel</text><text fill="#000000" font-family="sans-serif" font-size="14" lengthAdjust="spacing" textLength="81.3135" x="104.8135" y="334.1074">: Number = 2</text><text fill="#000000" font-family="sans-serif" font-size="14" font-weight="bold" lengthAdjust="spacing" textLength="60.71" x="13" y="352.7285">serviceId</text><text fill="#000000" font-family="sans-serif" font-size="14" lengthAdjust="spacing" textLength="44.3516" x="77.5996" y="352.7285">: String</text><text fill="#0000FF" font-family="sans-serif" font-size="14" font-weight="bold" lengthAdjust="spacing" textLength="138.5029" x="13" y="371.3496">isReaderContactless</text><text fill="#0000FF" font-family="sans-serif" font-size="14" lengthAdjust="spacing" textLength="59.1582" x="155.3926" y="371.3496">: Boolean</text><text fill="#000000" font-family="sans-serif" font-size="14" font-weight="bold" lengthAdjust="spacing" textLength="64.5518" x="13" y="389.9707">inputData</text><text fill="#000000" font-family="sans-serif" font-size="14" lengthAdjust="spacing" textLength="56.0273" x="81.4414" y="389.9707">: Object?</text><text fill="#000000" font-family="sans-serif" font-size="14" font-weight="bold" lengthAdjust="spacing" textLength="121.3311" x="13" y="408.5918">initialCardContent</text><text fill="#000000" font-family="sans-serif" font-size="14" lengthAdjust="spacing" textLength="52.1377" x="138.2207" y="408.5918">: String?</text><text fill="#000000" font-family="sans-serif" font-size="14" font-weight="bold" lengthAdjust="spacing" textLength="196.8203" x="13" y="427.2129">initialCardContentClassName</text><text fill="#000000" font-family="sans-serif" font-size="14" lengthAdjust="spacing" textLength="174.5352" x="213.71" y="427.2129">: String? = "java.lang.String"</text><line style="stroke:#3498DB;stroke-width:2.0;" x1="8" x2="393.2451" y1="434.7266" y2="434.7266"/></g><!--reverse link MessageDto to ExecuteRemoteServiceBody--><g id="link_MessageDto_ExecuteRemoteServiceBody"><path codeLine="72" d="M200.5,216.187 C200.5,242.108 200.5,257.78 200.5,282.597 " fill="none" id="MessageDto-backto-ExecuteRemoteServiceBody" style="stroke:#3498DB;stroke-width:2.0;"/><polygon fill="#3498DB" points="200.5,204.187,196.5,210.187,200.5,216.187,204.5,210.187,200.5,204.187" style="stroke:#3498DB;stroke-width:2.0;"/><text fill="#000000" font-family="sans-serif" font-size="13" lengthAdjust="spacing" textLength="61.4199" x="201.5" y="249.0283">JsonString</text><text fill="#000000" font-family="sans-serif" font-size="13" lengthAdjust="spacing" textLength="7.23" x="193.1876" y="271.7325">1</text></g><!--SRC=[ZLLTRzem57tdLzpHXqgHA2s4KQfsKs8xNRUMJa2dzMaoYGjPJOnifmnD- - -x-O05Ic6y45sVUuvzSd9z35TNCFh4xXW-r6h7HALIfDf0R4mg34G2Bc1gxTnSD9jJEvEXaag7AXBc95IpvfDkMZwMWgUDI3J2edj72HzDF4aQSybji_Ok4azn8e3yk1wmnpC8peDUqDigjo1e1Ut0tIgtWNLObssZNQ1TwbEwLUu0yKX0Mrlbz-1JqYRTIldsfly5scxldFgLwiEGGQlhiVUdQ0uq6Z2qIuc-s2ct4AdasC92wMTOn7OAYLZ0Yz0cLWce9y2p9ZQTIMohcUSucNFDPs2iq4BPvLnuljAHq2Hp58wy7YKqs0cysG3whjTbdPr0iib8wPdVsWba6q3czzeedP-FzMcstqeNaToO0Z-Qnk5p8eo1AgsdjLfKbv3fKKYf5gzOUFWyqIfDeb8vO04ZRBTO2Q6kHqufKWv4T83lybABwCC7fAMCChA7TeraNHTpK9l66FHLyPzDgFerrNCf3WhFSrYkxJ8ITFTg_mEVCzVrw4f-NT_OmLYcX_KpK7uUF-W4_bxr5RJCUgbTLZUKhxKGoK7fIORAjNj1bmLxjTVOyfignLVbRVNb_uWlSsqFSyGEQUVG5ccpJbLwkQcCqZWJoNr_nFgZOYe2-yx8muZz6B2xU_mRii6t6ynjc8d07QQUJmIr2dxN07-Em-VnhNWHqd5mVFRJsLXek89skMgm0MV4JPGl3wsEaycgCRIuKgbZMzrnTkixJhri2sKi4jl7iVoQz38VsHVvGJDjZIEgWanIAKiMgK8k1uAZPtq-4_k9j9WfAxRG5RAnYfPLXZ-bM-oN2DEiCMiVucxYKFY8NNiNAYsydVwrrlxbNMyUDS-ouyIcs1rHYKLVSMoRlC5N2c-df2J3mAIMSilpjVlnJn7QZ-krsCPS4gwZZ0GjhYY-3Sgpj-NWn-n5_kGl_0HlXSb9KQoZAvWkpnWLnZnxywPMgyJ9mO5SFwk_xTbHUMzTm6UZajA98i2ttkFzGv7VeZ0SFTuMj_ohsAu-_qElQ8tx2m00]--></g></svg>