<?xml version="1.0" encoding="UTF-8" standalone="no"?><svg xmlns="http://www.w3.org/2000/svg" xmlns:xlink="http://www.w3.org/1999/xlink" contentScriptType="application/ecmascript" contentStyleType="text/css" height="3825px" preserveAspectRatio="none" style="width:2010px;height:3825px;background:#FFFFFF;" version="1.1" viewBox="0 0 2010 3825" width="2010px" zoomAndPan="magnify"><defs><filter height="1" id="b9t9zqk2pizoh0" width="1" x="0" y="0"><feFlood flood-color="#ADD8E6" result="flood"/><feComposite in="SourceGraphic" in2="flood" operator="over"/></filter></defs><g><rect fill="#ADD8E6" height="166.7578" style="stroke:#A80036;stroke-width:2.5;" width="25" x="166.25" y="283.0469"/><rect fill="#ADD8E6" height="330.1367" style="stroke:#A80036;stroke-width:2.5;" width="25" x="166.25" y="1113.5938"/><rect fill="#ADD8E6" height="35" style="stroke:#A80036;stroke-width:2.5;" width="25" x="166.25" y="2759.5508"/><rect fill="#ADD8E6" height="199.2578" style="stroke:#A80036;stroke-width:2.5;" width="25" x="166.25" y="2849.5508"/><rect fill="#ADD8E6" height="22.5" style="stroke:#A80036;stroke-width:2.5;" width="25" x="166.25" y="3528.2031"/><rect fill="#FFC0CB" height="110.8789" style="stroke:#A80036;stroke-width:2.5;" width="25" x="601.25" y="338.9258"/><rect fill="#FFC0CB" height="918.0469" style="stroke:#A80036;stroke-width:2.5;" width="25" x="601.25" y="525.6836"/><rect fill="#FFFFE0" height="219.2578" style="stroke:#A80036;stroke-width:2.5;" width="25" x="613.75" y="1189.4727"/><rect fill="#FFC0CB" height="219.2578" style="stroke:#A80036;stroke-width:2.5;" width="25" x="601.25" y="2575.293"/><rect fill="#FFC0CB" height="110.8789" style="stroke:#A80036;stroke-width:2.5;" width="25" x="601.25" y="2937.9297"/><rect fill="#FFC0CB" height="292.6367" style="stroke:#A80036;stroke-width:2.5;" width="25" x="601.25" y="3235.5664"/><rect fill="#FFC0CB" height="75.8789" style="stroke:#A80036;stroke-width:2.5;" width="25" x="1208.75" y="449.8047"/><rect fill="#FFC0CB" height="1131.5625" style="stroke:#A80036;stroke-width:2.5;" width="25" x="1208.75" y="1443.7305"/><rect fill="#FFFFE0" height="219.2578" style="stroke:#A80036;stroke-width:2.5;" width="25" x="1221.25" y="2321.0352"/><rect fill="#FFC0CB" height="186.7578" style="stroke:#A80036;stroke-width:2.5;" width="25" x="1208.75" y="3048.8086"/><rect fill="#ADD8E6" height="330.1367" style="stroke:#A80036;stroke-width:2.5;" width="25" x="1808.75" y="2245.1563"/><rect fill="#ADD8E6" height="35" style="stroke:#A80036;stroke-width:2.5;" width="25" x="1808.75" y="3124.6875"/><line style="stroke:#A80036;stroke-width:2.5;stroke-dasharray:5.0,5.0;" x1="177.5" x2="177.5" y1="258.0469" y2="3573.2031"/><line style="stroke:#A80036;stroke-width:2.5;stroke-dasharray:5.0,5.0;" x1="612.5" x2="612.5" y1="258.0469" y2="3573.2031"/><line style="stroke:#A80036;stroke-width:2.5;stroke-dasharray:5.0,5.0;" x1="1221.25" x2="1221.25" y1="258.0469" y2="3573.2031"/><line style="stroke:#A80036;stroke-width:2.5;stroke-dasharray:5.0,5.0;" x1="1821.25" x2="1821.25" y1="258.0469" y2="3573.2031"/><rect fill="#ADD8E6" height="123.0469" rx="12.5" ry="12.5" style="stroke:#A80036;stroke-width:3.75;" width="332.5" x="12.5" y="132.5"/><text fill="#000000" font-family="sans-serif" font-size="35" lengthAdjust="spacing" textLength="180" x="88.75" y="186.333">nodeClient:</text><text fill="#000000" font-family="sans-serif" font-size="35" font-weight="bold" lengthAdjust="spacing" textLength="297.5" x="30" y="230.3564">AsyncNodeClient</text><rect fill="#ADD8E6" height="123.0469" rx="12.5" ry="12.5" style="stroke:#A80036;stroke-width:3.75;" width="332.5" x="12.5" y="3570.7031"/><text fill="#000000" font-family="sans-serif" font-size="35" lengthAdjust="spacing" textLength="180" x="88.75" y="3624.5361">nodeClient:</text><text fill="#000000" font-family="sans-serif" font-size="35" font-weight="bold" lengthAdjust="spacing" textLength="297.5" x="30" y="3668.5596">AsyncNodeClient</text><text fill="#000000" font-family="sans-serif" font-size="35" lengthAdjust="spacing" textLength="310" x="451.25" y="206.333">userEndpointClient:</text><text fill="#000000" filter="url(#b9t9zqk2pizoh0)" font-family="sans-serif" font-size="35" font-weight="bold" lengthAdjust="spacing" textLength="417.5" x="397.5" y="250.3564">AsyncEndpointClientSpi</text><ellipse cx="613.75" cy="37.5" fill="#FEFECE" rx="20" ry="20" style="stroke:#A80036;stroke-width:5.0;"/><path d="M613.75,57.5 L613.75,125 M581.25,77.5 L646.25,77.5 M613.75,125 L581.25,162.5 M613.75,125 L646.25,162.5 " fill="none" style="stroke:#A80036;stroke-width:5.0;"/><text fill="#000000" font-family="sans-serif" font-size="35" lengthAdjust="spacing" textLength="310" x="451.25" y="3607.0361">userEndpointClient:</text><text fill="#000000" filter="url(#b9t9zqk2pizoh0)" font-family="sans-serif" font-size="35" font-weight="bold" lengthAdjust="spacing" textLength="417.5" x="397.5" y="3651.0596">AsyncEndpointClientSpi</text><ellipse cx="613.75" cy="3683.75" fill="#FEFECE" rx="20" ry="20" style="stroke:#A80036;stroke-width:5.0;"/><path d="M613.75,3703.75 L613.75,3771.25 M581.25,3723.75 L646.25,3723.75 M613.75,3771.25 L581.25,3808.75 M613.75,3771.25 L646.25,3808.75 " fill="none" style="stroke:#A80036;stroke-width:5.0;"/><text fill="#000000" font-family="sans-serif" font-size="35" lengthAdjust="spacing" textLength="325" x="1051.25" y="206.333">userEndpointServer:</text><text fill="#000000" filter="url(#b9t9zqk2pizoh0)" font-family="sans-serif" font-size="35" font-weight="bold" lengthAdjust="spacing" textLength="435" x="996.25" y="250.3564">AsyncEndpointServerSpi</text><ellipse cx="1221.25" cy="37.5" fill="#FEFECE" rx="20" ry="20" style="stroke:#A80036;stroke-width:5.0;"/><path d="M1221.25,57.5 L1221.25,125 M1188.75,77.5 L1253.75,77.5 M1221.25,125 L1188.75,162.5 M1221.25,125 L1253.75,162.5 " fill="none" style="stroke:#A80036;stroke-width:5.0;"/><text fill="#000000" font-family="sans-serif" font-size="35" lengthAdjust="spacing" textLength="325" x="1051.25" y="3607.0361">userEndpointServer:</text><text fill="#000000" filter="url(#b9t9zqk2pizoh0)" font-family="sans-serif" font-size="35" font-weight="bold" lengthAdjust="spacing" textLength="435" x="996.25" y="3651.0596">AsyncEndpointServerSpi</text><ellipse cx="1221.25" cy="3683.75" fill="#FEFECE" rx="20" ry="20" style="stroke:#A80036;stroke-width:5.0;"/><path d="M1221.25,3703.75 L1221.25,3771.25 M1188.75,3723.75 L1253.75,3723.75 M1221.25,3771.25 L1188.75,3808.75 M1221.25,3771.25 L1253.75,3808.75 " fill="none" style="stroke:#A80036;stroke-width:5.0;"/><rect fill="#ADD8E6" height="123.0469" rx="12.5" ry="12.5" style="stroke:#A80036;stroke-width:3.75;" width="350" x="1646.25" y="132.5"/><text fill="#000000" font-family="sans-serif" font-size="35" lengthAdjust="spacing" textLength="195" x="1723.75" y="186.333">nodeServer:</text><text fill="#000000" font-family="sans-serif" font-size="35" font-weight="bold" lengthAdjust="spacing" textLength="315" x="1663.75" y="230.3564">AsyncNodeServer</text><rect fill="#ADD8E6" height="123.0469" rx="12.5" ry="12.5" style="stroke:#A80036;stroke-width:3.75;" width="350" x="1646.25" y="3570.7031"/><text fill="#000000" font-family="sans-serif" font-size="35" lengthAdjust="spacing" textLength="195" x="1723.75" y="3624.5361">nodeServer:</text><text fill="#000000" font-family="sans-serif" font-size="35" font-weight="bold" lengthAdjust="spacing" textLength="315" x="1663.75" y="3668.5596">AsyncNodeServer</text><rect fill="#ADD8E6" height="166.7578" style="stroke:#A80036;stroke-width:2.5;" width="25" x="166.25" y="283.0469"/><rect fill="#ADD8E6" height="330.1367" style="stroke:#A80036;stroke-width:2.5;" width="25" x="166.25" y="1113.5938"/><rect fill="#ADD8E6" height="35" style="stroke:#A80036;stroke-width:2.5;" width="25" x="166.25" y="2759.5508"/><rect fill="#ADD8E6" height="199.2578" style="stroke:#A80036;stroke-width:2.5;" width="25" x="166.25" y="2849.5508"/><rect fill="#ADD8E6" height="22.5" style="stroke:#A80036;stroke-width:2.5;" width="25" x="166.25" y="3528.2031"/><rect fill="#FFC0CB" height="110.8789" style="stroke:#A80036;stroke-width:2.5;" width="25" x="601.25" y="338.9258"/><rect fill="#FFC0CB" height="918.0469" style="stroke:#A80036;stroke-width:2.5;" width="25" x="601.25" y="525.6836"/><rect fill="#FFFFE0" height="219.2578" style="stroke:#A80036;stroke-width:2.5;" width="25" x="613.75" y="1189.4727"/><rect fill="#FFC0CB" height="219.2578" style="stroke:#A80036;stroke-width:2.5;" width="25" x="601.25" y="2575.293"/><rect fill="#FFC0CB" height="110.8789" style="stroke:#A80036;stroke-width:2.5;" width="25" x="601.25" y="2937.9297"/><rect fill="#FFC0CB" height="292.6367" style="stroke:#A80036;stroke-width:2.5;" width="25" x="601.25" y="3235.5664"/><rect fill="#FFC0CB" height="75.8789" style="stroke:#A80036;stroke-width:2.5;" width="25" x="1208.75" y="449.8047"/><rect fill="#FFC0CB" height="1131.5625" style="stroke:#A80036;stroke-width:2.5;" width="25" x="1208.75" y="1443.7305"/><rect fill="#FFFFE0" height="219.2578" style="stroke:#A80036;stroke-width:2.5;" width="25" x="1221.25" y="2321.0352"/><rect fill="#FFC0CB" height="186.7578" style="stroke:#A80036;stroke-width:2.5;" width="25" x="1208.75" y="3048.8086"/><rect fill="#ADD8E6" height="330.1367" style="stroke:#A80036;stroke-width:2.5;" width="25" x="1808.75" y="2245.1563"/><rect fill="#ADD8E6" height="35" style="stroke:#A80036;stroke-width:2.5;" width="25" x="1808.75" y="3124.6875"/><polygon fill="#A80036" points="571.25,328.9258,596.25,338.9258,571.25,348.9258,581.25,338.9258" style="stroke:#A80036;stroke-width:2.5;"/><line style="stroke:#A80036;stroke-width:2.5;" x1="191.25" x2="586.25" y1="338.9258" y2="338.9258"/><text fill="#000000" font-family="sans-serif" font-size="32.5" lengthAdjust="spacing" textLength="207.5" x="208.75" y="326.7847">openSession (</text><text fill="#008000" font-family="sans-serif" font-size="32.5" lengthAdjust="spacing" textLength="137.5" x="416.25" y="326.7847">sessionId</text><text fill="#000000" font-family="sans-serif" font-size="32.5" lengthAdjust="spacing" textLength="10" x="553.75" y="326.7847">)</text><line style="stroke:#A80036;stroke-width:2.5;" x1="1216.25" x2="1191.25" y1="414.8047" y2="404.8047"/><line style="stroke:#A80036;stroke-width:2.5;" x1="1216.25" x2="1191.25" y1="414.8047" y2="424.8047"/><line style="stroke:#A80036;stroke-width:2.5;" x1="626.25" x2="1218.75" y1="414.8047" y2="414.8047"/><text fill="#000000" font-family="sans-serif" font-size="32.5" lengthAdjust="spacing" textLength="450" x="643.75" y="402.6636">send asynchronous handshake</text><polygon fill="#A80036" points="206.25,439.8047,181.25,449.8047,206.25,459.8047,196.25,449.8047" style="stroke:#A80036;stroke-width:2.5;"/><line style="stroke:#A80036;stroke-width:2.5;stroke-dasharray:2.0,2.0;" x1="191.25" x2="611.25" y1="449.8047" y2="449.8047"/><polygon fill="#A80036" points="653.75,515.6836,628.75,525.6836,653.75,535.6836,643.75,525.6836" style="stroke:#A80036;stroke-width:2.5;"/><line style="stroke:#A80036;stroke-width:2.5;stroke-dasharray:2.0,2.0;" x1="638.75" x2="1218.75" y1="525.6836" y2="525.6836"/><text fill="#000000" font-family="sans-serif" font-size="32.5" lengthAdjust="spacing" textLength="117.5" x="668.75" y="513.5425">Session</text><line style="stroke:#A80036;stroke-width:2.5;" x1="626.25" x2="731.25" y1="601.5625" y2="601.5625"/><line style="stroke:#A80036;stroke-width:2.5;" x1="731.25" x2="731.25" y1="601.5625" y2="634.0625"/><line style="stroke:#A80036;stroke-width:2.5;" x1="628.75" x2="731.25" y1="634.0625" y2="634.0625"/><polygon fill="#A80036" points="653.75,624.0625,628.75,634.0625,653.75,644.0625,643.75,634.0625" style="stroke:#A80036;stroke-width:2.5;"/><text fill="#000000" font-family="sans-serif" font-size="32.5" lengthAdjust="spacing" textLength="245" x="643.75" y="589.4214">registerSession (</text><text fill="#008000" font-family="sans-serif" font-size="32.5" lengthAdjust="spacing" textLength="137.5" x="888.75" y="589.4214">sessionId</text><text fill="#000000" font-family="sans-serif" font-size="32.5" lengthAdjust="spacing" textLength="147.5" x="1026.25" y="589.4214">, Session)</text><line style="stroke:#A80036;stroke-width:2.5;" x1="626.25" x2="731.25" y1="709.9414" y2="709.9414"/><line style="stroke:#A80036;stroke-width:2.5;" x1="731.25" x2="731.25" y1="709.9414" y2="742.4414"/><line style="stroke:#A80036;stroke-width:2.5;" x1="628.75" x2="731.25" y1="742.4414" y2="742.4414"/><polygon fill="#A80036" points="653.75,732.4414,628.75,742.4414,653.75,752.4414,643.75,742.4414" style="stroke:#A80036;stroke-width:2.5;"/><text fill="#000000" font-family="sans-serif" font-size="32.5" lengthAdjust="spacing" textLength="385" x="643.75" y="697.8003">[...]Client.getAsyncNode ()</text><path d="M345,787.4414 L345,1032.4414 A12.5,12.5 0 0 0 357.5,1044.9414 L870,1044.9414 A12.5,12.5 0 0 0 882.5,1032.4414 L882.5,799.9414 L857.5,774.9414 L357.5,774.9414 A12.5,12.5 0 0 0 345,787.4414 " fill="#FBFB77" style="stroke:#A80036;stroke-width:2.5;"/><path d="M857.5,774.9414 L857.5,793.6914 A6.25,6.25 0 0 0 863.75,799.9414 L882.5,799.9414 L857.5,774.9414 " fill="#FBFB77" style="stroke:#A80036;stroke-width:2.5;"/><text fill="#000000" font-family="sans-serif" font-size="32.5" lengthAdjust="spacing" textLength="392.5" x="360" y="821.1792">The node accessor method</text><text fill="#000000" font-family="sans-serif" font-size="32.5" lengthAdjust="spacing" textLength="437.5" x="360" y="862.0581">is provided by the extension of</text><text fill="#000000" font-family="sans-serif" font-size="32.5" lengthAdjust="spacing" textLength="485" x="360" y="902.937">the remote plugin or local service,</text><text fill="#000000" font-family="sans-serif" font-size="32.5" lengthAdjust="spacing" textLength="330" x="360" y="943.8159">depends on your case:</text><ellipse cx="373.75" cy="973.0859" fill="#000000" rx="6.25" ry="6.25" style="stroke:#000000;stroke-width:0.0;"/><text fill="#000000" font-family="sans-serif" font-size="32.5" font-weight="bold" lengthAdjust="spacing" textLength="207.5" x="392.5" y="984.6948">LocalService</text><text fill="#000000" font-family="sans-serif" font-size="32.5" lengthAdjust="spacing" textLength="82.5" x="600" y="984.6948">Client</text><ellipse cx="373.75" cy="1013.9648" fill="#000000" rx="6.25" ry="6.25" style="stroke:#000000;stroke-width:0.0;"/><text fill="#000000" font-family="sans-serif" font-size="32.5" font-weight="bold" lengthAdjust="spacing" textLength="225" x="392.5" y="1025.5737">RemotePlugin</text><text fill="#000000" font-family="sans-serif" font-size="32.5" lengthAdjust="spacing" textLength="82.5" x="617.5" y="1025.5737">Client</text><polygon fill="#A80036" points="218.75,1103.5938,193.75,1113.5938,218.75,1123.5938,208.75,1113.5938" style="stroke:#A80036;stroke-width:2.5;"/><line style="stroke:#A80036;stroke-width:2.5;" x1="203.75" x2="598.75" y1="1113.5938" y2="1113.5938"/><text fill="#000000" font-family="sans-serif" font-size="32.5" lengthAdjust="spacing" textLength="132.5" x="233.75" y="1101.4526">onOpen (</text><text fill="#008000" font-family="sans-serif" font-size="32.5" lengthAdjust="spacing" textLength="137.5" x="366.25" y="1101.4526">sessionId</text><text fill="#000000" font-family="sans-serif" font-size="32.5" lengthAdjust="spacing" textLength="10" x="503.75" y="1101.4526">)</text><polygon fill="#A80036" points="583.75,1179.4727,608.75,1189.4727,583.75,1199.4727,593.75,1189.4727" style="stroke:#A80036;stroke-width:2.5;"/><line style="stroke:#A80036;stroke-width:2.5;" x1="191.25" x2="598.75" y1="1189.4727" y2="1189.4727"/><text fill="#000000" font-family="sans-serif" font-size="32.5" lengthAdjust="spacing" textLength="222.5" x="208.75" y="1177.3315">sendMessage (</text><text fill="#FF0000" font-family="sans-serif" font-size="32.5" lengthAdjust="spacing" textLength="67.5" x="431.25" y="1177.3315">dtoA</text><text fill="#000000" font-family="sans-serif" font-size="32.5" lengthAdjust="spacing" textLength="10" x="498.75" y="1177.3315">)</text><line style="stroke:#A80036;stroke-width:2.5;" x1="638.75" x2="743.75" y1="1265.3516" y2="1265.3516"/><line style="stroke:#A80036;stroke-width:2.5;" x1="743.75" x2="743.75" y1="1265.3516" y2="1297.8516"/><line style="stroke:#A80036;stroke-width:2.5;" x1="641.25" x2="743.75" y1="1297.8516" y2="1297.8516"/><polygon fill="#A80036" points="666.25,1287.8516,641.25,1297.8516,666.25,1307.8516,656.25,1297.8516" style="stroke:#A80036;stroke-width:2.5;"/><text fill="#000000" font-family="sans-serif" font-size="32.5" lengthAdjust="spacing" textLength="205" x="656.25" y="1253.2104">findSesssion (</text><text fill="#FF0000" font-family="sans-serif" font-size="32.5" lengthAdjust="spacing" textLength="67.5" x="861.25" y="1253.2104">dtoA</text><text fill="#008000" font-family="sans-serif" font-size="32.5" lengthAdjust="spacing" textLength="217.5" x="928.75" y="1253.2104">.getSessionId()</text><text fill="#000000" font-family="sans-serif" font-size="32.5" lengthAdjust="spacing" textLength="10" x="1146.25" y="1253.2104">)</text><line style="stroke:#A80036;stroke-width:2.5;" x1="1216.25" x2="1191.25" y1="1373.7305" y2="1363.7305"/><line style="stroke:#A80036;stroke-width:2.5;" x1="1216.25" x2="1191.25" y1="1373.7305" y2="1383.7305"/><line style="stroke:#A80036;stroke-width:2.5;" x1="638.75" x2="1218.75" y1="1373.7305" y2="1373.7305"/><text fill="#000000" font-family="sans-serif" font-size="32.5" lengthAdjust="spacing" textLength="445" x="656.25" y="1361.5894">send asynchronous message (</text><text fill="#FF0000" font-family="sans-serif" font-size="32.5" lengthAdjust="spacing" textLength="67.5" x="1101.25" y="1361.5894">dtoA</text><text fill="#000000" font-family="sans-serif" font-size="32.5" lengthAdjust="spacing" textLength="10" x="1168.75" y="1361.5894">)</text><polygon fill="#A80036" points="218.75,1398.7305,193.75,1408.7305,218.75,1418.7305,208.75,1408.7305" style="stroke:#A80036;stroke-width:2.5;"/><line style="stroke:#A80036;stroke-width:2.5;stroke-dasharray:2.0,2.0;" x1="203.75" x2="598.75" y1="1408.7305" y2="1408.7305"/><polygon fill="#A80036" points="583.75,1433.7305,608.75,1443.7305,583.75,1453.7305,593.75,1443.7305" style="stroke:#A80036;stroke-width:2.5;"/><line style="stroke:#A80036;stroke-width:2.5;stroke-dasharray:2.0,2.0;" x1="178.75" x2="598.75" y1="1443.7305" y2="1443.7305"/><line style="stroke:#A80036;stroke-width:2.5;" x1="1233.75" x2="1338.75" y1="1519.6094" y2="1519.6094"/><line style="stroke:#A80036;stroke-width:2.5;" x1="1338.75" x2="1338.75" y1="1519.6094" y2="1552.1094"/><line style="stroke:#A80036;stroke-width:2.5;" x1="1236.25" x2="1338.75" y1="1552.1094" y2="1552.1094"/><polygon fill="#A80036" points="1261.25,1542.1094,1236.25,1552.1094,1261.25,1562.1094,1251.25,1552.1094" style="stroke:#A80036;stroke-width:2.5;"/><text fill="#000000" font-family="sans-serif" font-size="32.5" lengthAdjust="spacing" textLength="245" x="1251.25" y="1507.4683">registerSession (</text><text fill="#FF0000" font-family="sans-serif" font-size="32.5" lengthAdjust="spacing" textLength="67.5" x="1496.25" y="1507.4683">dtoA</text><text fill="#008000" font-family="sans-serif" font-size="32.5" lengthAdjust="spacing" textLength="217.5" x="1563.75" y="1507.4683">.getSessionId()</text><text fill="#000000" font-family="sans-serif" font-size="32.5" lengthAdjust="spacing" textLength="10" x="1781.25" y="1507.4683">)</text><path d="M887.5,1597.1094 L887.5,1759.6094 A12.5,12.5 0 0 0 900,1772.1094 L1542.5,1772.1094 A12.5,12.5 0 0 0 1555,1759.6094 L1555,1609.6094 L1530,1584.6094 L900,1584.6094 A12.5,12.5 0 0 0 887.5,1597.1094 " fill="#FBFB77" style="stroke:#A80036;stroke-width:2.5;"/><path d="M1530,1584.6094 L1530,1603.3594 A6.25,6.25 0 0 0 1536.25,1609.6094 L1555,1609.6094 L1530,1584.6094 " fill="#FBFB77" style="stroke:#A80036;stroke-width:2.5;"/><text fill="#000000" font-family="sans-serif" font-size="32.5" lengthAdjust="spacing" textLength="505" x="902.5" y="1630.8472">It is necessary to identify the client</text><text fill="#000000" font-family="sans-serif" font-size="32.5" lengthAdjust="spacing" textLength="115" x="902.5" y="1671.7261">via the "</text><text fill="#008000" font-family="sans-serif" font-size="32.5" lengthAdjust="spacing" textLength="137.5" x="1017.5" y="1671.7261">sessionId</text><text fill="#000000" font-family="sans-serif" font-size="32.5" lengthAdjust="spacing" textLength="245" x="1155" y="1671.7261">" field in the DTO</text><text fill="#000000" font-family="sans-serif" font-size="32.5" lengthAdjust="spacing" textLength="615" x="902.5" y="1712.605">in order to be able to reply a new message</text><text fill="#000000" font-family="sans-serif" font-size="32.5" lengthAdjust="spacing" textLength="210" x="902.5" y="1753.4839">at a later date.</text><line style="stroke:#A80036;stroke-width:2.5;" x1="1233.75" x2="1338.75" y1="1841.5039" y2="1841.5039"/><line style="stroke:#A80036;stroke-width:2.5;" x1="1338.75" x2="1338.75" y1="1841.5039" y2="1874.0039"/><line style="stroke:#A80036;stroke-width:2.5;" x1="1236.25" x2="1338.75" y1="1874.0039" y2="1874.0039"/><polygon fill="#A80036" points="1261.25,1864.0039,1236.25,1874.0039,1261.25,1884.0039,1251.25,1874.0039" style="stroke:#A80036;stroke-width:2.5;"/><text fill="#000000" font-family="sans-serif" font-size="32.5" lengthAdjust="spacing" textLength="392.5" x="1251.25" y="1829.3628">[...]Server.getAsyncNode ()</text><path d="M952.5,1919.0039 L952.5,2164.0039 A12.5,12.5 0 0 0 965,2176.5039 L1477.5,2176.5039 A12.5,12.5 0 0 0 1490,2164.0039 L1490,1931.5039 L1465,1906.5039 L965,1906.5039 A12.5,12.5 0 0 0 952.5,1919.0039 " fill="#FBFB77" style="stroke:#A80036;stroke-width:2.5;"/><path d="M1465,1906.5039 L1465,1925.2539 A6.25,6.25 0 0 0 1471.25,1931.5039 L1490,1931.5039 L1465,1906.5039 " fill="#FBFB77" style="stroke:#A80036;stroke-width:2.5;"/><text fill="#000000" font-family="sans-serif" font-size="32.5" lengthAdjust="spacing" textLength="392.5" x="967.5" y="1952.7417">The node accessor method</text><text fill="#000000" font-family="sans-serif" font-size="32.5" lengthAdjust="spacing" textLength="437.5" x="967.5" y="1993.6206">is provided by the extension of</text><text fill="#000000" font-family="sans-serif" font-size="32.5" lengthAdjust="spacing" textLength="485" x="967.5" y="2034.4995">the remote plugin or local service,</text><text fill="#000000" font-family="sans-serif" font-size="32.5" lengthAdjust="spacing" textLength="330" x="967.5" y="2075.3784">depends on your case:</text><ellipse cx="981.25" cy="2104.6484" fill="#000000" rx="6.25" ry="6.25" style="stroke:#000000;stroke-width:0.0;"/><text fill="#000000" font-family="sans-serif" font-size="32.5" font-weight="bold" lengthAdjust="spacing" textLength="225" x="1000" y="2116.2573">RemotePlugin</text><text fill="#000000" font-family="sans-serif" font-size="32.5" lengthAdjust="spacing" textLength="90" x="1225" y="2116.2573">Server</text><ellipse cx="981.25" cy="2145.5273" fill="#000000" rx="6.25" ry="6.25" style="stroke:#000000;stroke-width:0.0;"/><text fill="#000000" font-family="sans-serif" font-size="32.5" font-weight="bold" lengthAdjust="spacing" textLength="207.5" x="1000" y="2157.1362">LocalService</text><text fill="#000000" font-family="sans-serif" font-size="32.5" lengthAdjust="spacing" textLength="90" x="1207.5" y="2157.1362">Server</text><polygon fill="#A80036" points="1778.75,2235.1563,1803.75,2245.1563,1778.75,2255.1563,1788.75,2245.1563" style="stroke:#A80036;stroke-width:2.5;"/><line style="stroke:#A80036;stroke-width:2.5;" x1="1233.75" x2="1793.75" y1="2245.1563" y2="2245.1563"/><text fill="#000000" font-family="sans-serif" font-size="32.5" lengthAdjust="spacing" textLength="187.5" x="1251.25" y="2233.0151">onMessage (</text><text fill="#FF0000" font-family="sans-serif" font-size="32.5" lengthAdjust="spacing" textLength="67.5" x="1438.75" y="2233.0151">dtoA</text><text fill="#000000" font-family="sans-serif" font-size="32.5" lengthAdjust="spacing" textLength="10" x="1506.25" y="2233.0151">)</text><polygon fill="#A80036" points="1273.75,2311.0352,1248.75,2321.0352,1273.75,2331.0352,1263.75,2321.0352" style="stroke:#A80036;stroke-width:2.5;"/><line style="stroke:#A80036;stroke-width:2.5;" x1="1258.75" x2="1806.25" y1="2321.0352" y2="2321.0352"/><text fill="#000000" font-family="sans-serif" font-size="32.5" lengthAdjust="spacing" textLength="222.5" x="1288.75" y="2308.894">sendMessage (</text><text fill="#0000FF" font-family="sans-serif" font-size="32.5" lengthAdjust="spacing" textLength="67.5" x="1511.25" y="2308.894">dtoB</text><text fill="#000000" font-family="sans-serif" font-size="32.5" lengthAdjust="spacing" textLength="10" x="1578.75" y="2308.894">)</text><line style="stroke:#A80036;stroke-width:2.5;" x1="1246.25" x2="1351.25" y1="2396.9141" y2="2396.9141"/><line style="stroke:#A80036;stroke-width:2.5;" x1="1351.25" x2="1351.25" y1="2396.9141" y2="2429.4141"/><line style="stroke:#A80036;stroke-width:2.5;" x1="1248.75" x2="1351.25" y1="2429.4141" y2="2429.4141"/><polygon fill="#A80036" points="1273.75,2419.4141,1248.75,2429.4141,1273.75,2439.4141,1263.75,2429.4141" style="stroke:#A80036;stroke-width:2.5;"/><text fill="#000000" font-family="sans-serif" font-size="32.5" lengthAdjust="spacing" textLength="187.5" x="1263.75" y="2384.7729">findSession (</text><text fill="#0000FF" font-family="sans-serif" font-size="32.5" lengthAdjust="spacing" textLength="67.5" x="1451.25" y="2384.7729">dtoB</text><text fill="#008000" font-family="sans-serif" font-size="32.5" lengthAdjust="spacing" textLength="217.5" x="1518.75" y="2384.7729">.getSessionId()</text><text fill="#000000" font-family="sans-serif" font-size="32.5" lengthAdjust="spacing" textLength="10" x="1736.25" y="2384.7729">)</text><line style="stroke:#A80036;stroke-width:2.5;" x1="613.75" x2="638.75" y1="2505.293" y2="2495.293"/><line style="stroke:#A80036;stroke-width:2.5;" x1="613.75" x2="638.75" y1="2505.293" y2="2515.293"/><line style="stroke:#A80036;stroke-width:2.5;" x1="613.75" x2="1218.75" y1="2505.293" y2="2505.293"/><text fill="#000000" font-family="sans-serif" font-size="32.5" lengthAdjust="spacing" textLength="445" x="656.25" y="2493.1519">send asynchronous message (</text><text fill="#0000FF" font-family="sans-serif" font-size="32.5" lengthAdjust="spacing" textLength="67.5" x="1101.25" y="2493.1519">dtoB</text><text fill="#000000" font-family="sans-serif" font-size="32.5" lengthAdjust="spacing" textLength="10" x="1168.75" y="2493.1519">)</text><polygon fill="#A80036" points="1778.75,2530.293,1803.75,2540.293,1778.75,2550.293,1788.75,2540.293" style="stroke:#A80036;stroke-width:2.5;"/><line style="stroke:#A80036;stroke-width:2.5;stroke-dasharray:2.0,2.0;" x1="1233.75" x2="1793.75" y1="2540.293" y2="2540.293"/><polygon fill="#A80036" points="1248.75,2565.293,1223.75,2575.293,1248.75,2585.293,1238.75,2575.293" style="stroke:#A80036;stroke-width:2.5;"/><line style="stroke:#A80036;stroke-width:2.5;stroke-dasharray:2.0,2.0;" x1="1233.75" x2="1818.75" y1="2575.293" y2="2575.293"/><line style="stroke:#A80036;stroke-width:2.5;" x1="626.25" x2="731.25" y1="2651.1719" y2="2651.1719"/><line style="stroke:#A80036;stroke-width:2.5;" x1="731.25" x2="731.25" y1="2651.1719" y2="2683.6719"/><line style="stroke:#A80036;stroke-width:2.5;" x1="628.75" x2="731.25" y1="2683.6719" y2="2683.6719"/><polygon fill="#A80036" points="653.75,2673.6719,628.75,2683.6719,653.75,2693.6719,643.75,2683.6719" style="stroke:#A80036;stroke-width:2.5;"/><text fill="#000000" font-family="sans-serif" font-size="32.5" lengthAdjust="spacing" textLength="385" x="643.75" y="2639.0308">[...]Client.getAsyncNode ()</text><polygon fill="#A80036" points="218.75,2749.5508,193.75,2759.5508,218.75,2769.5508,208.75,2759.5508" style="stroke:#A80036;stroke-width:2.5;"/><line style="stroke:#A80036;stroke-width:2.5;" x1="203.75" x2="598.75" y1="2759.5508" y2="2759.5508"/><text fill="#000000" font-family="sans-serif" font-size="32.5" lengthAdjust="spacing" textLength="187.5" x="233.75" y="2747.4097">onMessage (</text><text fill="#0000FF" font-family="sans-serif" font-size="32.5" lengthAdjust="spacing" textLength="67.5" x="421.25" y="2747.4097">dtoB</text><text fill="#000000" font-family="sans-serif" font-size="32.5" lengthAdjust="spacing" textLength="10" x="488.75" y="2747.4097">)</text><polygon fill="#A80036" points="583.75,2784.5508,608.75,2794.5508,583.75,2804.5508,593.75,2794.5508" style="stroke:#A80036;stroke-width:2.5;"/><line style="stroke:#A80036;stroke-width:2.5;stroke-dasharray:2.0,2.0;" x1="178.75" x2="598.75" y1="2794.5508" y2="2794.5508"/><line style="stroke:#A80036;stroke-width:2.5;" x1="178.75" x2="296.25" y1="2817.0508" y2="2817.0508"/><line style="stroke:#A80036;stroke-width:2.5;" x1="296.25" x2="296.25" y1="2817.0508" y2="2849.5508"/><line style="stroke:#A80036;stroke-width:2.5;" x1="193.75" x2="296.25" y1="2849.5508" y2="2849.5508"/><polygon fill="#A80036" points="218.75,2839.5508,193.75,2849.5508,218.75,2859.5508,208.75,2849.5508" style="stroke:#A80036;stroke-width:2.5;"/><polygon fill="#A80036" points="571.25,2927.9297,596.25,2937.9297,571.25,2947.9297,581.25,2937.9297" style="stroke:#A80036;stroke-width:2.5;"/><line style="stroke:#A80036;stroke-width:2.5;" x1="191.25" x2="586.25" y1="2937.9297" y2="2937.9297"/><text fill="#000000" font-family="sans-serif" font-size="32.5" lengthAdjust="spacing" textLength="215" x="208.75" y="2925.7886">closeSession (</text><text fill="#008000" font-family="sans-serif" font-size="32.5" lengthAdjust="spacing" textLength="137.5" x="423.75" y="2925.7886">sessionId</text><text fill="#000000" font-family="sans-serif" font-size="32.5" lengthAdjust="spacing" textLength="10" x="561.25" y="2925.7886">)</text><line style="stroke:#A80036;stroke-width:2.5;" x1="1216.25" x2="1191.25" y1="3013.8086" y2="3003.8086"/><line style="stroke:#A80036;stroke-width:2.5;" x1="1216.25" x2="1191.25" y1="3013.8086" y2="3023.8086"/><line style="stroke:#A80036;stroke-width:2.5;" x1="626.25" x2="1218.75" y1="3013.8086" y2="3013.8086"/><text fill="#000000" font-family="sans-serif" font-size="32.5" lengthAdjust="spacing" textLength="487.5" x="643.75" y="3001.6675">send asynchronous closeSession</text><polygon fill="#A80036" points="206.25,3038.8086,181.25,3048.8086,206.25,3058.8086,196.25,3048.8086" style="stroke:#A80036;stroke-width:2.5;"/><line style="stroke:#A80036;stroke-width:2.5;stroke-dasharray:2.0,2.0;" x1="191.25" x2="611.25" y1="3048.8086" y2="3048.8086"/><polygon fill="#A80036" points="1778.75,3114.6875,1803.75,3124.6875,1778.75,3134.6875,1788.75,3124.6875" style="stroke:#A80036;stroke-width:2.5;"/><line style="stroke:#A80036;stroke-width:2.5;" x1="1233.75" x2="1793.75" y1="3124.6875" y2="3124.6875"/><text fill="#000000" font-family="sans-serif" font-size="32.5" lengthAdjust="spacing" textLength="137.5" x="1251.25" y="3112.5464">onClose (</text><text fill="#008000" font-family="sans-serif" font-size="32.5" lengthAdjust="spacing" textLength="137.5" x="1388.75" y="3112.5464">sessionId</text><text fill="#000000" font-family="sans-serif" font-size="32.5" lengthAdjust="spacing" textLength="10" x="1526.25" y="3112.5464">)</text><polygon fill="#A80036" points="1261.25,3149.6875,1236.25,3159.6875,1261.25,3169.6875,1251.25,3159.6875" style="stroke:#A80036;stroke-width:2.5;"/><line style="stroke:#A80036;stroke-width:2.5;stroke-dasharray:2.0,2.0;" x1="1246.25" x2="1818.75" y1="3159.6875" y2="3159.6875"/><polygon fill="#A80036" points="653.75,3225.5664,628.75,3235.5664,653.75,3245.5664,643.75,3235.5664" style="stroke:#A80036;stroke-width:2.5;"/><line style="stroke:#A80036;stroke-width:2.5;stroke-dasharray:2.0,2.0;" x1="638.75" x2="1218.75" y1="3235.5664" y2="3235.5664"/><text fill="#000000" font-family="sans-serif" font-size="32.5" lengthAdjust="spacing" textLength="35" x="668.75" y="3223.4253">ok</text><line style="stroke:#A80036;stroke-width:2.5;" x1="626.25" x2="731.25" y1="3311.4453" y2="3311.4453"/><line style="stroke:#A80036;stroke-width:2.5;" x1="731.25" x2="731.25" y1="3311.4453" y2="3343.9453"/><line style="stroke:#A80036;stroke-width:2.5;" x1="628.75" x2="731.25" y1="3343.9453" y2="3343.9453"/><polygon fill="#A80036" points="653.75,3333.9453,628.75,3343.9453,653.75,3353.9453,643.75,3343.9453" style="stroke:#A80036;stroke-width:2.5;"/><text fill="#000000" font-family="sans-serif" font-size="32.5" lengthAdjust="spacing" textLength="407.5" x="643.75" y="3299.3042">unregisterSession (Session)</text><line style="stroke:#A80036;stroke-width:2.5;" x1="626.25" x2="731.25" y1="3419.8242" y2="3419.8242"/><line style="stroke:#A80036;stroke-width:2.5;" x1="731.25" x2="731.25" y1="3419.8242" y2="3452.3242"/><line style="stroke:#A80036;stroke-width:2.5;" x1="628.75" x2="731.25" y1="3452.3242" y2="3452.3242"/><polygon fill="#A80036" points="653.75,3442.3242,628.75,3452.3242,653.75,3462.3242,643.75,3452.3242" style="stroke:#A80036;stroke-width:2.5;"/><text fill="#000000" font-family="sans-serif" font-size="32.5" lengthAdjust="spacing" textLength="385" x="643.75" y="3407.6831">[...]Client.getAsyncNode ()</text><polygon fill="#A80036" points="218.75,3518.2031,193.75,3528.2031,218.75,3538.2031,208.75,3528.2031" style="stroke:#A80036;stroke-width:2.5;"/><line style="stroke:#A80036;stroke-width:2.5;" x1="203.75" x2="611.25" y1="3528.2031" y2="3528.2031"/><text fill="#000000" font-family="sans-serif" font-size="32.5" lengthAdjust="spacing" textLength="137.5" x="233.75" y="3516.062">onClose (</text><text fill="#008000" font-family="sans-serif" font-size="32.5" lengthAdjust="spacing" textLength="137.5" x="371.25" y="3516.062">sessionId</text><text fill="#000000" font-family="sans-serif" font-size="32.5" lengthAdjust="spacing" textLength="10" x="508.75" y="3516.062">)</text><!--MD5=[245dd0671cce1ad6d68b7262dcc1e46b]
@startuml

' == THEME ==

skinparam Shadowing false
skinparam RoundCorner 10

' == CONTENT ==

participant "nodeClient:\n**AsyncNodeClient**" as nodeClient #LightBlue
actor "userEndpointClient:\n**<back:LightBlue>AsyncEndpointClientSpi**" as userEndpointClient

actor "userEndpointServer:\n**<back:LightBlue>AsyncEndpointServerSpi**" as userEndpointServer
participant "nodeServer:\n**AsyncNodeServer**" as nodeServer #LightBlue

activate nodeClient #LightBlue
nodeClient -> userEndpointClient : openSession (<color:green>sessionId</color>)
activate userEndpointClient #Pink
userEndpointClient ->> userEndpointServer : send asynchronous handshake
return
deactivate nodeClient

activate userEndpointServer #Pink
userEndpointServer - -> userEndpointClient : Session
deactivate userEndpointServer
activate userEndpointClient #Pink
userEndpointClient -> userEndpointClient : registerSession (<color:green>sessionId</color>, Session)
userEndpointClient -> userEndpointClient : [...]Client.getAsyncNode ()
note over userEndpointClient
    The node accessor method
    is provided by the extension of
    the remote plugin or local service,
    depends on your case:
    * **LocalService**Client
    * **RemotePlugin**Client
end note
userEndpointClient -> nodeClient : onOpen (<color:green>sessionId</color>)
activate nodeClient #LightBlue
nodeClient -> userEndpointClient : sendMessage (<color:red>dtoA</color>)
activate userEndpointClient #LightYellow
userEndpointClient -> userEndpointClient : findSesssion (<color:red>dtoA</color><color:green>.getSessionId()</color>)
userEndpointClient ->> userEndpointServer : send asynchronous message (<color:red>dtoA</color>)
return
return
deactivate userEndpointClient

activate userEndpointServer #Pink
userEndpointServer -> userEndpointServer : registerSession (<color:red>dtoA</color><color:green>.getSessionId()</color>)
note over userEndpointServer
    It is necessary to identify the client
    via the "<color:green>sessionId</color>" field in the DTO
    in order to be able to reply a new message
    at a later date.
end note
userEndpointServer -> userEndpointServer : [...]Server.getAsyncNode ()
note over userEndpointServer
    The node accessor method
    is provided by the extension of
    the remote plugin or local service,
    depends on your case:
    * **RemotePlugin**Server
    * **LocalService**Server
end note
userEndpointServer -> nodeServer : onMessage (<color:red>dtoA</color>)
activate nodeServer #LightBlue
nodeServer -> userEndpointServer : sendMessage (<color:blue>dtoB</color>)
activate userEndpointServer #LightYellow
userEndpointServer -> userEndpointServer : findSession (<color:blue>dtoB</color><color:green>.getSessionId()</color>)
userEndpointServer ->> userEndpointClient : send asynchronous message (<color:blue>dtoB</color>)
return
return
deactivate userEndpointServer

activate userEndpointClient #Pink
userEndpointClient -> userEndpointClient : [...]Client.getAsyncNode ()
userEndpointClient -> nodeClient : onMessage (<color:blue>dtoB</color>)
activate nodeClient #LightBlue
return
deactivate userEndpointClient

nodeClient -> nodeClient
activate nodeClient #LightBlue

nodeClient -> userEndpointClient : closeSession (<color:green>sessionId</color>)
activate userEndpointClient #Pink
userEndpointClient ->> userEndpointServer : send asynchronous closeSession
return
deactivate nodeClient

activate userEndpointServer #Pink
userEndpointServer -> nodeServer : onClose (<color:green>sessionId</color>)
activate nodeServer #LightBlue
return
userEndpointServer - -> userEndpointClient : ok
deactivate userEndpointServer
activate userEndpointClient #Pink
userEndpointClient -> userEndpointClient : unregisterSession (Session)
userEndpointClient -> userEndpointClient : [...]Client.getAsyncNode ()
userEndpointClient -> nodeClient : onClose (<color:green>sessionId</color>)
deactivate userEndpointClient
activate nodeClient #LightBlue

@enduml

@startuml


skinparam Shadowing false
skinparam RoundCorner 10


participant "nodeClient:\n**AsyncNodeClient**" as nodeClient #LightBlue
actor "userEndpointClient:\n**<back:LightBlue>AsyncEndpointClientSpi**" as userEndpointClient

actor "userEndpointServer:\n**<back:LightBlue>AsyncEndpointServerSpi**" as userEndpointServer
participant "nodeServer:\n**AsyncNodeServer**" as nodeServer #LightBlue

activate nodeClient #LightBlue
nodeClient -> userEndpointClient : openSession (<color:green>sessionId</color>)
activate userEndpointClient #Pink
userEndpointClient ->> userEndpointServer : send asynchronous handshake
return
deactivate nodeClient

activate userEndpointServer #Pink
userEndpointServer - -> userEndpointClient : Session
deactivate userEndpointServer
activate userEndpointClient #Pink
userEndpointClient -> userEndpointClient : registerSession (<color:green>sessionId</color>, Session)
userEndpointClient -> userEndpointClient : [...]Client.getAsyncNode ()
note over userEndpointClient
    The node accessor method
    is provided by the extension of
    the remote plugin or local service,
    depends on your case:
    * **LocalService**Client
    * **RemotePlugin**Client
end note
userEndpointClient -> nodeClient : onOpen (<color:green>sessionId</color>)
activate nodeClient #LightBlue
nodeClient -> userEndpointClient : sendMessage (<color:red>dtoA</color>)
activate userEndpointClient #LightYellow
userEndpointClient -> userEndpointClient : findSesssion (<color:red>dtoA</color><color:green>.getSessionId()</color>)
userEndpointClient ->> userEndpointServer : send asynchronous message (<color:red>dtoA</color>)
return
return
deactivate userEndpointClient

activate userEndpointServer #Pink
userEndpointServer -> userEndpointServer : registerSession (<color:red>dtoA</color><color:green>.getSessionId()</color>)
note over userEndpointServer
    It is necessary to identify the client
    via the "<color:green>sessionId</color>" field in the DTO
    in order to be able to reply a new message
    at a later date.
end note
userEndpointServer -> userEndpointServer : [...]Server.getAsyncNode ()
note over userEndpointServer
    The node accessor method
    is provided by the extension of
    the remote plugin or local service,
    depends on your case:
    * **RemotePlugin**Server
    * **LocalService**Server
end note
userEndpointServer -> nodeServer : onMessage (<color:red>dtoA</color>)
activate nodeServer #LightBlue
nodeServer -> userEndpointServer : sendMessage (<color:blue>dtoB</color>)
activate userEndpointServer #LightYellow
userEndpointServer -> userEndpointServer : findSession (<color:blue>dtoB</color><color:green>.getSessionId()</color>)
userEndpointServer ->> userEndpointClient : send asynchronous message (<color:blue>dtoB</color>)
return
return
deactivate userEndpointServer

activate userEndpointClient #Pink
userEndpointClient -> userEndpointClient : [...]Client.getAsyncNode ()
userEndpointClient -> nodeClient : onMessage (<color:blue>dtoB</color>)
activate nodeClient #LightBlue
return
deactivate userEndpointClient

nodeClient -> nodeClient
activate nodeClient #LightBlue

nodeClient -> userEndpointClient : closeSession (<color:green>sessionId</color>)
activate userEndpointClient #Pink
userEndpointClient ->> userEndpointServer : send asynchronous closeSession
return
deactivate nodeClient

activate userEndpointServer #Pink
userEndpointServer -> nodeServer : onClose (<color:green>sessionId</color>)
activate nodeServer #LightBlue
return
userEndpointServer - -> userEndpointClient : ok
deactivate userEndpointServer
activate userEndpointClient #Pink
userEndpointClient -> userEndpointClient : unregisterSession (Session)
userEndpointClient -> userEndpointClient : [...]Client.getAsyncNode ()
userEndpointClient -> nodeClient : onClose (<color:green>sessionId</color>)
deactivate userEndpointClient
activate nodeClient #LightBlue

@enduml

PlantUML version 1.2021.7(Sun May 23 14:40:07 CEST 2021)
(GPL source distribution)
Java Runtime: OpenJDK Runtime Environment
JVM: OpenJDK 64-Bit Server VM
Default Encoding: Cp1252
Language: fr
Country: FR
--></g></svg>