<?xml version="1.0" encoding="UTF-8" standalone="no"?><svg xmlns="http://www.w3.org/2000/svg" xmlns:xlink="http://www.w3.org/1999/xlink" contentScriptType="application/ecmascript" contentStyleType="text/css" height="630px" preserveAspectRatio="none" style="width:441px;height:630px;" version="1.1" viewBox="0 0 441 630" width="441px" zoomAndPan="magnify"><defs/><g><ellipse cx="113" cy="50.0957" fill="#000000" rx="10" ry="10" style="stroke: none; stroke-width: 1.0;"/><rect fill="#FEFECE" height="35.0938" rx="12.5" ry="12.5" style="stroke: #D4AC0D; stroke-width: 1.5;" width="107" x="59.5" y="80.0957"/><text fill="#000000" font-family="sans-serif" font-size="12" lengthAdjust="spacingAndGlyphs" textLength="87" x="69.5" y="102.5527">define selection</text><rect fill="#FEFECE" height="35.0938" rx="12.5" ry="12.5" style="stroke: #D4AC0D; stroke-width: 1.5;" width="186" x="20" y="135.1895"/><text fill="#000000" font-family="sans-serif" font-size="12" lengthAdjust="spacingAndGlyphs" textLength="166" x="30" y="157.6465">set default selection on reader</text><rect fill="#FEFECE" height="35.0938" rx="12.5" ry="12.5" style="stroke: #D4AC0D; stroke-width: 1.5;" width="144" x="41" y="190.2832"/><text fill="#000000" font-family="sans-serif" font-size="12" lengthAdjust="spacingAndGlyphs" textLength="124" x="51" y="212.7402">set observer on reader</text><rect fill="#FEFECE" height="35.0938" rx="12.5" ry="12.5" style="stroke: #D4AC0D; stroke-width: 1.5;" width="85" x="70.5" y="413.8193"/><text fill="#000000" font-family="sans-serif" font-size="12" lengthAdjust="spacingAndGlyphs" textLength="65" x="80.5" y="436.2764">identify card</text><rect fill="#FEFECE" height="35.0938" rx="12.5" ry="12.5" style="stroke: #D4AC0D; stroke-width: 1.5;" width="155" x="35.5" y="483.9131"/><text fill="#000000" font-family="sans-serif" font-size="12" lengthAdjust="spacingAndGlyphs" textLength="135" x="45.5" y="506.3701">process card application</text><rect fill="#FEFECE" height="35.0938" rx="12.5" ry="12.5" style="stroke: #D4AC0D; stroke-width: 1.5;" width="89" x="68.5" y="539.0068"/><text fill="#000000" font-family="sans-serif" font-size="12" lengthAdjust="spacingAndGlyphs" textLength="69" x="78.5" y="561.4639">release card</text><line style="stroke: #000000; stroke-width: 2.0;" x1="15" x2="15" y1="12.4551" y2="618.1006"/><rect fill="#FEFECE" height="35.0938" rx="12.5" ry="12.5" style="stroke: #D4AC0D; stroke-width: 1.5;" width="80" x="249" y="340.5156"/><text fill="#000000" font-family="sans-serif" font-size="12" lengthAdjust="spacingAndGlyphs" textLength="60" x="259" y="362.9727">select card</text><rect fill="#FEFECE" height="35.0938" rx="12.5" ry="12.5" style="stroke: #D4AC0D; stroke-width: 1.5;" width="137" x="220.5" y="263.5869"/><text fill="#000000" font-family="sans-serif" font-size="12" lengthAdjust="spacingAndGlyphs" textLength="117" x="230.5" y="286.0439">wait for card insertion</text><polygon fill="#FEFECE" points="237,594.1006,341,594.1006,353,606.1006,341,618.1006,237,618.1006,225,606.1006,237,594.1006" style="stroke: #A80036; stroke-width: 1.5;"/><text fill="#000000" font-family="sans-serif" font-size="11" lengthAdjust="spacingAndGlyphs" textLength="104" x="237" y="610.6016">wait for card removal</text><line style="stroke: #000000; stroke-width: 2.0;" x1="210" x2="210" y1="12.4551" y2="618.1006"/><line style="stroke: #000000; stroke-width: 2.0;" x1="422" x2="422" y1="12.4551" y2="618.1006"/><line style="stroke: #A80036; stroke-width: 1.5;" x1="113" x2="113" y1="60.0957" y2="80.0957"/><polygon fill="#A80036" points="109,70.0957,113,80.0957,117,70.0957,113,74.0957" style="stroke: #A80036; stroke-width: 1.0;"/><line style="stroke: #A80036; stroke-width: 1.5;" x1="113" x2="113" y1="115.1895" y2="135.1895"/><polygon fill="#A80036" points="109,125.1895,113,135.1895,117,125.1895,113,129.1895" style="stroke: #A80036; stroke-width: 1.0;"/><line style="stroke: #A80036; stroke-width: 1.5;" x1="113" x2="113" y1="170.2832" y2="190.2832"/><polygon fill="#A80036" points="109,180.2832,113,190.2832,117,180.2832,113,184.2832" style="stroke: #A80036; stroke-width: 1.0;"/><line style="stroke: #A80036; stroke-width: 1.5;" x1="113" x2="113" y1="448.9131" y2="483.9131"/><polygon fill="#A80036" points="109,473.9131,113,483.9131,117,473.9131,113,477.9131" style="stroke: #A80036; stroke-width: 1.0;"/><line style="stroke: #A80036; stroke-width: 1.5;" x1="113" x2="113" y1="519.0068" y2="539.0068"/><polygon fill="#A80036" points="109,529.0068,113,539.0068,117,529.0068,113,533.0068" style="stroke: #A80036; stroke-width: 1.0;"/><line style="stroke: #0000FF; stroke-width: 1.5; stroke-dasharray: 7.0,7.0;" x1="289" x2="289" y1="298.6807" y2="340.5156"/><polygon fill="#0000FF" points="285,330.5156,289,340.5156,293,330.5156,289,334.5156" style="stroke: #0000FF; stroke-width: 1.0;"/><text fill="#000000" font-family="sans-serif" font-size="11" lengthAdjust="spacingAndGlyphs" textLength="64" x="293" y="321.0166">card inserted</text><line style="stroke: #A80036; stroke-width: 1.5;" x1="353" x2="403" y1="606.1006" y2="606.1006"/><polygon fill="#A80036" points="399,466.7217,403,456.7217,407,466.7217,403,462.7217" style="stroke: #A80036; stroke-width: 1.5;"/><line style="stroke: #A80036; stroke-width: 1.5;" x1="403" x2="403" y1="281.1338" y2="606.1006"/><line style="stroke: #A80036; stroke-width: 1.5;" x1="403" x2="357.5" y1="281.1338" y2="281.1338"/><polygon fill="#A80036" points="367.5,277.1338,357.5,281.1338,367.5,285.1338,363.5,281.1338" style="stroke: #A80036; stroke-width: 1.0;"/><line style="stroke: #000000; stroke-width: 1.5; stroke-dasharray: 7.0,7.0;" x1="289" x2="289" y1="375.6094" y2="398.8193"/><line style="stroke: #000000; stroke-width: 1.5; stroke-dasharray: 7.0,7.0;" x1="289" x2="113" y1="398.8193" y2="398.8193"/><line style="stroke: #000000; stroke-width: 1.5; stroke-dasharray: 7.0,7.0;" x1="113" x2="113" y1="398.8193" y2="413.8193"/><polygon fill="#000000" points="109,403.8193,113,413.8193,117,403.8193,113,407.8193" style="stroke: #000000; stroke-width: 1.0;"/><text fill="#000000" font-family="sans-serif" font-size="11" lengthAdjust="spacingAndGlyphs" textLength="98" x="293" y="392.3193">notify card selection</text><line style="stroke: #000000; stroke-width: 1.5; stroke-dasharray: 7.0,7.0;" x1="113" x2="113" y1="574.1006" y2="579.1006"/><line style="stroke: #000000; stroke-width: 1.5; stroke-dasharray: 7.0,7.0;" x1="113" x2="289" y1="579.1006" y2="579.1006"/><line style="stroke: #000000; stroke-width: 1.5; stroke-dasharray: 7.0,7.0;" x1="289" x2="289" y1="579.1006" y2="594.1006"/><polygon fill="#000000" points="285,584.1006,289,594.1006,293,584.1006,289,588.1006" style="stroke: #000000; stroke-width: 1.0;"/><line style="stroke: #000000; stroke-width: 1.5; stroke-dasharray: 7.0,7.0;" x1="113" x2="113" y1="225.377" y2="248.5869"/><line style="stroke: #000000; stroke-width: 1.5; stroke-dasharray: 7.0,7.0;" x1="113" x2="289" y1="248.5869" y2="248.5869"/><line style="stroke: #000000; stroke-width: 1.5; stroke-dasharray: 7.0,7.0;" x1="289" x2="289" y1="248.5869" y2="263.5869"/><polygon fill="#000000" points="285,253.5869,289,263.5869,293,253.5869,289,257.5869" style="stroke: #000000; stroke-width: 1.0;"/><text fill="#000000" font-family="sans-serif" font-size="11" lengthAdjust="spacingAndGlyphs" textLength="82" x="117" y="242.0869">start observation</text><text fill="#000000" font-family="sans-serif" font-size="18" lengthAdjust="spacingAndGlyphs" textLength="74" x="75.5" y="31.1406">Observer</text><text fill="#000000" font-family="sans-serif" font-size="18" lengthAdjust="spacingAndGlyphs" textLength="168" x="232" y="31.1406">"Observable Reader"</text><!--MD5=[9fd9f6625bec074ec309b2efdbdb7ef5]
@startuml
skinparam ClassBorderColor #D4AC0D
skinparam stereotypeABorderColor #A9DCDF
skinparam stereotypeIBorderColor #B4A7E5
skinparam stereotypeCBorderColor #ADD1B2
skinparam stereotypeEBorderColor #EB93DF
skinparam shadowing false

skinparam StateBorderColor #D4AC0D
skinparam ActivityBorderColor #D4AC0D

skinparam ClassBackgroundColor<<red>> #FDEDEC
skinparam ClassBorderColor<<red>> #E74C3C
hide <<red>> stereotype
skinparam ClassBackgroundColor<<purple>> #F4ECF7
skinparam ClassBorderColor<<purple>> #8E44AD
hide <<purple>> stereotype
skinparam ClassBackgroundColor<<blue>> #EBF5FB
skinparam ClassBorderColor<<blue>> #3498DB
hide <<blue>> stereotype
skinparam ClassBackgroundColor<<green>> #EAFAF1
skinparam ClassBorderColor<<green>> #2ECC71
hide <<green>> stereotype

skinparam ClassBackgroundColor<<orange>> #FDF2E9
skinparam ClassBorderColor<<orange>> #E67E22
hide <<orange>> stereotype

skinparam ClassBackgroundColor<<grey>> #EAECEE
skinparam ClassBorderColor<<grey>> #2C3E50
hide <<grey>> stereotype

|Observer|
start
:define selection;
:set default selection on reader;
:set observer on reader;
-[#black,dashed]-> start observation;
|"Observable Reader"|
repeat :wait for card insertion;
-[#blue,dashed]-> card inserted;
:select card;
-[#black,dashed]-> notify card selection;
|Observer|
  :identify card;
  :process card application;
  :release card;
  -[#black,dashed]-> card processing terminated;
|"Observable Reader"|
repeat while (wait for card removal)
@enduml

PlantUML version 1.2020.09(Sun May 10 14:51:06 MUT 2020)
(GPL source distribution)
Java Runtime: OpenJDK Runtime Environment
JVM: OpenJDK 64-Bit Server VM
Java Version: 11.0.7+10-b765.64
Operating System: Windows 10
Default Encoding: Cp1252
Language: fr
Country: FR
--></g></svg>