<?xml version="1.0" encoding="UTF-8" standalone="no"?><svg xmlns="http://www.w3.org/2000/svg" xmlns:xlink="http://www.w3.org/1999/xlink" contentScriptType="application/ecmascript" contentStyleType="text/css" height="1038px" preserveAspectRatio="none" style="width:902px;height:1038px;" version="1.1" viewBox="0 0 902 1038" width="902px" zoomAndPan="magnify"><defs/><g><!--MD5=[f70fa97960bc6b4e8dc736e90c677b35]
cluster specific.terminal_application--><polygon fill="#85C1E9" points="356,24.5,563,24.5,570,48.1094,573,48.1094,573,144.5,356,144.5,356,24.5" style="stroke: #000000; stroke-width: 1.5;"/><line style="stroke: #000000; stroke-width: 1.5;" x1="356" x2="570" y1="48.1094" y2="48.1094"/><text fill="#000000" font-family="sans-serif" font-size="14" font-weight="bold" lengthAdjust="spacingAndGlyphs" textLength="201" x="360" y="41.0332">specific.terminal_application</text><!--MD5=[6ca25df3990780266188050f5b5d0b1a]
cluster org.eclipse.keyple.core.service--><polygon fill="#FFFFFF" points="28,194.5,256,194.5,263,218.1094,836,218.1094,836,759,28,759,28,194.5" style="stroke: #000000; stroke-width: 1.5;"/><line style="stroke: #000000; stroke-width: 1.5;" x1="28" x2="263" y1="218.1094" y2="218.1094"/><text fill="#000000" font-family="sans-serif" font-size="14" font-weight="bold" lengthAdjust="spacingAndGlyphs" textLength="222" x="32" y="211.0332">org.eclipse.keyple.core.service</text><!--MD5=[3e81cc6ee7da4fa8b6adc12b329096f6]
cluster util--><polygon fill="#FFFFFF" points="52,238.5,80,238.5,87,262.1094,314,262.1094,314,487.5,52,487.5,52,238.5" style="stroke: #000000; stroke-width: 1.5;"/><line style="stroke: #000000; stroke-width: 1.5;" x1="52" x2="87" y1="262.1094" y2="262.1094"/><text fill="#000000" font-family="sans-serif" font-size="14" font-weight="bold" lengthAdjust="spacingAndGlyphs" textLength="22" x="56" y="255.0332">util</text><!--MD5=[150fc06e5233369d850ce0440eb89b50]
cluster specific.plugin--><polygon fill="#D7BDE2" points="22,842,131,842,138,865.6094,880,865.6094,880,1026,22,1026,22,842" style="stroke: #000000; stroke-width: 1.5;"/><line style="stroke: #000000; stroke-width: 1.5;" x1="22" x2="138" y1="865.6094" y2="865.6094"/><text fill="#000000" font-family="sans-serif" font-size="14" font-weight="bold" lengthAdjust="spacingAndGlyphs" textLength="103" x="26" y="858.5332">specific.plugin</text><!--MD5=[36749fbd9f1718a5265922a19e14c350]
class SpecificTerminal--><rect fill="#FEFECE" height="48" id="SpecificTerminal" style="stroke: #D4AC0D; stroke-width: 1.5;" width="124" x="402" y="80.5"/><ellipse cx="417" cy="96.5" fill="#ADD1B2" rx="11" ry="11" style="stroke: #ADD1B2; stroke-width: 1.0;"/><path d="M419,93 Q419.2031,92.5 419.4375,92.25 Q419.6719,92 419.9375,92 Q420.4063,92 420.7031,92.2813 Q421,92.5625 421,93.2188 L421,94.7813 Q421,95.4375 420.7188,95.7188 Q420.4375,96 420,96 Q419.6094,96 419.3594,95.8281 Q419.1094,95.6563 419,95.2031 Q418.9531,94.8906 418.7813,94.7188 Q418.4688,94.3906 417.9063,94.2031 Q417.3438,94 416.7813,94 Q416.0781,94 415.4844,94.2813 Q414.9063,94.5625 414.4531,95.1875 Q414,95.8125 414,96.6719 L414,97.5938 Q414,98.625 414.8438,99.3125 Q415.6875,100 417.1875,100 Q418.0781,100 418.7031,99.7969 Q419.0625,99.6875 419.4688,99.3281 Q419.7344,99.125 419.875,99.0625 Q420.0156,99 420.1875,99 Q420.5156,99 420.75,99.2656 Q421,99.5156 421,99.875 Q421,100.2188 420.6563,100.625 Q420.1563,101.2188 419.3594,101.5469 Q418.3125,102 417.0313,102 Q415.5313,102 414.3281,101.4063 Q413.3594,100.9375 412.6719,99.9219 Q412,98.9063 412,97.7031 L412,96.6094 Q412,95.3594 412.5938,94.2656 Q413.2031,93.1719 414.25,92.5938 Q415.3125,92 416.5,92 Q417.2188,92 417.8438,92.25 Q418.4688,92.5 419,93 Z "/><text fill="#000000" font-family="sans-serif" font-size="12" lengthAdjust="spacingAndGlyphs" textLength="92" x="431" y="101.4102">SpecificTerminal</text><line style="stroke: #D4AC0D; stroke-width: 1.5;" x1="403" x2="525" y1="112.5" y2="112.5"/><line style="stroke: #D4AC0D; stroke-width: 1.5;" x1="403" x2="525" y1="120.5" y2="120.5"/><!--MD5=[bc3f57c567736ad71a70f1388d085699]
class SmartCardService--><rect fill="#FEFECE" height="208.3828" id="SmartCardService" style="stroke: #D4AC0D; stroke-width: 1.5;" width="263" x="332.5" y="279"/><ellipse cx="390.75" cy="299.0938" fill="#ADD1B2" rx="11" ry="11" style="stroke: #ADD1B2; stroke-width: 1.0;"/><path d="M392.75,295.5938 Q392.9531,295.0938 393.1875,294.8438 Q393.4219,294.5938 393.6875,294.5938 Q394.1563,294.5938 394.4531,294.875 Q394.75,295.1563 394.75,295.8125 L394.75,297.375 Q394.75,298.0313 394.4688,298.3125 Q394.1875,298.5938 393.75,298.5938 Q393.3594,298.5938 393.1094,298.4219 Q392.8594,298.25 392.75,297.7969 Q392.7031,297.4844 392.5313,297.3125 Q392.2188,296.9844 391.6563,296.7969 Q391.0938,296.5938 390.5313,296.5938 Q389.8281,296.5938 389.2344,296.875 Q388.6563,297.1563 388.2031,297.7813 Q387.75,298.4063 387.75,299.2656 L387.75,300.1875 Q387.75,301.2188 388.5938,301.9063 Q389.4375,302.5938 390.9375,302.5938 Q391.8281,302.5938 392.4531,302.3906 Q392.8125,302.2813 393.2188,301.9219 Q393.4844,301.7188 393.625,301.6563 Q393.7656,301.5938 393.9375,301.5938 Q394.2656,301.5938 394.5,301.8594 Q394.75,302.1094 394.75,302.4688 Q394.75,302.8125 394.4063,303.2188 Q393.9063,303.8125 393.1094,304.1406 Q392.0625,304.5938 390.7813,304.5938 Q389.2813,304.5938 388.0781,304 Q387.1094,303.5313 386.4219,302.5156 Q385.75,301.5 385.75,300.2969 L385.75,299.2031 Q385.75,297.9531 386.3438,296.8594 Q386.9531,295.7656 388,295.1875 Q389.0625,294.5938 390.25,294.5938 Q390.9688,294.5938 391.5938,294.8438 Q392.2188,295.0938 392.75,295.5938 Z "/><text fill="#000000" font-family="sans-serif" font-size="12" font-style="italic" lengthAdjust="spacingAndGlyphs" textLength="66" x="447.25" y="296.457">«Singleton»</text><ellipse cx="416.25" cy="306.1406" fill="#84BE84" rx="3" ry="3" style="stroke: #038048; stroke-width: 1.0;"/><text fill="#000000" font-family="sans-serif" font-size="12" font-weight="bold" lengthAdjust="spacingAndGlyphs" textLength="24" x="422.25" y="311.5508">final</text><text fill="#000000" font-family="sans-serif" font-size="12" lengthAdjust="spacingAndGlyphs" textLength="100" x="449.25" y="311.5508">SmartCardService</text><line style="stroke: #D4AC0D; stroke-width: 1.5;" x1="333.5" x2="594.5" y1="319.1875" y2="319.1875"/><rect fill="none" height="6" style="stroke: #C82930; stroke-width: 1.0;" width="6" x="340.5" y="327.1875"/><text fill="#000000" font-family="sans-serif" font-size="11" font-weight="bold" lengthAdjust="spacingAndGlyphs" text-decoration="underline" textLength="23" x="352.5" y="334.6064">final</text><text fill="#000000" font-family="sans-serif" font-size="11" lengthAdjust="spacingAndGlyphs" text-decoration="underline" textLength="164" x="378.5" y="334.6064">SmartCardService uniqueInstance</text><rect fill="none" height="6" style="stroke: #C82930; stroke-width: 1.0;" width="6" x="340.5" y="341.0234"/><text fill="#000000" font-family="sans-serif" font-size="11" font-weight="bold" lengthAdjust="spacingAndGlyphs" textLength="23" x="352.5" y="348.4424">final</text><text fill="#000000" font-family="sans-serif" font-size="11" lengthAdjust="spacingAndGlyphs" textLength="185" x="378.5" y="348.4424">ConcurrentMap&lt;String, Plugin&gt; plugins</text><line style="stroke: #D4AC0D; stroke-width: 1.5;" x1="333.5" x2="594.5" y1="354.8594" y2="354.8594"/><ellipse cx="343.5" cy="365.8594" fill="#84BE84" rx="3" ry="3" style="stroke: #038048; stroke-width: 1.0;"/><text fill="#000000" font-family="sans-serif" font-size="11" lengthAdjust="spacingAndGlyphs" text-decoration="underline" textLength="155" x="352.5" y="370.2783">SmartCardService getInstance()</text><ellipse cx="343.5" cy="379.6953" fill="#84BE84" rx="3" ry="3" style="stroke: #038048; stroke-width: 1.0;"/><text fill="#000000" font-family="sans-serif" font-size="11" lengthAdjust="spacingAndGlyphs" textLength="92" x="352.5" y="384.1143">String getVersion()</text><text fill="#000000" font-family="sans-serif" font-size="11" lengthAdjust="spacingAndGlyphs" textLength="0" x="355.5" y="397.9502"/><ellipse cx="343.5" cy="407.3672" fill="#84BE84" rx="3" ry="3" style="stroke: #038048; stroke-width: 1.0;"/><text fill="#000000" font-family="sans-serif" font-size="11" lengthAdjust="spacingAndGlyphs" textLength="237" x="352.5" y="411.7861">Plugin registerPlugin(PluginFactory pluginFactory)</text><ellipse cx="343.5" cy="421.2031" fill="#84BE84" rx="3" ry="3" style="stroke: #038048; stroke-width: 1.0;"/><text fill="#000000" font-family="sans-serif" font-size="11" lengthAdjust="spacingAndGlyphs" textLength="195" x="352.5" y="425.6221">boolean isRegistered(String pluginName)</text><ellipse cx="343.5" cy="435.0391" fill="#84BE84" rx="3" ry="3" style="stroke: #038048; stroke-width: 1.0;"/><text fill="#000000" font-family="sans-serif" font-size="11" lengthAdjust="spacingAndGlyphs" textLength="212" x="352.5" y="439.458">boolean unregisterPlugin(String pluginName)</text><text fill="#000000" font-family="sans-serif" font-size="11" lengthAdjust="spacingAndGlyphs" textLength="0" x="355.5" y="453.2939"/><ellipse cx="343.5" cy="462.7109" fill="#84BE84" rx="3" ry="3" style="stroke: #038048; stroke-width: 1.0;"/><text fill="#000000" font-family="sans-serif" font-size="11" lengthAdjust="spacingAndGlyphs" textLength="139" x="352.5" y="467.1299">Plugin getPlugin(String name)</text><ellipse cx="343.5" cy="476.5469" fill="#84BE84" rx="3" ry="3" style="stroke: #038048; stroke-width: 1.0;"/><text fill="#000000" font-family="sans-serif" font-size="11" lengthAdjust="spacingAndGlyphs" textLength="154" x="352.5" y="480.9658">Map&lt;String, Plugin&gt; getPlugins()</text><!--MD5=[b628511dd50102041730ee0512f882c8]
class Plugin--><rect fill="#FEFECE" height="117.1797" id="Plugin" style="stroke: #D4AC0D; stroke-width: 1.5;" width="194" x="484" y="612"/><ellipse cx="553.75" cy="628" fill="#B4A7E5" rx="11" ry="11" style="stroke: #B4A7E5; stroke-width: 1.0;"/><path d="M554.75,625 L554.75,631 L556.75,631 L557.2344,631 L557.75,631.625 L557.75,632 L557.75,632.375 L557.2344,633 L556.75,633 L550.75,633 L550.2656,633 L549.75,632.375 L549.75,632 L549.75,631.625 L550.2656,631 L550.75,631 L552.75,631 L552.75,625 L550.75,625 L550.2656,625 L549.75,624.375 L549.75,624 L549.75,623.625 L550.2656,623 L550.75,623 L556.75,623 L557.2344,623 L557.75,623.625 L557.75,624 L557.75,624.375 L557.2344,625 L556.75,625 L554.75,625 Z "/><ellipse cx="579.25" cy="627.5" fill="#84BE84" rx="3" ry="3" style="stroke: #038048; stroke-width: 1.0;"/><text fill="#000000" font-family="sans-serif" font-size="12" font-style="italic" lengthAdjust="spacingAndGlyphs" textLength="35" x="585.25" y="632.9102">Plugin</text><line style="stroke: #D4AC0D; stroke-width: 1.5;" x1="485" x2="677" y1="644" y2="644"/><line style="stroke: #D4AC0D; stroke-width: 1.5;" x1="485" x2="677" y1="652" y2="652"/><ellipse cx="495" cy="663" fill="#84BE84" rx="3" ry="3" style="stroke: #038048; stroke-width: 1.0;"/><text fill="#000000" font-family="sans-serif" font-size="11" lengthAdjust="spacingAndGlyphs" textLength="81" x="504" y="667.4189">String getName()</text><text fill="#000000" font-family="sans-serif" font-size="11" lengthAdjust="spacingAndGlyphs" textLength="0" x="507" y="681.2549"/><ellipse cx="495" cy="690.6719" fill="#84BE84" rx="3" ry="3" style="stroke: #038048; stroke-width: 1.0;"/><text fill="#000000" font-family="sans-serif" font-size="11" lengthAdjust="spacingAndGlyphs" textLength="168" x="504" y="695.0908">Map&lt;String, Reader&gt; getReaders()</text><ellipse cx="495" cy="704.5078" fill="#84BE84" rx="3" ry="3" style="stroke: #038048; stroke-width: 1.0;"/><text fill="#000000" font-family="sans-serif" font-size="11" lengthAdjust="spacingAndGlyphs" textLength="150" x="504" y="708.9268">Set&lt;String&gt; getReaderNames()</text><ellipse cx="495" cy="718.3438" fill="#84BE84" rx="3" ry="3" style="stroke: #038048; stroke-width: 1.0;"/><text fill="#000000" font-family="sans-serif" font-size="11" lengthAdjust="spacingAndGlyphs" textLength="153" x="504" y="722.7627">Reader getReader(String name)</text><!--MD5=[e86a4777f2c0372cf9fb3cd047e1466e]
class Reader--><rect fill="#FEFECE" height="144.8516" id="Reader" style="stroke: #D4AC0D; stroke-width: 1.5;" width="360" x="44" y="598"/><ellipse cx="193.75" cy="614" fill="#B4A7E5" rx="11" ry="11" style="stroke: #B4A7E5; stroke-width: 1.0;"/><path d="M194.75,611 L194.75,617 L196.75,617 L197.2344,617 L197.75,617.625 L197.75,618 L197.75,618.375 L197.2344,619 L196.75,619 L190.75,619 L190.2656,619 L189.75,618.375 L189.75,618 L189.75,617.625 L190.2656,617 L190.75,617 L192.75,617 L192.75,611 L190.75,611 L190.2656,611 L189.75,610.375 L189.75,610 L189.75,609.625 L190.2656,609 L190.75,609 L196.75,609 L197.2344,609 L197.75,609.625 L197.75,610 L197.75,610.375 L197.2344,611 L196.75,611 L194.75,611 Z "/><ellipse cx="219.25" cy="613.5" fill="#84BE84" rx="3" ry="3" style="stroke: #038048; stroke-width: 1.0;"/><text fill="#000000" font-family="sans-serif" font-size="12" font-style="italic" lengthAdjust="spacingAndGlyphs" textLength="41" x="225.25" y="618.9102">Reader</text><line style="stroke: #D4AC0D; stroke-width: 1.5;" x1="45" x2="403" y1="630" y2="630"/><line style="stroke: #D4AC0D; stroke-width: 1.5;" x1="45" x2="403" y1="638" y2="638"/><ellipse cx="55" cy="649" fill="#84BE84" rx="3" ry="3" style="stroke: #038048; stroke-width: 1.0;"/><text fill="#000000" font-family="sans-serif" font-size="11" lengthAdjust="spacingAndGlyphs" textLength="81" x="64" y="653.4189">String getName()</text><text fill="#000000" font-family="sans-serif" font-size="11" lengthAdjust="spacingAndGlyphs" textLength="0" x="67" y="667.2549"/><ellipse cx="55" cy="676.6719" fill="#84BE84" rx="3" ry="3" style="stroke: #038048; stroke-width: 1.0;"/><text fill="#000000" font-family="sans-serif" font-size="11" lengthAdjust="spacingAndGlyphs" textLength="117" x="64" y="681.0908">boolean isCardPresent()</text><ellipse cx="55" cy="690.5078" fill="#84BE84" rx="3" ry="3" style="stroke: #038048; stroke-width: 1.0;"/><text fill="#000000" font-family="sans-serif" font-size="11" lengthAdjust="spacingAndGlyphs" textLength="178" x="64" y="694.9268">boolean isContactlessTransmission()</text><text fill="#000000" font-family="sans-serif" font-size="11" lengthAdjust="spacingAndGlyphs" textLength="0" x="67" y="708.7627"/><ellipse cx="55" cy="718.1797" fill="#84BE84" rx="3" ry="3" style="stroke: #038048; stroke-width: 1.0;"/><text fill="#000000" font-family="sans-serif" font-size="11" lengthAdjust="spacingAndGlyphs" textLength="334" x="64" y="722.5986">activateProtocol(String applicationReference, String pluginReference)</text><ellipse cx="55" cy="732.0156" fill="#84BE84" rx="3" ry="3" style="stroke: #038048; stroke-width: 1.0;"/><text fill="#000000" font-family="sans-serif" font-size="11" lengthAdjust="spacingAndGlyphs" textLength="230" x="64" y="736.4346">deactivateProtocol(String applicationReference)</text><!--MD5=[5c68026ea752d2e8f1e184b2d7c89ced]
class PluginFactory--><rect fill="#FEFECE" height="75.6719" id="PluginFactory" style="stroke: #D4AC0D; stroke-width: 1.5;" width="149" x="670.5" y="345"/><ellipse cx="699.45" cy="361" fill="#B4A7E5" rx="11" ry="11" style="stroke: #B4A7E5; stroke-width: 1.0;"/><path d="M700.45,358 L700.45,364 L702.45,364 L702.9344,364 L703.45,364.625 L703.45,365 L703.45,365.375 L702.9344,366 L702.45,366 L696.45,366 L695.9656,366 L695.45,365.375 L695.45,365 L695.45,364.625 L695.9656,364 L696.45,364 L698.45,364 L698.45,358 L696.45,358 L695.9656,358 L695.45,357.375 L695.45,357 L695.45,356.625 L695.9656,356 L696.45,356 L702.45,356 L702.9344,356 L703.45,356.625 L703.45,357 L703.45,357.375 L702.9344,358 L702.45,358 L700.45,358 Z "/><ellipse cx="721.55" cy="360.5" fill="#84BE84" rx="3" ry="3" style="stroke: #038048; stroke-width: 1.0;"/><text fill="#000000" font-family="sans-serif" font-size="12" font-style="italic" lengthAdjust="spacingAndGlyphs" textLength="75" x="727.55" y="365.9102">PluginFactory</text><line style="stroke: #D4AC0D; stroke-width: 1.5;" x1="671.5" x2="818.5" y1="377" y2="377"/><line style="stroke: #D4AC0D; stroke-width: 1.5;" x1="671.5" x2="818.5" y1="385" y2="385"/><ellipse cx="681.5" cy="396" fill="#84BE84" rx="3" ry="3" style="stroke: #038048; stroke-width: 1.0;"/><text fill="#000000" font-family="sans-serif" font-size="11" lengthAdjust="spacingAndGlyphs" textLength="109" x="690.5" y="400.4189">String getPluginName()</text><ellipse cx="681.5" cy="409.8359" fill="#84BE84" rx="3" ry="3" style="stroke: #038048; stroke-width: 1.0;"/><text fill="#000000" font-family="sans-serif" font-size="11" lengthAdjust="spacingAndGlyphs" textLength="123" x="690.5" y="414.2549">Plugin getPluginInstance()</text><!--MD5=[47ce9033b06c4ed5e96c5ff2e598f366]
class ContactlessCardCommonProtocols--><rect fill="#FEFECE" height="176.5234" id="ContactlessCardCommonProtocols" style="stroke: #D4AC0D; stroke-width: 1.5;" width="229" x="68.5" y="294.5"/><ellipse cx="83.5" cy="310.5" fill="#EB937F" rx="11" ry="11" style="stroke: #EB93DF; stroke-width: 1.0;"/><path d="M82,311.5 L82,313.5 L86,313.5 L86,312.5 L86,312.0156 L86.625,311.5 L87,311.5 L87.375,311.5 L88,312.0156 L88,312.5 L88,315.5 L80,315.5 L79.5156,315.5 L79,314.875 L79,314.5 L79,314.125 L79.5156,313.5 L80,313.5 L80,313.5 L80,307.5 L80,307.5 L79.5156,307.5 L79,306.875 L79,306.5 L79,306.125 L79.5156,305.5 L80,305.5 L88,305.5 L88,308.5 L88,308.9844 L87.375,309.5 L87,309.5 L86.625,309.5 L86,308.9844 L86,308.5 L86,307.5 L82,307.5 L82,309.5 L83,309.5 L83,309.0156 L83,309.0156 L83.625,308.5 L84,308.5 L84.375,308.5 L85,309.0156 L85,309.5 L85,311.5 L85,311.9844 L84.375,312.5 L84.375,312.5 L84,312.5 L83.625,312.5 L83,311.9844 L83,311.9844 L83,311.5 L82,311.5 Z "/><text fill="#000000" font-family="sans-serif" font-size="12" lengthAdjust="spacingAndGlyphs" textLength="197" x="97.5" y="315.4102">ContactlessCardCommonProtocols</text><line style="stroke: #D4AC0D; stroke-width: 1.5;" x1="69.5" x2="296.5" y1="326.5" y2="326.5"/><text fill="#000000" font-family="sans-serif" font-size="11" lengthAdjust="spacingAndGlyphs" textLength="65" x="74.5" y="359.7549">ISO_14443_4</text><line style="stroke: #D4AC0D; stroke-width: 1.0; stroke-dasharray: 1.0,2.0;" x1="69.5" x2="161.5" y1="341.418" y2="341.418"/><text fill="#000000" font-family="sans-serif" font-size="11" lengthAdjust="spacingAndGlyphs" textLength="43" x="161.5" y="345.4189">standard</text><line style="stroke: #D4AC0D; stroke-width: 1.0; stroke-dasharray: 1.0,2.0;" x1="204.5" x2="296.5" y1="341.418" y2="341.418"/><text fill="#000000" font-family="sans-serif" font-size="11" lengthAdjust="spacingAndGlyphs" textLength="113" x="74.5" y="391.4268">NFC_A_ISO_14443_3A</text><text fill="#000000" font-family="sans-serif" font-size="11" lengthAdjust="spacingAndGlyphs" textLength="111" x="74.5" y="405.2627">NFC_B_ISO_14443_3B</text><text fill="#000000" font-family="sans-serif" font-size="11" lengthAdjust="spacingAndGlyphs" textLength="94" x="74.5" y="419.0986">NFC_F_JIS_6319_4</text><text fill="#000000" font-family="sans-serif" font-size="11" lengthAdjust="spacingAndGlyphs" textLength="93" x="74.5" y="432.9346">NFC_V_ISO_15693</text><line style="stroke: #D4AC0D; stroke-width: 1.0; stroke-dasharray: 1.0,2.0;" x1="69.5" x2="149" y1="373.0898" y2="373.0898"/><text fill="#000000" font-family="sans-serif" font-size="11" lengthAdjust="spacingAndGlyphs" textLength="68" x="149" y="377.0908">NFC compliant</text><line style="stroke: #D4AC0D; stroke-width: 1.0; stroke-dasharray: 1.0,2.0;" x1="217" x2="296.5" y1="373.0898" y2="373.0898"/><text fill="#000000" font-family="sans-serif" font-size="11" lengthAdjust="spacingAndGlyphs" textLength="147" x="74.5" y="464.6064">CALYPSO_OLD_CARD_PRIME</text><line style="stroke: #D4AC0D; stroke-width: 1.0; stroke-dasharray: 1.0,2.0;" x1="69.5" x2="156.5" y1="446.2695" y2="446.2695"/><text fill="#000000" font-family="sans-serif" font-size="11" lengthAdjust="spacingAndGlyphs" textLength="53" x="156.5" y="450.2705">proprietary</text><line style="stroke: #D4AC0D; stroke-width: 1.0; stroke-dasharray: 1.0,2.0;" x1="209.5" x2="296.5" y1="446.2695" y2="446.2695"/><!--MD5=[11dcb8d43defc8d2a601a7912d180905]
class SpecificSupportedProtocols--><rect fill="#FEFECE" height="75.6719" id="SpecificSupportedProtocols" style="stroke: #D4AC0D; stroke-width: 1.5;" width="195" x="206.5" y="916"/><ellipse cx="221.5" cy="932" fill="#EB937F" rx="11" ry="11" style="stroke: #EB93DF; stroke-width: 1.0;"/><path d="M220,933 L220,935 L224,935 L224,934 L224,933.5156 L224.625,933 L225,933 L225.375,933 L226,933.5156 L226,934 L226,937 L218,937 L217.5156,937 L217,936.375 L217,936 L217,935.625 L217.5156,935 L218,935 L218,935 L218,929 L218,929 L217.5156,929 L217,928.375 L217,928 L217,927.625 L217.5156,927 L218,927 L226,927 L226,930 L226,930.4844 L225.375,931 L225,931 L224.625,931 L224,930.4844 L224,930 L224,929 L220,929 L220,931 L221,931 L221,930.5156 L221,930.5156 L221.625,930 L222,930 L222.375,930 L223,930.5156 L223,931 L223,933 L223,933.4844 L222.375,934 L222.375,934 L222,934 L221.625,934 L221,933.4844 L221,933.4844 L221,933 L220,933 Z "/><ellipse cx="240.5" cy="931.5" fill="#84BE84" rx="3" ry="3" style="stroke: #038048; stroke-width: 1.0;"/><text fill="#000000" font-family="sans-serif" font-size="12" lengthAdjust="spacingAndGlyphs" textLength="152" x="246.5" y="936.9102">SpecificSupportedProtocols</text><line style="stroke: #D4AC0D; stroke-width: 1.5;" x1="207.5" x2="400.5" y1="948" y2="948"/><text fill="#000000" font-family="sans-serif" font-size="11" lengthAdjust="spacingAndGlyphs" textLength="65" x="212.5" y="963.4189">ISO_14443_4</text><text fill="#000000" font-family="sans-serif" font-size="11" lengthAdjust="spacingAndGlyphs" textLength="147" x="212.5" y="977.2549">CALYPSO_OLD_CARD_PRIME</text><line style="stroke: #D4AC0D; stroke-width: 1.5;" x1="207.5" x2="400.5" y1="983.6719" y2="983.6719"/><!--MD5=[273228bd21fa37477fe0813cbe95870a]
class SpecificPluginFactory--><rect fill="#FEFECE" height="75.6719" id="SpecificPluginFactory" style="stroke: #D4AC0D; stroke-width: 1.5;" width="187" x="676.5" y="916"/><ellipse cx="691.5" cy="932" fill="#ADD1B2" rx="11" ry="11" style="stroke: #ADD1B2; stroke-width: 1.0;"/><path d="M693.5,928.5 Q693.7031,928 693.9375,927.75 Q694.1719,927.5 694.4375,927.5 Q694.9063,927.5 695.2031,927.7813 Q695.5,928.0625 695.5,928.7188 L695.5,930.2813 Q695.5,930.9375 695.2188,931.2188 Q694.9375,931.5 694.5,931.5 Q694.1094,931.5 693.8594,931.3281 Q693.6094,931.1563 693.5,930.7031 Q693.4531,930.3906 693.2813,930.2188 Q692.9688,929.8906 692.4063,929.7031 Q691.8438,929.5 691.2813,929.5 Q690.5781,929.5 689.9844,929.7813 Q689.4063,930.0625 688.9531,930.6875 Q688.5,931.3125 688.5,932.1719 L688.5,933.0938 Q688.5,934.125 689.3438,934.8125 Q690.1875,935.5 691.6875,935.5 Q692.5781,935.5 693.2031,935.2969 Q693.5625,935.1875 693.9688,934.8281 Q694.2344,934.625 694.375,934.5625 Q694.5156,934.5 694.6875,934.5 Q695.0156,934.5 695.25,934.7656 Q695.5,935.0156 695.5,935.375 Q695.5,935.7188 695.1563,936.125 Q694.6563,936.7188 693.8594,937.0469 Q692.8125,937.5 691.5313,937.5 Q690.0313,937.5 688.8281,936.9063 Q687.8594,936.4375 687.1719,935.4219 Q686.5,934.4063 686.5,933.2031 L686.5,932.1094 Q686.5,930.8594 687.0938,929.7656 Q687.7031,928.6719 688.75,928.0938 Q689.8125,927.5 691,927.5 Q691.7188,927.5 692.3438,927.75 Q692.9688,928 693.5,928.5 Z "/><ellipse cx="710.5" cy="931.5" fill="#84BE84" rx="3" ry="3" style="stroke: #038048; stroke-width: 1.0;"/><text fill="#000000" font-family="sans-serif" font-size="12" font-weight="bold" lengthAdjust="spacingAndGlyphs" textLength="24" x="716.5" y="936.9102">final</text><text fill="#000000" font-family="sans-serif" font-size="12" lengthAdjust="spacingAndGlyphs" textLength="117" x="743.5" y="936.9102">SpecificPluginFactory</text><line style="stroke: #D4AC0D; stroke-width: 1.5;" x1="677.5" x2="862.5" y1="948" y2="948"/><line style="stroke: #D4AC0D; stroke-width: 1.5;" x1="677.5" x2="862.5" y1="956" y2="956"/><ellipse cx="687.5" cy="967" fill="#84BE84" rx="3" ry="3" style="stroke: #038048; stroke-width: 1.0;"/><text fill="#000000" font-family="sans-serif" font-size="11" lengthAdjust="spacingAndGlyphs" textLength="109" x="696.5" y="971.4189">String getPluginName()</text><ellipse cx="687.5" cy="980.8359" fill="#84BE84" rx="3" ry="3" style="stroke: #038048; stroke-width: 1.0;"/><text fill="#000000" font-family="sans-serif" font-size="11" lengthAdjust="spacingAndGlyphs" textLength="123" x="696.5" y="985.2549">Plugin getPluginInstance()</text><!--MD5=[0f8b8cab079f94c46492aeaa0dde1551]
class SpecificPlugin--><rect fill="#FEFECE" height="111.5313" id="SpecificPlugin" style="stroke: #D4AC0D; stroke-width: 1.5;" width="160" x="437" y="898"/><ellipse cx="469.55" cy="918.0938" fill="#ADD1B2" rx="11" ry="11" style="stroke: #ADD1B2; stroke-width: 1.0;"/><path d="M471.55,914.5938 Q471.7531,914.0938 471.9875,913.8438 Q472.2219,913.5938 472.4875,913.5938 Q472.9563,913.5938 473.2531,913.875 Q473.55,914.1563 473.55,914.8125 L473.55,916.375 Q473.55,917.0313 473.2688,917.3125 Q472.9875,917.5938 472.55,917.5938 Q472.1594,917.5938 471.9094,917.4219 Q471.6594,917.25 471.55,916.7969 Q471.5031,916.4844 471.3313,916.3125 Q471.0188,915.9844 470.4563,915.7969 Q469.8938,915.5938 469.3313,915.5938 Q468.6281,915.5938 468.0344,915.875 Q467.4563,916.1563 467.0031,916.7813 Q466.55,917.4063 466.55,918.2656 L466.55,919.1875 Q466.55,920.2188 467.3938,920.9063 Q468.2375,921.5938 469.7375,921.5938 Q470.6281,921.5938 471.2531,921.3906 Q471.6125,921.2813 472.0188,920.9219 Q472.2844,920.7188 472.425,920.6563 Q472.5656,920.5938 472.7375,920.5938 Q473.0656,920.5938 473.3,920.8594 Q473.55,921.1094 473.55,921.4688 Q473.55,921.8125 473.2063,922.2188 Q472.7063,922.8125 471.9094,923.1406 Q470.8625,923.5938 469.5813,923.5938 Q468.0813,923.5938 466.8781,923 Q465.9094,922.5313 465.2219,921.5156 Q464.55,920.5 464.55,919.2969 L464.55,918.2031 Q464.55,916.9531 465.1438,915.8594 Q465.7531,914.7656 466.8,914.1875 Q467.8625,913.5938 469.05,913.5938 Q469.7688,913.5938 470.3938,913.8438 Q471.0188,914.0938 471.55,914.5938 Z "/><text fill="#000000" font-family="sans-serif" font-size="12" font-style="italic" lengthAdjust="spacingAndGlyphs" textLength="66" x="498.95" y="915.457">«Singleton»</text><polygon fill="#4177AF" points="492.45,921.1406,488.45,927.1406,496.45,927.1406" style="stroke: #1963A0; stroke-width: 1.0;"/><text fill="#000000" font-family="sans-serif" font-size="12" lengthAdjust="spacingAndGlyphs" textLength="78" x="498.45" y="930.5508">SpecificPlugin</text><line style="stroke: #D4AC0D; stroke-width: 1.5;" x1="438" x2="596" y1="938.1875" y2="938.1875"/><rect fill="none" height="6" style="stroke: #C82930; stroke-width: 1.0;" width="6" x="445" y="946.1875"/><text fill="#000000" font-family="sans-serif" font-size="11" lengthAdjust="spacingAndGlyphs" textLength="57" x="457" y="953.6064">String name</text><line style="stroke: #D4AC0D; stroke-width: 1.5;" x1="438" x2="596" y1="960.0234" y2="960.0234"/><rect fill="#F24D5C" height="6" style="stroke: #C82930; stroke-width: 1.0;" width="6" x="445" y="968.0234"/><text fill="#000000" font-family="sans-serif" font-size="11" lengthAdjust="spacingAndGlyphs" textLength="75" x="457" y="975.4424">SpecificPlugin()</text><ellipse cx="448" cy="984.8594" fill="#84BE84" rx="3" ry="3" style="stroke: #038048; stroke-width: 1.0;"/><text fill="#000000" font-family="sans-serif" font-size="11" lengthAdjust="spacingAndGlyphs" text-decoration="underline" textLength="134" x="457" y="989.2783">SpecificPlugin getInstance()</text><ellipse cx="448" cy="998.6953" fill="#84BE84" rx="3" ry="3" style="stroke: #038048; stroke-width: 1.0;"/><text fill="#000000" font-family="sans-serif" font-size="11" font-weight="bold" lengthAdjust="spacingAndGlyphs" textLength="23" x="457" y="1003.1143">final</text><text fill="#000000" font-family="sans-serif" font-size="11" lengthAdjust="spacingAndGlyphs" textLength="81" x="483" y="1003.1143">String getName()</text><!--MD5=[4ab0a37e4eea002adccb7015b38062eb]
class SpecificReader--><rect fill="#FEFECE" height="89.5078" id="SpecificReader" style="stroke: #D4AC0D; stroke-width: 1.5;" width="133" x="38.5" y="909"/><ellipse cx="56.2" cy="925" fill="#ADD1B2" rx="11" ry="11" style="stroke: #ADD1B2; stroke-width: 1.0;"/><path d="M58.2,921.5 Q58.4031,921 58.6375,920.75 Q58.8719,920.5 59.1375,920.5 Q59.6063,920.5 59.9031,920.7813 Q60.2,921.0625 60.2,921.7188 L60.2,923.2813 Q60.2,923.9375 59.9188,924.2188 Q59.6375,924.5 59.2,924.5 Q58.8094,924.5 58.5594,924.3281 Q58.3094,924.1563 58.2,923.7031 Q58.1531,923.3906 57.9813,923.2188 Q57.6688,922.8906 57.1063,922.7031 Q56.5438,922.5 55.9813,922.5 Q55.2781,922.5 54.6844,922.7813 Q54.1063,923.0625 53.6531,923.6875 Q53.2,924.3125 53.2,925.1719 L53.2,926.0938 Q53.2,927.125 54.0438,927.8125 Q54.8875,928.5 56.3875,928.5 Q57.2781,928.5 57.9031,928.2969 Q58.2625,928.1875 58.6688,927.8281 Q58.9344,927.625 59.075,927.5625 Q59.2156,927.5 59.3875,927.5 Q59.7156,927.5 59.95,927.7656 Q60.2,928.0156 60.2,928.375 Q60.2,928.7188 59.8563,929.125 Q59.3563,929.7188 58.5594,930.0469 Q57.5125,930.5 56.2313,930.5 Q54.7313,930.5 53.5281,929.9063 Q52.5594,929.4375 51.8719,928.4219 Q51.2,927.4063 51.2,926.2031 L51.2,925.1094 Q51.2,923.8594 51.7938,922.7656 Q52.4031,921.6719 53.45,921.0938 Q54.5125,920.5 55.7,920.5 Q56.4188,920.5 57.0438,920.75 Q57.6688,921 58.2,921.5 Z "/><polygon fill="#4177AF" points="75.8,920.5,71.8,926.5,79.8,926.5" style="stroke: #1963A0; stroke-width: 1.0;"/><text fill="#000000" font-family="sans-serif" font-size="12" lengthAdjust="spacingAndGlyphs" textLength="84" x="81.8" y="929.9102">SpecificReader</text><line style="stroke: #D4AC0D; stroke-width: 1.5;" x1="39.5" x2="170.5" y1="941" y2="941"/><rect fill="none" height="6" style="stroke: #C82930; stroke-width: 1.0;" width="6" x="46.5" y="949"/><text fill="#000000" font-family="sans-serif" font-size="11" lengthAdjust="spacingAndGlyphs" textLength="57" x="58.5" y="956.4189">String name</text><line style="stroke: #D4AC0D; stroke-width: 1.5;" x1="39.5" x2="170.5" y1="962.8359" y2="962.8359"/><polygon fill="#FFFF44" points="49.5,968.8359,53.5,972.8359,49.5,976.8359,45.5,972.8359" style="stroke: #B38D22; stroke-width: 1.0;"/><text fill="#000000" font-family="sans-serif" font-size="11" lengthAdjust="spacingAndGlyphs" textLength="82" x="58.5" y="978.2549">SpecificReader()</text><ellipse cx="49.5" cy="987.6719" fill="#84BE84" rx="3" ry="3" style="stroke: #038048; stroke-width: 1.0;"/><text fill="#000000" font-family="sans-serif" font-size="11" font-weight="bold" lengthAdjust="spacingAndGlyphs" textLength="23" x="58.5" y="992.0908">final</text><text fill="#000000" font-family="sans-serif" font-size="11" lengthAdjust="spacingAndGlyphs" textLength="81" x="84.5" y="992.0908">String getName()</text><!--MD5=[230717490673261be3b1e9de94e2929c]
link SmartCardService to Plugin--><path d="M509.6398,498.421 C509.6398,498.421 528.867,545.879 538,568 C542.226,578.235 546.738,589.028 551.191,599.605 " fill="none" id="SmartCardService-Plugin" style="stroke: #A80036; stroke-width: 1.0;"/><polygon fill="#A80036" points="556.371,611.874,556.5557,602.0269,554.4264,607.2677,549.1856,605.1383,556.371,611.874" style="stroke: #A80036; stroke-width: 1.0;"/><line style="stroke: #A80036; stroke-width: 1.0;" x1="554.4264" x2="551.3145" y1="607.2677" y2="599.8975"/><polygon fill="#A80036" points="505.154,487.291,503.6869,494.3513,509.6398,498.421,511.1069,491.3608,505.154,487.291" style="stroke: #A80036; stroke-width: 1.0;"/><text fill="#000000" font-family="sans-serif" font-size="13" lengthAdjust="spacingAndGlyphs" textLength="41" x="539" y="547.9951">plugins</text><text fill="#000000" font-family="sans-serif" font-size="13" lengthAdjust="spacingAndGlyphs" textLength="7" x="500.9192" y="509.0313">1</text><text fill="#000000" font-family="sans-serif" font-size="13" lengthAdjust="spacingAndGlyphs" textLength="5" x="548.0647" y="601.2595">*</text><!--MD5=[93552c6d1c6bbacc03afdb78ec3f6a5f]
link Reader to Plugin--><path d="M417.293,670.5 C435.586,670.5 471.952,670.5 471.952,670.5 " fill="none" id="Reader-Plugin" style="stroke: #A80036; stroke-width: 1.0;"/><polygon fill="#A80036" points="483.952,670.5,477.952,666.5,471.952,670.5,477.952,674.5,483.952,670.5" style="stroke: #A80036; stroke-width: 1.0;"/><polygon fill="#A80036" points="404.069,670.5,413.069,674.5,409.069,670.5,413.069,666.5,404.069,670.5" style="stroke: #A80036; stroke-width: 1.0;"/><line style="stroke: #A80036; stroke-width: 1.0;" x1="409.069" x2="417.069" y1="670.5" y2="670.5"/><text fill="#000000" font-family="sans-serif" font-size="13" lengthAdjust="spacingAndGlyphs" textLength="43" x="422.5" y="663.9951">readers</text><text fill="#000000" font-family="sans-serif" font-size="13" lengthAdjust="spacingAndGlyphs" textLength="5" x="411.7711" y="667.6682">*</text><text fill="#000000" font-family="sans-serif" font-size="13" lengthAdjust="spacingAndGlyphs" textLength="7" x="468.9396" y="667.3645">1</text><!--MD5=[7b09d406d26667b87d9d6fa628a7875c]
link ContactlessCardCommonProtocols to SmartCardService--><!--MD5=[532b2d0e5a0cf1a10972e0f178d26fe4]
link ContactlessCardCommonProtocols to Reader--><path d="M195.58,471.6 C201.394,512.086 208.213,559.567 213.714,597.872 " fill="none" id="ContactlessCardCommonProtocols-Reader" style="stroke: #A80036; stroke-width: 1.0;"/><text fill="#000000" font-family="sans-serif" font-size="13" lengthAdjust="spacingAndGlyphs" textLength="62" x="210" y="531.4951">application</text><text fill="#000000" font-family="sans-serif" font-size="13" lengthAdjust="spacingAndGlyphs" textLength="46" x="218" y="547.8467">protocol</text><text fill="#000000" font-family="sans-serif" font-size="13" lengthAdjust="spacingAndGlyphs" textLength="53" x="214.5" y="564.1982">reference</text><polygon fill="#000000" points="236.5,573.0547,239.5,579.0547,242.5,573.0547,236.5,573.0547" style="stroke: #000000; stroke-width: 1.0;"/><!--MD5=[d842569d2f438607af8ed0fb4cdffa11]
link PluginFactory to SmartCardService--><path d="M670.192,383 C648.812,383 624.813,383 600.95,383 " fill="none" id="PluginFactory-&gt;SmartCardService" style="stroke: #A80036; stroke-width: 1.0;"/><polygon fill="#A80036" points="595.861,383,604.861,387,600.861,383,604.861,379,595.861,383" style="stroke: #A80036; stroke-width: 1.0;"/><polygon fill="#000000" points="621,369.6758,615,372.6758,621,375.6758,621,369.6758" style="stroke: #000000; stroke-width: 1.0;"/><text fill="#000000" font-family="sans-serif" font-size="13" lengthAdjust="spacingAndGlyphs" textLength="25" x="627" y="376.4951">sets</text><text fill="#000000" font-family="sans-serif" font-size="13" lengthAdjust="spacingAndGlyphs" textLength="5" x="657.582" y="379.7411">*</text><text fill="#000000" font-family="sans-serif" font-size="13" lengthAdjust="spacingAndGlyphs" textLength="7" x="603.6866" y="380.0317">1</text><!--MD5=[a4001258c8db405fbf0ed58a92e714fd]
link PluginFactory to Plugin--><path d="M723.728,421.031 C696.614,468.233 649.346,550.52 616.676,607.392 " fill="none" id="PluginFactory-&gt;Plugin" style="stroke: #A80036; stroke-width: 1.0;"/><polygon fill="#A80036" points="614.154,611.785,622.1062,605.9745,616.6451,607.4498,615.1699,601.9887,614.154,611.785" style="stroke: #A80036; stroke-width: 1.0;"/><text fill="#000000" font-family="sans-serif" font-size="13" lengthAdjust="spacingAndGlyphs" textLength="43" x="668" y="547.9951">creates</text><polygon fill="#000000" points="685,556.8516,688,562.8516,691,556.8516,685,556.8516" style="stroke: #000000; stroke-width: 1.0;"/><text fill="#000000" font-family="sans-serif" font-size="13" lengthAdjust="spacingAndGlyphs" textLength="7" x="712.6251" y="442.2063">1</text><text fill="#000000" font-family="sans-serif" font-size="13" lengthAdjust="spacingAndGlyphs" textLength="7" x="610.7681" y="601.1597">1</text><!--MD5=[606af266cb1c3ee5489afec7c4e81055]
link SpecificPluginFactory to SpecificPlugin--><path d="M676.331,954 C652.013,954 625.956,954 602.105,954 " fill="none" id="SpecificPluginFactory-&gt;SpecificPlugin" style="stroke: #A80036; stroke-width: 1.0;"/><polygon fill="#A80036" points="597.051,954,606.051,958,602.051,954,606.051,950,597.051,954" style="stroke: #A80036; stroke-width: 1.0;"/><text fill="#000000" font-family="sans-serif" font-size="13" lengthAdjust="spacingAndGlyphs" textLength="43" x="615.25" y="947.4951">creates</text><text fill="#000000" font-family="sans-serif" font-size="13" lengthAdjust="spacingAndGlyphs" textLength="7" x="661.5878" y="950.8847">1</text><text fill="#000000" font-family="sans-serif" font-size="13" lengthAdjust="spacingAndGlyphs" textLength="7" x="605.0145" y="950.7717">1</text><!--MD5=[c0f848f1ce686e4cacbc8a0551faf0fe]
link SpecificPlugin to SpecificReader--><path d="M483.5835,887.6967 C483.5835,887.6967 444.845,837.037 417.5,823.5 C326.391,778.396 277.794,784.494 189,834 C163.613,848.154 144.151,873.59 130.384,897.412 " fill="none" id="SpecificPlugin-SpecificReader" style="stroke: #A80036; stroke-width: 1.0;"/><polygon fill="#A80036" points="124.082,908.92,131.9129,902.947,126.4833,904.5344,124.8959,899.1048,124.082,908.92" style="stroke: #A80036; stroke-width: 1.0;"/><line style="stroke: #A80036; stroke-width: 1.0;" x1="126.4833" x2="130.3255" y1="904.5344" y2="897.518"/><polygon fill="#A80036" points="489.97,897.856,490.1632,890.6475,483.5835,887.6967,483.3903,894.9052,489.97,897.856" style="stroke: #A80036; stroke-width: 1.0;"/><text fill="#000000" font-family="sans-serif" font-size="13" lengthAdjust="spacingAndGlyphs" textLength="43" x="373.5" y="805.9951">readers</text><text fill="#000000" font-family="sans-serif" font-size="13" lengthAdjust="spacingAndGlyphs" textLength="7" x="479.0583" y="887.1852">1</text><text fill="#000000" font-family="sans-serif" font-size="13" lengthAdjust="spacingAndGlyphs" textLength="5" x="121.7248" y="898.0227">*</text><!--MD5=[6a122d5edee81846362aed7aa46205e6]
link SpecificReader to SpecificSupportedProtocols--><!--MD5=[4c2db7e77e4167a5f3a0737590b2dd9f]
link SpecificTerminal to SmartCardService--><path d="M464,128.599 C464,160.536 464,220.303 464,273.774 " fill="none" id="SpecificTerminal-&gt;SmartCardService" style="stroke: #A80036; stroke-width: 1.0;"/><polygon fill="#A80036" points="464,278.928,468,269.928,464,273.928,460,269.928,464,278.928" style="stroke: #A80036; stroke-width: 1.0;"/><text fill="#000000" font-family="sans-serif" font-size="13" lengthAdjust="spacingAndGlyphs" textLength="28" x="465" y="174.9951">uses</text><polygon fill="#000000" points="474.5,183.8516,477.5,189.8516,480.5,183.8516,474.5,183.8516" style="stroke: #000000; stroke-width: 1.0;"/><!--MD5=[af065bc95178f4f6ad311d69d30c7e30]
reverse link Plugin to SpecificPlugin--><path d="M563.405,748.892 C552.67,796.11 539.201,855.349 529.544,897.827 " fill="none" id="Plugin&lt;-SpecificPlugin" style="stroke: #A80036; stroke-width: 1.0; stroke-dasharray: 7.0,7.0;"/><polygon fill="none" points="556.634,747.095,567.894,729.145,570.286,750.199,556.634,747.095" style="stroke: #A80036; stroke-width: 1.0;"/><text fill="#000000" font-family="sans-serif" font-size="13" lengthAdjust="spacingAndGlyphs" textLength="67" x="557" y="805.9951">implements</text><!--MD5=[66ced2f75dc1a13cd3c394fa75e05507]
reverse link Reader to SpecificReader--><path d="M183.716,761.722 C181.772,766.207 179.857,770.652 178,775 C158.581,820.459 137.217,872.849 122.647,908.962 " fill="none" id="Reader&lt;-SpecificReader" style="stroke: #A80036; stroke-width: 1.0; stroke-dasharray: 7.0,7.0;"/><polygon fill="none" points="177.384,758.73,191.808,743.207,190.213,764.336,177.384,758.73" style="stroke: #A80036; stroke-width: 1.0;"/><text fill="#000000" font-family="sans-serif" font-size="13" lengthAdjust="spacingAndGlyphs" textLength="67" x="179" y="805.9951">implements</text><!--MD5=[136abeb6498542290e7ac248186897f6]
reverse link PluginFactory to SpecificPluginFactory--><path d="M747.534,441.674 C752.656,558.259 764.116,819.088 768.37,915.9 " fill="none" id="PluginFactory&lt;-SpecificPluginFactory" style="stroke: #A80036; stroke-width: 1.0; stroke-dasharray: 7.0,7.0;"/><polygon fill="none" points="740.525,441.622,746.64,421.334,754.512,441.007,740.525,441.622" style="stroke: #A80036; stroke-width: 1.0;"/><text fill="#000000" font-family="sans-serif" font-size="13" lengthAdjust="spacingAndGlyphs" textLength="67" x="762" y="675.9951">implements</text><!--MD5=[5d113f9f00ffa0abe3b5115086b97c88]
link Reader to SpecificSupportedProtocols--><path d="M244.394,743.263 C260.041,798.321 281.006,872.09 293.448,915.871 " fill="none" id="Reader-SpecificSupportedProtocols" style="stroke: #A80036; stroke-width: 1.0;"/><polygon fill="#000000" points="290,786,293,780,296,786,290,786" style="stroke: #000000; stroke-width: 1.0;"/><text fill="#000000" font-family="sans-serif" font-size="13" lengthAdjust="spacingAndGlyphs" textLength="34" x="277.5" y="802.4951">plugin</text><text fill="#000000" font-family="sans-serif" font-size="13" lengthAdjust="spacingAndGlyphs" textLength="46" x="271.5" y="818.8467">protocol</text><text fill="#000000" font-family="sans-serif" font-size="13" lengthAdjust="spacingAndGlyphs" textLength="53" x="268" y="835.1982">reference</text><!--MD5=[f0ee29aa13c63eb34932044927a26657]
@startuml
skinparam ClassBorderColor #D4AC0D
skinparam stereotypeABorderColor #A9DCDF
skinparam stereotypeIBorderColor #B4A7E5
skinparam stereotypeCBorderColor #ADD1B2
skinparam stereotypeEBorderColor #EB93DF
skinparam shadowing false

skinparam StateBorderColor #D4AC0D
skinparam ActivityBorderColor #D4AC0D

skinparam ClassBackgroundColor<<red>> #FDEDEC
skinparam ClassBorderColor<<red>> #E74C3C
hide <<red>> stereotype
skinparam ClassBackgroundColor<<purple>> #F4ECF7
skinparam ClassBorderColor<<purple>> #8E44AD
hide <<purple>> stereotype
skinparam ClassBackgroundColor<<blue>> #EBF5FB
skinparam ClassBorderColor<<blue>> #3498DB
hide <<blue>> stereotype
skinparam ClassBackgroundColor<<green>> #EAFAF1
skinparam ClassBorderColor<<green>> #2ECC71
hide <<green>> stereotype

skinparam ClassBackgroundColor<<orange>> #FDF2E9
skinparam ClassBorderColor<<orange>> #E67E22
hide <<orange>> stereotype

skinparam ClassBackgroundColor<<grey>> #EAECEE
skinparam ClassBorderColor<<grey>> #2C3E50
hide <<grey>> stereotype

package specific.terminal_application #85C1E9 {
  class SpecificTerminal
}

package org.eclipse.keyple.core.service #FFFFFF {
+class "<b>final</b> SmartCardService" as SmartCardService << Singleton >> {
  -<b>final</b> {static}SmartCardService uniqueInstance
  -<b>final</b> ConcurrentMap<String, Plugin> plugins
  +{static}SmartCardService getInstance()
  +String getVersion()

  +Plugin registerPlugin(PluginFactory pluginFactory)
  +boolean isRegistered(String pluginName)
  +boolean unregisterPlugin(String pluginName)

  +Plugin getPlugin(String name)
  +Map<String, Plugin> getPlugins()
}
+interface Plugin {
  +String getName()

  +Map<String, Reader> getReaders()
  +Set<String> getReaderNames()
  +Reader getReader(String name)
}
+interface Reader {
  +String getName()

  +boolean isCardPresent()
  +boolean isContactlessTransmission()

  +activateProtocol(String applicationReference, String pluginReference)
  +deactivateProtocol(String applicationReference)
}
+interface PluginFactory {
  +String getPluginName()
  +Plugin getPluginInstance()
}

    package util #FFFFFF {
enum ContactlessCardCommonProtocols {
.. standard ..
  ISO_14443_4
.. NFC compliant ..
  NFC_A_ISO_14443_3A
  NFC_B_ISO_14443_3B
  NFC_F_JIS_6319_4
  NFC_V_ISO_15693
.. proprietary ..
  CALYPSO_OLD_CARD_PRIME
}
    }

    SmartCardService "1" *-down-> "*" Plugin : plugins
    Plugin "1" *-left-> "*" Reader : readers
    ContactlessCardCommonProtocols -right[hidden]- SmartCardService
    ContactlessCardCommonProtocols -down- Reader : application\nprotocol\nreference >

  SmartCardService "1" <-right- "*" PluginFactory : sets <
  PluginFactory "1" - -> "1" Plugin : creates >
}

package specific.plugin #D7BDE2 {
  +enum SpecificSupportedProtocols {
    ISO_14443_4
    CALYPSO_OLD_CARD_PRIME
  }


  +class "<b>final</b> SpecificPluginFactory" as SpecificPluginFactory {
    +String getPluginName()
    +Plugin getPluginInstance()
  }

  ~class SpecificPlugin << Singleton >> {
    -String name
    -SpecificPlugin()
    +{static} SpecificPlugin getInstance()
    +<b>final</b> String getName()
  }

  ~class SpecificReader {
    -String name
    #SpecificReader()
    +<b>final</b> String getName()
  }

  SpecificPluginFactory "1" -right-> "1" SpecificPlugin : creates
  SpecificPlugin "1" *-right-> "*" SpecificReader : readers
  SpecificSupportedProtocols -left[hidden]- SpecificReader
}
SpecificTerminal -down-> SmartCardService : uses >

Plugin <|.down. SpecificPlugin : implements
Reader <|.down. SpecificReader : implements
PluginFactory <|.down. SpecificPluginFactory : implements
Reader - - SpecificSupportedProtocols : plugin\nprotocol\nreference <
@enduml

PlantUML version 1.2020.09(Sun May 10 14:51:06 MUT 2020)
(GPL source distribution)
Java Runtime: OpenJDK Runtime Environment
JVM: OpenJDK 64-Bit Server VM
Java Version: 11.0.7+10-b765.64
Operating System: Windows 10
Default Encoding: Cp1252
Language: fr
Country: FR
--></g></svg>