<?xml version="1.0" encoding="UTF-8" standalone="no"?><svg xmlns="http://www.w3.org/2000/svg" xmlns:xlink="http://www.w3.org/1999/xlink" contentScriptType="application/ecmascript" contentStyleType="text/css" height="866px" preserveAspectRatio="none" style="width:1088px;height:866px;" version="1.1" viewBox="0 0 1088 866" width="1088px" zoomAndPan="magnify"><defs/><g><!--MD5=[474a687950c0c91cb5d6698c98d55883]
cluster org.keyple.calypso.transaction--><polygon fill="#FFFFFF" points="22,24,242,24,249,47.6094,580,47.6094,580,854,22,854,22,24" style="stroke: #000000; stroke-width: 1.5;"/><line style="stroke: #000000; stroke-width: 1.5;" x1="22" x2="249" y1="47.6094" y2="47.6094"/><text fill="#000000" font-family="sans-serif" font-size="14" font-weight="bold" lengthAdjust="spacingAndGlyphs" textLength="214" x="26" y="40.5332">org.keyple.calypso.transaction</text><!--MD5=[1e43b97e41e33c9d31d83f1ce9973d0d]
cluster ticketing.operator.specificdatamodel--><polygon fill="#FFFFFF" points="630,45,894,45,901,68.6094,1066,68.6094,1066,771,630,771,630,45" style="stroke: #000000; stroke-width: 1.5;"/><line style="stroke: #000000; stroke-width: 1.5;" x1="630" x2="901" y1="68.6094" y2="68.6094"/><text fill="#000000" font-family="sans-serif" font-size="14" font-weight="bold" lengthAdjust="spacingAndGlyphs" textLength="258" x="634" y="61.5332">ticketing.operator.specificdatamodel</text><!--MD5=[eb197b32301e657fb343d0b6ac62ab90]
class PoSelectionRequest--><rect fill="#FEFECE" height="172.5234" id="PoSelectionRequest" style="stroke: #D4AC0D; stroke-width: 1.5;" width="299" x="262.5" y="60"/><ellipse cx="345.75" cy="76" fill="#ADD1B2" rx="11" ry="11" style="stroke: #ADD1B2; stroke-width: 1.0;"/><path d="M347.75,72.5 Q347.9531,72 348.1875,71.75 Q348.4219,71.5 348.6875,71.5 Q349.1563,71.5 349.4531,71.7813 Q349.75,72.0625 349.75,72.7188 L349.75,74.2813 Q349.75,74.9375 349.4688,75.2188 Q349.1875,75.5 348.75,75.5 Q348.3594,75.5 348.1094,75.3281 Q347.8594,75.1563 347.75,74.7031 Q347.7031,74.3906 347.5313,74.2188 Q347.2188,73.8906 346.6563,73.7031 Q346.0938,73.5 345.5313,73.5 Q344.8281,73.5 344.2344,73.7813 Q343.6563,74.0625 343.2031,74.6875 Q342.75,75.3125 342.75,76.1719 L342.75,77.0938 Q342.75,78.125 343.5938,78.8125 Q344.4375,79.5 345.9375,79.5 Q346.8281,79.5 347.4531,79.2969 Q347.8125,79.1875 348.2188,78.8281 Q348.4844,78.625 348.625,78.5625 Q348.7656,78.5 348.9375,78.5 Q349.2656,78.5 349.5,78.7656 Q349.75,79.0156 349.75,79.375 Q349.75,79.7188 349.4063,80.125 Q348.9063,80.7188 348.1094,81.0469 Q347.0625,81.5 345.7813,81.5 Q344.2813,81.5 343.0781,80.9063 Q342.1094,80.4375 341.4219,79.4219 Q340.75,78.4063 340.75,77.2031 L340.75,76.1094 Q340.75,74.8594 341.3438,73.7656 Q341.9531,72.6719 343,72.0938 Q344.0625,71.5 345.25,71.5 Q345.9688,71.5 346.5938,71.75 Q347.2188,72 347.75,72.5 Z "/><ellipse cx="371.25" cy="75.5" fill="#84BE84" rx="3" ry="3" style="stroke: #038048; stroke-width: 1.0;"/><text fill="#000000" font-family="sans-serif" font-size="12" lengthAdjust="spacingAndGlyphs" textLength="113" x="377.25" y="80.9102">PoSelectionRequest</text><line style="stroke: #D4AC0D; stroke-width: 1.5;" x1="263.5" x2="560.5" y1="92" y2="92"/><line style="stroke: #D4AC0D; stroke-width: 1.5;" x1="263.5" x2="560.5" y1="100" y2="100"/><ellipse cx="273.5" cy="111" fill="#84BE84" rx="3" ry="3" style="stroke: #038048; stroke-width: 1.0;"/><text fill="#000000" font-family="sans-serif" font-size="11" lengthAdjust="spacingAndGlyphs" textLength="211" x="282.5" y="115.4189">PoSelectionRequest(PoSelector seSelector)</text><text fill="#000000" font-family="sans-serif" font-size="11" lengthAdjust="spacingAndGlyphs" textLength="0" x="285.5" y="129.2549"/><ellipse cx="273.5" cy="138.6719" fill="#84BE84" rx="3" ry="3" style="stroke: #038048; stroke-width: 1.0;"/><text fill="#000000" font-family="sans-serif" font-size="11" font-weight="bold" lengthAdjust="spacingAndGlyphs" textLength="23" x="282.5" y="143.0908">final</text><text fill="#000000" font-family="sans-serif" font-size="11" lengthAdjust="spacingAndGlyphs" textLength="143" x="308.5" y="143.0908">prepareSelectFile(byte[] path)</text><ellipse cx="273.5" cy="152.5078" fill="#84BE84" rx="3" ry="3" style="stroke: #038048; stroke-width: 1.0;"/><text fill="#000000" font-family="sans-serif" font-size="11" font-weight="bold" lengthAdjust="spacingAndGlyphs" textLength="23" x="282.5" y="156.9268">final</text><text fill="#000000" font-family="sans-serif" font-size="11" lengthAdjust="spacingAndGlyphs" textLength="133" x="308.5" y="156.9268">prepareSelectFile(shord lid)</text><ellipse cx="273.5" cy="166.3438" fill="#84BE84" rx="3" ry="3" style="stroke: #038048; stroke-width: 1.0;"/><text fill="#000000" font-family="sans-serif" font-size="11" font-weight="bold" lengthAdjust="spacingAndGlyphs" textLength="23" x="282.5" y="170.7627">final</text><text fill="#000000" font-family="sans-serif" font-size="11" lengthAdjust="spacingAndGlyphs" textLength="222" x="308.5" y="170.7627">prepareSelectFile(SelectControl selectControl)</text><text fill="#000000" font-family="sans-serif" font-size="11" lengthAdjust="spacingAndGlyphs" textLength="0" x="285.5" y="184.5986"/><ellipse cx="273.5" cy="194.0156" fill="#84BE84" rx="3" ry="3" style="stroke: #038048; stroke-width: 1.0;"/><text fill="#000000" font-family="sans-serif" font-size="11" font-weight="bold" lengthAdjust="spacingAndGlyphs" textLength="23" x="282.5" y="198.4346">final</text><text fill="#000000" font-family="sans-serif" font-size="11" lengthAdjust="spacingAndGlyphs" textLength="247" x="308.5" y="198.4346">prepareReadRecordFile(byte sfi, int recordNumber)</text><text fill="#000000" font-family="sans-serif" font-size="11" lengthAdjust="spacingAndGlyphs" textLength="0" x="285.5" y="212.2705"/><polygon fill="#FFFF44" points="273.5,216.6875,277.5,220.6875,273.5,224.6875,269.5,220.6875" style="stroke: #B38D22; stroke-width: 1.0;"/><text fill="#000000" font-family="sans-serif" font-size="11" lengthAdjust="spacingAndGlyphs" textLength="216" x="282.5" y="226.1064">CalypsoPo parse(SeResponse seResponse)</text><!--MD5=[346f733d3079e77ece8ec0605238a57f]
class CalypsoPo--><rect fill="#FEFECE" height="131.0156" id="CalypsoPo" style="stroke: #D4AC0D; stroke-width: 1.5;" width="309" x="254.5" y="294"/><ellipse cx="369.25" cy="310" fill="#ADD1B2" rx="11" ry="11" style="stroke: #ADD1B2; stroke-width: 1.0;"/><path d="M371.25,306.5 Q371.4531,306 371.6875,305.75 Q371.9219,305.5 372.1875,305.5 Q372.6563,305.5 372.9531,305.7813 Q373.25,306.0625 373.25,306.7188 L373.25,308.2813 Q373.25,308.9375 372.9688,309.2188 Q372.6875,309.5 372.25,309.5 Q371.8594,309.5 371.6094,309.3281 Q371.3594,309.1563 371.25,308.7031 Q371.2031,308.3906 371.0313,308.2188 Q370.7188,307.8906 370.1563,307.7031 Q369.5938,307.5 369.0313,307.5 Q368.3281,307.5 367.7344,307.7813 Q367.1563,308.0625 366.7031,308.6875 Q366.25,309.3125 366.25,310.1719 L366.25,311.0938 Q366.25,312.125 367.0938,312.8125 Q367.9375,313.5 369.4375,313.5 Q370.3281,313.5 370.9531,313.2969 Q371.3125,313.1875 371.7188,312.8281 Q371.9844,312.625 372.125,312.5625 Q372.2656,312.5 372.4375,312.5 Q372.7656,312.5 373,312.7656 Q373.25,313.0156 373.25,313.375 Q373.25,313.7188 372.9063,314.125 Q372.4063,314.7188 371.6094,315.0469 Q370.5625,315.5 369.2813,315.5 Q367.7813,315.5 366.5781,314.9063 Q365.6094,314.4375 364.9219,313.4219 Q364.25,312.4063 364.25,311.2031 L364.25,310.1094 Q364.25,308.8594 364.8438,307.7656 Q365.4531,306.6719 366.5,306.0938 Q367.5625,305.5 368.75,305.5 Q369.4688,305.5 370.0938,305.75 Q370.7188,306 371.25,306.5 Z "/><ellipse cx="394.75" cy="309.5" fill="#84BE84" rx="3" ry="3" style="stroke: #038048; stroke-width: 1.0;"/><text fill="#000000" font-family="sans-serif" font-size="12" lengthAdjust="spacingAndGlyphs" textLength="60" x="400.75" y="314.9102">CalypsoPo</text><line style="stroke: #D4AC0D; stroke-width: 1.5;" x1="255.5" x2="562.5" y1="326" y2="326"/><line style="stroke: #D4AC0D; stroke-width: 1.5;" x1="255.5" x2="562.5" y1="334" y2="334"/><polygon fill="#4177AF" points="265.5,341,261.5,347,269.5,347" style="stroke: #1963A0; stroke-width: 1.0;"/><text fill="#000000" font-family="sans-serif" font-size="11" lengthAdjust="spacingAndGlyphs" textLength="55" x="274.5" y="349.4189">CalypsoPo(</text><text fill="#FF0000" font-family="sans-serif" font-size="11" lengthAdjust="spacingAndGlyphs" textLength="116" x="329.5" y="349.4189">CardSelectionResponse</text><text fill="#000000" font-family="sans-serif" font-size="11" lengthAdjust="spacingAndGlyphs" textLength="109" x="448.5" y="349.4189">poSelectionResponse)</text><text fill="#000000" font-family="sans-serif" font-size="11" lengthAdjust="spacingAndGlyphs" textLength="0" x="277.5" y="363.2549"/><ellipse cx="265.5" cy="372.6719" fill="#84BE84" rx="3" ry="3" style="stroke: #038048; stroke-width: 1.0;"/><text fill="#000000" font-family="sans-serif" font-size="11" font-weight="bold" lengthAdjust="spacingAndGlyphs" textLength="23" x="274.5" y="377.0908">final</text><text fill="#000000" font-family="sans-serif" font-size="11" lengthAdjust="spacingAndGlyphs" textLength="184" x="300.5" y="377.0908">DirectoryHeader getDirectoryHeader()</text><ellipse cx="265.5" cy="386.5078" fill="#84BE84" rx="3" ry="3" style="stroke: #038048; stroke-width: 1.0;"/><text fill="#000000" font-family="sans-serif" font-size="11" font-weight="bold" lengthAdjust="spacingAndGlyphs" textLength="23" x="274.5" y="390.9268">final</text><text fill="#000000" font-family="sans-serif" font-size="11" lengthAdjust="spacingAndGlyphs" textLength="173" x="300.5" y="390.9268">ElementaryFile getFileBySfi(byte sfi)</text><ellipse cx="265.5" cy="400.3438" fill="#84BE84" rx="3" ry="3" style="stroke: #038048; stroke-width: 1.0;"/><text fill="#000000" font-family="sans-serif" font-size="11" font-weight="bold" lengthAdjust="spacingAndGlyphs" textLength="23" x="274.5" y="404.7627">final</text><text fill="#000000" font-family="sans-serif" font-size="11" lengthAdjust="spacingAndGlyphs" textLength="176" x="300.5" y="404.7627">ElementaryFile getFileByLid(short lid)</text><ellipse cx="265.5" cy="414.1797" fill="#84BE84" rx="3" ry="3" style="stroke: #038048; stroke-width: 1.0;"/><text fill="#000000" font-family="sans-serif" font-size="11" font-weight="bold" lengthAdjust="spacingAndGlyphs" textLength="23" x="274.5" y="418.5986">final</text><text fill="#000000" font-family="sans-serif" font-size="11" lengthAdjust="spacingAndGlyphs" textLength="189" x="300.5" y="418.5986">Map&lt;Byte, ElementaryFile&gt; getAllFiles()</text><!--MD5=[8eb5cec01ad571a9feeff1db4f73a667]
class PoTransaction--><rect fill="#FEFECE" height="352.3906" id="PoTransaction" style="stroke: #D4AC0D; stroke-width: 1.5;" width="525" x="38.5" y="486"/><ellipse cx="251.25" cy="502" fill="#ADD1B2" rx="11" ry="11" style="stroke: #ADD1B2; stroke-width: 1.0;"/><path d="M253.25,498.5 Q253.4531,498 253.6875,497.75 Q253.9219,497.5 254.1875,497.5 Q254.6563,497.5 254.9531,497.7813 Q255.25,498.0625 255.25,498.7188 L255.25,500.2813 Q255.25,500.9375 254.9688,501.2188 Q254.6875,501.5 254.25,501.5 Q253.8594,501.5 253.6094,501.3281 Q253.3594,501.1563 253.25,500.7031 Q253.2031,500.3906 253.0313,500.2188 Q252.7188,499.8906 252.1563,499.7031 Q251.5938,499.5 251.0313,499.5 Q250.3281,499.5 249.7344,499.7813 Q249.1563,500.0625 248.7031,500.6875 Q248.25,501.3125 248.25,502.1719 L248.25,503.0938 Q248.25,504.125 249.0938,504.8125 Q249.9375,505.5 251.4375,505.5 Q252.3281,505.5 252.9531,505.2969 Q253.3125,505.1875 253.7188,504.8281 Q253.9844,504.625 254.125,504.5625 Q254.2656,504.5 254.4375,504.5 Q254.7656,504.5 255,504.7656 Q255.25,505.0156 255.25,505.375 Q255.25,505.7188 254.9063,506.125 Q254.4063,506.7188 253.6094,507.0469 Q252.5625,507.5 251.2813,507.5 Q249.7813,507.5 248.5781,506.9063 Q247.6094,506.4375 246.9219,505.4219 Q246.25,504.4063 246.25,503.2031 L246.25,502.1094 Q246.25,500.8594 246.8438,499.7656 Q247.4531,498.6719 248.5,498.0938 Q249.5625,497.5 250.75,497.5 Q251.4688,497.5 252.0938,497.75 Q252.7188,498 253.25,498.5 Z "/><ellipse cx="276.75" cy="501.5" fill="#84BE84" rx="3" ry="3" style="stroke: #038048; stroke-width: 1.0;"/><text fill="#000000" font-family="sans-serif" font-size="12" lengthAdjust="spacingAndGlyphs" textLength="80" x="282.75" y="506.9102">PoTransaction</text><line style="stroke: #D4AC0D; stroke-width: 1.5;" x1="39.5" x2="562.5" y1="518" y2="518"/><line style="stroke: #D4AC0D; stroke-width: 1.5;" x1="39.5" x2="562.5" y1="526" y2="526"/><ellipse cx="49.5" cy="537" fill="#84BE84" rx="3" ry="3" style="stroke: #038048; stroke-width: 1.0;"/><text fill="#000000" font-family="sans-serif" font-size="11" lengthAdjust="spacingAndGlyphs" textLength="452" x="58.5" y="541.4189">PoTransaction(SeResource&lt;CalypsoPo&gt; poResource, PoSecuritySetting[0..1] securitySetting)</text><text fill="#000000" font-family="sans-serif" font-size="11" lengthAdjust="spacingAndGlyphs" textLength="0" x="61.5" y="555.2549"/><ellipse cx="49.5" cy="564.6719" fill="#84BE84" rx="3" ry="3" style="stroke: #038048; stroke-width: 1.0;"/><text fill="#000000" font-family="sans-serif" font-size="11" font-weight="bold" lengthAdjust="spacingAndGlyphs" textLength="23" x="58.5" y="569.0908">final</text><text fill="#000000" font-family="sans-serif" font-size="11" lengthAdjust="spacingAndGlyphs" textLength="130" x="84.5" y="569.0908">prepareSelectFile(short lid)</text><ellipse cx="49.5" cy="578.5078" fill="#84BE84" rx="3" ry="3" style="stroke: #038048; stroke-width: 1.0;"/><text fill="#000000" font-family="sans-serif" font-size="11" font-weight="bold" lengthAdjust="spacingAndGlyphs" textLength="23" x="58.5" y="582.9268">final</text><text fill="#000000" font-family="sans-serif" font-size="11" lengthAdjust="spacingAndGlyphs" textLength="132" x="84.5" y="582.9268">prepareSelectFile(byte[] lid)</text><ellipse cx="49.5" cy="592.3438" fill="#84BE84" rx="3" ry="3" style="stroke: #038048; stroke-width: 1.0;"/><text fill="#000000" font-family="sans-serif" font-size="11" font-weight="bold" lengthAdjust="spacingAndGlyphs" textLength="23" x="58.5" y="596.7627">final</text><text fill="#000000" font-family="sans-serif" font-size="11" lengthAdjust="spacingAndGlyphs" textLength="208" x="84.5" y="596.7627">prepareSelectFile(SelectFileControl control)</text><ellipse cx="49.5" cy="606.1797" fill="#84BE84" rx="3" ry="3" style="stroke: #038048; stroke-width: 1.0;"/><text fill="#000000" font-family="sans-serif" font-size="11" font-weight="bold" lengthAdjust="spacingAndGlyphs" textLength="23" x="58.5" y="610.5986">final</text><text fill="#000000" font-family="sans-serif" font-size="11" lengthAdjust="spacingAndGlyphs" textLength="247" x="84.5" y="610.5986">prepareReadRecordFile(byte sfi, int recordNumber)</text><ellipse cx="49.5" cy="620.0156" fill="#84BE84" rx="3" ry="3" style="stroke: #038048; stroke-width: 1.0;"/><text fill="#000000" font-family="sans-serif" font-size="11" font-weight="bold" lengthAdjust="spacingAndGlyphs" textLength="23" x="58.5" y="624.4346">final</text><text fill="#000000" font-family="sans-serif" font-size="11" lengthAdjust="spacingAndGlyphs" textLength="455" x="84.5" y="624.4346">prepareReadRecordFile(byte sfi, int firstRecordNumber, int numberOfRecords, int recordSize))</text><ellipse cx="49.5" cy="633.8516" fill="#84BE84" rx="3" ry="3" style="stroke: #038048; stroke-width: 1.0;"/><text fill="#000000" font-family="sans-serif" font-size="11" font-weight="bold" lengthAdjust="spacingAndGlyphs" textLength="23" x="58.5" y="638.2705">final</text><text fill="#000000" font-family="sans-serif" font-size="11" lengthAdjust="spacingAndGlyphs" textLength="473" x="84.5" y="638.2705">prepareReadSubRecordFile(byte sfi, int firstRecordNumber, int numberOfRecord, int recordOffset,</text><text fill="#000000" font-family="sans-serif" font-size="11" lengthAdjust="spacingAndGlyphs" textLength="83" x="58.5" y="652.1064">int recordLength)</text><ellipse cx="49.5" cy="661.5234" fill="#84BE84" rx="3" ry="3" style="stroke: #038048; stroke-width: 1.0;"/><text fill="#000000" font-family="sans-serif" font-size="11" font-weight="bold" lengthAdjust="spacingAndGlyphs" textLength="23" x="58.5" y="665.9424">final</text><text fill="#000000" font-family="sans-serif" font-size="11" lengthAdjust="spacingAndGlyphs" textLength="324" x="84.5" y="665.9424">prepareReadBinaryFile(byte sfi, int dataLength, int[0..1] dataOffset)</text><ellipse cx="49.5" cy="675.3594" fill="#84BE84" rx="3" ry="3" style="stroke: #038048; stroke-width: 1.0;"/><text fill="#000000" font-family="sans-serif" font-size="11" font-weight="bold" lengthAdjust="spacingAndGlyphs" textLength="23" x="58.5" y="679.7783">final</text><text fill="#000000" font-family="sans-serif" font-size="11" lengthAdjust="spacingAndGlyphs" textLength="261" x="84.5" y="679.7783">prepareReadCounterFile(byte sfi, int countersNumber)</text><ellipse cx="49.5" cy="689.1953" fill="#84BE84" rx="3" ry="3" style="stroke: #038048; stroke-width: 1.0;"/><text fill="#000000" font-family="sans-serif" font-size="11" font-weight="bold" lengthAdjust="spacingAndGlyphs" textLength="23" x="58.5" y="693.6143">final</text><text fill="#000000" font-family="sans-serif" font-size="11" lengthAdjust="spacingAndGlyphs" textLength="245" x="84.5" y="693.6143">prepareAppendRecord(byte sfi, byte[] recordData)</text><ellipse cx="49.5" cy="703.0313" fill="#84BE84" rx="3" ry="3" style="stroke: #038048; stroke-width: 1.0;"/><text fill="#000000" font-family="sans-serif" font-size="11" font-weight="bold" lengthAdjust="spacingAndGlyphs" textLength="23" x="58.5" y="707.4502">final</text><text fill="#000000" font-family="sans-serif" font-size="11" lengthAdjust="spacingAndGlyphs" textLength="330" x="84.5" y="707.4502">prepareUpdateRecord(byte sfi, int recordNumber, byte[] recordData)</text><ellipse cx="49.5" cy="716.8672" fill="#84BE84" rx="3" ry="3" style="stroke: #038048; stroke-width: 1.0;"/><text fill="#000000" font-family="sans-serif" font-size="11" font-weight="bold" lengthAdjust="spacingAndGlyphs" textLength="23" x="58.5" y="721.2861">final</text><text fill="#000000" font-family="sans-serif" font-size="11" lengthAdjust="spacingAndGlyphs" textLength="321" x="84.5" y="721.2861">prepareWriteRecord(byte sfi, int recordNumber, byte[] recordData)</text><ellipse cx="49.5" cy="730.7031" fill="#84BE84" rx="3" ry="3" style="stroke: #038048; stroke-width: 1.0;"/><text fill="#000000" font-family="sans-serif" font-size="11" font-weight="bold" lengthAdjust="spacingAndGlyphs" textLength="23" x="58.5" y="735.1221">final</text><text fill="#000000" font-family="sans-serif" font-size="11" lengthAdjust="spacingAndGlyphs" textLength="331" x="84.5" y="735.1221">prepareUpdateBinaryFile(byte sfi, byte[] fileData, int[0..1] dataOffset)</text><ellipse cx="49.5" cy="744.5391" fill="#84BE84" rx="3" ry="3" style="stroke: #038048; stroke-width: 1.0;"/><text fill="#000000" font-family="sans-serif" font-size="11" font-weight="bold" lengthAdjust="spacingAndGlyphs" textLength="23" x="58.5" y="748.958">final</text><text fill="#000000" font-family="sans-serif" font-size="11" lengthAdjust="spacingAndGlyphs" textLength="322" x="84.5" y="748.958">prepareWriteBinaryFile(byte sfi, byte[] fileData, int[0..1] dataOffset)</text><ellipse cx="49.5" cy="758.375" fill="#84BE84" rx="3" ry="3" style="stroke: #038048; stroke-width: 1.0;"/><text fill="#000000" font-family="sans-serif" font-size="11" font-weight="bold" lengthAdjust="spacingAndGlyphs" textLength="23" x="58.5" y="762.7939">final</text><text fill="#000000" font-family="sans-serif" font-size="11" lengthAdjust="spacingAndGlyphs" textLength="318" x="84.5" y="762.7939">prepareIncreaseCounter(byte sfi, int counterNumber, int incValue)</text><ellipse cx="49.5" cy="772.2109" fill="#84BE84" rx="3" ry="3" style="stroke: #038048; stroke-width: 1.0;"/><text fill="#000000" font-family="sans-serif" font-size="11" font-weight="bold" lengthAdjust="spacingAndGlyphs" textLength="23" x="58.5" y="776.6299">final</text><text fill="#000000" font-family="sans-serif" font-size="11" lengthAdjust="spacingAndGlyphs" textLength="327" x="84.5" y="776.6299">prepareDecreaseCounter(byte sfi, int counterNumber, int decValue)</text><ellipse cx="49.5" cy="786.0469" fill="#84BE84" rx="3" ry="3" style="stroke: #038048; stroke-width: 1.0;"/><text fill="#000000" font-family="sans-serif" font-size="11" font-weight="bold" lengthAdjust="spacingAndGlyphs" textLength="23" x="58.5" y="790.4658">final</text><text fill="#000000" font-family="sans-serif" font-size="11" lengthAdjust="spacingAndGlyphs" textLength="300" x="84.5" y="790.4658">prepareSetCounter(byte sfi, int counterNumber, int newValue)</text><ellipse cx="49.5" cy="799.8828" fill="#84BE84" rx="3" ry="3" style="stroke: #038048; stroke-width: 1.0;"/><text fill="#000000" font-family="sans-serif" font-size="11" font-weight="bold" lengthAdjust="spacingAndGlyphs" textLength="23" x="58.5" y="804.3018">final</text><text fill="#000000" font-family="sans-serif" font-size="11" lengthAdjust="spacingAndGlyphs" textLength="472" x="84.5" y="804.3018">int prepareSearchRecord(byte sfi, byte offset, SearchOffsetMode offsetMode, byte[] searchData,</text><text fill="#000000" font-family="sans-serif" font-size="11" lengthAdjust="spacingAndGlyphs" textLength="237" x="58.5" y="818.1377">Byte[] searchMask, SearchReadMode readMode)</text><ellipse cx="49.5" cy="827.5547" fill="#84BE84" rx="3" ry="3" style="stroke: #038048; stroke-width: 1.0;"/><text fill="#000000" font-family="sans-serif" font-size="11" font-weight="bold" lengthAdjust="spacingAndGlyphs" textLength="23" x="58.5" y="831.9736">final</text><text fill="#000000" font-family="sans-serif" font-size="11" lengthAdjust="spacingAndGlyphs" textLength="233" x="84.5" y="831.9736">int[] getSearchResult(int searchRequestNumber)</text><!--MD5=[9b7ae8158f40ace65c44bed90d159e67]
class SpecificPoSelectionRequest--><rect fill="#FEFECE" height="131.0156" id="SpecificPoSelectionRequest" style="stroke: #D4AC0D; stroke-width: 1.5;" width="281" x="646.5" y="81"/><ellipse cx="686.25" cy="97" fill="#ADD1B2" rx="11" ry="11" style="stroke: #ADD1B2; stroke-width: 1.0;"/><path d="M688.25,93.5 Q688.4531,93 688.6875,92.75 Q688.9219,92.5 689.1875,92.5 Q689.6563,92.5 689.9531,92.7813 Q690.25,93.0625 690.25,93.7188 L690.25,95.2813 Q690.25,95.9375 689.9688,96.2188 Q689.6875,96.5 689.25,96.5 Q688.8594,96.5 688.6094,96.3281 Q688.3594,96.1563 688.25,95.7031 Q688.2031,95.3906 688.0313,95.2188 Q687.7188,94.8906 687.1563,94.7031 Q686.5938,94.5 686.0313,94.5 Q685.3281,94.5 684.7344,94.7813 Q684.1563,95.0625 683.7031,95.6875 Q683.25,96.3125 683.25,97.1719 L683.25,98.0938 Q683.25,99.125 684.0938,99.8125 Q684.9375,100.5 686.4375,100.5 Q687.3281,100.5 687.9531,100.2969 Q688.3125,100.1875 688.7188,99.8281 Q688.9844,99.625 689.125,99.5625 Q689.2656,99.5 689.4375,99.5 Q689.7656,99.5 690,99.7656 Q690.25,100.0156 690.25,100.375 Q690.25,100.7188 689.9063,101.125 Q689.4063,101.7188 688.6094,102.0469 Q687.5625,102.5 686.2813,102.5 Q684.7813,102.5 683.5781,101.9063 Q682.6094,101.4375 681.9219,100.4219 Q681.25,99.4063 681.25,98.2031 L681.25,97.1094 Q681.25,95.8594 681.8438,94.7656 Q682.4531,93.6719 683.5,93.0938 Q684.5625,92.5 685.75,92.5 Q686.4688,92.5 687.0938,92.75 Q687.7188,93 688.25,93.5 Z "/><ellipse cx="710.75" cy="96.5" fill="#84BE84" rx="3" ry="3" style="stroke: #038048; stroke-width: 1.0;"/><text fill="#000000" font-family="sans-serif" font-size="12" font-weight="bold" lengthAdjust="spacingAndGlyphs" textLength="24" x="716.75" y="101.9102">final</text><text fill="#000000" font-family="sans-serif" font-size="12" lengthAdjust="spacingAndGlyphs" textLength="156" x="743.75" y="101.9102">SpecificPoSelectionRequest</text><line style="stroke: #D4AC0D; stroke-width: 1.5;" x1="647.5" x2="926.5" y1="113" y2="113"/><line style="stroke: #D4AC0D; stroke-width: 1.5;" x1="647.5" x2="926.5" y1="121" y2="121"/><ellipse cx="657.5" cy="132" fill="#84BE84" rx="3" ry="3" style="stroke: #038048; stroke-width: 1.0;"/><text fill="#000000" font-family="sans-serif" font-size="11" lengthAdjust="spacingAndGlyphs" textLength="250" x="666.5" y="136.4189">SpecificPoSelectionRequest(PoSelector seSelector)</text><text fill="#000000" font-family="sans-serif" font-size="11" lengthAdjust="spacingAndGlyphs" textLength="0" x="669.5" y="150.2549"/><ellipse cx="657.5" cy="159.6719" fill="#84BE84" rx="3" ry="3" style="stroke: #038048; stroke-width: 1.0;"/><text fill="#000000" font-family="sans-serif" font-size="11" lengthAdjust="spacingAndGlyphs" textLength="130" x="666.5" y="164.0908">prepareReadEnvironment()</text><ellipse cx="657.5" cy="173.5078" fill="#84BE84" rx="3" ry="3" style="stroke: #038048; stroke-width: 1.0;"/><text fill="#000000" font-family="sans-serif" font-size="11" lengthAdjust="spacingAndGlyphs" textLength="116" x="666.5" y="177.9268">prepareReadEventLog()</text><text fill="#000000" font-family="sans-serif" font-size="11" lengthAdjust="spacingAndGlyphs" textLength="0" x="669.5" y="191.7627"/><polygon fill="#FFFF44" points="657.5,196.1797,661.5,200.1797,657.5,204.1797,653.5,200.1797" style="stroke: #B38D22; stroke-width: 1.0;"/><text fill="#000000" font-family="sans-serif" font-size="11" lengthAdjust="spacingAndGlyphs" textLength="255" x="666.5" y="205.5986">SpecificCalypsoPo parse(SeResponse seResponse)</text><!--MD5=[9cd941d1d1bfacbc1887d23a34d90451]
class SpecificCalypsoPo--><rect fill="#FEFECE" height="103.3438" id="SpecificCalypsoPo" style="stroke: #D4AC0D; stroke-width: 1.5;" width="173" x="700.5" y="308"/><ellipse cx="715.5" cy="324" fill="#ADD1B2" rx="11" ry="11" style="stroke: #ADD1B2; stroke-width: 1.0;"/><path d="M717.5,320.5 Q717.7031,320 717.9375,319.75 Q718.1719,319.5 718.4375,319.5 Q718.9063,319.5 719.2031,319.7813 Q719.5,320.0625 719.5,320.7188 L719.5,322.2813 Q719.5,322.9375 719.2188,323.2188 Q718.9375,323.5 718.5,323.5 Q718.1094,323.5 717.8594,323.3281 Q717.6094,323.1563 717.5,322.7031 Q717.4531,322.3906 717.2813,322.2188 Q716.9688,321.8906 716.4063,321.7031 Q715.8438,321.5 715.2813,321.5 Q714.5781,321.5 713.9844,321.7813 Q713.4063,322.0625 712.9531,322.6875 Q712.5,323.3125 712.5,324.1719 L712.5,325.0938 Q712.5,326.125 713.3438,326.8125 Q714.1875,327.5 715.6875,327.5 Q716.5781,327.5 717.2031,327.2969 Q717.5625,327.1875 717.9688,326.8281 Q718.2344,326.625 718.375,326.5625 Q718.5156,326.5 718.6875,326.5 Q719.0156,326.5 719.25,326.7656 Q719.5,327.0156 719.5,327.375 Q719.5,327.7188 719.1563,328.125 Q718.6563,328.7188 717.8594,329.0469 Q716.8125,329.5 715.5313,329.5 Q714.0313,329.5 712.8281,328.9063 Q711.8594,328.4375 711.1719,327.4219 Q710.5,326.4063 710.5,325.2031 L710.5,324.1094 Q710.5,322.8594 711.0938,321.7656 Q711.7031,320.6719 712.75,320.0938 Q713.8125,319.5 715,319.5 Q715.7188,319.5 716.3438,319.75 Q716.9688,320 717.5,320.5 Z "/><ellipse cx="734.5" cy="323.5" fill="#84BE84" rx="3" ry="3" style="stroke: #038048; stroke-width: 1.0;"/><text fill="#000000" font-family="sans-serif" font-size="12" font-weight="bold" lengthAdjust="spacingAndGlyphs" textLength="24" x="740.5" y="328.9102">final</text><text fill="#000000" font-family="sans-serif" font-size="12" lengthAdjust="spacingAndGlyphs" textLength="103" x="767.5" y="328.9102">SpecificCalypsoPo</text><line style="stroke: #D4AC0D; stroke-width: 1.5;" x1="701.5" x2="872.5" y1="340" y2="340"/><line style="stroke: #D4AC0D; stroke-width: 1.5;" x1="701.5" x2="872.5" y1="348" y2="348"/><ellipse cx="711.5" cy="359" fill="#84BE84" rx="3" ry="3" style="stroke: #038048; stroke-width: 1.0;"/><text fill="#000000" font-family="sans-serif" font-size="11" lengthAdjust="spacingAndGlyphs" textLength="113" x="720.5" y="363.4189">String getEnvironment()</text><ellipse cx="711.5" cy="372.8359" fill="#84BE84" rx="3" ry="3" style="stroke: #038048; stroke-width: 1.0;"/><text fill="#000000" font-family="sans-serif" font-size="11" lengthAdjust="spacingAndGlyphs" textLength="99" x="720.5" y="377.2549">String getEventLog()</text><ellipse cx="711.5" cy="386.6719" fill="#84BE84" rx="3" ry="3" style="stroke: #038048; stroke-width: 1.0;"/><text fill="#000000" font-family="sans-serif" font-size="11" lengthAdjust="spacingAndGlyphs" textLength="114" x="720.5" y="391.0908">String getContractTitle()</text><ellipse cx="711.5" cy="400.5078" fill="#84BE84" rx="3" ry="3" style="stroke: #038048; stroke-width: 1.0;"/><text fill="#000000" font-family="sans-serif" font-size="11" lengthAdjust="spacingAndGlyphs" textLength="114" x="720.5" y="404.9268">int getNumberOfTicket()</text><!--MD5=[b198eaf8374e8e32348ac0d58d8ca957]
class SpecificPoTransaction--><rect fill="#FEFECE" height="186.3594" id="SpecificPoTransaction" style="stroke: #D4AC0D; stroke-width: 1.5;" width="403" x="646.5" y="569"/><ellipse cx="763.25" cy="585" fill="#ADD1B2" rx="11" ry="11" style="stroke: #ADD1B2; stroke-width: 1.0;"/><path d="M765.25,581.5 Q765.4531,581 765.6875,580.75 Q765.9219,580.5 766.1875,580.5 Q766.6563,580.5 766.9531,580.7813 Q767.25,581.0625 767.25,581.7188 L767.25,583.2813 Q767.25,583.9375 766.9688,584.2188 Q766.6875,584.5 766.25,584.5 Q765.8594,584.5 765.6094,584.3281 Q765.3594,584.1563 765.25,583.7031 Q765.2031,583.3906 765.0313,583.2188 Q764.7188,582.8906 764.1563,582.7031 Q763.5938,582.5 763.0313,582.5 Q762.3281,582.5 761.7344,582.7813 Q761.1563,583.0625 760.7031,583.6875 Q760.25,584.3125 760.25,585.1719 L760.25,586.0938 Q760.25,587.125 761.0938,587.8125 Q761.9375,588.5 763.4375,588.5 Q764.3281,588.5 764.9531,588.2969 Q765.3125,588.1875 765.7188,587.8281 Q765.9844,587.625 766.125,587.5625 Q766.2656,587.5 766.4375,587.5 Q766.7656,587.5 767,587.7656 Q767.25,588.0156 767.25,588.375 Q767.25,588.7188 766.9063,589.125 Q766.4063,589.7188 765.6094,590.0469 Q764.5625,590.5 763.2813,590.5 Q761.7813,590.5 760.5781,589.9063 Q759.6094,589.4375 758.9219,588.4219 Q758.25,587.4063 758.25,586.2031 L758.25,585.1094 Q758.25,583.8594 758.8438,582.7656 Q759.4531,581.6719 760.5,581.0938 Q761.5625,580.5 762.75,580.5 Q763.4688,580.5 764.0938,580.75 Q764.7188,581 765.25,581.5 Z "/><ellipse cx="788.75" cy="584.5" fill="#84BE84" rx="3" ry="3" style="stroke: #038048; stroke-width: 1.0;"/><text fill="#000000" font-family="sans-serif" font-size="12" font-weight="bold" lengthAdjust="spacingAndGlyphs" textLength="24" x="794.75" y="589.9102">final</text><text fill="#000000" font-family="sans-serif" font-size="12" lengthAdjust="spacingAndGlyphs" textLength="123" x="821.75" y="589.9102">SpecificPoTransaction</text><line style="stroke: #D4AC0D; stroke-width: 1.5;" x1="647.5" x2="1048.5" y1="601" y2="601"/><line style="stroke: #D4AC0D; stroke-width: 1.5;" x1="647.5" x2="1048.5" y1="609" y2="609"/><ellipse cx="657.5" cy="620" fill="#84BE84" rx="3" ry="3" style="stroke: #038048; stroke-width: 1.0;"/><text fill="#000000" font-family="sans-serif" font-size="11" lengthAdjust="spacingAndGlyphs" textLength="377" x="666.5" y="624.4189">SpecificPoTransaction(SeResource&lt;SpecificCalypsoPo&gt; specificPoResource,</text><text fill="#000000" font-family="sans-serif" font-size="11" lengthAdjust="spacingAndGlyphs" textLength="188" x="666.5" y="638.2549">PoSecuritySetting[0..1] securitySetting)</text><text fill="#000000" font-family="sans-serif" font-size="11" lengthAdjust="spacingAndGlyphs" textLength="0" x="669.5" y="652.0908"/><ellipse cx="657.5" cy="661.5078" fill="#84BE84" rx="3" ry="3" style="stroke: #038048; stroke-width: 1.0;"/><text fill="#000000" font-family="sans-serif" font-size="11" lengthAdjust="spacingAndGlyphs" textLength="130" x="666.5" y="665.9268">prepareReadEnvironment()</text><ellipse cx="657.5" cy="675.3438" fill="#84BE84" rx="3" ry="3" style="stroke: #038048; stroke-width: 1.0;"/><text fill="#000000" font-family="sans-serif" font-size="11" lengthAdjust="spacingAndGlyphs" textLength="245" x="666.5" y="679.7627">preparePersoEnvironment(String environmentData)</text><ellipse cx="657.5" cy="689.1797" fill="#84BE84" rx="3" ry="3" style="stroke: #038048; stroke-width: 1.0;"/><text fill="#000000" font-family="sans-serif" font-size="11" lengthAdjust="spacingAndGlyphs" textLength="116" x="666.5" y="693.5986">prepareReadEventLog()</text><ellipse cx="657.5" cy="703.0156" fill="#84BE84" rx="3" ry="3" style="stroke: #038048; stroke-width: 1.0;"/><text fill="#000000" font-family="sans-serif" font-size="11" lengthAdjust="spacingAndGlyphs" textLength="205" x="666.5" y="707.4346">prepareUpdateEventLog(String eventData)</text><ellipse cx="657.5" cy="716.8516" fill="#84BE84" rx="3" ry="3" style="stroke: #038048; stroke-width: 1.0;"/><text fill="#000000" font-family="sans-serif" font-size="11" lengthAdjust="spacingAndGlyphs" textLength="112" x="666.5" y="721.2705">prepareReadContract()</text><ellipse cx="657.5" cy="730.6875" fill="#84BE84" rx="3" ry="3" style="stroke: #038048; stroke-width: 1.0;"/><text fill="#000000" font-family="sans-serif" font-size="11" lengthAdjust="spacingAndGlyphs" textLength="303" x="666.5" y="735.1064">prepareLoadContract(String contractTitle, int numberOfTickets)</text><ellipse cx="657.5" cy="744.5234" fill="#84BE84" rx="3" ry="3" style="stroke: #038048; stroke-width: 1.0;"/><text fill="#000000" font-family="sans-serif" font-size="11" lengthAdjust="spacingAndGlyphs" textLength="290" x="666.5" y="748.9424">prepareDebitTicket(String contractTitle, int numberOfTickets)</text><!--MD5=[315c59765b6a4685fded372235c6d6fb]
link PoSelectionRequest to CalypsoPo--><path d="M410.784,233.018 C410.495,253.352 410.191,274.713 409.918,293.931 " fill="none" id="PoSelectionRequest-CalypsoPo" style="stroke: #A80036; stroke-width: 1.0;"/><!--MD5=[25d3cfe9edc00109a0ce2b8ef14c445c]
link CalypsoPo to PoTransaction--><path d="M385.699,425.334 C379.126,443.623 371.644,464.44 363.911,485.955 " fill="none" id="CalypsoPo-PoTransaction" style="stroke: #A80036; stroke-width: 1.0;"/><!--MD5=[fe6609bd0e38456f13eee3fd406aac7a]
link SpecificPoSelectionRequest to SpecificCalypsoPo--><path d="M787,212.241 C787,243.011 787,279.247 787,307.953 " fill="none" id="SpecificPoSelectionRequest-SpecificCalypsoPo" style="stroke: #A80036; stroke-width: 1.0;"/><!--MD5=[e52694d84b277162e45dd0ce3dbc8e29]
link SpecificCalypsoPo to SpecificPoTransaction--><path d="M797.279,411.136 C806.005,454.123 818.751,516.91 829.282,568.789 " fill="none" id="SpecificCalypsoPo-SpecificPoTransaction" style="stroke: #A80036; stroke-width: 1.0;"/><!--MD5=[1c2324d475dfffc25787d4720225dd9c]
reverse link PoSelectionRequest to SpecificPoSelectionRequest--><path d="M581.713,146.5 C603.327,146.5 625.26,146.5 646.349,146.5 " fill="none" id="PoSelectionRequest&lt;-SpecificPoSelectionRequest" style="stroke: #A80036; stroke-width: 1.0;"/><polygon fill="none" points="581.557,153.5,561.557,146.5,581.557,139.5,581.557,153.5" style="stroke: #A80036; stroke-width: 1.0;"/><text fill="#000000" font-family="sans-serif" font-size="13" lengthAdjust="spacingAndGlyphs" textLength="46" x="581" y="139.9951">extends</text><!--MD5=[75d56046215faa35d9412b496ca23db9]
reverse link CalypsoPo to SpecificCalypsoPo--><path d="M583.691,359.5 C624.251,359.5 665.696,359.5 700.494,359.5 " fill="none" id="CalypsoPo&lt;-SpecificCalypsoPo" style="stroke: #A80036; stroke-width: 1.0;"/><polygon fill="none" points="583.565,366.5,563.565,359.5,583.565,352.5,583.565,366.5" style="stroke: #A80036; stroke-width: 1.0;"/><text fill="#000000" font-family="sans-serif" font-size="13" lengthAdjust="spacingAndGlyphs" textLength="46" x="609" y="352.9951">extends</text><!--MD5=[d5e315ab13396d323cd24097eff0269c]
reverse link PoTransaction to SpecificPoTransaction--><path d="M583.897,662 C604.972,662 625.972,662 646.397,662 " fill="none" id="PoTransaction&lt;-SpecificPoTransaction" style="stroke: #A80036; stroke-width: 1.0;"/><polygon fill="none" points="583.685,669,563.685,662,583.685,655,583.685,669" style="stroke: #A80036; stroke-width: 1.0;"/><text fill="#000000" font-family="sans-serif" font-size="13" lengthAdjust="spacingAndGlyphs" textLength="46" x="582" y="655.4951">extends</text><!--MD5=[9518c9ec61a4189f3e48c68091f93c0b]
@startuml
skinparam ClassBorderColor #D4AC0D
skinparam stereotypeABorderColor #A9DCDF
skinparam stereotypeIBorderColor #B4A7E5
skinparam stereotypeCBorderColor #ADD1B2
skinparam stereotypeEBorderColor #EB93DF
skinparam shadowing false

skinparam StateBorderColor #D4AC0D
skinparam ActivityBorderColor #D4AC0D

skinparam ClassBackgroundColor<<red>> #FDEDEC
skinparam ClassBorderColor<<red>> #E74C3C
hide <<red>> stereotype
skinparam ClassBackgroundColor<<purple>> #F4ECF7
skinparam ClassBorderColor<<purple>> #8E44AD
hide <<purple>> stereotype
skinparam ClassBackgroundColor<<blue>> #EBF5FB
skinparam ClassBorderColor<<blue>> #3498DB
hide <<blue>> stereotype
skinparam ClassBackgroundColor<<green>> #EAFAF1
skinparam ClassBorderColor<<green>> #2ECC71
hide <<green>> stereotype

skinparam ClassBackgroundColor<<orange>> #FDF2E9
skinparam ClassBorderColor<<orange>> #E67E22
hide <<orange>> stereotype

skinparam ClassBackgroundColor<<grey>> #EAECEE
skinparam ClassBorderColor<<grey>> #2C3E50
hide <<grey>> stereotype

package org.keyple.calypso.transaction #FFFFFF {

+class PoSelectionRequest {
  +PoSelectionRequest(PoSelector seSelector)

  +<b>final</b> prepareSelectFile(byte[] path)
  +<b>final</b> prepareSelectFile(shord lid)
  +<b>final</b> prepareSelectFile(SelectControl selectControl)

  +<b>final</b> prepareReadRecordFile(byte sfi, int recordNumber)

  #CalypsoPo parse(SeResponse seResponse)
}

+class CalypsoPo {
  ~CalypsoPo(<color:red>CardSelectionResponse</color> poSelectionResponse)

  +<b>final</b> DirectoryHeader getDirectoryHeader()
  +<b>final</b> ElementaryFile getFileBySfi(byte sfi)
  +<b>final</b> ElementaryFile getFileByLid(short lid)
  +<b>final</b> Map<Byte, ElementaryFile> getAllFiles()
}

+class PoTransaction {
  +PoTransaction(SeResource<CalypsoPo> poResource, PoSecuritySetting[0..1] securitySetting)

  +<b>final</b> prepareSelectFile(short lid)
  +<b>final</b> prepareSelectFile(byte[] lid)
  +<b>final</b> prepareSelectFile(SelectFileControl control)
  +<b>final</b> prepareReadRecordFile(byte sfi, int recordNumber)
  +<b>final</b> prepareReadRecordFile(byte sfi, int firstRecordNumber, int numberOfRecords, int recordSize))
  +<b>final</b> prepareReadSubRecordFile(byte sfi, int firstRecordNumber, int numberOfRecord, int recordOffset,
    int recordLength)
  +<b>final</b> prepareReadBinaryFile(byte sfi, int dataLength, int[0..1] dataOffset)
  +<b>final</b> prepareReadCounterFile(byte sfi, int countersNumber)
  +<b>final</b> prepareAppendRecord(byte sfi, byte[] recordData)
  +<b>final</b> prepareUpdateRecord(byte sfi, int recordNumber, byte[] recordData)
  +<b>final</b> prepareWriteRecord(byte sfi, int recordNumber, byte[] recordData)
  +<b>final</b> prepareUpdateBinaryFile(byte sfi, byte[] fileData, int[0..1] dataOffset)
  +<b>final</b> prepareWriteBinaryFile(byte sfi, byte[] fileData, int[0..1] dataOffset)
  +<b>final</b> prepareIncreaseCounter(byte sfi, int counterNumber, int incValue)
  +<b>final</b> prepareDecreaseCounter(byte sfi, int counterNumber, int decValue)
  +<b>final</b> prepareSetCounter(byte sfi, int counterNumber, int newValue)
  +<b>final</b> int prepareSearchRecord(byte sfi, byte offset, SearchOffsetMode offsetMode, byte[] searchData,
    Byte[] searchMask, SearchReadMode readMode)
  +<b>final</b> int[] getSearchResult(int searchRequestNumber)
}

PoSelectionRequest -down- CalypsoPo
CalypsoPo -down- PoTransaction
}

package ticketing.operator.specificdatamodel #FFFFFF {

+class "<b>final</b> SpecificPoSelectionRequest" as SpecificPoSelectionRequest {
  +SpecificPoSelectionRequest(PoSelector seSelector)

  +prepareReadEnvironment()
  +prepareReadEventLog()

  #SpecificCalypsoPo parse(SeResponse seResponse)
}

+class "<b>final</b> SpecificCalypsoPo" as SpecificCalypsoPo {
  +String getEnvironment()
  +String getEventLog()
  +String getContractTitle()
  +int getNumberOfTicket()
}

+class "<b>final</b> SpecificPoTransaction" as SpecificPoTransaction {
  +SpecificPoTransaction(SeResource<SpecificCalypsoPo> specificPoResource,
    PoSecuritySetting[0..1] securitySetting)

  +prepareReadEnvironment()
  +preparePersoEnvironment(String environmentData)
  +prepareReadEventLog()
  +prepareUpdateEventLog(String eventData)
  +prepareReadContract()
  +prepareLoadContract(String contractTitle, int numberOfTickets)
  +prepareDebitTicket(String contractTitle, int numberOfTickets)
}

SpecificPoSelectionRequest -down- SpecificCalypsoPo
SpecificCalypsoPo -down- SpecificPoTransaction
}

PoSelectionRequest <|-right- SpecificPoSelectionRequest : extends
CalypsoPo <|-right- SpecificCalypsoPo : extends
PoTransaction <|-right- SpecificPoTransaction : extends
@enduml

PlantUML version 1.2020.09(Sun May 10 14:51:06 MUT 2020)
(GPL source distribution)
Java Runtime: OpenJDK Runtime Environment
JVM: OpenJDK 64-Bit Server VM
Java Version: 11.0.7+10-b765.64
Operating System: Windows 10
Default Encoding: Cp1252
Language: fr
Country: FR
--></g></svg>