<?xml version="1.0" encoding="UTF-8" standalone="no"?>
<!-- Generator: Adobe Illustrator 24.1.2, SVG Export Plug-In . SVG Version: 6.00 Build 0)  -->

<svg
   version="1.1"
   id="Calque_1"
   x="0px"
   y="0px"
   viewBox="0 0 2033.0048 773.4754"
   xml:space="preserve"
   sodipodi:docname="logo.svg"
   width="2033.0048"
   height="773.4754"
   inkscape:version="1.1.1 (3bf5ae0d25, 2021-09-20)"
   xmlns:inkscape="http://www.inkscape.org/namespaces/inkscape"
   xmlns:sodipodi="http://sodipodi.sourceforge.net/DTD/sodipodi-0.dtd"
   xmlns="http://www.w3.org/2000/svg"
   xmlns:svg="http://www.w3.org/2000/svg"><defs
   id="defs35" /><sodipodi:namedview
   id="namedview33"
   pagecolor="#ffffff"
   bordercolor="#666666"
   borderopacity="1.0"
   inkscape:pageshadow="2"
   inkscape:pageopacity="0.0"
   inkscape:pagecheckerboard="0"
   showgrid="false"
   fit-margin-top="0"
   fit-margin-left="0"
   fit-margin-right="0"
   fit-margin-bottom="0"
   inkscape:zoom="0.10473633"
   inkscape:cx="749.50116"
   inkscape:cy="1069.352"
   inkscape:window-width="1920"
   inkscape:window-height="1018"
   inkscape:window-x="-6"
   inkscape:window-y="-6"
   inkscape:window-maximized="1"
   inkscape:current-layer="Calque_1" />
<style
   type="text/css"
   id="style2">
	.st0{fill:#FFFFFF;}
</style>
<g
   id="g16"
   style="stroke:none;stroke-opacity:1"
   transform="translate(-8,-747.54248)">
	<path
   class="st0"
   d="m 1654.11,803.35 c -3.89,-2.23 -7.7,-4.62 -11.68,-6.67 -20.08,-10.36 -40.83,-18.96 -62.63,-25.15 -20.45,-5.81 -41.25,-9.58 -62.35,-11.1 -12.23,-0.88 -24.54,-1.62 -36.95,-0.46 -11.42,1.06 -22.89,1.6 -34.26,3.35 -14.18,2.19 -28.16,5.22 -41.91,9.34 -25.19,7.54 -49.07,18.12 -71.64,31.53 -19.98,11.87 -38.39,25.91 -55.1,42.1 -7.74,7.51 -15.17,15.31 -22.16,23.55 -6.84,8.06 -13.17,16.46 -19.36,25 -1.06,1.45 -1.67,2.31 0.58,3.75 9.81,6.31 19.46,12.87 29,19.59 1.96,1.38 2.9,1.14 4,-0.54 4.45,-6.78 9.5,-13.08 14.62,-19.37 10.06,-12.34 21.36,-23.46 33.35,-33.82 11.96,-10.33 24.93,-19.41 38.63,-27.31 10.9,-6.28 22.18,-11.84 33.84,-16.68 15.9,-6.59 32.23,-11.52 49.05,-15.14 16.18,-3.48 32.57,-4.88 49.01,-5.81 5.93,-0.34 11.93,0.28 17.89,0.5 13.58,0.51 26.91,2.36 40.23,4.82 21.39,3.96 41.86,10.75 61.61,19.71 19.01,8.62 36.69,19.51 53.32,32.13 0.62,0.84 0.84,1.76 0.97,2.83 0.96,7.98 1.73,16 3.2,23.88 1.91,10.28 2.87,20.68 4.54,30.99 1.33,8.19 2.07,16.47 3.24,24.68 1.47,10.33 3.14,20.64 4.65,30.97 1.36,9.33 2.67,18.67 3.9,28.02 0.23,1.77 0.79,1.08 1.95,0.89 4.66,-0.79 9.37,-1.22 14.06,-1.85 6.07,-0.81 12.13,-1.66 18.18,-2.53 8.57,-1.23 17.14,-2.52 25.72,-3.73 6.32,-0.89 12.65,-1.65 18.97,-2.54 8.58,-1.21 17.14,-2.53 25.71,-3.73 6.07,-0.85 12.15,-1.61 18.23,-2.35 1.11,-0.13 1.25,-0.71 1.12,-1.57 -1.82,-12.34 -3.7,-24.68 -5.41,-37.03 -0.28,-2.03 -1.54,-1.48 -2.52,-1.35 -5.3,0.7 -10.58,1.53 -15.87,2.28 -6.06,0.86 -12.12,1.68 -18.18,2.55 -8.57,1.23 -17.14,2.5 -25.72,3.73 -6.44,0.92 -12.92,1.61 -19.3,2.81 -2.39,0.45 -3.03,-0.08 -3.2,-2.26 -0.22,-2.93 -0.53,-5.87 -0.94,-8.78 -1.21,-8.58 -2.49,-17.14 -3.74,-25.71 -0.96,-6.55 -1.96,-13.1 -2.89,-19.65 -1.15,-8.08 -2.29,-16.16 -3.37,-24.24 -0.88,-6.58 -1.59,-13.19 -2.52,-19.76 -1.19,-8.45 -2.52,-16.87 -3.77,-25.31 -0.98,-6.68 -1.92,-13.37 -2.88,-20.05 -0.87,-6.05 -1.74,-12.11 -2.62,-18.16 -0.21,-1.46 0.26,-2 1.88,-2.07 12.05,-0.49 24.08,0.39 35.85,2.58 14.6,2.72 28.84,6.88 42.6,12.83 21.13,9.13 39.96,21.58 56.59,37.33 11.94,11.31 22.07,24.14 30.59,38.28 12.39,20.54 20.94,42.43 24.9,66.15 0.26,1.55 -2.29,6.84 4.34,5.46 11.21,-2.33 22.68,-3.41 34.06,-4.85 1.63,-0.21 2.46,-0.45 2.13,-2.2 -2.26,-12.04 -4.6,-24.06 -8.37,-35.76 -4.81,-14.9 -10.94,-29.19 -18.59,-42.88 -8.1,-14.48 -17.49,-28.06 -28.71,-40.21 -8.43,-9.14 -17.25,-17.96 -27.03,-25.79 -11.51,-9.23 -23.77,-17.21 -36.7,-24.25 -17.71,-9.64 -36.53,-16.35 -56.07,-21.06 -12.79,-3.08 -25.86,-4.89 -38.97,-5.43 -9.7,-0.4 -19.46,-0.43 -29.23,0.46 -10.84,0.99 -21.57,2.59 -32.34,3.95 -3.02,0.38 -2.56,1.82 -2.33,3.54 0.4,3.02 1,6.01 1.47,9.03 0.99,6.41 2.02,12.83 2.91,19.25 0.86,6.41 1.61,12.86 2.42,19.29 z m -431.16,499.53 c 6.53,0.4 12.95,-1.05 19.63,-0.22 10.05,1.25 19.69,3.44 28.81,7.67 14.03,6.51 25.79,15.93 34.86,28.53 9.2,12.79 14.6,27.17 16.03,42.74 0.86,9.45 0.24,18.96 -2.07,28.41 -3.93,16.1 -11.92,29.85 -23.21,41.61 -4.8,4.99 -10.47,9.25 -16.51,12.93 -9.72,5.92 -20.19,9.62 -31.31,11.67 -11.42,2.11 -22.98,1.62 -34.5,1.55 -8.85,-0.05 -17.59,-1.53 -26.17,-3.47 -17.67,-3.98 -34.36,-10.59 -49.87,-20.06 -17.22,-10.51 -32.41,-23.4 -44.82,-39.3 -9.97,-12.77 -18.14,-26.68 -24.06,-41.86 -6.88,-17.66 -10.88,-35.92 -11.56,-54.83 -0.25,-6.84 -0.23,-13.71 0.52,-20.61 0.7,-6.49 1.33,-13.02 2.74,-19.33 3.73,-16.64 9.48,-32.59 18.05,-47.46 9.61,-16.67 21.51,-31.36 36.07,-44.01 13.71,-11.93 28.95,-21.16 45.64,-28.22 18.9,-7.99 38.94,-10.81 59.04,-13.42 6.46,-0.84 12.93,-1.58 19.37,-2.5 8.44,-1.2 16.86,-2.58 25.31,-3.76 6.45,-0.9 12.88,-1.88 19.37,-2.58 8.21,-0.89 16.33,-2.67 24.53,-3.66 8.5,-1.02 16.93,-2.49 25.46,-3.35 10.24,-1.04 192.99,-24.38 203.21,-25.76 1.9,-0.26 2.53,-0.7 2.28,-2.5 -0.54,-3.79 -1.07,-7.57 -1.57,-11.37 -1.06,-8.1 -2.11,-16.2 -3.15,-24.3 -0.19,-1.45 -1.04,-2.14 -2.4,-1.89 -9.27,1.74 -191.27,23.97 -200.6,25.23 -12.11,1.64 -24.16,3.68 -36.26,5.4 -10.11,1.44 -20.26,2.55 -30.37,3.99 -12.1,1.72 -24.16,3.68 -36.26,5.44 -12.99,1.89 -26,3.64 -38.99,5.51 -17.46,2.51 -34.13,7.76 -50.23,14.87 -21.46,9.48 -40.6,22.48 -57.8,38.37 -7.8,7.2 -14.76,15.23 -21.18,23.63 -11.3,14.79 -20.67,30.76 -27.77,48.05 -8.65,21.06 -13.65,43 -14.95,65.62 -0.91,15.84 0.03,31.68 2.82,47.46 3.03,17.13 7.9,33.57 14.95,49.43 8.61,19.39 19.96,37.08 34.17,52.76 10.48,11.57 21.91,22.25 34.86,31.15 12.19,8.38 25.03,15.51 38.63,21.39 20.41,8.83 41.73,17.63 63.79,18.96 17.75,1.06 35.62,-2.31 53.32,-6.03 22.06,-4.64 41.63,-14.14 58.47,-28.87 15.08,-13.19 26.49,-29.25 34.09,-47.94 4.8,-11.82 8,-24.07 8.9,-36.69 0.61,-8.61 0.46,-17.35 -0.43,-26.08 -1.52,-14.94 -5.78,-29.04 -12.34,-42.32 -6.73,-13.6 -15.65,-25.75 -27.05,-36.09 -8.46,-7.67 -17.43,-14.5 -27.51,-19.77 -13.41,-7.01 -27.6,-11.52 -42.71,-13.51 -11.71,-1.55 -23.26,-1.83 -34.87,0.27 -1.62,-0.57 -3.03,0.34 -4.53,0.65 -21.73,4.46 -38.07,16.55 -48.61,35.85 -6.94,12.71 -9.71,26.48 -8.21,41.26 1.77,17.42 8.81,32.09 20.93,44.31 6.72,6.78 14.69,12.03 23.78,15.35 11.38,4.16 22.98,6.49 35.17,4.48 1.61,-0.27 2.01,-0.87 1.84,-2.23 -0.3,-2.29 -0.63,-4.58 -0.97,-6.86 -1.24,-8.38 -2.63,-16.73 -3.66,-25.13 -0.58,-4.74 -0.68,-5.02 -5.37,-5.07 -17.63,-0.2 -34.56,-15.52 -31.6,-35.97 1.33,-9.22 5.78,-16.3 13.3,-21.67 4.11,-2.91 8.78,-4.43 13.53,-5.85 z M 1962.02,1045 c 0.33,0.4 0.66,0.8 0.98,1.19 -1.12,0.67 -2.42,1.15 -3.32,2.03 -14.56,14.22 -29.08,28.49 -43.59,42.77 -1.07,1.05 -2.81,1.72 -0.71,3.82 8.21,8.19 16.25,16.56 24.23,24.97 1.79,1.88 2.81,2.21 4.88,0.17 11.43,-11.25 22.6,-22.76 34.26,-33.8 18.76,-17.76 36.86,-36.23 55.35,-54.28 3.37,-3.29 5.8,-6.98 6.56,-11.52 2.43,-14.66 -8.7,-25.56 -22.68,-23.87 -10.44,1.27 -20.82,3.05 -31.24,4.52 -8.14,1.15 -16.31,2.13 -24.46,3.28 -10.42,1.47 -20.82,3.09 -31.23,4.57 -8.14,1.15 -16.31,2.12 -24.46,3.28 -10.42,1.47 -20.82,3.09 -31.23,4.57 -8.14,1.15 -16.31,2.14 -24.46,3.27 -8.77,1.22 -17.52,2.57 -26.29,3.79 -8.27,1.16 -16.56,2.17 -24.83,3.34 -8.26,1.18 -16.47,2.64 -24.74,3.68 -8.42,1.06 -16.78,2.51 -25.24,3.36 -8.28,0.83 -94.45,12.33 -102.69,13.55 -10.92,1.61 -21.83,3.3 -32.79,4.59 -3,0.35 -2.91,1.53 -2.56,3.73 1.05,6.59 2.03,13.19 2.93,19.8 0.61,4.46 1.54,8.87 1.77,13.4 0.05,0.97 -0.19,3.54 2.41,3.12 3.91,-0.64 7.81,-1.38 11.73,-1.95 8.13,-1.19 94.25,-12.12 102.39,-13.26 6.74,-0.94 13.48,-1.87 20.22,-2.81 8.14,-1.15 16.27,-2.31 24.41,-3.46 8.64,-1.22 17.29,-2.45 25.93,-3.66 8.14,-1.14 16.28,-2.28 24.43,-3.4 6.62,-0.91 13.25,-1.75 19.86,-2.68 8.26,-1.17 16.51,-2.41 24.77,-3.6 8.64,-1.24 17.28,-2.48 25.92,-3.7 8.01,-1.13 16.03,-2.24 24.04,-3.36 6.87,-0.96 13.73,-1.93 20.6,-2.87 6.28,-0.88 12.56,-1.73 18.85,-2.58 z"
   id="path4"
   style="stroke:none;stroke-opacity:1" />
	<path
   class="st0"
   d="m 1217.33,1263.79 c 11.61,-2.09 23.16,-1.81 34.87,-0.27 15.11,2 29.3,6.5 42.71,13.51 10.08,5.27 19.04,12.1 27.51,19.77 11.4,10.34 20.32,22.49 27.05,36.09 6.56,13.27 10.82,27.38 12.34,42.32 0.89,8.73 1.05,17.47 0.43,26.08 -0.9,12.62 -4.09,24.87 -8.9,36.69 -7.6,18.7 -19,34.75 -34.09,47.94 -16.84,14.73 -36.4,24.23 -58.47,28.87 -17.7,3.72 -35.58,7.09 -53.32,6.03 -22.05,-1.32 -43.37,-10.13 -63.79,-18.96 -13.6,-5.88 -26.44,-13 -38.63,-21.39 -12.96,-8.91 -24.38,-19.58 -34.86,-31.15 -14.21,-15.68 -25.55,-33.38 -34.17,-52.76 -7.04,-15.85 -11.92,-32.29 -14.95,-49.43 -2.79,-15.78 -3.73,-31.62 -2.82,-47.46 1.3,-22.62 6.31,-44.56 14.95,-65.62 7.1,-17.28 16.47,-33.26 27.77,-48.05 6.42,-8.4 13.38,-16.43 21.18,-23.63 17.2,-15.89 36.33,-28.89 57.8,-38.37 16.11,-7.11 32.77,-12.36 50.23,-14.87 12.99,-1.87 333.2,-43.83 342.47,-45.57 1.36,-0.25 2.21,0.44 2.4,1.89 1.04,8.1 2.08,16.2 3.15,24.3 0.5,3.79 1.03,7.58 1.57,11.37 0.25,1.79 -0.38,2.24 -2.28,2.5 -10.21,1.38 -310.78,40.76 -317.24,41.6 -20.1,2.61 -40.14,5.42 -59.04,13.42 -16.69,7.06 -31.93,16.3 -45.64,28.22 -14.55,12.66 -26.45,27.34 -36.07,44.01 -8.57,14.87 -14.33,30.81 -18.05,47.46 -1.41,6.31 -2.04,12.84 -2.74,19.33 -0.74,6.9 -0.77,13.77 -0.52,20.61 0.69,18.91 4.68,37.17 11.56,54.83 5.92,15.19 14.09,29.09 24.06,41.86 12.41,15.9 27.6,28.79 44.82,39.3 15.51,9.47 32.2,16.08 49.87,20.06 8.58,1.93 17.32,3.41 26.17,3.47 11.52,0.07 23.08,0.56 34.5,-1.55 11.11,-2.05 21.59,-5.75 31.31,-11.67 6.05,-3.68 11.72,-7.93 16.51,-12.93 11.29,-11.76 19.28,-25.51 23.21,-41.61 2.31,-9.45 2.93,-18.96 2.07,-28.41 -1.42,-15.57 -6.83,-29.95 -16.03,-42.74 -9.07,-12.61 -20.83,-22.03 -34.86,-28.53 -9.12,-4.23 -18.76,-6.43 -28.81,-7.67 -6.68,-0.83 -13.21,-1.19 -19.63,0.22 -0.84,-6.81 -1.58,-13.63 -2.55,-20.42 -0.88,-6.26 -2.02,-12.46 -3.05,-18.69 z"
   id="path6"
   style="stroke:none;stroke-opacity:1" />
	<path
   class="st0"
   d="m 1648.74,764.79 c -0.47,-3.01 -1.07,-6.01 -1.47,-9.03 -0.23,-1.72 -0.69,-3.16 2.33,-3.54 10.78,-1.36 21.5,-2.96 32.34,-3.95 9.77,-0.89 19.53,-0.86 29.23,-0.46 13.11,0.54 26.19,2.35 38.97,5.43 19.53,4.7 38.36,11.42 56.07,21.06 12.93,7.04 25.19,15.02 36.7,24.25 9.78,7.83 18.59,16.66 27.03,25.79 11.22,12.15 20.61,25.73 28.71,40.21 7.65,13.68 13.79,27.98 18.59,42.88 3.77,11.7 6.11,23.71 8.37,35.76 0.33,1.75 -0.5,2 -2.13,2.2 -11.38,1.44 -22.85,2.52 -34.06,4.85 -4.36,0.75 -4.09,-3.91 -4.34,-5.46 -3.96,-23.72 -12.51,-45.61 -24.9,-66.15 -8.52,-14.13 -18.65,-26.96 -30.59,-38.28 -16.63,-15.76 -35.46,-28.2 -56.59,-37.33 -13.77,-5.95 -28,-10.11 -42.6,-12.83 -11.78,-2.19 -23.8,-3.07 -35.85,-2.58 -1.61,0.07 -2.09,0.61 -1.88,2.07 0.88,6.05 22.5,158.74 22.72,161.67 0.16,2.18 0.8,2.71 3.2,2.26 6.39,-1.2 57.14,-8.22 63.2,-9.08 5.29,-0.75 10.57,-1.59 15.87,-2.28 0.98,-0.13 2.24,-0.68 2.52,1.35 1.72,12.36 3.6,24.69 5.41,37.03 0.13,0.86 -0.02,1.43 -1.12,1.57 -6.08,0.74 -116.21,15.94 -120.87,16.73 -1.16,0.2 -1.72,0.89 -1.95,-0.89 -1.23,-9.35 -19.87,-140.52 -20.49,-141.37 0.58,-7.48 -11.42,-85.46 -12.42,-91.88 z"
   id="path8"
   style="stroke:none;stroke-opacity:1" />
	<path
   class="st0"
   d="m 1654.11,803.35 c 1.6,10.42 3.6,20.8 4.65,31.27 0.74,7.36 2.98,14.56 2.41,22.06 -16.62,-12.62 -34.31,-23.51 -53.32,-32.13 -19.75,-8.96 -40.22,-15.75 -61.61,-19.71 -13.32,-2.46 -26.65,-4.31 -40.23,-4.82 -5.96,-0.22 -11.95,-0.84 -17.89,-0.5 -16.44,0.93 -32.83,2.34 -49.01,5.81 -16.82,3.62 -33.15,8.55 -49.05,15.14 -11.66,4.83 -22.94,10.4 -33.84,16.68 -13.7,7.89 -26.68,16.98 -38.63,27.31 -11.99,10.36 -23.29,21.48 -33.35,33.82 -5.12,6.29 -10.17,12.59 -14.62,19.37 -1.11,1.69 -2.05,1.92 -4,0.54 -9.54,-6.71 -19.19,-13.28 -29,-19.59 -2.24,-1.44 -1.64,-2.3 -0.58,-3.75 6.19,-8.53 12.53,-16.94 19.36,-25 7,-8.24 14.42,-16.05 22.16,-23.55 16.71,-16.19 35.11,-30.23 55.1,-42.1 22.57,-13.41 46.44,-24 71.64,-31.53 13.75,-4.11 27.73,-7.15 41.91,-9.34 11.37,-1.75 22.84,-2.29 34.26,-3.35 12.41,-1.16 24.72,-0.41 36.95,0.46 21.1,1.52 41.91,5.29 62.35,11.1 21.8,6.19 42.55,14.79 62.63,25.15 4.01,2.05 7.82,4.43 11.71,6.66 z"
   id="path10"
   style="stroke:none;stroke-opacity:1" />
	<path
   class="st0"
   d="m 1962.02,1045 c -6.29,0.85 -339.24,46.68 -343.15,47.31 -2.6,0.42 -2.36,-2.15 -2.41,-3.12 -0.23,-4.53 -1.17,-8.94 -1.77,-13.4 -0.9,-6.61 -1.88,-13.21 -2.93,-19.8 -0.35,-2.19 -0.44,-3.37 2.56,-3.73 10.96,-1.28 393.23,-54.52 403.67,-55.79 13.98,-1.7 25.11,9.2 22.68,23.87 -0.75,4.54 -3.19,8.23 -6.56,11.52 -18.49,18.05 -78.18,76.83 -89.62,88.08 -2.07,2.04 -3.09,1.71 -4.88,-0.17 -7.98,-8.41 -16.02,-16.78 -24.23,-24.97 -2.1,-2.09 -0.36,-2.77 0.71,-3.82 14.51,-14.28 29.02,-28.54 43.59,-42.77 0.91,-0.88 2.21,-1.36 3.32,-2.03 -0.32,-0.38 -0.65,-0.78 -0.98,-1.18 z"
   id="path12"
   style="stroke:none;stroke-opacity:1" />
	<path
   class="st0"
   d="m 1217.33,1263.79 c 0,0 2.17,12.43 3.07,18.67 0.97,6.79 1.71,13.61 2.55,20.42 -4.75,1.42 -9.42,2.93 -13.54,5.88 -7.52,5.37 -11.97,12.45 -13.3,21.67 -2.96,20.45 13.97,35.77 31.6,35.97 4.69,0.05 4.79,0.33 5.37,5.07 1.03,8.4 2.42,16.76 3.66,25.13 0.34,2.29 0.68,4.57 0.97,6.86 0.17,1.36 -0.23,1.96 -1.84,2.23 -12.19,2.01 -23.79,-0.32 -35.17,-4.48 -9.09,-3.32 -17.06,-8.58 -23.78,-15.35 -12.12,-12.22 -19.16,-26.89 -20.93,-44.31 -1.5,-14.78 1.27,-28.55 8.21,-41.26 10.54,-19.31 25.5,-29.94 47.24,-35.56 1.49,-0.3 5.89,-0.94 5.89,-0.94 z"
   id="path14"
   style="stroke:none;stroke-opacity:1" />
</g>
<g
   id="g30"
   style="stroke:none;stroke-opacity:1"
   transform="translate(-8,-747.54248)">
	<path
   class="st0"
   d="m 32.81,840.49 c 0,-5.91 -3.15,-8.66 -8.66,-8.66 H 8 v -32.69 h 37.8 c 17.72,0 25.2,5.12 25.2,22.84 v 129.16 h 17.72 c 7.09,0 15.75,-1.97 20.87,-8.66 l 46.07,-64.58 h 43.71 l -53.95,74.03 c -9.06,12.21 -14.96,14.96 -14.96,14.96 v 0.79 c 0,0 6.69,2.36 13.39,14.96 l 29.53,53.95 c 3.15,6.3 7.09,7.88 16.93,7.88 h 12.21 v 32.68 h -27.56 c -18.51,0 -24.42,-3.15 -33.08,-18.51 L 105.65,991.7 c -4.33,-7.48 -13.39,-8.27 -19.69,-8.27 H 71.01 v 93.72 h -38.2 z"
   id="path18"
   style="stroke:none;stroke-opacity:1" />
	<path
   class="st0"
   d="m 318.31,873.18 c 55.92,0 85.84,41.74 85.84,93.33 0,5.12 -1.18,15.75 -1.18,15.75 h -145.3 c 2.36,42.53 33.08,66.55 68.52,66.55 34.26,0 58.28,-23.23 58.28,-23.23 l 16.54,27.17 c 0,0 -29.53,29.14 -76.79,29.14 -63.01,0 -105.93,-45.28 -105.93,-104.35 0,-63.41 43.32,-104.36 100.02,-104.36 z m 46.47,81.12 c -1.18,-33.08 -22.05,-50.8 -46.86,-50.8 -29.14,0 -52.77,17.72 -58.67,50.8 z"
   id="path20"
   style="stroke:none;stroke-opacity:1" />
	<path
   class="st0"
   d="m 468.35,1126.77 c 15.36,0 27.57,-11.02 35.05,-28.74 l 9.06,-21.66 -68.12,-157.91 c -2.76,-6.3 -6.3,-7.88 -12.6,-7.88 H 427 V 877.9 h 22.44 c 16.15,0 22.05,4.33 28.35,20.08 l 45.28,112.23 c 3.94,10.24 7.09,24.02 7.09,24.02 h 0.79 c 0,0 2.76,-13.78 6.69,-24.02 L 579,897.98 c 5.91,-15.75 13,-20.08 29.14,-20.08 h 22.84 v 32.69 h -5.12 c -6.3,0 -9.84,1.58 -12.6,7.88 L 534.5,1113 c -12.21,30.72 -36.23,46.86 -64.19,46.86 -29.53,0 -46.86,-19.69 -46.86,-19.69 l 15.75,-27.56 c 0.01,0.38 12.21,14.16 29.15,14.16 z"
   id="path22"
   style="stroke:none;stroke-opacity:1" />
	<path
   class="st0"
   d="m 669.97,919.25 c 0,-5.91 -3.15,-8.66 -8.66,-8.66 H 645.16 V 877.9 H 681 c 17.72,0 24.41,7.48 24.41,20.08 0,5.91 -0.39,10.63 -0.39,10.63 h 0.79 c 0,0 16.54,-35.44 66.16,-35.44 53.55,0 87.81,42.53 87.81,104.35 0,63.4 -38.59,104.35 -90.57,104.35 -44.1,0 -61.04,-31.9 -61.04,-31.9 h -0.79 c 0,0 0.79,7.09 0.79,17.33 v 88.6 h -38.2 z m 93.33,129.95 c 31.5,0 57.49,-25.99 57.49,-71.27 0,-43.32 -23.23,-71.27 -56.31,-71.27 -29.53,0 -57.49,20.87 -57.49,71.67 -0.01,35.43 19.29,70.87 56.31,70.87 z"
   id="path24"
   style="stroke:none;stroke-opacity:1" />
	<path
   class="st0"
   d="m 903.49,840.49 c 0,-5.91 -3.15,-8.66 -8.66,-8.66 h -16.15 v -32.69 h 37.8 c 17.72,0 25.2,7.48 25.2,25.2 v 211.46 c 0,5.91 3.15,8.66 8.66,8.66 h 16.14 v 32.68 h -37.8 c -17.72,0 -25.2,-7.48 -25.2,-25.2 V 840.49 Z"
   id="path26"
   style="stroke:none;stroke-opacity:1" />
	<path
   class="st0"
   d="m 1090.54,873.18 c 55.92,0 85.85,41.74 85.85,93.33 0,5.12 -1.18,15.75 -1.18,15.75 h -145.3 c 2.36,42.53 33.08,66.55 68.52,66.55 34.26,0 58.28,-23.23 58.28,-23.23 l 16.54,27.17 c 0,0 -29.53,29.14 -76.79,29.14 -63.01,0 -105.93,-45.28 -105.93,-104.35 -0.01,-63.41 43.31,-104.36 100.01,-104.36 z m 46.47,81.12 c -1.18,-33.08 -22.05,-50.8 -46.86,-50.8 -29.14,0 -52.77,17.72 -58.67,50.8 z"
   id="path28"
   style="stroke:none;stroke-opacity:1" />
</g>
</svg>
