<?xml version="1.0" encoding="us-ascii" standalone="no"?><svg xmlns="http://www.w3.org/2000/svg" xmlns:xlink="http://www.w3.org/1999/xlink" contentStyleType="text/css" height="831px" preserveAspectRatio="none" style="width:1413px;height:831px;background:#FFFFFF;" version="1.1" viewBox="0 0 1413 831" width="1413px" zoomAndPan="magnify"><defs/><g><!--class MessageDto--><g id="elem_MessageDto"><rect codeLine="135" fill="#EBF5FB" height="178.3477" id="MessageDto" rx="2.5" ry="2.5" style="stroke:#3498DB;stroke-width:2.0;" width="201" x="445.5" y="7"/><ellipse cx="502.25" cy="23" fill="#ADD1B2" rx="11" ry="11" style="stroke:#181818;stroke-width:1.0;"/><path d="M505.0156,18.875 Q505.1719,18.6563 505.3594,18.5469 Q505.5469,18.4375 505.7656,18.4375 Q506.1406,18.4375 506.375,18.7031 Q506.6094,18.9531 506.6094,19.5625 L506.6094,21.0156 Q506.6094,21.625 506.375,21.8906 Q506.1406,22.1563 505.7656,22.1563 Q505.4219,22.1563 505.2188,21.9531 Q505.0156,21.7656 504.9063,21.25 Q504.8594,20.8906 504.6719,20.7031 Q504.3438,20.3281 503.7344,20.1094 Q503.125,19.8906 502.5,19.8906 Q501.7344,19.8906 501.0938,20.2188 Q500.4688,20.5469 499.9688,21.2969 Q499.4844,22.0469 499.4844,23.0781 L499.4844,24.1719 Q499.4844,25.4063 500.375,26.2344 Q501.2656,27.0469 502.8594,27.0469 Q503.7969,27.0469 504.4531,26.7969 Q504.8438,26.6406 505.2656,26.2031 Q505.5313,25.9375 505.6719,25.8594 Q505.8281,25.7813 506.0313,25.7813 Q506.3594,25.7813 506.6094,26.0469 Q506.875,26.2969 506.875,26.6406 Q506.875,26.9844 506.5313,27.3906 Q506.0313,27.9688 505.2344,28.2969 Q504.1563,28.75 502.8594,28.75 Q501.3438,28.75 500.1406,28.125 Q499.1563,27.625 498.4688,26.5625 Q497.7813,25.4844 497.7813,24.2031 L497.7813,23.0469 Q497.7813,21.7188 498.3906,20.5781 Q499.0156,19.4219 500.1094,18.8125 Q501.2031,18.1875 502.4375,18.1875 Q503.1719,18.1875 503.8125,18.3594 Q504.4688,18.5156 505.0156,18.875 Z " fill="#000000"/><text fill="#000000" font-family="sans-serif" font-size="14" lengthAdjust="spacing" textLength="79" x="522.75" y="28.7969">MessageDto</text><line style="stroke:#3498DB;stroke-width:2.0;" x1="446.5" x2="645.5" y1="39" y2="39"/><text fill="#000000" font-family="sans-serif" font-size="14" font-weight="bold" lengthAdjust="spacing" textLength="43" x="451.5" y="58.1074">action</text><text fill="#000000" font-family="sans-serif" font-size="14" lengthAdjust="spacing" textLength="66" x="498.5" y="58.1074">: String = "</text><text fill="#000000" font-family="sans-serif" font-size="14" font-weight="bold" lengthAdjust="spacing" textLength="37" x="564.5" y="58.1074">RESP</text><text fill="#000000" font-family="sans-serif" font-size="14" lengthAdjust="spacing" textLength="5" x="601.5" y="58.1074">"</text><text fill="#000000" font-family="sans-serif" font-size="14" font-weight="bold" lengthAdjust="spacing" textLength="34" x="451.5" y="76.7285">body</text><text fill="#000000" font-family="sans-serif" font-size="14" lengthAdjust="spacing" textLength="73" x="489.5" y="76.7285">: RespBody</text><text fill="#000000" font-family="sans-serif" font-size="14" font-weight="bold" lengthAdjust="spacing" textLength="68" x="451.5" y="95.3496">sessionId</text><text fill="#000000" font-family="sans-serif" font-size="14" lengthAdjust="spacing" textLength="45" x="523.5" y="95.3496">: String</text><text fill="#000000" font-family="sans-serif" font-size="14" font-weight="bold" lengthAdjust="spacing" textLength="89" x="451.5" y="113.9707">clientNodeId</text><text fill="#000000" font-family="sans-serif" font-size="14" lengthAdjust="spacing" textLength="45" x="544.5" y="113.9707">: String</text><text fill="#000000" font-family="sans-serif" font-size="14" font-weight="bold" lengthAdjust="spacing" textLength="123" x="451.5" y="132.5918">localReaderName</text><text fill="#000000" font-family="sans-serif" font-size="14" lengthAdjust="spacing" textLength="45" x="578.5" y="132.5918">: String</text><text fill="#000000" font-family="sans-serif" font-size="14" font-weight="bold" lengthAdjust="spacing" textLength="97" x="451.5" y="151.2129">serverNodeId</text><text fill="#000000" font-family="sans-serif" font-size="14" lengthAdjust="spacing" textLength="45" x="552.5" y="151.2129">: String</text><text fill="#000000" font-family="sans-serif" font-size="14" font-weight="bold" lengthAdjust="spacing" textLength="140" x="451.5" y="169.834">remoteReaderName</text><text fill="#000000" font-family="sans-serif" font-size="14" lengthAdjust="spacing" textLength="45" x="595.5" y="169.834">: String</text><line style="stroke:#3498DB;stroke-width:2.0;" x1="446.5" x2="645.5" y1="177.3477" y2="177.3477"/></g><!--class RespBody--><g id="elem_RespBody"><rect codeLine="136" fill="#EBF5FB" height="85.2422" id="RespBody" rx="2.5" ry="2.5" style="stroke:#3498DB;stroke-width:2.0;" width="114" x="489" y="264"/><ellipse cx="511.65" cy="280" fill="#A9DCDF" rx="11" ry="11" style="stroke:#181818;stroke-width:1.0;"/><path d="M513.8375,281.7656 L509.6969,281.7656 L509.275,282.7969 L509.6969,282.7969 Q510.3063,282.7969 510.5719,283.0313 Q510.8375,283.2656 510.8375,283.6563 Q510.8375,284.0313 510.5719,284.2656 Q510.3063,284.5 509.6969,284.5 L507.4,284.5 Q506.7906,284.5 506.5406,284.2656 Q506.275,284.0313 506.275,283.6406 Q506.275,283.2656 506.5563,283.0313 Q506.8219,282.7813 507.4469,282.7969 L510.1188,276.1406 L509.0094,276.1406 Q508.4,276.1406 508.1344,275.9063 Q507.8688,275.6719 507.8688,275.2813 Q507.8688,274.9063 508.1344,274.6719 Q508.4,274.4375 509.0094,274.4375 L512.6813,274.4375 L516.0719,282.7969 Q516.6656,282.7969 516.8531,282.9375 Q517.2438,283.2031 517.2438,283.6563 Q517.2438,284.0313 516.9781,284.2656 Q516.7281,284.5 516.1188,284.5 L513.8219,284.5 Q513.2125,284.5 512.9469,284.2656 Q512.6813,284.0313 512.6813,283.6406 Q512.6813,283.2656 512.9469,283.0313 Q513.2125,282.7969 513.8219,282.7969 L514.2438,282.7969 L513.8375,281.7656 Z M513.1188,280.0625 L511.7594,276.6875 L510.3844,280.0625 L513.1188,280.0625 Z " fill="#000000"/><text fill="#000000" font-family="sans-serif" font-size="14" font-style="italic" lengthAdjust="spacing" textLength="65" x="527.35" y="285.7969">RespBody</text><line style="stroke:#3498DB;stroke-width:2.0;" x1="490" x2="602" y1="296" y2="296"/><text fill="#000000" font-family="sans-serif" font-size="14" font-weight="bold" lengthAdjust="spacing" textLength="53" x="495" y="315.1074">service</text><text fill="#000000" font-family="sans-serif" font-size="14" lengthAdjust="spacing" textLength="45" x="552" y="315.1074">: String</text><text fill="#000000" font-family="sans-serif" font-size="14" font-weight="bold" lengthAdjust="spacing" textLength="36" x="495" y="333.7285">error</text><text fill="#000000" font-family="sans-serif" font-size="14" lengthAdjust="spacing" textLength="48" x="535" y="333.7285">: Error?</text><line style="stroke:#3498DB;stroke-width:2.0;" x1="490" x2="602" y1="341.2422" y2="341.2422"/></g><!--class Error--><g id="elem_Error"><rect codeLine="138" fill="#EBF5FB" height="85.2422" id="Error" rx="2.5" ry="2.5" style="stroke:#3498DB;stroke-width:2.0;" width="124" x="638" y="264"/><ellipse cx="680" cy="280" fill="#ADD1B2" rx="11" ry="11" style="stroke:#181818;stroke-width:1.0;"/><path d="M682.7656,275.875 Q682.9219,275.6563 683.1094,275.5469 Q683.2969,275.4375 683.5156,275.4375 Q683.8906,275.4375 684.125,275.7031 Q684.3594,275.9531 684.3594,276.5625 L684.3594,278.0156 Q684.3594,278.625 684.125,278.8906 Q683.8906,279.1563 683.5156,279.1563 Q683.1719,279.1563 682.9688,278.9531 Q682.7656,278.7656 682.6563,278.25 Q682.6094,277.8906 682.4219,277.7031 Q682.0938,277.3281 681.4844,277.1094 Q680.875,276.8906 680.25,276.8906 Q679.4844,276.8906 678.8438,277.2188 Q678.2188,277.5469 677.7188,278.2969 Q677.2344,279.0469 677.2344,280.0781 L677.2344,281.1719 Q677.2344,282.4063 678.125,283.2344 Q679.0156,284.0469 680.6094,284.0469 Q681.5469,284.0469 682.2031,283.7969 Q682.5938,283.6406 683.0156,283.2031 Q683.2813,282.9375 683.4219,282.8594 Q683.5781,282.7813 683.7813,282.7813 Q684.1094,282.7813 684.3594,283.0469 Q684.625,283.2969 684.625,283.6406 Q684.625,283.9844 684.2813,284.3906 Q683.7813,284.9688 682.9844,285.2969 Q681.9063,285.75 680.6094,285.75 Q679.0938,285.75 677.8906,285.125 Q676.9063,284.625 676.2188,283.5625 Q675.5313,282.4844 675.5313,281.2031 L675.5313,280.0469 Q675.5313,278.7188 676.1406,277.5781 Q676.7656,276.4219 677.8594,275.8125 Q678.9531,275.1875 680.1875,275.1875 Q680.9219,275.1875 681.5625,275.3594 Q682.2188,275.5156 682.7656,275.875 Z " fill="#000000"/><text fill="#000000" font-family="sans-serif" font-size="14" lengthAdjust="spacing" textLength="32" x="700" y="285.7969">Error</text><line style="stroke:#3498DB;stroke-width:2.0;" x1="639" x2="761" y1="296" y2="296"/><text fill="#000000" font-family="sans-serif" font-size="14" font-weight="bold" lengthAdjust="spacing" textLength="35" x="644" y="315.1074">code</text><text fill="#000000" font-family="sans-serif" font-size="14" lengthAdjust="spacing" textLength="45" x="683" y="315.1074">: String</text><text fill="#000000" font-family="sans-serif" font-size="14" font-weight="bold" lengthAdjust="spacing" textLength="63" x="644" y="333.7285">message</text><text fill="#000000" font-family="sans-serif" font-size="14" lengthAdjust="spacing" textLength="45" x="711" y="333.7285">: String</text><line style="stroke:#3498DB;stroke-width:2.0;" x1="639" x2="761" y1="341.2422" y2="341.2422"/></g><!--class IsContactlessRespBody--><g id="elem_IsContactlessRespBody"><rect codeLine="151" fill="#EBF5FB" height="85.2422" id="IsContactlessRespBody" rx="2.5" ry="2.5" style="stroke:#3498DB;stroke-width:2.0;" width="262" x="7" y="410"/><ellipse cx="59.25" cy="426" fill="#ADD1B2" rx="11" ry="11" style="stroke:#181818;stroke-width:1.0;"/><path d="M62.0156,421.875 Q62.1719,421.6563 62.3594,421.5469 Q62.5469,421.4375 62.7656,421.4375 Q63.1406,421.4375 63.375,421.7031 Q63.6094,421.9531 63.6094,422.5625 L63.6094,424.0156 Q63.6094,424.625 63.375,424.8906 Q63.1406,425.1563 62.7656,425.1563 Q62.4219,425.1563 62.2188,424.9531 Q62.0156,424.7656 61.9063,424.25 Q61.8594,423.8906 61.6719,423.7031 Q61.3438,423.3281 60.7344,423.1094 Q60.125,422.8906 59.5,422.8906 Q58.7344,422.8906 58.0938,423.2188 Q57.4688,423.5469 56.9688,424.2969 Q56.4844,425.0469 56.4844,426.0781 L56.4844,427.1719 Q56.4844,428.4063 57.375,429.2344 Q58.2656,430.0469 59.8594,430.0469 Q60.7969,430.0469 61.4531,429.7969 Q61.8438,429.6406 62.2656,429.2031 Q62.5313,428.9375 62.6719,428.8594 Q62.8281,428.7813 63.0313,428.7813 Q63.3594,428.7813 63.6094,429.0469 Q63.875,429.2969 63.875,429.6406 Q63.875,429.9844 63.5313,430.3906 Q63.0313,430.9688 62.2344,431.2969 Q61.1563,431.75 59.8594,431.75 Q58.3438,431.75 57.1406,431.125 Q56.1563,430.625 55.4688,429.5625 Q54.7813,428.4844 54.7813,427.2031 L54.7813,426.0469 Q54.7813,424.7188 55.3906,423.5781 Q56.0156,422.4219 57.1094,421.8125 Q58.2031,421.1875 59.4375,421.1875 Q60.1719,421.1875 60.8125,421.3594 Q61.4688,421.5156 62.0156,421.875 Z " fill="#000000"/><text fill="#000000" font-family="sans-serif" font-size="14" lengthAdjust="spacing" textLength="149" x="79.75" y="431.7969">IsContactlessRespBody</text><line style="stroke:#3498DB;stroke-width:2.0;" x1="8" x2="268" y1="442" y2="442"/><text fill="#000000" font-family="sans-serif" font-size="14" font-weight="bold" lengthAdjust="spacing" textLength="53" x="13" y="461.1074">service</text><text fill="#000000" font-family="sans-serif" font-size="14" lengthAdjust="spacing" textLength="66" x="70" y="461.1074">: String = "</text><text fill="#000000" font-family="sans-serif" font-size="14" font-weight="bold" lengthAdjust="spacing" textLength="122" x="136" y="461.1074">IS_CONTACTLESS</text><text fill="#000000" font-family="sans-serif" font-size="14" lengthAdjust="spacing" textLength="5" x="258" y="461.1074">"</text><text fill="#000000" font-family="sans-serif" font-size="14" font-weight="bold" lengthAdjust="spacing" textLength="41" x="13" y="479.7285">result</text><text fill="#000000" font-family="sans-serif" font-size="14" lengthAdjust="spacing" textLength="68" x="58" y="479.7285">: Boolean?</text><line style="stroke:#3498DB;stroke-width:2.0;" x1="8" x2="268" y1="487.2422" y2="487.2422"/></g><!--class IsCardPresentRespBody--><g id="elem_IsCardPresentRespBody"><rect codeLine="148" fill="#EBF5FB" height="85.2422" id="IsCardPresentRespBody" rx="2.5" ry="2.5" style="stroke:#3498DB;stroke-width:2.0;" width="272" x="304" y="410"/><ellipse cx="358.25" cy="426" fill="#ADD1B2" rx="11" ry="11" style="stroke:#181818;stroke-width:1.0;"/><path d="M361.0156,421.875 Q361.1719,421.6563 361.3594,421.5469 Q361.5469,421.4375 361.7656,421.4375 Q362.1406,421.4375 362.375,421.7031 Q362.6094,421.9531 362.6094,422.5625 L362.6094,424.0156 Q362.6094,424.625 362.375,424.8906 Q362.1406,425.1563 361.7656,425.1563 Q361.4219,425.1563 361.2188,424.9531 Q361.0156,424.7656 360.9063,424.25 Q360.8594,423.8906 360.6719,423.7031 Q360.3438,423.3281 359.7344,423.1094 Q359.125,422.8906 358.5,422.8906 Q357.7344,422.8906 357.0938,423.2188 Q356.4688,423.5469 355.9688,424.2969 Q355.4844,425.0469 355.4844,426.0781 L355.4844,427.1719 Q355.4844,428.4063 356.375,429.2344 Q357.2656,430.0469 358.8594,430.0469 Q359.7969,430.0469 360.4531,429.7969 Q360.8438,429.6406 361.2656,429.2031 Q361.5313,428.9375 361.6719,428.8594 Q361.8281,428.7813 362.0313,428.7813 Q362.3594,428.7813 362.6094,429.0469 Q362.875,429.2969 362.875,429.6406 Q362.875,429.9844 362.5313,430.3906 Q362.0313,430.9688 361.2344,431.2969 Q360.1563,431.75 358.8594,431.75 Q357.3438,431.75 356.1406,431.125 Q355.1563,430.625 354.4688,429.5625 Q353.7813,428.4844 353.7813,427.2031 L353.7813,426.0469 Q353.7813,424.7188 354.3906,423.5781 Q355.0156,422.4219 356.1094,421.8125 Q357.2031,421.1875 358.4375,421.1875 Q359.1719,421.1875 359.8125,421.3594 Q360.4688,421.5156 361.0156,421.875 Z " fill="#000000"/><text fill="#000000" font-family="sans-serif" font-size="14" lengthAdjust="spacing" textLength="155" x="378.75" y="431.7969">IsCardPresentRespBody</text><line style="stroke:#3498DB;stroke-width:2.0;" x1="305" x2="575" y1="442" y2="442"/><text fill="#000000" font-family="sans-serif" font-size="14" font-weight="bold" lengthAdjust="spacing" textLength="53" x="310" y="461.1074">service</text><text fill="#000000" font-family="sans-serif" font-size="14" lengthAdjust="spacing" textLength="66" x="367" y="461.1074">: String = "</text><text fill="#000000" font-family="sans-serif" font-size="14" font-weight="bold" lengthAdjust="spacing" textLength="132" x="433" y="461.1074">IS_CARD_PRESENT</text><text fill="#000000" font-family="sans-serif" font-size="14" lengthAdjust="spacing" textLength="5" x="565" y="461.1074">"</text><text fill="#000000" font-family="sans-serif" font-size="14" font-weight="bold" lengthAdjust="spacing" textLength="41" x="310" y="479.7285">result</text><text fill="#000000" font-family="sans-serif" font-size="14" lengthAdjust="spacing" textLength="68" x="355" y="479.7285">: Boolean?</text><line style="stroke:#3498DB;stroke-width:2.0;" x1="305" x2="575" y1="487.2422" y2="487.2422"/></g><!--class TransmitCardSelectionRequestsRespBody--><g id="elem_TransmitCardSelectionRequestsRespBody"><rect codeLine="142" fill="#EBF5FB" height="85.2422" id="TransmitCardSelectionRequestsRespBody" rx="2.5" ry="2.5" style="stroke:#3498DB;stroke-width:2.0;" width="427" x="611.5" y="410"/><ellipse cx="686.25" cy="426" fill="#ADD1B2" rx="11" ry="11" style="stroke:#181818;stroke-width:1.0;"/><path d="M689.0156,421.875 Q689.1719,421.6563 689.3594,421.5469 Q689.5469,421.4375 689.7656,421.4375 Q690.1406,421.4375 690.375,421.7031 Q690.6094,421.9531 690.6094,422.5625 L690.6094,424.0156 Q690.6094,424.625 690.375,424.8906 Q690.1406,425.1563 689.7656,425.1563 Q689.4219,425.1563 689.2188,424.9531 Q689.0156,424.7656 688.9063,424.25 Q688.8594,423.8906 688.6719,423.7031 Q688.3438,423.3281 687.7344,423.1094 Q687.125,422.8906 686.5,422.8906 Q685.7344,422.8906 685.0938,423.2188 Q684.4688,423.5469 683.9688,424.2969 Q683.4844,425.0469 683.4844,426.0781 L683.4844,427.1719 Q683.4844,428.4063 684.375,429.2344 Q685.2656,430.0469 686.8594,430.0469 Q687.7969,430.0469 688.4531,429.7969 Q688.8438,429.6406 689.2656,429.2031 Q689.5313,428.9375 689.6719,428.8594 Q689.8281,428.7813 690.0313,428.7813 Q690.3594,428.7813 690.6094,429.0469 Q690.875,429.2969 690.875,429.6406 Q690.875,429.9844 690.5313,430.3906 Q690.0313,430.9688 689.2344,431.2969 Q688.1563,431.75 686.8594,431.75 Q685.3438,431.75 684.1406,431.125 Q683.1563,430.625 682.4688,429.5625 Q681.7813,428.4844 681.7813,427.2031 L681.7813,426.0469 Q681.7813,424.7188 682.3906,423.5781 Q683.0156,422.4219 684.1094,421.8125 Q685.2031,421.1875 686.4375,421.1875 Q687.1719,421.1875 687.8125,421.3594 Q688.4688,421.5156 689.0156,421.875 Z " fill="#000000"/><text fill="#000000" font-family="sans-serif" font-size="14" lengthAdjust="spacing" textLength="269" x="706.75" y="431.7969">TransmitCardSelectionRequestsRespBody</text><line style="stroke:#3498DB;stroke-width:2.0;" x1="612.5" x2="1037.5" y1="442" y2="442"/><text fill="#000000" font-family="sans-serif" font-size="14" font-weight="bold" lengthAdjust="spacing" textLength="53" x="617.5" y="461.1074">service</text><text fill="#000000" font-family="sans-serif" font-size="14" lengthAdjust="spacing" textLength="66" x="674.5" y="461.1074">: String = "</text><text fill="#000000" font-family="sans-serif" font-size="14" font-weight="bold" lengthAdjust="spacing" textLength="287" x="740.5" y="461.1074">TRANSMIT_CARD_SELECTION_REQUESTS</text><text fill="#000000" font-family="sans-serif" font-size="14" lengthAdjust="spacing" textLength="5" x="1027.5" y="461.1074">"</text><text fill="#000000" font-family="sans-serif" font-size="14" font-weight="bold" lengthAdjust="spacing" textLength="41" x="617.5" y="479.7285">result</text><text fill="#000000" font-family="sans-serif" font-size="14" lengthAdjust="spacing" textLength="177" x="662.5" y="479.7285">: CardSelectionResponse[]?</text><line style="stroke:#3498DB;stroke-width:2.0;" x1="612.5" x2="1037.5" y1="487.2422" y2="487.2422"/></g><!--class CardSelectionResponse--><g id="elem_CardSelectionResponse"><rect codeLine="143" fill="#EBF5FB" height="122.4844" id="CardSelectionResponse" rx="2.5" ry="2.5" style="stroke:#3498DB;stroke-width:2.0;" width="321" x="725.5" y="556"/><ellipse cx="805.25" cy="572" fill="#ADD1B2" rx="11" ry="11" style="stroke:#181818;stroke-width:1.0;"/><path d="M808.0156,567.875 Q808.1719,567.6563 808.3594,567.5469 Q808.5469,567.4375 808.7656,567.4375 Q809.1406,567.4375 809.375,567.7031 Q809.6094,567.9531 809.6094,568.5625 L809.6094,570.0156 Q809.6094,570.625 809.375,570.8906 Q809.1406,571.1563 808.7656,571.1563 Q808.4219,571.1563 808.2188,570.9531 Q808.0156,570.7656 807.9063,570.25 Q807.8594,569.8906 807.6719,569.7031 Q807.3438,569.3281 806.7344,569.1094 Q806.125,568.8906 805.5,568.8906 Q804.7344,568.8906 804.0938,569.2188 Q803.4688,569.5469 802.9688,570.2969 Q802.4844,571.0469 802.4844,572.0781 L802.4844,573.1719 Q802.4844,574.4063 803.375,575.2344 Q804.2656,576.0469 805.8594,576.0469 Q806.7969,576.0469 807.4531,575.7969 Q807.8438,575.6406 808.2656,575.2031 Q808.5313,574.9375 808.6719,574.8594 Q808.8281,574.7813 809.0313,574.7813 Q809.3594,574.7813 809.6094,575.0469 Q809.875,575.2969 809.875,575.6406 Q809.875,575.9844 809.5313,576.3906 Q809.0313,576.9688 808.2344,577.2969 Q807.1563,577.75 805.8594,577.75 Q804.3438,577.75 803.1406,577.125 Q802.1563,576.625 801.4688,575.5625 Q800.7813,574.4844 800.7813,573.2031 L800.7813,572.0469 Q800.7813,570.7188 801.3906,569.5781 Q802.0156,568.4219 803.1094,567.8125 Q804.2031,567.1875 805.4375,567.1875 Q806.1719,567.1875 806.8125,567.3594 Q807.4688,567.5156 808.0156,567.875 Z " fill="#000000"/><text fill="#000000" font-family="sans-serif" font-size="14" lengthAdjust="spacing" textLength="153" x="825.75" y="577.7969">CardSelectionResponse</text><line style="stroke:#3498DB;stroke-width:2.0;" x1="726.5" x2="1045.5" y1="588" y2="588"/><text fill="#000000" font-family="sans-serif" font-size="14" font-weight="bold" lengthAdjust="spacing" textLength="86" x="731.5" y="607.1074">hasMatched</text><text fill="#000000" font-family="sans-serif" font-size="14" lengthAdjust="spacing" textLength="60" x="821.5" y="607.1074">: Boolean</text><text fill="#000000" font-family="sans-serif" font-size="14" font-weight="bold" lengthAdjust="spacing" textLength="95" x="731.5" y="625.7285">powerOnData</text><text fill="#000000" font-family="sans-serif" font-size="14" lengthAdjust="spacing" textLength="53" x="830.5" y="625.7285">: String?</text><text fill="#000000" font-family="sans-serif" font-size="14" font-weight="bold" lengthAdjust="spacing" textLength="192" x="731.5" y="644.3496">selectApplicationResponse</text><text fill="#000000" font-family="sans-serif" font-size="14" lengthAdjust="spacing" textLength="113" x="927.5" y="644.3496">: ApduResponse?</text><text fill="#000000" font-family="sans-serif" font-size="14" font-weight="bold" lengthAdjust="spacing" textLength="102" x="731.5" y="662.9707">cardResponse</text><text fill="#000000" font-family="sans-serif" font-size="14" lengthAdjust="spacing" textLength="111" x="837.5" y="662.9707">: CardResponse?</text><line style="stroke:#3498DB;stroke-width:2.0;" x1="726.5" x2="1045.5" y1="670.4844" y2="670.4844"/></g><!--class CardResponse--><g id="elem_CardResponse"><rect codeLine="144" fill="#EBF5FB" height="85.2422" id="CardResponse" rx="2.5" ry="2.5" style="stroke:#3498DB;stroke-width:2.0;" width="243" x="1081.5" y="574.5"/><ellipse cx="1151.25" cy="590.5" fill="#ADD1B2" rx="11" ry="11" style="stroke:#181818;stroke-width:1.0;"/><path d="M1154.0156,586.375 Q1154.1719,586.1563 1154.3594,586.0469 Q1154.5469,585.9375 1154.7656,585.9375 Q1155.1406,585.9375 1155.375,586.2031 Q1155.6094,586.4531 1155.6094,587.0625 L1155.6094,588.5156 Q1155.6094,589.125 1155.375,589.3906 Q1155.1406,589.6563 1154.7656,589.6563 Q1154.4219,589.6563 1154.2188,589.4531 Q1154.0156,589.2656 1153.9063,588.75 Q1153.8594,588.3906 1153.6719,588.2031 Q1153.3438,587.8281 1152.7344,587.6094 Q1152.125,587.3906 1151.5,587.3906 Q1150.7344,587.3906 1150.0938,587.7188 Q1149.4688,588.0469 1148.9688,588.7969 Q1148.4844,589.5469 1148.4844,590.5781 L1148.4844,591.6719 Q1148.4844,592.9063 1149.375,593.7344 Q1150.2656,594.5469 1151.8594,594.5469 Q1152.7969,594.5469 1153.4531,594.2969 Q1153.8438,594.1406 1154.2656,593.7031 Q1154.5313,593.4375 1154.6719,593.3594 Q1154.8281,593.2813 1155.0313,593.2813 Q1155.3594,593.2813 1155.6094,593.5469 Q1155.875,593.7969 1155.875,594.1406 Q1155.875,594.4844 1155.5313,594.8906 Q1155.0313,595.4688 1154.2344,595.7969 Q1153.1563,596.25 1151.8594,596.25 Q1150.3438,596.25 1149.1406,595.625 Q1148.1563,595.125 1147.4688,594.0625 Q1146.7813,592.9844 1146.7813,591.7031 L1146.7813,590.5469 Q1146.7813,589.2188 1147.3906,588.0781 Q1148.0156,586.9219 1149.1094,586.3125 Q1150.2031,585.6875 1151.4375,585.6875 Q1152.1719,585.6875 1152.8125,585.8594 Q1153.4688,586.0156 1154.0156,586.375 Z " fill="#000000"/><text fill="#000000" font-family="sans-serif" font-size="14" lengthAdjust="spacing" textLength="95" x="1171.75" y="596.2969">CardResponse</text><line style="stroke:#3498DB;stroke-width:2.0;" x1="1082.5" x2="1323.5" y1="606.5" y2="606.5"/><text fill="#000000" font-family="sans-serif" font-size="14" font-weight="bold" lengthAdjust="spacing" textLength="158" x="1087.5" y="625.6074">isLogicalChannelOpen</text><text fill="#000000" font-family="sans-serif" font-size="14" lengthAdjust="spacing" textLength="60" x="1249.5" y="625.6074">: Boolean</text><text fill="#000000" font-family="sans-serif" font-size="14" font-weight="bold" lengthAdjust="spacing" textLength="114" x="1087.5" y="644.2285">apduResponses</text><text fill="#000000" font-family="sans-serif" font-size="14" lengthAdjust="spacing" textLength="113" x="1205.5" y="644.2285">: ApduResponse[]</text><line style="stroke:#3498DB;stroke-width:2.0;" x1="1082.5" x2="1323.5" y1="651.7422" y2="651.7422"/></g><!--class ApduResponse--><g id="elem_ApduResponse"><rect codeLine="145" fill="#EBF5FB" height="85.2422" id="ApduResponse" rx="2.5" ry="2.5" style="stroke:#3498DB;stroke-width:2.0;" width="141" x="1008.5" y="739"/><ellipse cx="1028.9" cy="755" fill="#ADD1B2" rx="11" ry="11" style="stroke:#181818;stroke-width:1.0;"/><path d="M1031.6656,750.875 Q1031.8219,750.6563 1032.0094,750.5469 Q1032.1969,750.4375 1032.4156,750.4375 Q1032.7906,750.4375 1033.025,750.7031 Q1033.2594,750.9531 1033.2594,751.5625 L1033.2594,753.0156 Q1033.2594,753.625 1033.025,753.8906 Q1032.7906,754.1563 1032.4156,754.1563 Q1032.0719,754.1563 1031.8688,753.9531 Q1031.6656,753.7656 1031.5563,753.25 Q1031.5094,752.8906 1031.3219,752.7031 Q1030.9938,752.3281 1030.3844,752.1094 Q1029.775,751.8906 1029.15,751.8906 Q1028.3844,751.8906 1027.7438,752.2188 Q1027.1188,752.5469 1026.6188,753.2969 Q1026.1344,754.0469 1026.1344,755.0781 L1026.1344,756.1719 Q1026.1344,757.4063 1027.025,758.2344 Q1027.9156,759.0469 1029.5094,759.0469 Q1030.4469,759.0469 1031.1031,758.7969 Q1031.4938,758.6406 1031.9156,758.2031 Q1032.1813,757.9375 1032.3219,757.8594 Q1032.4781,757.7813 1032.6813,757.7813 Q1033.0094,757.7813 1033.2594,758.0469 Q1033.525,758.2969 1033.525,758.6406 Q1033.525,758.9844 1033.1813,759.3906 Q1032.6813,759.9688 1031.8844,760.2969 Q1030.8063,760.75 1029.5094,760.75 Q1027.9938,760.75 1026.7906,760.125 Q1025.8063,759.625 1025.1188,758.5625 Q1024.4313,757.4844 1024.4313,756.2031 L1024.4313,755.0469 Q1024.4313,753.7188 1025.0406,752.5781 Q1025.6656,751.4219 1026.7594,750.8125 Q1027.8531,750.1875 1029.0875,750.1875 Q1029.8219,750.1875 1030.4625,750.3594 Q1031.1188,750.5156 1031.6656,750.875 Z " fill="#000000"/><text fill="#000000" font-family="sans-serif" font-size="14" lengthAdjust="spacing" textLength="97" x="1044.1" y="760.7969">ApduResponse</text><line style="stroke:#3498DB;stroke-width:2.0;" x1="1009.5" x2="1148.5" y1="771" y2="771"/><text fill="#000000" font-family="sans-serif" font-size="14" font-weight="bold" lengthAdjust="spacing" textLength="35" x="1014.5" y="790.1074">apdu</text><text fill="#000000" font-family="sans-serif" font-size="14" lengthAdjust="spacing" textLength="45" x="1053.5" y="790.1074">: String</text><text fill="#000000" font-family="sans-serif" font-size="14" font-weight="bold" lengthAdjust="spacing" textLength="80" x="1014.5" y="808.7285">statusWord</text><text fill="#000000" font-family="sans-serif" font-size="14" lengthAdjust="spacing" textLength="45" x="1098.5" y="808.7285">: String</text><line style="stroke:#3498DB;stroke-width:2.0;" x1="1009.5" x2="1148.5" y1="816.2422" y2="816.2422"/></g><!--class TransmitCardRequestRespBody--><g id="elem_TransmitCardRequestRespBody"><rect codeLine="141" fill="#EBF5FB" height="85.2422" id="TransmitCardRequestRespBody" rx="2.5" ry="2.5" style="stroke:#3498DB;stroke-width:2.0;" width="332" x="1074" y="410"/><ellipse cx="1133.75" cy="426" fill="#ADD1B2" rx="11" ry="11" style="stroke:#181818;stroke-width:1.0;"/><path d="M1136.5156,421.875 Q1136.6719,421.6563 1136.8594,421.5469 Q1137.0469,421.4375 1137.2656,421.4375 Q1137.6406,421.4375 1137.875,421.7031 Q1138.1094,421.9531 1138.1094,422.5625 L1138.1094,424.0156 Q1138.1094,424.625 1137.875,424.8906 Q1137.6406,425.1563 1137.2656,425.1563 Q1136.9219,425.1563 1136.7188,424.9531 Q1136.5156,424.7656 1136.4063,424.25 Q1136.3594,423.8906 1136.1719,423.7031 Q1135.8438,423.3281 1135.2344,423.1094 Q1134.625,422.8906 1134,422.8906 Q1133.2344,422.8906 1132.5938,423.2188 Q1131.9688,423.5469 1131.4688,424.2969 Q1130.9844,425.0469 1130.9844,426.0781 L1130.9844,427.1719 Q1130.9844,428.4063 1131.875,429.2344 Q1132.7656,430.0469 1134.3594,430.0469 Q1135.2969,430.0469 1135.9531,429.7969 Q1136.3438,429.6406 1136.7656,429.2031 Q1137.0313,428.9375 1137.1719,428.8594 Q1137.3281,428.7813 1137.5313,428.7813 Q1137.8594,428.7813 1138.1094,429.0469 Q1138.375,429.2969 1138.375,429.6406 Q1138.375,429.9844 1138.0313,430.3906 Q1137.5313,430.9688 1136.7344,431.2969 Q1135.6563,431.75 1134.3594,431.75 Q1132.8438,431.75 1131.6406,431.125 Q1130.6563,430.625 1129.9688,429.5625 Q1129.2813,428.4844 1129.2813,427.2031 L1129.2813,426.0469 Q1129.2813,424.7188 1129.8906,423.5781 Q1130.5156,422.4219 1131.6094,421.8125 Q1132.7031,421.1875 1133.9375,421.1875 Q1134.6719,421.1875 1135.3125,421.3594 Q1135.9688,421.5156 1136.5156,421.875 Z " fill="#000000"/><text fill="#000000" font-family="sans-serif" font-size="14" lengthAdjust="spacing" textLength="204" x="1154.25" y="431.7969">TransmitCardRequestRespBody</text><line style="stroke:#3498DB;stroke-width:2.0;" x1="1075" x2="1405" y1="442" y2="442"/><text fill="#000000" font-family="sans-serif" font-size="14" font-weight="bold" lengthAdjust="spacing" textLength="53" x="1080" y="461.1074">service</text><text fill="#000000" font-family="sans-serif" font-size="14" lengthAdjust="spacing" textLength="66" x="1137" y="461.1074">: String = "</text><text fill="#000000" font-family="sans-serif" font-size="14" font-weight="bold" lengthAdjust="spacing" textLength="192" x="1203" y="461.1074">TRANSMIT_CARD_REQUEST</text><text fill="#000000" font-family="sans-serif" font-size="14" lengthAdjust="spacing" textLength="5" x="1395" y="461.1074">"</text><text fill="#000000" font-family="sans-serif" font-size="14" font-weight="bold" lengthAdjust="spacing" textLength="41" x="1080" y="479.7285">result</text><text fill="#000000" font-family="sans-serif" font-size="14" lengthAdjust="spacing" textLength="111" x="1125" y="479.7285">: CardResponse?</text><line style="stroke:#3498DB;stroke-width:2.0;" x1="1075" x2="1405" y1="487.2422" y2="487.2422"/></g><!--reverse link RespBody to IsContactlessRespBody--><g id="link_RespBody_IsContactlessRespBody"><path d="M469.862,334.372 C409.769,355.581 324.876,385.544 255.996,409.855 " fill="none" id="RespBody-backto-IsContactlessRespBody" style="stroke:#181818;stroke-width:2.0;"/><polygon fill="none" points="467.65,327.73,488.84,327.674,472.31,340.932,467.65,327.73" style="stroke:#181818;stroke-width:2.0;"/></g><!--reverse link RespBody to IsCardPresentRespBody--><g id="link_RespBody_IsCardPresentRespBody"><path d="M503.333,365.462 C492.374,380.35 480.802,396.07 470.591,409.943 " fill="none" id="RespBody-backto-IsCardPresentRespBody" style="stroke:#181818;stroke-width:2.0;"/><polygon fill="none" points="497.847,361.108,515.34,349.151,509.121,369.407,497.847,361.108" style="stroke:#181818;stroke-width:2.0;"/></g><!--reverse link RespBody to TransmitCardSelectionRequestsRespBody--><g id="link_RespBody_TransmitCardSelectionRequestsRespBody"><path d="M621.074,349.414 C668.399,374.399 706.595,393.602 739.51,409.884 " fill="none" id="RespBody-backto-TransmitCardSelectionRequestsRespBody" style="stroke:#181818;stroke-width:2.0;"/><polygon fill="none" points="617.607,355.498,603.219,339.942,624.167,343.131,617.607,355.498" style="stroke:#181818;stroke-width:2.0;"/></g><!--reverse link RespBody to TransmitCardRequestRespBody--><g id="link_RespBody_TransmitCardRequestRespBody"><path d="M622.329,348.628 C809.303,409.204 869.714,376.021 1056,410 C1061.8,411.058 1067.69,412.172 1073.64,413.329 " fill="none" id="RespBody-backto-TransmitCardRequestRespBody" style="stroke:#181818;stroke-width:2.0;"/><polygon fill="none" points="619.98,355.224,603.22,342.258,624.407,341.942,619.98,355.224" style="stroke:#181818;stroke-width:2.0;"/></g><!--reverse link MessageDto to RespBody--><g id="link_MessageDto_RespBody"><path codeLine="116" d="M546,198.342 C546,221.544 546,244.939 546,263.924 " fill="none" id="MessageDto-backto-RespBody" style="stroke:#3498DB;stroke-width:2.0;"/><polygon fill="#3498DB" points="546,185.121,542,191.121,546,197.121,550,191.121,546,185.121" style="stroke:#3498DB;stroke-width:2.0;"/><text fill="#000000" font-family="sans-serif" font-size="13" lengthAdjust="spacing" textLength="61" x="547" y="230.0283">JsonString</text><text fill="#000000" font-family="sans-serif" font-size="13" lengthAdjust="spacing" textLength="7" x="538.4422" y="252.816">1</text></g><!--reverse link RespBody to Error--><g id="link_RespBody_Error"><path codeLine="118" d="M616.201,306.5 C623.452,306.5 630.703,306.5 637.954,306.5 " fill="none" id="RespBody-backto-Error" style="stroke:#3498DB;stroke-width:2.0;stroke-dasharray:7.0,7.0;"/><polygon fill="#3498DB" points="603.148,306.5,609.148,310.5,615.148,306.5,609.148,302.5,603.148,306.5" style="stroke:#3498DB;stroke-width:2.0;"/><text fill="#000000" font-family="sans-serif" font-size="13" lengthAdjust="spacing" textLength="22" x="607.9646" y="302.6013">0..1</text></g><!--reverse link TransmitCardSelectionRequestsRespBody to CardSelectionResponse--><g id="link_TransmitCardSelectionRequestsRespBody_CardSelectionResponse"><path codeLine="120" d="M845.421,507.899 C851.208,523.315 857.54,540.185 863.446,555.917 " fill="none" id="TransmitCardSelectionRequestsRespBody-backto-CardSelectionResponse" style="stroke:#3498DB;stroke-width:2.0;stroke-dasharray:7.0,7.0;"/><polygon fill="#3498DB" points="840.709,495.348,839.0733,502.3711,844.9271,506.5822,846.5628,499.5591,840.709,495.348" style="stroke:#3498DB;stroke-width:2.0;"/><text fill="#000000" font-family="sans-serif" font-size="13" lengthAdjust="spacing" textLength="20" x="839.6819" y="544.8886">0..*</text></g><!--reverse link CardSelectionResponse to CardResponse--><g id="link_CardSelectionResponse_CardResponse"><path codeLine="122" d="M1059.72,617 C1066.97,617 1074.22,617 1081.48,617 " fill="none" id="CardSelectionResponse-backto-CardResponse" style="stroke:#3498DB;stroke-width:2.0;stroke-dasharray:7.0,7.0;"/><polygon fill="#3498DB" points="1046.67,617,1052.67,621,1058.67,617,1052.67,613,1046.67,617" style="stroke:#3498DB;stroke-width:2.0;"/><text fill="#000000" font-family="sans-serif" font-size="13" lengthAdjust="spacing" textLength="22" x="1051.4046" y="613.5118">0..1</text></g><!--reverse link CardSelectionResponse to ApduResponse--><g id="link_CardSelectionResponse_ApduResponse"><path codeLine="123" d="M967.292,686.446 C988.481,704.286 1010.67,722.97 1029.64,738.9423 " fill="none" id="CardSelectionResponse-backto-ApduResponse" style="stroke:#3498DB;stroke-width:2.0;stroke-dasharray:7.0,7.0;"/><polygon fill="#3498DB" points="957.318,678.047,959.3314,684.9713,966.4975,685.7759,964.4841,678.8516,957.318,678.047" style="stroke:#3498DB;stroke-width:2.0;"/><text fill="#000000" font-family="sans-serif" font-size="13" lengthAdjust="spacing" textLength="22" x="998.0201" y="727.8368">0..1</text></g><!--reverse link CardResponse to ApduResponse--><g id="link_CardResponse_ApduResponse"><path codeLine="125" d="M1163,670.416 C1146.11,692.55 1126.72,717.965 1110.82,738.794 " fill="none" id="CardResponse-backto-ApduResponse" style="stroke:#3498DB;stroke-width:2.0;"/><polygon fill="#3498DB" points="1171.07,659.848,1164.251,662.1936,1163.7935,669.3901,1170.6124,667.0446,1171.07,659.848" style="stroke:#3498DB;stroke-width:2.0;"/><text fill="#000000" font-family="sans-serif" font-size="13" lengthAdjust="spacing" textLength="20" x="1094.2976" y="727.6653">1..*</text></g><!--reverse link TransmitCardRequestRespBody to CardResponse--><g id="link_TransmitCardRequestRespBody_CardResponse"><path codeLine="127" d="M1227.58,508.038 C1222.66,529.663 1217.09,554.127 1212.5,574.294 " fill="none" id="TransmitCardRequestRespBody-backto-CardResponse" style="stroke:#3498DB;stroke-width:2.0;stroke-dasharray:7.0,7.0;"/><polygon fill="#3498DB" points="1230.47,495.348,1225.237,500.3095,1227.8042,507.0481,1233.0371,502.0867,1230.47,495.348" style="stroke:#3498DB;stroke-width:2.0;"/><text fill="#000000" font-family="sans-serif" font-size="13" lengthAdjust="spacing" textLength="22" x="1190.2609" y="563.1653">0..1</text></g><!--SRC=[hLPjR-964FxkNx7bFkJE4YG1SeJeSf6nrrVk2AIOg8fEfsXZRy2DsNLtrqbHrV_UyGl6DWPoJVbaPf-PvvdPyOoFbAy2gXqX-7sZgp2WoFAb4lv3fAY7lZgJCJ9kXYd0vSimy0bJwCLN2zHuIXoQaefdtwNDFyWpQGR-GmCzKo5zpb2xTThgfhvJxDoWz-sJTgTvqccssn-q8yeybD83vF8IpNx5rnWUuA_9eu16GY9VoeXAv55qWHPAXVBY-7YXbe7B0ovSxb7P0bN7Z-9OaOU0agZfqQQRUjUOu57wSzOC0wAEjLyy-kWpYipxBrDyTuhiSxjlzolcDhBRTiVkLimTXCzm3rVHNMJrh85bLSndo3HCssfNp1_Hm38xPgzW7Wt7tr2dsp-t1WNhhODHksVWZoTnhPfDvAXL07LH2wAGnzaHN0aNJ-czCFgItm1_H90hKz4o03TDFlai988iaLHKKAvM8JK6N7XKc755qJkZRvcMNGiSbe23hj73PxL0inpHiau7xLeWBW7neDy1wYG_FBPYlGKlCo1IflZPmdUV69KI5SCQGl2NuX54kgD1m5-seX3tQIvunBoCsSOsDd4zMGQnkePvOa78AVKEnFlqIL3lysS8Qs4Bctl2vaZSwq8VQ0iV6drjt9G9M6yY0Q_QGU8mWINSNMpQlRtS6_0vxdODQqsVsqiA7eBeC7yCIl8Ps6VsO2_x6fhrUiQTMKlCNmIbx23rF4Obt7sxX-szt3asUwSoyhMvohvw3VaguJQWZ_0XxWJQDZluh4YzAZEdCz6SZ6TuF4kdOZ94DJSEYQwXnycSMegZlxLumEewSHMyyheEezA12Sxcw18rT3rsqlL61dhWtYg1JAaC1_0diqk81zv3h-2V7Rc1JvaQmx2jEmsuIu8f9P3Xc2pfDY1U3t2smrtG9LUqtlyVZJp0BeAyK9hqMdEUShPwjiDI60OYCUFuwGfYGVsIvwo0oNCUA5ubsr6MQP7BcY3EqBcFByOmPoFiEEXzNE8FMToXD3bJe1dciym5qxyKhBjNPP3UMfbYSt-2oYXG2Np0EQmtThNHP4oj-niG4tTCLHGHtWqumqs-JLI1unMgPbDZx5mFPwcVWqVOd0qdu_if_kqMExDAxMQ2CBdqLIpMeG5D6dfA_uHF0FM6MXuIiSwZd4X5X0mva_JxZpYnL6qj81Up8FAQA7T1lM9PiiEGlr0nOHPHfA3sAiyZ3cg4yB7bacBm16k4NhGsh3rSa582cGL3MV6MK5-E-1o80dD16AF19AIiHZ8fqCej8Tz_v2H5ysOsWR5cD2YY8laxZCUjLwnyPzbDxUwMh4d-hnx9-6eRl5fQ46j8oLq_kIgfQONHhCEdJEEqiP7nBll2kq1V9MTPmbf-hBU4Fr-e5cgSj5hWbmwfp4dJNlT-wAtKNs_iQD4yNlrnLKIfQzQ-krnphr8Rb1WtwAGwYT1wzBuRBb3L2aptvyYuczocwpCrEBEx4TwxJjSV8JkNJmueRPADzStDcuVwcQbOSQg_dnhGhhFIZHIJ-m-Bfkh-Sxipz_uN]--></g></svg>