<?xml version="1.0" encoding="us-ascii" standalone="no"?><svg xmlns="http://www.w3.org/2000/svg" xmlns:xlink="http://www.w3.org/1999/xlink" contentStyleType="text/css" height="356px" preserveAspectRatio="none" style="width:344px;height:356px;background:#FFFFFF;" version="1.1" viewBox="0 0 344 356" width="344px" zoomAndPan="magnify"><defs/><g><!--class MessageDto--><g id="elem_MessageDto"><rect codeLine="79" fill="#EBF5FB" height="178.3477" id="MessageDto" rx="2.5" ry="2.5" style="stroke:#3498DB;stroke-width:2.0;" width="330" x="7" y="7"/><ellipse cx="128.25" cy="23" fill="#ADD1B2" rx="11" ry="11" style="stroke:#181818;stroke-width:1.0;"/><path d="M131.0156,18.875 Q131.1719,18.6563 131.3594,18.5469 Q131.5469,18.4375 131.7656,18.4375 Q132.1406,18.4375 132.375,18.7031 Q132.6094,18.9531 132.6094,19.5625 L132.6094,21.0156 Q132.6094,21.625 132.375,21.8906 Q132.1406,22.1563 131.7656,22.1563 Q131.4219,22.1563 131.2188,21.9531 Q131.0156,21.7656 130.9063,21.25 Q130.8594,20.8906 130.6719,20.7031 Q130.3438,20.3281 129.7344,20.1094 Q129.125,19.8906 128.5,19.8906 Q127.7344,19.8906 127.0938,20.2188 Q126.4688,20.5469 125.9688,21.2969 Q125.4844,22.0469 125.4844,23.0781 L125.4844,24.1719 Q125.4844,25.4063 126.375,26.2344 Q127.2656,27.0469 128.8594,27.0469 Q129.7969,27.0469 130.4531,26.7969 Q130.8438,26.6406 131.2656,26.2031 Q131.5313,25.9375 131.6719,25.8594 Q131.8281,25.7813 132.0313,25.7813 Q132.3594,25.7813 132.6094,26.0469 Q132.875,26.2969 132.875,26.6406 Q132.875,26.9844 132.5313,27.3906 Q132.0313,27.9688 131.2344,28.2969 Q130.1563,28.75 128.8594,28.75 Q127.3438,28.75 126.1406,28.125 Q125.1563,27.625 124.4688,26.5625 Q123.7813,25.4844 123.7813,24.2031 L123.7813,23.0469 Q123.7813,21.7188 124.3906,20.5781 Q125.0156,19.4219 126.1094,18.8125 Q127.2031,18.1875 128.4375,18.1875 Q129.1719,18.1875 129.8125,18.3594 Q130.4688,18.5156 131.0156,18.875 Z " fill="#000000"/><text fill="#000000" font-family="sans-serif" font-size="14" lengthAdjust="spacing" textLength="79" x="148.75" y="28.7969">MessageDto</text><line style="stroke:#3498DB;stroke-width:2.0;" x1="8" x2="336" y1="39" y2="39"/><text fill="#000000" font-family="sans-serif" font-size="14" font-weight="bold" lengthAdjust="spacing" textLength="43" x="13" y="58.1074">action</text><text fill="#000000" font-family="sans-serif" font-size="14" lengthAdjust="spacing" textLength="66" x="60" y="58.1074">: String = "</text><text fill="#000000" font-family="sans-serif" font-size="14" font-weight="bold" lengthAdjust="spacing" textLength="200" x="126" y="58.1074">EXECUTE_REMOTE_SERVICE</text><text fill="#000000" font-family="sans-serif" font-size="14" lengthAdjust="spacing" textLength="5" x="326" y="58.1074">"</text><text fill="#000000" font-family="sans-serif" font-size="14" font-weight="bold" lengthAdjust="spacing" textLength="34" x="13" y="76.7285">body</text><text fill="#000000" font-family="sans-serif" font-size="14" lengthAdjust="spacing" textLength="45" x="51" y="76.7285">: String</text><text fill="#000000" font-family="sans-serif" font-size="14" font-weight="bold" lengthAdjust="spacing" textLength="68" x="13" y="95.3496">sessionId</text><text fill="#000000" font-family="sans-serif" font-size="14" lengthAdjust="spacing" textLength="45" x="85" y="95.3496">: String</text><text fill="#000000" font-family="sans-serif" font-size="14" font-weight="bold" lengthAdjust="spacing" textLength="89" x="13" y="113.9707">clientNodeId</text><text fill="#000000" font-family="sans-serif" font-size="14" lengthAdjust="spacing" textLength="45" x="106" y="113.9707">: String</text><text fill="#000000" font-family="sans-serif" font-size="14" font-weight="bold" lengthAdjust="spacing" textLength="123" x="13" y="132.5918">localReaderName</text><text fill="#000000" font-family="sans-serif" font-size="14" lengthAdjust="spacing" textLength="45" x="140" y="132.5918">: String</text><text fill="#808080" font-family="sans-serif" font-size="14" font-weight="bold" lengthAdjust="spacing" textLength="97" x="13" y="151.2129">serverNodeId</text><text fill="#808080" font-family="sans-serif" font-size="14" lengthAdjust="spacing" textLength="30" x="114" y="151.2129">: null</text><text fill="#808080" font-family="sans-serif" font-size="14" font-weight="bold" lengthAdjust="spacing" textLength="140" x="13" y="169.834">remoteReaderName</text><text fill="#808080" font-family="sans-serif" font-size="14" lengthAdjust="spacing" textLength="30" x="157" y="169.834">: null</text><line style="stroke:#3498DB;stroke-width:2.0;" x1="8" x2="336" y1="177.3477" y2="177.3477"/></g><!--class ExecuteRemoteServiceBody--><g id="elem_ExecuteRemoteServiceBody"><rect codeLine="80" fill="#EBF5FB" height="85.2422" id="ExecuteRemoteServiceBody" rx="2.5" ry="2.5" style="stroke:#3498DB;stroke-width:2.0;" width="210" x="67" y="264"/><ellipse cx="82" cy="280" fill="#ADD1B2" rx="11" ry="11" style="stroke:#181818;stroke-width:1.0;"/><path d="M84.7656,275.875 Q84.9219,275.6563 85.1094,275.5469 Q85.2969,275.4375 85.5156,275.4375 Q85.8906,275.4375 86.125,275.7031 Q86.3594,275.9531 86.3594,276.5625 L86.3594,278.0156 Q86.3594,278.625 86.125,278.8906 Q85.8906,279.1563 85.5156,279.1563 Q85.1719,279.1563 84.9688,278.9531 Q84.7656,278.7656 84.6563,278.25 Q84.6094,277.8906 84.4219,277.7031 Q84.0938,277.3281 83.4844,277.1094 Q82.875,276.8906 82.25,276.8906 Q81.4844,276.8906 80.8438,277.2188 Q80.2188,277.5469 79.7188,278.2969 Q79.2344,279.0469 79.2344,280.0781 L79.2344,281.1719 Q79.2344,282.4063 80.125,283.2344 Q81.0156,284.0469 82.6094,284.0469 Q83.5469,284.0469 84.2031,283.7969 Q84.5938,283.6406 85.0156,283.2031 Q85.2813,282.9375 85.4219,282.8594 Q85.5781,282.7813 85.7813,282.7813 Q86.1094,282.7813 86.3594,283.0469 Q86.625,283.2969 86.625,283.6406 Q86.625,283.9844 86.2813,284.3906 Q85.7813,284.9688 84.9844,285.2969 Q83.9063,285.75 82.6094,285.75 Q81.0938,285.75 79.8906,285.125 Q78.9063,284.625 78.2188,283.5625 Q77.5313,282.4844 77.5313,281.2031 L77.5313,280.0469 Q77.5313,278.7188 78.1406,277.5781 Q78.7656,276.4219 79.8594,275.8125 Q80.9531,275.1875 82.1875,275.1875 Q82.9219,275.1875 83.5625,275.3594 Q84.2188,275.5156 84.7656,275.875 Z " fill="#000000"/><text fill="#000000" font-family="sans-serif" font-size="14" lengthAdjust="spacing" textLength="178" x="96" y="285.7969">ExecuteRemoteServiceBody</text><line style="stroke:#3498DB;stroke-width:2.0;" x1="68" x2="276" y1="296" y2="296"/><text fill="#000000" font-family="sans-serif" font-size="14" font-weight="bold" lengthAdjust="spacing" textLength="66" x="73" y="315.1074">serviceId</text><text fill="#000000" font-family="sans-serif" font-size="14" lengthAdjust="spacing" textLength="45" x="143" y="315.1074">: String</text><text fill="#000000" font-family="sans-serif" font-size="14" font-weight="bold" lengthAdjust="spacing" textLength="67" x="73" y="333.7285">inputData</text><text fill="#000000" font-family="sans-serif" font-size="14" lengthAdjust="spacing" textLength="57" x="144" y="333.7285">: Object?</text><line style="stroke:#3498DB;stroke-width:2.0;" x1="68" x2="276" y1="341.2422" y2="341.2422"/></g><!--reverse link MessageDto to ExecuteRemoteServiceBody--><g id="link_MessageDto_ExecuteRemoteServiceBody"><path codeLine="72" d="M172,198.342 C172,221.544 172,244.939 172,263.9242 " fill="none" id="MessageDto-backto-ExecuteRemoteServiceBody" style="stroke:#3498DB;stroke-width:2.0;"/><polygon fill="#3498DB" points="172,185.121,168,191.121,172,197.121,176,191.121,172,185.121" style="stroke:#3498DB;stroke-width:2.0;"/><text fill="#000000" font-family="sans-serif" font-size="13" lengthAdjust="spacing" textLength="61" x="173" y="230.0283">JsonString</text><text fill="#000000" font-family="sans-serif" font-size="13" lengthAdjust="spacing" textLength="7" x="164.4422" y="252.816">1</text></g><!--SRC=[ZPLTSzeu58Rl_Ikqz2Axdd58Z0aXaxHZItAMDe4Ea9tcgYFi4t0H5YF9oJ8x_U-LFo26k66v0OxUypxIEVBnYKuq1-i4cSyNsAmv898eBPDPfY56doUZ8VA_3af195Phdh1KevT4Br1hMIGu2kHp4e7pWpqpXoUp5de6gHAH8lVq_DGhS-atYX-czFkOte_CruIE_nbWYlvqpzoESzPnNFSlwmJI69KRCaatDsZwDxsdveVvYqN68PCA9Kfbe50Cw0ejj5whgtPxeLSy4bp8ICIWJiq-sq-ohTcC0ykS69oep6u8cPygcQVEcZFTjlw8uIb90U7ljsFwU8x2ox0VzW_2BWhTi1Dw1-4EebtQeuTg3v4U2GWv27SHzd58t8Fm1Ge8xk1UBNmt67v17Qz_IO9Qz652aTlpwSLPNYl7GHEzuQOkUi4qYaLwOfeavBBiL0elkvw89sJEckfinKsQfPP9kcQIhP3I847epHhyGCWO9CuhYZxuVO99s2WSx0a3p-_HRgCGxpiISXwuZKAw9wH1lsFGnVdeaEJxhMLXpfGgzTD54YrJK0hLRNqfnKjzoJWz0kVYvOqBYvPpAR8qhiWX3IccpR1AGZmVdn5ZEORuYD_rjOJuuqTZIoYX-1tRdPBsF7CFh4LYBles-5ecG_sQIVFm7GMl2rd1zYWEU- -oNyMNrFDyiiNludixcF7iE3yN5US9mcuOl4lVIgkxNh6hw1xvLWAaHz7pN5Mm-s6FXk-oTzhgcQhWs_0XVVD_u9k2xPjxH8-n2wcBExHRHs_soULCnAFXb0wdvLJypLYreXo2xisjPtCWMg3_h7m8spQBj1a2jcs6vyHC-NIERb3BjfjjRBjLfSr4lAabLL5b_8tR87wx5F44KZqquxXfbOk8yJ4mKuCXMy6XuBgOvLT51NAADBEhPfLcd3Ve9Ao4XWFNGlkpgWVz5w8ib-J2IVdM2ip9TjMftcHDMpRjopHXcXLBezaFYFGdusnwu2ibeeJbXLMMLIkwRSPMwxprU-w7QhfVeSzAf1MlRFET_pXwABjS1YRJnxloNVYckTk7vDWnTxfV]--></g></svg>