<?xml version="1.0" encoding="UTF-8" standalone="no"?><svg xmlns="http://www.w3.org/2000/svg" xmlns:xlink="http://www.w3.org/1999/xlink" contentScriptType="application/ecmascript" contentStyleType="text/css" height="1712.5px" preserveAspectRatio="none" style="width:2705px;height:1712px;" version="1.1" viewBox="0 0 2705 1712" width="2705px" zoomAndPan="magnify"><defs/><g><text fill="#000000" font-family="sans-serif" font-size="45" lengthAdjust="spacingAndGlyphs" textLength="1030" x="821.25" y="46.7139">Keyple Distributed Network API - 1.0.0 (03/11/2020)</text><!--MD5=[f7217341b3bb6bbf768c7f0e049f8d09]
cluster Legend--><polygon fill="#FFFFFF" points="387.5,71.6016,535,71.6016,552.5,130.625,2442.5,130.625,2442.5,599.1016,387.5,599.1016,387.5,71.6016" style="stroke: #000000; stroke-width: 3.75;"/><line style="stroke: #000000; stroke-width: 3.75;" x1="387.5" x2="552.5" y1="130.625" y2="130.625"/><text fill="#000000" font-family="sans-serif" font-size="35" font-weight="bold" lengthAdjust="spacingAndGlyphs" textLength="132.5" x="397.5" y="112.9346">Legend</text><!--MD5=[3fb92fba1735106d511c1d05a9f83ed2]
cluster root--><polygon fill="#F8F9F9" points="40,681.6016,580,681.6016,597.5,740.625,2662.5,740.625,2662.5,1696.6016,40,1696.6016,40,681.6016" style="stroke: #000000; stroke-width: 3.75;"/><line style="stroke: #000000; stroke-width: 3.75;" x1="40" x2="597.5" y1="740.625" y2="740.625"/><text fill="#000000" font-family="sans-serif" font-size="35" font-weight="bold" lengthAdjust="spacingAndGlyphs" textLength="525" x="50" y="722.9346">org.eclipse.keyple.distributed</text><!--MD5=[f7e0e2453c87923036c1ac2adfb9cbf0]
cluster spi--><polygon fill="#E5E7E9" points="100,1237.8516,167.5,1237.8516,185,1296.875,2102.5,1296.875,2102.5,1592.8516,100,1592.8516,100,1237.8516" style="stroke: #000000; stroke-width: 3.75;"/><line style="stroke: #000000; stroke-width: 3.75;" x1="100" x2="185" y1="1296.875" y2="1296.875"/><text fill="#000000" font-family="sans-serif" font-size="35" font-weight="bold" lengthAdjust="spacingAndGlyphs" textLength="52.5" x="110" y="1279.1846">spi</text><!--MD5=[5c5c6b350adbda18185f83d130fdf3f8]
class syncNodeApi--><rect codeLine="48" fill="#FEFECE" height="120" id="syncNodeApi" style="stroke: #D4AC0D; stroke-width: 3.75;" width="87.5" x="1678.75" y="430.3516"/><ellipse cx="1716.25" cy="470.3516" fill="#B4A7E5" rx="27.5" ry="27.5" style="stroke: #B4A7E5; stroke-width: 2.5;"/><path d="M1718.75,462.8516 L1718.75,477.8516 L1723.75,477.8516 L1724.9609,477.8516 L1726.25,479.4141 L1726.25,480.3516 L1726.25,481.2891 L1724.9609,482.8516 L1723.75,482.8516 L1708.75,482.8516 L1707.5391,482.8516 L1706.25,481.2891 L1706.25,480.3516 L1706.25,479.4141 L1707.5391,477.8516 L1708.75,477.8516 L1713.75,477.8516 L1713.75,462.8516 L1708.75,462.8516 L1707.5391,462.8516 L1706.25,461.2891 L1706.25,460.3516 L1706.25,459.4141 L1707.5391,457.8516 L1708.75,457.8516 L1723.75,457.8516 L1724.9609,457.8516 L1726.25,459.4141 L1726.25,460.3516 L1726.25,461.2891 L1724.9609,462.8516 L1723.75,462.8516 L1718.75,462.8516 Z " fill="#000000"/><text fill="#000000" font-family="sans-serif" font-size="30" font-style="italic" lengthAdjust="spacingAndGlyphs" textLength="0" x="1758.75" y="482.627"/><line style="stroke: #D4AC0D; stroke-width: 3.75;" x1="1681.25" x2="1763.75" y1="510.3516" y2="510.3516"/><line style="stroke: #D4AC0D; stroke-width: 3.75;" x1="1681.25" x2="1763.75" y1="530.3516" y2="530.3516"/><path d="M1578.75,182.8516 L1578.75,248.7305 A0,0 0 0 0 1578.75,248.7305 L1712.5,248.7305 L1722.5,429.8791 L1732.5,248.7305 L1866.25,248.7305 A0,0 0 0 0 1866.25,248.7305 L1866.25,207.8516 L1841.25,182.8516 L1578.75,182.8516 A0,0 0 0 0 1578.75,182.8516 " fill="#FBFB77" style="stroke: #A80036; stroke-width: 2.5;"/><path d="M1841.25,182.8516 L1841.25,207.8516 L1866.25,207.8516 L1841.25,182.8516 " fill="#FBFB77" style="stroke: #A80036; stroke-width: 2.5;"/><text fill="#000000" font-family="sans-serif" font-size="32.5" font-weight="bold" lengthAdjust="spacingAndGlyphs" textLength="235" x="1593.75" y="229.0894">Sync Node API</text><!--MD5=[23099d145a94a232b0aa4aeb0346cc05]
class asyncNodeApi--><rect codeLine="50" fill="#FDEDEC" height="120" id="asyncNodeApi" style="stroke: #E74C3C; stroke-width: 3.75;" width="87.5" x="1091.25" y="430.3516"/><ellipse cx="1128.75" cy="470.3516" fill="#B4A7E5" rx="27.5" ry="27.5" style="stroke: #B4A7E5; stroke-width: 2.5;"/><path d="M1131.25,462.8516 L1131.25,477.8516 L1136.25,477.8516 L1137.4609,477.8516 L1138.75,479.4141 L1138.75,480.3516 L1138.75,481.2891 L1137.4609,482.8516 L1136.25,482.8516 L1121.25,482.8516 L1120.0391,482.8516 L1118.75,481.2891 L1118.75,480.3516 L1118.75,479.4141 L1120.0391,477.8516 L1121.25,477.8516 L1126.25,477.8516 L1126.25,462.8516 L1121.25,462.8516 L1120.0391,462.8516 L1118.75,461.2891 L1118.75,460.3516 L1118.75,459.4141 L1120.0391,457.8516 L1121.25,457.8516 L1136.25,457.8516 L1137.4609,457.8516 L1138.75,459.4141 L1138.75,460.3516 L1138.75,461.2891 L1137.4609,462.8516 L1136.25,462.8516 L1131.25,462.8516 Z " fill="#000000"/><text fill="#000000" font-family="sans-serif" font-size="30" font-style="italic" lengthAdjust="spacingAndGlyphs" textLength="0" x="1171.25" y="482.627"/><line style="stroke: #E74C3C; stroke-width: 3.75;" x1="1093.75" x2="1176.25" y1="510.3516" y2="510.3516"/><line style="stroke: #E74C3C; stroke-width: 3.75;" x1="1093.75" x2="1176.25" y1="530.3516" y2="530.3516"/><path d="M1188.75,182.8516 L1188.75,248.7305 A0,0 0 0 0 1188.75,248.7305 L1306.485,248.7305 L1179.0175,429.8791 L1326.485,248.7305 L1491.25,248.7305 A0,0 0 0 0 1491.25,248.7305 L1491.25,207.8516 L1466.25,182.8516 L1188.75,182.8516 A0,0 0 0 0 1188.75,182.8516 " fill="#FBFB77" style="stroke: #A80036; stroke-width: 2.5;"/><path d="M1466.25,182.8516 L1466.25,207.8516 L1491.25,207.8516 L1466.25,182.8516 " fill="#FBFB77" style="stroke: #A80036; stroke-width: 2.5;"/><text fill="#000000" font-family="sans-serif" font-size="32.5" font-weight="bold" lengthAdjust="spacingAndGlyphs" textLength="250" x="1203.75" y="229.0894">Async Node API</text><!--MD5=[cd9952de578a78d767c6a3ef89d01436]
class dtoApi--><rect codeLine="52" fill="#EAECEE" height="120" id="dtoApi" style="stroke: #2C3E50; stroke-width: 3.75;" width="87.5" x="2228.75" y="430.3516"/><ellipse cx="2266.25" cy="470.3516" fill="#B4A7E5" rx="27.5" ry="27.5" style="stroke: #B4A7E5; stroke-width: 2.5;"/><path d="M2268.75,462.8516 L2268.75,477.8516 L2273.75,477.8516 L2274.9609,477.8516 L2276.25,479.4141 L2276.25,480.3516 L2276.25,481.2891 L2274.9609,482.8516 L2273.75,482.8516 L2258.75,482.8516 L2257.5391,482.8516 L2256.25,481.2891 L2256.25,480.3516 L2256.25,479.4141 L2257.5391,477.8516 L2258.75,477.8516 L2263.75,477.8516 L2263.75,462.8516 L2258.75,462.8516 L2257.5391,462.8516 L2256.25,461.2891 L2256.25,460.3516 L2256.25,459.4141 L2257.5391,457.8516 L2258.75,457.8516 L2273.75,457.8516 L2274.9609,457.8516 L2276.25,459.4141 L2276.25,460.3516 L2276.25,461.2891 L2274.9609,462.8516 L2273.75,462.8516 L2268.75,462.8516 Z " fill="#000000"/><text fill="#000000" font-family="sans-serif" font-size="30" font-style="italic" lengthAdjust="spacingAndGlyphs" textLength="0" x="2308.75" y="482.627"/><line style="stroke: #2C3E50; stroke-width: 3.75;" x1="2231.25" x2="2313.75" y1="510.3516" y2="510.3516"/><line style="stroke: #2C3E50; stroke-width: 3.75;" x1="2231.25" x2="2313.75" y1="530.3516" y2="530.3516"/><path d="M1953.75,182.8516 L1953.75,248.7305 A0,0 0 0 0 1953.75,248.7305 L2178.3975,248.7305 L2252.1025,429.8791 L2198.3975,248.7305 L2401.25,248.7305 A0,0 0 0 0 2401.25,248.7305 L2401.25,207.8516 L2376.25,182.8516 L1953.75,182.8516 A0,0 0 0 0 1953.75,182.8516 " fill="#FBFB77" style="stroke: #A80036; stroke-width: 2.5;"/><path d="M2376.25,182.8516 L2376.25,207.8516 L2401.25,207.8516 L2376.25,182.8516 " fill="#FBFB77" style="stroke: #A80036; stroke-width: 2.5;"/><text fill="#000000" font-family="sans-serif" font-size="32.5" font-weight="bold" lengthAdjust="spacingAndGlyphs" textLength="67.5" x="1968.75" y="229.0894">DTO</text><text fill="#000000" font-family="sans-serif" font-size="32.5" lengthAdjust="spacingAndGlyphs" textLength="317.5" x="2046.25" y="229.0894">(Data Transfer Object)</text><path d="M428.75,161.6016 L428.75,268.3594 L1101.25,268.3594 L1101.25,186.6016 L1076.25,161.6016 L428.75,161.6016 " fill="#FBFB77" style="stroke: #A80036; stroke-width: 2.5;"/><path d="M1076.25,161.6016 L1076.25,186.6016 L1101.25,186.6016 L1076.25,161.6016 " fill="#FBFB77" style="stroke: #A80036; stroke-width: 2.5;"/><text fill="#000000" font-family="sans-serif" font-size="32.5" lengthAdjust="spacingAndGlyphs" textLength="127.5" x="443.75" y="207.8394">Contains</text><text fill="#000000" font-family="sans-serif" font-size="32.5" font-weight="bold" lengthAdjust="spacingAndGlyphs" textLength="55" x="581.25" y="207.8394">SPI</text><text fill="#000000" font-family="sans-serif" font-size="32.5" lengthAdjust="spacingAndGlyphs" textLength="427.5" x="636.25" y="207.8394">s (Service Provider Interfaces)</text><text fill="#000000" font-family="sans-serif" font-size="32.5" lengthAdjust="spacingAndGlyphs" textLength="577.5" x="453.75" y="248.7183">which must be implemented by the user</text><polygon fill="#E5E7E9" points="713.75,421.6016,781.25,421.6016,798.75,480.625,816.25,480.625,816.25,559.6484,713.75,559.6484,713.75,421.6016" style="stroke: #000000; stroke-width: 3.75;"/><line style="stroke: #000000; stroke-width: 3.75;" x1="713.75" x2="798.75" y1="480.625" y2="480.625"/><text fill="#000000" font-family="sans-serif" font-size="35" font-weight="bold" lengthAdjust="spacingAndGlyphs" textLength="52.5" x="723.75" y="462.9346">spi</text><!--MD5=[f5644b98fc2cac15db0816ab2936d10f]
class AsyncNodeClient--><rect codeLine="60" fill="#FDEDEC" height="258.3594" id="AsyncNodeClient" style="stroke: #E74C3C; stroke-width: 3.75;" width="645" x="812.5" y="771.6016"/><ellipse cx="991.875" cy="811.6016" fill="#B4A7E5" rx="27.5" ry="27.5" style="stroke: #B4A7E5; stroke-width: 2.5;"/><path d="M994.375,804.1016 L994.375,819.1016 L999.375,819.1016 L1000.5859,819.1016 L1001.875,820.6641 L1001.875,821.6016 L1001.875,822.5391 L1000.5859,824.1016 L999.375,824.1016 L984.375,824.1016 L983.1641,824.1016 L981.875,822.5391 L981.875,821.6016 L981.875,820.6641 L983.1641,819.1016 L984.375,819.1016 L989.375,819.1016 L989.375,804.1016 L984.375,804.1016 L983.1641,804.1016 L981.875,802.5391 L981.875,801.6016 L981.875,800.6641 L983.1641,799.1016 L984.375,799.1016 L999.375,799.1016 L1000.5859,799.1016 L1001.875,800.6641 L1001.875,801.6016 L1001.875,802.5391 L1000.5859,804.1016 L999.375,804.1016 L994.375,804.1016 Z " fill="#000000"/><ellipse cx="1055.625" cy="810.3516" fill="#84BE84" rx="7.5" ry="7.5" style="stroke: #038048; stroke-width: 2.5;"/><text fill="#000000" font-family="sans-serif" font-size="30" font-style="italic" lengthAdjust="spacingAndGlyphs" textLength="237.5" x="1070.625" y="823.877">AsyncNodeClient</text><line style="stroke: #E74C3C; stroke-width: 3.75;" x1="815" x2="1455" y1="851.6016" y2="851.6016"/><line style="stroke: #E74C3C; stroke-width: 3.75;" x1="815" x2="1455" y1="871.6016" y2="871.6016"/><ellipse cx="840" cy="899.1016" fill="#84BE84" rx="7.5" ry="7.5" style="stroke: #038048; stroke-width: 2.5;"/><text fill="#000000" font-family="sans-serif" font-size="27.5" lengthAdjust="spacingAndGlyphs" textLength="372.5" x="862.5" y="910.1489">void onOpen (String sessionId)</text><ellipse cx="840" cy="933.6914" fill="#84BE84" rx="7.5" ry="7.5" style="stroke: #038048; stroke-width: 2.5;"/><text fill="#000000" font-family="sans-serif" font-size="27.5" lengthAdjust="spacingAndGlyphs" textLength="432.5" x="862.5" y="944.7388">void onMessage (MessageDto msg)</text><ellipse cx="840" cy="968.2813" fill="#84BE84" rx="7.5" ry="7.5" style="stroke: #038048; stroke-width: 2.5;"/><text fill="#000000" font-family="sans-serif" font-size="27.5" lengthAdjust="spacingAndGlyphs" textLength="375" x="862.5" y="979.3286">void onClose (String sessionId)</text><ellipse cx="840" cy="1002.8711" fill="#84BE84" rx="7.5" ry="7.5" style="stroke: #038048; stroke-width: 2.5;"/><text fill="#000000" font-family="sans-serif" font-size="27.5" lengthAdjust="spacingAndGlyphs" textLength="580" x="862.5" y="1013.9185">void onError (String sessionId, Throwable error)</text><!--MD5=[0a2f2fb2edeec6d0e98aba29aa655f31]
class AsyncNodeServer--><rect codeLine="66" fill="#FDEDEC" height="189.1797" id="AsyncNodeServer" style="stroke: #E74C3C; stroke-width: 3.75;" width="645" x="80" y="805.3516"/><ellipse cx="254.375" cy="845.3516" fill="#B4A7E5" rx="27.5" ry="27.5" style="stroke: #B4A7E5; stroke-width: 2.5;"/><path d="M256.875,837.8516 L256.875,852.8516 L261.875,852.8516 L263.0859,852.8516 L264.375,854.4141 L264.375,855.3516 L264.375,856.2891 L263.0859,857.8516 L261.875,857.8516 L246.875,857.8516 L245.6641,857.8516 L244.375,856.2891 L244.375,855.3516 L244.375,854.4141 L245.6641,852.8516 L246.875,852.8516 L251.875,852.8516 L251.875,837.8516 L246.875,837.8516 L245.6641,837.8516 L244.375,836.2891 L244.375,835.3516 L244.375,834.4141 L245.6641,832.8516 L246.875,832.8516 L261.875,832.8516 L263.0859,832.8516 L264.375,834.4141 L264.375,835.3516 L264.375,836.2891 L263.0859,837.8516 L261.875,837.8516 L256.875,837.8516 Z " fill="#000000"/><ellipse cx="318.125" cy="844.1016" fill="#84BE84" rx="7.5" ry="7.5" style="stroke: #038048; stroke-width: 2.5;"/><text fill="#000000" font-family="sans-serif" font-size="30" font-style="italic" lengthAdjust="spacingAndGlyphs" textLength="247.5" x="333.125" y="857.627">AsyncNodeServer</text><line style="stroke: #E74C3C; stroke-width: 3.75;" x1="82.5" x2="722.5" y1="885.3516" y2="885.3516"/><line style="stroke: #E74C3C; stroke-width: 3.75;" x1="82.5" x2="722.5" y1="905.3516" y2="905.3516"/><ellipse cx="107.5" cy="932.8516" fill="#84BE84" rx="7.5" ry="7.5" style="stroke: #038048; stroke-width: 2.5;"/><text fill="#000000" font-family="sans-serif" font-size="27.5" lengthAdjust="spacingAndGlyphs" textLength="432.5" x="130" y="943.8989">void onMessage (MessageDto msg)</text><ellipse cx="107.5" cy="967.4414" fill="#84BE84" rx="7.5" ry="7.5" style="stroke: #038048; stroke-width: 2.5;"/><text fill="#000000" font-family="sans-serif" font-size="27.5" lengthAdjust="spacingAndGlyphs" textLength="580" x="130" y="978.4888">void onError (String sessionId, Throwable error)</text><!--MD5=[93e80188d33ab05d87f81cd0d94a3bc4]
class SyncNodeClient--><rect codeLine="70" fill="#FEFECE" height="120" id="SyncNodeClient" style="stroke: #D4AC0D; stroke-width: 3.75;" width="330" x="1545" y="840.3516"/><ellipse cx="1582.5" cy="880.3516" fill="#B4A7E5" rx="27.5" ry="27.5" style="stroke: #B4A7E5; stroke-width: 2.5;"/><path d="M1585,872.8516 L1585,887.8516 L1590,887.8516 L1591.2109,887.8516 L1592.5,889.4141 L1592.5,890.3516 L1592.5,891.2891 L1591.2109,892.8516 L1590,892.8516 L1575,892.8516 L1573.7891,892.8516 L1572.5,891.2891 L1572.5,890.3516 L1572.5,889.4141 L1573.7891,887.8516 L1575,887.8516 L1580,887.8516 L1580,872.8516 L1575,872.8516 L1573.7891,872.8516 L1572.5,871.2891 L1572.5,870.3516 L1572.5,869.4141 L1573.7891,867.8516 L1575,867.8516 L1590,867.8516 L1591.2109,867.8516 L1592.5,869.4141 L1592.5,870.3516 L1592.5,871.2891 L1591.2109,872.8516 L1590,872.8516 L1585,872.8516 Z " fill="#000000"/><ellipse cx="1630" cy="879.1016" fill="#84BE84" rx="7.5" ry="7.5" style="stroke: #038048; stroke-width: 2.5;"/><text fill="#000000" font-family="sans-serif" font-size="30" font-style="italic" lengthAdjust="spacingAndGlyphs" textLength="222.5" x="1645" y="892.627">SyncNodeClient</text><line style="stroke: #D4AC0D; stroke-width: 3.75;" x1="1547.5" x2="1872.5" y1="920.3516" y2="920.3516"/><line style="stroke: #D4AC0D; stroke-width: 3.75;" x1="1547.5" x2="1872.5" y1="940.3516" y2="940.3516"/><!--MD5=[6c35b9bf176c1aee30f526a9a385796d]
class SyncNodeServer--><rect codeLine="72" fill="#FEFECE" height="154.5898" id="SyncNodeServer" style="stroke: #D4AC0D; stroke-width: 3.75;" width="660" x="1962.5" y="822.8516"/><ellipse cx="2151.875" cy="862.8516" fill="#B4A7E5" rx="27.5" ry="27.5" style="stroke: #B4A7E5; stroke-width: 2.5;"/><path d="M2154.375,855.3516 L2154.375,870.3516 L2159.375,870.3516 L2160.5859,870.3516 L2161.875,871.9141 L2161.875,872.8516 L2161.875,873.7891 L2160.5859,875.3516 L2159.375,875.3516 L2144.375,875.3516 L2143.1641,875.3516 L2141.875,873.7891 L2141.875,872.8516 L2141.875,871.9141 L2143.1641,870.3516 L2144.375,870.3516 L2149.375,870.3516 L2149.375,855.3516 L2144.375,855.3516 L2143.1641,855.3516 L2141.875,853.7891 L2141.875,852.8516 L2141.875,851.9141 L2143.1641,850.3516 L2144.375,850.3516 L2159.375,850.3516 L2160.5859,850.3516 L2161.875,851.9141 L2161.875,852.8516 L2161.875,853.7891 L2160.5859,855.3516 L2159.375,855.3516 L2154.375,855.3516 Z " fill="#000000"/><ellipse cx="2215.625" cy="861.6016" fill="#84BE84" rx="7.5" ry="7.5" style="stroke: #038048; stroke-width: 2.5;"/><text fill="#000000" font-family="sans-serif" font-size="30" font-style="italic" lengthAdjust="spacingAndGlyphs" textLength="232.5" x="2230.625" y="875.127">SyncNodeServer</text><line style="stroke: #D4AC0D; stroke-width: 3.75;" x1="1965" x2="2620" y1="902.8516" y2="902.8516"/><line style="stroke: #D4AC0D; stroke-width: 3.75;" x1="1965" x2="2620" y1="922.8516" y2="922.8516"/><ellipse cx="1990" cy="950.3516" fill="#84BE84" rx="7.5" ry="7.5" style="stroke: #038048; stroke-width: 2.5;"/><text fill="#000000" font-family="sans-serif" font-size="27.5" lengthAdjust="spacingAndGlyphs" textLength="595" x="2012.5" y="961.3989">List&lt;MessageDto&gt; onRequest (MessageDto msg)</text><!--MD5=[f1362ea87dac9fe50fe8caadfc737c53]
class MessageDto--><rect codeLine="90" fill="#EAECEE" height="431.3086" id="MessageDto" style="stroke: #2C3E50; stroke-width: 3.75;" width="380" x="2150" y="1224.1016"/><ellipse cx="2233.625" cy="1264.1016" fill="#ADD1B2" rx="27.5" ry="27.5" style="stroke: #ADD1B2; stroke-width: 2.5;"/><path d="M2238.625,1255.3516 Q2239.1328,1254.1016 2239.7188,1253.4766 Q2240.3047,1252.8516 2240.9688,1252.8516 Q2242.1406,1252.8516 2242.8828,1253.5547 Q2243.625,1254.2578 2243.625,1255.8984 L2243.625,1259.8047 Q2243.625,1261.4453 2242.9219,1262.1484 Q2242.2188,1262.8516 2241.125,1262.8516 Q2240.1484,1262.8516 2239.5234,1262.4219 Q2238.8984,1261.9922 2238.625,1260.8594 Q2238.5078,1260.0781 2238.0781,1259.6484 Q2237.2969,1258.8281 2235.8906,1258.3594 Q2234.4844,1257.8516 2233.0781,1257.8516 Q2231.3203,1257.8516 2229.8359,1258.5547 Q2228.3906,1259.2578 2227.2578,1260.8203 Q2226.125,1262.3828 2226.125,1264.5313 L2226.125,1266.8359 Q2226.125,1269.4141 2228.2344,1271.1328 Q2230.3438,1272.8516 2234.0938,1272.8516 Q2236.3203,1272.8516 2237.8828,1272.3438 Q2238.7813,1272.0703 2239.7969,1271.1719 Q2240.4609,1270.6641 2240.8125,1270.5078 Q2241.1641,1270.3516 2241.5938,1270.3516 Q2242.4141,1270.3516 2243,1271.0156 Q2243.625,1271.6406 2243.625,1272.5391 Q2243.625,1273.3984 2242.7656,1274.4141 Q2241.5156,1275.8984 2239.5234,1276.7188 Q2236.9063,1277.8516 2233.7031,1277.8516 Q2229.9531,1277.8516 2226.9453,1276.3672 Q2224.5234,1275.1953 2222.8047,1272.6563 Q2221.125,1270.1172 2221.125,1267.1094 L2221.125,1264.375 Q2221.125,1261.25 2222.6094,1258.5156 Q2224.1328,1255.7813 2226.75,1254.3359 Q2229.4063,1252.8516 2232.375,1252.8516 Q2234.1719,1252.8516 2235.7344,1253.4766 Q2237.2969,1254.1016 2238.625,1255.3516 Z " fill="#000000"/><ellipse cx="2291.375" cy="1262.8516" fill="#84BE84" rx="7.5" ry="7.5" style="stroke: #038048; stroke-width: 2.5;"/><text fill="#000000" font-family="sans-serif" font-size="30" font-style="italic" lengthAdjust="spacingAndGlyphs" textLength="170" x="2306.375" y="1276.377">MessageDto</text><line style="stroke: #2C3E50; stroke-width: 3.75;" x1="2152.5" x2="2527.5" y1="1304.1016" y2="1304.1016"/><ellipse cx="2177.5" cy="1331.6016" fill="none" rx="7.5" ry="7.5" style="stroke: #038048; stroke-width: 2.5;"/><text fill="#000000" font-family="sans-serif" font-size="27.5" lengthAdjust="spacingAndGlyphs" textLength="192.5" x="2200" y="1342.6489">String sessionId</text><ellipse cx="2177.5" cy="1366.1914" fill="none" rx="7.5" ry="7.5" style="stroke: #038048; stroke-width: 2.5;"/><text fill="#000000" font-family="sans-serif" font-size="27.5" lengthAdjust="spacingAndGlyphs" textLength="150" x="2200" y="1377.2388">String action</text><ellipse cx="2177.5" cy="1400.7813" fill="none" rx="7.5" ry="7.5" style="stroke: #038048; stroke-width: 2.5;"/><text fill="#000000" font-family="sans-serif" font-size="27.5" lengthAdjust="spacingAndGlyphs" textLength="222.5" x="2200" y="1411.8286">String clientNodeId</text><ellipse cx="2177.5" cy="1435.3711" fill="none" rx="7.5" ry="7.5" style="stroke: #038048; stroke-width: 2.5;"/><text fill="#000000" font-family="sans-serif" font-size="27.5" lengthAdjust="spacingAndGlyphs" textLength="240" x="2200" y="1446.4185">String serverNodeId</text><ellipse cx="2177.5" cy="1469.9609" fill="none" rx="7.5" ry="7.5" style="stroke: #038048; stroke-width: 2.5;"/><text fill="#000000" font-family="sans-serif" font-size="27.5" lengthAdjust="spacingAndGlyphs" textLength="287.5" x="2200" y="1481.0083">String localReaderName</text><ellipse cx="2177.5" cy="1504.5508" fill="none" rx="7.5" ry="7.5" style="stroke: #038048; stroke-width: 2.5;"/><text fill="#000000" font-family="sans-serif" font-size="27.5" lengthAdjust="spacingAndGlyphs" textLength="315" x="2200" y="1515.5981">String remoteReaderName</text><ellipse cx="2177.5" cy="1539.1406" fill="none" rx="7.5" ry="7.5" style="stroke: #038048; stroke-width: 2.5;"/><text fill="#000000" font-family="sans-serif" font-size="27.5" lengthAdjust="spacingAndGlyphs" textLength="137.5" x="2200" y="1550.188">String body</text><line style="stroke: #2C3E50; stroke-width: 3.75;" x1="2152.5" x2="2527.5" y1="1566.2305" y2="1566.2305"/><ellipse cx="2177.5" cy="1593.7305" fill="#84BE84" rx="7.5" ry="7.5" style="stroke: #038048; stroke-width: 2.5;"/><text fill="#000000" font-family="sans-serif" font-size="27.5" lengthAdjust="spacingAndGlyphs" textLength="127.5" x="2200" y="1604.7778">getters()...</text><ellipse cx="2177.5" cy="1628.3203" fill="#84BE84" rx="7.5" ry="7.5" style="stroke: #038048; stroke-width: 2.5;"/><text fill="#000000" font-family="sans-serif" font-size="27.5" lengthAdjust="spacingAndGlyphs" textLength="127.5" x="2200" y="1639.3677">setters()...</text><!--MD5=[69a1b607fbf88ef54e5faa33edddc623]
class AsyncEndpointClient--><rect codeLine="77" fill="#FDEDEC" height="223.7695" id="AsyncEndpointClient" style="stroke: #E74C3C; stroke-width: 3.75;" width="527.5" x="756.25" y="1327.8516"/><ellipse cx="854.5" cy="1367.8516" fill="#B4A7E5" rx="27.5" ry="27.5" style="stroke: #B4A7E5; stroke-width: 2.5;"/><path d="M857,1360.3516 L857,1375.3516 L862,1375.3516 L863.2109,1375.3516 L864.5,1376.9141 L864.5,1377.8516 L864.5,1378.7891 L863.2109,1380.3516 L862,1380.3516 L847,1380.3516 L845.7891,1380.3516 L844.5,1378.7891 L844.5,1377.8516 L844.5,1376.9141 L845.7891,1375.3516 L847,1375.3516 L852,1375.3516 L852,1360.3516 L847,1360.3516 L845.7891,1360.3516 L844.5,1358.7891 L844.5,1357.8516 L844.5,1356.9141 L845.7891,1355.3516 L847,1355.3516 L862,1355.3516 L863.2109,1355.3516 L864.5,1356.9141 L864.5,1357.8516 L864.5,1358.7891 L863.2109,1360.3516 L862,1360.3516 L857,1360.3516 Z " fill="#000000"/><ellipse cx="915.5" cy="1366.6016" fill="#84BE84" rx="7.5" ry="7.5" style="stroke: #038048; stroke-width: 2.5;"/><text fill="#000000" font-family="sans-serif" font-size="30" font-style="italic" lengthAdjust="spacingAndGlyphs" textLength="285" x="930.5" y="1380.127">AsyncEndpointClient</text><line style="stroke: #E74C3C; stroke-width: 3.75;" x1="758.75" x2="1281.25" y1="1407.8516" y2="1407.8516"/><line style="stroke: #E74C3C; stroke-width: 3.75;" x1="758.75" x2="1281.25" y1="1427.8516" y2="1427.8516"/><ellipse cx="783.75" cy="1455.3516" fill="#84BE84" rx="7.5" ry="7.5" style="stroke: #038048; stroke-width: 2.5;"/><text fill="#000000" font-family="sans-serif" font-size="27.5" lengthAdjust="spacingAndGlyphs" textLength="435" x="806.25" y="1466.3989">void openSession (String sessionId)</text><ellipse cx="783.75" cy="1489.9414" fill="#84BE84" rx="7.5" ry="7.5" style="stroke: #038048; stroke-width: 2.5;"/><text fill="#000000" font-family="sans-serif" font-size="27.5" lengthAdjust="spacingAndGlyphs" textLength="462.5" x="806.25" y="1500.9888">void sendMessage (MessageDto msg)</text><ellipse cx="783.75" cy="1524.5313" fill="#84BE84" rx="7.5" ry="7.5" style="stroke: #038048; stroke-width: 2.5;"/><text fill="#000000" font-family="sans-serif" font-size="27.5" lengthAdjust="spacingAndGlyphs" textLength="440" x="806.25" y="1535.5786">void closeSession (String sessionId)</text><!--MD5=[5b1bd63fa89ecab39eb3f12ef133dcba]
class AsyncEndpointServer--><rect codeLine="82" fill="#FDEDEC" height="154.5898" id="AsyncEndpointServer" style="stroke: #E74C3C; stroke-width: 3.75;" width="527.5" x="141.25" y="1362.8516"/><ellipse cx="235" cy="1402.8516" fill="#B4A7E5" rx="27.5" ry="27.5" style="stroke: #B4A7E5; stroke-width: 2.5;"/><path d="M237.5,1395.3516 L237.5,1410.3516 L242.5,1410.3516 L243.7109,1410.3516 L245,1411.9141 L245,1412.8516 L245,1413.7891 L243.7109,1415.3516 L242.5,1415.3516 L227.5,1415.3516 L226.2891,1415.3516 L225,1413.7891 L225,1412.8516 L225,1411.9141 L226.2891,1410.3516 L227.5,1410.3516 L232.5,1410.3516 L232.5,1395.3516 L227.5,1395.3516 L226.2891,1395.3516 L225,1393.7891 L225,1392.8516 L225,1391.9141 L226.2891,1390.3516 L227.5,1390.3516 L242.5,1390.3516 L243.7109,1390.3516 L245,1391.9141 L245,1392.8516 L245,1393.7891 L243.7109,1395.3516 L242.5,1395.3516 L237.5,1395.3516 Z " fill="#000000"/><ellipse cx="295" cy="1401.6016" fill="#84BE84" rx="7.5" ry="7.5" style="stroke: #038048; stroke-width: 2.5;"/><text fill="#000000" font-family="sans-serif" font-size="30" font-style="italic" lengthAdjust="spacingAndGlyphs" textLength="295" x="310" y="1415.127">AsyncEndpointServer</text><line style="stroke: #E74C3C; stroke-width: 3.75;" x1="143.75" x2="666.25" y1="1442.8516" y2="1442.8516"/><line style="stroke: #E74C3C; stroke-width: 3.75;" x1="143.75" x2="666.25" y1="1462.8516" y2="1462.8516"/><ellipse cx="168.75" cy="1490.3516" fill="#84BE84" rx="7.5" ry="7.5" style="stroke: #038048; stroke-width: 2.5;"/><text fill="#000000" font-family="sans-serif" font-size="27.5" lengthAdjust="spacingAndGlyphs" textLength="462.5" x="191.25" y="1501.3989">void sendMessage (MessageDto msg)</text><!--MD5=[79d0dd32175dc071c7df133fa8e963e8]
class SyncEndpointClient--><rect codeLine="85" fill="#FEFECE" height="154.5898" id="SyncEndpointClient" style="stroke: #D4AC0D; stroke-width: 3.75;" width="690" x="1372.5" y="1362.8516"/><ellipse cx="1558.125" cy="1402.8516" fill="#B4A7E5" rx="27.5" ry="27.5" style="stroke: #B4A7E5; stroke-width: 2.5;"/><path d="M1560.625,1395.3516 L1560.625,1410.3516 L1565.625,1410.3516 L1566.8359,1410.3516 L1568.125,1411.9141 L1568.125,1412.8516 L1568.125,1413.7891 L1566.8359,1415.3516 L1565.625,1415.3516 L1550.625,1415.3516 L1549.4141,1415.3516 L1548.125,1413.7891 L1548.125,1412.8516 L1548.125,1411.9141 L1549.4141,1410.3516 L1550.625,1410.3516 L1555.625,1410.3516 L1555.625,1395.3516 L1550.625,1395.3516 L1549.4141,1395.3516 L1548.125,1393.7891 L1548.125,1392.8516 L1548.125,1391.9141 L1549.4141,1390.3516 L1550.625,1390.3516 L1565.625,1390.3516 L1566.8359,1390.3516 L1568.125,1391.9141 L1568.125,1392.8516 L1568.125,1393.7891 L1566.8359,1395.3516 L1565.625,1395.3516 L1560.625,1395.3516 Z " fill="#000000"/><ellipse cx="1621.875" cy="1401.6016" fill="#84BE84" rx="7.5" ry="7.5" style="stroke: #038048; stroke-width: 2.5;"/><text fill="#000000" font-family="sans-serif" font-size="30" font-style="italic" lengthAdjust="spacingAndGlyphs" textLength="270" x="1636.875" y="1415.127">SyncEndpointClient</text><line style="stroke: #D4AC0D; stroke-width: 3.75;" x1="1375" x2="2060" y1="1442.8516" y2="1442.8516"/><line style="stroke: #D4AC0D; stroke-width: 3.75;" x1="1375" x2="2060" y1="1462.8516" y2="1462.8516"/><ellipse cx="1400" cy="1490.3516" fill="#84BE84" rx="7.5" ry="7.5" style="stroke: #038048; stroke-width: 2.5;"/><text fill="#000000" font-family="sans-serif" font-size="27.5" lengthAdjust="spacingAndGlyphs" textLength="625" x="1422.5" y="1501.3989">List&lt;MessageDto&gt; sendRequest (MessageDto msg)</text><!--MD5=[c530f3291e0c4a7fa42bd4d46838821b]
link GMN22632 to legendSpi--><path d="M765,269.2716 C765,312.4191 765,374.3441 765,421.2741 " fill="none" id="GMN22632-legendSpi" style="stroke: #A80036; stroke-width: 2.5; stroke-dasharray: 7.0,7.0;"/><!--MD5=[349d33f003879924dfef70c0d6e112c1]
link SyncNodeClient to SyncEndpointClient--><path codeLine="104" d="M1710.8175,961.1241 C1712.13,1054.8116 1714.72,1239.5316 1716.2625,1349.4991 " fill="none" id="SyncNodeClient-to-SyncEndpointClient" style="stroke: #3498DB; stroke-width: 2.5;"/><polygon fill="#3498DB" points="1716.445,1362.5291,1726.129,1339.8912,1716.27,1350.0303,1706.1309,1340.1713,1716.445,1362.5291" style="stroke: #3498DB; stroke-width: 2.5;"/><polygon fill="#000000" points="1725.1752,1139.5398,1732.2048,1116.8263,1717.5116,1117.0323,1725.1752,1139.5398" style="stroke: #000000; stroke-width: 2.5;"/><text fill="#000000" font-family="sans-serif" font-size="32.5" lengthAdjust="spacingAndGlyphs" textLength="52.5" x="1747.5" y="1140.3394">use</text><!--MD5=[d180704edc8fc8431cf22975e9ca997f]
link AsyncNodeClient to AsyncEndpointClient--><path codeLine="105" d="M1107.7475,1029.6391 C1089.1975,1115.9316 1064.7775,1229.5341 1046.41,1314.9841 " fill="none" id="AsyncNodeClient-to-AsyncEndpointClient" style="stroke: #3498DB; stroke-width: 2.5;"/><polygon fill="#3498DB" points="1043.7475,1327.3791,1058.255,1307.4848,1046.3759,1315.1585,1038.7022,1303.2794,1043.7475,1327.3791" style="stroke: #3498DB; stroke-width: 2.5;"/><polygon fill="#000000" points="1099.873,1139.2619,1111.8085,1118.6982,1097.442,1115.61,1099.873,1139.2619" style="stroke: #000000; stroke-width: 2.5;"/><text fill="#000000" font-family="sans-serif" font-size="32.5" lengthAdjust="spacingAndGlyphs" textLength="52.5" x="1125" y="1140.3394">use</text><!--MD5=[b3121abea30b2cc7bb580d1efa0440f4]
link AsyncNodeServer to AsyncEndpointServer--><path codeLine="106" d="M402.935,996.0416 C403.4,1095.4616 404.13,1251.7791 404.5875,1349.3616 " fill="none" id="AsyncNodeServer-to-AsyncEndpointServer" style="stroke: #3498DB; stroke-width: 2.5;"/><polygon fill="#3498DB" points="404.645,1362.1391,414.542,1339.5936,404.5879,1349.6392,394.5422,1339.685,404.645,1362.1391" style="stroke: #3498DB; stroke-width: 2.5;"/><polygon fill="#000000" points="417.5585,1139.5409,424.7999,1116.8941,410.1055,1116.9628,417.5585,1139.5409" style="stroke: #000000; stroke-width: 2.5;"/><text fill="#000000" font-family="sans-serif" font-size="32.5" lengthAdjust="spacingAndGlyphs" textLength="52.5" x="440" y="1140.3394">use</text><!--MD5=[34b7da23c6a59acd5d6657d45119c0cf]
link dtoApi to SyncNodeServer--><!--MD5=[def327908e4a9345e032b68d536e2396]
link SyncNodeServer to MessageDto--><!--MD5=[885e488bcc97f2bb05f26147dc868a85]
link syncNodeApi to SyncNodeClient--><!--MD5=[d4b4f99978b87755a370a9a7cf55c65f]
link syncNodeApi to SyncNodeServer--><!--MD5=[c1232be8d4a21b11710532c02172d457]
link asyncNodeApi to AsyncNodeClient--><!--MD5=[130915458d8a6536bb3eace9e9207252]
link asyncNodeApi to AsyncNodeServer--><!--MD5=[42347a6f432ca3a9d935c54025cc2e62]
@startuml
title
    Keyple Distributed Network API - 1.0.0 (03/11/2020)
end title

' == THEME ==

'Couleurs issues de : https://htmlcolorcodes.com/fr/tableau-de-couleur/tableau-de-couleur-design-plat/
!define C_GREY1 F8F9F9
!define C_GREY2 F2F3F4
!define C_GREY3 E5E7E9
!define C_GREY4 D7DBDD
!define C_GREY5 CACFD2
!define C_GREY6 BDC3C7
!define C_LINK 3498DB
!define C_USE 27AE60

skinparam Shadowing false
skinparam ClassFontStyle italic
skinparam ClassBorderColor #D4AC0D
skinparam stereotypeABorderColor #A9DCDF
skinparam stereotypeIBorderColor #B4A7E5
skinparam stereotypeCBorderColor #ADD1B2
skinparam stereotypeEBorderColor #EB93DF
' Red
skinparam ClassBackgroundColor<<red>> #FDEDEC
skinparam ClassBorderColor<<red>> #E74C3C
hide <<red>> stereotype
' Purple
skinparam ClassBackgroundColor<<purple>> #F4ECF7
skinparam ClassBorderColor<<purple>> #8E44AD
hide <<purple>> stereotype
' blue
skinparam ClassBackgroundColor<<blue>> #EBF5FB
skinparam ClassBorderColor<<blue>> #3498DB
hide <<blue>> stereotype
' Green
skinparam ClassBackgroundColor<<green>> #E9F7EF
skinparam ClassBorderColor<<green>> #27AE60
hide <<green>> stereotype
' Grey
skinparam ClassBackgroundColor<<grey>> #EAECEE
skinparam ClassBorderColor<<grey>> #2C3E50
hide <<grey>> stereotype

' == CONTENT ==

package Legend {
    interface " " as syncNodeApi
    note top of syncNodeApi : **Sync Node API**
    interface " " as asyncNodeApi <<red>>
    note top of asyncNodeApi : **Async Node API**
    interface " " as dtoApi <<grey>>
    note top of dtoApi : **DTO** (Data Transfer Object)
    package "spi" as legendSpi #C_GREY3 {}
    note top of legendSpi : Contains **SPI**s (Service Provider Interfaces)\n which must be implemented by the user
}

package "org.eclipse.keyple.distributed" as root {
    ' Nodes & Senders
    +interface AsyncNodeClient {
        +void onOpen (String sessionId)
        +void onMessage (MessageDto msg)
        +void onClose (String sessionId)
        +void onError (String sessionId, Throwable error)
    }
    +interface AsyncNodeServer {
        +void onMessage (MessageDto msg)
        +void onError (String sessionId, Throwable error)
    }
    +interface SyncNodeClient {
    }
    +interface SyncNodeServer {
        +List<MessageDto> onRequest (MessageDto msg)
    }
    ' SPI
    package spi {
        +interface AsyncEndpointClient {
            +void openSession (String sessionId)
            +void sendMessage (MessageDto msg)
            +void closeSession (String sessionId)
        }
        +interface AsyncEndpointServer {
            +void sendMessage (MessageDto msg)
        }
        +interface SyncEndpointClient {
            +List<MessageDto> sendRequest (MessageDto msg)
        }
    }
    ' DTO
    +class MessageDto {
        + String sessionId
        + String action
        + String clientNodeId
        + String serverNodeId
        + String localReaderName
        + String remoteReaderName
        + String body
        + getters()...
        + setters()...
    }
}

' Associations
SyncNodeClient - -> SyncEndpointClient #C_LINK : use >
AsyncNodeClient - -> AsyncEndpointClient #C_LINK : use >
AsyncNodeServer - -> AsyncEndpointServer #C_LINK : use >

' == LAYOUT ==

dtoApi -[hidden]- SyncNodeServer
SyncNodeServer -[hidden]- MessageDto

syncNodeApi -[hidden]- SyncNodeClient
syncNodeApi -[hidden]- SyncNodeServer

asyncNodeApi -[hidden]- AsyncNodeClient
asyncNodeApi -[hidden]- AsyncNodeServer

' == STYLE ==

package root #C_GREY1 {}
package spi #C_GREY3 {}

AsyncNodeClient <<red>>
AsyncNodeServer <<red>>
AsyncEndpointClient <<red>>
AsyncEndpointServer <<red>>

MessageDto <<grey>>

@enduml

@startuml
title
    Keyple Distributed Network API - 1.0.0 (03/11/2020)
end title



skinparam Shadowing false
skinparam ClassFontStyle italic
skinparam ClassBorderColor #D4AC0D
skinparam stereotypeABorderColor #A9DCDF
skinparam stereotypeIBorderColor #B4A7E5
skinparam stereotypeCBorderColor #ADD1B2
skinparam stereotypeEBorderColor #EB93DF
skinparam ClassBackgroundColor<<red>> #FDEDEC
skinparam ClassBorderColor<<red>> #E74C3C
hide <<red>> stereotype
skinparam ClassBackgroundColor<<purple>> #F4ECF7
skinparam ClassBorderColor<<purple>> #8E44AD
hide <<purple>> stereotype
skinparam ClassBackgroundColor<<blue>> #EBF5FB
skinparam ClassBorderColor<<blue>> #3498DB
hide <<blue>> stereotype
skinparam ClassBackgroundColor<<green>> #E9F7EF
skinparam ClassBorderColor<<green>> #27AE60
hide <<green>> stereotype
skinparam ClassBackgroundColor<<grey>> #EAECEE
skinparam ClassBorderColor<<grey>> #2C3E50
hide <<grey>> stereotype


package Legend {
    interface " " as syncNodeApi
    note top of syncNodeApi : **Sync Node API**
    interface " " as asyncNodeApi <<red>>
    note top of asyncNodeApi : **Async Node API**
    interface " " as dtoApi <<grey>>
    note top of dtoApi : **DTO** (Data Transfer Object)
    package "spi" as legendSpi #E5E7E9 {}
    note top of legendSpi : Contains **SPI**s (Service Provider Interfaces)\n which must be implemented by the user
}

package "org.eclipse.keyple.distributed" as root {
    +interface AsyncNodeClient {
        +void onOpen (String sessionId)
        +void onMessage (MessageDto msg)
        +void onClose (String sessionId)
        +void onError (String sessionId, Throwable error)
    }
    +interface AsyncNodeServer {
        +void onMessage (MessageDto msg)
        +void onError (String sessionId, Throwable error)
    }
    +interface SyncNodeClient {
    }
    +interface SyncNodeServer {
        +List<MessageDto> onRequest (MessageDto msg)
    }
    package spi {
        +interface AsyncEndpointClient {
            +void openSession (String sessionId)
            +void sendMessage (MessageDto msg)
            +void closeSession (String sessionId)
        }
        +interface AsyncEndpointServer {
            +void sendMessage (MessageDto msg)
        }
        +interface SyncEndpointClient {
            +List<MessageDto> sendRequest (MessageDto msg)
        }
    }
    +class MessageDto {
        + String sessionId
        + String action
        + String clientNodeId
        + String serverNodeId
        + String localReaderName
        + String remoteReaderName
        + String body
        + getters()...
        + setters()...
    }
}

SyncNodeClient - -> SyncEndpointClient #3498DB : use >
AsyncNodeClient - -> AsyncEndpointClient #3498DB : use >
AsyncNodeServer - -> AsyncEndpointServer #3498DB : use >


dtoApi -[hidden]- SyncNodeServer
SyncNodeServer -[hidden]- MessageDto

syncNodeApi -[hidden]- SyncNodeClient
syncNodeApi -[hidden]- SyncNodeServer

asyncNodeApi -[hidden]- AsyncNodeClient
asyncNodeApi -[hidden]- AsyncNodeServer


package root #F8F9F9 {}
package spi #E5E7E9 {}

AsyncNodeClient <<red>>
AsyncNodeServer <<red>>
AsyncEndpointClient <<red>>
AsyncEndpointServer <<red>>

MessageDto <<grey>>

@enduml

PlantUML version 1.2020.20(Sat Nov 21 11:02:45 CET 2020)
(GPL source distribution)
Java Runtime: OpenJDK Runtime Environment
JVM: OpenJDK 64-Bit Server VM
Default Encoding: Cp1252
Language: fr
Country: FR
--></g></svg>