<?xml version="1.0" encoding="UTF-8" standalone="no"?><svg xmlns="http://www.w3.org/2000/svg" xmlns:xlink="http://www.w3.org/1999/xlink" contentScriptType="application/ecmascript" contentStyleType="text/css" height="1122.5px" preserveAspectRatio="none" style="width:2270px;height:1122px;" version="1.1" viewBox="0 0 2270 1122" width="2270px" zoomAndPan="magnify"><defs/><g><text fill="#000000" font-family="sans-serif" font-size="45" lengthAdjust="spacingAndGlyphs" textLength="995" x="658.75" y="46.7139">UC 1: RemoteServerPlugin - Reader (07/10/2020)</text><!--MD5=[894bca0b73d7f9a3a6f9deeed838767d]
cluster Client App--><polygon fill="#FFFFFF" points="120,116.6016,315,116.6016,332.5,175.625,1070,175.625,1070,884.1016,120,884.1016,120,116.6016" style="stroke: #000000; stroke-width: 3.75;"/><line style="stroke: #000000; stroke-width: 3.75;" x1="120" x2="332.5" y1="175.625" y2="175.625"/><text fill="#000000" font-family="sans-serif" font-size="35" font-weight="bold" lengthAdjust="spacingAndGlyphs" textLength="180" x="130" y="157.9346">Client App</text><!--MD5=[06de4c2a8c4b5af4edb191b660abc35d]
cluster nativeKeyple--><polygon fill="#FFFFFF" points="520,226.6016,985,226.6016,1002.5,285.625,1010,285.625,1010,824.1016,520,824.1016,520,226.6016" style="stroke: #000000; stroke-width: 3.75;"/><line style="stroke: #000000; stroke-width: 3.75;" x1="520" x2="1002.5" y1="285.625" y2="285.625"/><text fill="#000000" font-family="sans-serif" font-size="35" font-weight="bold" lengthAdjust="spacingAndGlyphs" textLength="450" x="530" y="267.9346">Keyple Remote Native Lib</text><!--MD5=[057207eb3aecb7e32e9a99f8601ae8aa]
cluster Server App--><polygon fill="#FFFFFF" points="1130,116.6016,1342.5,116.6016,1360,175.625,2215,175.625,2215,884.1016,1130,884.1016,1130,116.6016" style="stroke: #000000; stroke-width: 3.75;"/><line style="stroke: #000000; stroke-width: 3.75;" x1="1130" x2="1360" y1="175.625" y2="175.625"/><text fill="#000000" font-family="sans-serif" font-size="35" font-weight="bold" lengthAdjust="spacingAndGlyphs" textLength="197.5" x="1140" y="157.9346">Server App</text><!--MD5=[24dc29b071615c4dcac39c996c469546]
cluster virtualKeyple--><polygon fill="#FFFFFF" points="1190,226.6016,1655,226.6016,1672.5,285.625,1680,285.625,1680,824.1016,1190,824.1016,1190,226.6016" style="stroke: #000000; stroke-width: 3.75;"/><line style="stroke: #000000; stroke-width: 3.75;" x1="1190" x2="1672.5" y1="285.625" y2="285.625"/><text fill="#000000" font-family="sans-serif" font-size="35" font-weight="bold" lengthAdjust="spacingAndGlyphs" textLength="450" x="1200" y="267.9346">Keyple Remote Virtual Lib</text><!--MD5=[c9b0f7d029555e33f7bc9e52b3f8d2d5]
entity slave--><rect fill="#FEFECE" height="94.0234" style="stroke: #D4AC0D; stroke-width: 3.75;" width="320" x="160" y="316.6016"/><rect fill="#FEFECE" height="12.5" style="stroke: #D4AC0D; stroke-width: 3.75;" width="25" x="147.5" y="329.1016"/><rect fill="#FEFECE" height="12.5" style="stroke: #D4AC0D; stroke-width: 3.75;" width="25" x="147.5" y="385.625"/><text fill="#000000" font-family="sans-serif" font-size="35" font-style="italic" lengthAdjust="spacingAndGlyphs" textLength="270" x="185" y="377.9346">Ticketing Service</text><!--MD5=[f36b681f1568c85a1e29d94d0cd105c7]
entity Reader--><rect fill="#EBF5FB" height="94.0234" style="stroke: #3498DB; stroke-width: 3.75;" width="167.5" x="613.75" y="689.1016"/><rect fill="#EBF5FB" height="12.5" style="stroke: #3498DB; stroke-width: 3.75;" width="25" x="601.25" y="701.6016"/><rect fill="#EBF5FB" height="12.5" style="stroke: #3498DB; stroke-width: 3.75;" width="25" x="601.25" y="758.125"/><text fill="#000000" font-family="sans-serif" font-size="35" lengthAdjust="spacingAndGlyphs" textLength="117.5" x="638.75" y="750.4346">Reader</text><!--MD5=[f2ec79828c63ffc0b4f8603504aee76e]
entity NativeClientService--><rect fill="#E9F7EF" height="94.0234" style="stroke: #27AE60; stroke-width: 3.75;" width="355" x="590" y="316.6016"/><rect fill="#E9F7EF" height="12.5" style="stroke: #27AE60; stroke-width: 3.75;" width="25" x="577.5" y="329.1016"/><rect fill="#E9F7EF" height="12.5" style="stroke: #27AE60; stroke-width: 3.75;" width="25" x="577.5" y="385.625"/><text fill="#000000" font-family="sans-serif" font-size="35" lengthAdjust="spacingAndGlyphs" textLength="305" x="615" y="377.9346">NativeClientService</text><!--MD5=[e6001af16d4774e0fdad2715570119d9]
entity master--><rect fill="#FEFECE" height="94.0234" style="stroke: #D4AC0D; stroke-width: 3.75;" width="452.5" x="1721.25" y="689.1016"/><rect fill="#FEFECE" height="12.5" style="stroke: #D4AC0D; stroke-width: 3.75;" width="25" x="1708.75" y="701.6016"/><rect fill="#FEFECE" height="12.5" style="stroke: #D4AC0D; stroke-width: 3.75;" width="25" x="1708.75" y="758.125"/><text fill="#000000" font-family="sans-serif" font-size="35" font-style="italic" lengthAdjust="spacingAndGlyphs" textLength="402.5" x="1746.25" y="750.4346">Remote Ticketing Service</text><!--MD5=[003f721315919c351c79ad5e7443025d]
entity RemoteServerPlugin--><rect fill="#E9F7EF" height="94.0234" style="stroke: #27AE60; stroke-width: 3.75;" width="375" x="1252.5" y="316.6016"/><rect fill="#E9F7EF" height="12.5" style="stroke: #27AE60; stroke-width: 3.75;" width="25" x="1240" y="329.1016"/><rect fill="#E9F7EF" height="12.5" style="stroke: #27AE60; stroke-width: 3.75;" width="25" x="1240" y="385.625"/><text fill="#000000" font-family="sans-serif" font-size="35" lengthAdjust="spacingAndGlyphs" textLength="325" x="1277.5" y="377.9346">RemoteServerPlugin</text><!--MD5=[a32d2982799a5d74638c1cc8213ad295]
entity RemoteServerReader--><rect fill="#EBF5FB" height="94.0234" style="stroke: #3498DB; stroke-width: 3.75;" width="395" x="1237.5" y="689.1016"/><rect fill="#EBF5FB" height="12.5" style="stroke: #3498DB; stroke-width: 3.75;" width="25" x="1225" y="701.6016"/><rect fill="#EBF5FB" height="12.5" style="stroke: #3498DB; stroke-width: 3.75;" width="25" x="1225" y="758.125"/><text fill="#000000" font-family="sans-serif" font-size="35" lengthAdjust="spacingAndGlyphs" textLength="345" x="1262.5" y="750.4346">RemoteServerReader</text><!--MD5=[421c0c28c3c162af05b6849f8e632b78]
entity Card--><rect fill="#FEFECE" height="94.0234" style="stroke: #D4AC0D; stroke-width: 3.75;" width="127.5" x="633.75" y="1001.6016"/><rect fill="#FEFECE" height="12.5" style="stroke: #D4AC0D; stroke-width: 3.75;" width="25" x="621.25" y="1014.1016"/><rect fill="#FEFECE" height="12.5" style="stroke: #D4AC0D; stroke-width: 3.75;" width="25" x="621.25" y="1070.625"/><text fill="#000000" font-family="sans-serif" font-size="35" lengthAdjust="spacingAndGlyphs" textLength="77.5" x="658.75" y="1062.9346">Card</text><!--MD5=[c88a36799ca4d6dff2d7449eacfc25f7]
entity start--><ellipse cx="50" cy="364.1016" fill="#FEFECE" rx="20" ry="20" style="stroke: #A80036; stroke-width: 5.0;"/><text fill="#000000" font-family="sans-serif" font-size="35" lengthAdjust="spacingAndGlyphs" textLength="70" x="15" y="442.9346">start</text><!--MD5=[adcb12d1199142b9e2ec967666f25966]
link start to slave--><path d="M73.2033,364.1016 C97.8315,364.1016 122.46,364.1016 147.0885,364.1016 " fill="none" id="start-&gt;slave" style="stroke: #A80036; stroke-width: 2.5;"/><polygon fill="#A80036" points="159.9678,364.1016,137.4678,354.1016,147.4678,364.1016,137.4678,374.1016,159.9678,364.1016" style="stroke: #A80036; stroke-width: 2.5;"/><!--MD5=[bdb64a44465827ecc3309dbd8a1e2e30]
link slave to NativeClientService--><path d="M480.82,364.1016 C512.785,364.1016 544.75,364.1016 576.715,364.1016 " fill="none" id="slave-&gt;NativeClientService" style="stroke: #A80036; stroke-width: 2.5;"/><polygon fill="#A80036" points="589.445,364.1016,566.945,354.1016,576.945,364.1016,566.945,374.1016,589.445,364.1016" style="stroke: #A80036; stroke-width: 2.5;"/><!--MD5=[e84ccfd2dfdea039424172a37e8c3b26]
link slave to Reader--><path d="M366.29,411.6641 C435.6275,479.1666 566.29,606.3691 641.105,679.1991 " fill="none" id="slave-&gt;Reader" style="stroke: #A80036; stroke-width: 2.5;"/><polygon fill="#A80036" points="650.8325,688.6691,641.6834,665.8098,641.8748,679.9507,627.734,680.1421,650.8325,688.6691" style="stroke: #A80036; stroke-width: 2.5;"/><!--MD5=[2ad83c243ffd4da9e1f5dedf020015de]
link NativeClientService to Reader--><path d="M762.1375,412.4991 C755.94,462.3991 744.6775,544.3566 730,614.1016 C725.7375,634.3516 720.11,656.2641 714.7375,675.7566 " fill="none" id="NativeClientService-&gt;Reader" style="stroke: #A80036; stroke-width: 2.5;"/><polygon fill="#A80036" points="711.0775,688.8116,726.7797,669.846,714.4516,676.7756,707.522,664.4475,711.0775,688.8116" style="stroke: #A80036; stroke-width: 2.5;"/><!--MD5=[06436269cd4554a9ced883632cec176f]
link Reader to Card--><path d="M697.5,784.4741 C697.5,838.5241 697.5,928.9321 697.5,988.1671 " fill="none" id="Reader-&gt;Card" style="stroke: #A80036; stroke-width: 2.5;"/><polygon fill="#A80036" points="697.5,1001.0428,707.5,978.5428,697.5,988.5428,687.5,978.5428,697.5,1001.0428" style="stroke: #A80036; stroke-width: 2.5;"/><!--MD5=[360a62c6bd2b5eedf670555dbd10b9e6]
link NativeClientService to RemoteServerPlugin--><path d="M958.6325,364.1016 C1052.11,364.1016 1145.5875,364.1016 1239.065,364.1016 " fill="none" id="NativeClientService-RemoteServerPlugin" style="stroke: #A80036; stroke-width: 2.5;"/><polygon fill="#A80036" points="1251.655,364.1016,1229.155,354.1016,1239.155,364.1016,1229.155,374.1016,1251.655,364.1016" style="stroke: #A80036; stroke-width: 2.5;"/><polygon fill="#A80036" points="945.475,364.1016,967.975,374.1016,957.975,364.1016,967.975,354.1016,945.475,364.1016" style="stroke: #A80036; stroke-width: 2.5;"/><!--MD5=[837b7bd5d2e047db33d06b1b7665928c]
reverse link NativeClientService to RemoteServerReader--><path d="M860.9075,418.0291 C991.8025,490.0941 1227.725,619.9841 1352.4825,688.6691 " fill="none" id="NativeClientService&lt;-RemoteServerReader" style="stroke: #A80036; stroke-width: 2.5;"/><polygon fill="#A80036" points="849.3475,411.6641,864.2299,431.2795,860.2961,417.6954,873.8801,413.7617,849.3475,411.6641" style="stroke: #A80036; stroke-width: 2.5;"/><!--MD5=[d34e9798c7262a5a0366853569fd470c]
reverse link RemoteServerPlugin to master--><path d="M1500.5025,420.8641 C1560.04,473.0916 1654.555,552.9416 1742.5,614.1016 C1781.0975,640.9441 1825.97,667.6766 1863.8775,689.0741 " fill="none" id="RemoteServerPlugin&lt;-master" style="stroke: #A80036; stroke-width: 2.5;"/><polygon fill="#A80036" points="1490.53,412.0841,1500.8136,434.4559,1499.9135,420.3424,1514.027,419.4423,1490.53,412.0841" style="stroke: #A80036; stroke-width: 2.5;"/><!--MD5=[76ae2943c9e6392ac9b723ae57b6d84f]
link RemoteServerPlugin to master--><path d="M1547.61,411.6016 C1591.1075,431.8641 1640.785,457.7316 1682.5,486.6016 C1764.855,543.5991 1847.1975,625.3441 1897.7375,679.0616 " fill="none" id="RemoteServerPlugin-&gt;master" style="stroke: #008000; stroke-width: 2.5; stroke-dasharray: 7.0,7.0;"/><polygon fill="#008000" points="1906.795,688.7541,1898.7365,665.488,1898.2594,679.622,1884.1253,679.1449,1906.795,688.7541" style="stroke: #008000; stroke-width: 2.5;"/><text fill="#008000" font-family="sans-serif" font-size="32.5" lengthAdjust="spacingAndGlyphs" textLength="102.5" x="1861.25" y="522.8394">Reader</text><text fill="#008000" font-family="sans-serif" font-size="32.5" lengthAdjust="spacingAndGlyphs" textLength="155" x="1835" y="563.7183">Connected</text><text fill="#008000" font-family="sans-serif" font-size="32.5" lengthAdjust="spacingAndGlyphs" textLength="80" x="1872.5" y="604.5972">Event</text><!--MD5=[c996094b228d46f85797c47211a2f358]
reverse link RemoteServerReader to master--><path d="M1646.1325,736.6016 C1670.8775,736.6016 1695.62,736.6016 1720.365,736.6016 " fill="none" id="RemoteServerReader&lt;-master" style="stroke: #A80036; stroke-width: 2.5;"/><polygon fill="#A80036" points="1633.1925,736.6016,1655.6925,746.6016,1645.6925,736.6016,1655.6925,726.6016,1633.1925,736.6016" style="stroke: #A80036; stroke-width: 2.5;"/><!--MD5=[7b0d16f19f29ad20276e64f251ef2f43]
link RemoteServerPlugin to RemoteServerReader--><path d="M1439.3875,411.6641 C1438.4825,478.0641 1436.795,602.2316 1435.795,675.5891 " fill="none" id="RemoteServerPlugin-&gt;RemoteServerReader" style="stroke: #A80036; stroke-width: 2.5;"/><polygon fill="#A80036" points="1435.6175,688.6691,1445.9252,666.3083,1435.789,676.1702,1425.9271,666.034,1435.6175,688.6691" style="stroke: #A80036; stroke-width: 2.5;"/><!--MD5=[873dfb10c22475a7bea335117e656e1a]
@startuml
title
    UC 1: RemoteServerPlugin - Reader (07/10/2020)
end title


skinparam Shadowing false
skinparam component {
    BorderColor #D4AC0D
    BackgroundColor<<red>> #FDEDEC
    BorderColor<<red>> #E74C3C
    BackgroundColor<<purple>> #F4ECF7
    BorderColor<<purple>> #8E44AD
    BackgroundColor<<blue>> #EBF5FB
    BorderColor<<blue>> #3498DB
    BackgroundColor<<green>> #E9F7EF
    BorderColor<<green>> #27AE60
    BackgroundColor<<grey>> #EAECEE
    BorderColor<<grey>> #2C3E50
}
hide <<red>> stereotype
hide <<purple>> stereotype
hide <<blue>> stereotype
hide <<green>> stereotype
hide <<grey>> stereotype


[Card] as Card
package "Client App" {
    [<i>Ticketing Service</i>] as slave
    package "Keyple Remote Native Lib" as nativeKeyple {
        [Reader] as Reader <<blue>>
        [NativeClientService] <<green>>
    }
}
package "Server App" {
    [<i>Remote Ticketing Service</i>] as master
    package "Keyple Remote Virtual Lib" as virtualKeyple {
        [RemoteServerPlugin] <<green>>
        [RemoteServerReader] <<blue>>
    }
}

start -> slave
slave -> [NativeClientService]
slave -> [Reader]
[NativeClientService] - -> [Reader]
[Reader] - -> [Card]

[NativeClientService] <-> [RemoteServerPlugin]
[NativeClientService] <- [RemoteServerReader]

[RemoteServerPlugin] <- master
[RemoteServerReader] <- master
[RemoteServerPlugin] - -> [RemoteServerReader]

[RemoteServerPlugin] ..> master #Green : <color:green>Reader\n<color:green>Connected\n<color:green>Event

@enduml

PlantUML version 1.2020.09(Sun May 10 12:51:06 CEST 2020)
(GPL source distribution)
Java Runtime: OpenJDK Runtime Environment
JVM: OpenJDK 64-Bit Server VM
Java Version: 11.0.8+10-b944.34
Operating System: Windows 10
Default Encoding: Cp1252
Language: fr
Country: FR
--></g></svg>