<?xml version="1.0" encoding="UTF-8" standalone="no"?><svg xmlns="http://www.w3.org/2000/svg" xmlns:xlink="http://www.w3.org/1999/xlink" contentScriptType="application/ecmascript" contentStyleType="text/css" height="1435px" preserveAspectRatio="none" style="width:2615px;height:1435px;" version="1.1" viewBox="0 0 2615 1435" width="2615px" zoomAndPan="magnify"><defs/><g><!--MD5=[9cab7da42f27c934cb2c7c444c156ba3]
cluster Terminal A with 'hardware' reader--><polygon fill="#FFFFFF" points="55,60,652.5,60,670,119.0234,677.5,119.0234,677.5,1105,55,1105,55,60" style="stroke: #000000; stroke-width: 3.75;"/><line style="stroke: #000000; stroke-width: 3.75;" x1="55" x2="670" y1="119.0234" y2="119.0234"/><text fill="#000000" font-family="sans-serif" font-size="35" font-weight="bold" lengthAdjust="spacingAndGlyphs" textLength="582.5" x="65" y="101.333">Terminal A with 'hardware' reader</text><!--MD5=[ece7e648fe42fed63e9afeb0071f2394]
cluster Terminal with 'virtual' reader--><polygon fill="#FFFFFF" points="737.5,60,1250,60,1267.5,119.0234,1597.5,119.0234,1597.5,817.5,737.5,817.5,737.5,60" style="stroke: #000000; stroke-width: 3.75;"/><line style="stroke: #000000; stroke-width: 3.75;" x1="737.5" x2="1267.5" y1="119.0234" y2="119.0234"/><text fill="#000000" font-family="sans-serif" font-size="35" font-weight="bold" lengthAdjust="spacingAndGlyphs" textLength="497.5" x="747.5" y="101.333">Terminal with 'virtual' reader</text><!--MD5=[e7ef3a55d492f44ef9e09696ab5f345e]
cluster Terminal B with 'hardware' reader--><polygon fill="#FFFFFF" points="1657.5,60,2257.5,60,2275,119.0234,2560,119.0234,2560,1105,1657.5,1105,1657.5,60" style="stroke: #000000; stroke-width: 3.75;"/><line style="stroke: #000000; stroke-width: 3.75;" x1="1657.5" x2="2275" y1="119.0234" y2="119.0234"/><text fill="#000000" font-family="sans-serif" font-size="35" font-weight="bold" lengthAdjust="spacingAndGlyphs" textLength="585" x="1667.5" y="101.333">Terminal B with 'hardware' reader</text><!--MD5=[492ce1a3376d55250d68a9b9c57d8699]
entity appA--><rect fill="#FEFECE" height="94.0234" style="stroke: #D4AC0D; stroke-width: 3.75;" width="222.5" x="413.75" y="150"/><rect fill="#FEFECE" height="12.5" style="stroke: #D4AC0D; stroke-width: 3.75;" width="25" x="401.25" y="162.5"/><rect fill="#FEFECE" height="12.5" style="stroke: #D4AC0D; stroke-width: 3.75;" width="25" x="401.25" y="219.0234"/><text fill="#000000" font-family="sans-serif" font-size="35" lengthAdjust="spacingAndGlyphs" textLength="172.5" x="438.75" y="211.333">Application</text><!--MD5=[e2156dc710841fe344777ab81353f3ca]
entity nativeServiceA--><rect fill="#FDEDEC" height="94.0234" style="stroke: #E74C3C; stroke-width: 3.75;" width="307.5" x="143.75" y="395"/><rect fill="#FDEDEC" height="12.5" style="stroke: #E74C3C; stroke-width: 3.75;" width="25" x="131.25" y="407.5"/><rect fill="#FDEDEC" height="12.5" style="stroke: #E74C3C; stroke-width: 3.75;" width="25" x="131.25" y="464.0234"/><text fill="#000000" font-family="sans-serif" font-size="35" font-weight="bold" lengthAdjust="spacingAndGlyphs" textLength="257.5" x="168.75" y="456.333">Native Service</text><!--MD5=[0212e790920e9e0950a6a4fe288adb15]
entity nativePluginA--><rect fill="#E9F7EF" height="138.0469" style="stroke: #27AE60; stroke-width: 3.75;" width="180" x="365" y="640"/><rect fill="#E9F7EF" height="12.5" style="stroke: #27AE60; stroke-width: 3.75;" width="25" x="352.5" y="652.5"/><rect fill="#E9F7EF" height="12.5" style="stroke: #27AE60; stroke-width: 3.75;" width="25" x="352.5" y="753.0469"/><text fill="#000000" font-family="sans-serif" font-size="35" lengthAdjust="spacingAndGlyphs" textLength="97.5" x="390" y="701.333">Native</text><text fill="#000000" font-family="sans-serif" font-size="35" lengthAdjust="spacingAndGlyphs" textLength="130" x="390" y="745.3564">Plugin A</text><!--MD5=[0b0720e3e2fed904231d0798eec04837]
entity nativeReaderA--><rect fill="#E9F7EF" height="138.0469" style="stroke: #27AE60; stroke-width: 3.75;" width="200" x="355" y="927.5"/><rect fill="#E9F7EF" height="12.5" style="stroke: #27AE60; stroke-width: 3.75;" width="25" x="342.5" y="940"/><rect fill="#E9F7EF" height="12.5" style="stroke: #27AE60; stroke-width: 3.75;" width="25" x="342.5" y="1040.5469"/><text fill="#000000" font-family="sans-serif" font-size="35" lengthAdjust="spacingAndGlyphs" textLength="97.5" x="380" y="988.833">Native</text><text fill="#000000" font-family="sans-serif" font-size="35" lengthAdjust="spacingAndGlyphs" textLength="150" x="380" y="1032.8564">Reader A</text><!--MD5=[4541fb81c80c07473fe4b07432ef0971]
entity app--><rect fill="#FEFECE" height="94.0234" style="stroke: #D4AC0D; stroke-width: 3.75;" width="222.5" x="1128.75" y="150"/><rect fill="#FEFECE" height="12.5" style="stroke: #D4AC0D; stroke-width: 3.75;" width="25" x="1116.25" y="162.5"/><rect fill="#FEFECE" height="12.5" style="stroke: #D4AC0D; stroke-width: 3.75;" width="25" x="1116.25" y="219.0234"/><text fill="#000000" font-family="sans-serif" font-size="35" lengthAdjust="spacingAndGlyphs" textLength="172.5" x="1153.75" y="211.333">Application</text><!--MD5=[8c57e6c545067fd40d80e498aee73352]
entity remotePlugin--><rect fill="#FDEDEC" height="94.0234" style="stroke: #E74C3C; stroke-width: 3.75;" width="305" x="967.5" y="395"/><rect fill="#FDEDEC" height="12.5" style="stroke: #E74C3C; stroke-width: 3.75;" width="25" x="955" y="407.5"/><rect fill="#FDEDEC" height="12.5" style="stroke: #E74C3C; stroke-width: 3.75;" width="25" x="955" y="464.0234"/><text fill="#000000" font-family="sans-serif" font-size="35" font-weight="bold" lengthAdjust="spacingAndGlyphs" textLength="255" x="992.5" y="456.333">Remote Plugin</text><!--MD5=[aff3f7307853e9756b29bacb85cab294]
entity virtualReaderA--><rect fill="#E9F7EF" height="138.0469" style="stroke: #27AE60; stroke-width: 3.75;" width="200" x="777.5" y="640"/><rect fill="#E9F7EF" height="12.5" style="stroke: #27AE60; stroke-width: 3.75;" width="25" x="765" y="652.5"/><rect fill="#E9F7EF" height="12.5" style="stroke: #27AE60; stroke-width: 3.75;" width="25" x="765" y="753.0469"/><text fill="#000000" font-family="sans-serif" font-size="35" lengthAdjust="spacingAndGlyphs" textLength="100" x="802.5" y="701.333">Virtual</text><text fill="#000000" font-family="sans-serif" font-size="35" lengthAdjust="spacingAndGlyphs" textLength="150" x="802.5" y="745.3564">Reader A</text><!--MD5=[a84a1015f1180bf47c4b68cbea72278a]
entity virtualReaderB--><rect fill="#EBF5FB" height="138.0469" style="stroke: #3498DB; stroke-width: 3.75;" width="200" x="1065" y="640"/><rect fill="#EBF5FB" height="12.5" style="stroke: #3498DB; stroke-width: 3.75;" width="25" x="1052.5" y="652.5"/><rect fill="#EBF5FB" height="12.5" style="stroke: #3498DB; stroke-width: 3.75;" width="25" x="1052.5" y="753.0469"/><text fill="#000000" font-family="sans-serif" font-size="35" lengthAdjust="spacingAndGlyphs" textLength="100" x="1090" y="701.333">Virtual</text><text fill="#000000" font-family="sans-serif" font-size="35" lengthAdjust="spacingAndGlyphs" textLength="150" x="1090" y="745.3564">Reader B</text><!--MD5=[77cc08c78dcc4d03067605ed2676c015]
entity virtualReaderC--><rect fill="#F4ECF7" height="138.0469" style="stroke: #8E44AD; stroke-width: 3.75;" width="202.5" x="1353.75" y="640"/><rect fill="#F4ECF7" height="12.5" style="stroke: #8E44AD; stroke-width: 3.75;" width="25" x="1341.25" y="652.5"/><rect fill="#F4ECF7" height="12.5" style="stroke: #8E44AD; stroke-width: 3.75;" width="25" x="1341.25" y="753.0469"/><text fill="#000000" font-family="sans-serif" font-size="35" lengthAdjust="spacingAndGlyphs" textLength="100" x="1378.75" y="701.333">Virtual</text><text fill="#000000" font-family="sans-serif" font-size="35" lengthAdjust="spacingAndGlyphs" textLength="152.5" x="1378.75" y="745.3564">Reader C</text><!--MD5=[e03933a285099eb05d74043a42f6bebf]
entity appB--><rect fill="#FEFECE" height="94.0234" style="stroke: #D4AC0D; stroke-width: 3.75;" width="222.5" x="1978.75" y="150"/><rect fill="#FEFECE" height="12.5" style="stroke: #D4AC0D; stroke-width: 3.75;" width="25" x="1966.25" y="162.5"/><rect fill="#FEFECE" height="12.5" style="stroke: #D4AC0D; stroke-width: 3.75;" width="25" x="1966.25" y="219.0234"/><text fill="#000000" font-family="sans-serif" font-size="35" lengthAdjust="spacingAndGlyphs" textLength="172.5" x="2003.75" y="211.333">Application</text><!--MD5=[197ff8fe8555aedc646af3f8f8fddf5a]
entity nativeServiceB--><rect fill="#FDEDEC" height="94.0234" style="stroke: #E74C3C; stroke-width: 3.75;" width="307.5" x="1936.25" y="395"/><rect fill="#FDEDEC" height="12.5" style="stroke: #E74C3C; stroke-width: 3.75;" width="25" x="1923.75" y="407.5"/><rect fill="#FDEDEC" height="12.5" style="stroke: #E74C3C; stroke-width: 3.75;" width="25" x="1923.75" y="464.0234"/><text fill="#000000" font-family="sans-serif" font-size="35" font-weight="bold" lengthAdjust="spacingAndGlyphs" textLength="257.5" x="1961.25" y="456.333">Native Service</text><!--MD5=[963600e2dfefc9a004d951fdd76a77fd]
entity nativePluginB--><rect fill="#EBF5FB" height="138.0469" style="stroke: #3498DB; stroke-width: 3.75;" width="180" x="1790" y="640"/><rect fill="#EBF5FB" height="12.5" style="stroke: #3498DB; stroke-width: 3.75;" width="25" x="1777.5" y="652.5"/><rect fill="#EBF5FB" height="12.5" style="stroke: #3498DB; stroke-width: 3.75;" width="25" x="1777.5" y="753.0469"/><text fill="#000000" font-family="sans-serif" font-size="35" lengthAdjust="spacingAndGlyphs" textLength="97.5" x="1815" y="701.333">Native</text><text fill="#000000" font-family="sans-serif" font-size="35" lengthAdjust="spacingAndGlyphs" textLength="130" x="1815" y="745.3564">Plugin B</text><!--MD5=[29c90d27e11309ca2fd4bc989e40d51d]
entity nativeReaderB--><rect fill="#EBF5FB" height="138.0469" style="stroke: #3498DB; stroke-width: 3.75;" width="200" x="1780" y="927.5"/><rect fill="#EBF5FB" height="12.5" style="stroke: #3498DB; stroke-width: 3.75;" width="25" x="1767.5" y="940"/><rect fill="#EBF5FB" height="12.5" style="stroke: #3498DB; stroke-width: 3.75;" width="25" x="1767.5" y="1040.5469"/><text fill="#000000" font-family="sans-serif" font-size="35" lengthAdjust="spacingAndGlyphs" textLength="97.5" x="1805" y="988.833">Native</text><text fill="#000000" font-family="sans-serif" font-size="35" lengthAdjust="spacingAndGlyphs" textLength="150" x="1805" y="1032.8564">Reader B</text><!--MD5=[9586825eb0ae118928277aed080d4dd1]
entity nativePluginC--><rect fill="#F4ECF7" height="138.0469" style="stroke: #8E44AD; stroke-width: 3.75;" width="182.5" x="2243.75" y="640"/><rect fill="#F4ECF7" height="12.5" style="stroke: #8E44AD; stroke-width: 3.75;" width="25" x="2231.25" y="652.5"/><rect fill="#F4ECF7" height="12.5" style="stroke: #8E44AD; stroke-width: 3.75;" width="25" x="2231.25" y="753.0469"/><text fill="#000000" font-family="sans-serif" font-size="35" lengthAdjust="spacingAndGlyphs" textLength="97.5" x="2268.75" y="701.333">Native</text><text fill="#000000" font-family="sans-serif" font-size="35" lengthAdjust="spacingAndGlyphs" textLength="132.5" x="2268.75" y="745.3564">Plugin C</text><!--MD5=[07c92cd66b070e49c570b33a089b31fe]
entity nativeReaderC--><rect fill="#F4ECF7" height="138.0469" style="stroke: #8E44AD; stroke-width: 3.75;" width="202.5" x="2233.75" y="927.5"/><rect fill="#F4ECF7" height="12.5" style="stroke: #8E44AD; stroke-width: 3.75;" width="25" x="2221.25" y="940"/><rect fill="#F4ECF7" height="12.5" style="stroke: #8E44AD; stroke-width: 3.75;" width="25" x="2221.25" y="1040.5469"/><text fill="#000000" font-family="sans-serif" font-size="35" lengthAdjust="spacingAndGlyphs" textLength="97.5" x="2258.75" y="988.833">Native</text><text fill="#000000" font-family="sans-serif" font-size="35" lengthAdjust="spacingAndGlyphs" textLength="152.5" x="2258.75" y="1032.8564">Reader C</text><!--MD5=[97706d6bc3a2479187d78421cb19fd5d]
entity readerA--><rect fill="#E9F7EF" height="138.0469" style="stroke: #27AE60; stroke-width: 3.75;" width="360" x="275" y="1215"/><rect fill="#E9F7EF" height="12.5" style="stroke: #27AE60; stroke-width: 3.75;" width="25" x="262.5" y="1227.5"/><rect fill="#E9F7EF" height="12.5" style="stroke: #27AE60; stroke-width: 3.75;" width="25" x="262.5" y="1328.0469"/><text fill="#000000" font-family="sans-serif" font-size="35" lengthAdjust="spacingAndGlyphs" textLength="310" x="300" y="1276.333">Hardware Reader A</text><text fill="#000000" font-family="sans-serif" font-size="35" lengthAdjust="spacingAndGlyphs" textLength="300" x="300" y="1320.3564">(PO, SAM, HSM,...)</text><!--MD5=[dd4deb9cc63b37613601c38977f0eeaa]
entity readerB--><rect fill="#EBF5FB" height="138.0469" style="stroke: #3498DB; stroke-width: 3.75;" width="360" x="1700" y="1215"/><rect fill="#EBF5FB" height="12.5" style="stroke: #3498DB; stroke-width: 3.75;" width="25" x="1687.5" y="1227.5"/><rect fill="#EBF5FB" height="12.5" style="stroke: #3498DB; stroke-width: 3.75;" width="25" x="1687.5" y="1328.0469"/><text fill="#000000" font-family="sans-serif" font-size="35" lengthAdjust="spacingAndGlyphs" textLength="310" x="1725" y="1276.333">Hardware Reader B</text><text fill="#000000" font-family="sans-serif" font-size="35" lengthAdjust="spacingAndGlyphs" textLength="300" x="1725" y="1320.3564">(PO, SAM, HSM,...)</text><!--MD5=[5f08c31cfab830314614782fcb9e2915]
entity readerC--><rect fill="#F4ECF7" height="138.0469" style="stroke: #8E44AD; stroke-width: 3.75;" width="362.5" x="2153.75" y="1215"/><rect fill="#F4ECF7" height="12.5" style="stroke: #8E44AD; stroke-width: 3.75;" width="25" x="2141.25" y="1227.5"/><rect fill="#F4ECF7" height="12.5" style="stroke: #8E44AD; stroke-width: 3.75;" width="25" x="2141.25" y="1328.0469"/><text fill="#000000" font-family="sans-serif" font-size="35" lengthAdjust="spacingAndGlyphs" textLength="312.5" x="2178.75" y="1276.333">Hardware Reader C</text><text fill="#000000" font-family="sans-serif" font-size="35" lengthAdjust="spacingAndGlyphs" textLength="300" x="2178.75" y="1320.3564">(PO, SAM, HSM,...)</text><!--MD5=[afd50c00a0816d2cd2781290aaf3c6fd]
link appA to nativePluginA--><path d="M521.4375,245.345 C516.685,302.54 507.4075,403.83 495,490 C487.7625,540.2625 477.25,596.6675 468.8175,639.265 " fill="none" id="appA-nativePluginA" style="stroke: #D3D3D3; stroke-width: 2.5;"/><!--MD5=[e26d872237861622150779a5d339c786]
link appA to nativeReaderA--><path d="M542.7875,245.7725 C581.645,352.97 664.6875,627.13 587.5,837.5 C575.37,870.5575 552.8075,901.4125 529.6925,926.8275 " fill="none" id="appA-nativeReaderA" style="stroke: #D3D3D3; stroke-width: 2.5;"/><!--MD5=[382901bf9388779cf20ac02952f9d457]
link appA to nativeServiceA--><path d="M482.21,245.1425 C441.7925,287.78 381.4775,351.4075 340.8725,394.245 " fill="none" id="appA-nativeServiceA" style="stroke: #A80036; stroke-width: 2.5;"/><!--MD5=[6bebe6a6a7c6a49b994edbf0b44beb70]
link nativePluginA to nativeReaderA--><path d="M455,778.1975 C455,823.2325 455,882.35 455,927.2825 " fill="none" id="nativePluginA-nativeReaderA" style="stroke: #27AE60; stroke-width: 2.5;"/><!--MD5=[d4bb06e6ae1d3b4f7bdb4f7879fb89e4]
link nativeServiceA to nativePluginA--><path d="M324.935,490.5075 C349.7875,531.7325 386.72,592.9925 414.8875,639.7125 " fill="none" id="nativeServiceA-nativePluginA" style="stroke: #27AE60; stroke-width: 2.5;"/><!--MD5=[a49d593cd933f8ba5051ba5812e15ca8]
link nativeServiceA to nativeReaderA--><path d="M290.935,490.5975 C282.055,565.955 272.3325,719.835 320,837.5 C333.46,870.7275 357.005,901.8375 380.7,927.4125 " fill="none" id="nativeServiceA-nativeReaderA" style="stroke: #27AE60; stroke-width: 2.5;"/><!--MD5=[b21be0d9cfb8f9ce7e4c95419eb9faaf]
link nativeReaderA to readerA--><path d="M455,1065.6975 C455,1110.7313 455,1169.85 455,1214.782 " fill="none" id="nativeReaderA-readerA" style="stroke: #27AE60; stroke-width: 2.5;"/><!--MD5=[4ef2cb5941444c4311fe379522e677cc]
link nativeServiceA to remotePlugin--><path d="M451.72,442.5 C623.575,442.5 795.43,442.5 967.2875,442.5 " fill="none" id="nativeServiceA-remotePlugin" style="stroke: #A80036; stroke-width: 2.5;"/><!--MD5=[fcbe8f378ea262bfa23bcac2f0bc6e93]
link app to remotePlugin--><path d="M1217.43,245.1425 C1196.11,287.78 1164.295,351.4075 1142.8775,394.245 " fill="none" id="app-remotePlugin" style="stroke: #A80036; stroke-width: 2.5;"/><!--MD5=[1f6a200cfe4ee3ebb4f1bdabda38ac45]
link app to virtualReaderA--><path d="M1127.9825,239.92 C1057.43,271.0575 970.845,321.5 922.5,395 C874.195,468.44 868.85,572.6125 871.535,639.815 " fill="none" id="app-virtualReaderA" style="stroke: #D3D3D3; stroke-width: 2.5;"/><!--MD5=[9f84d05cddcc15e185e06fe6bfdf8fe2]
link app to virtualReaderB--><path d="M1267.5525,245.6075 C1298.67,303.0675 1341.7075,404.635 1315,490 C1297.5375,545.8175 1260.0375,599.88 1226.9025,639.9875 " fill="none" id="app-virtualReaderB" style="stroke: #D3D3D3; stroke-width: 2.5;"/><!--MD5=[efba58b4f1c75513f999c613514208c4]
link app to virtualReaderC--><path d="M1266.26,245.6125 C1288.1375,284.5825 1319.3475,342.51 1342.5,395 C1378.9025,477.5375 1412.97,575.9025 1433.8725,639.64 " fill="none" id="app-virtualReaderC" style="stroke: #D3D3D3; stroke-width: 2.5;"/><!--MD5=[b7bef36696030a5e21e918e36bc0b09f]
link remotePlugin to virtualReaderA--><path d="M1077.76,490.5075 C1039.4925,531.7325 982.6275,592.9925 939.2625,639.7125 " fill="none" id="remotePlugin-virtualReaderA" style="stroke: #27AE60; stroke-width: 2.5;"/><!--MD5=[8ed958010eeb262129096907532e7a1f]
link remotePlugin to virtualReaderB--><path d="M1127.8375,490.5075 C1134.94,531.7325 1145.4925,592.9925 1153.54,639.7125 " fill="none" id="remotePlugin-virtualReaderB" style="stroke: #3498DB; stroke-width: 2.5;"/><!--MD5=[5395a68b496229fa03333f68c37e6491]
link remotePlugin to virtualReaderC--><path d="M1178.3525,490.5075 C1231.2175,531.7325 1309.77,592.9925 1369.68,639.7125 " fill="none" id="remotePlugin-virtualReaderC" style="stroke: #8E44AD; stroke-width: 2.5;"/><!--MD5=[6d312fab1737f7b73ac7805503fc8547]
link remotePlugin to nativeServiceB--><path d="M1272.51,442.5 C1493.6475,442.5 1714.785,442.5 1935.9225,442.5 " fill="none" id="remotePlugin-nativeServiceB" style="stroke: #A80036; stroke-width: 2.5;"/><!--MD5=[812bef263275d0d2837f4d0637c18315]
link appB to nativePluginB--><path d="M2022.8625,245.075 C1977.0775,280.01 1919.9525,332.8525 1892.5,395 C1857.755,473.655 1861.3475,574.6725 1869.06,639.9325 " fill="none" id="appB-nativePluginB" style="stroke: #D3D3D3; stroke-width: 2.5;"/><!--MD5=[edf5b7f7f5161aa6e556809bf209f9a3]
link appB to nativeReaderB--><path d="M2016.935,245.3725 C1964.7525,280.815 1895.935,334.1575 1850,395 C1778.6175,489.5475 1768.82,523.9525 1745,640 C1727.35,725.985 1714.3825,755.235 1745,837.5 C1757.38,870.7625 1780.3725,901.665 1803.92,927.06 " fill="none" id="appB-nativeReaderB" style="stroke: #D3D3D3; stroke-width: 2.5;"/><!--MD5=[a75e98be59ae65e7660bbf4d8560124b]
link appB to nativeServiceB--><path d="M2090,245.1425 C2090,287.78 2090,351.4075 2090,394.245 " fill="none" id="appB-nativeServiceB" style="stroke: #A80036; stroke-width: 2.5;"/><!--MD5=[dd2a48233e81b0ba213c8da68b9f7a65]
link nativePluginB to nativeReaderB--><path d="M1880,778.1975 C1880,823.2325 1880,882.35 1880,927.2825 " fill="none" id="nativePluginB-nativeReaderB" style="stroke: #3498DB; stroke-width: 2.5;"/><!--MD5=[e79fb97ff9c5a9497bef18b4aab587af]
link nativeServiceB to nativePluginB--><path d="M2053.42,490.5075 C2020.2825,531.7325 1971.04,592.9925 1933.485,639.7125 " fill="none" id="nativeServiceB-nativePluginB" style="stroke: #3498DB; stroke-width: 2.5;"/><!--MD5=[07854c1651614780927f6fe429b59636]
link nativeServiceB to nativeReaderB--><path d="M2088.3675,490.8875 C2084.0875,566.6575 2068.5925,721.12 2012.5,837.5 C1996.9025,869.86 1972.9875,901.0075 1949.7475,926.86 " fill="none" id="nativeServiceB-nativeReaderB" style="stroke: #3498DB; stroke-width: 2.5;"/><!--MD5=[0fdacec584030a6c1fd0a1873168dab2]
link nativeReaderB to readerB--><path d="M1880,1065.6975 C1880,1110.7313 1880,1169.85 1880,1214.782 " fill="none" id="nativeReaderB-readerB" style="stroke: #3498DB; stroke-width: 2.5;"/><!--MD5=[cfacd7fc1812697cef3294829ae65229]
link appB to nativePluginC--><path d="M2154.12,245.305 C2199.0475,280.715 2256.415,334.0475 2287.5,395 C2326.985,472.425 2335.7475,573.74 2336.715,639.4025 " fill="none" id="appB-nativePluginC" style="stroke: #D3D3D3; stroke-width: 2.5;"/><!--MD5=[dcbc3a7e3099a6cb4667447d5eb91e02]
link appB to nativeReaderC--><path d="M2158.01,245.7175 C2208.7875,282.1075 2277.71,336.4925 2327.5,395 C2409.14,490.9325 2437.2025,518.3775 2470,640 C2492.855,724.75 2500.6175,755.235 2470,837.5 C2457.62,870.7625 2434.6275,901.665 2411.08,927.06 " fill="none" id="appB-nativeReaderC" style="stroke: #D3D3D3; stroke-width: 2.5;"/><!--MD5=[ba916241c64bc24507652f1364ff5575]
link nativeServiceB to nativePluginC--><path d="M2132.675,490.5075 C2171.3375,531.7325 2228.7875,592.9925 2272.6025,639.7125 " fill="none" id="nativeServiceB-nativePluginC" style="stroke: #8E44AD; stroke-width: 2.5;"/><!--MD5=[d000f7fe13353863e180139e12cfb25f]
link nativeServiceB to nativeReaderC--><path d="M2096.205,490.98 C2107.87,566.8875 2137.715,721.54 2200,837.5 C2217.3025,869.7125 2242.25,901.0625 2266,927.12 " fill="none" id="nativeServiceB-nativeReaderC" style="stroke: #8E44AD; stroke-width: 2.5;"/><!--MD5=[2ae6cbcbfc5597f5a8c6c95c09c3e798]
link nativePluginC to nativeReaderC--><path d="M2335,778.1975 C2335,823.2325 2335,882.35 2335,927.2825 " fill="none" id="nativePluginC-nativeReaderC" style="stroke: #8E44AD; stroke-width: 2.5;"/><!--MD5=[13b4ca831fb6cc84687311c3afb75393]
link nativeReaderC to readerC--><path d="M2335,1065.6975 C2335,1110.7313 2335,1169.85 2335,1214.782 " fill="none" id="nativeReaderC-readerC" style="stroke: #8E44AD; stroke-width: 2.5;"/><text fill="#888888" font-family="sans-serif" font-size="25" lengthAdjust="spacingAndGlyphs" textLength="557.5" x="1043.75" y="1403.4521">Keyple Remote Plugin - Concepts (22/10/2020)</text><!--MD5=[5b55ba5bb4fcd6fc43be79b277b5ab4c]
@startuml
footer
    Keyple Remote Plugin - Concepts (22/10/2020)
end footer


skinparam Shadowing false
skinparam component {
    BorderColor #D4AC0D
    BackgroundColor<<red>> #FDEDEC
    BorderColor<<red>> #E74C3C
    BackgroundColor<<purple>> #F4ECF7
    BorderColor<<purple>> #8E44AD
    BackgroundColor<<blue>> #EBF5FB
    BorderColor<<blue>> #3498DB
    BackgroundColor<<green>> #E9F7EF
    BorderColor<<green>> #27AE60
    BackgroundColor<<grey>> #EAECEE
    BorderColor<<grey>> #2C3E50
}
hide <<red>> stereotype
hide <<purple>> stereotype
hide <<blue>> stereotype
hide <<green>> stereotype
hide <<grey>> stereotype


[Hardware Reader A\n(PO, SAM, HSM,...)] as readerA <<green>>
[Hardware Reader B\n(PO, SAM, HSM,...)] as readerB <<blue>>
[Hardware Reader C\n(PO, SAM, HSM,...)] as readerC <<purple>>
package "Terminal A with 'hardware' reader" {
    [Application] as appA
    [**Native Service**] as nativeServiceA <<red>>
    [Native\nPlugin A] as nativePluginA <<green>>
    [Native\nReader A] as nativeReaderA <<green>>
}
package "Terminal with 'virtual' reader" {
    [Application] as app
    [**Remote Plugin**] as remotePlugin <<red>>
    [Virtual\nReader A] as virtualReaderA <<green>>
    [Virtual\nReader B] as virtualReaderB <<blue>>
    [Virtual\nReader C] as virtualReaderC <<purple>>
}
package "Terminal B with 'hardware' reader" {
    [Application] as appB
    [**Native Service**] as nativeServiceB <<red>>
    [Native\nPlugin B] as nativePluginB <<blue>>
    [Native\nReader B] as nativeReaderB <<blue>>
    [Native\nPlugin C] as nativePluginC <<purple>>
    [Native\nReader C] as nativeReaderC <<purple>>
}


appA - - nativePluginA #LightGrey
appA - - nativeReaderA #LightGrey
appA - - nativeServiceA
nativePluginA - - nativeReaderA #27AE60
nativeServiceA - - nativePluginA #27AE60
nativeServiceA - - nativeReaderA #27AE60
nativeReaderA - - readerA #27AE60

nativeServiceA - remotePlugin

app - - remotePlugin
app - - virtualReaderA #LightGrey
app - - virtualReaderB #LightGrey
app - - virtualReaderC #LightGrey
remotePlugin - - virtualReaderA #27AE60
remotePlugin - - virtualReaderB #3498DB
remotePlugin - - virtualReaderC #8E44AD

remotePlugin - nativeServiceB

appB - - nativePluginB #LightGrey
appB - - nativeReaderB #LightGrey
appB - - nativeServiceB
nativePluginB - - nativeReaderB #3498DB
nativeServiceB - - nativePluginB #3498DB
nativeServiceB - - nativeReaderB #3498DB
nativeReaderB - - readerB #3498DB

appB - - nativePluginC #LightGrey
appB - - nativeReaderC #LightGrey
nativeServiceB - - nativePluginC #8E44AD
nativeServiceB - - nativeReaderC #8E44AD
nativePluginC - - nativeReaderC #8E44AD
nativeReaderC - - readerC #8E44AD

@enduml

PlantUML version 1.2020.09(Sun May 10 12:51:06 CEST 2020)
(GPL source distribution)
Java Runtime: OpenJDK Runtime Environment
JVM: OpenJDK 64-Bit Server VM
Java Version: 11.0.8+10-b944.34
Operating System: Windows 10
Default Encoding: Cp1252
Language: fr
Country: FR
--></g></svg>