<?xml version="1.0" encoding="UTF-8" standalone="no"?><svg xmlns="http://www.w3.org/2000/svg" xmlns:xlink="http://www.w3.org/1999/xlink" contentScriptType="application/ecmascript" contentStyleType="text/css" height="927.5px" preserveAspectRatio="none" style="width:1992px;height:927px;" version="1.1" viewBox="0 0 1992 927" width="1992.5px" zoomAndPan="magnify"><defs/><g><text fill="#000000" font-family="sans-serif" font-size="45" lengthAdjust="spacingAndGlyphs" textLength="977.5" x="528.75" y="46.7139">UC 3: RemoteClientPlugin - Reader (07/10/2020)</text><!--MD5=[894bca0b73d7f9a3a6f9deeed838767d]
cluster Client App--><polygon fill="#FFFFFF" points="120,116.6016,315,116.6016,332.5,175.625,1070,175.625,1070,756.6016,120,756.6016,120,116.6016" style="stroke: #000000; stroke-width: 3.75;"/><line style="stroke: #000000; stroke-width: 3.75;" x1="120" x2="332.5" y1="175.625" y2="175.625"/><text fill="#000000" font-family="sans-serif" font-size="35" font-weight="bold" lengthAdjust="spacingAndGlyphs" textLength="180" x="130" y="157.9346">Client App</text><!--MD5=[24dc29b071615c4dcac39c996c469546]
cluster virtualKeyple--><polygon fill="#FFFFFF" points="520,226.6016,985,226.6016,1002.5,285.625,1010,285.625,1010,696.6016,520,696.6016,520,226.6016" style="stroke: #000000; stroke-width: 3.75;"/><line style="stroke: #000000; stroke-width: 3.75;" x1="520" x2="1002.5" y1="285.625" y2="285.625"/><text fill="#000000" font-family="sans-serif" font-size="35" font-weight="bold" lengthAdjust="spacingAndGlyphs" textLength="450" x="530" y="267.9346">Keyple Remote Virtual Lib</text><!--MD5=[057207eb3aecb7e32e9a99f8601ae8aa]
cluster Server App--><polygon fill="#FFFFFF" points="1130,116.6016,1342.5,116.6016,1360,175.625,1937.5,175.625,1937.5,756.6016,1130,756.6016,1130,116.6016" style="stroke: #000000; stroke-width: 3.75;"/><line style="stroke: #000000; stroke-width: 3.75;" x1="1130" x2="1360" y1="175.625" y2="175.625"/><text fill="#000000" font-family="sans-serif" font-size="35" font-weight="bold" lengthAdjust="spacingAndGlyphs" textLength="197.5" x="1140" y="157.9346">Server App</text><!--MD5=[06de4c2a8c4b5af4edb191b660abc35d]
cluster nativeKeyple--><polygon fill="#FFFFFF" points="1190,226.6016,1655,226.6016,1672.5,285.625,1877.5,285.625,1877.5,696.6016,1190,696.6016,1190,226.6016" style="stroke: #000000; stroke-width: 3.75;"/><line style="stroke: #000000; stroke-width: 3.75;" x1="1190" x2="1672.5" y1="285.625" y2="285.625"/><text fill="#000000" font-family="sans-serif" font-size="35" font-weight="bold" lengthAdjust="spacingAndGlyphs" textLength="450" x="1200" y="267.9346">Keyple Remote Native Lib</text><!--MD5=[e6001af16d4774e0fdad2715570119d9]
entity master--><rect fill="#FEFECE" height="94.0234" style="stroke: #D4AC0D; stroke-width: 3.75;" width="320" x="160" y="316.6016"/><rect fill="#FEFECE" height="12.5" style="stroke: #D4AC0D; stroke-width: 3.75;" width="25" x="147.5" y="329.1016"/><rect fill="#FEFECE" height="12.5" style="stroke: #D4AC0D; stroke-width: 3.75;" width="25" x="147.5" y="385.625"/><text fill="#000000" font-family="sans-serif" font-size="35" font-style="italic" lengthAdjust="spacingAndGlyphs" textLength="270" x="185" y="377.9346">Ticketing Service</text><!--MD5=[46c0e94453be0e63c5c0acba14348135]
entity virtualReader--><rect fill="#EBF5FB" height="94.0234" style="stroke: #3498DB; stroke-width: 3.75;" width="167.5" x="683.75" y="561.6016"/><rect fill="#EBF5FB" height="12.5" style="stroke: #3498DB; stroke-width: 3.75;" width="25" x="671.25" y="574.1016"/><rect fill="#EBF5FB" height="12.5" style="stroke: #3498DB; stroke-width: 3.75;" width="25" x="671.25" y="630.625"/><text fill="#000000" font-family="sans-serif" font-size="35" lengthAdjust="spacingAndGlyphs" textLength="117.5" x="708.75" y="622.9346">Reader</text><!--MD5=[b13b07d55c7883db68a0f180de86afd8]
entity RemoteClientPlugin--><rect fill="#E9F7EF" height="94.0234" style="stroke: #27AE60; stroke-width: 3.75;" width="360" x="587.5" y="316.6016"/><rect fill="#E9F7EF" height="12.5" style="stroke: #27AE60; stroke-width: 3.75;" width="25" x="575" y="329.1016"/><rect fill="#E9F7EF" height="12.5" style="stroke: #27AE60; stroke-width: 3.75;" width="25" x="575" y="385.625"/><text fill="#000000" font-family="sans-serif" font-size="35" lengthAdjust="spacingAndGlyphs" textLength="310" x="612.5" y="377.9346">RemoteClientPlugin</text><!--MD5=[2db0a362b33505ba32821d1f8f5f522c]
entity nativeReader--><rect fill="#EBF5FB" height="94.0234" style="stroke: #3498DB; stroke-width: 3.75;" width="167.5" x="1498.75" y="561.6016"/><rect fill="#EBF5FB" height="12.5" style="stroke: #3498DB; stroke-width: 3.75;" width="25" x="1486.25" y="574.1016"/><rect fill="#EBF5FB" height="12.5" style="stroke: #3498DB; stroke-width: 3.75;" width="25" x="1486.25" y="630.625"/><text fill="#000000" font-family="sans-serif" font-size="35" lengthAdjust="spacingAndGlyphs" textLength="117.5" x="1523.75" y="622.9346">Reader</text><!--MD5=[336b9fd48f5e9f3ed29f596a82d3af84]
entity Plugin--><rect fill="#E9F7EF" height="94.0234" style="stroke: #27AE60; stroke-width: 3.75;" width="147.5" x="1688.75" y="316.6016"/><rect fill="#E9F7EF" height="12.5" style="stroke: #27AE60; stroke-width: 3.75;" width="25" x="1676.25" y="329.1016"/><rect fill="#E9F7EF" height="12.5" style="stroke: #27AE60; stroke-width: 3.75;" width="25" x="1676.25" y="385.625"/><text fill="#000000" font-family="sans-serif" font-size="35" lengthAdjust="spacingAndGlyphs" textLength="97.5" x="1713.75" y="377.9346">Plugin</text><!--MD5=[fb45b75c48df496aff5e788cb555cfe7]
entity NativeServerService--><rect fill="#E9F7EF" height="94.0234" style="stroke: #27AE60; stroke-width: 3.75;" width="370" x="1230" y="316.6016"/><rect fill="#E9F7EF" height="12.5" style="stroke: #27AE60; stroke-width: 3.75;" width="25" x="1217.5" y="329.1016"/><rect fill="#E9F7EF" height="12.5" style="stroke: #27AE60; stroke-width: 3.75;" width="25" x="1217.5" y="385.625"/><text fill="#000000" font-family="sans-serif" font-size="35" lengthAdjust="spacingAndGlyphs" textLength="320" x="1255" y="377.9346">NativeServerService</text><!--MD5=[421c0c28c3c162af05b6849f8e632b78]
entity Card--><rect fill="#FEFECE" height="94.0234" style="stroke: #D4AC0D; stroke-width: 3.75;" width="127.5" x="1518.75" y="806.6016"/><rect fill="#FEFECE" height="12.5" style="stroke: #D4AC0D; stroke-width: 3.75;" width="25" x="1506.25" y="819.1016"/><rect fill="#FEFECE" height="12.5" style="stroke: #D4AC0D; stroke-width: 3.75;" width="25" x="1506.25" y="875.625"/><text fill="#000000" font-family="sans-serif" font-size="35" lengthAdjust="spacingAndGlyphs" textLength="77.5" x="1543.75" y="867.9346">Card</text><!--MD5=[c88a36799ca4d6dff2d7449eacfc25f7]
entity start--><ellipse cx="50" cy="364.1016" fill="#FEFECE" rx="20" ry="20" style="stroke: #A80036; stroke-width: 5.0;"/><text fill="#000000" font-family="sans-serif" font-size="35" lengthAdjust="spacingAndGlyphs" textLength="70" x="15" y="442.9346">start</text><!--MD5=[b0b76e5f08d084e3b42e05b3086adf1d]
link start to master--><path d="M73.2033,364.1016 C97.8315,364.1016 122.46,364.1016 147.0885,364.1016 " fill="none" id="start-&gt;master" style="stroke: #A80036; stroke-width: 2.5;"/><polygon fill="#A80036" points="159.9678,364.1016,137.4678,354.1016,147.4678,364.1016,137.4678,374.1016,159.9678,364.1016" style="stroke: #A80036; stroke-width: 2.5;"/><!--MD5=[31d78c74f6dad304d726d6fea0fbc998]
link master to RemoteClientPlugin--><path d="M480.82,364.1016 C511.85,364.1016 542.8775,364.1016 573.9075,364.1016 " fill="none" id="master-&gt;RemoteClientPlugin" style="stroke: #A80036; stroke-width: 2.5;"/><polygon fill="#A80036" points="587.205,364.1016,564.705,354.1016,574.705,364.1016,564.705,374.1016,587.205,364.1016" style="stroke: #A80036; stroke-width: 2.5;"/><!--MD5=[e41ad7885d08fa08fcd73e44afacc481]
link master to virtualReader--><path d="M404.1725,411.7441 C480.4275,452.6416 592.695,512.8516 672.22,555.5016 " fill="none" id="master-&gt;virtualReader" style="stroke: #A80036; stroke-width: 2.5;"/><polygon fill="#A80036" points="683.705,561.6616,668.603,542.2147,672.6893,555.7536,659.1503,559.8399,683.705,561.6616" style="stroke: #A80036; stroke-width: 2.5;"/><!--MD5=[8ca21170aca10e44a36310a99fbf9ead]
link RemoteClientPlugin to virtualReader--><path d="M767.5,411.7441 C767.5,450.3841 767.5,506.2641 767.5,548.2841 " fill="none" id="RemoteClientPlugin-&gt;virtualReader" style="stroke: #A80036; stroke-width: 2.5;"/><polygon fill="#A80036" points="767.5,560.8466,777.5,538.3466,767.5,548.3466,757.5,538.3466,767.5,560.8466" style="stroke: #A80036; stroke-width: 2.5;"/><!--MD5=[de7c3639a480e012ebbd080caba8c9ba]
link RemoteClientPlugin to NativeServerService--><path d="M960.9325,364.1016 C1046.33,364.1016 1131.73,364.1016 1217.1275,364.1016 " fill="none" id="RemoteClientPlugin-NativeServerService" style="stroke: #A80036; stroke-width: 2.5;"/><polygon fill="#A80036" points="1229.7275,364.1016,1207.2275,354.1016,1217.2275,364.1016,1207.2275,374.1016,1229.7275,364.1016" style="stroke: #A80036; stroke-width: 2.5;"/><polygon fill="#A80036" points="947.7125,364.1016,970.2125,374.1016,960.2125,364.1016,970.2125,354.1016,947.7125,364.1016" style="stroke: #A80036; stroke-width: 2.5;"/><!--MD5=[36054617502d1ecf60bfed64ecb8db72]
reverse link NativeServerService to virtualReader--><path d="M1280.9175,416.2991 C1151.8375,464.1441 960.62,535.0191 851.6525,575.4116 " fill="none" id="NativeServerService&lt;-virtualReader" style="stroke: #A80036; stroke-width: 2.5;"/><polygon fill="#A80036" points="1293.21,411.7441,1268.6373,410.1841,1281.4887,416.0869,1275.5858,428.9382,1293.21,411.7441" style="stroke: #A80036; stroke-width: 2.5;"/><!--MD5=[027ac3cf3d84557f1cdd1e6a11df3033]
link NativeServerService to Plugin--><path d="M1600.2875,364.1016 C1625.29,364.1016 1650.29,364.1016 1675.29,364.1016 " fill="none" id="NativeServerService-&gt;Plugin" style="stroke: #A80036; stroke-width: 2.5;"/><polygon fill="#A80036" points="1688.365,364.1016,1665.865,354.1016,1675.865,364.1016,1665.865,374.1016,1688.365,364.1016" style="stroke: #A80036; stroke-width: 2.5;"/><!--MD5=[45c22a4faee9c9602002af5cf2b9f1c5]
link NativeServerService to nativeReader--><path d="M1446.505,411.7441 C1473.9375,451.0491 1513.82,508.1966 1543.3075,550.4441 " fill="none" id="NativeServerService-&gt;nativeReader" style="stroke: #A80036; stroke-width: 2.5;"/><polygon fill="#A80036" points="1550.5675,560.8466,1545.8909,536.6726,1543.4136,550.5961,1529.4901,548.1189,1550.5675,560.8466" style="stroke: #A80036; stroke-width: 2.5;"/><!--MD5=[f2f51e7a003928e004d0b7e3d5a5a367]
link Plugin to nativeReader--><path d="M1728.6425,411.7441 C1699.165,451.0491 1656.305,508.1966 1624.6175,550.4441 " fill="none" id="Plugin-&gt;nativeReader" style="stroke: #A80036; stroke-width: 2.5;"/><polygon fill="#A80036" points="1616.8175,560.8466,1638.3175,548.8466,1624.3175,550.8466,1622.3175,536.8466,1616.8175,560.8466" style="stroke: #A80036; stroke-width: 2.5;"/><!--MD5=[19b42d82525af6e19ceb3ad49b035f9b]
link nativeReader to Card--><path d="M1582.5,656.7438 C1582.5,695.3831 1582.5,751.2633 1582.5,793.2843 " fill="none" id="nativeReader-&gt;Card" style="stroke: #A80036; stroke-width: 2.5;"/><polygon fill="#A80036" points="1582.5,805.8458,1592.5,783.3458,1582.5,793.3458,1572.5,783.3458,1582.5,805.8458" style="stroke: #A80036; stroke-width: 2.5;"/><!--MD5=[62e17ea0ccb61caa0c0b5ccd868fba12]
@startuml
title
    UC 3: RemoteClientPlugin - Reader (07/10/2020)
end title


skinparam Shadowing false
skinparam component {
    BorderColor #D4AC0D
    BackgroundColor<<red>> #FDEDEC
    BorderColor<<red>> #E74C3C
    BackgroundColor<<purple>> #F4ECF7
    BorderColor<<purple>> #8E44AD
    BackgroundColor<<blue>> #EBF5FB
    BorderColor<<blue>> #3498DB
    BackgroundColor<<green>> #E9F7EF
    BorderColor<<green>> #27AE60
    BackgroundColor<<grey>> #EAECEE
    BorderColor<<grey>> #2C3E50
}
hide <<red>> stereotype
hide <<purple>> stereotype
hide <<blue>> stereotype
hide <<green>> stereotype
hide <<grey>> stereotype


package "Client App" {
    [<i>Ticketing Service</i>] as master
    package "Keyple Remote Virtual Lib" as virtualKeyple {
        [Reader] as virtualReader <<blue>>
        [RemoteClientPlugin] <<green>>
    }
}
[Card]
package "Server App" {
    package "Keyple Remote Native Lib" as nativeKeyple {
        [Reader] as nativeReader <<blue>>
        [Plugin] <<green>>
        [NativeServerService] <<green>>
    }
}

start -> master
master -> [RemoteClientPlugin]
master -> virtualReader
[RemoteClientPlugin] - -> virtualReader

[RemoteClientPlugin] <-> [NativeServerService]
virtualReader -up-> [NativeServerService]

[NativeServerService] -> [Plugin]
[NativeServerService] -> nativeReader
[Plugin] - -> nativeReader
nativeReader - -> [Card]

@enduml

PlantUML version 1.2020.09(Sun May 10 12:51:06 CEST 2020)
(GPL source distribution)
Java Runtime: OpenJDK Runtime Environment
JVM: OpenJDK 64-Bit Server VM
Java Version: 11.0.8+10-b944.34
Operating System: Windows 10
Default Encoding: Cp1252
Language: fr
Country: FR
--></g></svg>