<?xml version="1.0" encoding="UTF-8" standalone="no"?><svg xmlns="http://www.w3.org/2000/svg" xmlns:xlink="http://www.w3.org/1999/xlink" contentScriptType="application/ecmascript" contentStyleType="text/css" height="1165px" preserveAspectRatio="none" style="width:2607px;height:1165px;" version="1.1" viewBox="0 0 2607 1165" width="2607.5px" zoomAndPan="magnify"><defs/><g><text fill="#000000" font-family="sans-serif" font-size="45" lengthAdjust="spacingAndGlyphs" textLength="1225" x="712.5" y="46.7139">UC 2: RemoteServerPlugin - ObservableReader (07/10/2020)</text><!--MD5=[894bca0b73d7f9a3a6f9deeed838767d]
cluster Client App--><polygon fill="#FFFFFF" points="120,116.6016,315,116.6016,332.5,175.625,1070,175.625,1070,884.1016,120,884.1016,120,116.6016" style="stroke: #000000; stroke-width: 3.75;"/><line style="stroke: #000000; stroke-width: 3.75;" x1="120" x2="332.5" y1="175.625" y2="175.625"/><text fill="#000000" font-family="sans-serif" font-size="35" font-weight="bold" lengthAdjust="spacingAndGlyphs" textLength="180" x="130" y="157.9346">Client App</text><!--MD5=[06de4c2a8c4b5af4edb191b660abc35d]
cluster nativeKeyple--><polygon fill="#FFFFFF" points="520,226.6016,985,226.6016,1002.5,285.625,1010,285.625,1010,824.1016,520,824.1016,520,226.6016" style="stroke: #000000; stroke-width: 3.75;"/><line style="stroke: #000000; stroke-width: 3.75;" x1="520" x2="1002.5" y1="285.625" y2="285.625"/><text fill="#000000" font-family="sans-serif" font-size="35" font-weight="bold" lengthAdjust="spacingAndGlyphs" textLength="450" x="530" y="267.9346">Keyple Remote Native Lib</text><!--MD5=[057207eb3aecb7e32e9a99f8601ae8aa]
cluster Server App--><polygon fill="#FFFFFF" points="1130,116.6016,1342.5,116.6016,1360,175.625,2552.5,175.625,2552.5,884.1016,1130,884.1016,1130,116.6016" style="stroke: #000000; stroke-width: 3.75;"/><line style="stroke: #000000; stroke-width: 3.75;" x1="1130" x2="1360" y1="175.625" y2="175.625"/><text fill="#000000" font-family="sans-serif" font-size="35" font-weight="bold" lengthAdjust="spacingAndGlyphs" textLength="197.5" x="1140" y="157.9346">Server App</text><!--MD5=[24dc29b071615c4dcac39c996c469546]
cluster virtualKeyple--><polygon fill="#FFFFFF" points="1190,226.6016,1655,226.6016,1672.5,285.625,1850,285.625,1850,824.1016,1190,824.1016,1190,226.6016" style="stroke: #000000; stroke-width: 3.75;"/><line style="stroke: #000000; stroke-width: 3.75;" x1="1190" x2="1672.5" y1="285.625" y2="285.625"/><text fill="#000000" font-family="sans-serif" font-size="35" font-weight="bold" lengthAdjust="spacingAndGlyphs" textLength="450" x="1200" y="267.9346">Keyple Remote Virtual Lib</text><!--MD5=[c9b0f7d029555e33f7bc9e52b3f8d2d5]
entity slave--><rect fill="#FEFECE" height="94.0234" style="stroke: #D4AC0D; stroke-width: 3.75;" width="320" x="160" y="316.6016"/><rect fill="#FEFECE" height="12.5" style="stroke: #D4AC0D; stroke-width: 3.75;" width="25" x="147.5" y="329.1016"/><rect fill="#FEFECE" height="12.5" style="stroke: #D4AC0D; stroke-width: 3.75;" width="25" x="147.5" y="385.625"/><text fill="#000000" font-family="sans-serif" font-size="35" font-style="italic" lengthAdjust="spacingAndGlyphs" textLength="270" x="185" y="377.9346">Ticketing Service</text><!--MD5=[84ec96b2bd789e2af987850d3b55dd6f]
entity ObservableReader--><rect fill="#EBF5FB" height="94.0234" style="stroke: #3498DB; stroke-width: 3.75;" width="350" x="567.5" y="689.1016"/><rect fill="#EBF5FB" height="12.5" style="stroke: #3498DB; stroke-width: 3.75;" width="25" x="555" y="701.6016"/><rect fill="#EBF5FB" height="12.5" style="stroke: #3498DB; stroke-width: 3.75;" width="25" x="555" y="758.125"/><text fill="#000000" font-family="sans-serif" font-size="35" lengthAdjust="spacingAndGlyphs" textLength="300" x="592.5" y="750.4346">ObservableReader</text><!--MD5=[f2ec79828c63ffc0b4f8603504aee76e]
entity NativeClientService--><rect fill="#E9F7EF" height="94.0234" style="stroke: #27AE60; stroke-width: 3.75;" width="355" x="567.5" y="316.6016"/><rect fill="#E9F7EF" height="12.5" style="stroke: #27AE60; stroke-width: 3.75;" width="25" x="555" y="329.1016"/><rect fill="#E9F7EF" height="12.5" style="stroke: #27AE60; stroke-width: 3.75;" width="25" x="555" y="385.625"/><text fill="#000000" font-family="sans-serif" font-size="35" lengthAdjust="spacingAndGlyphs" textLength="305" x="592.5" y="377.9346">NativeClientService</text><!--MD5=[e6001af16d4774e0fdad2715570119d9]
entity master--><rect fill="#FEFECE" height="94.0234" style="stroke: #D4AC0D; stroke-width: 3.75;" width="452.5" x="2058.75" y="689.1016"/><rect fill="#FEFECE" height="12.5" style="stroke: #D4AC0D; stroke-width: 3.75;" width="25" x="2046.25" y="701.6016"/><rect fill="#FEFECE" height="12.5" style="stroke: #D4AC0D; stroke-width: 3.75;" width="25" x="2046.25" y="758.125"/><text fill="#000000" font-family="sans-serif" font-size="35" font-style="italic" lengthAdjust="spacingAndGlyphs" textLength="402.5" x="2083.75" y="750.4346">Remote Ticketing Service</text><!--MD5=[003f721315919c351c79ad5e7443025d]
entity RemoteServerPlugin--><rect fill="#E9F7EF" height="94.0234" style="stroke: #27AE60; stroke-width: 3.75;" width="375" x="1397.5" y="316.6016"/><rect fill="#E9F7EF" height="12.5" style="stroke: #27AE60; stroke-width: 3.75;" width="25" x="1385" y="329.1016"/><rect fill="#E9F7EF" height="12.5" style="stroke: #27AE60; stroke-width: 3.75;" width="25" x="1385" y="385.625"/><text fill="#000000" font-family="sans-serif" font-size="35" lengthAdjust="spacingAndGlyphs" textLength="325" x="1422.5" y="377.9346">RemoteServerPlugin</text><!--MD5=[29f6846988f4d4889c37535b523048db]
entity RemoteServerObservableReader--><rect fill="#EBF5FB" height="94.0234" style="stroke: #3498DB; stroke-width: 3.75;" width="577.5" x="1231.25" y="689.1016"/><rect fill="#EBF5FB" height="12.5" style="stroke: #3498DB; stroke-width: 3.75;" width="25" x="1218.75" y="701.6016"/><rect fill="#EBF5FB" height="12.5" style="stroke: #3498DB; stroke-width: 3.75;" width="25" x="1218.75" y="758.125"/><text fill="#000000" font-family="sans-serif" font-size="35" lengthAdjust="spacingAndGlyphs" textLength="527.5" x="1256.25" y="750.4346">RemoteServerObservableReader</text><!--MD5=[421c0c28c3c162af05b6849f8e632b78]
entity Card--><rect fill="#FEFECE" height="94.0234" style="stroke: #D4AC0D; stroke-width: 3.75;" width="127.5" x="678.75" y="1044.1016"/><rect fill="#FEFECE" height="12.5" style="stroke: #D4AC0D; stroke-width: 3.75;" width="25" x="666.25" y="1056.6016"/><rect fill="#FEFECE" height="12.5" style="stroke: #D4AC0D; stroke-width: 3.75;" width="25" x="666.25" y="1113.125"/><text fill="#000000" font-family="sans-serif" font-size="35" lengthAdjust="spacingAndGlyphs" textLength="77.5" x="703.75" y="1105.4346">Card</text><!--MD5=[c88a36799ca4d6dff2d7449eacfc25f7]
entity start--><ellipse cx="50" cy="364.1016" fill="#FEFECE" rx="20" ry="20" style="stroke: #A80036; stroke-width: 5.0;"/><text fill="#000000" font-family="sans-serif" font-size="35" lengthAdjust="spacingAndGlyphs" textLength="70" x="15" y="442.9346">start</text><!--MD5=[adcb12d1199142b9e2ec967666f25966]
link start to slave--><path d="M73.2033,364.1016 C97.8315,364.1016 122.46,364.1016 147.0885,364.1016 " fill="none" id="start-&gt;slave" style="stroke: #A80036; stroke-width: 2.5;"/><polygon fill="#A80036" points="159.9678,364.1016,137.4678,354.1016,147.4678,364.1016,137.4678,374.1016,159.9678,364.1016" style="stroke: #A80036; stroke-width: 2.5;"/><!--MD5=[bdb64a44465827ecc3309dbd8a1e2e30]
link slave to NativeClientService--><path d="M480.205,364.1016 C504.8675,364.1016 529.53,364.1016 554.195,364.1016 " fill="none" id="slave-&gt;NativeClientService" style="stroke: #A80036; stroke-width: 2.5;"/><polygon fill="#A80036" points="567.09,364.1016,544.59,354.1016,554.59,364.1016,544.59,374.1016,567.09,364.1016" style="stroke: #A80036; stroke-width: 2.5;"/><!--MD5=[8e0261ec2f8a15d09b21586c24f77b76]
link slave to ObservableReader--><path d="M312.5525,411.6166 C306.2425,466.0766 304.6775,557.4891 352.5,614.1016 C402.4125,673.1891 480.6925,703.7016 554.06,719.2691 " fill="none" id="slave-&gt;ObservableReader" style="stroke: #A80036; stroke-width: 2.5;"/><polygon fill="#A80036" points="566.7375,721.8216,546.6587,707.5705,554.4842,719.3502,542.7045,727.1757,566.7375,721.8216" style="stroke: #A80036; stroke-width: 2.5;"/><!--MD5=[4b2f05c414c19721aac24ad55b222827]
reverse link slave to ObservableReader--><path d="M342.865,424.5716 C367.1575,479.6816 410.32,561.7191 470,614.1016 C506.325,645.9841 552.4675,670.5866 596.4075,688.9716 " fill="none" id="slave&lt;-ObservableReader" style="stroke: #0000FF; stroke-width: 2.5; stroke-dasharray: 7.0,7.0;"/><polygon fill="#0000FF" points="337.6775,412.5541,337.4111,437.1748,342.6304,424.031,355.7742,429.2502,337.6775,412.5541" style="stroke: #0000FF; stroke-width: 2.5;"/><text fill="#0000FF" font-family="sans-serif" font-size="32.5" lengthAdjust="spacingAndGlyphs" textLength="157.5" x="472.5" y="564.0894">Card Event</text><!--MD5=[627d0840ea5fb32dbf2296df71cf3a6c]
link NativeClientService to ObservableReader--><path d="M704.0275,412.1241 C687.74,433.2116 670.9,459.5591 662.5,486.6016 C645.6925,540.7191 646.08,559.8666 662.5,614.1016 C669.3575,636.7466 682.0525,659.0266 695.3425,678.1241 " fill="none" id="NativeClientService-&gt;ObservableReader" style="stroke: #A80036; stroke-width: 2.5;"/><polygon fill="#A80036" points="702.7525,688.3866,697.6895,664.2906,695.4354,678.2519,681.4741,675.9979,702.7525,688.3866" style="stroke: #A80036; stroke-width: 2.5;"/><!--MD5=[107769d1a08f82b95c315156fb37056e]
reverse link NativeClientService to ObservableReader--><path d="M744.605,424.7091 C744.1075,497.8791 743.2625,622.0566 742.81,688.6691 " fill="none" id="NativeClientService&lt;-ObservableReader" style="stroke: #0000FF; stroke-width: 2.5; stroke-dasharray: 7.0,7.0;"/><polygon fill="#0000FF" points="744.6925,411.6641,734.5385,434.095,744.6068,424.1638,754.538,434.2321,744.6925,411.6641" style="stroke: #0000FF; stroke-width: 2.5;"/><text fill="#0000FF" font-family="sans-serif" font-size="32.5" lengthAdjust="spacingAndGlyphs" textLength="157.5" x="747.5" y="564.0894">Card Event</text><!--MD5=[29f4135e437bfeeec449fae9ed31e510]
link ObservableReader to Card--><path d="M735.0075,784.9141 C728.36,831.3291 720.365,905.1958 725,969.1016 C726.46,989.2338 729.2825,1011.1178 732.24,1030.6173 " fill="none" id="ObservableReader-&gt;Card" style="stroke: #A80036; stroke-width: 2.5;"/><polygon fill="#A80036" points="734.2925,1043.6856,740.6771,1019.9056,732.3513,1031.3372,720.9197,1023.0115,734.2925,1043.6856" style="stroke: #A80036; stroke-width: 2.5;"/><!--MD5=[868e4e5ef3a549012ea1384cf50741ea]
reverse link ObservableReader to Card--><path d="M742.5,797.3241 C742.5,866.3491 742.5,979.9611 742.5,1043.1231 " fill="none" id="ObservableReader&lt;-Card" style="stroke: #0000FF; stroke-width: 2.5; stroke-dasharray: 7.0,7.0;"/><polygon fill="#0000FF" points="742.5,784.1416,732.5,806.6416,742.5,796.6416,752.5,806.6416,742.5,784.1416" style="stroke: #0000FF; stroke-width: 2.5;"/><text fill="#0000FF" font-family="sans-serif" font-size="32.5" lengthAdjust="spacingAndGlyphs" textLength="157.5" x="745" y="960.3394">Card Event</text><!--MD5=[360a62c6bd2b5eedf670555dbd10b9e6]
link NativeClientService to RemoteServerPlugin--><path d="M935.965,364.1016 C1085.4,364.1016 1234.8375,364.1016 1384.2725,364.1016 " fill="none" id="NativeClientService-RemoteServerPlugin" style="stroke: #A80036; stroke-width: 2.5;"/><polygon fill="#A80036" points="1396.875,364.1016,1374.375,354.1016,1384.375,364.1016,1374.375,374.1016,1396.875,364.1016" style="stroke: #A80036; stroke-width: 2.5;"/><polygon fill="#A80036" points="923.0075,364.1016,945.5075,374.1016,935.5075,364.1016,945.5075,354.1016,923.0075,364.1016" style="stroke: #A80036; stroke-width: 2.5;"/><!--MD5=[064258c0bc8e82c54a813e99eeaf77f5]
reverse link NativeClientService to RemoteServerObservableReader--><path d="M851.6225,417.1616 C1003.22,489.0466 1278.76,619.7066 1424.1925,688.6691 " fill="none" id="NativeClientService&lt;-RemoteServerObservableReader" style="stroke: #A80036; stroke-width: 2.5;"/><polygon fill="#A80036" points="840.03,411.6641,856.0749,430.3406,851.3243,417.0202,864.6447,412.2697,840.03,411.6641" style="stroke: #A80036; stroke-width: 2.5;"/><!--MD5=[d34e9798c7262a5a0366853569fd470c]
reverse link RemoteServerPlugin to master--><path d="M1642.7,420.4091 C1704.62,475.6741 1807.905,560.9141 1910,614.1016 C1969.7125,645.2091 2038.9925,670.1441 2101.635,689.0516 " fill="none" id="RemoteServerPlugin&lt;-master" style="stroke: #A80036; stroke-width: 2.5;"/><polygon fill="#A80036" points="1633.1225,411.8066,1643.1746,434.2833,1642.4202,420.1613,1656.5422,419.4069,1633.1225,411.8066" style="stroke: #A80036; stroke-width: 2.5;"/><!--MD5=[76ae2943c9e6392ac9b723ae57b6d84f]
link RemoteServerPlugin to master--><path d="M1685.0625,411.7841 C1732.4025,433.6441 1789.4925,460.7091 1840,486.6016 C1964.9775,550.6691 2106.215,630.5341 2195.4,681.9166 " fill="none" id="RemoteServerPlugin-&gt;master" style="stroke: #008000; stroke-width: 2.5; stroke-dasharray: 7.0,7.0;"/><polygon fill="#008000" points="2207.0925,688.6616,2192.5994,668.7568,2196.2648,682.4157,2182.606,686.0811,2207.0925,688.6616" style="stroke: #008000; stroke-width: 2.5;"/><text fill="#008000" font-family="sans-serif" font-size="32.5" lengthAdjust="spacingAndGlyphs" textLength="102.5" x="2098.75" y="522.8394">Reader</text><text fill="#008000" font-family="sans-serif" font-size="32.5" lengthAdjust="spacingAndGlyphs" textLength="155" x="2072.5" y="563.7183">Connected</text><text fill="#008000" font-family="sans-serif" font-size="32.5" lengthAdjust="spacingAndGlyphs" textLength="80" x="2110" y="604.5972">Event</text><!--MD5=[00883ff2d5d1ae5fd6f6e16b14b457e5]
reverse link RemoteServerObservableReader to master--><path d="M1822.075,743.9991 C1873.25,744.5591 1925.85,744.7016 1975.4175,744.1016 C2002.295,743.7766 2030.485,743.2916 2058.4475,742.7216 " fill="none" id="RemoteServerObservableReader&lt;-master" style="stroke: #A80036; stroke-width: 2.5;"/><polygon fill="#A80036" points="1809.0975,743.8491,1831.4788,754.1119,1821.5966,743.9955,1831.7131,734.1133,1809.0975,743.8491" style="stroke: #A80036; stroke-width: 2.5;"/><!--MD5=[051e487baddf59b91913ec70a6304797]
link RemoteServerObservableReader to master--><path d="M1809.2125,736.6016 C1887.21,736.6016 1970.715,736.6016 2045.655,736.6016 " fill="none" id="RemoteServerObservableReader-&gt;master" style="stroke: #0000FF; stroke-width: 2.5; stroke-dasharray: 7.0,7.0;"/><polygon fill="#0000FF" points="2058.5725,736.6016,2036.0725,726.6016,2046.0725,736.6016,2036.0725,746.6016,2058.5725,736.6016" style="stroke: #0000FF; stroke-width: 2.5;"/><text fill="#0000FF" font-family="sans-serif" font-size="32.5" lengthAdjust="spacingAndGlyphs" textLength="157.5" x="1855" y="720.3394">Card Event</text><!--MD5=[7ebe5efa4c94f7f1fe621bf37810cefc]
link RemoteServerPlugin to RemoteServerObservableReader--><path d="M1577.03,411.6641 C1565.285,478.0641 1543.325,602.2316 1530.35,675.5891 " fill="none" id="RemoteServerPlugin-&gt;RemoteServerObservableReader" style="stroke: #A80036; stroke-width: 2.5;"/><polygon fill="#A80036" points="1528.035,688.6691,1541.8038,668.2566,1530.2138,676.3604,1522.11,664.7704,1528.035,688.6691" style="stroke: #A80036; stroke-width: 2.5;"/><!--MD5=[a4de7bb940cccf8f6334c011fa59f8e9]
@startuml
title
    UC 2: RemoteServerPlugin - ObservableReader (07/10/2020)
end title


skinparam Shadowing false
skinparam component {
    BorderColor #D4AC0D
    BackgroundColor<<red>> #FDEDEC
    BorderColor<<red>> #E74C3C
    BackgroundColor<<purple>> #F4ECF7
    BorderColor<<purple>> #8E44AD
    BackgroundColor<<blue>> #EBF5FB
    BorderColor<<blue>> #3498DB
    BackgroundColor<<green>> #E9F7EF
    BorderColor<<green>> #27AE60
    BackgroundColor<<grey>> #EAECEE
    BorderColor<<grey>> #2C3E50
}
hide <<red>> stereotype
hide <<purple>> stereotype
hide <<blue>> stereotype
hide <<green>> stereotype
hide <<grey>> stereotype


[Card] as Card
package "Client App" {
    [<i>Ticketing Service</i>] as slave
    package "Keyple Remote Native Lib" as nativeKeyple {
        [ObservableReader] as ObservableReader <<blue>>
        [NativeClientService] <<green>>
    }
}
package "Server App" {
    [<i>Remote Ticketing Service</i>] as master
    package "Keyple Remote Virtual Lib" as virtualKeyple {
        [RemoteServerPlugin] <<green>>
        [RemoteServerObservableReader] <<blue>>
    }
}

start -> slave
slave -> [NativeClientService]
slave -> [ObservableReader]
[NativeClientService] - -> [ObservableReader]
[ObservableReader] - -> [Card]

[NativeClientService] <-> [RemoteServerPlugin]
[NativeClientService] <- [RemoteServerObservableReader]

master -left-> [RemoteServerPlugin]
master -left-> [RemoteServerObservableReader]
[RemoteServerPlugin] - -> [RemoteServerObservableReader]

Card .up.> [ObservableReader] #Blue : <color:blue>Card Event
[ObservableReader] .up.> slave #Blue : <color:blue>Card Event
[ObservableReader] .up.> [NativeClientService] #Blue : <color:blue>Card Event
[RemoteServerObservableReader] .> master #Blue : <color:blue>Card Event

[RemoteServerPlugin] ..> master #Green : <color:green>Reader\n<color:green>Connected\n<color:green>Event

@enduml

PlantUML version 1.2020.09(Sun May 10 12:51:06 CEST 2020)
(GPL source distribution)
Java Runtime: OpenJDK Runtime Environment
JVM: OpenJDK 64-Bit Server VM
Java Version: 11.0.8+10-b944.34
Operating System: Windows 10
Default Encoding: Cp1252
Language: fr
Country: FR
--></g></svg>