<?xml version="1.0" encoding="UTF-8" standalone="no"?><svg xmlns="http://www.w3.org/2000/svg" xmlns:xlink="http://www.w3.org/1999/xlink" contentScriptType="application/ecmascript" contentStyleType="text/css" height="1477.5px" preserveAspectRatio="none" style="width:2567px;height:1477px;" version="1.1" viewBox="0 0 2567 1477" width="2567.5px" zoomAndPan="magnify"><defs/><g><!--MD5=[12b912aa0514e576dddba7124113c99c]
cluster Terminal A with 'hardware' and 'virtual' readers--><polygon fill="#FFFFFF" points="55,60,885,60,902.5,119.0234,910,119.0234,910,860,55,860,55,60" style="stroke: #000000; stroke-width: 3.75;"/><line style="stroke: #000000; stroke-width: 3.75;" x1="55" x2="902.5" y1="119.0234" y2="119.0234"/><text fill="#000000" font-family="sans-serif" font-size="35" font-weight="bold" lengthAdjust="spacingAndGlyphs" textLength="815" x="65" y="101.333">Terminal A with 'hardware' and 'virtual' readers</text><!--MD5=[e7ef3a55d492f44ef9e09696ab5f345e]
cluster Terminal B with 'hardware' reader--><polygon fill="#FFFFFF" points="970,60,1570,60,1587.5,119.0234,1595,119.0234,1595,1147.5,970,1147.5,970,60" style="stroke: #000000; stroke-width: 3.75;"/><line style="stroke: #000000; stroke-width: 3.75;" x1="970" x2="1587.5" y1="119.0234" y2="119.0234"/><text fill="#000000" font-family="sans-serif" font-size="35" font-weight="bold" lengthAdjust="spacingAndGlyphs" textLength="585" x="980" y="101.333">Terminal B with 'hardware' reader</text><!--MD5=[4e73abb9e3927aaa9062c725bb2ab7a2]
cluster Terminal C with 'hardware' and 'virtual' readers--><polygon fill="#FFFFFF" points="1655,60,2487.5,60,2505,119.0234,2512.5,119.0234,2512.5,860,1655,860,1655,60" style="stroke: #000000; stroke-width: 3.75;"/><line style="stroke: #000000; stroke-width: 3.75;" x1="1655" x2="2505" y1="119.0234" y2="119.0234"/><text fill="#000000" font-family="sans-serif" font-size="35" font-weight="bold" lengthAdjust="spacingAndGlyphs" textLength="817.5" x="1665" y="101.333">Terminal C with 'hardware' and 'virtual' readers</text><!--MD5=[492ce1a3376d55250d68a9b9c57d8699]
entity appA--><rect fill="#FEFECE" height="94.0234" style="stroke: #D4AC0D; stroke-width: 3.75;" width="222.5" x="486.25" y="150"/><rect fill="#FEFECE" height="12.5" style="stroke: #D4AC0D; stroke-width: 3.75;" width="25" x="473.75" y="162.5"/><rect fill="#FEFECE" height="12.5" style="stroke: #D4AC0D; stroke-width: 3.75;" width="25" x="473.75" y="219.0234"/><text fill="#000000" font-family="sans-serif" font-size="35" lengthAdjust="spacingAndGlyphs" textLength="172.5" x="511.25" y="211.333">Application</text><!--MD5=[92f7bc57783f7c3cc0d3d4ac2a438ba9]
entity remotePluginA--><rect fill="#FDEDEC" height="94.0234" style="stroke: #E74C3C; stroke-width: 3.75;" width="305" x="112.5" y="416.25"/><rect fill="#FDEDEC" height="12.5" style="stroke: #E74C3C; stroke-width: 3.75;" width="25" x="100" y="428.75"/><rect fill="#FDEDEC" height="12.5" style="stroke: #E74C3C; stroke-width: 3.75;" width="25" x="100" y="485.2734"/><text fill="#000000" font-family="sans-serif" font-size="35" font-weight="bold" lengthAdjust="spacingAndGlyphs" textLength="255" x="137.5" y="477.583">Remote Plugin</text><!--MD5=[aff3f7307853e9756b29bacb85cab294]
entity virtualReaderA--><rect fill="#EBF5FB" height="138.0469" style="stroke: #3498DB; stroke-width: 3.75;" width="200" x="247.5" y="682.5"/><rect fill="#EBF5FB" height="12.5" style="stroke: #3498DB; stroke-width: 3.75;" width="25" x="235" y="695"/><rect fill="#EBF5FB" height="12.5" style="stroke: #3498DB; stroke-width: 3.75;" width="25" x="235" y="795.5469"/><text fill="#000000" font-family="sans-serif" font-size="35" lengthAdjust="spacingAndGlyphs" textLength="100" x="272.5" y="743.833">Virtual</text><text fill="#000000" font-family="sans-serif" font-size="35" lengthAdjust="spacingAndGlyphs" textLength="150" x="272.5" y="787.8564">Reader B</text><!--MD5=[0212e790920e9e0950a6a4fe288adb15]
entity nativePluginA--><rect fill="#E9F7EF" height="138.0469" style="stroke: #27AE60; stroke-width: 3.75;" width="180" x="597.5" y="395"/><rect fill="#E9F7EF" height="12.5" style="stroke: #27AE60; stroke-width: 3.75;" width="25" x="585" y="407.5"/><rect fill="#E9F7EF" height="12.5" style="stroke: #27AE60; stroke-width: 3.75;" width="25" x="585" y="508.0469"/><text fill="#000000" font-family="sans-serif" font-size="35" lengthAdjust="spacingAndGlyphs" textLength="97.5" x="622.5" y="456.333">Native</text><text fill="#000000" font-family="sans-serif" font-size="35" lengthAdjust="spacingAndGlyphs" textLength="130" x="622.5" y="500.3564">Plugin A</text><!--MD5=[0b0720e3e2fed904231d0798eec04837]
entity nativeReaderA--><rect fill="#E9F7EF" height="138.0469" style="stroke: #27AE60; stroke-width: 3.75;" width="200" x="617.5" y="682.5"/><rect fill="#E9F7EF" height="12.5" style="stroke: #27AE60; stroke-width: 3.75;" width="25" x="605" y="695"/><rect fill="#E9F7EF" height="12.5" style="stroke: #27AE60; stroke-width: 3.75;" width="25" x="605" y="795.5469"/><text fill="#000000" font-family="sans-serif" font-size="35" lengthAdjust="spacingAndGlyphs" textLength="97.5" x="642.5" y="743.833">Native</text><text fill="#000000" font-family="sans-serif" font-size="35" lengthAdjust="spacingAndGlyphs" textLength="150" x="642.5" y="787.8564">Reader A</text><!--MD5=[e03933a285099eb05d74043a42f6bebf]
entity appB--><rect fill="#FEFECE" height="94.0234" style="stroke: #D4AC0D; stroke-width: 3.75;" width="222.5" x="1306.25" y="150"/><rect fill="#FEFECE" height="12.5" style="stroke: #D4AC0D; stroke-width: 3.75;" width="25" x="1293.75" y="162.5"/><rect fill="#FEFECE" height="12.5" style="stroke: #D4AC0D; stroke-width: 3.75;" width="25" x="1293.75" y="219.0234"/><text fill="#000000" font-family="sans-serif" font-size="35" lengthAdjust="spacingAndGlyphs" textLength="172.5" x="1331.25" y="211.333">Application</text><!--MD5=[197ff8fe8555aedc646af3f8f8fddf5a]
entity nativeServiceB--><rect fill="#FDEDEC" height="94.0234" style="stroke: #E74C3C; stroke-width: 3.75;" width="307.5" x="1036.25" y="416.25"/><rect fill="#FDEDEC" height="12.5" style="stroke: #E74C3C; stroke-width: 3.75;" width="25" x="1023.75" y="428.75"/><rect fill="#FDEDEC" height="12.5" style="stroke: #E74C3C; stroke-width: 3.75;" width="25" x="1023.75" y="485.2734"/><text fill="#000000" font-family="sans-serif" font-size="35" font-weight="bold" lengthAdjust="spacingAndGlyphs" textLength="257.5" x="1061.25" y="477.583">Native Service</text><!--MD5=[963600e2dfefc9a004d951fdd76a77fd]
entity nativePluginB--><rect fill="#EBF5FB" height="138.0469" style="stroke: #3498DB; stroke-width: 3.75;" width="180" x="1257.5" y="682.5"/><rect fill="#EBF5FB" height="12.5" style="stroke: #3498DB; stroke-width: 3.75;" width="25" x="1245" y="695"/><rect fill="#EBF5FB" height="12.5" style="stroke: #3498DB; stroke-width: 3.75;" width="25" x="1245" y="795.5469"/><text fill="#000000" font-family="sans-serif" font-size="35" lengthAdjust="spacingAndGlyphs" textLength="97.5" x="1282.5" y="743.833">Native</text><text fill="#000000" font-family="sans-serif" font-size="35" lengthAdjust="spacingAndGlyphs" textLength="130" x="1282.5" y="787.8564">Plugin B</text><!--MD5=[29c90d27e11309ca2fd4bc989e40d51d]
entity nativeReaderB--><rect fill="#EBF5FB" height="138.0469" style="stroke: #3498DB; stroke-width: 3.75;" width="200" x="1247.5" y="970"/><rect fill="#EBF5FB" height="12.5" style="stroke: #3498DB; stroke-width: 3.75;" width="25" x="1235" y="982.5"/><rect fill="#EBF5FB" height="12.5" style="stroke: #3498DB; stroke-width: 3.75;" width="25" x="1235" y="1083.0469"/><text fill="#000000" font-family="sans-serif" font-size="35" lengthAdjust="spacingAndGlyphs" textLength="97.5" x="1272.5" y="1031.333">Native</text><text fill="#000000" font-family="sans-serif" font-size="35" lengthAdjust="spacingAndGlyphs" textLength="150" x="1272.5" y="1075.3564">Reader B</text><!--MD5=[394db7846645763260abc37e1623959f]
entity appC--><rect fill="#FEFECE" height="94.0234" style="stroke: #D4AC0D; stroke-width: 3.75;" width="222.5" x="2068.75" y="150"/><rect fill="#FEFECE" height="12.5" style="stroke: #D4AC0D; stroke-width: 3.75;" width="25" x="2056.25" y="162.5"/><rect fill="#FEFECE" height="12.5" style="stroke: #D4AC0D; stroke-width: 3.75;" width="25" x="2056.25" y="219.0234"/><text fill="#000000" font-family="sans-serif" font-size="35" lengthAdjust="spacingAndGlyphs" textLength="172.5" x="2093.75" y="211.333">Application</text><!--MD5=[7742339b3dee183c30921183713190ec]
entity remotePluginC--><rect fill="#FDEDEC" height="94.0234" style="stroke: #E74C3C; stroke-width: 3.75;" width="305" x="1695" y="416.25"/><rect fill="#FDEDEC" height="12.5" style="stroke: #E74C3C; stroke-width: 3.75;" width="25" x="1682.5" y="428.75"/><rect fill="#FDEDEC" height="12.5" style="stroke: #E74C3C; stroke-width: 3.75;" width="25" x="1682.5" y="485.2734"/><text fill="#000000" font-family="sans-serif" font-size="35" font-weight="bold" lengthAdjust="spacingAndGlyphs" textLength="255" x="1720" y="477.583">Remote Plugin</text><!--MD5=[77cc08c78dcc4d03067605ed2676c015]
entity virtualReaderC--><rect fill="#EBF5FB" height="138.0469" style="stroke: #3498DB; stroke-width: 3.75;" width="200" x="1835" y="682.5"/><rect fill="#EBF5FB" height="12.5" style="stroke: #3498DB; stroke-width: 3.75;" width="25" x="1822.5" y="695"/><rect fill="#EBF5FB" height="12.5" style="stroke: #3498DB; stroke-width: 3.75;" width="25" x="1822.5" y="795.5469"/><text fill="#000000" font-family="sans-serif" font-size="35" lengthAdjust="spacingAndGlyphs" textLength="100" x="1860" y="743.833">Virtual</text><text fill="#000000" font-family="sans-serif" font-size="35" lengthAdjust="spacingAndGlyphs" textLength="150" x="1860" y="787.8564">Reader B</text><!--MD5=[9586825eb0ae118928277aed080d4dd1]
entity nativePluginC--><rect fill="#F4ECF7" height="138.0469" style="stroke: #8E44AD; stroke-width: 3.75;" width="182.5" x="2181.25" y="395"/><rect fill="#F4ECF7" height="12.5" style="stroke: #8E44AD; stroke-width: 3.75;" width="25" x="2168.75" y="407.5"/><rect fill="#F4ECF7" height="12.5" style="stroke: #8E44AD; stroke-width: 3.75;" width="25" x="2168.75" y="508.0469"/><text fill="#000000" font-family="sans-serif" font-size="35" lengthAdjust="spacingAndGlyphs" textLength="97.5" x="2206.25" y="456.333">Native</text><text fill="#000000" font-family="sans-serif" font-size="35" lengthAdjust="spacingAndGlyphs" textLength="132.5" x="2206.25" y="500.3564">Plugin C</text><!--MD5=[07c92cd66b070e49c570b33a089b31fe]
entity nativeReaderC--><rect fill="#F4ECF7" height="138.0469" style="stroke: #8E44AD; stroke-width: 3.75;" width="202.5" x="2211.25" y="682.5"/><rect fill="#F4ECF7" height="12.5" style="stroke: #8E44AD; stroke-width: 3.75;" width="25" x="2198.75" y="695"/><rect fill="#F4ECF7" height="12.5" style="stroke: #8E44AD; stroke-width: 3.75;" width="25" x="2198.75" y="795.5469"/><text fill="#000000" font-family="sans-serif" font-size="35" lengthAdjust="spacingAndGlyphs" textLength="97.5" x="2236.25" y="743.833">Native</text><text fill="#000000" font-family="sans-serif" font-size="35" lengthAdjust="spacingAndGlyphs" textLength="152.5" x="2236.25" y="787.8564">Reader C</text><!--MD5=[97706d6bc3a2479187d78421cb19fd5d]
entity readerA--><rect fill="#E9F7EF" height="138.0469" style="stroke: #27AE60; stroke-width: 3.75;" width="360" x="537.5" y="970"/><rect fill="#E9F7EF" height="12.5" style="stroke: #27AE60; stroke-width: 3.75;" width="25" x="525" y="982.5"/><rect fill="#E9F7EF" height="12.5" style="stroke: #27AE60; stroke-width: 3.75;" width="25" x="525" y="1083.0469"/><text fill="#000000" font-family="sans-serif" font-size="35" lengthAdjust="spacingAndGlyphs" textLength="310" x="562.5" y="1031.333">Hardware Reader A</text><text fill="#000000" font-family="sans-serif" font-size="35" lengthAdjust="spacingAndGlyphs" textLength="75" x="562.5" y="1075.3564">(PO)</text><!--MD5=[dd4deb9cc63b37613601c38977f0eeaa]
entity readerB--><rect fill="#EBF5FB" height="138.0469" style="stroke: #3498DB; stroke-width: 3.75;" width="360" x="1167.5" y="1257.5"/><rect fill="#EBF5FB" height="12.5" style="stroke: #3498DB; stroke-width: 3.75;" width="25" x="1155" y="1270"/><rect fill="#EBF5FB" height="12.5" style="stroke: #3498DB; stroke-width: 3.75;" width="25" x="1155" y="1370.5469"/><text fill="#000000" font-family="sans-serif" font-size="35" lengthAdjust="spacingAndGlyphs" textLength="310" x="1192.5" y="1318.833">Hardware Reader B</text><text fill="#000000" font-family="sans-serif" font-size="35" lengthAdjust="spacingAndGlyphs" textLength="97.5" x="1192.5" y="1362.8564">(SAM)</text><!--MD5=[5f08c31cfab830314614782fcb9e2915]
entity readerC--><rect fill="#F4ECF7" height="138.0469" style="stroke: #8E44AD; stroke-width: 3.75;" width="362.5" x="2131.25" y="970"/><rect fill="#F4ECF7" height="12.5" style="stroke: #8E44AD; stroke-width: 3.75;" width="25" x="2118.75" y="982.5"/><rect fill="#F4ECF7" height="12.5" style="stroke: #8E44AD; stroke-width: 3.75;" width="25" x="2118.75" y="1083.0469"/><text fill="#000000" font-family="sans-serif" font-size="35" lengthAdjust="spacingAndGlyphs" textLength="312.5" x="2156.25" y="1031.333">Hardware Reader C</text><text fill="#000000" font-family="sans-serif" font-size="35" lengthAdjust="spacingAndGlyphs" textLength="75" x="2156.25" y="1075.3564">(PO)</text><!--MD5=[fb9e705d035e72632a6042a2a7ca029f]
link appA to remotePluginA--><path d="M539.5825,245.5075 C478.9275,293.165 384.1925,367.5975 323.37,415.3875 " fill="none" id="appA-remotePluginA" style="stroke: #A80036; stroke-width: 2.5;"/><!--MD5=[c0a01d3aaa5cfa81e658495698ae51a8]
link appA to virtualReaderA--><path d="M580.06,245.7225 C555.085,310.33 506.95,431.7075 460,532.5 C436.235,583.5225 406.7975,639.8975 383.9975,682.2925 " fill="none" id="appA-virtualReaderA" style="stroke: #D3D3D3; stroke-width: 2.5;"/><!--MD5=[afd50c00a0816d2cd2781290aaf3c6fd]
link appA to nativePluginA--><path d="M613.1775,245.5075 C627.38,286.7325 648.4825,347.9925 664.5775,394.7125 " fill="none" id="appA-nativePluginA" style="stroke: #D3D3D3; stroke-width: 2.5;"/><!--MD5=[e26d872237861622150779a5d339c786]
link appA to nativeReaderA--><path d="M678.2025,245.6875 C729.2675,279.5675 790.9475,330.9075 820,395 C863.425,490.8 808.72,609.5475 764.065,682.195 " fill="none" id="appA-nativeReaderA" style="stroke: #D3D3D3; stroke-width: 2.5;"/><!--MD5=[35f1f2099bb26bebeced4f136f74175b]
link remotePluginA to virtualReaderA--><path d="M278.255,511.6375 C291.7375,557.805 312.775,629.84 328.125,682.405 " fill="none" id="remotePluginA-virtualReaderA" style="stroke: #3498DB; stroke-width: 2.5;"/><!--MD5=[6bebe6a6a7c6a49b994edbf0b44beb70]
link nativePluginA to nativeReaderA--><path d="M694.61,533.1975 C699.3925,578.2325 705.67,637.35 710.4425,682.2825 " fill="none" id="nativePluginA-nativeReaderA" style="stroke: #27AE60; stroke-width: 2.5;"/><!--MD5=[b21be0d9cfb8f9ce7e4c95419eb9faaf]
link nativeReaderA to readerA--><path d="M717.5,820.6975 C717.5,865.7325 717.5,924.85 717.5,969.7825 " fill="none" id="nativeReaderA-readerA" style="stroke: #27AE60; stroke-width: 2.5;"/><!--MD5=[5d87c9f8724acd1d449a437653e47417]
link remotePluginA to nativeServiceB--><path d="M348.3,416.175 C413.45,381.8425 507.555,338.415 596.25,320 C713.745,295.605 748.86,295.11 866.25,320 C953.1825,338.4325 1045.125,381.855 1108.725,416.185 " fill="none" id="remotePluginA-nativeServiceB" style="stroke: #A80036; stroke-width: 2.5;"/><!--MD5=[a75e98be59ae65e7660bbf4d8560124b]
link appB to nativeServiceB--><path d="M1377.8725,245.5075 C1336.37,293.165 1271.5525,367.5975 1229.9375,415.3875 " fill="none" id="appB-nativeServiceB" style="stroke: #A80036; stroke-width: 2.5;"/><!--MD5=[812bef263275d0d2837f4d0637c18315]
link appB to nativePluginB--><path d="M1414.75,245.3275 C1410.555,309.465 1401.5325,430.29 1387.5,532.5 C1380.5925,582.8075 1370.065,639.2125 1361.545,681.7975 " fill="none" id="appB-nativePluginB" style="stroke: #D3D3D3; stroke-width: 2.5;"/><!--MD5=[edf5b7f7f5161aa6e556809bf209f9a3]
link appB to nativeReaderB--><path d="M1434.7925,245.49 C1474.5925,357.41 1563.1025,653.51 1480,880 C1467.87,913.0575 1445.3075,943.9125 1422.1925,969.3275 " fill="none" id="appB-nativeReaderB" style="stroke: #D3D3D3; stroke-width: 2.5;"/><!--MD5=[e79fb97ff9c5a9497bef18b4aab587af]
link nativeServiceB to nativePluginB--><path d="M1215.305,511.6375 C1241.045,557.805 1281.205,629.84 1310.51,682.405 " fill="none" id="nativeServiceB-nativePluginB" style="stroke: #3498DB; stroke-width: 2.5;"/><!--MD5=[07854c1651614780927f6fe429b59636]
link nativeServiceB to nativeReaderB--><path d="M1183.21,511.7725 C1173.485,590.2325 1161.9025,754.5775 1212.5,880 C1225.9125,913.245 1249.445,944.36 1273.145,969.935 " fill="none" id="nativeServiceB-nativeReaderB" style="stroke: #3498DB; stroke-width: 2.5;"/><!--MD5=[dd2a48233e81b0ba213c8da68b9f7a65]
link nativePluginB to nativeReaderB--><path d="M1347.5,820.6975 C1347.5,865.7325 1347.5,924.85 1347.5,969.7825 " fill="none" id="nativePluginB-nativeReaderB" style="stroke: #3498DB; stroke-width: 2.5;"/><!--MD5=[0fdacec584030a6c1fd0a1873168dab2]
link nativeReaderB to readerB--><path d="M1347.5,1108.1975 C1347.5,1153.2313 1347.5,1212.35 1347.5,1257.282 " fill="none" id="nativeReaderB-readerB" style="stroke: #3498DB; stroke-width: 2.5;"/><!--MD5=[94e8f1be477b75f9502db944f009d89a]
link nativeServiceB to remotePluginC--><path d="M1344.1025,463.75 C1460.775,463.75 1577.4475,463.75 1694.12,463.75 " fill="none" id="nativeServiceB-remotePluginC" style="stroke: #A80036; stroke-width: 2.5;"/><!--MD5=[94f36155f12c3248d48ce4a761114286]
link appC to remotePluginC--><path d="M2122.0825,245.5075 C2061.4275,293.165 1966.6925,367.5975 1905.87,415.3875 " fill="none" id="appC-remotePluginC" style="stroke: #A80036; stroke-width: 2.5;"/><!--MD5=[0f51e07ac15b741d62e8aa7a5c60d35e]
link appC to virtualReaderC--><path d="M2162.3025,245.6025 C2137.02,310.07 2088.52,431.28 2042.5,532.5 C2019.42,583.2625 1991.3075,639.6475 1969.6175,682.1125 " fill="none" id="appC-virtualReaderC" style="stroke: #D3D3D3; stroke-width: 2.5;"/><!--MD5=[ab46d6ced8fe19b58489b031d61815b9]
link appC to nativePluginC--><path d="M2196.1125,245.5075 C2210.71,286.7325 2232.4,347.9925 2248.9425,394.7125 " fill="none" id="appC-nativePluginC" style="stroke: #D3D3D3; stroke-width: 2.5;"/><!--MD5=[66a756c5f0a55965a7968340be7c7983]
link appC to nativeReaderC--><path d="M2262.4675,245.2625 C2314.66,278.9575 2377.72,330.2525 2407.5,395 C2451.21,490.0375 2399.52,609.0025 2356.985,681.9025 " fill="none" id="appC-nativeReaderC" style="stroke: #D3D3D3; stroke-width: 2.5;"/><!--MD5=[7d69bd35f06d6e1cc2d306f919365f27]
link remotePluginC to virtualReaderC--><path d="M1861.5575,511.6375 C1875.8575,557.805 1898.17,629.84 1914.45,682.405 " fill="none" id="remotePluginC-virtualReaderC" style="stroke: #3498DB; stroke-width: 2.5;"/><!--MD5=[2ae6cbcbfc5597f5a8c6c95c09c3e798]
link nativePluginC to nativeReaderC--><path d="M2281.98,533.1975 C2288.355,578.2325 2296.7275,637.35 2303.0875,682.2825 " fill="none" id="nativePluginC-nativeReaderC" style="stroke: #8E44AD; stroke-width: 2.5;"/><!--MD5=[13b4ca831fb6cc84687311c3afb75393]
link nativeReaderC to readerC--><path d="M2312.5,820.6975 C2312.5,865.7325 2312.5,924.85 2312.5,969.7825 " fill="none" id="nativeReaderC-readerC" style="stroke: #8E44AD; stroke-width: 2.5;"/><text fill="#888888" font-family="sans-serif" font-size="25" lengthAdjust="spacingAndGlyphs" textLength="1237.5" x="680" y="1445.9521">Keyple Remote Plugin - Concepts - Many Remote Plugins connected to one Native Service (30/10/2020)</text><!--MD5=[715addf101954e879e012463840b7925]
@startuml
footer
    Keyple Remote Plugin - Concepts - Many Remote Plugins connected to one Native Service (30/10/2020)
end footer


skinparam Shadowing false
skinparam component {
    BorderColor #D4AC0D
    BackgroundColor<<red>> #FDEDEC
    BorderColor<<red>> #E74C3C
    BackgroundColor<<purple>> #F4ECF7
    BorderColor<<purple>> #8E44AD
    BackgroundColor<<blue>> #EBF5FB
    BorderColor<<blue>> #3498DB
    BackgroundColor<<green>> #E9F7EF
    BorderColor<<green>> #27AE60
    BackgroundColor<<grey>> #EAECEE
    BorderColor<<grey>> #2C3E50
}
hide <<red>> stereotype
hide <<purple>> stereotype
hide <<blue>> stereotype
hide <<green>> stereotype
hide <<grey>> stereotype


[Hardware Reader A\n(PO)] as readerA <<green>>
[Hardware Reader B\n(SAM)] as readerB <<blue>>
[Hardware Reader C\n(PO)] as readerC <<purple>>
package "Terminal A with 'hardware' and 'virtual' readers" {
    [Application] as appA
    [**Remote Plugin**] as remotePluginA <<red>>
    [Virtual\nReader B] as virtualReaderA <<blue>>
    [Native\nPlugin A] as nativePluginA <<green>>
    [Native\nReader A] as nativeReaderA <<green>>
}
package "Terminal B with 'hardware' reader" {
    [Application] as appB
    [**Native Service**] as nativeServiceB <<red>>
    [Native\nPlugin B] as nativePluginB <<blue>>
    [Native\nReader B] as nativeReaderB <<blue>>
}
package "Terminal C with 'hardware' and 'virtual' readers" {
    [Application] as appC
    [**Remote Plugin**] as remotePluginC <<red>>
    [Virtual\nReader B] as virtualReaderC <<blue>>
    [Native\nPlugin C] as nativePluginC <<purple>>
    [Native\nReader C] as nativeReaderC <<purple>>
}


appA - - remotePluginA
appA - - virtualReaderA #LightGrey
appA - - nativePluginA #LightGrey
appA - - nativeReaderA #LightGrey
remotePluginA - - virtualReaderA #3498DB
nativePluginA - - nativeReaderA #27AE60
nativeReaderA - - readerA #27AE60

remotePluginA - nativeServiceB

appB - - nativeServiceB
appB - - nativePluginB #LightGrey
appB - - nativeReaderB #LightGrey
nativeServiceB - - nativePluginB #3498DB
nativeServiceB - - nativeReaderB #3498DB
nativePluginB - - nativeReaderB #3498DB
nativeReaderB - - readerB #3498DB

nativeServiceB - remotePluginC

appC - - remotePluginC
appC - - virtualReaderC #LightGrey
appC - - nativePluginC #LightGrey
appC - - nativeReaderC #LightGrey
remotePluginC - - virtualReaderC #3498DB
nativePluginC - - nativeReaderC #8E44AD
nativeReaderC - - readerC #8E44AD

@enduml

PlantUML version 1.2020.09(Sun May 10 12:51:06 CEST 2020)
(GPL source distribution)
Java Runtime: OpenJDK Runtime Environment
JVM: OpenJDK 64-Bit Server VM
Java Version: 11.0.8+10-b944.34
Operating System: Windows 10
Default Encoding: Cp1252
Language: fr
Country: FR
--></g></svg>