<?xml version="1.0" encoding="UTF-8" standalone="no"?><svg xmlns="http://www.w3.org/2000/svg" xmlns:xlink="http://www.w3.org/1999/xlink" contentScriptType="application/ecmascript" contentStyleType="text/css" height="1435px" preserveAspectRatio="none" style="width:2547px;height:1435px;" version="1.1" viewBox="0 0 2547 1435" width="2547.5px" zoomAndPan="magnify"><defs/><g><!--MD5=[1fff3fe7a94d23d943315cfc56fec618]
cluster Terminal A with 'local' reader--><polygon fill="#FFFFFF" points="55,60,570,60,587.5,119.0234,610,119.0234,610,1105,55,1105,55,60" style="stroke: #000000; stroke-width: 3.75;"/><line style="stroke: #000000; stroke-width: 3.75;" x1="55" x2="587.5" y1="119.0234" y2="119.0234"/><text fill="#000000" font-family="sans-serif" font-size="35" font-weight="bold" lengthAdjust="spacingAndGlyphs" textLength="500" x="65" y="101.333">Terminal A with 'local' reader</text><!--MD5=[4b0fb3407be455c7d0a263d150ff2415]
cluster Terminal with 'remote' reader--><polygon fill="#FFFFFF" points="670,60,1195,60,1212.5,119.0234,1530,119.0234,1530,817.5,670,817.5,670,60" style="stroke: #000000; stroke-width: 3.75;"/><line style="stroke: #000000; stroke-width: 3.75;" x1="670" x2="1212.5" y1="119.0234" y2="119.0234"/><text fill="#000000" font-family="sans-serif" font-size="35" font-weight="bold" lengthAdjust="spacingAndGlyphs" textLength="510" x="680" y="101.333">Terminal with 'remote' reader</text><!--MD5=[f2f32b766e4aa934c943334e1b64d869]
cluster Terminal B with 'local' reader--><polygon fill="#FFFFFF" points="1590,60,2107.5,60,2125,119.0234,2492.5,119.0234,2492.5,1105,1590,1105,1590,60" style="stroke: #000000; stroke-width: 3.75;"/><line style="stroke: #000000; stroke-width: 3.75;" x1="1590" x2="2125" y1="119.0234" y2="119.0234"/><text fill="#000000" font-family="sans-serif" font-size="35" font-weight="bold" lengthAdjust="spacingAndGlyphs" textLength="502.5" x="1600" y="101.333">Terminal B with 'local' reader</text><!--MD5=[492ce1a3376d55250d68a9b9c57d8699]
entity appA--><rect fill="#FEFECE" height="94.0234" style="stroke: #D4AC0D; stroke-width: 3.75;" width="222.5" x="346.25" y="150"/><rect fill="#FEFECE" height="12.5" style="stroke: #D4AC0D; stroke-width: 3.75;" width="25" x="333.75" y="162.5"/><rect fill="#FEFECE" height="12.5" style="stroke: #D4AC0D; stroke-width: 3.75;" width="25" x="333.75" y="219.0234"/><text fill="#000000" font-family="sans-serif" font-size="35" lengthAdjust="spacingAndGlyphs" textLength="172.5" x="371.25" y="211.333">Application</text><!--MD5=[fc4eaf5d1305252cc9e9dbd4f9b65146]
entity localServiceA--><rect fill="#FDEDEC" height="94.0234" style="stroke: #E74C3C; stroke-width: 3.75;" width="287.5" x="96.25" y="395"/><rect fill="#FDEDEC" height="12.5" style="stroke: #E74C3C; stroke-width: 3.75;" width="25" x="83.75" y="407.5"/><rect fill="#FDEDEC" height="12.5" style="stroke: #E74C3C; stroke-width: 3.75;" width="25" x="83.75" y="464.0234"/><text fill="#000000" font-family="sans-serif" font-size="35" font-weight="bold" lengthAdjust="spacingAndGlyphs" textLength="237.5" x="121.25" y="456.333">Local Service</text><!--MD5=[e39a41f8452bdf926165fc1f6ec3bc2d]
entity localPluginA--><rect fill="#E9F7EF" height="138.0469" style="stroke: #27AE60; stroke-width: 3.75;" width="180" x="297.5" y="640"/><rect fill="#E9F7EF" height="12.5" style="stroke: #27AE60; stroke-width: 3.75;" width="25" x="285" y="652.5"/><rect fill="#E9F7EF" height="12.5" style="stroke: #27AE60; stroke-width: 3.75;" width="25" x="285" y="753.0469"/><text fill="#000000" font-family="sans-serif" font-size="35" lengthAdjust="spacingAndGlyphs" textLength="85" x="322.5" y="701.333">Local</text><text fill="#000000" font-family="sans-serif" font-size="35" lengthAdjust="spacingAndGlyphs" textLength="130" x="322.5" y="745.3564">Plugin A</text><!--MD5=[9a5aeb29b297e27abff191fb4703ad55]
entity localReaderA--><rect fill="#E9F7EF" height="138.0469" style="stroke: #27AE60; stroke-width: 3.75;" width="200" x="287.5" y="927.5"/><rect fill="#E9F7EF" height="12.5" style="stroke: #27AE60; stroke-width: 3.75;" width="25" x="275" y="940"/><rect fill="#E9F7EF" height="12.5" style="stroke: #27AE60; stroke-width: 3.75;" width="25" x="275" y="1040.5469"/><text fill="#000000" font-family="sans-serif" font-size="35" lengthAdjust="spacingAndGlyphs" textLength="85" x="312.5" y="988.833">Local</text><text fill="#000000" font-family="sans-serif" font-size="35" lengthAdjust="spacingAndGlyphs" textLength="150" x="312.5" y="1032.8564">Reader A</text><!--MD5=[4541fb81c80c07473fe4b07432ef0971]
entity app--><rect fill="#FEFECE" height="94.0234" style="stroke: #D4AC0D; stroke-width: 3.75;" width="222.5" x="1061.25" y="150"/><rect fill="#FEFECE" height="12.5" style="stroke: #D4AC0D; stroke-width: 3.75;" width="25" x="1048.75" y="162.5"/><rect fill="#FEFECE" height="12.5" style="stroke: #D4AC0D; stroke-width: 3.75;" width="25" x="1048.75" y="219.0234"/><text fill="#000000" font-family="sans-serif" font-size="35" lengthAdjust="spacingAndGlyphs" textLength="172.5" x="1086.25" y="211.333">Application</text><!--MD5=[8c57e6c545067fd40d80e498aee73352]
entity remotePlugin--><rect fill="#FDEDEC" height="94.0234" style="stroke: #E74C3C; stroke-width: 3.75;" width="305" x="900" y="395"/><rect fill="#FDEDEC" height="12.5" style="stroke: #E74C3C; stroke-width: 3.75;" width="25" x="887.5" y="407.5"/><rect fill="#FDEDEC" height="12.5" style="stroke: #E74C3C; stroke-width: 3.75;" width="25" x="887.5" y="464.0234"/><text fill="#000000" font-family="sans-serif" font-size="35" font-weight="bold" lengthAdjust="spacingAndGlyphs" textLength="255" x="925" y="456.333">Remote Plugin</text><!--MD5=[715ebe8ad1fd68534f65631f37819374]
entity remoteReaderA--><rect fill="#E9F7EF" height="138.0469" style="stroke: #27AE60; stroke-width: 3.75;" width="200" x="710" y="640"/><rect fill="#E9F7EF" height="12.5" style="stroke: #27AE60; stroke-width: 3.75;" width="25" x="697.5" y="652.5"/><rect fill="#E9F7EF" height="12.5" style="stroke: #27AE60; stroke-width: 3.75;" width="25" x="697.5" y="753.0469"/><text fill="#000000" font-family="sans-serif" font-size="35" lengthAdjust="spacingAndGlyphs" textLength="122.5" x="735" y="701.333">Remote</text><text fill="#000000" font-family="sans-serif" font-size="35" lengthAdjust="spacingAndGlyphs" textLength="150" x="735" y="745.3564">Reader A</text><!--MD5=[83cccebbcb67811b9cef30e5b71ae2f4]
entity remoteReaderB--><rect fill="#EBF5FB" height="138.0469" style="stroke: #3498DB; stroke-width: 3.75;" width="200" x="997.5" y="640"/><rect fill="#EBF5FB" height="12.5" style="stroke: #3498DB; stroke-width: 3.75;" width="25" x="985" y="652.5"/><rect fill="#EBF5FB" height="12.5" style="stroke: #3498DB; stroke-width: 3.75;" width="25" x="985" y="753.0469"/><text fill="#000000" font-family="sans-serif" font-size="35" lengthAdjust="spacingAndGlyphs" textLength="122.5" x="1022.5" y="701.333">Remote</text><text fill="#000000" font-family="sans-serif" font-size="35" lengthAdjust="spacingAndGlyphs" textLength="150" x="1022.5" y="745.3564">Reader B</text><!--MD5=[24e64ec056b1dc286800a991c10c8550]
entity remoteReaderC--><rect fill="#F4ECF7" height="138.0469" style="stroke: #8E44AD; stroke-width: 3.75;" width="202.5" x="1286.25" y="640"/><rect fill="#F4ECF7" height="12.5" style="stroke: #8E44AD; stroke-width: 3.75;" width="25" x="1273.75" y="652.5"/><rect fill="#F4ECF7" height="12.5" style="stroke: #8E44AD; stroke-width: 3.75;" width="25" x="1273.75" y="753.0469"/><text fill="#000000" font-family="sans-serif" font-size="35" lengthAdjust="spacingAndGlyphs" textLength="122.5" x="1311.25" y="701.333">Remote</text><text fill="#000000" font-family="sans-serif" font-size="35" lengthAdjust="spacingAndGlyphs" textLength="152.5" x="1311.25" y="745.3564">Reader C</text><!--MD5=[e03933a285099eb05d74043a42f6bebf]
entity appB--><rect fill="#FEFECE" height="94.0234" style="stroke: #D4AC0D; stroke-width: 3.75;" width="222.5" x="1921.25" y="150"/><rect fill="#FEFECE" height="12.5" style="stroke: #D4AC0D; stroke-width: 3.75;" width="25" x="1908.75" y="162.5"/><rect fill="#FEFECE" height="12.5" style="stroke: #D4AC0D; stroke-width: 3.75;" width="25" x="1908.75" y="219.0234"/><text fill="#000000" font-family="sans-serif" font-size="35" lengthAdjust="spacingAndGlyphs" textLength="172.5" x="1946.25" y="211.333">Application</text><!--MD5=[3497f76c7268585b544040471d826e09]
entity localServiceB--><rect fill="#FDEDEC" height="94.0234" style="stroke: #E74C3C; stroke-width: 3.75;" width="287.5" x="1888.75" y="395"/><rect fill="#FDEDEC" height="12.5" style="stroke: #E74C3C; stroke-width: 3.75;" width="25" x="1876.25" y="407.5"/><rect fill="#FDEDEC" height="12.5" style="stroke: #E74C3C; stroke-width: 3.75;" width="25" x="1876.25" y="464.0234"/><text fill="#000000" font-family="sans-serif" font-size="35" font-weight="bold" lengthAdjust="spacingAndGlyphs" textLength="237.5" x="1913.75" y="456.333">Local Service</text><!--MD5=[6d68b64d0873eb0a8dc450752ee60455]
entity localPluginB--><rect fill="#EBF5FB" height="138.0469" style="stroke: #3498DB; stroke-width: 3.75;" width="180" x="1722.5" y="640"/><rect fill="#EBF5FB" height="12.5" style="stroke: #3498DB; stroke-width: 3.75;" width="25" x="1710" y="652.5"/><rect fill="#EBF5FB" height="12.5" style="stroke: #3498DB; stroke-width: 3.75;" width="25" x="1710" y="753.0469"/><text fill="#000000" font-family="sans-serif" font-size="35" lengthAdjust="spacingAndGlyphs" textLength="85" x="1747.5" y="701.333">Local</text><text fill="#000000" font-family="sans-serif" font-size="35" lengthAdjust="spacingAndGlyphs" textLength="130" x="1747.5" y="745.3564">Plugin B</text><!--MD5=[326bec51df11f7e217066843974af772]
entity localReaderB--><rect fill="#EBF5FB" height="138.0469" style="stroke: #3498DB; stroke-width: 3.75;" width="200" x="1712.5" y="927.5"/><rect fill="#EBF5FB" height="12.5" style="stroke: #3498DB; stroke-width: 3.75;" width="25" x="1700" y="940"/><rect fill="#EBF5FB" height="12.5" style="stroke: #3498DB; stroke-width: 3.75;" width="25" x="1700" y="1040.5469"/><text fill="#000000" font-family="sans-serif" font-size="35" lengthAdjust="spacingAndGlyphs" textLength="85" x="1737.5" y="988.833">Local</text><text fill="#000000" font-family="sans-serif" font-size="35" lengthAdjust="spacingAndGlyphs" textLength="150" x="1737.5" y="1032.8564">Reader B</text><!--MD5=[ed58d6383dd6299d3fd6b2aee9fa2a9c]
entity localPluginC--><rect fill="#F4ECF7" height="138.0469" style="stroke: #8E44AD; stroke-width: 3.75;" width="182.5" x="2176.25" y="640"/><rect fill="#F4ECF7" height="12.5" style="stroke: #8E44AD; stroke-width: 3.75;" width="25" x="2163.75" y="652.5"/><rect fill="#F4ECF7" height="12.5" style="stroke: #8E44AD; stroke-width: 3.75;" width="25" x="2163.75" y="753.0469"/><text fill="#000000" font-family="sans-serif" font-size="35" lengthAdjust="spacingAndGlyphs" textLength="85" x="2201.25" y="701.333">Local</text><text fill="#000000" font-family="sans-serif" font-size="35" lengthAdjust="spacingAndGlyphs" textLength="132.5" x="2201.25" y="745.3564">Plugin C</text><!--MD5=[101b25349a095183ff90ba7ebec3dd3b]
entity localReaderC--><rect fill="#F4ECF7" height="138.0469" style="stroke: #8E44AD; stroke-width: 3.75;" width="202.5" x="2166.25" y="927.5"/><rect fill="#F4ECF7" height="12.5" style="stroke: #8E44AD; stroke-width: 3.75;" width="25" x="2153.75" y="940"/><rect fill="#F4ECF7" height="12.5" style="stroke: #8E44AD; stroke-width: 3.75;" width="25" x="2153.75" y="1040.5469"/><text fill="#000000" font-family="sans-serif" font-size="35" lengthAdjust="spacingAndGlyphs" textLength="85" x="2191.25" y="988.833">Local</text><text fill="#000000" font-family="sans-serif" font-size="35" lengthAdjust="spacingAndGlyphs" textLength="152.5" x="2191.25" y="1032.8564">Reader C</text><!--MD5=[97706d6bc3a2479187d78421cb19fd5d]
entity readerA--><rect fill="#E9F7EF" height="138.0469" style="stroke: #27AE60; stroke-width: 3.75;" width="360" x="207.5" y="1215"/><rect fill="#E9F7EF" height="12.5" style="stroke: #27AE60; stroke-width: 3.75;" width="25" x="195" y="1227.5"/><rect fill="#E9F7EF" height="12.5" style="stroke: #27AE60; stroke-width: 3.75;" width="25" x="195" y="1328.0469"/><text fill="#000000" font-family="sans-serif" font-size="35" lengthAdjust="spacingAndGlyphs" textLength="310" x="232.5" y="1276.333">Hardware Reader A</text><text fill="#000000" font-family="sans-serif" font-size="35" lengthAdjust="spacingAndGlyphs" textLength="75" x="232.5" y="1320.3564">(PO)</text><!--MD5=[dd4deb9cc63b37613601c38977f0eeaa]
entity readerB--><rect fill="#EBF5FB" height="138.0469" style="stroke: #3498DB; stroke-width: 3.75;" width="360" x="1632.5" y="1215"/><rect fill="#EBF5FB" height="12.5" style="stroke: #3498DB; stroke-width: 3.75;" width="25" x="1620" y="1227.5"/><rect fill="#EBF5FB" height="12.5" style="stroke: #3498DB; stroke-width: 3.75;" width="25" x="1620" y="1328.0469"/><text fill="#000000" font-family="sans-serif" font-size="35" lengthAdjust="spacingAndGlyphs" textLength="310" x="1657.5" y="1276.333">Hardware Reader B</text><text fill="#000000" font-family="sans-serif" font-size="35" lengthAdjust="spacingAndGlyphs" textLength="75" x="1657.5" y="1320.3564">(PO)</text><!--MD5=[5f08c31cfab830314614782fcb9e2915]
entity readerC--><rect fill="#F4ECF7" height="138.0469" style="stroke: #8E44AD; stroke-width: 3.75;" width="362.5" x="2086.25" y="1215"/><rect fill="#F4ECF7" height="12.5" style="stroke: #8E44AD; stroke-width: 3.75;" width="25" x="2073.75" y="1227.5"/><rect fill="#F4ECF7" height="12.5" style="stroke: #8E44AD; stroke-width: 3.75;" width="25" x="2073.75" y="1328.0469"/><text fill="#000000" font-family="sans-serif" font-size="35" lengthAdjust="spacingAndGlyphs" textLength="312.5" x="2111.25" y="1276.333">Hardware Reader C</text><text fill="#000000" font-family="sans-serif" font-size="35" lengthAdjust="spacingAndGlyphs" textLength="75" x="2111.25" y="1320.3564">(PO)</text><!--MD5=[872181754934b8bb9e169beccc28ace8]
link appA to localPluginA--><path d="M453.9375,245.345 C449.185,302.54 439.9075,403.83 427.5,490 C420.2625,540.2625 409.75,596.6675 401.3175,639.265 " fill="none" id="appA-localPluginA" style="stroke: #D3D3D3; stroke-width: 2.5;"/><!--MD5=[df64d3f3addaf0c81377e46d1ce8647d]
link appA to localReaderA--><path d="M475.2875,245.7725 C514.145,352.97 597.1875,627.13 520,837.5 C507.87,870.5575 485.3075,901.4125 462.1925,926.8275 " fill="none" id="appA-localReaderA" style="stroke: #D3D3D3; stroke-width: 2.5;"/><!--MD5=[95b0cafeb0ff47933d32aabfa9f2da2c]
link appA to localServiceA--><path d="M416.59,245.1425 C377.95,287.78 320.2875,351.4075 281.465,394.245 " fill="none" id="appA-localServiceA" style="stroke: #A80036; stroke-width: 2.5;"/><!--MD5=[9b713b1a0805f16152cb203f6cca8907]
link localPluginA to localReaderA--><path d="M387.5,778.1975 C387.5,823.2325 387.5,882.35 387.5,927.2825 " fill="none" id="localPluginA-localReaderA" style="stroke: #27AE60; stroke-width: 2.5;"/><!--MD5=[82ac601dd08a7d402bcad24440e95844]
link localServiceA to localPluginA--><path d="M265.6925,490.5075 C288.9675,531.7325 323.555,592.9925 349.9325,639.7125 " fill="none" id="localServiceA-localPluginA" style="stroke: #27AE60; stroke-width: 2.5;"/><!--MD5=[6a997ed4b49109a86b6644e27e4a3289]
link localServiceA to localReaderA--><path d="M231.9488,490.495 C220.6815,565.7025 206.3838,719.3725 252.5,837.5 C265.4075,870.56 288.52,901.4175 312.0175,926.8325 " fill="none" id="localServiceA-localReaderA" style="stroke: #27AE60; stroke-width: 2.5;"/><!--MD5=[061ad854bafa23f803f44dc4ce21c46a]
link localReaderA to readerA--><path d="M387.5,1065.6975 C387.5,1110.7313 387.5,1169.85 387.5,1214.782 " fill="none" id="localReaderA-readerA" style="stroke: #27AE60; stroke-width: 2.5;"/><!--MD5=[b97915d650206280001a2bdc0b828dc4]
link localServiceA to remotePlugin--><path d="M384.41,442.5 C556.2175,442.5 728.0225,442.5 899.83,442.5 " fill="none" id="localServiceA-remotePlugin" style="stroke: #A80036; stroke-width: 2.5;"/><!--MD5=[fcbe8f378ea262bfa23bcac2f0bc6e93]
link app to remotePlugin--><path d="M1149.93,245.1425 C1128.61,287.78 1096.795,351.4075 1075.3775,394.245 " fill="none" id="app-remotePlugin" style="stroke: #A80036; stroke-width: 2.5;"/><!--MD5=[e81922a9262f7b5c0d85a687ed2a9563]
link app to remoteReaderA--><path d="M1060.4825,239.92 C989.93,271.0575 903.345,321.5 855,395 C806.695,468.44 801.35,572.6125 804.035,639.815 " fill="none" id="app-remoteReaderA" style="stroke: #D3D3D3; stroke-width: 2.5;"/><!--MD5=[afd6b76a7c885c5e5257591f40a99beb]
link app to remoteReaderB--><path d="M1200.0525,245.6075 C1231.17,303.0675 1274.2075,404.635 1247.5,490 C1230.0375,545.8175 1192.5375,599.88 1159.4025,639.9875 " fill="none" id="app-remoteReaderB" style="stroke: #D3D3D3; stroke-width: 2.5;"/><!--MD5=[e6647fafd4f4f15a0555d2b2e4930401]
link app to remoteReaderC--><path d="M1198.76,245.6125 C1220.6375,284.5825 1251.8475,342.51 1275,395 C1311.4025,477.5375 1345.47,575.9025 1366.3725,639.64 " fill="none" id="app-remoteReaderC" style="stroke: #D3D3D3; stroke-width: 2.5;"/><!--MD5=[bf391bf76abec8bd6e1c70dee5eecee1]
link remotePlugin to remoteReaderA--><path d="M1010.26,490.5075 C971.9925,531.7325 915.1275,592.9925 871.7625,639.7125 " fill="none" id="remotePlugin-remoteReaderA" style="stroke: #27AE60; stroke-width: 2.5;"/><!--MD5=[14818a61795318ab21f59e436d0faa29]
link remotePlugin to remoteReaderB--><path d="M1060.3375,490.5075 C1067.44,531.7325 1077.9925,592.9925 1086.04,639.7125 " fill="none" id="remotePlugin-remoteReaderB" style="stroke: #3498DB; stroke-width: 2.5;"/><!--MD5=[6daa68d6c29f80fbe913eb2b56cd82d3]
link remotePlugin to remoteReaderC--><path d="M1110.8525,490.5075 C1163.7175,531.7325 1242.27,592.9925 1302.18,639.7125 " fill="none" id="remotePlugin-remoteReaderC" style="stroke: #8E44AD; stroke-width: 2.5;"/><!--MD5=[d9e7b457afac6b8f4fabeb23e62a584e]
link remotePlugin to localServiceB--><path d="M1205.625,442.5 C1433.07,442.5 1660.515,442.5 1887.9575,442.5 " fill="none" id="remotePlugin-localServiceB" style="stroke: #A80036; stroke-width: 2.5;"/><!--MD5=[df8a1212ca9fa7993768db4bf844e72a]
link appB to localPluginB--><path d="M1970.785,245.585 C1927.715,281.135 1873.1,334.5175 1845,395 C1808.6025,473.3425 1804.88,574.4375 1807.285,639.7975 " fill="none" id="appB-localPluginB" style="stroke: #D3D3D3; stroke-width: 2.5;"/><!--MD5=[e2249160656950652a139c1a1b1953f6]
link appB to localReaderB--><path d="M1962.9675,245.6175 C1912.22,281.5625 1844.3875,335.4275 1797.5,395 C1722.51,490.2775 1704.8725,521.8825 1677.5,640 C1657.6825,725.5125 1646.8825,755.235 1677.5,837.5 C1689.88,870.7625 1712.8725,901.665 1736.42,927.06 " fill="none" id="appB-localReaderB" style="stroke: #D3D3D3; stroke-width: 2.5;"/><!--MD5=[81859b6d30b43d48c823a5754661fab8]
link appB to localServiceB--><path d="M2032.5,245.1425 C2032.5,287.78 2032.5,351.4075 2032.5,394.245 " fill="none" id="appB-localServiceB" style="stroke: #A80036; stroke-width: 2.5;"/><!--MD5=[b5f77873e7b5a73768aac5c3d5f81768]
link localPluginB to localReaderB--><path d="M1812.5,778.1975 C1812.5,823.2325 1812.5,882.35 1812.5,927.2825 " fill="none" id="localPluginB-localReaderB" style="stroke: #3498DB; stroke-width: 2.5;"/><!--MD5=[cd8b4a5a0470ecc50602f6760d6ec266]
link localServiceB to localPluginB--><path d="M1994.18,490.5075 C1959.4625,531.7325 1907.875,592.9925 1868.53,639.7125 " fill="none" id="localServiceB-localPluginB" style="stroke: #3498DB; stroke-width: 2.5;"/><!--MD5=[f2e2fef3d25054ab8210fae1ec71ee96]
link localServiceB to localReaderB--><path d="M2029.4175,490.9075 C2022.8025,566.71 2002.805,721.22 1945,837.5 C1928.85,869.985 1904.535,901.39 1881.125,927.4175 " fill="none" id="localServiceB-localReaderB" style="stroke: #3498DB; stroke-width: 2.5;"/><!--MD5=[6d060afe8260565946b833e8f2042f81]
link localReaderB to readerB--><path d="M1812.5,1065.6975 C1812.5,1110.7313 1812.5,1169.85 1812.5,1214.782 " fill="none" id="localReaderB-readerB" style="stroke: #3498DB; stroke-width: 2.5;"/><!--MD5=[2665e075423f6f081aff8e1e0540cd1e]
link appB to localPluginC--><path d="M2092.4675,245.24 C2135.2475,280.9925 2190.2675,334.78 2220,395 C2258.4775,472.9325 2267.4825,574.125 2268.7825,639.62 " fill="none" id="appB-localPluginC" style="stroke: #D3D3D3; stroke-width: 2.5;"/><!--MD5=[f504bb2cce8bb0ee5c50a27b689b4041]
link appB to localReaderC--><path d="M2096.495,245.5025 C2145.1525,282.18 2211.725,337.0425 2260,395 C2340.6175,491.7925 2369.7025,518.3775 2402.5,640 C2425.355,724.75 2433.1175,755.235 2402.5,837.5 C2390.12,870.7625 2367.1275,901.665 2343.58,927.06 " fill="none" id="appB-localReaderC" style="stroke: #D3D3D3; stroke-width: 2.5;"/><!--MD5=[3a683f5c64a8babbdb185a466b90ab35]
link localServiceB to localPluginC--><path d="M2073.435,490.5075 C2110.5175,531.7325 2165.6225,592.9925 2207.6475,639.7125 " fill="none" id="localServiceB-localPluginC" style="stroke: #8E44AD; stroke-width: 2.5;"/><!--MD5=[f6b695a7511aa5da1a39ccbaddca40f1]
link localServiceB to localReaderC--><path d="M2037.2675,490.9825 C2046.615,566.89 2071.985,721.5475 2132.5,837.5 C2149.4175,869.9175 2174.2875,901.3075 2198.085,927.3425 " fill="none" id="localServiceB-localReaderC" style="stroke: #8E44AD; stroke-width: 2.5;"/><!--MD5=[8c2aa53d51692afac2d7050031bbf915]
link localPluginC to localReaderC--><path d="M2267.5,778.1975 C2267.5,823.2325 2267.5,882.35 2267.5,927.2825 " fill="none" id="localPluginC-localReaderC" style="stroke: #8E44AD; stroke-width: 2.5;"/><!--MD5=[54b04f91ed7aaf76b037ed89a3577ed6]
link localReaderC to readerC--><path d="M2267.5,1065.6975 C2267.5,1110.7313 2267.5,1169.85 2267.5,1214.782 " fill="none" id="localReaderC-readerC" style="stroke: #8E44AD; stroke-width: 2.5;"/><text fill="#888888" font-family="sans-serif" font-size="25" lengthAdjust="spacingAndGlyphs" textLength="1235" x="671.25" y="1403.4521">Keyple Remote Plugin - Concepts - One Remote Plugin connected to many Local Services (03/11/2020)</text><!--MD5=[04668f9dcb4c004cee59b984ccdceaa5]
@startuml
footer
    Keyple Remote Plugin - Concepts - One Remote Plugin connected to many Local Services (03/11/2020)
end footer


skinparam Shadowing false
skinparam component {
    BorderColor #D4AC0D
    BackgroundColor<<red>> #FDEDEC
    BorderColor<<red>> #E74C3C
    BackgroundColor<<purple>> #F4ECF7
    BorderColor<<purple>> #8E44AD
    BackgroundColor<<blue>> #EBF5FB
    BorderColor<<blue>> #3498DB
    BackgroundColor<<green>> #E9F7EF
    BorderColor<<green>> #27AE60
    BackgroundColor<<grey>> #EAECEE
    BorderColor<<grey>> #2C3E50
}
hide <<red>> stereotype
hide <<purple>> stereotype
hide <<blue>> stereotype
hide <<green>> stereotype
hide <<grey>> stereotype


[Hardware Reader A\n(PO)] as readerA <<green>>
[Hardware Reader B\n(PO)] as readerB <<blue>>
[Hardware Reader C\n(PO)] as readerC <<purple>>
package "Terminal A with 'local' reader" {
    [Application] as appA
    [**Local Service**] as localServiceA <<red>>
    [Local\nPlugin A] as localPluginA <<green>>
    [Local\nReader A] as localReaderA <<green>>
}
package "Terminal with 'remote' reader" {
    [Application] as app
    [**Remote Plugin**] as remotePlugin <<red>>
    [Remote\nReader A] as remoteReaderA <<green>>
    [Remote\nReader B] as remoteReaderB <<blue>>
    [Remote\nReader C] as remoteReaderC <<purple>>
}
package "Terminal B with 'local' reader" {
    [Application] as appB
    [**Local Service**] as localServiceB <<red>>
    [Local\nPlugin B] as localPluginB <<blue>>
    [Local\nReader B] as localReaderB <<blue>>
    [Local\nPlugin C] as localPluginC <<purple>>
    [Local\nReader C] as localReaderC <<purple>>
}


appA - - localPluginA #LightGrey
appA - - localReaderA #LightGrey
appA - - localServiceA
localPluginA - - localReaderA #27AE60
localServiceA - - localPluginA #27AE60
localServiceA - - localReaderA #27AE60
localReaderA - - readerA #27AE60

localServiceA - remotePlugin

app - - remotePlugin
app - - remoteReaderA #LightGrey
app - - remoteReaderB #LightGrey
app - - remoteReaderC #LightGrey
remotePlugin - - remoteReaderA #27AE60
remotePlugin - - remoteReaderB #3498DB
remotePlugin - - remoteReaderC #8E44AD

remotePlugin - localServiceB

appB - - localPluginB #LightGrey
appB - - localReaderB #LightGrey
appB - - localServiceB
localPluginB - - localReaderB #3498DB
localServiceB - - localPluginB #3498DB
localServiceB - - localReaderB #3498DB
localReaderB - - readerB #3498DB

appB - - localPluginC #LightGrey
appB - - localReaderC #LightGrey
localServiceB - - localPluginC #8E44AD
localServiceB - - localReaderC #8E44AD
localPluginC - - localReaderC #8E44AD
localReaderC - - readerC #8E44AD

@enduml

PlantUML version 1.2020.09(Sun May 10 12:51:06 CEST 2020)
(GPL source distribution)
Java Runtime: OpenJDK Runtime Environment
JVM: OpenJDK 64-Bit Server VM
Java Version: 11.0.8+10-b944.34
Operating System: Windows 10
Default Encoding: Cp1252
Language: fr
Country: FR
--></g></svg>