<?xml version="1.0" encoding="UTF-8" standalone="no"?><svg xmlns="http://www.w3.org/2000/svg" xmlns:xlink="http://www.w3.org/1999/xlink" contentScriptType="application/ecmascript" contentStyleType="text/css" height="1172px" preserveAspectRatio="none" style="width:1844px;height:1172px;" version="1.1" viewBox="0 0 1844 1172" width="1844px" zoomAndPan="magnify"><defs><filter height="1" id="b1l0ktx49qkudw0" width="1" x="0" y="0"><feFlood flood-color="#ADD8E6" result="flood"/><feComposite in="SourceGraphic" in2="flood" operator="over"/></filter></defs><g><text fill="#000000" font-family="sans-serif" font-size="36" lengthAdjust="spacingAndGlyphs" textLength="354" x="751" y="57.3711">Keyple Remote Plugin</text><text fill="#000000" font-family="sans-serif" font-size="36" lengthAdjust="spacingAndGlyphs" textLength="454" x="701" y="102.6523">Sync Node API (03/11/2020)</text><rect fill="#ADD8E6" height="602.4375" style="stroke: #A80036; stroke-width: 2.0;" width="20" x="179" y="341"/><rect fill="#FFC0CB" height="539.7344" style="stroke: #A80036; stroke-width: 2.0;" width="20" x="500" y="385.7031"/><rect fill="#FFC0CB" height="418.3281" style="stroke: #A80036; stroke-width: 2.0;" width="20" x="942" y="446.4063"/><rect fill="#ADD8E6" height="60.7031" style="stroke: #A80036; stroke-width: 2.0;" width="20" x="1342" y="743.3281"/><line style="stroke: #A80036; stroke-width: 2.0; stroke-dasharray: 5.0,5.0;" x1="188" x2="188" y1="321" y2="961.4375"/><line style="stroke: #A80036; stroke-width: 2.0; stroke-dasharray: 5.0,5.0;" x1="510" x2="510" y1="321" y2="961.4375"/><line style="stroke: #A80036; stroke-width: 2.0; stroke-dasharray: 5.0,5.0;" x1="952" x2="952" y1="321" y2="961.4375"/><line style="stroke: #A80036; stroke-width: 2.0; stroke-dasharray: 5.0,5.0;" x1="1352" x2="1352" y1="321" y2="961.4375"/><rect fill="#ADD8E6" height="98.4375" rx="10" ry="10" style="stroke: #A80036; stroke-width: 3.0;" width="346" x="16" y="220.5625"/><text fill="#000000" font-family="sans-serif" font-size="28" lengthAdjust="spacingAndGlyphs" textLength="140" x="119" y="263.6289">clientNode:</text><text fill="#000000" font-family="sans-serif" font-size="28" font-weight="bold" lengthAdjust="spacingAndGlyphs" textLength="318" x="30" y="298.8477">KeypleClientSyncNode</text><rect fill="#ADD8E6" height="98.4375" rx="10" ry="10" style="stroke: #A80036; stroke-width: 3.0;" width="346" x="16" y="959.4375"/><text fill="#000000" font-family="sans-serif" font-size="28" lengthAdjust="spacingAndGlyphs" textLength="140" x="119" y="1002.5039">clientNode:</text><text fill="#000000" font-family="sans-serif" font-size="28" font-weight="bold" lengthAdjust="spacingAndGlyphs" textLength="318" x="30" y="1037.7227">KeypleClientSyncNode</text><text fill="#000000" font-family="sans-serif" font-size="28" lengthAdjust="spacingAndGlyphs" textLength="228" x="390" y="279.6289">userClientSender:</text><text fill="#000000" filter="url(#b1l0ktx49qkudw0)" font-family="sans-serif" font-size="28" font-weight="bold" lengthAdjust="spacingAndGlyphs" textLength="244" x="382" y="314.8477">KeypleClientSync</text><ellipse cx="510" cy="144.5625" fill="#FEFECE" rx="16" ry="16" style="stroke: #A80036; stroke-width: 4.0;"/><path d="M510,160.5625 L510,214.5625 M484,176.5625 L536,176.5625 M510,214.5625 L484,244.5625 M510,214.5625 L536,244.5625 " fill="none" style="stroke: #A80036; stroke-width: 4.0;"/><text fill="#000000" font-family="sans-serif" font-size="28" lengthAdjust="spacingAndGlyphs" textLength="228" x="390" y="988.5039">userClientSender:</text><text fill="#000000" filter="url(#b1l0ktx49qkudw0)" font-family="sans-serif" font-size="28" font-weight="bold" lengthAdjust="spacingAndGlyphs" textLength="244" x="382" y="1023.7227">KeypleClientSync</text><ellipse cx="510" cy="1049.875" fill="#FEFECE" rx="16" ry="16" style="stroke: #A80036; stroke-width: 4.0;"/><path d="M510,1065.875 L510,1119.875 M484,1081.875 L536,1081.875 M510,1119.875 L484,1149.875 M510,1119.875 L536,1149.875 " fill="none" style="stroke: #A80036; stroke-width: 4.0;"/><text fill="#000000" font-family="sans-serif" font-size="28" lengthAdjust="spacingAndGlyphs" textLength="264" x="814" y="314.8477">userServerController</text><ellipse cx="952" cy="179.7813" fill="#FEFECE" rx="16" ry="16" style="stroke: #A80036; stroke-width: 4.0;"/><path d="M952,195.7813 L952,249.7813 M926,211.7813 L978,211.7813 M952,249.7813 L926,279.7813 M952,249.7813 L978,279.7813 " fill="none" style="stroke: #A80036; stroke-width: 4.0;"/><text fill="#000000" font-family="sans-serif" font-size="28" lengthAdjust="spacingAndGlyphs" textLength="264" x="814" y="988.5039">userServerController</text><ellipse cx="952" cy="1014.6563" fill="#FEFECE" rx="16" ry="16" style="stroke: #A80036; stroke-width: 4.0;"/><path d="M952,1030.6563 L952,1084.6563 M926,1046.6563 L978,1046.6563 M952,1084.6563 L926,1114.6563 M952,1084.6563 L978,1114.6563 " fill="none" style="stroke: #A80036; stroke-width: 4.0;"/><rect fill="#ADD8E6" height="98.4375" rx="10" ry="10" style="stroke: #A80036; stroke-width: 3.0;" width="360" x="1172" y="220.5625"/><text fill="#000000" font-family="sans-serif" font-size="28" lengthAdjust="spacingAndGlyphs" textLength="154" x="1275" y="263.6289">serverNode:</text><text fill="#000000" font-family="sans-serif" font-size="28" font-weight="bold" lengthAdjust="spacingAndGlyphs" textLength="332" x="1186" y="298.8477">KeypleServerSyncNode</text><rect fill="#ADD8E6" height="98.4375" rx="10" ry="10" style="stroke: #A80036; stroke-width: 3.0;" width="360" x="1172" y="959.4375"/><text fill="#000000" font-family="sans-serif" font-size="28" lengthAdjust="spacingAndGlyphs" textLength="154" x="1275" y="1002.5039">serverNode:</text><text fill="#000000" font-family="sans-serif" font-size="28" font-weight="bold" lengthAdjust="spacingAndGlyphs" textLength="332" x="1186" y="1037.7227">KeypleServerSyncNode</text><rect fill="#ADD8E6" height="602.4375" style="stroke: #A80036; stroke-width: 2.0;" width="20" x="179" y="341"/><rect fill="#FFC0CB" height="539.7344" style="stroke: #A80036; stroke-width: 2.0;" width="20" x="500" y="385.7031"/><rect fill="#FFC0CB" height="418.3281" style="stroke: #A80036; stroke-width: 2.0;" width="20" x="942" y="446.4063"/><rect fill="#ADD8E6" height="60.7031" style="stroke: #A80036; stroke-width: 2.0;" width="20" x="1342" y="743.3281"/><polygon fill="#A80036" points="476,377.7031,496,385.7031,476,393.7031,484,385.7031" style="stroke: #A80036; stroke-width: 2.0;"/><line style="stroke: #A80036; stroke-width: 2.0;" x1="199" x2="488" y1="385.7031" y2="385.7031"/><text fill="#000000" font-family="sans-serif" font-size="26" lengthAdjust="spacingAndGlyphs" textLength="168" x="213" y="375.9902">sendRequest (</text><text fill="#FF0000" font-family="sans-serif" font-size="26" lengthAdjust="spacingAndGlyphs" textLength="54" x="381" y="375.9902">dtoA</text><text fill="#000000" font-family="sans-serif" font-size="26" lengthAdjust="spacingAndGlyphs" textLength="8" x="435" y="375.9902">)</text><polygon fill="#A80036" points="918,438.4063,938,446.4063,918,454.4063,926,446.4063" style="stroke: #A80036; stroke-width: 2.0;"/><line style="stroke: #A80036; stroke-width: 2.0;" x1="520" x2="930" y1="446.4063" y2="446.4063"/><text fill="#000000" font-family="sans-serif" font-size="26" lengthAdjust="spacingAndGlyphs" textLength="322" x="534" y="436.6934">send synchronous request (</text><text fill="#FF0000" font-family="sans-serif" font-size="26" lengthAdjust="spacingAndGlyphs" textLength="54" x="856" y="436.6934">dtoA</text><text fill="#000000" font-family="sans-serif" font-size="26" lengthAdjust="spacingAndGlyphs" textLength="8" x="910" y="436.6934">)</text><line style="stroke: #A80036; stroke-width: 2.0;" x1="962" x2="1046" y1="581.8672" y2="581.8672"/><line style="stroke: #A80036; stroke-width: 2.0;" x1="1046" x2="1046" y1="581.8672" y2="607.8672"/><line style="stroke: #A80036; stroke-width: 2.0;" x1="964" x2="1046" y1="607.8672" y2="607.8672"/><polygon fill="#A80036" points="984,599.8672,964,607.8672,984,615.8672,976,607.8672" style="stroke: #A80036; stroke-width: 2.0;"/><text fill="#000000" font-family="sans-serif" font-size="26" lengthAdjust="spacingAndGlyphs" textLength="352" x="976" y="572.1543">[...]ServerUtils.getSyncNode ()</text><path d="M1352,482.4063 L1352,678.4063 A10,10 0 0 0 1362,688.4063 L1810,688.4063 A10,10 0 0 0 1820,678.4063 L1820,492.4063 L1800,472.4063 L1362,472.4063 A10,10 0 0 0 1352,482.4063 " fill="#FBFB77" style="stroke: #A80036; stroke-width: 2.0;"/><path d="M1800,472.4063 L1800,487.4063 A5,5 0 0 0 1805,492.4063 L1820,492.4063 L1800,472.4063 " fill="#FBFB77" style="stroke: #A80036; stroke-width: 2.0;"/><text fill="#000000" font-family="sans-serif" font-size="26" lengthAdjust="spacingAndGlyphs" textLength="406" x="1364" y="509.3965">To access the node it is necessary</text><text fill="#000000" font-family="sans-serif" font-size="26" lengthAdjust="spacingAndGlyphs" textLength="426" x="1364" y="542.0996">to use the utility class corresponding</text><text fill="#000000" font-family="sans-serif" font-size="26" lengthAdjust="spacingAndGlyphs" textLength="312" x="1364" y="574.8027">to the server configuration :</text><ellipse cx="1375" cy="598.2188" fill="#000000" rx="5" ry="5" style="stroke: #000000; stroke-width: 0.0;"/><text fill="#000000" font-family="sans-serif" font-size="26" font-weight="bold" lengthAdjust="spacingAndGlyphs" textLength="180" x="1390" y="607.5059">RemotePlugin</text><text fill="#000000" font-family="sans-serif" font-size="26" lengthAdjust="spacingAndGlyphs" textLength="124" x="1570" y="607.5059">ServerUtils</text><ellipse cx="1375" cy="630.9219" fill="#000000" rx="5" ry="5" style="stroke: #000000; stroke-width: 0.0;"/><text fill="#000000" font-family="sans-serif" font-size="26" font-weight="bold" lengthAdjust="spacingAndGlyphs" textLength="166" x="1390" y="640.209">LocalService</text><text fill="#000000" font-family="sans-serif" font-size="26" lengthAdjust="spacingAndGlyphs" textLength="124" x="1556" y="640.209">ServerUtils</text><ellipse cx="1375" cy="663.625" fill="#000000" rx="5" ry="5" style="stroke: #000000; stroke-width: 0.0;"/><text fill="#000000" font-family="sans-serif" font-size="26" font-weight="bold" lengthAdjust="spacingAndGlyphs" textLength="224" x="1390" y="672.9121">PoolLocalService</text><text fill="#000000" font-family="sans-serif" font-size="26" lengthAdjust="spacingAndGlyphs" textLength="124" x="1614" y="672.9121">ServerUtils</text><polygon fill="#A80036" points="1318,735.3281,1338,743.3281,1318,751.3281,1326,743.3281" style="stroke: #A80036; stroke-width: 2.0;"/><line style="stroke: #A80036; stroke-width: 2.0;" x1="962" x2="1330" y1="743.3281" y2="743.3281"/><text fill="#000000" font-family="sans-serif" font-size="26" lengthAdjust="spacingAndGlyphs" textLength="140" x="976" y="733.6152">onRequest (</text><text fill="#FF0000" font-family="sans-serif" font-size="26" lengthAdjust="spacingAndGlyphs" textLength="54" x="1116" y="733.6152">dtoA</text><text fill="#000000" font-family="sans-serif" font-size="26" lengthAdjust="spacingAndGlyphs" textLength="8" x="1170" y="733.6152">)</text><polygon fill="#A80036" points="984,796.0313,964,804.0313,984,812.0313,976,804.0313" style="stroke: #A80036; stroke-width: 2.0;"/><line style="stroke: #A80036; stroke-width: 2.0; stroke-dasharray: 2.0,2.0;" x1="972" x2="1350" y1="804.0313" y2="804.0313"/><text fill="#0000FF" font-family="sans-serif" font-size="26" lengthAdjust="spacingAndGlyphs" textLength="54" x="996" y="794.3184">dtoB</text><polygon fill="#A80036" points="542,856.7344,522,864.7344,542,872.7344,534,864.7344" style="stroke: #A80036; stroke-width: 2.0;"/><line style="stroke: #A80036; stroke-width: 2.0; stroke-dasharray: 2.0,2.0;" x1="530" x2="950" y1="864.7344" y2="864.7344"/><text fill="#0000FF" font-family="sans-serif" font-size="26" lengthAdjust="spacingAndGlyphs" textLength="54" x="554" y="855.0215">dtoB</text><polygon fill="#A80036" points="221,917.4375,201,925.4375,221,933.4375,213,925.4375" style="stroke: #A80036; stroke-width: 2.0;"/><line style="stroke: #A80036; stroke-width: 2.0; stroke-dasharray: 2.0,2.0;" x1="209" x2="508" y1="925.4375" y2="925.4375"/><text fill="#0000FF" font-family="sans-serif" font-size="26" lengthAdjust="spacingAndGlyphs" textLength="54" x="233" y="915.7246">dtoB</text><!--MD5=[c3031f8c7d163f917356add3e7a8ee42]
@startuml

title
    Keyple Remote Plugin
    Sync Node API (03/11/2020)
end title


skinparam Shadowing false
skinparam RoundCorner 10


participant "clientNode:\n**KeypleClientSyncNode**" as clientNode #LightBlue
actor "userClientSender:\n**<back:LightBlue>KeypleClientSync**" as userClientSender

actor "userServerController" as userServerController
participant "serverNode:\n**KeypleServerSyncNode**" as serverNode #LightBlue

activate clientNode #LightBlue
clientNode -> userClientSender : sendRequest (<color:red>dtoA</color>)
activate userClientSender #Pink
userClientSender -> userServerController : send synchronous request (<color:red>dtoA</color>)

activate userServerController #Pink
userServerController -> userServerController : [...]ServerUtils.getSyncNode ()
note right
    To access the node it is necessary
    to use the utility class corresponding
    to the server configuration :
    * **RemotePlugin**ServerUtils
    * **LocalService**ServerUtils
    * **PoolLocalService**ServerUtils
end note
userServerController -> serverNode : onRequest (<color:red>dtoA</color>)
activate serverNode #LightBlue
return <color:blue>dtoB</color>
return <color:blue>dtoB</color>
return <color:blue>dtoB</color>


@enduml

PlantUML version 1.2020.09(Sun May 10 12:51:06 CEST 2020)
(GPL source distribution)
Java Runtime: OpenJDK Runtime Environment
JVM: OpenJDK 64-Bit Server VM
Java Version: 11.0.8+10-b944.34
Operating System: Windows 10
Default Encoding: Cp1252
Language: fr
Country: FR
--></g></svg>