<?xml version="1.0" encoding="UTF-8" standalone="no"?><svg xmlns="http://www.w3.org/2000/svg" xmlns:xlink="http://www.w3.org/1999/xlink" contentScriptType="application/ecmascript" contentStyleType="text/css" height="1128px" preserveAspectRatio="none" style="width:1762px;height:1128px;" version="1.1" viewBox="0 0 1762 1128" width="1762px" zoomAndPan="magnify"><defs><filter height="1" id="b1rtz9ku95gmye0" width="1" x="0" y="0"><feFlood flood-color="#ADD8E6" result="flood"/><feComposite in="SourceGraphic" in2="flood" operator="over"/></filter></defs><g><text fill="#000000" font-family="sans-serif" font-size="36" lengthAdjust="spacingAndGlyphs" textLength="840" x="467.5" y="57.3711">Keyple Remote Plugin - Sync Node API (04/11/2020)</text><rect fill="#ADD8E6" height="602.4375" style="stroke: #A80036; stroke-width: 2.0;" width="20" x="131" y="295.7188"/><rect fill="#FFC0CB" height="539.7344" style="stroke: #A80036; stroke-width: 2.0;" width="20" x="419" y="340.4219"/><rect fill="#FFC0CB" height="418.3281" style="stroke: #A80036; stroke-width: 2.0;" width="20" x="861" y="401.125"/><rect fill="#ADD8E6" height="60.7031" style="stroke: #A80036; stroke-width: 2.0;" width="20" x="1261" y="698.0469"/><line style="stroke: #A80036; stroke-width: 2.0; stroke-dasharray: 5.0,5.0;" x1="140" x2="140" y1="275.7188" y2="916.1563"/><line style="stroke: #A80036; stroke-width: 2.0; stroke-dasharray: 5.0,5.0;" x1="428" x2="428" y1="275.7188" y2="916.1563"/><line style="stroke: #A80036; stroke-width: 2.0; stroke-dasharray: 5.0,5.0;" x1="871" x2="871" y1="275.7188" y2="916.1563"/><line style="stroke: #A80036; stroke-width: 2.0; stroke-dasharray: 5.0,5.0;" x1="1271" x2="1271" y1="275.7188" y2="916.1563"/><rect fill="#ADD8E6" height="98.4375" rx="10" ry="10" style="stroke: #A80036; stroke-width: 3.0;" width="250" x="16" y="175.2813"/><text fill="#000000" font-family="sans-serif" font-size="28" lengthAdjust="spacingAndGlyphs" textLength="144" x="69" y="218.3477">nodeClient:</text><text fill="#000000" font-family="sans-serif" font-size="28" font-weight="bold" lengthAdjust="spacingAndGlyphs" textLength="222" x="30" y="253.5664">SyncNodeClient</text><rect fill="#ADD8E6" height="98.4375" rx="10" ry="10" style="stroke: #A80036; stroke-width: 3.0;" width="250" x="16" y="914.1563"/><text fill="#000000" font-family="sans-serif" font-size="28" lengthAdjust="spacingAndGlyphs" textLength="144" x="69" y="957.2227">nodeClient:</text><text fill="#000000" font-family="sans-serif" font-size="28" font-weight="bold" lengthAdjust="spacingAndGlyphs" textLength="222" x="30" y="992.4414">SyncNodeClient</text><text fill="#000000" font-family="sans-serif" font-size="28" lengthAdjust="spacingAndGlyphs" textLength="228" x="309" y="234.3477">userSenderClient:</text><text fill="#000000" filter="url(#b1rtz9ku95gmye0)" font-family="sans-serif" font-size="28" font-weight="bold" lengthAdjust="spacingAndGlyphs" textLength="274" x="286" y="269.5664">SyncEndpointClient</text><ellipse cx="429" cy="99.2813" fill="#FEFECE" rx="16" ry="16" style="stroke: #A80036; stroke-width: 4.0;"/><path d="M429,115.2813 L429,169.2813 M403,131.2813 L455,131.2813 M429,169.2813 L403,199.2813 M429,169.2813 L455,199.2813 " fill="none" style="stroke: #A80036; stroke-width: 4.0;"/><text fill="#000000" font-family="sans-serif" font-size="28" lengthAdjust="spacingAndGlyphs" textLength="228" x="309" y="943.2227">userSenderClient:</text><text fill="#000000" filter="url(#b1rtz9ku95gmye0)" font-family="sans-serif" font-size="28" font-weight="bold" lengthAdjust="spacingAndGlyphs" textLength="274" x="286" y="978.4414">SyncEndpointClient</text><ellipse cx="429" cy="1004.5938" fill="#FEFECE" rx="16" ry="16" style="stroke: #A80036; stroke-width: 4.0;"/><path d="M429,1020.5938 L429,1074.5938 M403,1036.5938 L455,1036.5938 M429,1074.5938 L403,1104.5938 M429,1074.5938 L455,1104.5938 " fill="none" style="stroke: #A80036; stroke-width: 4.0;"/><text fill="#000000" font-family="sans-serif" font-size="28" lengthAdjust="spacingAndGlyphs" textLength="264" x="733" y="269.5664">userControllerServer</text><ellipse cx="871" cy="134.5" fill="#FEFECE" rx="16" ry="16" style="stroke: #A80036; stroke-width: 4.0;"/><path d="M871,150.5 L871,204.5 M845,166.5 L897,166.5 M871,204.5 L845,234.5 M871,204.5 L897,234.5 " fill="none" style="stroke: #A80036; stroke-width: 4.0;"/><text fill="#000000" font-family="sans-serif" font-size="28" lengthAdjust="spacingAndGlyphs" textLength="264" x="733" y="943.2227">userControllerServer</text><ellipse cx="871" cy="969.375" fill="#FEFECE" rx="16" ry="16" style="stroke: #A80036; stroke-width: 4.0;"/><path d="M871,985.375 L871,1039.375 M845,1001.375 L897,1001.375 M871,1039.375 L845,1069.375 M871,1039.375 L897,1069.375 " fill="none" style="stroke: #A80036; stroke-width: 4.0;"/><rect fill="#ADD8E6" height="98.4375" rx="10" ry="10" style="stroke: #A80036; stroke-width: 3.0;" width="264" x="1139" y="175.2813"/><text fill="#000000" font-family="sans-serif" font-size="28" lengthAdjust="spacingAndGlyphs" textLength="156" x="1193" y="218.3477">nodeServer:</text><text fill="#000000" font-family="sans-serif" font-size="28" font-weight="bold" lengthAdjust="spacingAndGlyphs" textLength="236" x="1153" y="253.5664">SyncNodeServer</text><rect fill="#ADD8E6" height="98.4375" rx="10" ry="10" style="stroke: #A80036; stroke-width: 3.0;" width="264" x="1139" y="914.1563"/><text fill="#000000" font-family="sans-serif" font-size="28" lengthAdjust="spacingAndGlyphs" textLength="156" x="1193" y="957.2227">nodeServer:</text><text fill="#000000" font-family="sans-serif" font-size="28" font-weight="bold" lengthAdjust="spacingAndGlyphs" textLength="236" x="1153" y="992.4414">SyncNodeServer</text><rect fill="#ADD8E6" height="602.4375" style="stroke: #A80036; stroke-width: 2.0;" width="20" x="131" y="295.7188"/><rect fill="#FFC0CB" height="539.7344" style="stroke: #A80036; stroke-width: 2.0;" width="20" x="419" y="340.4219"/><rect fill="#FFC0CB" height="418.3281" style="stroke: #A80036; stroke-width: 2.0;" width="20" x="861" y="401.125"/><rect fill="#ADD8E6" height="60.7031" style="stroke: #A80036; stroke-width: 2.0;" width="20" x="1261" y="698.0469"/><polygon fill="#A80036" points="395,332.4219,415,340.4219,395,348.4219,403,340.4219" style="stroke: #A80036; stroke-width: 2.0;"/><line style="stroke: #A80036; stroke-width: 2.0;" x1="151" x2="407" y1="340.4219" y2="340.4219"/><text fill="#000000" font-family="sans-serif" font-size="26" lengthAdjust="spacingAndGlyphs" textLength="168" x="165" y="330.709">sendRequest (</text><text fill="#FF0000" font-family="sans-serif" font-size="26" lengthAdjust="spacingAndGlyphs" textLength="54" x="333" y="330.709">dtoA</text><text fill="#000000" font-family="sans-serif" font-size="26" lengthAdjust="spacingAndGlyphs" textLength="8" x="387" y="330.709">)</text><polygon fill="#A80036" points="837,393.125,857,401.125,837,409.125,845,401.125" style="stroke: #A80036; stroke-width: 2.0;"/><line style="stroke: #A80036; stroke-width: 2.0;" x1="439" x2="849" y1="401.125" y2="401.125"/><text fill="#000000" font-family="sans-serif" font-size="26" lengthAdjust="spacingAndGlyphs" textLength="322" x="453" y="391.4121">send synchronous request (</text><text fill="#FF0000" font-family="sans-serif" font-size="26" lengthAdjust="spacingAndGlyphs" textLength="54" x="775" y="391.4121">dtoA</text><text fill="#000000" font-family="sans-serif" font-size="26" lengthAdjust="spacingAndGlyphs" textLength="8" x="829" y="391.4121">)</text><line style="stroke: #A80036; stroke-width: 2.0;" x1="881" x2="965" y1="536.5859" y2="536.5859"/><line style="stroke: #A80036; stroke-width: 2.0;" x1="965" x2="965" y1="536.5859" y2="562.5859"/><line style="stroke: #A80036; stroke-width: 2.0;" x1="883" x2="965" y1="562.5859" y2="562.5859"/><polygon fill="#A80036" points="903,554.5859,883,562.5859,903,570.5859,895,562.5859" style="stroke: #A80036; stroke-width: 2.0;"/><text fill="#000000" font-family="sans-serif" font-size="26" lengthAdjust="spacingAndGlyphs" textLength="352" x="895" y="526.873">[...]ServerUtils.getSyncNode ()</text><path d="M1270,437.125 L1270,633.125 A10,10 0 0 0 1280,643.125 L1728,643.125 A10,10 0 0 0 1738,633.125 L1738,447.125 L1718,427.125 L1280,427.125 A10,10 0 0 0 1270,437.125 " fill="#FBFB77" style="stroke: #A80036; stroke-width: 2.0;"/><path d="M1718,427.125 L1718,442.125 A5,5 0 0 0 1723,447.125 L1738,447.125 L1718,427.125 " fill="#FBFB77" style="stroke: #A80036; stroke-width: 2.0;"/><text fill="#000000" font-family="sans-serif" font-size="26" lengthAdjust="spacingAndGlyphs" textLength="406" x="1282" y="464.1152">To access the node it is necessary</text><text fill="#000000" font-family="sans-serif" font-size="26" lengthAdjust="spacingAndGlyphs" textLength="426" x="1282" y="496.8184">to use the utility class corresponding</text><text fill="#000000" font-family="sans-serif" font-size="26" lengthAdjust="spacingAndGlyphs" textLength="312" x="1282" y="529.5215">to the server configuration :</text><ellipse cx="1293" cy="552.9375" fill="#000000" rx="5" ry="5" style="stroke: #000000; stroke-width: 0.0;"/><text fill="#000000" font-family="sans-serif" font-size="26" font-weight="bold" lengthAdjust="spacingAndGlyphs" textLength="180" x="1308" y="562.2246">RemotePlugin</text><text fill="#000000" font-family="sans-serif" font-size="26" lengthAdjust="spacingAndGlyphs" textLength="124" x="1488" y="562.2246">ServerUtils</text><ellipse cx="1293" cy="585.6406" fill="#000000" rx="5" ry="5" style="stroke: #000000; stroke-width: 0.0;"/><text fill="#000000" font-family="sans-serif" font-size="26" font-weight="bold" lengthAdjust="spacingAndGlyphs" textLength="166" x="1308" y="594.9277">LocalService</text><text fill="#000000" font-family="sans-serif" font-size="26" lengthAdjust="spacingAndGlyphs" textLength="124" x="1474" y="594.9277">ServerUtils</text><ellipse cx="1293" cy="618.3438" fill="#000000" rx="5" ry="5" style="stroke: #000000; stroke-width: 0.0;"/><text fill="#000000" font-family="sans-serif" font-size="26" font-weight="bold" lengthAdjust="spacingAndGlyphs" textLength="224" x="1308" y="627.6309">PoolLocalService</text><text fill="#000000" font-family="sans-serif" font-size="26" lengthAdjust="spacingAndGlyphs" textLength="124" x="1532" y="627.6309">ServerUtils</text><polygon fill="#A80036" points="1237,690.0469,1257,698.0469,1237,706.0469,1245,698.0469" style="stroke: #A80036; stroke-width: 2.0;"/><line style="stroke: #A80036; stroke-width: 2.0;" x1="881" x2="1249" y1="698.0469" y2="698.0469"/><text fill="#000000" font-family="sans-serif" font-size="26" lengthAdjust="spacingAndGlyphs" textLength="140" x="895" y="688.334">onRequest (</text><text fill="#FF0000" font-family="sans-serif" font-size="26" lengthAdjust="spacingAndGlyphs" textLength="54" x="1035" y="688.334">dtoA</text><text fill="#000000" font-family="sans-serif" font-size="26" lengthAdjust="spacingAndGlyphs" textLength="8" x="1089" y="688.334">)</text><polygon fill="#A80036" points="903,750.75,883,758.75,903,766.75,895,758.75" style="stroke: #A80036; stroke-width: 2.0;"/><line style="stroke: #A80036; stroke-width: 2.0; stroke-dasharray: 2.0,2.0;" x1="891" x2="1269" y1="758.75" y2="758.75"/><text fill="#0000FF" font-family="sans-serif" font-size="26" lengthAdjust="spacingAndGlyphs" textLength="54" x="915" y="749.0371">dtoB</text><polygon fill="#A80036" points="461,811.4531,441,819.4531,461,827.4531,453,819.4531" style="stroke: #A80036; stroke-width: 2.0;"/><line style="stroke: #A80036; stroke-width: 2.0; stroke-dasharray: 2.0,2.0;" x1="449" x2="869" y1="819.4531" y2="819.4531"/><text fill="#0000FF" font-family="sans-serif" font-size="26" lengthAdjust="spacingAndGlyphs" textLength="54" x="473" y="809.7402">dtoB</text><polygon fill="#A80036" points="173,872.1563,153,880.1563,173,888.1563,165,880.1563" style="stroke: #A80036; stroke-width: 2.0;"/><line style="stroke: #A80036; stroke-width: 2.0; stroke-dasharray: 2.0,2.0;" x1="161" x2="427" y1="880.1563" y2="880.1563"/><text fill="#0000FF" font-family="sans-serif" font-size="26" lengthAdjust="spacingAndGlyphs" textLength="54" x="185" y="870.4434">dtoB</text><!--MD5=[02f2ecbd3cfa03a5ae7d4d5f6405d734]
@startuml

title
    Keyple Remote Plugin - Sync Node API (04/11/2020)
end title


skinparam Shadowing false
skinparam RoundCorner 10


participant "nodeClient:\n**SyncNodeClient**" as nodeClient #LightBlue
actor "userSenderClient:\n**<back:LightBlue>SyncEndpointClient**" as userSenderClient

actor "userControllerServer" as userControllerServer
participant "nodeServer:\n**SyncNodeServer**" as nodeServer #LightBlue

activate nodeClient #LightBlue
nodeClient -> userSenderClient : sendRequest (<color:red>dtoA</color>)
activate userSenderClient #Pink
userSenderClient -> userControllerServer : send synchronous request (<color:red>dtoA</color>)

activate userControllerServer #Pink
userControllerServer -> userControllerServer : [...]ServerUtils.getSyncNode ()
note right
    To access the node it is necessary
    to use the utility class corresponding
    to the server configuration :
    * **RemotePlugin**ServerUtils
    * **LocalService**ServerUtils
    * **PoolLocalService**ServerUtils
end note
userControllerServer -> nodeServer : onRequest (<color:red>dtoA</color>)
activate nodeServer #LightBlue
return <color:blue>dtoB</color>
return <color:blue>dtoB</color>
return <color:blue>dtoB</color>


@enduml

PlantUML version 1.2020.09(Sun May 10 12:51:06 CEST 2020)
(GPL source distribution)
Java Runtime: OpenJDK Runtime Environment
JVM: OpenJDK 64-Bit Server VM
Java Version: 11.0.8+10-b944.34
Operating System: Windows 10
Default Encoding: Cp1252
Language: fr
Country: FR
--></g></svg>