<?xml version="1.0" encoding="us-ascii" standalone="no"?><svg xmlns="http://www.w3.org/2000/svg" xmlns:xlink="http://www.w3.org/1999/xlink" contentStyleType="text/css" height="1253px" preserveAspectRatio="none" style="width:1473px;height:1253px;background:#FFFFFF;" version="1.1" viewBox="0 0 1473 1253" width="1473px" zoomAndPan="magnify"><defs/><g><!--class MessageDto--><g id="elem_MessageDto"><rect codeLine="166" fill="#E9F7EF" height="196.9688" id="MessageDto" rx="2.5" ry="2.5" style="stroke:#27AE60;stroke-width:2.0;" width="201" x="445.5" y="7"/><ellipse cx="502.25" cy="23" fill="#ADD1B2" rx="11" ry="11" style="stroke:#181818;stroke-width:1.0;"/><path d="M505.0156,18.875 Q505.1719,18.6563 505.3594,18.5469 Q505.5469,18.4375 505.7656,18.4375 Q506.1406,18.4375 506.375,18.7031 Q506.6094,18.9531 506.6094,19.5625 L506.6094,21.0156 Q506.6094,21.625 506.375,21.8906 Q506.1406,22.1563 505.7656,22.1563 Q505.4219,22.1563 505.2188,21.9531 Q505.0156,21.7656 504.9063,21.25 Q504.8594,20.8906 504.6719,20.7031 Q504.3438,20.3281 503.7344,20.1094 Q503.125,19.8906 502.5,19.8906 Q501.7344,19.8906 501.0938,20.2188 Q500.4688,20.5469 499.9688,21.2969 Q499.4844,22.0469 499.4844,23.0781 L499.4844,24.1719 Q499.4844,25.4063 500.375,26.2344 Q501.2656,27.0469 502.8594,27.0469 Q503.7969,27.0469 504.4531,26.7969 Q504.8438,26.6406 505.2656,26.2031 Q505.5313,25.9375 505.6719,25.8594 Q505.8281,25.7813 506.0313,25.7813 Q506.3594,25.7813 506.6094,26.0469 Q506.875,26.2969 506.875,26.6406 Q506.875,26.9844 506.5313,27.3906 Q506.0313,27.9688 505.2344,28.2969 Q504.1563,28.75 502.8594,28.75 Q501.3438,28.75 500.1406,28.125 Q499.1563,27.625 498.4688,26.5625 Q497.7813,25.4844 497.7813,24.2031 L497.7813,23.0469 Q497.7813,21.7188 498.3906,20.5781 Q499.0156,19.4219 500.1094,18.8125 Q501.2031,18.1875 502.4375,18.1875 Q503.1719,18.1875 503.8125,18.3594 Q504.4688,18.5156 505.0156,18.875 Z " fill="#000000"/><text fill="#000000" font-family="sans-serif" font-size="14" lengthAdjust="spacing" textLength="79" x="522.75" y="28.7969">MessageDto</text><line style="stroke:#27AE60;stroke-width:2.0;" x1="446.5" x2="645.5" y1="39" y2="39"/><text fill="#000000" font-family="sans-serif" font-size="14" font-weight="bold" lengthAdjust="spacing" textLength="60" x="451.5" y="58.1074">apiLevel</text><text fill="#000000" font-family="sans-serif" font-size="14" lengthAdjust="spacing" textLength="81" x="515.5" y="58.1074">: Number = 2</text><text fill="#000000" font-family="sans-serif" font-size="14" font-weight="bold" lengthAdjust="spacing" textLength="68" x="451.5" y="76.7285">sessionId</text><text fill="#000000" font-family="sans-serif" font-size="14" lengthAdjust="spacing" textLength="45" x="523.5" y="76.7285">: String</text><text fill="#000000" font-family="sans-serif" font-size="14" font-weight="bold" lengthAdjust="spacing" textLength="43" x="451.5" y="95.3496">action</text><text fill="#000000" font-family="sans-serif" font-size="14" lengthAdjust="spacing" textLength="66" x="498.5" y="95.3496">: String = "</text><text fill="#000000" font-family="sans-serif" font-size="14" font-weight="bold" lengthAdjust="spacing" textLength="33" x="564.5" y="95.3496">CMD</text><text fill="#000000" font-family="sans-serif" font-size="14" lengthAdjust="spacing" textLength="5" x="597.5" y="95.3496">"</text><text fill="#000000" font-family="sans-serif" font-size="14" font-weight="bold" lengthAdjust="spacing" textLength="89" x="451.5" y="113.9707">clientNodeId</text><text fill="#000000" font-family="sans-serif" font-size="14" lengthAdjust="spacing" textLength="45" x="544.5" y="113.9707">: String</text><text fill="#000000" font-family="sans-serif" font-size="14" font-weight="bold" lengthAdjust="spacing" textLength="97" x="451.5" y="132.5918">serverNodeId</text><text fill="#000000" font-family="sans-serif" font-size="14" lengthAdjust="spacing" textLength="45" x="552.5" y="132.5918">: String</text><text fill="#000000" font-family="sans-serif" font-size="14" font-weight="bold" lengthAdjust="spacing" textLength="123" x="451.5" y="151.2129">localReaderName</text><text fill="#000000" font-family="sans-serif" font-size="14" lengthAdjust="spacing" textLength="45" x="578.5" y="151.2129">: String</text><text fill="#000000" font-family="sans-serif" font-size="14" font-weight="bold" lengthAdjust="spacing" textLength="140" x="451.5" y="169.834">remoteReaderName</text><text fill="#000000" font-family="sans-serif" font-size="14" lengthAdjust="spacing" textLength="45" x="595.5" y="169.834">: String</text><text fill="#000000" font-family="sans-serif" font-size="14" font-weight="bold" lengthAdjust="spacing" textLength="34" x="451.5" y="188.4551">body</text><text fill="#000000" font-family="sans-serif" font-size="14" lengthAdjust="spacing" textLength="69" x="489.5" y="188.4551">: CmdBody</text><line style="stroke:#27AE60;stroke-width:2.0;" x1="446.5" x2="645.5" y1="195.9688" y2="195.9688"/></g><!--class CmdBody--><g id="elem_CmdBody"><rect codeLine="167" fill="#E9F7EF" height="85.2422" id="CmdBody" rx="2.5" ry="2.5" style="stroke:#27AE60;stroke-width:2.0;" width="190" x="451" y="283"/><ellipse cx="511.25" cy="299" fill="#A9DCDF" rx="11" ry="11" style="stroke:#181818;stroke-width:1.0;"/><path d="M513.4375,300.7656 L509.2969,300.7656 L508.875,301.7969 L509.2969,301.7969 Q509.9063,301.7969 510.1719,302.0313 Q510.4375,302.2656 510.4375,302.6563 Q510.4375,303.0313 510.1719,303.2656 Q509.9063,303.5 509.2969,303.5 L507,303.5 Q506.3906,303.5 506.1406,303.2656 Q505.875,303.0313 505.875,302.6406 Q505.875,302.2656 506.1563,302.0313 Q506.4219,301.7813 507.0469,301.7969 L509.7188,295.1406 L508.6094,295.1406 Q508,295.1406 507.7344,294.9063 Q507.4688,294.6719 507.4688,294.2813 Q507.4688,293.9063 507.7344,293.6719 Q508,293.4375 508.6094,293.4375 L512.2813,293.4375 L515.6719,301.7969 Q516.2656,301.7969 516.4531,301.9375 Q516.8438,302.2031 516.8438,302.6563 Q516.8438,303.0313 516.5781,303.2656 Q516.3281,303.5 515.7188,303.5 L513.4219,303.5 Q512.8125,303.5 512.5469,303.2656 Q512.2813,303.0313 512.2813,302.6406 Q512.2813,302.2656 512.5469,302.0313 Q512.8125,301.7969 513.4219,301.7969 L513.8438,301.7969 L513.4375,300.7656 Z M512.7188,299.0625 L511.3594,295.6875 L509.9844,299.0625 L512.7188,299.0625 Z " fill="#000000"/><text fill="#000000" font-family="sans-serif" font-size="14" font-style="italic" lengthAdjust="spacing" textLength="61" x="531.75" y="304.7969">CmdBody</text><line style="stroke:#27AE60;stroke-width:2.0;" x1="452" x2="640" y1="315" y2="315"/><text fill="#000000" font-family="sans-serif" font-size="14" font-weight="bold" lengthAdjust="spacing" textLength="93" x="457" y="334.1074">coreApiLevel</text><text fill="#000000" font-family="sans-serif" font-size="14" lengthAdjust="spacing" textLength="81" x="554" y="334.1074">: Number = 2</text><text fill="#000000" font-family="sans-serif" font-size="14" font-weight="bold" lengthAdjust="spacing" textLength="53" x="457" y="352.7285">service</text><text fill="#000000" font-family="sans-serif" font-size="14" lengthAdjust="spacing" textLength="45" x="514" y="352.7285">: String</text><line style="stroke:#27AE60;stroke-width:2.0;" x1="452" x2="640" y1="360.2422" y2="360.2422"/></g><!--class IsContactlessCmdBody--><g id="elem_IsContactlessCmdBody"><rect codeLine="185" fill="#E9F7EF" height="66.6211" id="IsContactlessCmdBody" rx="2.5" ry="2.5" style="stroke:#27AE60;stroke-width:2.0;" width="262" x="7" y="438"/><ellipse cx="61.25" cy="454" fill="#ADD1B2" rx="11" ry="11" style="stroke:#181818;stroke-width:1.0;"/><path d="M64.0156,449.875 Q64.1719,449.6563 64.3594,449.5469 Q64.5469,449.4375 64.7656,449.4375 Q65.1406,449.4375 65.375,449.7031 Q65.6094,449.9531 65.6094,450.5625 L65.6094,452.0156 Q65.6094,452.625 65.375,452.8906 Q65.1406,453.1563 64.7656,453.1563 Q64.4219,453.1563 64.2188,452.9531 Q64.0156,452.7656 63.9063,452.25 Q63.8594,451.8906 63.6719,451.7031 Q63.3438,451.3281 62.7344,451.1094 Q62.125,450.8906 61.5,450.8906 Q60.7344,450.8906 60.0938,451.2188 Q59.4688,451.5469 58.9688,452.2969 Q58.4844,453.0469 58.4844,454.0781 L58.4844,455.1719 Q58.4844,456.4063 59.375,457.2344 Q60.2656,458.0469 61.8594,458.0469 Q62.7969,458.0469 63.4531,457.7969 Q63.8438,457.6406 64.2656,457.2031 Q64.5313,456.9375 64.6719,456.8594 Q64.8281,456.7813 65.0313,456.7813 Q65.3594,456.7813 65.6094,457.0469 Q65.875,457.2969 65.875,457.6406 Q65.875,457.9844 65.5313,458.3906 Q65.0313,458.9688 64.2344,459.2969 Q63.1563,459.75 61.8594,459.75 Q60.3438,459.75 59.1406,459.125 Q58.1563,458.625 57.4688,457.5625 Q56.7813,456.4844 56.7813,455.2031 L56.7813,454.0469 Q56.7813,452.7188 57.3906,451.5781 Q58.0156,450.4219 59.1094,449.8125 Q60.2031,449.1875 61.4375,449.1875 Q62.1719,449.1875 62.8125,449.3594 Q63.4688,449.5156 64.0156,449.875 Z " fill="#000000"/><text fill="#000000" font-family="sans-serif" font-size="14" lengthAdjust="spacing" textLength="145" x="81.75" y="459.7969">IsContactlessCmdBody</text><line style="stroke:#27AE60;stroke-width:2.0;" x1="8" x2="268" y1="470" y2="470"/><text fill="#000000" font-family="sans-serif" font-size="14" font-weight="bold" lengthAdjust="spacing" textLength="53" x="13" y="489.1074">service</text><text fill="#000000" font-family="sans-serif" font-size="14" lengthAdjust="spacing" textLength="66" x="70" y="489.1074">: String = "</text><text fill="#000000" font-family="sans-serif" font-size="14" font-weight="bold" lengthAdjust="spacing" textLength="122" x="136" y="489.1074">IS_CONTACTLESS</text><text fill="#000000" font-family="sans-serif" font-size="14" lengthAdjust="spacing" textLength="5" x="258" y="489.1074">"</text><line style="stroke:#27AE60;stroke-width:2.0;" x1="8" x2="268" y1="496.6211" y2="496.6211"/></g><!--class IsCardPresentCmdBody--><g id="elem_IsCardPresentCmdBody"><rect codeLine="182" fill="#E9F7EF" height="66.6211" id="IsCardPresentCmdBody" rx="2.5" ry="2.5" style="stroke:#27AE60;stroke-width:2.0;" width="272" x="304" y="438"/><ellipse cx="360.25" cy="454" fill="#ADD1B2" rx="11" ry="11" style="stroke:#181818;stroke-width:1.0;"/><path d="M363.0156,449.875 Q363.1719,449.6563 363.3594,449.5469 Q363.5469,449.4375 363.7656,449.4375 Q364.1406,449.4375 364.375,449.7031 Q364.6094,449.9531 364.6094,450.5625 L364.6094,452.0156 Q364.6094,452.625 364.375,452.8906 Q364.1406,453.1563 363.7656,453.1563 Q363.4219,453.1563 363.2188,452.9531 Q363.0156,452.7656 362.9063,452.25 Q362.8594,451.8906 362.6719,451.7031 Q362.3438,451.3281 361.7344,451.1094 Q361.125,450.8906 360.5,450.8906 Q359.7344,450.8906 359.0938,451.2188 Q358.4688,451.5469 357.9688,452.2969 Q357.4844,453.0469 357.4844,454.0781 L357.4844,455.1719 Q357.4844,456.4063 358.375,457.2344 Q359.2656,458.0469 360.8594,458.0469 Q361.7969,458.0469 362.4531,457.7969 Q362.8438,457.6406 363.2656,457.2031 Q363.5313,456.9375 363.6719,456.8594 Q363.8281,456.7813 364.0313,456.7813 Q364.3594,456.7813 364.6094,457.0469 Q364.875,457.2969 364.875,457.6406 Q364.875,457.9844 364.5313,458.3906 Q364.0313,458.9688 363.2344,459.2969 Q362.1563,459.75 360.8594,459.75 Q359.3438,459.75 358.1406,459.125 Q357.1563,458.625 356.4688,457.5625 Q355.7813,456.4844 355.7813,455.2031 L355.7813,454.0469 Q355.7813,452.7188 356.3906,451.5781 Q357.0156,450.4219 358.1094,449.8125 Q359.2031,449.1875 360.4375,449.1875 Q361.1719,449.1875 361.8125,449.3594 Q362.4688,449.5156 363.0156,449.875 Z " fill="#000000"/><text fill="#000000" font-family="sans-serif" font-size="14" lengthAdjust="spacing" textLength="151" x="380.75" y="459.7969">IsCardPresentCmdBody</text><line style="stroke:#27AE60;stroke-width:2.0;" x1="305" x2="575" y1="470" y2="470"/><text fill="#000000" font-family="sans-serif" font-size="14" font-weight="bold" lengthAdjust="spacing" textLength="53" x="310" y="489.1074">service</text><text fill="#000000" font-family="sans-serif" font-size="14" lengthAdjust="spacing" textLength="66" x="367" y="489.1074">: String = "</text><text fill="#000000" font-family="sans-serif" font-size="14" font-weight="bold" lengthAdjust="spacing" textLength="132" x="433" y="489.1074">IS_CARD_PRESENT</text><text fill="#000000" font-family="sans-serif" font-size="14" lengthAdjust="spacing" textLength="5" x="565" y="489.1074">"</text><line style="stroke:#27AE60;stroke-width:2.0;" x1="305" x2="575" y1="496.6211" y2="496.6211"/></g><!--class TransmitCardSelectionRequestsCmdBody--><g id="elem_TransmitCardSelectionRequestsCmdBody"><rect codeLine="170" fill="#E9F7EF" height="85.2422" id="TransmitCardSelectionRequestsCmdBody" rx="2.5" ry="2.5" style="stroke:#27AE60;stroke-width:2.0;" width="427" x="611.5" y="429"/><ellipse cx="688.25" cy="445" fill="#ADD1B2" rx="11" ry="11" style="stroke:#181818;stroke-width:1.0;"/><path d="M691.0156,440.875 Q691.1719,440.6563 691.3594,440.5469 Q691.5469,440.4375 691.7656,440.4375 Q692.1406,440.4375 692.375,440.7031 Q692.6094,440.9531 692.6094,441.5625 L692.6094,443.0156 Q692.6094,443.625 692.375,443.8906 Q692.1406,444.1563 691.7656,444.1563 Q691.4219,444.1563 691.2188,443.9531 Q691.0156,443.7656 690.9063,443.25 Q690.8594,442.8906 690.6719,442.7031 Q690.3438,442.3281 689.7344,442.1094 Q689.125,441.8906 688.5,441.8906 Q687.7344,441.8906 687.0938,442.2188 Q686.4688,442.5469 685.9688,443.2969 Q685.4844,444.0469 685.4844,445.0781 L685.4844,446.1719 Q685.4844,447.4063 686.375,448.2344 Q687.2656,449.0469 688.8594,449.0469 Q689.7969,449.0469 690.4531,448.7969 Q690.8438,448.6406 691.2656,448.2031 Q691.5313,447.9375 691.6719,447.8594 Q691.8281,447.7813 692.0313,447.7813 Q692.3594,447.7813 692.6094,448.0469 Q692.875,448.2969 692.875,448.6406 Q692.875,448.9844 692.5313,449.3906 Q692.0313,449.9688 691.2344,450.2969 Q690.1563,450.75 688.8594,450.75 Q687.3438,450.75 686.1406,450.125 Q685.1563,449.625 684.4688,448.5625 Q683.7813,447.4844 683.7813,446.2031 L683.7813,445.0469 Q683.7813,443.7188 684.3906,442.5781 Q685.0156,441.4219 686.1094,440.8125 Q687.2031,440.1875 688.4375,440.1875 Q689.1719,440.1875 689.8125,440.3594 Q690.4688,440.5156 691.0156,440.875 Z " fill="#000000"/><text fill="#000000" font-family="sans-serif" font-size="14" lengthAdjust="spacing" textLength="265" x="708.75" y="450.7969">TransmitCardSelectionRequestsCmdBody</text><line style="stroke:#27AE60;stroke-width:2.0;" x1="612.5" x2="1037.5" y1="461" y2="461"/><text fill="#000000" font-family="sans-serif" font-size="14" font-weight="bold" lengthAdjust="spacing" textLength="53" x="617.5" y="480.1074">service</text><text fill="#000000" font-family="sans-serif" font-size="14" lengthAdjust="spacing" textLength="66" x="674.5" y="480.1074">: String = "</text><text fill="#000000" font-family="sans-serif" font-size="14" font-weight="bold" lengthAdjust="spacing" textLength="287" x="740.5" y="480.1074">TRANSMIT_CARD_SELECTION_REQUESTS</text><text fill="#000000" font-family="sans-serif" font-size="14" lengthAdjust="spacing" textLength="5" x="1027.5" y="480.1074">"</text><text fill="#000000" font-family="sans-serif" font-size="14" font-weight="bold" lengthAdjust="spacing" textLength="80" x="617.5" y="498.7285">parameters</text><text fill="#000000" font-family="sans-serif" font-size="14" lengthAdjust="spacing" textLength="314" x="701.5" y="498.7285">: TransmitCardSelectionRequestsCmdParameters</text><line style="stroke:#27AE60;stroke-width:2.0;" x1="612.5" x2="1037.5" y1="506.2422" y2="506.2422"/></g><!--class TransmitCardSelectionRequestsCmdParameters--><g id="elem_TransmitCardSelectionRequestsCmdParameters"><rect codeLine="171" fill="#E9F7EF" height="122.4844" id="TransmitCardSelectionRequestsCmdParameters" rx="2.5" ry="2.5" style="stroke:#27AE60;stroke-width:2.0;" width="360" x="615" y="575"/><ellipse cx="639.9" cy="591" fill="#ADD1B2" rx="11" ry="11" style="stroke:#181818;stroke-width:1.0;"/><path d="M642.6656,586.875 Q642.8219,586.6563 643.0094,586.5469 Q643.1969,586.4375 643.4156,586.4375 Q643.7906,586.4375 644.025,586.7031 Q644.2594,586.9531 644.2594,587.5625 L644.2594,589.0156 Q644.2594,589.625 644.025,589.8906 Q643.7906,590.1563 643.4156,590.1563 Q643.0719,590.1563 642.8688,589.9531 Q642.6656,589.7656 642.5563,589.25 Q642.5094,588.8906 642.3219,588.7031 Q641.9938,588.3281 641.3844,588.1094 Q640.775,587.8906 640.15,587.8906 Q639.3844,587.8906 638.7438,588.2188 Q638.1188,588.5469 637.6188,589.2969 Q637.1344,590.0469 637.1344,591.0781 L637.1344,592.1719 Q637.1344,593.4063 638.025,594.2344 Q638.9156,595.0469 640.5094,595.0469 Q641.4469,595.0469 642.1031,594.7969 Q642.4938,594.6406 642.9156,594.2031 Q643.1813,593.9375 643.3219,593.8594 Q643.4781,593.7813 643.6813,593.7813 Q644.0094,593.7813 644.2594,594.0469 Q644.525,594.2969 644.525,594.6406 Q644.525,594.9844 644.1813,595.3906 Q643.6813,595.9688 642.8844,596.2969 Q641.8063,596.75 640.5094,596.75 Q638.9938,596.75 637.7906,596.125 Q636.8063,595.625 636.1188,594.5625 Q635.4313,593.4844 635.4313,592.2031 L635.4313,591.0469 Q635.4313,589.7188 636.0406,588.5781 Q636.6656,587.4219 637.7594,586.8125 Q638.8531,586.1875 640.0875,586.1875 Q640.8219,586.1875 641.4625,586.3594 Q642.1188,586.5156 642.6656,586.875 Z " fill="#000000"/><text fill="#000000" font-family="sans-serif" font-size="14" lengthAdjust="spacing" textLength="306" x="656.1" y="596.7969">TransmitCardSelectionRequestsCmdParameters</text><line style="stroke:#27AE60;stroke-width:2.0;" x1="616" x2="974" y1="607" y2="607"/><text fill="#000000" font-family="sans-serif" font-size="14" font-weight="bold" lengthAdjust="spacing" textLength="179" x="621" y="626.1074">multiSelectionProcessing</text><text fill="#000000" font-family="sans-serif" font-size="14" lengthAdjust="spacing" textLength="165" x="804" y="626.1074">: MultiSelectionProcessing</text><text fill="#000000" font-family="sans-serif" font-size="14" font-weight="bold" lengthAdjust="spacing" textLength="108" x="621" y="644.7285">channelControl</text><text fill="#000000" font-family="sans-serif" font-size="14" lengthAdjust="spacing" textLength="107" x="733" y="644.7285">: ChannelControl</text><text fill="#000000" font-family="sans-serif" font-size="14" font-weight="bold" lengthAdjust="spacing" textLength="98" x="621" y="663.3496">cardSelectors</text><text fill="#000000" font-family="sans-serif" font-size="14" lengthAdjust="spacing" textLength="99" x="723" y="663.3496">: CardSelector[]</text><text fill="#000000" font-family="sans-serif" font-size="14" font-weight="bold" lengthAdjust="spacing" textLength="164" x="621" y="681.9707">cardSelectionRequests</text><text fill="#000000" font-family="sans-serif" font-size="14" lengthAdjust="spacing" textLength="158" x="789" y="681.9707">: CardSelectionRequest[]</text><line style="stroke:#27AE60;stroke-width:2.0;" x1="616" x2="974" y1="689.4844" y2="689.4844"/></g><!--class MultiSelectionProcessing--><g id="elem_MultiSelectionProcessing"><rect codeLine="87" fill="#FEFECE" height="85.2422" id="MultiSelectionProcessing" rx="2.5" ry="2.5" style="stroke:#D4AC0D;stroke-width:2.0;" width="189" x="390.5" y="593.5"/><ellipse cx="405.5" cy="609.5" fill="#EB937F" rx="11" ry="11" style="stroke:#181818;stroke-width:1.0;"/><path d="M404.3594,610.2969 L404.3594,612.7969 L408.6875,612.7969 L408.6875,611.875 Q408.6875,611.2656 408.9219,611 Q409.1719,610.7344 409.5469,610.7344 Q409.9219,610.7344 410.1563,611 Q410.3906,611.2656 410.3906,611.875 L410.3906,614.5 L402.3906,614.5 Q401.7656,614.5 401.5,614.2656 Q401.25,614.0313 401.25,613.6406 Q401.25,613.2656 401.5156,613.0313 Q401.7813,612.7969 402.3906,612.7969 L402.6563,612.7969 L402.6563,606.1406 L402.3906,606.1406 Q401.7656,606.1406 401.5,605.9063 Q401.25,605.6719 401.25,605.2813 Q401.25,604.9063 401.5,604.6719 Q401.7656,604.4375 402.3906,604.4375 L410.0156,604.4375 L410.0156,607.0313 Q410.0156,607.6406 409.7813,607.9063 Q409.5625,608.1563 409.1719,608.1563 Q408.7969,608.1563 408.5625,607.9063 Q408.3281,607.6406 408.3281,607.0313 L408.3281,606.1406 L404.3594,606.1406 L404.3594,608.5938 L405.8438,608.5938 Q405.8438,607.9375 405.9688,607.75 Q406.2344,607.3438 406.7031,607.3438 Q407.0781,607.3438 407.3125,607.6094 Q407.5469,607.8594 407.5469,608.4688 L407.5469,610.4375 Q407.5469,610.9844 407.4219,611.1719 Q407.1563,611.5625 406.7031,611.5625 Q406.2344,611.5625 405.9688,611.1563 Q405.8438,610.9688 405.8438,610.2969 L404.3594,610.2969 Z " fill="#000000"/><text fill="#000000" font-family="sans-serif" font-size="14" lengthAdjust="spacing" textLength="157" x="419.5" y="615.2969">MultiSelectionProcessing</text><line style="stroke:#D4AC0D;stroke-width:2.0;" x1="391.5" x2="578.5" y1="625.5" y2="625.5"/><text fill="#000000" font-family="sans-serif" font-size="14" lengthAdjust="spacing" textLength="96" x="396.5" y="644.6074">FIRST_MATCH</text><text fill="#000000" font-family="sans-serif" font-size="14" lengthAdjust="spacing" textLength="100" x="396.5" y="663.2285">PROCESS_ALL</text><line style="stroke:#D4AC0D;stroke-width:2.0;" x1="391.5" x2="578.5" y1="670.7422" y2="670.7422"/></g><!--class CardSelector--><g id="elem_CardSelector"><rect codeLine="173" fill="#E9F7EF" height="141.1055" id="CardSelector" rx="2.5" ry="2.5" style="stroke:#27AE60;stroke-width:2.0;" width="317" x="607.5" y="758"/><ellipse cx="720.25" cy="774" fill="#ADD1B2" rx="11" ry="11" style="stroke:#181818;stroke-width:1.0;"/><path d="M723.0156,769.875 Q723.1719,769.6563 723.3594,769.5469 Q723.5469,769.4375 723.7656,769.4375 Q724.1406,769.4375 724.375,769.7031 Q724.6094,769.9531 724.6094,770.5625 L724.6094,772.0156 Q724.6094,772.625 724.375,772.8906 Q724.1406,773.1563 723.7656,773.1563 Q723.4219,773.1563 723.2188,772.9531 Q723.0156,772.7656 722.9063,772.25 Q722.8594,771.8906 722.6719,771.7031 Q722.3438,771.3281 721.7344,771.1094 Q721.125,770.8906 720.5,770.8906 Q719.7344,770.8906 719.0938,771.2188 Q718.4688,771.5469 717.9688,772.2969 Q717.4844,773.0469 717.4844,774.0781 L717.4844,775.1719 Q717.4844,776.4063 718.375,777.2344 Q719.2656,778.0469 720.8594,778.0469 Q721.7969,778.0469 722.4531,777.7969 Q722.8438,777.6406 723.2656,777.2031 Q723.5313,776.9375 723.6719,776.8594 Q723.8281,776.7813 724.0313,776.7813 Q724.3594,776.7813 724.6094,777.0469 Q724.875,777.2969 724.875,777.6406 Q724.875,777.9844 724.5313,778.3906 Q724.0313,778.9688 723.2344,779.2969 Q722.1563,779.75 720.8594,779.75 Q719.3438,779.75 718.1406,779.125 Q717.1563,778.625 716.4688,777.5625 Q715.7813,776.4844 715.7813,775.2031 L715.7813,774.0469 Q715.7813,772.7188 716.3906,771.5781 Q717.0156,770.4219 718.1094,769.8125 Q719.2031,769.1875 720.4375,769.1875 Q721.1719,769.1875 721.8125,769.3594 Q722.4688,769.5156 723.0156,769.875 Z " fill="#000000"/><text fill="#000000" font-family="sans-serif" font-size="14" lengthAdjust="spacing" textLength="83" x="740.75" y="779.7969">CardSelector</text><line style="stroke:#27AE60;stroke-width:2.0;" x1="608.5" x2="923.5" y1="790" y2="790"/><text fill="#000000" font-family="sans-serif" font-size="14" font-weight="bold" lengthAdjust="spacing" textLength="144" x="613.5" y="809.1074">logicalProtocolName</text><text fill="#000000" font-family="sans-serif" font-size="14" lengthAdjust="spacing" textLength="53" x="761.5" y="809.1074">: String?</text><text fill="#000000" font-family="sans-serif" font-size="14" font-weight="bold" lengthAdjust="spacing" textLength="140" x="613.5" y="827.7285">powerOnDataRegex</text><text fill="#000000" font-family="sans-serif" font-size="14" lengthAdjust="spacing" textLength="53" x="757.5" y="827.7285">: String?</text><text fill="#000000" font-family="sans-serif" font-size="14" font-weight="bold" lengthAdjust="spacing" textLength="21" x="613.5" y="846.3496">aid</text><text fill="#000000" font-family="sans-serif" font-size="14" lengthAdjust="spacing" textLength="53" x="638.5" y="846.3496">: String?</text><text fill="#000000" font-family="sans-serif" font-size="14" font-weight="bold" lengthAdjust="spacing" textLength="105" x="613.5" y="864.9707">fileOccurrence</text><text fill="#000000" font-family="sans-serif" font-size="14" lengthAdjust="spacing" textLength="105" x="722.5" y="864.9707">: FileOccurrence</text><text fill="#000000" font-family="sans-serif" font-size="14" font-weight="bold" lengthAdjust="spacing" textLength="154" x="613.5" y="883.5918">fileControlInformation</text><text fill="#000000" font-family="sans-serif" font-size="14" lengthAdjust="spacing" textLength="147" x="771.5" y="883.5918">: FileControlInformation</text><line style="stroke:#27AE60;stroke-width:2.0;" x1="608.5" x2="923.5" y1="891.1055" y2="891.1055"/></g><!--class FileOccurrence--><g id="elem_FileOccurrence"><rect codeLine="98" fill="#FEFECE" height="122.4844" id="FileOccurrence" rx="2.5" ry="2.5" style="stroke:#D4AC0D;stroke-width:2.0;" width="129" x="645.5" y="960"/><ellipse cx="660.5" cy="976" fill="#EB937F" rx="11" ry="11" style="stroke:#181818;stroke-width:1.0;"/><path d="M659.3594,976.7969 L659.3594,979.2969 L663.6875,979.2969 L663.6875,978.375 Q663.6875,977.7656 663.9219,977.5 Q664.1719,977.2344 664.5469,977.2344 Q664.9219,977.2344 665.1563,977.5 Q665.3906,977.7656 665.3906,978.375 L665.3906,981 L657.3906,981 Q656.7656,981 656.5,980.7656 Q656.25,980.5313 656.25,980.1406 Q656.25,979.7656 656.5156,979.5313 Q656.7813,979.2969 657.3906,979.2969 L657.6563,979.2969 L657.6563,972.6406 L657.3906,972.6406 Q656.7656,972.6406 656.5,972.4063 Q656.25,972.1719 656.25,971.7813 Q656.25,971.4063 656.5,971.1719 Q656.7656,970.9375 657.3906,970.9375 L665.0156,970.9375 L665.0156,973.5313 Q665.0156,974.1406 664.7813,974.4063 Q664.5625,974.6563 664.1719,974.6563 Q663.7969,974.6563 663.5625,974.4063 Q663.3281,974.1406 663.3281,973.5313 L663.3281,972.6406 L659.3594,972.6406 L659.3594,975.0938 L660.8438,975.0938 Q660.8438,974.4375 660.9688,974.25 Q661.2344,973.8438 661.7031,973.8438 Q662.0781,973.8438 662.3125,974.1094 Q662.5469,974.3594 662.5469,974.9688 L662.5469,976.9375 Q662.5469,977.4844 662.4219,977.6719 Q662.1563,978.0625 661.7031,978.0625 Q661.2344,978.0625 660.9688,977.6563 Q660.8438,977.4688 660.8438,976.7969 L659.3594,976.7969 Z " fill="#000000"/><text fill="#000000" font-family="sans-serif" font-size="14" lengthAdjust="spacing" textLength="97" x="674.5" y="981.7969">FileOccurrence</text><line style="stroke:#D4AC0D;stroke-width:2.0;" x1="646.5" x2="773.5" y1="992" y2="992"/><text fill="#000000" font-family="sans-serif" font-size="14" lengthAdjust="spacing" textLength="40" x="651.5" y="1011.1074">FIRST</text><text fill="#000000" font-family="sans-serif" font-size="14" lengthAdjust="spacing" textLength="35" x="651.5" y="1029.7285">LAST</text><text fill="#000000" font-family="sans-serif" font-size="14" lengthAdjust="spacing" textLength="35" x="651.5" y="1048.3496">NEXT</text><text fill="#000000" font-family="sans-serif" font-size="14" lengthAdjust="spacing" textLength="69" x="651.5" y="1066.9707">PREVIOUS</text><line style="stroke:#D4AC0D;stroke-width:2.0;" x1="646.5" x2="773.5" y1="1074.4844" y2="1074.4844"/></g><!--class FileControlInformation--><g id="elem_FileControlInformation"><rect codeLine="104" fill="#FEFECE" height="122.4844" id="FileControlInformation" rx="2.5" ry="2.5" style="stroke:#D4AC0D;stroke-width:2.0;" width="171" x="809.5" y="960"/><ellipse cx="824.5" cy="976" fill="#EB937F" rx="11" ry="11" style="stroke:#181818;stroke-width:1.0;"/><path d="M823.3594,976.7969 L823.3594,979.2969 L827.6875,979.2969 L827.6875,978.375 Q827.6875,977.7656 827.9219,977.5 Q828.1719,977.2344 828.5469,977.2344 Q828.9219,977.2344 829.1563,977.5 Q829.3906,977.7656 829.3906,978.375 L829.3906,981 L821.3906,981 Q820.7656,981 820.5,980.7656 Q820.25,980.5313 820.25,980.1406 Q820.25,979.7656 820.5156,979.5313 Q820.7813,979.2969 821.3906,979.2969 L821.6563,979.2969 L821.6563,972.6406 L821.3906,972.6406 Q820.7656,972.6406 820.5,972.4063 Q820.25,972.1719 820.25,971.7813 Q820.25,971.4063 820.5,971.1719 Q820.7656,970.9375 821.3906,970.9375 L829.0156,970.9375 L829.0156,973.5313 Q829.0156,974.1406 828.7813,974.4063 Q828.5625,974.6563 828.1719,974.6563 Q827.7969,974.6563 827.5625,974.4063 Q827.3281,974.1406 827.3281,973.5313 L827.3281,972.6406 L823.3594,972.6406 L823.3594,975.0938 L824.8438,975.0938 Q824.8438,974.4375 824.9688,974.25 Q825.2344,973.8438 825.7031,973.8438 Q826.0781,973.8438 826.3125,974.1094 Q826.5469,974.3594 826.5469,974.9688 L826.5469,976.9375 Q826.5469,977.4844 826.4219,977.6719 Q826.1563,978.0625 825.7031,978.0625 Q825.2344,978.0625 824.9688,977.6563 Q824.8438,977.4688 824.8438,976.7969 L823.3594,976.7969 Z " fill="#000000"/><text fill="#000000" font-family="sans-serif" font-size="14" lengthAdjust="spacing" textLength="139" x="838.5" y="981.7969">FileControlInformation</text><line style="stroke:#D4AC0D;stroke-width:2.0;" x1="810.5" x2="979.5" y1="992" y2="992"/><text fill="#000000" font-family="sans-serif" font-size="14" lengthAdjust="spacing" textLength="22" x="815.5" y="1011.1074">FCI</text><text fill="#000000" font-family="sans-serif" font-size="14" lengthAdjust="spacing" textLength="28" x="815.5" y="1029.7285">FCP</text><text fill="#000000" font-family="sans-serif" font-size="14" lengthAdjust="spacing" textLength="30" x="815.5" y="1048.3496">FMD</text><text fill="#000000" font-family="sans-serif" font-size="14" lengthAdjust="spacing" textLength="103" x="815.5" y="1066.9707">NO_RESPONSE</text><line style="stroke:#D4AC0D;stroke-width:2.0;" x1="810.5" x2="979.5" y1="1074.4844" y2="1074.4844"/></g><!--class CardSelectionRequest--><g id="elem_CardSelectionRequest"><rect codeLine="172" fill="#E9F7EF" height="85.2422" id="CardSelectionRequest" rx="2.5" ry="2.5" style="stroke:#27AE60;stroke-width:2.0;" width="300" x="960" y="786"/><ellipse cx="1034.75" cy="802" fill="#ADD1B2" rx="11" ry="11" style="stroke:#181818;stroke-width:1.0;"/><path d="M1037.5156,797.875 Q1037.6719,797.6563 1037.8594,797.5469 Q1038.0469,797.4375 1038.2656,797.4375 Q1038.6406,797.4375 1038.875,797.7031 Q1039.1094,797.9531 1039.1094,798.5625 L1039.1094,800.0156 Q1039.1094,800.625 1038.875,800.8906 Q1038.6406,801.1563 1038.2656,801.1563 Q1037.9219,801.1563 1037.7188,800.9531 Q1037.5156,800.7656 1037.4063,800.25 Q1037.3594,799.8906 1037.1719,799.7031 Q1036.8438,799.3281 1036.2344,799.1094 Q1035.625,798.8906 1035,798.8906 Q1034.2344,798.8906 1033.5938,799.2188 Q1032.9688,799.5469 1032.4688,800.2969 Q1031.9844,801.0469 1031.9844,802.0781 L1031.9844,803.1719 Q1031.9844,804.4063 1032.875,805.2344 Q1033.7656,806.0469 1035.3594,806.0469 Q1036.2969,806.0469 1036.9531,805.7969 Q1037.3438,805.6406 1037.7656,805.2031 Q1038.0313,804.9375 1038.1719,804.8594 Q1038.3281,804.7813 1038.5313,804.7813 Q1038.8594,804.7813 1039.1094,805.0469 Q1039.375,805.2969 1039.375,805.6406 Q1039.375,805.9844 1039.0313,806.3906 Q1038.5313,806.9688 1037.7344,807.2969 Q1036.6563,807.75 1035.3594,807.75 Q1033.8438,807.75 1032.6406,807.125 Q1031.6563,806.625 1030.9688,805.5625 Q1030.2813,804.4844 1030.2813,803.2031 L1030.2813,802.0469 Q1030.2813,800.7188 1030.8906,799.5781 Q1031.5156,798.4219 1032.6094,797.8125 Q1033.7031,797.1875 1034.9375,797.1875 Q1035.6719,797.1875 1036.3125,797.3594 Q1036.9688,797.5156 1037.5156,797.875 Z " fill="#000000"/><text fill="#000000" font-family="sans-serif" font-size="14" lengthAdjust="spacing" textLength="142" x="1055.25" y="807.7969">CardSelectionRequest</text><line style="stroke:#27AE60;stroke-width:2.0;" x1="961" x2="1259" y1="818" y2="818"/><text fill="#000000" font-family="sans-serif" font-size="14" font-weight="bold" lengthAdjust="spacing" textLength="90" x="966" y="837.1074">cardRequest</text><text fill="#000000" font-family="sans-serif" font-size="14" lengthAdjust="spacing" textLength="100" x="1060" y="837.1074">: CardRequest?</text><text fill="#000000" font-family="sans-serif" font-size="14" font-weight="bold" lengthAdjust="spacing" textLength="231" x="966" y="855.7285">successfulSelectionStatusWords</text><text fill="#000000" font-family="sans-serif" font-size="14" lengthAdjust="spacing" textLength="53" x="1201" y="855.7285">: String[]</text><line style="stroke:#27AE60;stroke-width:2.0;" x1="961" x2="1259" y1="863.2422" y2="863.2422"/></g><!--class CardRequest--><g id="elem_CardRequest"><rect codeLine="174" fill="#E9F7EF" height="85.2422" id="CardRequest" rx="2.5" ry="2.5" style="stroke:#27AE60;stroke-width:2.0;" width="303" x="1088.5" y="978.5"/><ellipse cx="1193.75" cy="994.5" fill="#ADD1B2" rx="11" ry="11" style="stroke:#181818;stroke-width:1.0;"/><path d="M1196.5156,990.375 Q1196.6719,990.1563 1196.8594,990.0469 Q1197.0469,989.9375 1197.2656,989.9375 Q1197.6406,989.9375 1197.875,990.2031 Q1198.1094,990.4531 1198.1094,991.0625 L1198.1094,992.5156 Q1198.1094,993.125 1197.875,993.3906 Q1197.6406,993.6563 1197.2656,993.6563 Q1196.9219,993.6563 1196.7188,993.4531 Q1196.5156,993.2656 1196.4063,992.75 Q1196.3594,992.3906 1196.1719,992.2031 Q1195.8438,991.8281 1195.2344,991.6094 Q1194.625,991.3906 1194,991.3906 Q1193.2344,991.3906 1192.5938,991.7188 Q1191.9688,992.0469 1191.4688,992.7969 Q1190.9844,993.5469 1190.9844,994.5781 L1190.9844,995.6719 Q1190.9844,996.9063 1191.875,997.7344 Q1192.7656,998.5469 1194.3594,998.5469 Q1195.2969,998.5469 1195.9531,998.2969 Q1196.3438,998.1406 1196.7656,997.7031 Q1197.0313,997.4375 1197.1719,997.3594 Q1197.3281,997.2813 1197.5313,997.2813 Q1197.8594,997.2813 1198.1094,997.5469 Q1198.375,997.7969 1198.375,998.1406 Q1198.375,998.4844 1198.0313,998.8906 Q1197.5313,999.4688 1196.7344,999.7969 Q1195.6563,1000.25 1194.3594,1000.25 Q1192.8438,1000.25 1191.6406,999.625 Q1190.6563,999.125 1189.9688,998.0625 Q1189.2813,996.9844 1189.2813,995.7031 L1189.2813,994.5469 Q1189.2813,993.2188 1189.8906,992.0781 Q1190.5156,990.9219 1191.6094,990.3125 Q1192.7031,989.6875 1193.9375,989.6875 Q1194.6719,989.6875 1195.3125,989.8594 Q1195.9688,990.0156 1196.5156,990.375 Z " fill="#000000"/><text fill="#000000" font-family="sans-serif" font-size="14" lengthAdjust="spacing" textLength="84" x="1214.25" y="1000.2969">CardRequest</text><line style="stroke:#27AE60;stroke-width:2.0;" x1="1089.5" x2="1390.5" y1="1010.5" y2="1010.5"/><text fill="#000000" font-family="sans-serif" font-size="14" font-weight="bold" lengthAdjust="spacing" textLength="102" x="1094.5" y="1029.6074">apduRequests</text><text fill="#000000" font-family="sans-serif" font-size="14" lengthAdjust="spacing" textLength="102" x="1200.5" y="1029.6074">: ApduRequest[]</text><text fill="#000000" font-family="sans-serif" font-size="14" font-weight="bold" lengthAdjust="spacing" textLength="227" x="1094.5" y="1048.2285">stopOnUnsuccessfulStatusWord</text><text fill="#000000" font-family="sans-serif" font-size="14" lengthAdjust="spacing" textLength="60" x="1325.5" y="1048.2285">: Boolean</text><line style="stroke:#27AE60;stroke-width:2.0;" x1="1089.5" x2="1390.5" y1="1055.7422" y2="1055.7422"/></g><!--class ApduRequest--><g id="elem_ApduRequest"><rect codeLine="175" fill="#E9F7EF" height="103.8633" id="ApduRequest" rx="2.5" ry="2.5" style="stroke:#27AE60;stroke-width:2.0;" width="234" x="1123" y="1143"/><ellipse cx="1192.75" cy="1159" fill="#ADD1B2" rx="11" ry="11" style="stroke:#181818;stroke-width:1.0;"/><path d="M1195.5156,1154.875 Q1195.6719,1154.6563 1195.8594,1154.5469 Q1196.0469,1154.4375 1196.2656,1154.4375 Q1196.6406,1154.4375 1196.875,1154.7031 Q1197.1094,1154.9531 1197.1094,1155.5625 L1197.1094,1157.0156 Q1197.1094,1157.625 1196.875,1157.8906 Q1196.6406,1158.1563 1196.2656,1158.1563 Q1195.9219,1158.1563 1195.7188,1157.9531 Q1195.5156,1157.7656 1195.4063,1157.25 Q1195.3594,1156.8906 1195.1719,1156.7031 Q1194.8438,1156.3281 1194.2344,1156.1094 Q1193.625,1155.8906 1193,1155.8906 Q1192.2344,1155.8906 1191.5938,1156.2188 Q1190.9688,1156.5469 1190.4688,1157.2969 Q1189.9844,1158.0469 1189.9844,1159.0781 L1189.9844,1160.1719 Q1189.9844,1161.4063 1190.875,1162.2344 Q1191.7656,1163.0469 1193.3594,1163.0469 Q1194.2969,1163.0469 1194.9531,1162.7969 Q1195.3438,1162.6406 1195.7656,1162.2031 Q1196.0313,1161.9375 1196.1719,1161.8594 Q1196.3281,1161.7813 1196.5313,1161.7813 Q1196.8594,1161.7813 1197.1094,1162.0469 Q1197.375,1162.2969 1197.375,1162.6406 Q1197.375,1162.9844 1197.0313,1163.3906 Q1196.5313,1163.9688 1195.7344,1164.2969 Q1194.6563,1164.75 1193.3594,1164.75 Q1191.8438,1164.75 1190.6406,1164.125 Q1189.6563,1163.625 1188.9688,1162.5625 Q1188.2813,1161.4844 1188.2813,1160.2031 L1188.2813,1159.0469 Q1188.2813,1157.7188 1188.8906,1156.5781 Q1189.5156,1155.4219 1190.6094,1154.8125 Q1191.7031,1154.1875 1192.9375,1154.1875 Q1193.6719,1154.1875 1194.3125,1154.3594 Q1194.9688,1154.5156 1195.5156,1154.875 Z " fill="#000000"/><text fill="#000000" font-family="sans-serif" font-size="14" lengthAdjust="spacing" textLength="86" x="1213.25" y="1164.7969">ApduRequest</text><line style="stroke:#27AE60;stroke-width:2.0;" x1="1124" x2="1356" y1="1175" y2="1175"/><text fill="#000000" font-family="sans-serif" font-size="14" font-weight="bold" lengthAdjust="spacing" textLength="35" x="1129" y="1194.1074">apdu</text><text fill="#000000" font-family="sans-serif" font-size="14" lengthAdjust="spacing" textLength="45" x="1168" y="1194.1074">: String</text><text fill="#000000" font-family="sans-serif" font-size="14" font-weight="bold" lengthAdjust="spacing" textLength="165" x="1129" y="1212.7285">successfulStatusWords</text><text fill="#000000" font-family="sans-serif" font-size="14" lengthAdjust="spacing" textLength="53" x="1298" y="1212.7285">: String[]</text><text fill="#000000" font-family="sans-serif" font-size="14" font-weight="bold" lengthAdjust="spacing" textLength="27" x="1129" y="1231.3496">info</text><text fill="#000000" font-family="sans-serif" font-size="14" lengthAdjust="spacing" textLength="53" x="1160" y="1231.3496">: String?</text><line style="stroke:#27AE60;stroke-width:2.0;" x1="1124" x2="1356" y1="1238.8633" y2="1238.8633"/></g><!--class ChannelControl--><g id="elem_ChannelControl"><rect codeLine="123" fill="#FEFECE" height="85.2422" id="ChannelControl" rx="2.5" ry="2.5" style="stroke:#D4AC0D;stroke-width:2.0;" width="131" x="1010.5" y="593.5"/><ellipse cx="1025.5" cy="609.5" fill="#EB937F" rx="11" ry="11" style="stroke:#181818;stroke-width:1.0;"/><path d="M1024.3594,610.2969 L1024.3594,612.7969 L1028.6875,612.7969 L1028.6875,611.875 Q1028.6875,611.2656 1028.9219,611 Q1029.1719,610.7344 1029.5469,610.7344 Q1029.9219,610.7344 1030.1563,611 Q1030.3906,611.2656 1030.3906,611.875 L1030.3906,614.5 L1022.3906,614.5 Q1021.7656,614.5 1021.5,614.2656 Q1021.25,614.0313 1021.25,613.6406 Q1021.25,613.2656 1021.5156,613.0313 Q1021.7813,612.7969 1022.3906,612.7969 L1022.6563,612.7969 L1022.6563,606.1406 L1022.3906,606.1406 Q1021.7656,606.1406 1021.5,605.9063 Q1021.25,605.6719 1021.25,605.2813 Q1021.25,604.9063 1021.5,604.6719 Q1021.7656,604.4375 1022.3906,604.4375 L1030.0156,604.4375 L1030.0156,607.0313 Q1030.0156,607.6406 1029.7813,607.9063 Q1029.5625,608.1563 1029.1719,608.1563 Q1028.7969,608.1563 1028.5625,607.9063 Q1028.3281,607.6406 1028.3281,607.0313 L1028.3281,606.1406 L1024.3594,606.1406 L1024.3594,608.5938 L1025.8438,608.5938 Q1025.8438,607.9375 1025.9688,607.75 Q1026.2344,607.3438 1026.7031,607.3438 Q1027.0781,607.3438 1027.3125,607.6094 Q1027.5469,607.8594 1027.5469,608.4688 L1027.5469,610.4375 Q1027.5469,610.9844 1027.4219,611.1719 Q1027.1563,611.5625 1026.7031,611.5625 Q1026.2344,611.5625 1025.9688,611.1563 Q1025.8438,610.9688 1025.8438,610.2969 L1024.3594,610.2969 Z " fill="#000000"/><text fill="#000000" font-family="sans-serif" font-size="14" lengthAdjust="spacing" textLength="99" x="1039.5" y="615.2969">ChannelControl</text><line style="stroke:#D4AC0D;stroke-width:2.0;" x1="1011.5" x2="1140.5" y1="625.5" y2="625.5"/><text fill="#000000" font-family="sans-serif" font-size="14" lengthAdjust="spacing" textLength="82" x="1016.5" y="644.6074">KEEP_OPEN</text><text fill="#000000" font-family="sans-serif" font-size="14" lengthAdjust="spacing" textLength="101" x="1016.5" y="663.2285">CLOSE_AFTER</text><line style="stroke:#D4AC0D;stroke-width:2.0;" x1="1011.5" x2="1140.5" y1="670.7422" y2="670.7422"/></g><!--class TransmitCardRequestCmdBody--><g id="elem_TransmitCardRequestCmdBody"><rect codeLine="178" fill="#E9F7EF" height="85.2422" id="TransmitCardRequestCmdBody" rx="2.5" ry="2.5" style="stroke:#27AE60;stroke-width:2.0;" width="345" x="1121.5" y="429"/><ellipse cx="1189.75" cy="445" fill="#ADD1B2" rx="11" ry="11" style="stroke:#181818;stroke-width:1.0;"/><path d="M1192.5156,440.875 Q1192.6719,440.6563 1192.8594,440.5469 Q1193.0469,440.4375 1193.2656,440.4375 Q1193.6406,440.4375 1193.875,440.7031 Q1194.1094,440.9531 1194.1094,441.5625 L1194.1094,443.0156 Q1194.1094,443.625 1193.875,443.8906 Q1193.6406,444.1563 1193.2656,444.1563 Q1192.9219,444.1563 1192.7188,443.9531 Q1192.5156,443.7656 1192.4063,443.25 Q1192.3594,442.8906 1192.1719,442.7031 Q1191.8438,442.3281 1191.2344,442.1094 Q1190.625,441.8906 1190,441.8906 Q1189.2344,441.8906 1188.5938,442.2188 Q1187.9688,442.5469 1187.4688,443.2969 Q1186.9844,444.0469 1186.9844,445.0781 L1186.9844,446.1719 Q1186.9844,447.4063 1187.875,448.2344 Q1188.7656,449.0469 1190.3594,449.0469 Q1191.2969,449.0469 1191.9531,448.7969 Q1192.3438,448.6406 1192.7656,448.2031 Q1193.0313,447.9375 1193.1719,447.8594 Q1193.3281,447.7813 1193.5313,447.7813 Q1193.8594,447.7813 1194.1094,448.0469 Q1194.375,448.2969 1194.375,448.6406 Q1194.375,448.9844 1194.0313,449.3906 Q1193.5313,449.9688 1192.7344,450.2969 Q1191.6563,450.75 1190.3594,450.75 Q1188.8438,450.75 1187.6406,450.125 Q1186.6563,449.625 1185.9688,448.5625 Q1185.2813,447.4844 1185.2813,446.2031 L1185.2813,445.0469 Q1185.2813,443.7188 1185.8906,442.5781 Q1186.5156,441.4219 1187.6094,440.8125 Q1188.7031,440.1875 1189.9375,440.1875 Q1190.6719,440.1875 1191.3125,440.3594 Q1191.9688,440.5156 1192.5156,440.875 Z " fill="#000000"/><text fill="#000000" font-family="sans-serif" font-size="14" lengthAdjust="spacing" textLength="200" x="1210.25" y="450.7969">TransmitCardRequestCmdBody</text><line style="stroke:#27AE60;stroke-width:2.0;" x1="1122.5" x2="1465.5" y1="461" y2="461"/><text fill="#000000" font-family="sans-serif" font-size="14" font-weight="bold" lengthAdjust="spacing" textLength="53" x="1127.5" y="480.1074">service</text><text fill="#000000" font-family="sans-serif" font-size="14" lengthAdjust="spacing" textLength="66" x="1184.5" y="480.1074">: String = "</text><text fill="#000000" font-family="sans-serif" font-size="14" font-weight="bold" lengthAdjust="spacing" textLength="192" x="1250.5" y="480.1074">TRANSMIT_CARD_REQUEST</text><text fill="#000000" font-family="sans-serif" font-size="14" lengthAdjust="spacing" textLength="5" x="1442.5" y="480.1074">"</text><text fill="#000000" font-family="sans-serif" font-size="14" font-weight="bold" lengthAdjust="spacing" textLength="80" x="1127.5" y="498.7285">parameters</text><text fill="#000000" font-family="sans-serif" font-size="14" lengthAdjust="spacing" textLength="249" x="1211.5" y="498.7285">: TransmitCardRequestCmdParameters</text><line style="stroke:#27AE60;stroke-width:2.0;" x1="1122.5" x2="1465.5" y1="506.2422" y2="506.2422"/></g><!--class TransmitCardRequestCmdParameters--><g id="elem_TransmitCardRequestCmdParameters"><rect codeLine="179" fill="#E9F7EF" height="85.2422" id="TransmitCardRequestCmdParameters" rx="2.5" ry="2.5" style="stroke:#27AE60;stroke-width:2.0;" width="273" x="1176.5" y="593.5"/><ellipse cx="1191.5" cy="609.5" fill="#ADD1B2" rx="11" ry="11" style="stroke:#181818;stroke-width:1.0;"/><path d="M1194.2656,605.375 Q1194.4219,605.1563 1194.6094,605.0469 Q1194.7969,604.9375 1195.0156,604.9375 Q1195.3906,604.9375 1195.625,605.2031 Q1195.8594,605.4531 1195.8594,606.0625 L1195.8594,607.5156 Q1195.8594,608.125 1195.625,608.3906 Q1195.3906,608.6563 1195.0156,608.6563 Q1194.6719,608.6563 1194.4688,608.4531 Q1194.2656,608.2656 1194.1563,607.75 Q1194.1094,607.3906 1193.9219,607.2031 Q1193.5938,606.8281 1192.9844,606.6094 Q1192.375,606.3906 1191.75,606.3906 Q1190.9844,606.3906 1190.3438,606.7188 Q1189.7188,607.0469 1189.2188,607.7969 Q1188.7344,608.5469 1188.7344,609.5781 L1188.7344,610.6719 Q1188.7344,611.9063 1189.625,612.7344 Q1190.5156,613.5469 1192.1094,613.5469 Q1193.0469,613.5469 1193.7031,613.2969 Q1194.0938,613.1406 1194.5156,612.7031 Q1194.7813,612.4375 1194.9219,612.3594 Q1195.0781,612.2813 1195.2813,612.2813 Q1195.6094,612.2813 1195.8594,612.5469 Q1196.125,612.7969 1196.125,613.1406 Q1196.125,613.4844 1195.7813,613.8906 Q1195.2813,614.4688 1194.4844,614.7969 Q1193.4063,615.25 1192.1094,615.25 Q1190.5938,615.25 1189.3906,614.625 Q1188.4063,614.125 1187.7188,613.0625 Q1187.0313,611.9844 1187.0313,610.7031 L1187.0313,609.5469 Q1187.0313,608.2188 1187.6406,607.0781 Q1188.2656,605.9219 1189.3594,605.3125 Q1190.4531,604.6875 1191.6875,604.6875 Q1192.4219,604.6875 1193.0625,604.8594 Q1193.7188,605.0156 1194.2656,605.375 Z " fill="#000000"/><text fill="#000000" font-family="sans-serif" font-size="14" lengthAdjust="spacing" textLength="241" x="1205.5" y="615.2969">TransmitCardRequestCmdParameters</text><line style="stroke:#27AE60;stroke-width:2.0;" x1="1177.5" x2="1448.5" y1="625.5" y2="625.5"/><text fill="#000000" font-family="sans-serif" font-size="14" font-weight="bold" lengthAdjust="spacing" textLength="108" x="1182.5" y="644.6074">channelControl</text><text fill="#000000" font-family="sans-serif" font-size="14" lengthAdjust="spacing" textLength="107" x="1294.5" y="644.6074">: ChannelControl</text><text fill="#000000" font-family="sans-serif" font-size="14" font-weight="bold" lengthAdjust="spacing" textLength="90" x="1182.5" y="663.2285">cardRequest</text><text fill="#000000" font-family="sans-serif" font-size="14" lengthAdjust="spacing" textLength="92" x="1276.5" y="663.2285">: CardRequest</text><line style="stroke:#27AE60;stroke-width:2.0;" x1="1177.5" x2="1448.5" y1="670.7422" y2="670.7422"/></g><!--reverse link CmdBody to IsContactlessCmdBody--><g id="link_CmdBody_IsContactlessCmdBody"><path d="M433.8832,366.0708 C367.3632,389.5488 295.977,414.743 230.13,437.984 " fill="none" id="CmdBody-backto-IsContactlessCmdBody" style="stroke:#181818;stroke-width:2.0;"/><polygon fill="none" points="450.857,360.08,431.8863,360.4129,435.8801,371.7288,450.857,360.08" style="stroke:#181818;stroke-width:2.0;"/></g><!--reverse link CmdBody to IsCardPresentCmdBody--><g id="link_CmdBody_IsCardPresentCmdBody"><path d="M504.6694,382.6472 C488.4054,404.7422 479.376,417.008 464.2,437.624 " fill="none" id="CmdBody-backto-IsCardPresentCmdBody" style="stroke:#181818;stroke-width:2.0;"/><polygon fill="none" points="515.34,368.151,499.8374,379.0903,509.5015,386.204,515.34,368.151" style="stroke:#181818;stroke-width:2.0;"/></g><!--reverse link CmdBody to TransmitCardSelectionRequestsCmdBody--><g id="link_CmdBody_TransmitCardSelectionRequestsCmdBody"><path d="M642.6934,376.4062 C679.7094,395.5102 707.49,409.85 744.483,428.943 " fill="none" id="CmdBody-backto-TransmitCardSelectionRequestsCmdBody" style="stroke:#181818;stroke-width:2.0;"/><polygon fill="none" points="626.698,368.151,639.9416,381.738,645.4451,371.0744,626.698,368.151" style="stroke:#181818;stroke-width:2.0;"/></g><!--reverse link CmdBody to TransmitCardRequestCmdBody--><g id="link_CmdBody_TransmitCardRequestCmdBody"><path d="M658.7894,348.2138 C779.3924,371.4318 971.896,408.491 1121.18,437.231 " fill="none" id="CmdBody-backto-TransmitCardRequestCmdBody" style="stroke:#181818;stroke-width:2.0;"/><polygon fill="none" points="641.114,344.811,657.6552,354.1056,659.9237,342.322,641.114,344.811" style="stroke:#181818;stroke-width:2.0;"/></g><!--reverse link MessageDto to CmdBody--><g id="link_MessageDto_CmdBody"><path codeLine="140" d="M546,216.02 C546,243.68 546,260.343 546,282.766 " fill="none" id="MessageDto-backto-CmdBody" style="stroke:#3498DB;stroke-width:2.0;"/><polygon fill="#3498DB" points="546,204.02,542,210.02,546,216.02,550,210.02,546,204.02" style="stroke:#3498DB;stroke-width:2.0;"/><text fill="#000000" font-family="sans-serif" font-size="13" lengthAdjust="spacing" textLength="61" x="547" y="249.0283">JsonString</text><text fill="#000000" font-family="sans-serif" font-size="13" lengthAdjust="spacing" textLength="7" x="538.4422" y="271.6328">1</text></g><!--reverse link TransmitCardSelectionRequestsCmdBody to TransmitCardSelectionRequestsCmdParameters--><g id="link_TransmitCardSelectionRequestsCmdBody_TransmitCardSelectionRequestsCmdParameters"><path codeLine="142" d="M815.0958,526.1487 C811.6938,544.5797 809.81,554.78 806.092,574.917 " fill="none" id="TransmitCardSelectionRequestsCmdBody-backto-TransmitCardSelectionRequestsCmdParameters" style="stroke:#3498DB;stroke-width:2.0;"/><polygon fill="#3498DB" points="817.274,514.348,812.2514,519.5223,815.0958,526.1487,820.1185,520.9744,817.274,514.348" style="stroke:#3498DB;stroke-width:2.0;"/><text fill="#000000" font-family="sans-serif" font-size="13" lengthAdjust="spacing" textLength="7" x="799.9698" y="563.8886">1</text></g><!--reverse link TransmitCardSelectionRequestsCmdParameters to CardSelector--><g id="link_TransmitCardSelectionRequestsCmdParameters_CardSelector"><path codeLine="144" d="M784.0578,708.8773 C781.1188,728.1813 779.645,737.869 776.609,757.807 " fill="none" id="TransmitCardSelectionRequestsCmdParameters-backto-CardSelector" style="stroke:#3498DB;stroke-width:2.0;"/><polygon fill="#3498DB" points="785.864,697.014,781.0065,702.3436,784.0578,708.8773,788.9153,703.5477,785.864,697.014" style="stroke:#3498DB;stroke-width:2.0;"/><text fill="#000000" font-family="sans-serif" font-size="13" lengthAdjust="spacing" textLength="20" x="756.6718" y="746.6781">1..*</text></g><!--reverse link TransmitCardSelectionRequestsCmdParameters to CardSelectionRequest--><g id="link_TransmitCardSelectionRequestsCmdParameters_CardSelectionRequest"><path codeLine="145" d="M904.5043,703.2239 C952.2933,732.1249 998.145,759.855 1041.17,785.875 " fill="none" id="TransmitCardSelectionRequestsCmdParameters-backto-CardSelectionRequest" style="stroke:#3498DB;stroke-width:2.0;"/><polygon fill="#3498DB" points="894.236,697.014,897.3002,703.5417,904.5043,703.2239,901.4401,696.6962,894.236,697.014" style="stroke:#3498DB;stroke-width:2.0;"/><text fill="#000000" font-family="sans-serif" font-size="13" lengthAdjust="spacing" textLength="20" x="1008.6065" y="774.7592">1..*</text></g><!--link MultiSelectionProcessing to TransmitCardSelectionRequestsCmdParameters--><g id="link_MultiSelectionProcessing_TransmitCardSelectionRequestsCmdParameters"><path codeLine="146" d="M579.756,636 C591.387,636 591.018,636 602.649,636 " fill="none" id="MultiSelectionProcessing-to-TransmitCardSelectionRequestsCmdParameters" style="stroke:#3498DB;stroke-width:2.0;"/><polygon fill="#3498DB" points="614.649,636,608.649,632,602.649,636,608.649,640,614.649,636" style="stroke:#3498DB;stroke-width:2.0;"/><text fill="#000000" font-family="sans-serif" font-size="13" lengthAdjust="spacing" textLength="7" x="587.5858" y="632.3529">1</text></g><!--reverse link TransmitCardSelectionRequestsCmdParameters to ChannelControl--><g id="link_TransmitCardSelectionRequestsCmdParameters_ChannelControl"><path codeLine="147" d="M987.016,636 C998.718,636 998.421,636 1010.12,636 " fill="none" id="TransmitCardSelectionRequestsCmdParameters-backto-ChannelControl" style="stroke:#3498DB;stroke-width:2.0;"/><polygon fill="#3498DB" points="975.016,636,981.016,640,987.016,636,981.016,632,975.016,636" style="stroke:#3498DB;stroke-width:2.0;"/><text fill="#000000" font-family="sans-serif" font-size="13" lengthAdjust="spacing" textLength="7" x="995.5349" y="632.1013">1</text></g><!--reverse link CardSelector to FileOccurrence--><g id="link_CardSelector_FileOccurrence"><path codeLine="149" d="M742.1604,910.5968 C736.3174,930.4718 733.386,940.446 727.721,959.716 " fill="none" id="CardSelector-backto-FileOccurrence" style="stroke:#3498DB;stroke-width:2.0;"/><polygon fill="#3498DB" points="745.545,899.084,740.0151,903.7122,742.1604,910.5968,747.6903,905.9686,745.545,899.084" style="stroke:#3498DB;stroke-width:2.0;"/><text fill="#000000" font-family="sans-serif" font-size="13" lengthAdjust="spacing" textLength="7" x="722.3653" y="948.6644">1</text></g><!--reverse link CardSelector to FileControlInformation--><g id="link_CardSelector_FileControlInformation"><path codeLine="150" d="M819.8486,909.0201 C833.3076,928.8951 841.129,940.446 854.178,959.716 " fill="none" id="CardSelector-backto-FileControlInformation" style="stroke:#3498DB;stroke-width:2.0;"/><polygon fill="#3498DB" points="813.12,899.084,813.1722,906.2949,819.8486,909.0201,819.7963,901.8092,813.12,899.084" style="stroke:#3498DB;stroke-width:2.0;"/><text fill="#000000" font-family="sans-serif" font-size="13" lengthAdjust="spacing" textLength="7" x="842.0533" y="948.6644">1</text></g><!--reverse link CardSelectionRequest to CardRequest--><g id="link_CardSelectionRequest_CardRequest"><path codeLine="152" d="M1145.293,881.2187 C1166.963,912.9807 1189.88,946.553 1211.54,978.291 " fill="none" id="CardSelectionRequest-backto-CardRequest" style="stroke:#3498DB;stroke-width:2.0;stroke-dasharray:7.0,7.0;"/><polygon fill="#3498DB" points="1138.53,871.306,1138.6073,878.5167,1145.293,881.2187,1145.2157,874.008,1138.53,871.306" style="stroke:#3498DB;stroke-width:2.0;"/><text fill="#000000" font-family="sans-serif" font-size="13" lengthAdjust="spacing" textLength="22" x="1183.2511" y="967.1618">0..1</text></g><!--reverse link CardRequest to ApduRequest--><g id="link_CardRequest_ApduRequest"><path codeLine="154" d="M1240,1075.636 C1240,1099.498 1240,1117.633 1240,1142.918 " fill="none" id="CardRequest-backto-ApduRequest" style="stroke:#3498DB;stroke-width:2.0;"/><polygon fill="#3498DB" points="1240,1063.636,1236,1069.636,1240,1075.636,1244,1069.636,1240,1063.636" style="stroke:#3498DB;stroke-width:2.0;"/><text fill="#000000" font-family="sans-serif" font-size="13" lengthAdjust="spacing" textLength="20" x="1218.6563" y="1131.8344">1..*</text></g><!--reverse link TransmitCardRequestCmdBody to TransmitCardRequestCmdParameters--><g id="link_TransmitCardRequestCmdBody_TransmitCardRequestCmdParameters"><path codeLine="156" d="M1300.2851,526.2666 C1303.1251,550.5286 1305.29,569.056 1308.12,593.294 " fill="none" id="TransmitCardRequestCmdBody-backto-TransmitCardRequestCmdParameters" style="stroke:#3498DB;stroke-width:2.0;"/><polygon fill="#3498DB" points="1298.89,514.348,1295.6147,520.7724,1300.2851,526.2666,1303.5604,519.8423,1298.89,514.348" style="stroke:#3498DB;stroke-width:2.0;"/><text fill="#000000" font-family="sans-serif" font-size="13" lengthAdjust="spacing" textLength="7" x="1299.7844" y="582.1653">1</text></g><!--link ChannelControl to TransmitCardRequestCmdParameters--><g id="link_ChannelControl_TransmitCardRequestCmdParameters"><path codeLine="158" d="M1141.73,636 C1153.22,636 1152.7,636 1164.19,636 " fill="none" id="ChannelControl-to-TransmitCardRequestCmdParameters" style="stroke:#3498DB;stroke-width:2.0;"/><polygon fill="#3498DB" points="1176.19,636,1170.19,632,1164.19,636,1170.19,640,1176.19,636" style="stroke:#3498DB;stroke-width:2.0;"/><text fill="#000000" font-family="sans-serif" font-size="13" lengthAdjust="spacing" textLength="7" x="1149.302" y="632.1013">1</text></g><!--reverse link TransmitCardRequestCmdParameters to CardRequest--><g id="link_TransmitCardRequestCmdParameters_CardRequest"><path codeLine="159" d="M1308.2045,690.6002 C1303.1745,742.5932 1293.93,822.099 1277,899 C1271.1,925.817 1262.14,955.294 1254.51,978.44 " fill="none" id="TransmitCardRequestCmdParameters-backto-CardRequest" style="stroke:#3498DB;stroke-width:2.0;"/><polygon fill="#3498DB" points="1309.36,678.656,1304.8008,684.2429,1308.2045,690.6002,1312.7636,685.0133,1309.36,678.656" style="stroke:#3498DB;stroke-width:2.0;"/><text fill="#000000" font-family="sans-serif" font-size="13" lengthAdjust="spacing" textLength="7" x="1249.2647" y="967.3345">1</text></g><!--SRC=[jLTTRzis57tNh-3SXsu6uZI9KoT1sq6cgDQh8tkMiYqO1aEHQ5k8B7earJGO-jzt9LEVbkmatVnYwVBmdCl3oolfDNh_7ZcVo3M12qrxZLaSqfWB50WHKu5yYgxGIigDk3e-NibrwB6GSO_vLFGyjZvUy6FfteNKZOzyUkHjPpU4u584o-Xe4xhoMFl1fuiWeWZFFyx8xGaoBynByx8MFaNcgNbczclXCqJEoO3KqNra38oXOTJ2vmZhs3HEQ-6tQ6ZWCpmeXSSZwpCwwrzU6CDIzCOcw7IWaxTlm1nqT8Hi-HY2BtBbIkIpwBL43upVeuT0hb147z0NoaN08iGM2DOQoNWTmZHDt0VHnkNk6Wb9EMNoSKFr8UC-vJXn5BtIBmric8t0KGKuxEi3Sju8n5L6mpWPdZO2IGL8XfTd89skZrX6aczf5WvT8RPuPnLuzn4L0fLfTSxPGta8c6vf6BA77HRNkrzo5aU-KZQ9IJ1f5bCGew_ZDmPGpgX_WE_TEqxz3n-0rY06mNjeSoGPzA4Ej5K0XPu52vj0THhpJKWF2czIMAhT9zWSxDKkm1UatzUDJ3wFLpAu2-F3-WaeNS_GF3U7UzKpgAfrfQsY5UMFdDBeeFGoGQNQb-Q0c7krSwmwKqey2zVL7vyY_fXgwr17v91s2Zt5P-IyBFrOLGPfw8buOZd4ShPT4U5hG_CIHdGD9UukgI4P-aT3yEjstKqmfbzesEr2hxJYzHtbw3qSW-seW0dG44P-EcnB7aJBRA8dOQGKXscTRXV4kjsEmdXXG2DfGSDjOX2KGyDf6msPvuOpwe87bhkckm1ErqpIVOWxvZ-cKRpsXt2jVTFSEo4vf8wsXgY1t0sFSQeVS8H_2RoAsBV4v94zJrpNiJCcjer-11z-0ly_86ioLUwF16QH177emI9JfbybZVpTJ7PrjlvMTHAhStbzPiodCs8dEz-Yxt9_ogc0JVaU_P9Gde0pqotxUkHiHsqo9jWPJQpvZFnwGsn7EQ8oSRWRYNKWatni6jAqb6RqRtXeonSxSoY3eYpJGqRXq8YKv50sqnmEIttQ0eefUThhE9H1ZfrovYLdArgcALot36PbkNAZY8P9-N2sBKnS2MMuF1screPBaJ__se6Ligx1Yn6OzasZKRnkpLAjqHpDR6T-hJluKte_dKqmrEXS7uzpuyhvvDQ4R1d0OGT2oU0LhNQOVyvsZJrGFeaCLxepkgHV6o1ku3T45q589vuNSquZLJTc9LJ2AJz7qOBnjPjtEBDnAFEbobPs8xqQw-h28dyuoXdossXoOvS9Tkap8ZnI_zFjFxJpb6q2fMrF9vPD6kmjzgzeRZ2eOlbcg_lCAX5xoPukuZ1diQKhO_4xF8n4oTkqA0hDkfIxyUDAOUb582z38Tbc4jr49T5SAvqqP0pUnADSgKHIKMfuj3HGrjBV0WEmkr8oQaUgnqkfVIPaEfzCYPNUuV749dFTTCYigGMgjjFQzzH2_fjkfyIUrE8AuGEDhGbO5DCpMb9BqMrTquLWNf0MlD2qqXjA5rxeEoUTt95NwZFd2lqYah9CjrjxqgCaetf6srPgXmLASxOolLwtK-rp6TVtKfNEz8ieGxgGMoDQE_cBU7cmN2dYshd9NQpuaMr7hMzcu5PiGuji42YvrEtrKETDhtVIgNIfogGSMpXUxZEDTL0xkqtbrNXu3f2rR5QBfq_WKFERbfv-9uprsybDzfa0zxPpEoRxlXhohvss5-a2yB-y4nRqptuFgqzjB9Xs49HYqs3Rn789xV7acG-9VSjlB86Az8k_4NPONlAXKv3y2m00]--></g></svg>