<?xml version="1.0" encoding="us-ascii" standalone="no"?><svg xmlns="http://www.w3.org/2000/svg" xmlns:xlink="http://www.w3.org/1999/xlink" contentStyleType="text/css" height="869px" preserveAspectRatio="none" style="width:1413px;height:869px;background:#FFFFFF;" version="1.1" viewBox="0 0 1413 869" width="1413px" zoomAndPan="magnify"><defs/><g><!--class MessageDto--><g id="elem_MessageDto"><rect codeLine="132" fill="#EBF5FB" height="196.9688" id="MessageDto" rx="2.5" ry="2.5" style="stroke:#3498DB;stroke-width:2.0;" width="201" x="445.5" y="7"/><ellipse cx="502.25" cy="23" fill="#ADD1B2" rx="11" ry="11" style="stroke:#181818;stroke-width:1.0;"/><path d="M505.0156,18.875 Q505.1719,18.6563 505.3594,18.5469 Q505.5469,18.4375 505.7656,18.4375 Q506.1406,18.4375 506.375,18.7031 Q506.6094,18.9531 506.6094,19.5625 L506.6094,21.0156 Q506.6094,21.625 506.375,21.8906 Q506.1406,22.1563 505.7656,22.1563 Q505.4219,22.1563 505.2188,21.9531 Q505.0156,21.7656 504.9063,21.25 Q504.8594,20.8906 504.6719,20.7031 Q504.3438,20.3281 503.7344,20.1094 Q503.125,19.8906 502.5,19.8906 Q501.7344,19.8906 501.0938,20.2188 Q500.4688,20.5469 499.9688,21.2969 Q499.4844,22.0469 499.4844,23.0781 L499.4844,24.1719 Q499.4844,25.4063 500.375,26.2344 Q501.2656,27.0469 502.8594,27.0469 Q503.7969,27.0469 504.4531,26.7969 Q504.8438,26.6406 505.2656,26.2031 Q505.5313,25.9375 505.6719,25.8594 Q505.8281,25.7813 506.0313,25.7813 Q506.3594,25.7813 506.6094,26.0469 Q506.875,26.2969 506.875,26.6406 Q506.875,26.9844 506.5313,27.3906 Q506.0313,27.9688 505.2344,28.2969 Q504.1563,28.75 502.8594,28.75 Q501.3438,28.75 500.1406,28.125 Q499.1563,27.625 498.4688,26.5625 Q497.7813,25.4844 497.7813,24.2031 L497.7813,23.0469 Q497.7813,21.7188 498.3906,20.5781 Q499.0156,19.4219 500.1094,18.8125 Q501.2031,18.1875 502.4375,18.1875 Q503.1719,18.1875 503.8125,18.3594 Q504.4688,18.5156 505.0156,18.875 Z " fill="#000000"/><text fill="#000000" font-family="sans-serif" font-size="14" lengthAdjust="spacing" textLength="79" x="522.75" y="28.7969">MessageDto</text><line style="stroke:#3498DB;stroke-width:2.0;" x1="446.5" x2="645.5" y1="39" y2="39"/><text fill="#000000" font-family="sans-serif" font-size="14" font-weight="bold" lengthAdjust="spacing" textLength="60" x="451.5" y="58.1074">apiLevel</text><text fill="#000000" font-family="sans-serif" font-size="14" lengthAdjust="spacing" textLength="81" x="515.5" y="58.1074">: Number = 2</text><text fill="#000000" font-family="sans-serif" font-size="14" font-weight="bold" lengthAdjust="spacing" textLength="68" x="451.5" y="76.7285">sessionId</text><text fill="#000000" font-family="sans-serif" font-size="14" lengthAdjust="spacing" textLength="45" x="523.5" y="76.7285">: String</text><text fill="#000000" font-family="sans-serif" font-size="14" font-weight="bold" lengthAdjust="spacing" textLength="43" x="451.5" y="95.3496">action</text><text fill="#000000" font-family="sans-serif" font-size="14" lengthAdjust="spacing" textLength="66" x="498.5" y="95.3496">: String = "</text><text fill="#000000" font-family="sans-serif" font-size="14" font-weight="bold" lengthAdjust="spacing" textLength="37" x="564.5" y="95.3496">RESP</text><text fill="#000000" font-family="sans-serif" font-size="14" lengthAdjust="spacing" textLength="5" x="601.5" y="95.3496">"</text><text fill="#000000" font-family="sans-serif" font-size="14" font-weight="bold" lengthAdjust="spacing" textLength="89" x="451.5" y="113.9707">clientNodeId</text><text fill="#000000" font-family="sans-serif" font-size="14" lengthAdjust="spacing" textLength="45" x="544.5" y="113.9707">: String</text><text fill="#000000" font-family="sans-serif" font-size="14" font-weight="bold" lengthAdjust="spacing" textLength="97" x="451.5" y="132.5918">serverNodeId</text><text fill="#000000" font-family="sans-serif" font-size="14" lengthAdjust="spacing" textLength="45" x="552.5" y="132.5918">: String</text><text fill="#000000" font-family="sans-serif" font-size="14" font-weight="bold" lengthAdjust="spacing" textLength="123" x="451.5" y="151.2129">localReaderName</text><text fill="#000000" font-family="sans-serif" font-size="14" lengthAdjust="spacing" textLength="45" x="578.5" y="151.2129">: String</text><text fill="#000000" font-family="sans-serif" font-size="14" font-weight="bold" lengthAdjust="spacing" textLength="140" x="451.5" y="169.834">remoteReaderName</text><text fill="#000000" font-family="sans-serif" font-size="14" lengthAdjust="spacing" textLength="45" x="595.5" y="169.834">: String</text><text fill="#000000" font-family="sans-serif" font-size="14" font-weight="bold" lengthAdjust="spacing" textLength="34" x="451.5" y="188.4551">body</text><text fill="#000000" font-family="sans-serif" font-size="14" lengthAdjust="spacing" textLength="73" x="489.5" y="188.4551">: RespBody</text><line style="stroke:#3498DB;stroke-width:2.0;" x1="446.5" x2="645.5" y1="195.9688" y2="195.9688"/></g><!--class RespBody--><g id="elem_RespBody"><rect codeLine="133" fill="#EBF5FB" height="103.8633" id="RespBody" rx="2.5" ry="2.5" style="stroke:#3498DB;stroke-width:2.0;" width="190" x="451" y="283"/><ellipse cx="509.25" cy="299" fill="#A9DCDF" rx="11" ry="11" style="stroke:#181818;stroke-width:1.0;"/><path d="M511.4375,300.7656 L507.2969,300.7656 L506.875,301.7969 L507.2969,301.7969 Q507.9063,301.7969 508.1719,302.0313 Q508.4375,302.2656 508.4375,302.6563 Q508.4375,303.0313 508.1719,303.2656 Q507.9063,303.5 507.2969,303.5 L505,303.5 Q504.3906,303.5 504.1406,303.2656 Q503.875,303.0313 503.875,302.6406 Q503.875,302.2656 504.1563,302.0313 Q504.4219,301.7813 505.0469,301.7969 L507.7188,295.1406 L506.6094,295.1406 Q506,295.1406 505.7344,294.9063 Q505.4688,294.6719 505.4688,294.2813 Q505.4688,293.9063 505.7344,293.6719 Q506,293.4375 506.6094,293.4375 L510.2813,293.4375 L513.6719,301.7969 Q514.2656,301.7969 514.4531,301.9375 Q514.8438,302.2031 514.8438,302.6563 Q514.8438,303.0313 514.5781,303.2656 Q514.3281,303.5 513.7188,303.5 L511.4219,303.5 Q510.8125,303.5 510.5469,303.2656 Q510.2813,303.0313 510.2813,302.6406 Q510.2813,302.2656 510.5469,302.0313 Q510.8125,301.7969 511.4219,301.7969 L511.8438,301.7969 L511.4375,300.7656 Z M510.7188,299.0625 L509.3594,295.6875 L507.9844,299.0625 L510.7188,299.0625 Z " fill="#000000"/><text fill="#000000" font-family="sans-serif" font-size="14" font-style="italic" lengthAdjust="spacing" textLength="65" x="529.75" y="304.7969">RespBody</text><line style="stroke:#3498DB;stroke-width:2.0;" x1="452" x2="640" y1="315" y2="315"/><text fill="#000000" font-family="sans-serif" font-size="14" font-weight="bold" lengthAdjust="spacing" textLength="93" x="457" y="334.1074">coreApiLevel</text><text fill="#000000" font-family="sans-serif" font-size="14" lengthAdjust="spacing" textLength="81" x="554" y="334.1074">: Number = 2</text><text fill="#000000" font-family="sans-serif" font-size="14" font-weight="bold" lengthAdjust="spacing" textLength="53" x="457" y="352.7285">service</text><text fill="#000000" font-family="sans-serif" font-size="14" lengthAdjust="spacing" textLength="45" x="514" y="352.7285">: String</text><text fill="#000000" font-family="sans-serif" font-size="14" font-weight="bold" lengthAdjust="spacing" textLength="36" x="457" y="371.3496">error</text><text fill="#000000" font-family="sans-serif" font-size="14" lengthAdjust="spacing" textLength="48" x="497" y="371.3496">: Error?</text><line style="stroke:#3498DB;stroke-width:2.0;" x1="452" x2="640" y1="378.8633" y2="378.8633"/></g><!--class Error--><g id="elem_Error"><rect codeLine="135" fill="#EBF5FB" height="85.2422" id="Error" rx="2.5" ry="2.5" style="stroke:#3498DB;stroke-width:2.0;" width="124" x="676" y="292.5"/><ellipse cx="718" cy="308.5" fill="#ADD1B2" rx="11" ry="11" style="stroke:#181818;stroke-width:1.0;"/><path d="M720.7656,304.375 Q720.9219,304.1563 721.1094,304.0469 Q721.2969,303.9375 721.5156,303.9375 Q721.8906,303.9375 722.125,304.2031 Q722.3594,304.4531 722.3594,305.0625 L722.3594,306.5156 Q722.3594,307.125 722.125,307.3906 Q721.8906,307.6563 721.5156,307.6563 Q721.1719,307.6563 720.9688,307.4531 Q720.7656,307.2656 720.6563,306.75 Q720.6094,306.3906 720.4219,306.2031 Q720.0938,305.8281 719.4844,305.6094 Q718.875,305.3906 718.25,305.3906 Q717.4844,305.3906 716.8438,305.7188 Q716.2188,306.0469 715.7188,306.7969 Q715.2344,307.5469 715.2344,308.5781 L715.2344,309.6719 Q715.2344,310.9063 716.125,311.7344 Q717.0156,312.5469 718.6094,312.5469 Q719.5469,312.5469 720.2031,312.2969 Q720.5938,312.1406 721.0156,311.7031 Q721.2813,311.4375 721.4219,311.3594 Q721.5781,311.2813 721.7813,311.2813 Q722.1094,311.2813 722.3594,311.5469 Q722.625,311.7969 722.625,312.1406 Q722.625,312.4844 722.2813,312.8906 Q721.7813,313.4688 720.9844,313.7969 Q719.9063,314.25 718.6094,314.25 Q717.0938,314.25 715.8906,313.625 Q714.9063,313.125 714.2188,312.0625 Q713.5313,310.9844 713.5313,309.7031 L713.5313,308.5469 Q713.5313,307.2188 714.1406,306.0781 Q714.7656,304.9219 715.8594,304.3125 Q716.9531,303.6875 718.1875,303.6875 Q718.9219,303.6875 719.5625,303.8594 Q720.2188,304.0156 720.7656,304.375 Z " fill="#000000"/><text fill="#000000" font-family="sans-serif" font-size="14" lengthAdjust="spacing" textLength="32" x="738" y="314.2969">Error</text><line style="stroke:#3498DB;stroke-width:2.0;" x1="677" x2="799" y1="324.5" y2="324.5"/><text fill="#000000" font-family="sans-serif" font-size="14" font-weight="bold" lengthAdjust="spacing" textLength="35" x="682" y="343.6074">code</text><text fill="#000000" font-family="sans-serif" font-size="14" lengthAdjust="spacing" textLength="45" x="721" y="343.6074">: String</text><text fill="#000000" font-family="sans-serif" font-size="14" font-weight="bold" lengthAdjust="spacing" textLength="63" x="682" y="362.2285">message</text><text fill="#000000" font-family="sans-serif" font-size="14" lengthAdjust="spacing" textLength="45" x="749" y="362.2285">: String</text><line style="stroke:#3498DB;stroke-width:2.0;" x1="677" x2="799" y1="369.7422" y2="369.7422"/></g><!--class IsContactlessRespBody--><g id="elem_IsContactlessRespBody"><rect codeLine="148" fill="#EBF5FB" height="85.2422" id="IsContactlessRespBody" rx="2.5" ry="2.5" style="stroke:#3498DB;stroke-width:2.0;" width="262" x="7" y="448"/><ellipse cx="59.25" cy="464" fill="#ADD1B2" rx="11" ry="11" style="stroke:#181818;stroke-width:1.0;"/><path d="M62.0156,459.875 Q62.1719,459.6563 62.3594,459.5469 Q62.5469,459.4375 62.7656,459.4375 Q63.1406,459.4375 63.375,459.7031 Q63.6094,459.9531 63.6094,460.5625 L63.6094,462.0156 Q63.6094,462.625 63.375,462.8906 Q63.1406,463.1563 62.7656,463.1563 Q62.4219,463.1563 62.2188,462.9531 Q62.0156,462.7656 61.9063,462.25 Q61.8594,461.8906 61.6719,461.7031 Q61.3438,461.3281 60.7344,461.1094 Q60.125,460.8906 59.5,460.8906 Q58.7344,460.8906 58.0938,461.2188 Q57.4688,461.5469 56.9688,462.2969 Q56.4844,463.0469 56.4844,464.0781 L56.4844,465.1719 Q56.4844,466.4063 57.375,467.2344 Q58.2656,468.0469 59.8594,468.0469 Q60.7969,468.0469 61.4531,467.7969 Q61.8438,467.6406 62.2656,467.2031 Q62.5313,466.9375 62.6719,466.8594 Q62.8281,466.7813 63.0313,466.7813 Q63.3594,466.7813 63.6094,467.0469 Q63.875,467.2969 63.875,467.6406 Q63.875,467.9844 63.5313,468.3906 Q63.0313,468.9688 62.2344,469.2969 Q61.1563,469.75 59.8594,469.75 Q58.3438,469.75 57.1406,469.125 Q56.1563,468.625 55.4688,467.5625 Q54.7813,466.4844 54.7813,465.2031 L54.7813,464.0469 Q54.7813,462.7188 55.3906,461.5781 Q56.0156,460.4219 57.1094,459.8125 Q58.2031,459.1875 59.4375,459.1875 Q60.1719,459.1875 60.8125,459.3594 Q61.4688,459.5156 62.0156,459.875 Z " fill="#000000"/><text fill="#000000" font-family="sans-serif" font-size="14" lengthAdjust="spacing" textLength="149" x="79.75" y="469.7969">IsContactlessRespBody</text><line style="stroke:#3498DB;stroke-width:2.0;" x1="8" x2="268" y1="480" y2="480"/><text fill="#000000" font-family="sans-serif" font-size="14" font-weight="bold" lengthAdjust="spacing" textLength="53" x="13" y="499.1074">service</text><text fill="#000000" font-family="sans-serif" font-size="14" lengthAdjust="spacing" textLength="66" x="70" y="499.1074">: String = "</text><text fill="#000000" font-family="sans-serif" font-size="14" font-weight="bold" lengthAdjust="spacing" textLength="122" x="136" y="499.1074">IS_CONTACTLESS</text><text fill="#000000" font-family="sans-serif" font-size="14" lengthAdjust="spacing" textLength="5" x="258" y="499.1074">"</text><text fill="#000000" font-family="sans-serif" font-size="14" font-weight="bold" lengthAdjust="spacing" textLength="41" x="13" y="517.7285">result</text><text fill="#000000" font-family="sans-serif" font-size="14" lengthAdjust="spacing" textLength="68" x="58" y="517.7285">: Boolean?</text><line style="stroke:#3498DB;stroke-width:2.0;" x1="8" x2="268" y1="525.2422" y2="525.2422"/></g><!--class IsCardPresentRespBody--><g id="elem_IsCardPresentRespBody"><rect codeLine="145" fill="#EBF5FB" height="85.2422" id="IsCardPresentRespBody" rx="2.5" ry="2.5" style="stroke:#3498DB;stroke-width:2.0;" width="272" x="304" y="448"/><ellipse cx="358.25" cy="464" fill="#ADD1B2" rx="11" ry="11" style="stroke:#181818;stroke-width:1.0;"/><path d="M361.0156,459.875 Q361.1719,459.6563 361.3594,459.5469 Q361.5469,459.4375 361.7656,459.4375 Q362.1406,459.4375 362.375,459.7031 Q362.6094,459.9531 362.6094,460.5625 L362.6094,462.0156 Q362.6094,462.625 362.375,462.8906 Q362.1406,463.1563 361.7656,463.1563 Q361.4219,463.1563 361.2188,462.9531 Q361.0156,462.7656 360.9063,462.25 Q360.8594,461.8906 360.6719,461.7031 Q360.3438,461.3281 359.7344,461.1094 Q359.125,460.8906 358.5,460.8906 Q357.7344,460.8906 357.0938,461.2188 Q356.4688,461.5469 355.9688,462.2969 Q355.4844,463.0469 355.4844,464.0781 L355.4844,465.1719 Q355.4844,466.4063 356.375,467.2344 Q357.2656,468.0469 358.8594,468.0469 Q359.7969,468.0469 360.4531,467.7969 Q360.8438,467.6406 361.2656,467.2031 Q361.5313,466.9375 361.6719,466.8594 Q361.8281,466.7813 362.0313,466.7813 Q362.3594,466.7813 362.6094,467.0469 Q362.875,467.2969 362.875,467.6406 Q362.875,467.9844 362.5313,468.3906 Q362.0313,468.9688 361.2344,469.2969 Q360.1563,469.75 358.8594,469.75 Q357.3438,469.75 356.1406,469.125 Q355.1563,468.625 354.4688,467.5625 Q353.7813,466.4844 353.7813,465.2031 L353.7813,464.0469 Q353.7813,462.7188 354.3906,461.5781 Q355.0156,460.4219 356.1094,459.8125 Q357.2031,459.1875 358.4375,459.1875 Q359.1719,459.1875 359.8125,459.3594 Q360.4688,459.5156 361.0156,459.875 Z " fill="#000000"/><text fill="#000000" font-family="sans-serif" font-size="14" lengthAdjust="spacing" textLength="155" x="378.75" y="469.7969">IsCardPresentRespBody</text><line style="stroke:#3498DB;stroke-width:2.0;" x1="305" x2="575" y1="480" y2="480"/><text fill="#000000" font-family="sans-serif" font-size="14" font-weight="bold" lengthAdjust="spacing" textLength="53" x="310" y="499.1074">service</text><text fill="#000000" font-family="sans-serif" font-size="14" lengthAdjust="spacing" textLength="66" x="367" y="499.1074">: String = "</text><text fill="#000000" font-family="sans-serif" font-size="14" font-weight="bold" lengthAdjust="spacing" textLength="132" x="433" y="499.1074">IS_CARD_PRESENT</text><text fill="#000000" font-family="sans-serif" font-size="14" lengthAdjust="spacing" textLength="5" x="565" y="499.1074">"</text><text fill="#000000" font-family="sans-serif" font-size="14" font-weight="bold" lengthAdjust="spacing" textLength="41" x="310" y="517.7285">result</text><text fill="#000000" font-family="sans-serif" font-size="14" lengthAdjust="spacing" textLength="68" x="355" y="517.7285">: Boolean?</text><line style="stroke:#3498DB;stroke-width:2.0;" x1="305" x2="575" y1="525.2422" y2="525.2422"/></g><!--class TransmitCardSelectionRequestsRespBody--><g id="elem_TransmitCardSelectionRequestsRespBody"><rect codeLine="139" fill="#EBF5FB" height="85.2422" id="TransmitCardSelectionRequestsRespBody" rx="2.5" ry="2.5" style="stroke:#3498DB;stroke-width:2.0;" width="427" x="611.5" y="448"/><ellipse cx="686.25" cy="464" fill="#ADD1B2" rx="11" ry="11" style="stroke:#181818;stroke-width:1.0;"/><path d="M689.0156,459.875 Q689.1719,459.6563 689.3594,459.5469 Q689.5469,459.4375 689.7656,459.4375 Q690.1406,459.4375 690.375,459.7031 Q690.6094,459.9531 690.6094,460.5625 L690.6094,462.0156 Q690.6094,462.625 690.375,462.8906 Q690.1406,463.1563 689.7656,463.1563 Q689.4219,463.1563 689.2188,462.9531 Q689.0156,462.7656 688.9063,462.25 Q688.8594,461.8906 688.6719,461.7031 Q688.3438,461.3281 687.7344,461.1094 Q687.125,460.8906 686.5,460.8906 Q685.7344,460.8906 685.0938,461.2188 Q684.4688,461.5469 683.9688,462.2969 Q683.4844,463.0469 683.4844,464.0781 L683.4844,465.1719 Q683.4844,466.4063 684.375,467.2344 Q685.2656,468.0469 686.8594,468.0469 Q687.7969,468.0469 688.4531,467.7969 Q688.8438,467.6406 689.2656,467.2031 Q689.5313,466.9375 689.6719,466.8594 Q689.8281,466.7813 690.0313,466.7813 Q690.3594,466.7813 690.6094,467.0469 Q690.875,467.2969 690.875,467.6406 Q690.875,467.9844 690.5313,468.3906 Q690.0313,468.9688 689.2344,469.2969 Q688.1563,469.75 686.8594,469.75 Q685.3438,469.75 684.1406,469.125 Q683.1563,468.625 682.4688,467.5625 Q681.7813,466.4844 681.7813,465.2031 L681.7813,464.0469 Q681.7813,462.7188 682.3906,461.5781 Q683.0156,460.4219 684.1094,459.8125 Q685.2031,459.1875 686.4375,459.1875 Q687.1719,459.1875 687.8125,459.3594 Q688.4688,459.5156 689.0156,459.875 Z " fill="#000000"/><text fill="#000000" font-family="sans-serif" font-size="14" lengthAdjust="spacing" textLength="269" x="706.75" y="469.7969">TransmitCardSelectionRequestsRespBody</text><line style="stroke:#3498DB;stroke-width:2.0;" x1="612.5" x2="1037.5" y1="480" y2="480"/><text fill="#000000" font-family="sans-serif" font-size="14" font-weight="bold" lengthAdjust="spacing" textLength="53" x="617.5" y="499.1074">service</text><text fill="#000000" font-family="sans-serif" font-size="14" lengthAdjust="spacing" textLength="66" x="674.5" y="499.1074">: String = "</text><text fill="#000000" font-family="sans-serif" font-size="14" font-weight="bold" lengthAdjust="spacing" textLength="287" x="740.5" y="499.1074">TRANSMIT_CARD_SELECTION_REQUESTS</text><text fill="#000000" font-family="sans-serif" font-size="14" lengthAdjust="spacing" textLength="5" x="1027.5" y="499.1074">"</text><text fill="#000000" font-family="sans-serif" font-size="14" font-weight="bold" lengthAdjust="spacing" textLength="41" x="617.5" y="517.7285">result</text><text fill="#000000" font-family="sans-serif" font-size="14" lengthAdjust="spacing" textLength="177" x="662.5" y="517.7285">: CardSelectionResponse[]?</text><line style="stroke:#3498DB;stroke-width:2.0;" x1="612.5" x2="1037.5" y1="525.2422" y2="525.2422"/></g><!--class CardSelectionResponse--><g id="elem_CardSelectionResponse"><rect codeLine="140" fill="#EBF5FB" height="122.4844" id="CardSelectionResponse" rx="2.5" ry="2.5" style="stroke:#3498DB;stroke-width:2.0;" width="321" x="725.5" y="594"/><ellipse cx="805.25" cy="610" fill="#ADD1B2" rx="11" ry="11" style="stroke:#181818;stroke-width:1.0;"/><path d="M808.0156,605.875 Q808.1719,605.6563 808.3594,605.5469 Q808.5469,605.4375 808.7656,605.4375 Q809.1406,605.4375 809.375,605.7031 Q809.6094,605.9531 809.6094,606.5625 L809.6094,608.0156 Q809.6094,608.625 809.375,608.8906 Q809.1406,609.1563 808.7656,609.1563 Q808.4219,609.1563 808.2188,608.9531 Q808.0156,608.7656 807.9063,608.25 Q807.8594,607.8906 807.6719,607.7031 Q807.3438,607.3281 806.7344,607.1094 Q806.125,606.8906 805.5,606.8906 Q804.7344,606.8906 804.0938,607.2188 Q803.4688,607.5469 802.9688,608.2969 Q802.4844,609.0469 802.4844,610.0781 L802.4844,611.1719 Q802.4844,612.4063 803.375,613.2344 Q804.2656,614.0469 805.8594,614.0469 Q806.7969,614.0469 807.4531,613.7969 Q807.8438,613.6406 808.2656,613.2031 Q808.5313,612.9375 808.6719,612.8594 Q808.8281,612.7813 809.0313,612.7813 Q809.3594,612.7813 809.6094,613.0469 Q809.875,613.2969 809.875,613.6406 Q809.875,613.9844 809.5313,614.3906 Q809.0313,614.9688 808.2344,615.2969 Q807.1563,615.75 805.8594,615.75 Q804.3438,615.75 803.1406,615.125 Q802.1563,614.625 801.4688,613.5625 Q800.7813,612.4844 800.7813,611.2031 L800.7813,610.0469 Q800.7813,608.7188 801.3906,607.5781 Q802.0156,606.4219 803.1094,605.8125 Q804.2031,605.1875 805.4375,605.1875 Q806.1719,605.1875 806.8125,605.3594 Q807.4688,605.5156 808.0156,605.875 Z " fill="#000000"/><text fill="#000000" font-family="sans-serif" font-size="14" lengthAdjust="spacing" textLength="153" x="825.75" y="615.7969">CardSelectionResponse</text><line style="stroke:#3498DB;stroke-width:2.0;" x1="726.5" x2="1045.5" y1="626" y2="626"/><text fill="#000000" font-family="sans-serif" font-size="14" font-weight="bold" lengthAdjust="spacing" textLength="86" x="731.5" y="645.1074">hasMatched</text><text fill="#000000" font-family="sans-serif" font-size="14" lengthAdjust="spacing" textLength="60" x="821.5" y="645.1074">: Boolean</text><text fill="#000000" font-family="sans-serif" font-size="14" font-weight="bold" lengthAdjust="spacing" textLength="95" x="731.5" y="663.7285">powerOnData</text><text fill="#000000" font-family="sans-serif" font-size="14" lengthAdjust="spacing" textLength="53" x="830.5" y="663.7285">: String?</text><text fill="#000000" font-family="sans-serif" font-size="14" font-weight="bold" lengthAdjust="spacing" textLength="192" x="731.5" y="682.3496">selectApplicationResponse</text><text fill="#000000" font-family="sans-serif" font-size="14" lengthAdjust="spacing" textLength="113" x="927.5" y="682.3496">: ApduResponse?</text><text fill="#000000" font-family="sans-serif" font-size="14" font-weight="bold" lengthAdjust="spacing" textLength="102" x="731.5" y="700.9707">cardResponse</text><text fill="#000000" font-family="sans-serif" font-size="14" lengthAdjust="spacing" textLength="111" x="837.5" y="700.9707">: CardResponse?</text><line style="stroke:#3498DB;stroke-width:2.0;" x1="726.5" x2="1045.5" y1="708.4844" y2="708.4844"/></g><!--class CardResponse--><g id="elem_CardResponse"><rect codeLine="141" fill="#EBF5FB" height="85.2422" id="CardResponse" rx="2.5" ry="2.5" style="stroke:#3498DB;stroke-width:2.0;" width="243" x="1081.5" y="612.5"/><ellipse cx="1151.25" cy="628.5" fill="#ADD1B2" rx="11" ry="11" style="stroke:#181818;stroke-width:1.0;"/><path d="M1154.0156,624.375 Q1154.1719,624.1563 1154.3594,624.0469 Q1154.5469,623.9375 1154.7656,623.9375 Q1155.1406,623.9375 1155.375,624.2031 Q1155.6094,624.4531 1155.6094,625.0625 L1155.6094,626.5156 Q1155.6094,627.125 1155.375,627.3906 Q1155.1406,627.6563 1154.7656,627.6563 Q1154.4219,627.6563 1154.2188,627.4531 Q1154.0156,627.2656 1153.9063,626.75 Q1153.8594,626.3906 1153.6719,626.2031 Q1153.3438,625.8281 1152.7344,625.6094 Q1152.125,625.3906 1151.5,625.3906 Q1150.7344,625.3906 1150.0938,625.7188 Q1149.4688,626.0469 1148.9688,626.7969 Q1148.4844,627.5469 1148.4844,628.5781 L1148.4844,629.6719 Q1148.4844,630.9063 1149.375,631.7344 Q1150.2656,632.5469 1151.8594,632.5469 Q1152.7969,632.5469 1153.4531,632.2969 Q1153.8438,632.1406 1154.2656,631.7031 Q1154.5313,631.4375 1154.6719,631.3594 Q1154.8281,631.2813 1155.0313,631.2813 Q1155.3594,631.2813 1155.6094,631.5469 Q1155.875,631.7969 1155.875,632.1406 Q1155.875,632.4844 1155.5313,632.8906 Q1155.0313,633.4688 1154.2344,633.7969 Q1153.1563,634.25 1151.8594,634.25 Q1150.3438,634.25 1149.1406,633.625 Q1148.1563,633.125 1147.4688,632.0625 Q1146.7813,630.9844 1146.7813,629.7031 L1146.7813,628.5469 Q1146.7813,627.2188 1147.3906,626.0781 Q1148.0156,624.9219 1149.1094,624.3125 Q1150.2031,623.6875 1151.4375,623.6875 Q1152.1719,623.6875 1152.8125,623.8594 Q1153.4688,624.0156 1154.0156,624.375 Z " fill="#000000"/><text fill="#000000" font-family="sans-serif" font-size="14" lengthAdjust="spacing" textLength="95" x="1171.75" y="634.2969">CardResponse</text><line style="stroke:#3498DB;stroke-width:2.0;" x1="1082.5" x2="1323.5" y1="644.5" y2="644.5"/><text fill="#000000" font-family="sans-serif" font-size="14" font-weight="bold" lengthAdjust="spacing" textLength="158" x="1087.5" y="663.6074">isLogicalChannelOpen</text><text fill="#000000" font-family="sans-serif" font-size="14" lengthAdjust="spacing" textLength="60" x="1249.5" y="663.6074">: Boolean</text><text fill="#000000" font-family="sans-serif" font-size="14" font-weight="bold" lengthAdjust="spacing" textLength="114" x="1087.5" y="682.2285">apduResponses</text><text fill="#000000" font-family="sans-serif" font-size="14" lengthAdjust="spacing" textLength="113" x="1205.5" y="682.2285">: ApduResponse[]</text><line style="stroke:#3498DB;stroke-width:2.0;" x1="1082.5" x2="1323.5" y1="689.7422" y2="689.7422"/></g><!--class ApduResponse--><g id="elem_ApduResponse"><rect codeLine="142" fill="#EBF5FB" height="85.2422" id="ApduResponse" rx="2.5" ry="2.5" style="stroke:#3498DB;stroke-width:2.0;" width="141" x="1008.5" y="777"/><ellipse cx="1028.9" cy="793" fill="#ADD1B2" rx="11" ry="11" style="stroke:#181818;stroke-width:1.0;"/><path d="M1031.6656,788.875 Q1031.8219,788.6563 1032.0094,788.5469 Q1032.1969,788.4375 1032.4156,788.4375 Q1032.7906,788.4375 1033.025,788.7031 Q1033.2594,788.9531 1033.2594,789.5625 L1033.2594,791.0156 Q1033.2594,791.625 1033.025,791.8906 Q1032.7906,792.1563 1032.4156,792.1563 Q1032.0719,792.1563 1031.8688,791.9531 Q1031.6656,791.7656 1031.5563,791.25 Q1031.5094,790.8906 1031.3219,790.7031 Q1030.9938,790.3281 1030.3844,790.1094 Q1029.775,789.8906 1029.15,789.8906 Q1028.3844,789.8906 1027.7438,790.2188 Q1027.1188,790.5469 1026.6188,791.2969 Q1026.1344,792.0469 1026.1344,793.0781 L1026.1344,794.1719 Q1026.1344,795.4063 1027.025,796.2344 Q1027.9156,797.0469 1029.5094,797.0469 Q1030.4469,797.0469 1031.1031,796.7969 Q1031.4938,796.6406 1031.9156,796.2031 Q1032.1813,795.9375 1032.3219,795.8594 Q1032.4781,795.7813 1032.6813,795.7813 Q1033.0094,795.7813 1033.2594,796.0469 Q1033.525,796.2969 1033.525,796.6406 Q1033.525,796.9844 1033.1813,797.3906 Q1032.6813,797.9688 1031.8844,798.2969 Q1030.8063,798.75 1029.5094,798.75 Q1027.9938,798.75 1026.7906,798.125 Q1025.8063,797.625 1025.1188,796.5625 Q1024.4313,795.4844 1024.4313,794.2031 L1024.4313,793.0469 Q1024.4313,791.7188 1025.0406,790.5781 Q1025.6656,789.4219 1026.7594,788.8125 Q1027.8531,788.1875 1029.0875,788.1875 Q1029.8219,788.1875 1030.4625,788.3594 Q1031.1188,788.5156 1031.6656,788.875 Z " fill="#000000"/><text fill="#000000" font-family="sans-serif" font-size="14" lengthAdjust="spacing" textLength="97" x="1044.1" y="798.7969">ApduResponse</text><line style="stroke:#3498DB;stroke-width:2.0;" x1="1009.5" x2="1148.5" y1="809" y2="809"/><text fill="#000000" font-family="sans-serif" font-size="14" font-weight="bold" lengthAdjust="spacing" textLength="35" x="1014.5" y="828.1074">apdu</text><text fill="#000000" font-family="sans-serif" font-size="14" lengthAdjust="spacing" textLength="45" x="1053.5" y="828.1074">: String</text><text fill="#000000" font-family="sans-serif" font-size="14" font-weight="bold" lengthAdjust="spacing" textLength="80" x="1014.5" y="846.7285">statusWord</text><text fill="#000000" font-family="sans-serif" font-size="14" lengthAdjust="spacing" textLength="45" x="1098.5" y="846.7285">: String</text><line style="stroke:#3498DB;stroke-width:2.0;" x1="1009.5" x2="1148.5" y1="854.2422" y2="854.2422"/></g><!--class TransmitCardRequestRespBody--><g id="elem_TransmitCardRequestRespBody"><rect codeLine="138" fill="#EBF5FB" height="85.2422" id="TransmitCardRequestRespBody" rx="2.5" ry="2.5" style="stroke:#3498DB;stroke-width:2.0;" width="332" x="1074" y="448"/><ellipse cx="1133.75" cy="464" fill="#ADD1B2" rx="11" ry="11" style="stroke:#181818;stroke-width:1.0;"/><path d="M1136.5156,459.875 Q1136.6719,459.6563 1136.8594,459.5469 Q1137.0469,459.4375 1137.2656,459.4375 Q1137.6406,459.4375 1137.875,459.7031 Q1138.1094,459.9531 1138.1094,460.5625 L1138.1094,462.0156 Q1138.1094,462.625 1137.875,462.8906 Q1137.6406,463.1563 1137.2656,463.1563 Q1136.9219,463.1563 1136.7188,462.9531 Q1136.5156,462.7656 1136.4063,462.25 Q1136.3594,461.8906 1136.1719,461.7031 Q1135.8438,461.3281 1135.2344,461.1094 Q1134.625,460.8906 1134,460.8906 Q1133.2344,460.8906 1132.5938,461.2188 Q1131.9688,461.5469 1131.4688,462.2969 Q1130.9844,463.0469 1130.9844,464.0781 L1130.9844,465.1719 Q1130.9844,466.4063 1131.875,467.2344 Q1132.7656,468.0469 1134.3594,468.0469 Q1135.2969,468.0469 1135.9531,467.7969 Q1136.3438,467.6406 1136.7656,467.2031 Q1137.0313,466.9375 1137.1719,466.8594 Q1137.3281,466.7813 1137.5313,466.7813 Q1137.8594,466.7813 1138.1094,467.0469 Q1138.375,467.2969 1138.375,467.6406 Q1138.375,467.9844 1138.0313,468.3906 Q1137.5313,468.9688 1136.7344,469.2969 Q1135.6563,469.75 1134.3594,469.75 Q1132.8438,469.75 1131.6406,469.125 Q1130.6563,468.625 1129.9688,467.5625 Q1129.2813,466.4844 1129.2813,465.2031 L1129.2813,464.0469 Q1129.2813,462.7188 1129.8906,461.5781 Q1130.5156,460.4219 1131.6094,459.8125 Q1132.7031,459.1875 1133.9375,459.1875 Q1134.6719,459.1875 1135.3125,459.3594 Q1135.9688,459.5156 1136.5156,459.875 Z " fill="#000000"/><text fill="#000000" font-family="sans-serif" font-size="14" lengthAdjust="spacing" textLength="204" x="1154.25" y="469.7969">TransmitCardRequestRespBody</text><line style="stroke:#3498DB;stroke-width:2.0;" x1="1075" x2="1405" y1="480" y2="480"/><text fill="#000000" font-family="sans-serif" font-size="14" font-weight="bold" lengthAdjust="spacing" textLength="53" x="1080" y="499.1074">service</text><text fill="#000000" font-family="sans-serif" font-size="14" lengthAdjust="spacing" textLength="66" x="1137" y="499.1074">: String = "</text><text fill="#000000" font-family="sans-serif" font-size="14" font-weight="bold" lengthAdjust="spacing" textLength="192" x="1203" y="499.1074">TRANSMIT_CARD_REQUEST</text><text fill="#000000" font-family="sans-serif" font-size="14" lengthAdjust="spacing" textLength="5" x="1395" y="499.1074">"</text><text fill="#000000" font-family="sans-serif" font-size="14" font-weight="bold" lengthAdjust="spacing" textLength="41" x="1080" y="517.7285">result</text><text fill="#000000" font-family="sans-serif" font-size="14" lengthAdjust="spacing" textLength="111" x="1125" y="517.7285">: CardResponse?</text><line style="stroke:#3498DB;stroke-width:2.0;" x1="1075" x2="1405" y1="525.2422" y2="525.2422"/></g><!--reverse link RespBody to IsContactlessRespBody--><g id="link_RespBody_IsContactlessRespBody"><path d="M434.0099,378.1334 C373.4939,400.9014 311.751,424.13 248.479,447.935 " fill="none" id="RespBody-backto-IsContactlessRespBody" style="stroke:#181818;stroke-width:2.0;"/><polygon fill="none" points="450.857,371.795,431.8971,372.5177,436.1227,383.7491,450.857,371.795" style="stroke:#181818;stroke-width:2.0;"/></g><!--reverse link RespBody to IsCardPresentRespBody--><g id="link_RespBody_IsCardPresentRespBody"><path d="M500.4757,401.9245 C486.8647,421.6345 481.722,429.082 468.797,447.799 " fill="none" id="RespBody-backto-IsCardPresentRespBody" style="stroke:#181818;stroke-width:2.0;"/><polygon fill="none" points="510.704,387.113,495.5385,398.5151,505.4129,405.334,510.704,387.113" style="stroke:#181818;stroke-width:2.0;"/></g><!--reverse link RespBody to TransmitCardSelectionRequestsRespBody--><g id="link_RespBody_TransmitCardSelectionRequestsRespBody"><path d="M654.6737,395.7896 C690.4987,415.4996 715.185,429.082 749.205,447.799 " fill="none" id="RespBody-backto-TransmitCardSelectionRequestsRespBody" style="stroke:#181818;stroke-width:2.0;"/><polygon fill="none" points="638.903,387.113,651.7815,401.0466,657.5659,390.5327,638.903,387.113" style="stroke:#181818;stroke-width:2.0;"/></g><!--reverse link RespBody to TransmitCardRequestRespBody--><g id="link_RespBody_TransmitCardRequestRespBody"><path d="M658.1867,387.568 C829.6847,438.688 880.164,414.738 1056,448 C1061.79,449.096 1067.68,450.242 1073.62,451.427 " fill="none" id="RespBody-backto-TransmitCardRequestRespBody" style="stroke:#181818;stroke-width:2.0;"/><polygon fill="none" points="641.254,381.462,656.1514,393.2123,660.222,381.9238,641.254,381.462" style="stroke:#181818;stroke-width:2.0;"/></g><!--reverse link MessageDto to RespBody--><g id="link_MessageDto_RespBody"><path codeLine="113" d="M546,216.301 C546,243.398 546,259.726 546,282.971 " fill="none" id="MessageDto-backto-RespBody" style="stroke:#3498DB;stroke-width:2.0;"/><polygon fill="#3498DB" points="546,204.301,542,210.301,546,216.301,550,210.301,546,204.301" style="stroke:#3498DB;stroke-width:2.0;"/><text fill="#000000" font-family="sans-serif" font-size="13" lengthAdjust="spacing" textLength="61" x="547" y="249.0283">JsonString</text><text fill="#000000" font-family="sans-serif" font-size="13" lengthAdjust="spacing" textLength="7" x="538.5297" y="271.8945">1</text></g><!--reverse link RespBody to Error--><g id="link_RespBody_Error"><path codeLine="115" d="M653.25,335 C664.714,335 664.178,335 675.642,335 " fill="none" id="RespBody-backto-Error" style="stroke:#3498DB;stroke-width:2.0;stroke-dasharray:7.0,7.0;"/><polygon fill="#3498DB" points="641.25,335,647.25,339,653.25,335,647.25,331,641.25,335" style="stroke:#3498DB;stroke-width:2.0;"/><text fill="#000000" font-family="sans-serif" font-size="13" lengthAdjust="spacing" textLength="22" x="646.077" y="331.1543">0..1</text></g><!--reverse link TransmitCardSelectionRequestsRespBody to CardSelectionResponse--><g id="link_TransmitCardSelectionRequestsRespBody_CardSelectionResponse"><path codeLine="117" d="M844.9264,544.5825 C851.8454,563.0135 855.887,573.78 863.446,593.917 " fill="none" id="TransmitCardSelectionRequestsRespBody-backto-CardSelectionResponse" style="stroke:#3498DB;stroke-width:2.0;stroke-dasharray:7.0,7.0;"/><polygon fill="#3498DB" points="840.709,533.348,839.0729,540.371,844.9264,544.5825,846.5625,537.5594,840.709,533.348" style="stroke:#3498DB;stroke-width:2.0;"/><text fill="#000000" font-family="sans-serif" font-size="13" lengthAdjust="spacing" textLength="20" x="839.6819" y="582.8886">0..*</text></g><!--reverse link CardSelectionResponse to CardResponse--><g id="link_CardSelectionResponse_CardResponse"><path codeLine="119" d="M1058.67,655 C1070.27,655 1069.87,655 1081.48,655 " fill="none" id="CardSelectionResponse-backto-CardResponse" style="stroke:#3498DB;stroke-width:2.0;stroke-dasharray:7.0,7.0;"/><polygon fill="#3498DB" points="1046.67,655,1052.67,659,1058.67,655,1052.67,651,1046.67,655" style="stroke:#3498DB;stroke-width:2.0;"/><text fill="#000000" font-family="sans-serif" font-size="13" lengthAdjust="spacing" textLength="22" x="1051.4046" y="651.5118">0..1</text></g><!--reverse link CardSelectionResponse to ApduResponse--><g id="link_CardSelectionResponse_ApduResponse"><path codeLine="120" d="M966.4975,723.7759 C990.5505,744.0279 1007.67,758.441 1029.64,776.9423 " fill="none" id="CardSelectionResponse-backto-ApduResponse" style="stroke:#3498DB;stroke-width:2.0;stroke-dasharray:7.0,7.0;"/><polygon fill="#3498DB" points="957.318,716.047,959.3315,722.9713,966.4975,723.7759,964.4841,716.8516,957.318,716.047" style="stroke:#3498DB;stroke-width:2.0;"/><text fill="#000000" font-family="sans-serif" font-size="13" lengthAdjust="spacing" textLength="22" x="998.0201" y="765.8368">0..1</text></g><!--reverse link CardResponse to ApduResponse--><g id="link_CardResponse_ApduResponse"><path codeLine="122" d="M1163.7889,707.3866 C1145.2689,731.6486 1129.32,752.556 1110.82,776.794 " fill="none" id="CardResponse-backto-ApduResponse" style="stroke:#3498DB;stroke-width:2.0;"/><polygon fill="#3498DB" points="1171.07,697.848,1164.2499,700.1903,1163.7889,707.3866,1170.609,705.0443,1171.07,697.848" style="stroke:#3498DB;stroke-width:2.0;"/><text fill="#000000" font-family="sans-serif" font-size="13" lengthAdjust="spacing" textLength="20" x="1094.2976" y="765.6653">1..*</text></g><!--reverse link TransmitCardRequestRespBody to CardResponse--><g id="link_TransmitCardRequestRespBody_CardResponse"><path codeLine="124" d="M1227.8078,545.049 C1222.2878,569.311 1218.01,588.056 1212.5,612.294 " fill="none" id="TransmitCardRequestRespBody-backto-CardResponse" style="stroke:#3498DB;stroke-width:2.0;stroke-dasharray:7.0,7.0;"/><polygon fill="#3498DB" points="1230.47,533.348,1225.2386,538.3111,1227.8078,545.049,1233.0392,540.0859,1230.47,533.348" style="stroke:#3498DB;stroke-width:2.0;"/><text fill="#000000" font-family="sans-serif" font-size="13" lengthAdjust="spacing" textLength="22" x="1190.2609" y="601.1653">0..1</text></g><!--SRC=[hLPjR-964FxkNx7bFgIr5980EK9qkSWlwoij8IbsL4MdKxInDs35U7sxwr1KzRzt_8fj3EIQyidCF3FFCxFZMH-Xgola_8flC3meof71ue36N21VY9WAv55qYHPIHkBov6GXbu7B0iPTvb7HTTdov9cVIF8KK18VU_JOpQ9RJF0e_7bu70L4dYW_UVJP3oao7h_CyCCPiYwiaJLgc7l8wbbzQz0mzn4-nqFSH0-GEJHrqsoOpv6X6PRPQvW_8jqq-iQmOfwCfx-Z_c1qOUeLwxsDKM-euO-dq1nqV8nikGwWBt919F9OU2JHYl4NjFBb0eLqXLuf5puB4Nj6K6ieusK0OOfuySE8SB94Gb9EcLn7LDCPzoWtaewY3zh8D4oh5JYk0VM1DiJdhK2Zdj4qp_HUAn3NW5WVzO4whGzFpKHl9Se8Y10Ptbduxaj8XK3Lj1hdR5LrGQO76WHijPM5k2zppkBGovajR643jvFb47EW6QScf9nHxq2-JvyuzJv_XhGcDh6n9ss9nCC1p86oy67G2-EcJS1w5_Cee0U9enIMSW-mOGttSc_05tWmqCo2lhJN53m5yM7-19JMerldbhwNlO3civvpvzOQynTEQNYGUfwWKkwHDSJMNkuIcxzJENbXRhAltqA-Jharc2DyY3k5zem-FgzIh-lCG0qxqRYTEdZgP5iHpR1zfxX9IdG3Cqxcr9GC_QqW-AagYVm9VQM1giAodCRB9yhH5Rm7cLT006o4iPUwRSdzS5u4kX8y5Jk4TLGrOLFLJWvo0v-6SWehjos5e1nMpYvlm5mIp2Y1Bap9acu3E5qoIVSXdfYtJgqpAY8T_YZ_AEH9I0xYKTQImbCsn6MSQWUQmbzzjuMEmZBXgHadJzV01lrFd_C3I9yhL5vBbcLsI5L7ccTiFoO7gndE1Dis-Zdfz2zvth4mM2YXAjZleYo9_YLfwBNKk5r1TdXrYiqnSYhYGAPmdJ6u7iFhZIPjPZxUWPXaufgY2FVk81Xcu7sYAXnlKENCjAbzCtQoE1jFiE6CRwUFC_p7FRQTHkySJaAnz6KYrgO1JUTwHh_39uHyHoyFYIZgg1VI424Y5WhwzLjIMAQs5L2AMH1nGwIxe5wrBRapOYlARqEJI59HUrtMaIJLeYZmNL9DdcAro8iBGn7XWfGQoAWOwegtXFfYmkP051WB4eOqk8res2APL6Z5bf2ltqgIghcosxouPUj88cFn9wpNhLUiVcRvIUsUbdn8_gyPoVbQ1xpPMX2h2S5SFpqgeIYLrQx2fr3dhBEHyI7_Ghn4lmaMvWKhfLljSd- -a5tKEUrs8IvRKdcGehpj_L2xMRpQsJ6YPRvsTrD4RMgAs5sXPLHj36gC6tJQdLHeEthV2LUeMWLcz-z4UxYzpwxVp60x3nEyzpekFc9sNaybe7QJRApl7juorOzinKPG-_cqW7RvQYTIBUu_N3JDy1-xEyleVm40]--></g></svg>