<?xml version="1.0" encoding="us-ascii" standalone="no"?><svg xmlns="http://www.w3.org/2000/svg" xmlns:xlink="http://www.w3.org/1999/xlink" contentStyleType="text/css" height="869px" preserveAspectRatio="none" style="width:1116px;height:869px;background:#FFFFFF;" version="1.1" viewBox="0 0 1116 869" width="1116px" zoomAndPan="magnify"><defs/><g><!--class MessageDto--><g id="elem_MessageDto"><rect codeLine="126" fill="#EBF5FB" height="196.9688" id="MessageDto" rx="2.5" ry="2.5" style="stroke:#3498DB;stroke-width:2.0;" width="201" x="427.5" y="7"/><ellipse cx="484.25" cy="23" fill="#ADD1B2" rx="11" ry="11" style="stroke:#181818;stroke-width:1.0;"/><path d="M487.0156,18.875 Q487.1719,18.6563 487.3594,18.5469 Q487.5469,18.4375 487.7656,18.4375 Q488.1406,18.4375 488.375,18.7031 Q488.6094,18.9531 488.6094,19.5625 L488.6094,21.0156 Q488.6094,21.625 488.375,21.8906 Q488.1406,22.1563 487.7656,22.1563 Q487.4219,22.1563 487.2188,21.9531 Q487.0156,21.7656 486.9063,21.25 Q486.8594,20.8906 486.6719,20.7031 Q486.3438,20.3281 485.7344,20.1094 Q485.125,19.8906 484.5,19.8906 Q483.7344,19.8906 483.0938,20.2188 Q482.4688,20.5469 481.9688,21.2969 Q481.4844,22.0469 481.4844,23.0781 L481.4844,24.1719 Q481.4844,25.4063 482.375,26.2344 Q483.2656,27.0469 484.8594,27.0469 Q485.7969,27.0469 486.4531,26.7969 Q486.8438,26.6406 487.2656,26.2031 Q487.5313,25.9375 487.6719,25.8594 Q487.8281,25.7813 488.0313,25.7813 Q488.3594,25.7813 488.6094,26.0469 Q488.875,26.2969 488.875,26.6406 Q488.875,26.9844 488.5313,27.3906 Q488.0313,27.9688 487.2344,28.2969 Q486.1563,28.75 484.8594,28.75 Q483.3438,28.75 482.1406,28.125 Q481.1563,27.625 480.4688,26.5625 Q479.7813,25.4844 479.7813,24.2031 L479.7813,23.0469 Q479.7813,21.7188 480.3906,20.5781 Q481.0156,19.4219 482.1094,18.8125 Q483.2031,18.1875 484.4375,18.1875 Q485.1719,18.1875 485.8125,18.3594 Q486.4688,18.5156 487.0156,18.875 Z " fill="#000000"/><text fill="#000000" font-family="sans-serif" font-size="14" lengthAdjust="spacing" textLength="79" x="504.75" y="28.7969">MessageDto</text><line style="stroke:#3498DB;stroke-width:2.0;" x1="428.5" x2="627.5" y1="39" y2="39"/><text fill="#000000" font-family="sans-serif" font-size="14" font-weight="bold" lengthAdjust="spacing" textLength="60" x="433.5" y="58.1074">apiLevel</text><text fill="#000000" font-family="sans-serif" font-size="14" lengthAdjust="spacing" textLength="81" x="497.5" y="58.1074">: Number = 3</text><text fill="#000000" font-family="sans-serif" font-size="14" font-weight="bold" lengthAdjust="spacing" textLength="68" x="433.5" y="76.7285">sessionId</text><text fill="#000000" font-family="sans-serif" font-size="14" lengthAdjust="spacing" textLength="45" x="505.5" y="76.7285">: String</text><text fill="#000000" font-family="sans-serif" font-size="14" font-weight="bold" lengthAdjust="spacing" textLength="43" x="433.5" y="95.3496">action</text><text fill="#000000" font-family="sans-serif" font-size="14" lengthAdjust="spacing" textLength="66" x="480.5" y="95.3496">: String = "</text><text fill="#000000" font-family="sans-serif" font-size="14" font-weight="bold" lengthAdjust="spacing" textLength="37" x="546.5" y="95.3496">RESP</text><text fill="#000000" font-family="sans-serif" font-size="14" lengthAdjust="spacing" textLength="5" x="583.5" y="95.3496">"</text><text fill="#000000" font-family="sans-serif" font-size="14" font-weight="bold" lengthAdjust="spacing" textLength="89" x="433.5" y="113.9707">clientNodeId</text><text fill="#000000" font-family="sans-serif" font-size="14" lengthAdjust="spacing" textLength="45" x="526.5" y="113.9707">: String</text><text fill="#000000" font-family="sans-serif" font-size="14" font-weight="bold" lengthAdjust="spacing" textLength="97" x="433.5" y="132.5918">serverNodeId</text><text fill="#000000" font-family="sans-serif" font-size="14" lengthAdjust="spacing" textLength="45" x="534.5" y="132.5918">: String</text><text fill="#000000" font-family="sans-serif" font-size="14" font-weight="bold" lengthAdjust="spacing" textLength="123" x="433.5" y="151.2129">localReaderName</text><text fill="#000000" font-family="sans-serif" font-size="14" lengthAdjust="spacing" textLength="45" x="560.5" y="151.2129">: String</text><text fill="#000000" font-family="sans-serif" font-size="14" font-weight="bold" lengthAdjust="spacing" textLength="140" x="433.5" y="169.834">remoteReaderName</text><text fill="#000000" font-family="sans-serif" font-size="14" lengthAdjust="spacing" textLength="45" x="577.5" y="169.834">: String</text><text fill="#000000" font-family="sans-serif" font-size="14" font-weight="bold" lengthAdjust="spacing" textLength="34" x="433.5" y="188.4551">body</text><text fill="#000000" font-family="sans-serif" font-size="14" lengthAdjust="spacing" textLength="73" x="471.5" y="188.4551">: RespBody</text><line style="stroke:#3498DB;stroke-width:2.0;" x1="428.5" x2="627.5" y1="195.9688" y2="195.9688"/></g><!--class RespBody--><g id="elem_RespBody"><rect codeLine="127" fill="#EBF5FB" height="103.8633" id="RespBody" rx="2.5" ry="2.5" style="stroke:#3498DB;stroke-width:2.0;" width="190" x="433" y="283"/><ellipse cx="491.25" cy="299" fill="#A9DCDF" rx="11" ry="11" style="stroke:#181818;stroke-width:1.0;"/><path d="M493.4375,300.7656 L489.2969,300.7656 L488.875,301.7969 L489.2969,301.7969 Q489.9063,301.7969 490.1719,302.0313 Q490.4375,302.2656 490.4375,302.6563 Q490.4375,303.0313 490.1719,303.2656 Q489.9063,303.5 489.2969,303.5 L487,303.5 Q486.3906,303.5 486.1406,303.2656 Q485.875,303.0313 485.875,302.6406 Q485.875,302.2656 486.1563,302.0313 Q486.4219,301.7813 487.0469,301.7969 L489.7188,295.1406 L488.6094,295.1406 Q488,295.1406 487.7344,294.9063 Q487.4688,294.6719 487.4688,294.2813 Q487.4688,293.9063 487.7344,293.6719 Q488,293.4375 488.6094,293.4375 L492.2813,293.4375 L495.6719,301.7969 Q496.2656,301.7969 496.4531,301.9375 Q496.8438,302.2031 496.8438,302.6563 Q496.8438,303.0313 496.5781,303.2656 Q496.3281,303.5 495.7188,303.5 L493.4219,303.5 Q492.8125,303.5 492.5469,303.2656 Q492.2813,303.0313 492.2813,302.6406 Q492.2813,302.2656 492.5469,302.0313 Q492.8125,301.7969 493.4219,301.7969 L493.8438,301.7969 L493.4375,300.7656 Z M492.7188,299.0625 L491.3594,295.6875 L489.9844,299.0625 L492.7188,299.0625 Z " fill="#000000"/><text fill="#000000" font-family="sans-serif" font-size="14" font-style="italic" lengthAdjust="spacing" textLength="65" x="511.75" y="304.7969">RespBody</text><line style="stroke:#3498DB;stroke-width:2.0;" x1="434" x2="622" y1="315" y2="315"/><text fill="#000000" font-family="sans-serif" font-size="14" font-weight="bold" lengthAdjust="spacing" textLength="93" x="439" y="334.1074">coreApiLevel</text><text fill="#000000" font-family="sans-serif" font-size="14" lengthAdjust="spacing" textLength="81" x="536" y="334.1074">: Number = 2</text><text fill="#000000" font-family="sans-serif" font-size="14" font-weight="bold" lengthAdjust="spacing" textLength="53" x="439" y="352.7285">service</text><text fill="#000000" font-family="sans-serif" font-size="14" lengthAdjust="spacing" textLength="45" x="496" y="352.7285">: String</text><text fill="#000000" font-family="sans-serif" font-size="14" font-weight="bold" lengthAdjust="spacing" textLength="36" x="439" y="371.3496">error</text><text fill="#000000" font-family="sans-serif" font-size="14" lengthAdjust="spacing" textLength="48" x="479" y="371.3496">: Error?</text><line style="stroke:#3498DB;stroke-width:2.0;" x1="434" x2="622" y1="378.8633" y2="378.8633"/></g><!--class Error--><g id="elem_Error"><rect codeLine="129" fill="#EBF5FB" height="85.2422" id="Error" rx="2.5" ry="2.5" style="stroke:#3498DB;stroke-width:2.0;" width="124" x="658" y="292.5"/><ellipse cx="700" cy="308.5" fill="#ADD1B2" rx="11" ry="11" style="stroke:#181818;stroke-width:1.0;"/><path d="M702.7656,304.375 Q702.9219,304.1563 703.1094,304.0469 Q703.2969,303.9375 703.5156,303.9375 Q703.8906,303.9375 704.125,304.2031 Q704.3594,304.4531 704.3594,305.0625 L704.3594,306.5156 Q704.3594,307.125 704.125,307.3906 Q703.8906,307.6563 703.5156,307.6563 Q703.1719,307.6563 702.9688,307.4531 Q702.7656,307.2656 702.6563,306.75 Q702.6094,306.3906 702.4219,306.2031 Q702.0938,305.8281 701.4844,305.6094 Q700.875,305.3906 700.25,305.3906 Q699.4844,305.3906 698.8438,305.7188 Q698.2188,306.0469 697.7188,306.7969 Q697.2344,307.5469 697.2344,308.5781 L697.2344,309.6719 Q697.2344,310.9063 698.125,311.7344 Q699.0156,312.5469 700.6094,312.5469 Q701.5469,312.5469 702.2031,312.2969 Q702.5938,312.1406 703.0156,311.7031 Q703.2813,311.4375 703.4219,311.3594 Q703.5781,311.2813 703.7813,311.2813 Q704.1094,311.2813 704.3594,311.5469 Q704.625,311.7969 704.625,312.1406 Q704.625,312.4844 704.2813,312.8906 Q703.7813,313.4688 702.9844,313.7969 Q701.9063,314.25 700.6094,314.25 Q699.0938,314.25 697.8906,313.625 Q696.9063,313.125 696.2188,312.0625 Q695.5313,310.9844 695.5313,309.7031 L695.5313,308.5469 Q695.5313,307.2188 696.1406,306.0781 Q696.7656,304.9219 697.8594,304.3125 Q698.9531,303.6875 700.1875,303.6875 Q700.9219,303.6875 701.5625,303.8594 Q702.2188,304.0156 702.7656,304.375 Z " fill="#000000"/><text fill="#000000" font-family="sans-serif" font-size="14" lengthAdjust="spacing" textLength="32" x="720" y="314.2969">Error</text><line style="stroke:#3498DB;stroke-width:2.0;" x1="659" x2="781" y1="324.5" y2="324.5"/><text fill="#000000" font-family="sans-serif" font-size="14" font-weight="bold" lengthAdjust="spacing" textLength="35" x="664" y="343.6074">code</text><text fill="#000000" font-family="sans-serif" font-size="14" lengthAdjust="spacing" textLength="45" x="703" y="343.6074">: String</text><text fill="#000000" font-family="sans-serif" font-size="14" font-weight="bold" lengthAdjust="spacing" textLength="63" x="664" y="362.2285">message</text><text fill="#000000" font-family="sans-serif" font-size="14" lengthAdjust="spacing" textLength="45" x="731" y="362.2285">: String</text><line style="stroke:#3498DB;stroke-width:2.0;" x1="659" x2="781" y1="369.7422" y2="369.7422"/></g><!--class IsCardPresentRespBody--><g id="elem_IsCardPresentRespBody"><rect codeLine="139" fill="#EBF5FB" height="85.2422" id="IsCardPresentRespBody" rx="2.5" ry="2.5" style="stroke:#3498DB;stroke-width:2.0;" width="272" x="7" y="448"/><ellipse cx="61.25" cy="464" fill="#ADD1B2" rx="11" ry="11" style="stroke:#181818;stroke-width:1.0;"/><path d="M64.0156,459.875 Q64.1719,459.6563 64.3594,459.5469 Q64.5469,459.4375 64.7656,459.4375 Q65.1406,459.4375 65.375,459.7031 Q65.6094,459.9531 65.6094,460.5625 L65.6094,462.0156 Q65.6094,462.625 65.375,462.8906 Q65.1406,463.1563 64.7656,463.1563 Q64.4219,463.1563 64.2188,462.9531 Q64.0156,462.7656 63.9063,462.25 Q63.8594,461.8906 63.6719,461.7031 Q63.3438,461.3281 62.7344,461.1094 Q62.125,460.8906 61.5,460.8906 Q60.7344,460.8906 60.0938,461.2188 Q59.4688,461.5469 58.9688,462.2969 Q58.4844,463.0469 58.4844,464.0781 L58.4844,465.1719 Q58.4844,466.4063 59.375,467.2344 Q60.2656,468.0469 61.8594,468.0469 Q62.7969,468.0469 63.4531,467.7969 Q63.8438,467.6406 64.2656,467.2031 Q64.5313,466.9375 64.6719,466.8594 Q64.8281,466.7813 65.0313,466.7813 Q65.3594,466.7813 65.6094,467.0469 Q65.875,467.2969 65.875,467.6406 Q65.875,467.9844 65.5313,468.3906 Q65.0313,468.9688 64.2344,469.2969 Q63.1563,469.75 61.8594,469.75 Q60.3438,469.75 59.1406,469.125 Q58.1563,468.625 57.4688,467.5625 Q56.7813,466.4844 56.7813,465.2031 L56.7813,464.0469 Q56.7813,462.7188 57.3906,461.5781 Q58.0156,460.4219 59.1094,459.8125 Q60.2031,459.1875 61.4375,459.1875 Q62.1719,459.1875 62.8125,459.3594 Q63.4688,459.5156 64.0156,459.875 Z " fill="#000000"/><text fill="#000000" font-family="sans-serif" font-size="14" lengthAdjust="spacing" textLength="155" x="81.75" y="469.7969">IsCardPresentRespBody</text><line style="stroke:#3498DB;stroke-width:2.0;" x1="8" x2="278" y1="480" y2="480"/><text fill="#000000" font-family="sans-serif" font-size="14" font-weight="bold" lengthAdjust="spacing" textLength="53" x="13" y="499.1074">service</text><text fill="#000000" font-family="sans-serif" font-size="14" lengthAdjust="spacing" textLength="66" x="70" y="499.1074">: String = "</text><text fill="#000000" font-family="sans-serif" font-size="14" font-weight="bold" lengthAdjust="spacing" textLength="132" x="136" y="499.1074">IS_CARD_PRESENT</text><text fill="#000000" font-family="sans-serif" font-size="14" lengthAdjust="spacing" textLength="5" x="268" y="499.1074">"</text><text fill="#000000" font-family="sans-serif" font-size="14" font-weight="bold" lengthAdjust="spacing" textLength="41" x="13" y="517.7285">result</text><text fill="#000000" font-family="sans-serif" font-size="14" lengthAdjust="spacing" textLength="68" x="58" y="517.7285">: Boolean?</text><line style="stroke:#3498DB;stroke-width:2.0;" x1="8" x2="278" y1="525.2422" y2="525.2422"/></g><!--class TransmitCardSelectionRequestsRespBody--><g id="elem_TransmitCardSelectionRequestsRespBody"><rect codeLine="133" fill="#EBF5FB" height="85.2422" id="TransmitCardSelectionRequestsRespBody" rx="2.5" ry="2.5" style="stroke:#3498DB;stroke-width:2.0;" width="427" x="314.5" y="448"/><ellipse cx="389.25" cy="464" fill="#ADD1B2" rx="11" ry="11" style="stroke:#181818;stroke-width:1.0;"/><path d="M392.0156,459.875 Q392.1719,459.6563 392.3594,459.5469 Q392.5469,459.4375 392.7656,459.4375 Q393.1406,459.4375 393.375,459.7031 Q393.6094,459.9531 393.6094,460.5625 L393.6094,462.0156 Q393.6094,462.625 393.375,462.8906 Q393.1406,463.1563 392.7656,463.1563 Q392.4219,463.1563 392.2188,462.9531 Q392.0156,462.7656 391.9063,462.25 Q391.8594,461.8906 391.6719,461.7031 Q391.3438,461.3281 390.7344,461.1094 Q390.125,460.8906 389.5,460.8906 Q388.7344,460.8906 388.0938,461.2188 Q387.4688,461.5469 386.9688,462.2969 Q386.4844,463.0469 386.4844,464.0781 L386.4844,465.1719 Q386.4844,466.4063 387.375,467.2344 Q388.2656,468.0469 389.8594,468.0469 Q390.7969,468.0469 391.4531,467.7969 Q391.8438,467.6406 392.2656,467.2031 Q392.5313,466.9375 392.6719,466.8594 Q392.8281,466.7813 393.0313,466.7813 Q393.3594,466.7813 393.6094,467.0469 Q393.875,467.2969 393.875,467.6406 Q393.875,467.9844 393.5313,468.3906 Q393.0313,468.9688 392.2344,469.2969 Q391.1563,469.75 389.8594,469.75 Q388.3438,469.75 387.1406,469.125 Q386.1563,468.625 385.4688,467.5625 Q384.7813,466.4844 384.7813,465.2031 L384.7813,464.0469 Q384.7813,462.7188 385.3906,461.5781 Q386.0156,460.4219 387.1094,459.8125 Q388.2031,459.1875 389.4375,459.1875 Q390.1719,459.1875 390.8125,459.3594 Q391.4688,459.5156 392.0156,459.875 Z " fill="#000000"/><text fill="#000000" font-family="sans-serif" font-size="14" lengthAdjust="spacing" textLength="269" x="409.75" y="469.7969">TransmitCardSelectionRequestsRespBody</text><line style="stroke:#3498DB;stroke-width:2.0;" x1="315.5" x2="740.5" y1="480" y2="480"/><text fill="#000000" font-family="sans-serif" font-size="14" font-weight="bold" lengthAdjust="spacing" textLength="53" x="320.5" y="499.1074">service</text><text fill="#000000" font-family="sans-serif" font-size="14" lengthAdjust="spacing" textLength="66" x="377.5" y="499.1074">: String = "</text><text fill="#000000" font-family="sans-serif" font-size="14" font-weight="bold" lengthAdjust="spacing" textLength="287" x="443.5" y="499.1074">TRANSMIT_CARD_SELECTION_REQUESTS</text><text fill="#000000" font-family="sans-serif" font-size="14" lengthAdjust="spacing" textLength="5" x="730.5" y="499.1074">"</text><text fill="#000000" font-family="sans-serif" font-size="14" font-weight="bold" lengthAdjust="spacing" textLength="41" x="320.5" y="517.7285">result</text><text fill="#000000" font-family="sans-serif" font-size="14" lengthAdjust="spacing" textLength="177" x="365.5" y="517.7285">: CardSelectionResponse[]?</text><line style="stroke:#3498DB;stroke-width:2.0;" x1="315.5" x2="740.5" y1="525.2422" y2="525.2422"/></g><!--class CardSelectionResponse--><g id="elem_CardSelectionResponse"><rect codeLine="134" fill="#EBF5FB" height="122.4844" id="CardSelectionResponse" rx="2.5" ry="2.5" style="stroke:#3498DB;stroke-width:2.0;" width="321" x="428.5" y="594"/><ellipse cx="508.25" cy="610" fill="#ADD1B2" rx="11" ry="11" style="stroke:#181818;stroke-width:1.0;"/><path d="M511.0156,605.875 Q511.1719,605.6563 511.3594,605.5469 Q511.5469,605.4375 511.7656,605.4375 Q512.1406,605.4375 512.375,605.7031 Q512.6094,605.9531 512.6094,606.5625 L512.6094,608.0156 Q512.6094,608.625 512.375,608.8906 Q512.1406,609.1563 511.7656,609.1563 Q511.4219,609.1563 511.2188,608.9531 Q511.0156,608.7656 510.9063,608.25 Q510.8594,607.8906 510.6719,607.7031 Q510.3438,607.3281 509.7344,607.1094 Q509.125,606.8906 508.5,606.8906 Q507.7344,606.8906 507.0938,607.2188 Q506.4688,607.5469 505.9688,608.2969 Q505.4844,609.0469 505.4844,610.0781 L505.4844,611.1719 Q505.4844,612.4063 506.375,613.2344 Q507.2656,614.0469 508.8594,614.0469 Q509.7969,614.0469 510.4531,613.7969 Q510.8438,613.6406 511.2656,613.2031 Q511.5313,612.9375 511.6719,612.8594 Q511.8281,612.7813 512.0313,612.7813 Q512.3594,612.7813 512.6094,613.0469 Q512.875,613.2969 512.875,613.6406 Q512.875,613.9844 512.5313,614.3906 Q512.0313,614.9688 511.2344,615.2969 Q510.1563,615.75 508.8594,615.75 Q507.3438,615.75 506.1406,615.125 Q505.1563,614.625 504.4688,613.5625 Q503.7813,612.4844 503.7813,611.2031 L503.7813,610.0469 Q503.7813,608.7188 504.3906,607.5781 Q505.0156,606.4219 506.1094,605.8125 Q507.2031,605.1875 508.4375,605.1875 Q509.1719,605.1875 509.8125,605.3594 Q510.4688,605.5156 511.0156,605.875 Z " fill="#000000"/><text fill="#000000" font-family="sans-serif" font-size="14" lengthAdjust="spacing" textLength="153" x="528.75" y="615.7969">CardSelectionResponse</text><line style="stroke:#3498DB;stroke-width:2.0;" x1="429.5" x2="748.5" y1="626" y2="626"/><text fill="#000000" font-family="sans-serif" font-size="14" font-weight="bold" lengthAdjust="spacing" textLength="86" x="434.5" y="645.1074">hasMatched</text><text fill="#000000" font-family="sans-serif" font-size="14" lengthAdjust="spacing" textLength="60" x="524.5" y="645.1074">: Boolean</text><text fill="#000000" font-family="sans-serif" font-size="14" font-weight="bold" lengthAdjust="spacing" textLength="95" x="434.5" y="663.7285">powerOnData</text><text fill="#000000" font-family="sans-serif" font-size="14" lengthAdjust="spacing" textLength="53" x="533.5" y="663.7285">: String?</text><text fill="#000000" font-family="sans-serif" font-size="14" font-weight="bold" lengthAdjust="spacing" textLength="192" x="434.5" y="682.3496">selectApplicationResponse</text><text fill="#000000" font-family="sans-serif" font-size="14" lengthAdjust="spacing" textLength="113" x="630.5" y="682.3496">: ApduResponse?</text><text fill="#000000" font-family="sans-serif" font-size="14" font-weight="bold" lengthAdjust="spacing" textLength="102" x="434.5" y="700.9707">cardResponse</text><text fill="#000000" font-family="sans-serif" font-size="14" lengthAdjust="spacing" textLength="111" x="540.5" y="700.9707">: CardResponse?</text><line style="stroke:#3498DB;stroke-width:2.0;" x1="429.5" x2="748.5" y1="708.4844" y2="708.4844"/></g><!--class CardResponse--><g id="elem_CardResponse"><rect codeLine="135" fill="#EBF5FB" height="85.2422" id="CardResponse" rx="2.5" ry="2.5" style="stroke:#3498DB;stroke-width:2.0;" width="243" x="784.5" y="612.5"/><ellipse cx="854.25" cy="628.5" fill="#ADD1B2" rx="11" ry="11" style="stroke:#181818;stroke-width:1.0;"/><path d="M857.0156,624.375 Q857.1719,624.1563 857.3594,624.0469 Q857.5469,623.9375 857.7656,623.9375 Q858.1406,623.9375 858.375,624.2031 Q858.6094,624.4531 858.6094,625.0625 L858.6094,626.5156 Q858.6094,627.125 858.375,627.3906 Q858.1406,627.6563 857.7656,627.6563 Q857.4219,627.6563 857.2188,627.4531 Q857.0156,627.2656 856.9063,626.75 Q856.8594,626.3906 856.6719,626.2031 Q856.3438,625.8281 855.7344,625.6094 Q855.125,625.3906 854.5,625.3906 Q853.7344,625.3906 853.0938,625.7188 Q852.4688,626.0469 851.9688,626.7969 Q851.4844,627.5469 851.4844,628.5781 L851.4844,629.6719 Q851.4844,630.9063 852.375,631.7344 Q853.2656,632.5469 854.8594,632.5469 Q855.7969,632.5469 856.4531,632.2969 Q856.8438,632.1406 857.2656,631.7031 Q857.5313,631.4375 857.6719,631.3594 Q857.8281,631.2813 858.0313,631.2813 Q858.3594,631.2813 858.6094,631.5469 Q858.875,631.7969 858.875,632.1406 Q858.875,632.4844 858.5313,632.8906 Q858.0313,633.4688 857.2344,633.7969 Q856.1563,634.25 854.8594,634.25 Q853.3438,634.25 852.1406,633.625 Q851.1563,633.125 850.4688,632.0625 Q849.7813,630.9844 849.7813,629.7031 L849.7813,628.5469 Q849.7813,627.2188 850.3906,626.0781 Q851.0156,624.9219 852.1094,624.3125 Q853.2031,623.6875 854.4375,623.6875 Q855.1719,623.6875 855.8125,623.8594 Q856.4688,624.0156 857.0156,624.375 Z " fill="#000000"/><text fill="#000000" font-family="sans-serif" font-size="14" lengthAdjust="spacing" textLength="95" x="874.75" y="634.2969">CardResponse</text><line style="stroke:#3498DB;stroke-width:2.0;" x1="785.5" x2="1026.5" y1="644.5" y2="644.5"/><text fill="#000000" font-family="sans-serif" font-size="14" font-weight="bold" lengthAdjust="spacing" textLength="158" x="790.5" y="663.6074">isLogicalChannelOpen</text><text fill="#000000" font-family="sans-serif" font-size="14" lengthAdjust="spacing" textLength="60" x="952.5" y="663.6074">: Boolean</text><text fill="#000000" font-family="sans-serif" font-size="14" font-weight="bold" lengthAdjust="spacing" textLength="114" x="790.5" y="682.2285">apduResponses</text><text fill="#000000" font-family="sans-serif" font-size="14" lengthAdjust="spacing" textLength="113" x="908.5" y="682.2285">: ApduResponse[]</text><line style="stroke:#3498DB;stroke-width:2.0;" x1="785.5" x2="1026.5" y1="689.7422" y2="689.7422"/></g><!--class ApduResponse--><g id="elem_ApduResponse"><rect codeLine="136" fill="#EBF5FB" height="85.2422" id="ApduResponse" rx="2.5" ry="2.5" style="stroke:#3498DB;stroke-width:2.0;" width="141" x="711.5" y="777"/><ellipse cx="731.9" cy="793" fill="#ADD1B2" rx="11" ry="11" style="stroke:#181818;stroke-width:1.0;"/><path d="M734.6656,788.875 Q734.8219,788.6563 735.0094,788.5469 Q735.1969,788.4375 735.4156,788.4375 Q735.7906,788.4375 736.025,788.7031 Q736.2594,788.9531 736.2594,789.5625 L736.2594,791.0156 Q736.2594,791.625 736.025,791.8906 Q735.7906,792.1563 735.4156,792.1563 Q735.0719,792.1563 734.8688,791.9531 Q734.6656,791.7656 734.5563,791.25 Q734.5094,790.8906 734.3219,790.7031 Q733.9938,790.3281 733.3844,790.1094 Q732.775,789.8906 732.15,789.8906 Q731.3844,789.8906 730.7438,790.2188 Q730.1188,790.5469 729.6188,791.2969 Q729.1344,792.0469 729.1344,793.0781 L729.1344,794.1719 Q729.1344,795.4063 730.025,796.2344 Q730.9156,797.0469 732.5094,797.0469 Q733.4469,797.0469 734.1031,796.7969 Q734.4938,796.6406 734.9156,796.2031 Q735.1813,795.9375 735.3219,795.8594 Q735.4781,795.7813 735.6813,795.7813 Q736.0094,795.7813 736.2594,796.0469 Q736.525,796.2969 736.525,796.6406 Q736.525,796.9844 736.1813,797.3906 Q735.6813,797.9688 734.8844,798.2969 Q733.8063,798.75 732.5094,798.75 Q730.9938,798.75 729.7906,798.125 Q728.8063,797.625 728.1188,796.5625 Q727.4313,795.4844 727.4313,794.2031 L727.4313,793.0469 Q727.4313,791.7188 728.0406,790.5781 Q728.6656,789.4219 729.7594,788.8125 Q730.8531,788.1875 732.0875,788.1875 Q732.8219,788.1875 733.4625,788.3594 Q734.1188,788.5156 734.6656,788.875 Z " fill="#000000"/><text fill="#000000" font-family="sans-serif" font-size="14" lengthAdjust="spacing" textLength="97" x="747.1" y="798.7969">ApduResponse</text><line style="stroke:#3498DB;stroke-width:2.0;" x1="712.5" x2="851.5" y1="809" y2="809"/><text fill="#000000" font-family="sans-serif" font-size="14" font-weight="bold" lengthAdjust="spacing" textLength="35" x="717.5" y="828.1074">apdu</text><text fill="#000000" font-family="sans-serif" font-size="14" lengthAdjust="spacing" textLength="45" x="756.5" y="828.1074">: String</text><text fill="#000000" font-family="sans-serif" font-size="14" font-weight="bold" lengthAdjust="spacing" textLength="80" x="717.5" y="846.7285">statusWord</text><text fill="#000000" font-family="sans-serif" font-size="14" lengthAdjust="spacing" textLength="45" x="801.5" y="846.7285">: String</text><line style="stroke:#3498DB;stroke-width:2.0;" x1="712.5" x2="851.5" y1="854.2422" y2="854.2422"/></g><!--class TransmitCardRequestRespBody--><g id="elem_TransmitCardRequestRespBody"><rect codeLine="132" fill="#EBF5FB" height="85.2422" id="TransmitCardRequestRespBody" rx="2.5" ry="2.5" style="stroke:#3498DB;stroke-width:2.0;" width="332" x="777" y="448"/><ellipse cx="836.75" cy="464" fill="#ADD1B2" rx="11" ry="11" style="stroke:#181818;stroke-width:1.0;"/><path d="M839.5156,459.875 Q839.6719,459.6563 839.8594,459.5469 Q840.0469,459.4375 840.2656,459.4375 Q840.6406,459.4375 840.875,459.7031 Q841.1094,459.9531 841.1094,460.5625 L841.1094,462.0156 Q841.1094,462.625 840.875,462.8906 Q840.6406,463.1563 840.2656,463.1563 Q839.9219,463.1563 839.7188,462.9531 Q839.5156,462.7656 839.4063,462.25 Q839.3594,461.8906 839.1719,461.7031 Q838.8438,461.3281 838.2344,461.1094 Q837.625,460.8906 837,460.8906 Q836.2344,460.8906 835.5938,461.2188 Q834.9688,461.5469 834.4688,462.2969 Q833.9844,463.0469 833.9844,464.0781 L833.9844,465.1719 Q833.9844,466.4063 834.875,467.2344 Q835.7656,468.0469 837.3594,468.0469 Q838.2969,468.0469 838.9531,467.7969 Q839.3438,467.6406 839.7656,467.2031 Q840.0313,466.9375 840.1719,466.8594 Q840.3281,466.7813 840.5313,466.7813 Q840.8594,466.7813 841.1094,467.0469 Q841.375,467.2969 841.375,467.6406 Q841.375,467.9844 841.0313,468.3906 Q840.5313,468.9688 839.7344,469.2969 Q838.6563,469.75 837.3594,469.75 Q835.8438,469.75 834.6406,469.125 Q833.6563,468.625 832.9688,467.5625 Q832.2813,466.4844 832.2813,465.2031 L832.2813,464.0469 Q832.2813,462.7188 832.8906,461.5781 Q833.5156,460.4219 834.6094,459.8125 Q835.7031,459.1875 836.9375,459.1875 Q837.6719,459.1875 838.3125,459.3594 Q838.9688,459.5156 839.5156,459.875 Z " fill="#000000"/><text fill="#000000" font-family="sans-serif" font-size="14" lengthAdjust="spacing" textLength="204" x="857.25" y="469.7969">TransmitCardRequestRespBody</text><line style="stroke:#3498DB;stroke-width:2.0;" x1="778" x2="1108" y1="480" y2="480"/><text fill="#000000" font-family="sans-serif" font-size="14" font-weight="bold" lengthAdjust="spacing" textLength="53" x="783" y="499.1074">service</text><text fill="#000000" font-family="sans-serif" font-size="14" lengthAdjust="spacing" textLength="66" x="840" y="499.1074">: String = "</text><text fill="#000000" font-family="sans-serif" font-size="14" font-weight="bold" lengthAdjust="spacing" textLength="192" x="906" y="499.1074">TRANSMIT_CARD_REQUEST</text><text fill="#000000" font-family="sans-serif" font-size="14" lengthAdjust="spacing" textLength="5" x="1098" y="499.1074">"</text><text fill="#000000" font-family="sans-serif" font-size="14" font-weight="bold" lengthAdjust="spacing" textLength="41" x="783" y="517.7285">result</text><text fill="#000000" font-family="sans-serif" font-size="14" lengthAdjust="spacing" textLength="111" x="828" y="517.7285">: CardResponse?</text><line style="stroke:#3498DB;stroke-width:2.0;" x1="778" x2="1108" y1="525.2422" y2="525.2422"/></g><!--reverse link RespBody to IsCardPresentRespBody--><g id="link_RespBody_IsCardPresentRespBody"><path d="M416.1109,380.6102 C359.7749,403.0712 305.065,424.885 247.214,447.95 " fill="none" id="RespBody-backto-IsCardPresentRespBody" style="stroke:#181818;stroke-width:2.0;"/><polygon fill="none" points="432.831,373.944,413.8888,375.0369,418.333,386.1836,432.831,373.944" style="stroke:#181818;stroke-width:2.0;"/></g><!--reverse link RespBody to TransmitCardSelectionRequestsRespBody--><g id="link_RespBody_TransmitCardSelectionRequestsRespBody"><path d="M528,405.113 C528,424.823 528,429.082 528,447.799 " fill="none" id="RespBody-backto-TransmitCardSelectionRequestsRespBody" style="stroke:#181818;stroke-width:2.0;"/><polygon fill="none" points="528,387.113,522,405.113,534,405.113,528,387.113" style="stroke:#181818;stroke-width:2.0;"/></g><!--reverse link RespBody to TransmitCardRequestRespBody--><g id="link_RespBody_TransmitCardRequestRespBody"><path d="M639.6278,387.0453 C645.3428,389.4493 634.437,384.799 640,387 C695.252,408.861 757.251,430.354 810.703,447.967 " fill="none" id="RespBody-backto-TransmitCardRequestRespBody" style="stroke:#181818;stroke-width:2.0;"/><polygon fill="none" points="623.036,380.066,637.3014,392.5759,641.9543,381.5147,623.036,380.066" style="stroke:#181818;stroke-width:2.0;"/></g><!--reverse link MessageDto to RespBody--><g id="link_MessageDto_RespBody"><path codeLine="107" d="M528,216.301 C528,243.398 528,259.726 528,282.971 " fill="none" id="MessageDto-backto-RespBody" style="stroke:#3498DB;stroke-width:2.0;"/><polygon fill="#3498DB" points="528,204.301,524,210.301,528,216.301,532,210.301,528,204.301" style="stroke:#3498DB;stroke-width:2.0;"/><text fill="#000000" font-family="sans-serif" font-size="13" lengthAdjust="spacing" textLength="61" x="529" y="249.0283">JsonString</text><text fill="#000000" font-family="sans-serif" font-size="13" lengthAdjust="spacing" textLength="7" x="520.5297" y="271.8945">1</text></g><!--reverse link RespBody to Error--><g id="link_RespBody_Error"><path codeLine="109" d="M635.25,335 C646.714,335 646.178,335 657.642,335 " fill="none" id="RespBody-backto-Error" style="stroke:#3498DB;stroke-width:2.0;stroke-dasharray:7.0,7.0;"/><polygon fill="#3498DB" points="623.25,335,629.25,339,635.25,335,629.25,331,623.25,335" style="stroke:#3498DB;stroke-width:2.0;"/><text fill="#000000" font-family="sans-serif" font-size="13" lengthAdjust="spacing" textLength="22" x="628.077" y="331.1543">0..1</text></g><!--reverse link TransmitCardSelectionRequestsRespBody to CardSelectionResponse--><g id="link_TransmitCardSelectionRequestsRespBody_CardSelectionResponse"><path codeLine="111" d="M547.9264,544.5825 C554.8454,563.0135 558.887,573.78 566.446,593.917 " fill="none" id="TransmitCardSelectionRequestsRespBody-backto-CardSelectionResponse" style="stroke:#3498DB;stroke-width:2.0;stroke-dasharray:7.0,7.0;"/><polygon fill="#3498DB" points="543.709,533.348,542.0729,540.371,547.9264,544.5825,549.5625,537.5594,543.709,533.348" style="stroke:#3498DB;stroke-width:2.0;"/><text fill="#000000" font-family="sans-serif" font-size="13" lengthAdjust="spacing" textLength="20" x="542.6819" y="582.8886">0..*</text></g><!--reverse link CardSelectionResponse to CardResponse--><g id="link_CardSelectionResponse_CardResponse"><path codeLine="113" d="M761.667,655 C773.27,655 772.873,655 784.476,655 " fill="none" id="CardSelectionResponse-backto-CardResponse" style="stroke:#3498DB;stroke-width:2.0;stroke-dasharray:7.0,7.0;"/><polygon fill="#3498DB" points="749.667,655,755.667,659,761.667,655,755.667,651,749.667,655" style="stroke:#3498DB;stroke-width:2.0;"/><text fill="#000000" font-family="sans-serif" font-size="13" lengthAdjust="spacing" textLength="22" x="754.4003" y="651.5118">0..1</text></g><!--reverse link CardSelectionResponse to ApduResponse--><g id="link_CardSelectionResponse_ApduResponse"><path codeLine="114" d="M669.4975,723.7759 C693.5505,744.0279 710.668,758.441 732.642,776.9423 " fill="none" id="CardSelectionResponse-backto-ApduResponse" style="stroke:#3498DB;stroke-width:2.0;stroke-dasharray:7.0,7.0;"/><polygon fill="#3498DB" points="660.318,716.047,662.3315,722.9713,669.4975,723.7759,667.4841,716.8516,660.318,716.047" style="stroke:#3498DB;stroke-width:2.0;"/><text fill="#000000" font-family="sans-serif" font-size="13" lengthAdjust="spacing" textLength="22" x="701.0224" y="765.8368">0..1</text></g><!--reverse link CardResponse to ApduResponse--><g id="link_CardResponse_ApduResponse"><path codeLine="116" d="M866.7874,707.3877 C848.2734,731.6497 832.32,752.556 813.825,776.794 " fill="none" id="CardResponse-backto-ApduResponse" style="stroke:#3498DB;stroke-width:2.0;"/><polygon fill="#3498DB" points="874.067,697.848,867.2473,700.1913,866.7874,707.3877,873.6071,705.0444,874.067,697.848" style="stroke:#3498DB;stroke-width:2.0;"/><text fill="#000000" font-family="sans-serif" font-size="13" lengthAdjust="spacing" textLength="20" x="797.3034" y="765.6653">1..*</text></g><!--reverse link TransmitCardRequestRespBody to CardResponse--><g id="link_TransmitCardRequestRespBody_CardResponse"><path codeLine="118" d="M930.8075,545.0485 C925.2825,569.3105 921.015,588.056 915.496,612.294 " fill="none" id="TransmitCardRequestRespBody-backto-CardResponse" style="stroke:#3498DB;stroke-width:2.0;stroke-dasharray:7.0,7.0;"/><polygon fill="#3498DB" points="933.472,533.348,928.2396,538.3101,930.8075,545.0485,936.0399,540.0864,933.472,533.348" style="stroke:#3498DB;stroke-width:2.0;"/><text fill="#000000" font-family="sans-serif" font-size="13" lengthAdjust="spacing" textLength="22" x="893.2563" y="601.1653">0..1</text></g><!--SRC=[hLPjRzis4FwkNy6v7x89Y9FOJXq7JGkzK9rNnyai1qDG504ZNMmXjAYHL5rZs7yVzMf9bkskcp_9Ty_TyzpnTDG9khb1yr_nBLOFcdPYiPX2p0KAX8X181_GDLfA6OdhixEbN56FKSOzveFeUcnrziBF97ccGE9J7qwzBBh5f1v5i0XF8qhacVQJ3oz12CXw-ZZ3ZnV8kN96pgXXxY6dv_ITGSFSH_WI3t4JFK3sq3Pjks6-H9PXENQlONwBJDlgMyEAUJAUVaBzmUZADYlM1nUZtj30RyzLSz3fANBbXgg-o2MHo6VXYKHhnb_HEf1B5C8QVGKk0XOYze9KhQ6CLrI5QU8r22F2oGe92HoOt4HWc8pxmAsae-YDCR8jssa5Zcj0Ss0CyMKhqAfdjEqBizSAn3KWDaTzHPtMXwTsehSIPL4YH8QVBmFlDGGXK3MjmJbRLrqgqoDGojOxMOZtkk0i3lsSsS4Ejd0xMGwn1uPrRgkKC_2Fv7ltZeF__hrAQsCRMmVIbaWy7AWvq9Q16lJ2k6sJOhsFUKJXA76KmbBk0RQSuK7kBVWA3mQ6NT2Nzfg2PneVvqz0QJscS-cO1zaBQ3xhENTkhJ5_v03XKUf5WagvHyuGEmUvIsp-JkNaXRd9llaUyatARQWvmiUuKsZFwkFBAlMcpgoerKwqxgPpF9rdMn7Di7klUKbATAjcd2p0bWpzfI7rqtKI1HFu2bJNrRASngjduEW6zNElK05g8upzrErA7eIB8j2JobEngx2EhYTikjx9GHuD89HJjNBRKWZWQkNiyrBc4Je3ehem9IlO1N1OCGc74C_CtwJM6OZ8L7-qlpNoB2HNub7Mai9JDiHZ78pMflGgiWElXGxKCk6f6ITF7nIRwd_wd1z0-boXybkohB93gZhIF6FtoJ9czjEzQd5okZydhVubJpmM5k7-FGUX-btM1DyaX7vBaRibPAVNuDWUf4eSKvdYJSRK1HdcrSrdnjIz7S-pE1TFi3KVtqsVPlZt1-pEtRhCEIUXM0Ko4Ui2XNI6Pl2dkgwb-77PnqGKTTGBQOWG4Gi5VFwI59QfRGMKOfP4t1BfBS6ljYLtHcmD_2wqYIGLjH_AEfAaHXJHm2FLv2dMYFouC1GHdf9I0raLGrtnZj10JDX24L5hIS8Gw5q4OOjaKg4LEq8-Vob9gkRA7l7ZbZTS4XcBFzGgsndd-fdb9xL_Ml8X-Rzc9ETh7V1cQvLOGmZc1UbH2Kshh55TVNPqBZfR6M_ohx5hz9jWOLwmLhhrBWyMIzb5dVDkLyLb2o4FqhJlUp_qRXQlT_QCQ9cltTqKKPkQ8dPVQ1bL6uCQunQTTYSLseu-TC8LgbQ1sLqtCHxl7hAhBZEuyyS9FdZr5HyCUw-24b3RsblhVnxUCjM_sOgDeFRpQG7jyzLEf5hS3rmqPVW_]--></g></svg>