<?xml version="1.0" encoding="us-ascii" standalone="no"?><svg xmlns="http://www.w3.org/2000/svg" xmlns:xlink="http://www.w3.org/1999/xlink" contentStyleType="text/css" height="1253px" preserveAspectRatio="none" style="width:1176px;height:1253px;background:#FFFFFF;" version="1.1" viewBox="0 0 1176 1253" width="1176px" zoomAndPan="magnify"><defs/><g><!--class MessageDto--><g id="elem_MessageDto"><rect codeLine="161" fill="#E9F7EF" height="196.9688" id="MessageDto" rx="2.5" ry="2.5" style="stroke:#27AE60;stroke-width:2.0;" width="201" x="427.5" y="7"/><ellipse cx="484.25" cy="23" fill="#ADD1B2" rx="11" ry="11" style="stroke:#181818;stroke-width:1.0;"/><path d="M487.0156,18.875 Q487.1719,18.6563 487.3594,18.5469 Q487.5469,18.4375 487.7656,18.4375 Q488.1406,18.4375 488.375,18.7031 Q488.6094,18.9531 488.6094,19.5625 L488.6094,21.0156 Q488.6094,21.625 488.375,21.8906 Q488.1406,22.1563 487.7656,22.1563 Q487.4219,22.1563 487.2188,21.9531 Q487.0156,21.7656 486.9063,21.25 Q486.8594,20.8906 486.6719,20.7031 Q486.3438,20.3281 485.7344,20.1094 Q485.125,19.8906 484.5,19.8906 Q483.7344,19.8906 483.0938,20.2188 Q482.4688,20.5469 481.9688,21.2969 Q481.4844,22.0469 481.4844,23.0781 L481.4844,24.1719 Q481.4844,25.4063 482.375,26.2344 Q483.2656,27.0469 484.8594,27.0469 Q485.7969,27.0469 486.4531,26.7969 Q486.8438,26.6406 487.2656,26.2031 Q487.5313,25.9375 487.6719,25.8594 Q487.8281,25.7813 488.0313,25.7813 Q488.3594,25.7813 488.6094,26.0469 Q488.875,26.2969 488.875,26.6406 Q488.875,26.9844 488.5313,27.3906 Q488.0313,27.9688 487.2344,28.2969 Q486.1563,28.75 484.8594,28.75 Q483.3438,28.75 482.1406,28.125 Q481.1563,27.625 480.4688,26.5625 Q479.7813,25.4844 479.7813,24.2031 L479.7813,23.0469 Q479.7813,21.7188 480.3906,20.5781 Q481.0156,19.4219 482.1094,18.8125 Q483.2031,18.1875 484.4375,18.1875 Q485.1719,18.1875 485.8125,18.3594 Q486.4688,18.5156 487.0156,18.875 Z " fill="#000000"/><text fill="#000000" font-family="sans-serif" font-size="14" lengthAdjust="spacing" textLength="79" x="504.75" y="28.7969">MessageDto</text><line style="stroke:#27AE60;stroke-width:2.0;" x1="428.5" x2="627.5" y1="39" y2="39"/><text fill="#000000" font-family="sans-serif" font-size="14" font-weight="bold" lengthAdjust="spacing" textLength="60" x="433.5" y="58.1074">apiLevel</text><text fill="#000000" font-family="sans-serif" font-size="14" lengthAdjust="spacing" textLength="81" x="497.5" y="58.1074">: Number = 3</text><text fill="#000000" font-family="sans-serif" font-size="14" font-weight="bold" lengthAdjust="spacing" textLength="68" x="433.5" y="76.7285">sessionId</text><text fill="#000000" font-family="sans-serif" font-size="14" lengthAdjust="spacing" textLength="45" x="505.5" y="76.7285">: String</text><text fill="#000000" font-family="sans-serif" font-size="14" font-weight="bold" lengthAdjust="spacing" textLength="43" x="433.5" y="95.3496">action</text><text fill="#000000" font-family="sans-serif" font-size="14" lengthAdjust="spacing" textLength="66" x="480.5" y="95.3496">: String = "</text><text fill="#000000" font-family="sans-serif" font-size="14" font-weight="bold" lengthAdjust="spacing" textLength="33" x="546.5" y="95.3496">CMD</text><text fill="#000000" font-family="sans-serif" font-size="14" lengthAdjust="spacing" textLength="5" x="579.5" y="95.3496">"</text><text fill="#000000" font-family="sans-serif" font-size="14" font-weight="bold" lengthAdjust="spacing" textLength="89" x="433.5" y="113.9707">clientNodeId</text><text fill="#000000" font-family="sans-serif" font-size="14" lengthAdjust="spacing" textLength="45" x="526.5" y="113.9707">: String</text><text fill="#000000" font-family="sans-serif" font-size="14" font-weight="bold" lengthAdjust="spacing" textLength="97" x="433.5" y="132.5918">serverNodeId</text><text fill="#000000" font-family="sans-serif" font-size="14" lengthAdjust="spacing" textLength="45" x="534.5" y="132.5918">: String</text><text fill="#000000" font-family="sans-serif" font-size="14" font-weight="bold" lengthAdjust="spacing" textLength="123" x="433.5" y="151.2129">localReaderName</text><text fill="#000000" font-family="sans-serif" font-size="14" lengthAdjust="spacing" textLength="45" x="560.5" y="151.2129">: String</text><text fill="#000000" font-family="sans-serif" font-size="14" font-weight="bold" lengthAdjust="spacing" textLength="140" x="433.5" y="169.834">remoteReaderName</text><text fill="#000000" font-family="sans-serif" font-size="14" lengthAdjust="spacing" textLength="45" x="577.5" y="169.834">: String</text><text fill="#000000" font-family="sans-serif" font-size="14" font-weight="bold" lengthAdjust="spacing" textLength="34" x="433.5" y="188.4551">body</text><text fill="#000000" font-family="sans-serif" font-size="14" lengthAdjust="spacing" textLength="69" x="471.5" y="188.4551">: CmdBody</text><line style="stroke:#27AE60;stroke-width:2.0;" x1="428.5" x2="627.5" y1="195.9688" y2="195.9688"/></g><!--class CmdBody--><g id="elem_CmdBody"><rect codeLine="162" fill="#E9F7EF" height="85.2422" id="CmdBody" rx="2.5" ry="2.5" style="stroke:#27AE60;stroke-width:2.0;" width="190" x="433" y="283"/><ellipse cx="493.25" cy="299" fill="#A9DCDF" rx="11" ry="11" style="stroke:#181818;stroke-width:1.0;"/><path d="M495.4375,300.7656 L491.2969,300.7656 L490.875,301.7969 L491.2969,301.7969 Q491.9063,301.7969 492.1719,302.0313 Q492.4375,302.2656 492.4375,302.6563 Q492.4375,303.0313 492.1719,303.2656 Q491.9063,303.5 491.2969,303.5 L489,303.5 Q488.3906,303.5 488.1406,303.2656 Q487.875,303.0313 487.875,302.6406 Q487.875,302.2656 488.1563,302.0313 Q488.4219,301.7813 489.0469,301.7969 L491.7188,295.1406 L490.6094,295.1406 Q490,295.1406 489.7344,294.9063 Q489.4688,294.6719 489.4688,294.2813 Q489.4688,293.9063 489.7344,293.6719 Q490,293.4375 490.6094,293.4375 L494.2813,293.4375 L497.6719,301.7969 Q498.2656,301.7969 498.4531,301.9375 Q498.8438,302.2031 498.8438,302.6563 Q498.8438,303.0313 498.5781,303.2656 Q498.3281,303.5 497.7188,303.5 L495.4219,303.5 Q494.8125,303.5 494.5469,303.2656 Q494.2813,303.0313 494.2813,302.6406 Q494.2813,302.2656 494.5469,302.0313 Q494.8125,301.7969 495.4219,301.7969 L495.8438,301.7969 L495.4375,300.7656 Z M494.7188,299.0625 L493.3594,295.6875 L491.9844,299.0625 L494.7188,299.0625 Z " fill="#000000"/><text fill="#000000" font-family="sans-serif" font-size="14" font-style="italic" lengthAdjust="spacing" textLength="61" x="513.75" y="304.7969">CmdBody</text><line style="stroke:#27AE60;stroke-width:2.0;" x1="434" x2="622" y1="315" y2="315"/><text fill="#000000" font-family="sans-serif" font-size="14" font-weight="bold" lengthAdjust="spacing" textLength="93" x="439" y="334.1074">coreApiLevel</text><text fill="#000000" font-family="sans-serif" font-size="14" lengthAdjust="spacing" textLength="81" x="536" y="334.1074">: Number = 2</text><text fill="#000000" font-family="sans-serif" font-size="14" font-weight="bold" lengthAdjust="spacing" textLength="53" x="439" y="352.7285">service</text><text fill="#000000" font-family="sans-serif" font-size="14" lengthAdjust="spacing" textLength="45" x="496" y="352.7285">: String</text><line style="stroke:#27AE60;stroke-width:2.0;" x1="434" x2="622" y1="360.2422" y2="360.2422"/></g><!--class IsCardPresentCmdBody--><g id="elem_IsCardPresentCmdBody"><rect codeLine="177" fill="#E9F7EF" height="66.6211" id="IsCardPresentCmdBody" rx="2.5" ry="2.5" style="stroke:#27AE60;stroke-width:2.0;" width="272" x="7" y="438"/><ellipse cx="63.25" cy="454" fill="#ADD1B2" rx="11" ry="11" style="stroke:#181818;stroke-width:1.0;"/><path d="M66.0156,449.875 Q66.1719,449.6563 66.3594,449.5469 Q66.5469,449.4375 66.7656,449.4375 Q67.1406,449.4375 67.375,449.7031 Q67.6094,449.9531 67.6094,450.5625 L67.6094,452.0156 Q67.6094,452.625 67.375,452.8906 Q67.1406,453.1563 66.7656,453.1563 Q66.4219,453.1563 66.2188,452.9531 Q66.0156,452.7656 65.9063,452.25 Q65.8594,451.8906 65.6719,451.7031 Q65.3438,451.3281 64.7344,451.1094 Q64.125,450.8906 63.5,450.8906 Q62.7344,450.8906 62.0938,451.2188 Q61.4688,451.5469 60.9688,452.2969 Q60.4844,453.0469 60.4844,454.0781 L60.4844,455.1719 Q60.4844,456.4063 61.375,457.2344 Q62.2656,458.0469 63.8594,458.0469 Q64.7969,458.0469 65.4531,457.7969 Q65.8438,457.6406 66.2656,457.2031 Q66.5313,456.9375 66.6719,456.8594 Q66.8281,456.7813 67.0313,456.7813 Q67.3594,456.7813 67.6094,457.0469 Q67.875,457.2969 67.875,457.6406 Q67.875,457.9844 67.5313,458.3906 Q67.0313,458.9688 66.2344,459.2969 Q65.1563,459.75 63.8594,459.75 Q62.3438,459.75 61.1406,459.125 Q60.1563,458.625 59.4688,457.5625 Q58.7813,456.4844 58.7813,455.2031 L58.7813,454.0469 Q58.7813,452.7188 59.3906,451.5781 Q60.0156,450.4219 61.1094,449.8125 Q62.2031,449.1875 63.4375,449.1875 Q64.1719,449.1875 64.8125,449.3594 Q65.4688,449.5156 66.0156,449.875 Z " fill="#000000"/><text fill="#000000" font-family="sans-serif" font-size="14" lengthAdjust="spacing" textLength="151" x="83.75" y="459.7969">IsCardPresentCmdBody</text><line style="stroke:#27AE60;stroke-width:2.0;" x1="8" x2="278" y1="470" y2="470"/><text fill="#000000" font-family="sans-serif" font-size="14" font-weight="bold" lengthAdjust="spacing" textLength="53" x="13" y="489.1074">service</text><text fill="#000000" font-family="sans-serif" font-size="14" lengthAdjust="spacing" textLength="66" x="70" y="489.1074">: String = "</text><text fill="#000000" font-family="sans-serif" font-size="14" font-weight="bold" lengthAdjust="spacing" textLength="132" x="136" y="489.1074">IS_CARD_PRESENT</text><text fill="#000000" font-family="sans-serif" font-size="14" lengthAdjust="spacing" textLength="5" x="268" y="489.1074">"</text><line style="stroke:#27AE60;stroke-width:2.0;" x1="8" x2="278" y1="496.6211" y2="496.6211"/></g><!--class TransmitCardSelectionRequestsCmdBody--><g id="elem_TransmitCardSelectionRequestsCmdBody"><rect codeLine="165" fill="#E9F7EF" height="85.2422" id="TransmitCardSelectionRequestsCmdBody" rx="2.5" ry="2.5" style="stroke:#27AE60;stroke-width:2.0;" width="427" x="314.5" y="429"/><ellipse cx="391.25" cy="445" fill="#ADD1B2" rx="11" ry="11" style="stroke:#181818;stroke-width:1.0;"/><path d="M394.0156,440.875 Q394.1719,440.6563 394.3594,440.5469 Q394.5469,440.4375 394.7656,440.4375 Q395.1406,440.4375 395.375,440.7031 Q395.6094,440.9531 395.6094,441.5625 L395.6094,443.0156 Q395.6094,443.625 395.375,443.8906 Q395.1406,444.1563 394.7656,444.1563 Q394.4219,444.1563 394.2188,443.9531 Q394.0156,443.7656 393.9063,443.25 Q393.8594,442.8906 393.6719,442.7031 Q393.3438,442.3281 392.7344,442.1094 Q392.125,441.8906 391.5,441.8906 Q390.7344,441.8906 390.0938,442.2188 Q389.4688,442.5469 388.9688,443.2969 Q388.4844,444.0469 388.4844,445.0781 L388.4844,446.1719 Q388.4844,447.4063 389.375,448.2344 Q390.2656,449.0469 391.8594,449.0469 Q392.7969,449.0469 393.4531,448.7969 Q393.8438,448.6406 394.2656,448.2031 Q394.5313,447.9375 394.6719,447.8594 Q394.8281,447.7813 395.0313,447.7813 Q395.3594,447.7813 395.6094,448.0469 Q395.875,448.2969 395.875,448.6406 Q395.875,448.9844 395.5313,449.3906 Q395.0313,449.9688 394.2344,450.2969 Q393.1563,450.75 391.8594,450.75 Q390.3438,450.75 389.1406,450.125 Q388.1563,449.625 387.4688,448.5625 Q386.7813,447.4844 386.7813,446.2031 L386.7813,445.0469 Q386.7813,443.7188 387.3906,442.5781 Q388.0156,441.4219 389.1094,440.8125 Q390.2031,440.1875 391.4375,440.1875 Q392.1719,440.1875 392.8125,440.3594 Q393.4688,440.5156 394.0156,440.875 Z " fill="#000000"/><text fill="#000000" font-family="sans-serif" font-size="14" lengthAdjust="spacing" textLength="265" x="411.75" y="450.7969">TransmitCardSelectionRequestsCmdBody</text><line style="stroke:#27AE60;stroke-width:2.0;" x1="315.5" x2="740.5" y1="461" y2="461"/><text fill="#000000" font-family="sans-serif" font-size="14" font-weight="bold" lengthAdjust="spacing" textLength="53" x="320.5" y="480.1074">service</text><text fill="#000000" font-family="sans-serif" font-size="14" lengthAdjust="spacing" textLength="66" x="377.5" y="480.1074">: String = "</text><text fill="#000000" font-family="sans-serif" font-size="14" font-weight="bold" lengthAdjust="spacing" textLength="287" x="443.5" y="480.1074">TRANSMIT_CARD_SELECTION_REQUESTS</text><text fill="#000000" font-family="sans-serif" font-size="14" lengthAdjust="spacing" textLength="5" x="730.5" y="480.1074">"</text><text fill="#000000" font-family="sans-serif" font-size="14" font-weight="bold" lengthAdjust="spacing" textLength="80" x="320.5" y="498.7285">parameters</text><text fill="#000000" font-family="sans-serif" font-size="14" lengthAdjust="spacing" textLength="314" x="404.5" y="498.7285">: TransmitCardSelectionRequestsCmdParameters</text><line style="stroke:#27AE60;stroke-width:2.0;" x1="315.5" x2="740.5" y1="506.2422" y2="506.2422"/></g><!--class TransmitCardSelectionRequestsCmdParameters--><g id="elem_TransmitCardSelectionRequestsCmdParameters"><rect codeLine="166" fill="#E9F7EF" height="122.4844" id="TransmitCardSelectionRequestsCmdParameters" rx="2.5" ry="2.5" style="stroke:#27AE60;stroke-width:2.0;" width="360" x="318" y="575"/><ellipse cx="342.9" cy="591" fill="#ADD1B2" rx="11" ry="11" style="stroke:#181818;stroke-width:1.0;"/><path d="M345.6656,586.875 Q345.8219,586.6563 346.0094,586.5469 Q346.1969,586.4375 346.4156,586.4375 Q346.7906,586.4375 347.025,586.7031 Q347.2594,586.9531 347.2594,587.5625 L347.2594,589.0156 Q347.2594,589.625 347.025,589.8906 Q346.7906,590.1563 346.4156,590.1563 Q346.0719,590.1563 345.8688,589.9531 Q345.6656,589.7656 345.5563,589.25 Q345.5094,588.8906 345.3219,588.7031 Q344.9938,588.3281 344.3844,588.1094 Q343.775,587.8906 343.15,587.8906 Q342.3844,587.8906 341.7438,588.2188 Q341.1188,588.5469 340.6188,589.2969 Q340.1344,590.0469 340.1344,591.0781 L340.1344,592.1719 Q340.1344,593.4063 341.025,594.2344 Q341.9156,595.0469 343.5094,595.0469 Q344.4469,595.0469 345.1031,594.7969 Q345.4938,594.6406 345.9156,594.2031 Q346.1813,593.9375 346.3219,593.8594 Q346.4781,593.7813 346.6813,593.7813 Q347.0094,593.7813 347.2594,594.0469 Q347.525,594.2969 347.525,594.6406 Q347.525,594.9844 347.1813,595.3906 Q346.6813,595.9688 345.8844,596.2969 Q344.8063,596.75 343.5094,596.75 Q341.9938,596.75 340.7906,596.125 Q339.8063,595.625 339.1188,594.5625 Q338.4313,593.4844 338.4313,592.2031 L338.4313,591.0469 Q338.4313,589.7188 339.0406,588.5781 Q339.6656,587.4219 340.7594,586.8125 Q341.8531,586.1875 343.0875,586.1875 Q343.8219,586.1875 344.4625,586.3594 Q345.1188,586.5156 345.6656,586.875 Z " fill="#000000"/><text fill="#000000" font-family="sans-serif" font-size="14" lengthAdjust="spacing" textLength="306" x="359.1" y="596.7969">TransmitCardSelectionRequestsCmdParameters</text><line style="stroke:#27AE60;stroke-width:2.0;" x1="319" x2="677" y1="607" y2="607"/><text fill="#000000" font-family="sans-serif" font-size="14" font-weight="bold" lengthAdjust="spacing" textLength="179" x="324" y="626.1074">multiSelectionProcessing</text><text fill="#000000" font-family="sans-serif" font-size="14" lengthAdjust="spacing" textLength="165" x="507" y="626.1074">: MultiSelectionProcessing</text><text fill="#000000" font-family="sans-serif" font-size="14" font-weight="bold" lengthAdjust="spacing" textLength="108" x="324" y="644.7285">channelControl</text><text fill="#000000" font-family="sans-serif" font-size="14" lengthAdjust="spacing" textLength="107" x="436" y="644.7285">: ChannelControl</text><text fill="#000000" font-family="sans-serif" font-size="14" font-weight="bold" lengthAdjust="spacing" textLength="98" x="324" y="663.3496">cardSelectors</text><text fill="#000000" font-family="sans-serif" font-size="14" lengthAdjust="spacing" textLength="99" x="426" y="663.3496">: CardSelector[]</text><text fill="#000000" font-family="sans-serif" font-size="14" font-weight="bold" lengthAdjust="spacing" textLength="164" x="324" y="681.9707">cardSelectionRequests</text><text fill="#000000" font-family="sans-serif" font-size="14" lengthAdjust="spacing" textLength="158" x="492" y="681.9707">: CardSelectionRequest[]</text><line style="stroke:#27AE60;stroke-width:2.0;" x1="319" x2="677" y1="689.4844" y2="689.4844"/></g><!--class MultiSelectionProcessing--><g id="elem_MultiSelectionProcessing"><rect codeLine="82" fill="#FEFECE" height="85.2422" id="MultiSelectionProcessing" rx="2.5" ry="2.5" style="stroke:#D4AC0D;stroke-width:2.0;" width="189" x="93.5" y="593.5"/><ellipse cx="108.5" cy="609.5" fill="#EB937F" rx="11" ry="11" style="stroke:#181818;stroke-width:1.0;"/><path d="M107.3594,610.2969 L107.3594,612.7969 L111.6875,612.7969 L111.6875,611.875 Q111.6875,611.2656 111.9219,611 Q112.1719,610.7344 112.5469,610.7344 Q112.9219,610.7344 113.1563,611 Q113.3906,611.2656 113.3906,611.875 L113.3906,614.5 L105.3906,614.5 Q104.7656,614.5 104.5,614.2656 Q104.25,614.0313 104.25,613.6406 Q104.25,613.2656 104.5156,613.0313 Q104.7813,612.7969 105.3906,612.7969 L105.6563,612.7969 L105.6563,606.1406 L105.3906,606.1406 Q104.7656,606.1406 104.5,605.9063 Q104.25,605.6719 104.25,605.2813 Q104.25,604.9063 104.5,604.6719 Q104.7656,604.4375 105.3906,604.4375 L113.0156,604.4375 L113.0156,607.0313 Q113.0156,607.6406 112.7813,607.9063 Q112.5625,608.1563 112.1719,608.1563 Q111.7969,608.1563 111.5625,607.9063 Q111.3281,607.6406 111.3281,607.0313 L111.3281,606.1406 L107.3594,606.1406 L107.3594,608.5938 L108.8438,608.5938 Q108.8438,607.9375 108.9688,607.75 Q109.2344,607.3438 109.7031,607.3438 Q110.0781,607.3438 110.3125,607.6094 Q110.5469,607.8594 110.5469,608.4688 L110.5469,610.4375 Q110.5469,610.9844 110.4219,611.1719 Q110.1563,611.5625 109.7031,611.5625 Q109.2344,611.5625 108.9688,611.1563 Q108.8438,610.9688 108.8438,610.2969 L107.3594,610.2969 Z " fill="#000000"/><text fill="#000000" font-family="sans-serif" font-size="14" lengthAdjust="spacing" textLength="157" x="122.5" y="615.2969">MultiSelectionProcessing</text><line style="stroke:#D4AC0D;stroke-width:2.0;" x1="94.5" x2="281.5" y1="625.5" y2="625.5"/><text fill="#000000" font-family="sans-serif" font-size="14" lengthAdjust="spacing" textLength="96" x="99.5" y="644.6074">FIRST_MATCH</text><text fill="#000000" font-family="sans-serif" font-size="14" lengthAdjust="spacing" textLength="100" x="99.5" y="663.2285">PROCESS_ALL</text><line style="stroke:#D4AC0D;stroke-width:2.0;" x1="94.5" x2="281.5" y1="670.7422" y2="670.7422"/></g><!--class CardSelector--><g id="elem_CardSelector"><rect codeLine="168" fill="#E9F7EF" height="141.1055" id="CardSelector" rx="2.5" ry="2.5" style="stroke:#27AE60;stroke-width:2.0;" width="317" x="310.5" y="758"/><ellipse cx="423.25" cy="774" fill="#ADD1B2" rx="11" ry="11" style="stroke:#181818;stroke-width:1.0;"/><path d="M426.0156,769.875 Q426.1719,769.6563 426.3594,769.5469 Q426.5469,769.4375 426.7656,769.4375 Q427.1406,769.4375 427.375,769.7031 Q427.6094,769.9531 427.6094,770.5625 L427.6094,772.0156 Q427.6094,772.625 427.375,772.8906 Q427.1406,773.1563 426.7656,773.1563 Q426.4219,773.1563 426.2188,772.9531 Q426.0156,772.7656 425.9063,772.25 Q425.8594,771.8906 425.6719,771.7031 Q425.3438,771.3281 424.7344,771.1094 Q424.125,770.8906 423.5,770.8906 Q422.7344,770.8906 422.0938,771.2188 Q421.4688,771.5469 420.9688,772.2969 Q420.4844,773.0469 420.4844,774.0781 L420.4844,775.1719 Q420.4844,776.4063 421.375,777.2344 Q422.2656,778.0469 423.8594,778.0469 Q424.7969,778.0469 425.4531,777.7969 Q425.8438,777.6406 426.2656,777.2031 Q426.5313,776.9375 426.6719,776.8594 Q426.8281,776.7813 427.0313,776.7813 Q427.3594,776.7813 427.6094,777.0469 Q427.875,777.2969 427.875,777.6406 Q427.875,777.9844 427.5313,778.3906 Q427.0313,778.9688 426.2344,779.2969 Q425.1563,779.75 423.8594,779.75 Q422.3438,779.75 421.1406,779.125 Q420.1563,778.625 419.4688,777.5625 Q418.7813,776.4844 418.7813,775.2031 L418.7813,774.0469 Q418.7813,772.7188 419.3906,771.5781 Q420.0156,770.4219 421.1094,769.8125 Q422.2031,769.1875 423.4375,769.1875 Q424.1719,769.1875 424.8125,769.3594 Q425.4688,769.5156 426.0156,769.875 Z " fill="#000000"/><text fill="#000000" font-family="sans-serif" font-size="14" lengthAdjust="spacing" textLength="83" x="443.75" y="779.7969">CardSelector</text><line style="stroke:#27AE60;stroke-width:2.0;" x1="311.5" x2="626.5" y1="790" y2="790"/><text fill="#000000" font-family="sans-serif" font-size="14" font-weight="bold" lengthAdjust="spacing" textLength="144" x="316.5" y="809.1074">logicalProtocolName</text><text fill="#000000" font-family="sans-serif" font-size="14" lengthAdjust="spacing" textLength="53" x="464.5" y="809.1074">: String?</text><text fill="#000000" font-family="sans-serif" font-size="14" font-weight="bold" lengthAdjust="spacing" textLength="140" x="316.5" y="827.7285">powerOnDataRegex</text><text fill="#000000" font-family="sans-serif" font-size="14" lengthAdjust="spacing" textLength="53" x="460.5" y="827.7285">: String?</text><text fill="#000000" font-family="sans-serif" font-size="14" font-weight="bold" lengthAdjust="spacing" textLength="21" x="316.5" y="846.3496">aid</text><text fill="#000000" font-family="sans-serif" font-size="14" lengthAdjust="spacing" textLength="53" x="341.5" y="846.3496">: String?</text><text fill="#000000" font-family="sans-serif" font-size="14" font-weight="bold" lengthAdjust="spacing" textLength="105" x="316.5" y="864.9707">fileOccurrence</text><text fill="#000000" font-family="sans-serif" font-size="14" lengthAdjust="spacing" textLength="105" x="425.5" y="864.9707">: FileOccurrence</text><text fill="#000000" font-family="sans-serif" font-size="14" font-weight="bold" lengthAdjust="spacing" textLength="154" x="316.5" y="883.5918">fileControlInformation</text><text fill="#000000" font-family="sans-serif" font-size="14" lengthAdjust="spacing" textLength="147" x="474.5" y="883.5918">: FileControlInformation</text><line style="stroke:#27AE60;stroke-width:2.0;" x1="311.5" x2="626.5" y1="891.1055" y2="891.1055"/></g><!--class FileOccurrence--><g id="elem_FileOccurrence"><rect codeLine="93" fill="#FEFECE" height="122.4844" id="FileOccurrence" rx="2.5" ry="2.5" style="stroke:#D4AC0D;stroke-width:2.0;" width="129" x="348.5" y="960"/><ellipse cx="363.5" cy="976" fill="#EB937F" rx="11" ry="11" style="stroke:#181818;stroke-width:1.0;"/><path d="M362.3594,976.7969 L362.3594,979.2969 L366.6875,979.2969 L366.6875,978.375 Q366.6875,977.7656 366.9219,977.5 Q367.1719,977.2344 367.5469,977.2344 Q367.9219,977.2344 368.1563,977.5 Q368.3906,977.7656 368.3906,978.375 L368.3906,981 L360.3906,981 Q359.7656,981 359.5,980.7656 Q359.25,980.5313 359.25,980.1406 Q359.25,979.7656 359.5156,979.5313 Q359.7813,979.2969 360.3906,979.2969 L360.6563,979.2969 L360.6563,972.6406 L360.3906,972.6406 Q359.7656,972.6406 359.5,972.4063 Q359.25,972.1719 359.25,971.7813 Q359.25,971.4063 359.5,971.1719 Q359.7656,970.9375 360.3906,970.9375 L368.0156,970.9375 L368.0156,973.5313 Q368.0156,974.1406 367.7813,974.4063 Q367.5625,974.6563 367.1719,974.6563 Q366.7969,974.6563 366.5625,974.4063 Q366.3281,974.1406 366.3281,973.5313 L366.3281,972.6406 L362.3594,972.6406 L362.3594,975.0938 L363.8438,975.0938 Q363.8438,974.4375 363.9688,974.25 Q364.2344,973.8438 364.7031,973.8438 Q365.0781,973.8438 365.3125,974.1094 Q365.5469,974.3594 365.5469,974.9688 L365.5469,976.9375 Q365.5469,977.4844 365.4219,977.6719 Q365.1563,978.0625 364.7031,978.0625 Q364.2344,978.0625 363.9688,977.6563 Q363.8438,977.4688 363.8438,976.7969 L362.3594,976.7969 Z " fill="#000000"/><text fill="#000000" font-family="sans-serif" font-size="14" lengthAdjust="spacing" textLength="97" x="377.5" y="981.7969">FileOccurrence</text><line style="stroke:#D4AC0D;stroke-width:2.0;" x1="349.5" x2="476.5" y1="992" y2="992"/><text fill="#000000" font-family="sans-serif" font-size="14" lengthAdjust="spacing" textLength="40" x="354.5" y="1011.1074">FIRST</text><text fill="#000000" font-family="sans-serif" font-size="14" lengthAdjust="spacing" textLength="35" x="354.5" y="1029.7285">LAST</text><text fill="#000000" font-family="sans-serif" font-size="14" lengthAdjust="spacing" textLength="35" x="354.5" y="1048.3496">NEXT</text><text fill="#000000" font-family="sans-serif" font-size="14" lengthAdjust="spacing" textLength="69" x="354.5" y="1066.9707">PREVIOUS</text><line style="stroke:#D4AC0D;stroke-width:2.0;" x1="349.5" x2="476.5" y1="1074.4844" y2="1074.4844"/></g><!--class FileControlInformation--><g id="elem_FileControlInformation"><rect codeLine="99" fill="#FEFECE" height="122.4844" id="FileControlInformation" rx="2.5" ry="2.5" style="stroke:#D4AC0D;stroke-width:2.0;" width="171" x="512.5" y="960"/><ellipse cx="527.5" cy="976" fill="#EB937F" rx="11" ry="11" style="stroke:#181818;stroke-width:1.0;"/><path d="M526.3594,976.7969 L526.3594,979.2969 L530.6875,979.2969 L530.6875,978.375 Q530.6875,977.7656 530.9219,977.5 Q531.1719,977.2344 531.5469,977.2344 Q531.9219,977.2344 532.1563,977.5 Q532.3906,977.7656 532.3906,978.375 L532.3906,981 L524.3906,981 Q523.7656,981 523.5,980.7656 Q523.25,980.5313 523.25,980.1406 Q523.25,979.7656 523.5156,979.5313 Q523.7813,979.2969 524.3906,979.2969 L524.6563,979.2969 L524.6563,972.6406 L524.3906,972.6406 Q523.7656,972.6406 523.5,972.4063 Q523.25,972.1719 523.25,971.7813 Q523.25,971.4063 523.5,971.1719 Q523.7656,970.9375 524.3906,970.9375 L532.0156,970.9375 L532.0156,973.5313 Q532.0156,974.1406 531.7813,974.4063 Q531.5625,974.6563 531.1719,974.6563 Q530.7969,974.6563 530.5625,974.4063 Q530.3281,974.1406 530.3281,973.5313 L530.3281,972.6406 L526.3594,972.6406 L526.3594,975.0938 L527.8438,975.0938 Q527.8438,974.4375 527.9688,974.25 Q528.2344,973.8438 528.7031,973.8438 Q529.0781,973.8438 529.3125,974.1094 Q529.5469,974.3594 529.5469,974.9688 L529.5469,976.9375 Q529.5469,977.4844 529.4219,977.6719 Q529.1563,978.0625 528.7031,978.0625 Q528.2344,978.0625 527.9688,977.6563 Q527.8438,977.4688 527.8438,976.7969 L526.3594,976.7969 Z " fill="#000000"/><text fill="#000000" font-family="sans-serif" font-size="14" lengthAdjust="spacing" textLength="139" x="541.5" y="981.7969">FileControlInformation</text><line style="stroke:#D4AC0D;stroke-width:2.0;" x1="513.5" x2="682.5" y1="992" y2="992"/><text fill="#000000" font-family="sans-serif" font-size="14" lengthAdjust="spacing" textLength="22" x="518.5" y="1011.1074">FCI</text><text fill="#000000" font-family="sans-serif" font-size="14" lengthAdjust="spacing" textLength="28" x="518.5" y="1029.7285">FCP</text><text fill="#000000" font-family="sans-serif" font-size="14" lengthAdjust="spacing" textLength="30" x="518.5" y="1048.3496">FMD</text><text fill="#000000" font-family="sans-serif" font-size="14" lengthAdjust="spacing" textLength="103" x="518.5" y="1066.9707">NO_RESPONSE</text><line style="stroke:#D4AC0D;stroke-width:2.0;" x1="513.5" x2="682.5" y1="1074.4844" y2="1074.4844"/></g><!--class CardSelectionRequest--><g id="elem_CardSelectionRequest"><rect codeLine="167" fill="#E9F7EF" height="85.2422" id="CardSelectionRequest" rx="2.5" ry="2.5" style="stroke:#27AE60;stroke-width:2.0;" width="300" x="663" y="786"/><ellipse cx="737.75" cy="802" fill="#ADD1B2" rx="11" ry="11" style="stroke:#181818;stroke-width:1.0;"/><path d="M740.5156,797.875 Q740.6719,797.6563 740.8594,797.5469 Q741.0469,797.4375 741.2656,797.4375 Q741.6406,797.4375 741.875,797.7031 Q742.1094,797.9531 742.1094,798.5625 L742.1094,800.0156 Q742.1094,800.625 741.875,800.8906 Q741.6406,801.1563 741.2656,801.1563 Q740.9219,801.1563 740.7188,800.9531 Q740.5156,800.7656 740.4063,800.25 Q740.3594,799.8906 740.1719,799.7031 Q739.8438,799.3281 739.2344,799.1094 Q738.625,798.8906 738,798.8906 Q737.2344,798.8906 736.5938,799.2188 Q735.9688,799.5469 735.4688,800.2969 Q734.9844,801.0469 734.9844,802.0781 L734.9844,803.1719 Q734.9844,804.4063 735.875,805.2344 Q736.7656,806.0469 738.3594,806.0469 Q739.2969,806.0469 739.9531,805.7969 Q740.3438,805.6406 740.7656,805.2031 Q741.0313,804.9375 741.1719,804.8594 Q741.3281,804.7813 741.5313,804.7813 Q741.8594,804.7813 742.1094,805.0469 Q742.375,805.2969 742.375,805.6406 Q742.375,805.9844 742.0313,806.3906 Q741.5313,806.9688 740.7344,807.2969 Q739.6563,807.75 738.3594,807.75 Q736.8438,807.75 735.6406,807.125 Q734.6563,806.625 733.9688,805.5625 Q733.2813,804.4844 733.2813,803.2031 L733.2813,802.0469 Q733.2813,800.7188 733.8906,799.5781 Q734.5156,798.4219 735.6094,797.8125 Q736.7031,797.1875 737.9375,797.1875 Q738.6719,797.1875 739.3125,797.3594 Q739.9688,797.5156 740.5156,797.875 Z " fill="#000000"/><text fill="#000000" font-family="sans-serif" font-size="14" lengthAdjust="spacing" textLength="142" x="758.25" y="807.7969">CardSelectionRequest</text><line style="stroke:#27AE60;stroke-width:2.0;" x1="664" x2="962" y1="818" y2="818"/><text fill="#000000" font-family="sans-serif" font-size="14" font-weight="bold" lengthAdjust="spacing" textLength="90" x="669" y="837.1074">cardRequest</text><text fill="#000000" font-family="sans-serif" font-size="14" lengthAdjust="spacing" textLength="100" x="763" y="837.1074">: CardRequest?</text><text fill="#000000" font-family="sans-serif" font-size="14" font-weight="bold" lengthAdjust="spacing" textLength="231" x="669" y="855.7285">successfulSelectionStatusWords</text><text fill="#000000" font-family="sans-serif" font-size="14" lengthAdjust="spacing" textLength="53" x="904" y="855.7285">: String[]</text><line style="stroke:#27AE60;stroke-width:2.0;" x1="664" x2="962" y1="863.2422" y2="863.2422"/></g><!--class CardRequest--><g id="elem_CardRequest"><rect codeLine="169" fill="#E9F7EF" height="85.2422" id="CardRequest" rx="2.5" ry="2.5" style="stroke:#27AE60;stroke-width:2.0;" width="303" x="791.5" y="978.5"/><ellipse cx="896.75" cy="994.5" fill="#ADD1B2" rx="11" ry="11" style="stroke:#181818;stroke-width:1.0;"/><path d="M899.5156,990.375 Q899.6719,990.1563 899.8594,990.0469 Q900.0469,989.9375 900.2656,989.9375 Q900.6406,989.9375 900.875,990.2031 Q901.1094,990.4531 901.1094,991.0625 L901.1094,992.5156 Q901.1094,993.125 900.875,993.3906 Q900.6406,993.6563 900.2656,993.6563 Q899.9219,993.6563 899.7188,993.4531 Q899.5156,993.2656 899.4063,992.75 Q899.3594,992.3906 899.1719,992.2031 Q898.8438,991.8281 898.2344,991.6094 Q897.625,991.3906 897,991.3906 Q896.2344,991.3906 895.5938,991.7188 Q894.9688,992.0469 894.4688,992.7969 Q893.9844,993.5469 893.9844,994.5781 L893.9844,995.6719 Q893.9844,996.9063 894.875,997.7344 Q895.7656,998.5469 897.3594,998.5469 Q898.2969,998.5469 898.9531,998.2969 Q899.3438,998.1406 899.7656,997.7031 Q900.0313,997.4375 900.1719,997.3594 Q900.3281,997.2813 900.5313,997.2813 Q900.8594,997.2813 901.1094,997.5469 Q901.375,997.7969 901.375,998.1406 Q901.375,998.4844 901.0313,998.8906 Q900.5313,999.4688 899.7344,999.7969 Q898.6563,1000.25 897.3594,1000.25 Q895.8438,1000.25 894.6406,999.625 Q893.6563,999.125 892.9688,998.0625 Q892.2813,996.9844 892.2813,995.7031 L892.2813,994.5469 Q892.2813,993.2188 892.8906,992.0781 Q893.5156,990.9219 894.6094,990.3125 Q895.7031,989.6875 896.9375,989.6875 Q897.6719,989.6875 898.3125,989.8594 Q898.9688,990.0156 899.5156,990.375 Z " fill="#000000"/><text fill="#000000" font-family="sans-serif" font-size="14" lengthAdjust="spacing" textLength="84" x="917.25" y="1000.2969">CardRequest</text><line style="stroke:#27AE60;stroke-width:2.0;" x1="792.5" x2="1093.5" y1="1010.5" y2="1010.5"/><text fill="#000000" font-family="sans-serif" font-size="14" font-weight="bold" lengthAdjust="spacing" textLength="102" x="797.5" y="1029.6074">apduRequests</text><text fill="#000000" font-family="sans-serif" font-size="14" lengthAdjust="spacing" textLength="102" x="903.5" y="1029.6074">: ApduRequest[]</text><text fill="#000000" font-family="sans-serif" font-size="14" font-weight="bold" lengthAdjust="spacing" textLength="227" x="797.5" y="1048.2285">stopOnUnsuccessfulStatusWord</text><text fill="#000000" font-family="sans-serif" font-size="14" lengthAdjust="spacing" textLength="60" x="1028.5" y="1048.2285">: Boolean</text><line style="stroke:#27AE60;stroke-width:2.0;" x1="792.5" x2="1093.5" y1="1055.7422" y2="1055.7422"/></g><!--class ApduRequest--><g id="elem_ApduRequest"><rect codeLine="170" fill="#E9F7EF" height="103.8633" id="ApduRequest" rx="2.5" ry="2.5" style="stroke:#27AE60;stroke-width:2.0;" width="234" x="826" y="1143"/><ellipse cx="895.75" cy="1159" fill="#ADD1B2" rx="11" ry="11" style="stroke:#181818;stroke-width:1.0;"/><path d="M898.5156,1154.875 Q898.6719,1154.6563 898.8594,1154.5469 Q899.0469,1154.4375 899.2656,1154.4375 Q899.6406,1154.4375 899.875,1154.7031 Q900.1094,1154.9531 900.1094,1155.5625 L900.1094,1157.0156 Q900.1094,1157.625 899.875,1157.8906 Q899.6406,1158.1563 899.2656,1158.1563 Q898.9219,1158.1563 898.7188,1157.9531 Q898.5156,1157.7656 898.4063,1157.25 Q898.3594,1156.8906 898.1719,1156.7031 Q897.8438,1156.3281 897.2344,1156.1094 Q896.625,1155.8906 896,1155.8906 Q895.2344,1155.8906 894.5938,1156.2188 Q893.9688,1156.5469 893.4688,1157.2969 Q892.9844,1158.0469 892.9844,1159.0781 L892.9844,1160.1719 Q892.9844,1161.4063 893.875,1162.2344 Q894.7656,1163.0469 896.3594,1163.0469 Q897.2969,1163.0469 897.9531,1162.7969 Q898.3438,1162.6406 898.7656,1162.2031 Q899.0313,1161.9375 899.1719,1161.8594 Q899.3281,1161.7813 899.5313,1161.7813 Q899.8594,1161.7813 900.1094,1162.0469 Q900.375,1162.2969 900.375,1162.6406 Q900.375,1162.9844 900.0313,1163.3906 Q899.5313,1163.9688 898.7344,1164.2969 Q897.6563,1164.75 896.3594,1164.75 Q894.8438,1164.75 893.6406,1164.125 Q892.6563,1163.625 891.9688,1162.5625 Q891.2813,1161.4844 891.2813,1160.2031 L891.2813,1159.0469 Q891.2813,1157.7188 891.8906,1156.5781 Q892.5156,1155.4219 893.6094,1154.8125 Q894.7031,1154.1875 895.9375,1154.1875 Q896.6719,1154.1875 897.3125,1154.3594 Q897.9688,1154.5156 898.5156,1154.875 Z " fill="#000000"/><text fill="#000000" font-family="sans-serif" font-size="14" lengthAdjust="spacing" textLength="86" x="916.25" y="1164.7969">ApduRequest</text><line style="stroke:#27AE60;stroke-width:2.0;" x1="827" x2="1059" y1="1175" y2="1175"/><text fill="#000000" font-family="sans-serif" font-size="14" font-weight="bold" lengthAdjust="spacing" textLength="35" x="832" y="1194.1074">apdu</text><text fill="#000000" font-family="sans-serif" font-size="14" lengthAdjust="spacing" textLength="45" x="871" y="1194.1074">: String</text><text fill="#000000" font-family="sans-serif" font-size="14" font-weight="bold" lengthAdjust="spacing" textLength="165" x="832" y="1212.7285">successfulStatusWords</text><text fill="#000000" font-family="sans-serif" font-size="14" lengthAdjust="spacing" textLength="53" x="1001" y="1212.7285">: String[]</text><text fill="#000000" font-family="sans-serif" font-size="14" font-weight="bold" lengthAdjust="spacing" textLength="27" x="832" y="1231.3496">info</text><text fill="#000000" font-family="sans-serif" font-size="14" lengthAdjust="spacing" textLength="53" x="863" y="1231.3496">: String?</text><line style="stroke:#27AE60;stroke-width:2.0;" x1="827" x2="1059" y1="1238.8633" y2="1238.8633"/></g><!--class ChannelControl--><g id="elem_ChannelControl"><rect codeLine="118" fill="#FEFECE" height="85.2422" id="ChannelControl" rx="2.5" ry="2.5" style="stroke:#D4AC0D;stroke-width:2.0;" width="131" x="713.5" y="593.5"/><ellipse cx="728.5" cy="609.5" fill="#EB937F" rx="11" ry="11" style="stroke:#181818;stroke-width:1.0;"/><path d="M727.3594,610.2969 L727.3594,612.7969 L731.6875,612.7969 L731.6875,611.875 Q731.6875,611.2656 731.9219,611 Q732.1719,610.7344 732.5469,610.7344 Q732.9219,610.7344 733.1563,611 Q733.3906,611.2656 733.3906,611.875 L733.3906,614.5 L725.3906,614.5 Q724.7656,614.5 724.5,614.2656 Q724.25,614.0313 724.25,613.6406 Q724.25,613.2656 724.5156,613.0313 Q724.7813,612.7969 725.3906,612.7969 L725.6563,612.7969 L725.6563,606.1406 L725.3906,606.1406 Q724.7656,606.1406 724.5,605.9063 Q724.25,605.6719 724.25,605.2813 Q724.25,604.9063 724.5,604.6719 Q724.7656,604.4375 725.3906,604.4375 L733.0156,604.4375 L733.0156,607.0313 Q733.0156,607.6406 732.7813,607.9063 Q732.5625,608.1563 732.1719,608.1563 Q731.7969,608.1563 731.5625,607.9063 Q731.3281,607.6406 731.3281,607.0313 L731.3281,606.1406 L727.3594,606.1406 L727.3594,608.5938 L728.8438,608.5938 Q728.8438,607.9375 728.9688,607.75 Q729.2344,607.3438 729.7031,607.3438 Q730.0781,607.3438 730.3125,607.6094 Q730.5469,607.8594 730.5469,608.4688 L730.5469,610.4375 Q730.5469,610.9844 730.4219,611.1719 Q730.1563,611.5625 729.7031,611.5625 Q729.2344,611.5625 728.9688,611.1563 Q728.8438,610.9688 728.8438,610.2969 L727.3594,610.2969 Z " fill="#000000"/><text fill="#000000" font-family="sans-serif" font-size="14" lengthAdjust="spacing" textLength="99" x="742.5" y="615.2969">ChannelControl</text><line style="stroke:#D4AC0D;stroke-width:2.0;" x1="714.5" x2="843.5" y1="625.5" y2="625.5"/><text fill="#000000" font-family="sans-serif" font-size="14" lengthAdjust="spacing" textLength="82" x="719.5" y="644.6074">KEEP_OPEN</text><text fill="#000000" font-family="sans-serif" font-size="14" lengthAdjust="spacing" textLength="101" x="719.5" y="663.2285">CLOSE_AFTER</text><line style="stroke:#D4AC0D;stroke-width:2.0;" x1="714.5" x2="843.5" y1="670.7422" y2="670.7422"/></g><!--class TransmitCardRequestCmdBody--><g id="elem_TransmitCardRequestCmdBody"><rect codeLine="173" fill="#E9F7EF" height="85.2422" id="TransmitCardRequestCmdBody" rx="2.5" ry="2.5" style="stroke:#27AE60;stroke-width:2.0;" width="345" x="824.5" y="429"/><ellipse cx="892.75" cy="445" fill="#ADD1B2" rx="11" ry="11" style="stroke:#181818;stroke-width:1.0;"/><path d="M895.5156,440.875 Q895.6719,440.6563 895.8594,440.5469 Q896.0469,440.4375 896.2656,440.4375 Q896.6406,440.4375 896.875,440.7031 Q897.1094,440.9531 897.1094,441.5625 L897.1094,443.0156 Q897.1094,443.625 896.875,443.8906 Q896.6406,444.1563 896.2656,444.1563 Q895.9219,444.1563 895.7188,443.9531 Q895.5156,443.7656 895.4063,443.25 Q895.3594,442.8906 895.1719,442.7031 Q894.8438,442.3281 894.2344,442.1094 Q893.625,441.8906 893,441.8906 Q892.2344,441.8906 891.5938,442.2188 Q890.9688,442.5469 890.4688,443.2969 Q889.9844,444.0469 889.9844,445.0781 L889.9844,446.1719 Q889.9844,447.4063 890.875,448.2344 Q891.7656,449.0469 893.3594,449.0469 Q894.2969,449.0469 894.9531,448.7969 Q895.3438,448.6406 895.7656,448.2031 Q896.0313,447.9375 896.1719,447.8594 Q896.3281,447.7813 896.5313,447.7813 Q896.8594,447.7813 897.1094,448.0469 Q897.375,448.2969 897.375,448.6406 Q897.375,448.9844 897.0313,449.3906 Q896.5313,449.9688 895.7344,450.2969 Q894.6563,450.75 893.3594,450.75 Q891.8438,450.75 890.6406,450.125 Q889.6563,449.625 888.9688,448.5625 Q888.2813,447.4844 888.2813,446.2031 L888.2813,445.0469 Q888.2813,443.7188 888.8906,442.5781 Q889.5156,441.4219 890.6094,440.8125 Q891.7031,440.1875 892.9375,440.1875 Q893.6719,440.1875 894.3125,440.3594 Q894.9688,440.5156 895.5156,440.875 Z " fill="#000000"/><text fill="#000000" font-family="sans-serif" font-size="14" lengthAdjust="spacing" textLength="200" x="913.25" y="450.7969">TransmitCardRequestCmdBody</text><line style="stroke:#27AE60;stroke-width:2.0;" x1="825.5" x2="1168.5" y1="461" y2="461"/><text fill="#000000" font-family="sans-serif" font-size="14" font-weight="bold" lengthAdjust="spacing" textLength="53" x="830.5" y="480.1074">service</text><text fill="#000000" font-family="sans-serif" font-size="14" lengthAdjust="spacing" textLength="66" x="887.5" y="480.1074">: String = "</text><text fill="#000000" font-family="sans-serif" font-size="14" font-weight="bold" lengthAdjust="spacing" textLength="192" x="953.5" y="480.1074">TRANSMIT_CARD_REQUEST</text><text fill="#000000" font-family="sans-serif" font-size="14" lengthAdjust="spacing" textLength="5" x="1145.5" y="480.1074">"</text><text fill="#000000" font-family="sans-serif" font-size="14" font-weight="bold" lengthAdjust="spacing" textLength="80" x="830.5" y="498.7285">parameters</text><text fill="#000000" font-family="sans-serif" font-size="14" lengthAdjust="spacing" textLength="249" x="914.5" y="498.7285">: TransmitCardRequestCmdParameters</text><line style="stroke:#27AE60;stroke-width:2.0;" x1="825.5" x2="1168.5" y1="506.2422" y2="506.2422"/></g><!--class TransmitCardRequestCmdParameters--><g id="elem_TransmitCardRequestCmdParameters"><rect codeLine="174" fill="#E9F7EF" height="85.2422" id="TransmitCardRequestCmdParameters" rx="2.5" ry="2.5" style="stroke:#27AE60;stroke-width:2.0;" width="273" x="879.5" y="593.5"/><ellipse cx="894.5" cy="609.5" fill="#ADD1B2" rx="11" ry="11" style="stroke:#181818;stroke-width:1.0;"/><path d="M897.2656,605.375 Q897.4219,605.1563 897.6094,605.0469 Q897.7969,604.9375 898.0156,604.9375 Q898.3906,604.9375 898.625,605.2031 Q898.8594,605.4531 898.8594,606.0625 L898.8594,607.5156 Q898.8594,608.125 898.625,608.3906 Q898.3906,608.6563 898.0156,608.6563 Q897.6719,608.6563 897.4688,608.4531 Q897.2656,608.2656 897.1563,607.75 Q897.1094,607.3906 896.9219,607.2031 Q896.5938,606.8281 895.9844,606.6094 Q895.375,606.3906 894.75,606.3906 Q893.9844,606.3906 893.3438,606.7188 Q892.7188,607.0469 892.2188,607.7969 Q891.7344,608.5469 891.7344,609.5781 L891.7344,610.6719 Q891.7344,611.9063 892.625,612.7344 Q893.5156,613.5469 895.1094,613.5469 Q896.0469,613.5469 896.7031,613.2969 Q897.0938,613.1406 897.5156,612.7031 Q897.7813,612.4375 897.9219,612.3594 Q898.0781,612.2813 898.2813,612.2813 Q898.6094,612.2813 898.8594,612.5469 Q899.125,612.7969 899.125,613.1406 Q899.125,613.4844 898.7813,613.8906 Q898.2813,614.4688 897.4844,614.7969 Q896.4063,615.25 895.1094,615.25 Q893.5938,615.25 892.3906,614.625 Q891.4063,614.125 890.7188,613.0625 Q890.0313,611.9844 890.0313,610.7031 L890.0313,609.5469 Q890.0313,608.2188 890.6406,607.0781 Q891.2656,605.9219 892.3594,605.3125 Q893.4531,604.6875 894.6875,604.6875 Q895.4219,604.6875 896.0625,604.8594 Q896.7188,605.0156 897.2656,605.375 Z " fill="#000000"/><text fill="#000000" font-family="sans-serif" font-size="14" lengthAdjust="spacing" textLength="241" x="908.5" y="615.2969">TransmitCardRequestCmdParameters</text><line style="stroke:#27AE60;stroke-width:2.0;" x1="880.5" x2="1151.5" y1="625.5" y2="625.5"/><text fill="#000000" font-family="sans-serif" font-size="14" font-weight="bold" lengthAdjust="spacing" textLength="108" x="885.5" y="644.6074">channelControl</text><text fill="#000000" font-family="sans-serif" font-size="14" lengthAdjust="spacing" textLength="107" x="997.5" y="644.6074">: ChannelControl</text><text fill="#000000" font-family="sans-serif" font-size="14" font-weight="bold" lengthAdjust="spacing" textLength="90" x="885.5" y="663.2285">cardRequest</text><text fill="#000000" font-family="sans-serif" font-size="14" lengthAdjust="spacing" textLength="92" x="979.5" y="663.2285">: CardRequest</text><line style="stroke:#27AE60;stroke-width:2.0;" x1="880.5" x2="1151.5" y1="670.7422" y2="670.7422"/></g><!--reverse link CmdBody to IsCardPresentCmdBody--><g id="link_CmdBody_IsCardPresentCmdBody"><path d="M415.9717,368.4018 C353.9567,391.5968 290.513,415.326 230.165,437.898 " fill="none" id="CmdBody-backto-IsCardPresentCmdBody" style="stroke:#181818;stroke-width:2.0;"/><polygon fill="none" points="432.831,362.096,413.8697,362.782,418.0736,374.0215,432.831,362.096" style="stroke:#181818;stroke-width:2.0;"/></g><!--reverse link CmdBody to TransmitCardSelectionRequestsCmdBody--><g id="link_CmdBody_TransmitCardSelectionRequestsCmdBody"><path d="M528,386.151 C528,405.255 528,409.85 528,428.943 " fill="none" id="CmdBody-backto-TransmitCardSelectionRequestsCmdBody" style="stroke:#181818;stroke-width:2.0;"/><polygon fill="none" points="528,368.151,522,386.151,534,386.151,528,368.151" style="stroke:#181818;stroke-width:2.0;"/></g><!--reverse link CmdBody to TransmitCardRequestCmdBody--><g id="link_CmdBody_TransmitCardRequestCmdBody"><path d="M640.3991,361.0104 C708.9421,382.0564 785.187,405.466 861.503,428.898 " fill="none" id="CmdBody-backto-TransmitCardRequestCmdBody" style="stroke:#181818;stroke-width:2.0;"/><polygon fill="none" points="623.192,355.727,638.638,366.7461,642.1603,355.2747,623.192,355.727" style="stroke:#181818;stroke-width:2.0;"/></g><!--reverse link MessageDto to CmdBody--><g id="link_MessageDto_CmdBody"><path codeLine="135" d="M528,216.02 C528,243.68 528,260.343 528,282.766 " fill="none" id="MessageDto-backto-CmdBody" style="stroke:#3498DB;stroke-width:2.0;"/><polygon fill="#3498DB" points="528,204.02,524,210.02,528,216.02,532,210.02,528,204.02" style="stroke:#3498DB;stroke-width:2.0;"/><text fill="#000000" font-family="sans-serif" font-size="13" lengthAdjust="spacing" textLength="61" x="529" y="249.0283">JsonString</text><text fill="#000000" font-family="sans-serif" font-size="13" lengthAdjust="spacing" textLength="7" x="520.4422" y="271.6328">1</text></g><!--reverse link TransmitCardSelectionRequestsCmdBody to TransmitCardSelectionRequestsCmdParameters--><g id="link_TransmitCardSelectionRequestsCmdBody_TransmitCardSelectionRequestsCmdParameters"><path codeLine="137" d="M518.0958,526.1487 C514.6938,544.5797 512.81,554.78 509.092,574.917 " fill="none" id="TransmitCardSelectionRequestsCmdBody-backto-TransmitCardSelectionRequestsCmdParameters" style="stroke:#3498DB;stroke-width:2.0;"/><polygon fill="#3498DB" points="520.274,514.348,515.2514,519.5223,518.0958,526.1487,523.1185,520.9744,520.274,514.348" style="stroke:#3498DB;stroke-width:2.0;"/><text fill="#000000" font-family="sans-serif" font-size="13" lengthAdjust="spacing" textLength="7" x="502.9698" y="563.8886">1</text></g><!--reverse link TransmitCardSelectionRequestsCmdParameters to CardSelector--><g id="link_TransmitCardSelectionRequestsCmdParameters_CardSelector"><path codeLine="139" d="M487.0578,708.8773 C484.1188,728.1813 482.645,737.869 479.609,757.807 " fill="none" id="TransmitCardSelectionRequestsCmdParameters-backto-CardSelector" style="stroke:#3498DB;stroke-width:2.0;"/><polygon fill="#3498DB" points="488.864,697.014,484.0065,702.3436,487.0578,708.8773,491.9153,703.5477,488.864,697.014" style="stroke:#3498DB;stroke-width:2.0;"/><text fill="#000000" font-family="sans-serif" font-size="13" lengthAdjust="spacing" textLength="20" x="459.6718" y="746.6781">1..*</text></g><!--reverse link TransmitCardSelectionRequestsCmdParameters to CardSelectionRequest--><g id="link_TransmitCardSelectionRequestsCmdParameters_CardSelectionRequest"><path codeLine="140" d="M607.5043,703.2239 C655.2933,732.1249 701.145,759.855 744.171,785.875 " fill="none" id="TransmitCardSelectionRequestsCmdParameters-backto-CardSelectionRequest" style="stroke:#3498DB;stroke-width:2.0;"/><polygon fill="#3498DB" points="597.236,697.014,600.3002,703.5417,607.5043,703.2239,604.4401,696.6962,597.236,697.014" style="stroke:#3498DB;stroke-width:2.0;"/><text fill="#000000" font-family="sans-serif" font-size="13" lengthAdjust="spacing" textLength="20" x="711.6076" y="774.7592">1..*</text></g><!--link MultiSelectionProcessing to TransmitCardSelectionRequestsCmdParameters--><g id="link_MultiSelectionProcessing_TransmitCardSelectionRequestsCmdParameters"><path codeLine="141" d="M282.756,636 C294.387,636 294.018,636 305.649,636 " fill="none" id="MultiSelectionProcessing-to-TransmitCardSelectionRequestsCmdParameters" style="stroke:#3498DB;stroke-width:2.0;"/><polygon fill="#3498DB" points="317.649,636,311.649,632,305.649,636,311.649,640,317.649,636" style="stroke:#3498DB;stroke-width:2.0;"/><text fill="#000000" font-family="sans-serif" font-size="13" lengthAdjust="spacing" textLength="7" x="290.5858" y="632.3529">1</text></g><!--reverse link TransmitCardSelectionRequestsCmdParameters to ChannelControl--><g id="link_TransmitCardSelectionRequestsCmdParameters_ChannelControl"><path codeLine="142" d="M690.016,636 C701.718,636 701.421,636 713.123,636 " fill="none" id="TransmitCardSelectionRequestsCmdParameters-backto-ChannelControl" style="stroke:#3498DB;stroke-width:2.0;"/><polygon fill="#3498DB" points="678.016,636,684.016,640,690.016,636,684.016,632,678.016,636" style="stroke:#3498DB;stroke-width:2.0;"/><text fill="#000000" font-family="sans-serif" font-size="13" lengthAdjust="spacing" textLength="7" x="698.5349" y="632.1013">1</text></g><!--reverse link CardSelector to FileOccurrence--><g id="link_CardSelector_FileOccurrence"><path codeLine="144" d="M445.1604,910.5968 C439.3174,930.4718 436.386,940.446 430.721,959.716 " fill="none" id="CardSelector-backto-FileOccurrence" style="stroke:#3498DB;stroke-width:2.0;"/><polygon fill="#3498DB" points="448.545,899.084,443.0151,903.7122,445.1604,910.5968,450.6903,905.9686,448.545,899.084" style="stroke:#3498DB;stroke-width:2.0;"/><text fill="#000000" font-family="sans-serif" font-size="13" lengthAdjust="spacing" textLength="7" x="425.3653" y="948.6644">1</text></g><!--reverse link CardSelector to FileControlInformation--><g id="link_CardSelector_FileControlInformation"><path codeLine="145" d="M522.8486,909.0201 C536.3076,928.8951 544.129,940.446 557.178,959.716 " fill="none" id="CardSelector-backto-FileControlInformation" style="stroke:#3498DB;stroke-width:2.0;"/><polygon fill="#3498DB" points="516.12,899.084,516.1722,906.2949,522.8486,909.0201,522.7963,901.8092,516.12,899.084" style="stroke:#3498DB;stroke-width:2.0;"/><text fill="#000000" font-family="sans-serif" font-size="13" lengthAdjust="spacing" textLength="7" x="545.0533" y="948.6644">1</text></g><!--reverse link CardSelectionRequest to CardRequest--><g id="link_CardSelectionRequest_CardRequest"><path codeLine="147" d="M848.2931,881.218 C869.9681,912.98 892.879,946.553 914.537,978.291 " fill="none" id="CardSelectionRequest-backto-CardRequest" style="stroke:#3498DB;stroke-width:2.0;stroke-dasharray:7.0,7.0;"/><polygon fill="#3498DB" points="841.529,871.306,841.6071,878.5167,848.2931,881.218,848.215,874.0073,841.529,871.306" style="stroke:#3498DB;stroke-width:2.0;"/><text fill="#000000" font-family="sans-serif" font-size="13" lengthAdjust="spacing" textLength="22" x="886.2476" y="967.1618">0..1</text></g><!--reverse link CardRequest to ApduRequest--><g id="link_CardRequest_ApduRequest"><path codeLine="149" d="M943,1075.636 C943,1099.498 943,1117.633 943,1142.918 " fill="none" id="CardRequest-backto-ApduRequest" style="stroke:#3498DB;stroke-width:2.0;"/><polygon fill="#3498DB" points="943,1063.636,939,1069.636,943,1075.636,947,1069.636,943,1063.636" style="stroke:#3498DB;stroke-width:2.0;"/><text fill="#000000" font-family="sans-serif" font-size="13" lengthAdjust="spacing" textLength="20" x="921.6563" y="1131.8344">1..*</text></g><!--reverse link TransmitCardRequestCmdBody to TransmitCardRequestCmdParameters--><g id="link_TransmitCardRequestCmdBody_TransmitCardRequestCmdParameters"><path codeLine="151" d="M1003.2867,526.2668 C1006.1237,550.5288 1008.29,569.056 1011.12,593.294 " fill="none" id="TransmitCardRequestCmdBody-backto-TransmitCardRequestCmdParameters" style="stroke:#3498DB;stroke-width:2.0;"/><polygon fill="#3498DB" points="1001.893,514.348,998.6169,520.772,1003.2867,526.2668,1006.5628,519.8428,1001.893,514.348" style="stroke:#3498DB;stroke-width:2.0;"/><text fill="#000000" font-family="sans-serif" font-size="13" lengthAdjust="spacing" textLength="7" x="1002.7891" y="582.1653">1</text></g><!--link ChannelControl to TransmitCardRequestCmdParameters--><g id="link_ChannelControl_TransmitCardRequestCmdParameters"><path codeLine="153" d="M844.73,636 C856.215,636 855.7,636 867.185,636 " fill="none" id="ChannelControl-to-TransmitCardRequestCmdParameters" style="stroke:#3498DB;stroke-width:2.0;"/><polygon fill="#3498DB" points="879.185,636,873.185,632,867.185,636,873.185,640,879.185,636" style="stroke:#3498DB;stroke-width:2.0;"/><text fill="#000000" font-family="sans-serif" font-size="13" lengthAdjust="spacing" textLength="7" x="852.302" y="632.1013">1</text></g><!--reverse link TransmitCardRequestCmdParameters to CardRequest--><g id="link_TransmitCardRequestCmdParameters_CardRequest"><path codeLine="154" d="M1011.2045,690.6002 C1006.1745,742.5932 996.926,822.099 980,899 C974.097,925.817 965.138,955.294 957.513,978.44 " fill="none" id="TransmitCardRequestCmdParameters-backto-CardRequest" style="stroke:#3498DB;stroke-width:2.0;"/><polygon fill="#3498DB" points="1012.36,678.656,1007.8008,684.2429,1011.2045,690.6002,1015.7636,685.0133,1012.36,678.656" style="stroke:#3498DB;stroke-width:2.0;"/><text fill="#000000" font-family="sans-serif" font-size="13" lengthAdjust="spacing" textLength="7" x="952.2682" y="967.3345">1</text></g><!--SRC=[jLTTS-8s57tthr3PXssP2Kc0B4bcauwHvLswnAROQPlfT1Z75k29aLX9NZRJoN-liENF64ZIDY-nhuxEkJgwkXRlmTKLS3-Z6oGVDEqzf764OyP1o7cCEGWmk0HB8TRyylXuALQHJoFAV1fWtl7fwdZEZeLt7s4lFWhmaP_ERWZ9HnukoD4wyiInzaE0vo710Cu-JT7TAJ3FpGlpeXRk0hDhzin-BTm3w0mDK1tT1yR061f6BNm6e0vDeriBVm130_RWe1GUZwmleDU_E3U6fUYjWq1teACF9z8SS7G47F4OIL_4qXCWeEIz01lA7i0c54j0y0Pymuo7b00w1tAjHCIhI4xJ-4D8rXxpLe0Bp30LZski3oaBC8DRHy4x_SA0Xja875M0mxu-G6UDG5XbD8pJORSHY2f0DBpeIUbaVSWojlcMPi78upp5kylGVo2OSr2crHcZc_AGPBh3KKGtprWy_s71Q4m2fMmY4q7KBAOWHb-79uQadEBW0D_7Zmm7rzUIra06WdjeSoGQz6KTQCjG5deMB6oIgfEOhIDyK7YTm1BjFeBcOAzs0Jv7_RvkPF9vl9B1VHGVrj-2alKCpJDpk5SzWwfQLzegMb7-n30c1wKNMrIYVM4EaBbNEyUgCwN4it1T_V4bue-9jYxh21tIJg1Ts4DdPUd7ghAKbZqHsfQBB3VjYW3U69g_PGGtiiIz1JO41NzhGFwrszuw7EDlE6gtPQ-qujKzPk0AzDGebnDaGnW5oR0ZM4WMsKHVo95IN4vhjTjIhDrkAOmVXPW8IpRS9WQEcMmukqOZwdlH57lI0yjRuUS0XbTKu7s8Uney9b6u2eRoMNlIl7ikc4mTf8QeWTmDdpAiDphIBIKT-XMnfwt98sS6zQancqoHixN-Hsd4Jt83he5bJvJz8muz5amOvjALJ1f_5vW4prDvBfGQN1FQcfqau4vroxaPkUceWyO8kYFRcatHhxV8SPqq8vM9opp2Lw7OvkFW22TxESLVvLTJyBTcTYY3eYwIAiUoQdb2SYYRIGwNIttP0eefUTghE19XZfqmwc-BcooI56vs36PriVG8mH6aH32QLWQiX39SdWvLQuEbo9z_FOELigx1Yn4vxKd395xjp5AjqHnD7NTsexlmS_8-cTeGESvC7uzpuyhvvDP4T17AqoO91PLtfDff-ZdRDRh1p2Q69xmfNk3l3H0l31gYyp32jk_7Z66YwiQiX4euvUU8p2bRUNcBCHk7Cb-gR6KtagUnhXuiz8Uhd46_ZUnRfqpmd3uZWYFrVvB-b_qqORDbQJiJst9GWxt5_XNTHGwgMBxPwZspYiV-Ta_dSPIpEC8JCVzTVWruoTkaA0hDkfIt3k9AOUb582z3BkZQ9hUa99fh9PE6bCghCCcLIYGLfORUta1PIpy5XjBkIice7QaUBwNs1Q79p9uWAtc3Ozj1CzrqqRIf1QgsixFlgONyDzrEYRsenHN21nfR4x0efbUqf1r5bxgcSqxzC2buhccbAq9RtgXRfwtSaNVgTyOb-8LlopBPRkr5dvACwXLjMwaT5YZDIMKwdNQhskSohdzBLJhJRwACy5oaHkpiv6_YPU5YgOXhvoPtiU97jXsrlfc1Ts8RMcI3GCcbTgS3MYUTpcchqgKgat9iuNYvppJMGUtiDfLNu-4vGBPZitPu-W8EDRzfwSb5VQpVsRVPFLs-E-xT6EsxjkS_DtRTP0l0_t8dBEXVVG-hJsqicDqWMOfDWxicbajeZoUl_4ZiMtvZ2LIat_mReM3v1m00]--></g></svg>