<?xml version="1.0" encoding="us-ascii" standalone="no"?><svg xmlns="http://www.w3.org/2000/svg" xmlns:xlink="http://www.w3.org/1999/xlink" contentStyleType="text/css" height="412px" preserveAspectRatio="none" style="width:344px;height:412px;background:#FFFFFF;" version="1.1" viewBox="0 0 344 412" width="344px" zoomAndPan="magnify"><defs/><g><!--class MessageDto--><g id="elem_MessageDto"><rect codeLine="77" fill="#EBF5FB" height="196.9688" id="MessageDto" rx="2.5" ry="2.5" style="stroke:#3498DB;stroke-width:2.0;" width="330" x="7" y="7"/><ellipse cx="128.25" cy="23" fill="#ADD1B2" rx="11" ry="11" style="stroke:#181818;stroke-width:1.0;"/><path d="M131.0156,18.875 Q131.1719,18.6563 131.3594,18.5469 Q131.5469,18.4375 131.7656,18.4375 Q132.1406,18.4375 132.375,18.7031 Q132.6094,18.9531 132.6094,19.5625 L132.6094,21.0156 Q132.6094,21.625 132.375,21.8906 Q132.1406,22.1563 131.7656,22.1563 Q131.4219,22.1563 131.2188,21.9531 Q131.0156,21.7656 130.9063,21.25 Q130.8594,20.8906 130.6719,20.7031 Q130.3438,20.3281 129.7344,20.1094 Q129.125,19.8906 128.5,19.8906 Q127.7344,19.8906 127.0938,20.2188 Q126.4688,20.5469 125.9688,21.2969 Q125.4844,22.0469 125.4844,23.0781 L125.4844,24.1719 Q125.4844,25.4063 126.375,26.2344 Q127.2656,27.0469 128.8594,27.0469 Q129.7969,27.0469 130.4531,26.7969 Q130.8438,26.6406 131.2656,26.2031 Q131.5313,25.9375 131.6719,25.8594 Q131.8281,25.7813 132.0313,25.7813 Q132.3594,25.7813 132.6094,26.0469 Q132.875,26.2969 132.875,26.6406 Q132.875,26.9844 132.5313,27.3906 Q132.0313,27.9688 131.2344,28.2969 Q130.1563,28.75 128.8594,28.75 Q127.3438,28.75 126.1406,28.125 Q125.1563,27.625 124.4688,26.5625 Q123.7813,25.4844 123.7813,24.2031 L123.7813,23.0469 Q123.7813,21.7188 124.3906,20.5781 Q125.0156,19.4219 126.1094,18.8125 Q127.2031,18.1875 128.4375,18.1875 Q129.1719,18.1875 129.8125,18.3594 Q130.4688,18.5156 131.0156,18.875 Z " fill="#000000"/><text fill="#000000" font-family="sans-serif" font-size="14" lengthAdjust="spacing" textLength="79" x="148.75" y="28.7969">MessageDto</text><line style="stroke:#3498DB;stroke-width:2.0;" x1="8" x2="336" y1="39" y2="39"/><text fill="#000000" font-family="sans-serif" font-size="14" font-weight="bold" lengthAdjust="spacing" textLength="60" x="13" y="58.1074">apiLevel</text><text fill="#000000" font-family="sans-serif" font-size="14" lengthAdjust="spacing" textLength="81" x="77" y="58.1074">: Number = 3</text><text fill="#000000" font-family="sans-serif" font-size="14" font-weight="bold" lengthAdjust="spacing" textLength="68" x="13" y="76.7285">sessionId</text><text fill="#000000" font-family="sans-serif" font-size="14" lengthAdjust="spacing" textLength="45" x="85" y="76.7285">: String</text><text fill="#000000" font-family="sans-serif" font-size="14" font-weight="bold" lengthAdjust="spacing" textLength="43" x="13" y="95.3496">action</text><text fill="#000000" font-family="sans-serif" font-size="14" lengthAdjust="spacing" textLength="66" x="60" y="95.3496">: String = "</text><text fill="#000000" font-family="sans-serif" font-size="14" font-weight="bold" lengthAdjust="spacing" textLength="200" x="126" y="95.3496">EXECUTE_REMOTE_SERVICE</text><text fill="#000000" font-family="sans-serif" font-size="14" lengthAdjust="spacing" textLength="5" x="326" y="95.3496">"</text><text fill="#000000" font-family="sans-serif" font-size="14" font-weight="bold" lengthAdjust="spacing" textLength="89" x="13" y="113.9707">clientNodeId</text><text fill="#000000" font-family="sans-serif" font-size="14" lengthAdjust="spacing" textLength="45" x="106" y="113.9707">: String</text><text fill="#808080" font-family="sans-serif" font-size="14" font-weight="bold" lengthAdjust="spacing" textLength="97" x="13" y="132.5918">serverNodeId</text><text fill="#808080" font-family="sans-serif" font-size="14" lengthAdjust="spacing" textLength="30" x="114" y="132.5918">: null</text><text fill="#000000" font-family="sans-serif" font-size="14" font-weight="bold" lengthAdjust="spacing" textLength="123" x="13" y="151.2129">localReaderName</text><text fill="#000000" font-family="sans-serif" font-size="14" lengthAdjust="spacing" textLength="45" x="140" y="151.2129">: String</text><text fill="#808080" font-family="sans-serif" font-size="14" font-weight="bold" lengthAdjust="spacing" textLength="140" x="13" y="169.834">remoteReaderName</text><text fill="#808080" font-family="sans-serif" font-size="14" lengthAdjust="spacing" textLength="30" x="157" y="169.834">: null</text><text fill="#000000" font-family="sans-serif" font-size="14" font-weight="bold" lengthAdjust="spacing" textLength="34" x="13" y="188.4551">body</text><text fill="#000000" font-family="sans-serif" font-size="14" lengthAdjust="spacing" textLength="45" x="51" y="188.4551">: String</text><line style="stroke:#3498DB;stroke-width:2.0;" x1="8" x2="336" y1="195.9688" y2="195.9688"/></g><!--class ExecuteRemoteServiceBody--><g id="elem_ExecuteRemoteServiceBody"><rect codeLine="78" fill="#EBF5FB" height="122.4844" id="ExecuteRemoteServiceBody" rx="2.5" ry="2.5" style="stroke:#3498DB;stroke-width:2.0;" width="222" x="61" y="283"/><ellipse cx="81.4" cy="299" fill="#ADD1B2" rx="11" ry="11" style="stroke:#181818;stroke-width:1.0;"/><path d="M84.1656,294.875 Q84.3219,294.6563 84.5094,294.5469 Q84.6969,294.4375 84.9156,294.4375 Q85.2906,294.4375 85.525,294.7031 Q85.7594,294.9531 85.7594,295.5625 L85.7594,297.0156 Q85.7594,297.625 85.525,297.8906 Q85.2906,298.1563 84.9156,298.1563 Q84.5719,298.1563 84.3688,297.9531 Q84.1656,297.7656 84.0563,297.25 Q84.0094,296.8906 83.8219,296.7031 Q83.4938,296.3281 82.8844,296.1094 Q82.275,295.8906 81.65,295.8906 Q80.8844,295.8906 80.2438,296.2188 Q79.6188,296.5469 79.1188,297.2969 Q78.6344,298.0469 78.6344,299.0781 L78.6344,300.1719 Q78.6344,301.4063 79.525,302.2344 Q80.4156,303.0469 82.0094,303.0469 Q82.9469,303.0469 83.6031,302.7969 Q83.9938,302.6406 84.4156,302.2031 Q84.6813,301.9375 84.8219,301.8594 Q84.9781,301.7813 85.1813,301.7813 Q85.5094,301.7813 85.7594,302.0469 Q86.025,302.2969 86.025,302.6406 Q86.025,302.9844 85.6813,303.3906 Q85.1813,303.9688 84.3844,304.2969 Q83.3063,304.75 82.0094,304.75 Q80.4938,304.75 79.2906,304.125 Q78.3063,303.625 77.6188,302.5625 Q76.9313,301.4844 76.9313,300.2031 L76.9313,299.0469 Q76.9313,297.7188 77.5406,296.5781 Q78.1656,295.4219 79.2594,294.8125 Q80.3531,294.1875 81.5875,294.1875 Q82.3219,294.1875 82.9625,294.3594 Q83.6188,294.5156 84.1656,294.875 Z " fill="#000000"/><text fill="#000000" font-family="sans-serif" font-size="14" lengthAdjust="spacing" textLength="178" x="96.6" y="304.7969">ExecuteRemoteServiceBody</text><line style="stroke:#3498DB;stroke-width:2.0;" x1="62" x2="282" y1="315" y2="315"/><text fill="#000000" font-family="sans-serif" font-size="14" font-weight="bold" lengthAdjust="spacing" textLength="93" x="67" y="334.1074">coreApiLevel</text><text fill="#000000" font-family="sans-serif" font-size="14" lengthAdjust="spacing" textLength="81" x="164" y="334.1074">: Number = 2</text><text fill="#000000" font-family="sans-serif" font-size="14" font-weight="bold" lengthAdjust="spacing" textLength="66" x="67" y="352.7285">serviceId</text><text fill="#000000" font-family="sans-serif" font-size="14" lengthAdjust="spacing" textLength="45" x="137" y="352.7285">: String</text><text fill="#0000FF" font-family="sans-serif" font-size="14" font-weight="bold" lengthAdjust="spacing" textLength="146" x="67" y="371.3496">isReaderContactless</text><text fill="#0000FF" font-family="sans-serif" font-size="14" lengthAdjust="spacing" textLength="60" x="217" y="371.3496">: Boolean</text><text fill="#000000" font-family="sans-serif" font-size="14" font-weight="bold" lengthAdjust="spacing" textLength="67" x="67" y="389.9707">inputData</text><text fill="#000000" font-family="sans-serif" font-size="14" lengthAdjust="spacing" textLength="57" x="138" y="389.9707">: Object?</text><line style="stroke:#3498DB;stroke-width:2.0;" x1="62" x2="282" y1="397.4844" y2="397.4844"/></g><!--reverse link MessageDto to ExecuteRemoteServiceBody--><g id="link_MessageDto_ExecuteRemoteServiceBody"><path codeLine="70" d="M172,216.059 C172,242.779 172,258.954 172,282.896 " fill="none" id="MessageDto-backto-ExecuteRemoteServiceBody" style="stroke:#3498DB;stroke-width:2.0;"/><polygon fill="#3498DB" points="172,204.059,168,210.059,172,216.059,176,210.059,172,204.059" style="stroke:#3498DB;stroke-width:2.0;"/><text fill="#000000" font-family="sans-serif" font-size="13" lengthAdjust="spacing" textLength="61" x="173" y="249.0283">JsonString</text><text fill="#000000" font-family="sans-serif" font-size="13" lengthAdjust="spacing" textLength="7" x="164.5953" y="271.8652">1</text></g><!--SRC=[ZPLHRzem4CVV-HItxg5I94OBePIgtPJOpjQjfHFGQNsQGdA5h2P6jZE6fdttNKAWWL8OBqJd__r_zkLoFeQhAnX-4hU27cgrOwOoYPasa1YJeO4OuG8crixCHQCniLCPAQbqf68qxo8rRJpgXWr74iEi7cCzMcRl2D6ZISPfVIP3swYzYV4nIH7OZuzzyN0AmNdG3RfRuIO4pQ0Lk5lX5eYsw8XjjGkymttEjy9jO1uBU7ChV0O-PotMgOHlhdjVeELspxbVYTuF13GxdZWxeU90lGu3kv1K5pi9BSGgFROmL_e9vecTG8fp-8NQ92e5zGXqrjHcKqbfDVEKfBDGXrCm5ZKgkvYXvoiTesPvHU6jr-MC1pk5rnj2t_KwehrJo3OTEJ_rcpk5OaCe_6wBqCNvH8_d-wraCHaQizGF9qdqbA8nKBNrj5RpwX8vFQ2KQlx29OoUnbfbQLoI0n489dR3IWbtFNR2oRAFyG6_oqkDyVltPCi55soFxLefEYxrGMsIKAElWizb8khNJCya7WJF2bd1TWKBEdlPp-9puReUN-7NyOqTZ6Hsc9-BYlFuGJlmzz9NqhBNItOPtI1_r8ZfGVGuLnNiRj0HmLxsMbj-KoLy5TwcB_u7lYZO7lMHECGkf4tM4kqgUh599ZJDH7RN6uhUS3aLGNmNx7ueVlJ5xHtz3KJ_spNrRPH3u9QwFXmZjmh-r81-ZXFEaXlyXT9nQ7psika8DLn1grmrb40puZekbWTM9-bubHXPMgd4AUt8SNRp7UUeJ8jaWgdjqLX-QNfPZEoBug0vMzE8gYZJJChIHQeeb7qCgMQzS8hxZJHEbSKjTSLifE95rU5lMItn6wCiJypJ1xIR94AVjElQHKgZjxD-pNNzYgnNZrhqikCaPhaxfb9BTQMnROe4NocwdTBIZ1ecipoqOR5sD_g9aVr0kwMtxXcZeYJCtuYfrIglsQ51UNHwzFfPtfRtoGLyDYejTxXih1lluUv-sLVBm63uSBEyVL-qq-gpF5IwjUuV]--></g></svg>