<?xml version="1.0" encoding="UTF-8" standalone="no"?><svg xmlns="http://www.w3.org/2000/svg" xmlns:xlink="http://www.w3.org/1999/xlink" contentScriptType="application/ecmascript" contentStyleType="text/css" height="797px" preserveAspectRatio="none" style="width:549px;height:797px;" version="1.1" viewBox="0 0 549 797" width="549px" zoomAndPan="magnify"><defs/><g><text fill="#000000" font-family="sans-serif" font-size="18" lengthAdjust="spacingAndGlyphs" textLength="521" x="16.5" y="17.4023">Keyple Plugin - Abstract Plugin classes- 1.0.0 (10/11/2020)</text><!--MD5=[3fb92fba1735106d511c1d05a9f83ed2]
cluster root--><polygon fill="#FFFFFF" points="22,210.1992,237,210.1992,244,232.6875,520,232.6875,520,785.1992,22,785.1992,22,210.1992" style="stroke: #000000; stroke-width: 1.5;"/><line style="stroke: #000000; stroke-width: 1.5;" x1="22" x2="244" y1="232.6875" y2="232.6875"/><text fill="#000000" font-family="sans-serif" font-size="14" font-weight="bold" lengthAdjust="spacingAndGlyphs" textLength="209" x="26" y="225.7344">org.eclipse.keyple.core.plugin</text><!--MD5=[c954dac450f15cb071150cf9e7905da6]
class ObservablePluginNotifier--><rect fill="#FEFECE" height="48" id="ObservablePluginNotifier" style="stroke: #D4AC0D; stroke-width: 1.5;" width="185" x="38.5" y="297.1992"/><ellipse cx="53.5" cy="313.1992" fill="#B4A7E5" rx="11" ry="11" style="stroke: #B4A7E5; stroke-width: 1.0;"/><path d="M49.9277,309.4644 L49.9277,307.3062 L57.3071,307.3062 L57.3071,309.4644 L54.8418,309.4644 L54.8418,317.541 L57.3071,317.541 L57.3071,319.6992 L49.9277,319.6992 L49.9277,317.541 L52.3931,317.541 L52.3931,309.4644 Z "/><ellipse cx="72.5" cy="312.6992" fill="#84BE84" rx="3" ry="3" style="stroke: #038048; stroke-width: 1.0;"/><text fill="#000000" font-family="sans-serif" font-size="12" font-style="italic" lengthAdjust="spacingAndGlyphs" textLength="142" x="78.5" y="317.7344">ObservablePluginNotifier</text><line style="stroke: #D4AC0D; stroke-width: 1.5;" x1="39.5" x2="222.5" y1="329.1992" y2="329.1992"/><line style="stroke: #D4AC0D; stroke-width: 1.5;" x1="39.5" x2="222.5" y1="337.1992" y2="337.1992"/><!--MD5=[d65a81ff17c705555c4513b7aa66e708]
class AbstractPlugin--><rect fill="#FEFECE" height="151.6406" id="AbstractPlugin" style="stroke: #D4AC0D; stroke-width: 1.5;" width="245" x="258.5" y="245.1992"/><ellipse cx="330.25" cy="261.1992" fill="#A9DCDF" rx="11" ry="11" style="stroke: #A9DCDF; stroke-width: 1.0;"/><path d="M330.3633,256.7974 L329.2095,261.8691 L331.5254,261.8691 Z M328.8691,254.5562 L331.8657,254.5562 L335.2109,266.9492 L332.7622,266.9492 L331.9985,263.8862 L328.7197,263.8862 L327.9727,266.9492 L325.5239,266.9492 Z "/><ellipse cx="355.75" cy="260.6992" fill="#84BE84" rx="3" ry="3" style="stroke: #038048; stroke-width: 1.0;"/><text fill="#000000" font-family="sans-serif" font-size="12" font-style="italic" lengthAdjust="spacingAndGlyphs" textLength="82" x="361.75" y="265.7344">AbstractPlugin</text><line style="stroke: #D4AC0D; stroke-width: 1.5;" x1="259.5" x2="502.5" y1="277.1992" y2="277.1992"/><line style="stroke: #D4AC0D; stroke-width: 1.5;" x1="259.5" x2="502.5" y1="285.1992" y2="285.1992"/><ellipse cx="269.5" cy="296.1992" fill="#84BE84" rx="3" ry="3" style="stroke: #038048; stroke-width: 1.0;"/><text fill="#000000" font-family="sans-serif" font-size="11" lengthAdjust="spacingAndGlyphs" textLength="116" x="278.5" y="299.834">final String getName()</text><ellipse cx="269.5" cy="309.1543" fill="#84BE84" rx="3" ry="3" style="stroke: #038048; stroke-width: 1.0;"/><text fill="#000000" font-family="sans-serif" font-size="11" lengthAdjust="spacingAndGlyphs" textLength="212" x="278.5" y="312.7891">final Map&lt;String, Reader&gt; getReaders()</text><ellipse cx="269.5" cy="322.1094" fill="#84BE84" rx="3" ry="3" style="stroke: #038048; stroke-width: 1.0;"/><text fill="#000000" font-family="sans-serif" font-size="11" lengthAdjust="spacingAndGlyphs" textLength="193" x="278.5" y="325.7441">final Set&lt;String&gt; getReaderNames()</text><ellipse cx="269.5" cy="335.0645" fill="#84BE84" rx="3" ry="3" style="stroke: #038048; stroke-width: 1.0;"/><text fill="#000000" font-family="sans-serif" font-size="11" lengthAdjust="spacingAndGlyphs" textLength="192" x="278.5" y="338.6992">final Reader getReader(String name)</text><ellipse cx="269.5" cy="348.0195" fill="#84BE84" rx="3" ry="3" style="stroke: #038048; stroke-width: 1.0;"/><text fill="#000000" font-family="sans-serif" font-size="11" lengthAdjust="spacingAndGlyphs" textLength="76" x="278.5" y="351.6543">void register()</text><ellipse cx="269.5" cy="360.9746" fill="#84BE84" rx="3" ry="3" style="stroke: #038048; stroke-width: 1.0;"/><text fill="#000000" font-family="sans-serif" font-size="11" lengthAdjust="spacingAndGlyphs" textLength="90" x="278.5" y="364.6094">void unregister()</text><polygon fill="#FFFF44" points="269.5,368.9297,273.5,372.9297,269.5,376.9297,265.5,372.9297" style="stroke: #B38D22; stroke-width: 1.0;"/><text fill="#000000" font-family="sans-serif" font-size="11" lengthAdjust="spacingAndGlyphs" textLength="98" x="278.5" y="377.5645">void checkStatus()</text><polygon fill="#FFFF44" points="269.5,381.8848,273.5,385.8848,269.5,389.8848,265.5,385.8848" style="stroke: #B38D22; stroke-width: 1.0;"/><text fill="#000000" font-family="sans-serif" font-size="11" font-style="italic" lengthAdjust="spacingAndGlyphs" textLength="219" x="278.5" y="390.5195">Map&lt;String, Reader&gt; initNativeReaders()</text><!--MD5=[da2e4ed478904b6ac7589a4a6a804fe2]
class AbstractObservablePlugin--><rect fill="#FEFECE" height="125.7305" id="AbstractObservablePlugin" style="stroke: #D4AC0D; stroke-width: 1.5;" width="407" x="67.5" y="457.1992"/><ellipse cx="187.25" cy="473.1992" fill="#A9DCDF" rx="11" ry="11" style="stroke: #A9DCDF; stroke-width: 1.0;"/><path d="M187.3633,468.7974 L186.2095,473.8691 L188.5254,473.8691 Z M185.8691,466.5562 L188.8657,466.5562 L192.2109,478.9492 L189.7622,478.9492 L188.9985,475.8862 L185.7197,475.8862 L184.9727,478.9492 L182.5239,478.9492 Z "/><ellipse cx="212.75" cy="472.6992" fill="#84BE84" rx="3" ry="3" style="stroke: #038048; stroke-width: 1.0;"/><text fill="#000000" font-family="sans-serif" font-size="12" font-style="italic" lengthAdjust="spacingAndGlyphs" textLength="148" x="218.75" y="477.7344">AbstractObservablePlugin</text><line style="stroke: #D4AC0D; stroke-width: 1.5;" x1="68.5" x2="473.5" y1="489.1992" y2="489.1992"/><line style="stroke: #D4AC0D; stroke-width: 1.5;" x1="68.5" x2="473.5" y1="497.1992" y2="497.1992"/><ellipse cx="78.5" cy="508.1992" fill="#84BE84" rx="3" ry="3" style="stroke: #038048; stroke-width: 1.0;"/><text fill="#000000" font-family="sans-serif" font-size="11" lengthAdjust="spacingAndGlyphs" textLength="361" x="87.5" y="511.834">void addObserver(final ObservablePlugin.PluginObserver observer)</text><ellipse cx="78.5" cy="521.1543" fill="#84BE84" rx="3" ry="3" style="stroke: #038048; stroke-width: 1.0;"/><text fill="#000000" font-family="sans-serif" font-size="11" lengthAdjust="spacingAndGlyphs" textLength="381" x="87.5" y="524.7891">void removeObserver(final ObservablePlugin.PluginObserver observer)</text><ellipse cx="78.5" cy="534.1094" fill="#84BE84" rx="3" ry="3" style="stroke: #038048; stroke-width: 1.0;"/><text fill="#000000" font-family="sans-serif" font-size="11" lengthAdjust="spacingAndGlyphs" textLength="116" x="87.5" y="537.7441">void clearObservers()</text><ellipse cx="78.5" cy="547.0645" fill="#84BE84" rx="3" ry="3" style="stroke: #038048; stroke-width: 1.0;"/><text fill="#000000" font-family="sans-serif" font-size="11" lengthAdjust="spacingAndGlyphs" textLength="112" x="87.5" y="550.6992">int countObservers()</text><ellipse cx="78.5" cy="560.0195" fill="#84BE84" rx="3" ry="3" style="stroke: #038048; stroke-width: 1.0;"/><text fill="#000000" font-family="sans-serif" font-size="11" lengthAdjust="spacingAndGlyphs" textLength="241" x="87.5" y="563.6543">void notifyObservers(final PluginEvent event)</text><ellipse cx="78.5" cy="572.9746" fill="#84BE84" rx="3" ry="3" style="stroke: #038048; stroke-width: 1.0;"/><text fill="#000000" font-family="sans-serif" font-size="11" lengthAdjust="spacingAndGlyphs" textLength="90" x="87.5" y="576.6094">void unregister()</text><!--MD5=[afe9b948530cb52da59ce106d3726d7e]
class AbstractThreadedObservablePlugin--><rect fill="#FEFECE" height="125.7305" id="AbstractThreadedObservablePlugin" style="stroke: #D4AC0D; stroke-width: 1.5;" width="407" x="67.5" y="643.1992"/><ellipse cx="158.75" cy="659.1992" fill="#A9DCDF" rx="11" ry="11" style="stroke: #A9DCDF; stroke-width: 1.0;"/><path d="M158.8633,654.7974 L157.7095,659.8691 L160.0254,659.8691 Z M157.3691,652.5562 L160.3657,652.5562 L163.7109,664.9492 L161.2622,664.9492 L160.4985,661.8862 L157.2197,661.8862 L156.4727,664.9492 L154.0239,664.9492 Z "/><ellipse cx="184.25" cy="658.6992" fill="#84BE84" rx="3" ry="3" style="stroke: #038048; stroke-width: 1.0;"/><text fill="#000000" font-family="sans-serif" font-size="12" font-style="italic" lengthAdjust="spacingAndGlyphs" textLength="205" x="190.25" y="663.7344">AbstractThreadedObservablePlugin</text><line style="stroke: #D4AC0D; stroke-width: 1.5;" x1="68.5" x2="473.5" y1="675.1992" y2="675.1992"/><line style="stroke: #D4AC0D; stroke-width: 1.5;" x1="68.5" x2="473.5" y1="683.1992" y2="683.1992"/><ellipse cx="78.5" cy="694.1992" fill="#84BE84" rx="3" ry="3" style="stroke: #038048; stroke-width: 1.0;"/><text fill="#000000" font-family="sans-serif" font-size="11" lengthAdjust="spacingAndGlyphs" textLength="361" x="87.5" y="697.834">void addObserver(final ObservablePlugin.PluginObserver observer)</text><ellipse cx="78.5" cy="707.1543" fill="#84BE84" rx="3" ry="3" style="stroke: #038048; stroke-width: 1.0;"/><text fill="#000000" font-family="sans-serif" font-size="11" lengthAdjust="spacingAndGlyphs" textLength="381" x="87.5" y="710.7891">void removeObserver(final ObservablePlugin.PluginObserver observer)</text><ellipse cx="78.5" cy="720.1094" fill="#84BE84" rx="3" ry="3" style="stroke: #038048; stroke-width: 1.0;"/><text fill="#000000" font-family="sans-serif" font-size="11" lengthAdjust="spacingAndGlyphs" textLength="142" x="87.5" y="723.7441">void void clearObservers()</text><polygon fill="#FFFF44" points="78.5,728.0645,82.5,732.0645,78.5,736.0645,74.5,732.0645" style="stroke: #B38D22; stroke-width: 1.0;"/><text fill="#000000" font-family="sans-serif" font-size="11" lengthAdjust="spacingAndGlyphs" textLength="147" x="87.5" y="736.6992">void Boolean isMonitoring()</text><polygon fill="#FFFF44" points="78.5,741.0195,82.5,745.0195,78.5,749.0195,74.5,745.0195" style="stroke: #B38D22; stroke-width: 1.0;"/><text fill="#000000" font-family="sans-serif" font-size="11" font-style="italic" lengthAdjust="spacingAndGlyphs" textLength="251" x="87.5" y="749.6543">SortedSet&lt;String&gt; fetchNativeReadersNames()</text><polygon fill="#FFFF44" points="78.5,753.9746,82.5,757.9746,78.5,761.9746,74.5,757.9746" style="stroke: #B38D22; stroke-width: 1.0;"/><text fill="#000000" font-family="sans-serif" font-size="11" font-style="italic" lengthAdjust="spacingAndGlyphs" textLength="209" x="87.5" y="762.6094">Reader fetchNativeReader(String name)</text><!--MD5=[b628511dd50102041730ee0512f882c8]
class Plugin--><rect fill="#FEFECE" height="48" id="Plugin" style="stroke: #D4AC0D; stroke-width: 1.5;" width="77" x="216.5" y="29.1992"/><ellipse cx="231.5" cy="45.1992" fill="#B4A7E5" rx="11" ry="11" style="stroke: #B4A7E5; stroke-width: 1.0;"/><path d="M227.9277,41.4644 L227.9277,39.3062 L235.3071,39.3062 L235.3071,41.4644 L232.8418,41.4644 L232.8418,49.541 L235.3071,49.541 L235.3071,51.6992 L227.9277,51.6992 L227.9277,49.541 L230.3931,49.541 L230.3931,41.4644 Z "/><ellipse cx="250.5" cy="44.6992" fill="#84BE84" rx="3" ry="3" style="stroke: #038048; stroke-width: 1.0;"/><text fill="#000000" font-family="sans-serif" font-size="12" font-style="italic" lengthAdjust="spacingAndGlyphs" textLength="34" x="256.5" y="49.7344">Plugin</text><line style="stroke: #D4AC0D; stroke-width: 1.5;" x1="217.5" x2="292.5" y1="61.1992" y2="61.1992"/><line style="stroke: #D4AC0D; stroke-width: 1.5;" x1="217.5" x2="292.5" y1="69.1992" y2="69.1992"/><!--MD5=[1fa9a61019755e60a0cb03f0bc3590aa]
class ObservablePlugin--><rect fill="#FEFECE" height="48" id="ObservablePlugin" style="stroke: #D4AC0D; stroke-width: 1.5;" width="143" x="121.5" y="137.1992"/><ellipse cx="136.5" cy="153.1992" fill="#B4A7E5" rx="11" ry="11" style="stroke: #B4A7E5; stroke-width: 1.0;"/><path d="M132.9277,149.4644 L132.9277,147.3062 L140.3071,147.3062 L140.3071,149.4644 L137.8418,149.4644 L137.8418,157.541 L140.3071,157.541 L140.3071,159.6992 L132.9277,159.6992 L132.9277,157.541 L135.3931,157.541 L135.3931,149.4644 Z "/><ellipse cx="155.5" cy="152.6992" fill="#84BE84" rx="3" ry="3" style="stroke: #038048; stroke-width: 1.0;"/><text fill="#000000" font-family="sans-serif" font-size="12" font-style="italic" lengthAdjust="spacingAndGlyphs" textLength="100" x="161.5" y="157.7344">ObservablePlugin</text><line style="stroke: #D4AC0D; stroke-width: 1.5;" x1="122.5" x2="263.5" y1="169.1992" y2="169.1992"/><line style="stroke: #D4AC0D; stroke-width: 1.5;" x1="122.5" x2="263.5" y1="177.1992" y2="177.1992"/><!--MD5=[75676cd63a2ad0ea5e52d64473c6b717]
reverse link Plugin to AbstractPlugin--><path d="M274.58,95.5292 C293.43,135.3392 322.4,196.4892 345.36,244.9492 " fill="none" id="Plugin&lt;-AbstractPlugin" style="stroke: #27AE60; stroke-width: 1.0;"/><polygon fill="none" points="268.2,98.4092,265.96,77.3392,280.85,92.4192,268.2,98.4092" style="stroke: #27AE60; stroke-width: 1.0;"/><!--MD5=[e66d1373bde8a2ec94835cde1c1066a4]
reverse link AbstractPlugin to AbstractObservablePlugin--><path d="M329.11,415.1292 C321.15,429.3892 313.1,443.8092 305.63,457.1792 " fill="none" id="AbstractPlugin&lt;-AbstractObservablePlugin" style="stroke: #27AE60; stroke-width: 1.0;"/><polygon fill="none" points="323.24,411.2892,339.1,397.2392,335.46,418.1092,323.24,411.2892" style="stroke: #27AE60; stroke-width: 1.0;"/><!--MD5=[33b7aa1c2fa9095b379c42389d26e3c9]
reverse link AbstractObservablePlugin to AbstractThreadedObservablePlugin--><path d="M271,603.6792 C271,616.9292 271,630.4492 271,643.1192 " fill="none" id="AbstractObservablePlugin&lt;-AbstractThreadedObservablePlugin" style="stroke: #27AE60; stroke-width: 1.0;"/><polygon fill="none" points="264,603.2392,271,583.2392,278,603.2392,264,603.2392" style="stroke: #27AE60; stroke-width: 1.0;"/><!--MD5=[550a12816f88094ca7e979a72eedae9c]
reverse link Plugin to ObservablePlugin--><path d="M231.25,94.8092 C222.92,109.0492 213.85,124.5492 206.64,136.8792 " fill="none" id="Plugin&lt;-ObservablePlugin" style="stroke: #27AE60; stroke-width: 1.0;"/><polygon fill="none" points="225.41,90.9292,241.55,77.1992,237.49,97.9992,225.41,90.9292" style="stroke: #27AE60; stroke-width: 1.0;"/><!--MD5=[2aa0cf8d008f231bd91dbaf190dd6f7a]
reverse link ObservablePlugin to ObservablePluginNotifier--><path d="M176.45,204.3692 C164.79,234.0892 149.61,272.7692 140.08,297.0492 " fill="none" id="ObservablePlugin&lt;-ObservablePluginNotifier" style="stroke: #27AE60; stroke-width: 1.0;"/><polygon fill="none" points="170.03,201.5692,183.85,185.5092,183.06,206.6892,170.03,201.5692" style="stroke: #27AE60; stroke-width: 1.0;"/><!--MD5=[bef91e4b55e015d10266009b9cbddb29]
reverse link ObservablePluginNotifier to AbstractObservablePlugin--><path d="M159.27,361.9792 C178.65,389.2492 204.76,425.9892 226.87,457.0992 " fill="none" id="ObservablePluginNotifier&lt;-AbstractObservablePlugin" style="stroke: #27AE60; stroke-width: 1.0;"/><polygon fill="none" points="153.49,365.9292,147.61,345.5692,164.9,357.8192,153.49,365.9292" style="stroke: #27AE60; stroke-width: 1.0;"/><!--MD5=[958ade48c01dbb721a902afaba3360cb]
@startuml
title
    Keyple Plugin - Abstract Plugin classes- 1.0.0 (10/11/2020)
end title



skinparam Shadowing false
skinparam ClassFontStyle italic
skinparam ClassBorderColor #D4AC0D
skinparam stereotypeABorderColor #A9DCDF
skinparam stereotypeIBorderColor #B4A7E5
skinparam stereotypeCBorderColor #ADD1B2
skinparam stereotypeEBorderColor #EB93DF
skinparam ClassBackgroundColor<<red>> #FDEDEC
skinparam ClassBorderColor<<red>> #E74C3C
hide <<red>> stereotype
skinparam ClassBackgroundColor<<purple>> #F4ECF7
skinparam ClassBorderColor<<purple>> #8E44AD
hide <<purple>> stereotype
skinparam ClassBackgroundColor<<blue>> #EBF5FB
skinparam ClassBorderColor<<blue>> #3498DB
hide <<blue>> stereotype
skinparam ClassBackgroundColor<<green>> #E9F7EF
skinparam ClassBorderColor<<green>> #27AE60
hide <<green>> stereotype
skinparam ClassBackgroundColor<<grey>> #EAECEE
skinparam ClassBorderColor<<grey>> #2C3E50
hide <<grey>> stereotype


+interface Plugin {

}

+interface ObservablePlugin{
}

package "org.eclipse.keyple.core.plugin" as root {

    +interface ObservablePluginNotifier {
    }

     +abstract class AbstractPlugin{
        +final String getName()
        +final Map<String, Reader> getReaders()
        +final Set<String> getReaderNames()
        +final Reader getReader(String name)
        +void register()
        +void unregister()
        #void checkStatus()
        #{abstract} Map<String, Reader> initNativeReaders()

    }
    +abstract class AbstractObservablePlugin {
        +void addObserver(final ObservablePlugin.PluginObserver observer)
        +void removeObserver(final ObservablePlugin.PluginObserver observer)
        +void clearObservers()
        +int countObservers()
        +void notifyObservers(final PluginEvent event)
        +void unregister()
    }

    +abstract class AbstractThreadedObservablePlugin {
        +void addObserver(final ObservablePlugin.PluginObserver observer)
        +void removeObserver(final ObservablePlugin.PluginObserver observer)
        +void void clearObservers()
        #void Boolean isMonitoring()
        #{abstract} SortedSet<String> fetchNativeReadersNames()
        #{abstract} Reader fetchNativeReader(String name)
    }
}


Plugin <|- - AbstractPlugin #27AE60
AbstractPlugin <|- - AbstractObservablePlugin #27AE60
AbstractObservablePlugin <|- - AbstractThreadedObservablePlugin #27AE60
Plugin <|- - ObservablePlugin #27AE60
ObservablePlugin <|- - ObservablePluginNotifier #27AE60
ObservablePluginNotifier <|- - AbstractObservablePlugin #27AE60
@enduml

PlantUML version 1.2020.09(Sun May 10 12:51:06 CEST 2020)
(GPL source distribution)
Java Runtime: OpenJDK Runtime Environment
JVM: OpenJDK 64-Bit Server VM
Java Version: 11.0.6+8-b520.43
Operating System: Mac OS X
Default Encoding: UTF-8
Language: fr
Country: FR
--></g></svg>