<?xml version="1.0" encoding="UTF-8" standalone="no"?><svg xmlns="http://www.w3.org/2000/svg" xmlns:xlink="http://www.w3.org/1999/xlink" contentScriptType="application/ecmascript" contentStyleType="text/css" height="1082.5px" preserveAspectRatio="none" style="width:1992px;height:1082px;" version="1.1" viewBox="0 0 1992 1082" width="1992.5px" zoomAndPan="magnify"><defs/><g><text fill="#000000" font-family="sans-serif" font-size="45" lengthAdjust="spacingAndGlyphs" textLength="1207.5" x="413.75" y="46.7139">UC 4: RemoteClientPlugin - ObservableReader (07/10/2020)</text><!--MD5=[894bca0b73d7f9a3a6f9deeed838767d]
cluster Client App--><polygon fill="#FFFFFF" points="120,116.6016,315,116.6016,332.5,175.625,1070,175.625,1070,801.6016,120,801.6016,120,116.6016" style="stroke: #000000; stroke-width: 3.75;"/><line style="stroke: #000000; stroke-width: 3.75;" x1="120" x2="332.5" y1="175.625" y2="175.625"/><text fill="#000000" font-family="sans-serif" font-size="35" font-weight="bold" lengthAdjust="spacingAndGlyphs" textLength="180" x="130" y="157.9346">Client App</text><!--MD5=[24dc29b071615c4dcac39c996c469546]
cluster virtualKeyple--><polygon fill="#FFFFFF" points="520,226.6016,985,226.6016,1002.5,285.625,1010,285.625,1010,741.6016,520,741.6016,520,226.6016" style="stroke: #000000; stroke-width: 3.75;"/><line style="stroke: #000000; stroke-width: 3.75;" x1="520" x2="1002.5" y1="285.625" y2="285.625"/><text fill="#000000" font-family="sans-serif" font-size="35" font-weight="bold" lengthAdjust="spacingAndGlyphs" textLength="450" x="530" y="267.9346">Keyple Remote Virtual Lib</text><!--MD5=[057207eb3aecb7e32e9a99f8601ae8aa]
cluster Server App--><polygon fill="#FFFFFF" points="1130,116.6016,1342.5,116.6016,1360,175.625,1937.5,175.625,1937.5,801.6016,1130,801.6016,1130,116.6016" style="stroke: #000000; stroke-width: 3.75;"/><line style="stroke: #000000; stroke-width: 3.75;" x1="1130" x2="1360" y1="175.625" y2="175.625"/><text fill="#000000" font-family="sans-serif" font-size="35" font-weight="bold" lengthAdjust="spacingAndGlyphs" textLength="197.5" x="1140" y="157.9346">Server App</text><!--MD5=[06de4c2a8c4b5af4edb191b660abc35d]
cluster nativeKeyple--><polygon fill="#FFFFFF" points="1190,226.6016,1655,226.6016,1672.5,285.625,1877.5,285.625,1877.5,741.6016,1190,741.6016,1190,226.6016" style="stroke: #000000; stroke-width: 3.75;"/><line style="stroke: #000000; stroke-width: 3.75;" x1="1190" x2="1672.5" y1="285.625" y2="285.625"/><text fill="#000000" font-family="sans-serif" font-size="35" font-weight="bold" lengthAdjust="spacingAndGlyphs" textLength="450" x="1200" y="267.9346">Keyple Remote Native Lib</text><!--MD5=[e6001af16d4774e0fdad2715570119d9]
entity master--><rect fill="#FEFECE" height="94.0234" style="stroke: #D4AC0D; stroke-width: 3.75;" width="320" x="160" y="316.6016"/><rect fill="#FEFECE" height="12.5" style="stroke: #D4AC0D; stroke-width: 3.75;" width="25" x="147.5" y="329.1016"/><rect fill="#FEFECE" height="12.5" style="stroke: #D4AC0D; stroke-width: 3.75;" width="25" x="147.5" y="385.625"/><text fill="#000000" font-family="sans-serif" font-size="35" font-style="italic" lengthAdjust="spacingAndGlyphs" textLength="270" x="185" y="377.9346">Ticketing Service</text><!--MD5=[46c0e94453be0e63c5c0acba14348135]
entity virtualReader--><rect fill="#EBF5FB" height="94.0234" style="stroke: #3498DB; stroke-width: 3.75;" width="350" x="567.5" y="606.6016"/><rect fill="#EBF5FB" height="12.5" style="stroke: #3498DB; stroke-width: 3.75;" width="25" x="555" y="619.1016"/><rect fill="#EBF5FB" height="12.5" style="stroke: #3498DB; stroke-width: 3.75;" width="25" x="555" y="675.625"/><text fill="#000000" font-family="sans-serif" font-size="35" lengthAdjust="spacingAndGlyphs" textLength="300" x="592.5" y="667.9346">ObservableReader</text><!--MD5=[b13b07d55c7883db68a0f180de86afd8]
entity RemoteClientPlugin--><rect fill="#E9F7EF" height="94.0234" style="stroke: #27AE60; stroke-width: 3.75;" width="360" x="567.5" y="316.6016"/><rect fill="#E9F7EF" height="12.5" style="stroke: #27AE60; stroke-width: 3.75;" width="25" x="555" y="329.1016"/><rect fill="#E9F7EF" height="12.5" style="stroke: #27AE60; stroke-width: 3.75;" width="25" x="555" y="385.625"/><text fill="#000000" font-family="sans-serif" font-size="35" lengthAdjust="spacingAndGlyphs" textLength="310" x="592.5" y="377.9346">RemoteClientPlugin</text><!--MD5=[2db0a362b33505ba32821d1f8f5f522c]
entity nativeReader--><rect fill="#EBF5FB" height="94.0234" style="stroke: #3498DB; stroke-width: 3.75;" width="350" x="1342.5" y="606.6016"/><rect fill="#EBF5FB" height="12.5" style="stroke: #3498DB; stroke-width: 3.75;" width="25" x="1330" y="619.1016"/><rect fill="#EBF5FB" height="12.5" style="stroke: #3498DB; stroke-width: 3.75;" width="25" x="1330" y="675.625"/><text fill="#000000" font-family="sans-serif" font-size="35" lengthAdjust="spacingAndGlyphs" textLength="300" x="1367.5" y="667.9346">ObservableReader</text><!--MD5=[336b9fd48f5e9f3ed29f596a82d3af84]
entity Plugin--><rect fill="#E9F7EF" height="94.0234" style="stroke: #27AE60; stroke-width: 3.75;" width="147.5" x="1688.75" y="316.6016"/><rect fill="#E9F7EF" height="12.5" style="stroke: #27AE60; stroke-width: 3.75;" width="25" x="1676.25" y="329.1016"/><rect fill="#E9F7EF" height="12.5" style="stroke: #27AE60; stroke-width: 3.75;" width="25" x="1676.25" y="385.625"/><text fill="#000000" font-family="sans-serif" font-size="35" lengthAdjust="spacingAndGlyphs" textLength="97.5" x="1713.75" y="377.9346">Plugin</text><!--MD5=[fb45b75c48df496aff5e788cb555cfe7]
entity NativeServerService--><rect fill="#E9F7EF" height="94.0234" style="stroke: #27AE60; stroke-width: 3.75;" width="370" x="1230" y="316.6016"/><rect fill="#E9F7EF" height="12.5" style="stroke: #27AE60; stroke-width: 3.75;" width="25" x="1217.5" y="329.1016"/><rect fill="#E9F7EF" height="12.5" style="stroke: #27AE60; stroke-width: 3.75;" width="25" x="1217.5" y="385.625"/><text fill="#000000" font-family="sans-serif" font-size="35" lengthAdjust="spacingAndGlyphs" textLength="320" x="1255" y="377.9346">NativeServerService</text><!--MD5=[421c0c28c3c162af05b6849f8e632b78]
entity Card--><rect fill="#FEFECE" height="94.0234" style="stroke: #D4AC0D; stroke-width: 3.75;" width="127.5" x="1453.75" y="961.6016"/><rect fill="#FEFECE" height="12.5" style="stroke: #D4AC0D; stroke-width: 3.75;" width="25" x="1441.25" y="974.1016"/><rect fill="#FEFECE" height="12.5" style="stroke: #D4AC0D; stroke-width: 3.75;" width="25" x="1441.25" y="1030.625"/><text fill="#000000" font-family="sans-serif" font-size="35" lengthAdjust="spacingAndGlyphs" textLength="77.5" x="1478.75" y="1022.9346">Card</text><!--MD5=[c88a36799ca4d6dff2d7449eacfc25f7]
entity start--><ellipse cx="50" cy="364.1016" fill="#FEFECE" rx="20" ry="20" style="stroke: #A80036; stroke-width: 5.0;"/><text fill="#000000" font-family="sans-serif" font-size="35" lengthAdjust="spacingAndGlyphs" textLength="70" x="15" y="442.9346">start</text><!--MD5=[b0b76e5f08d084e3b42e05b3086adf1d]
link start to master--><path d="M73.2033,364.1016 C97.8315,364.1016 122.46,364.1016 147.0885,364.1016 " fill="none" id="start-&gt;master" style="stroke: #A80036; stroke-width: 2.5;"/><polygon fill="#A80036" points="159.9678,364.1016,137.4678,354.1016,147.4678,364.1016,137.4678,374.1016,159.9678,364.1016" style="stroke: #A80036; stroke-width: 2.5;"/><!--MD5=[31d78c74f6dad304d726d6fea0fbc998]
link master to RemoteClientPlugin--><path d="M480.3125,364.1016 C504.9025,364.1016 529.4925,364.1016 554.08,364.1016 " fill="none" id="master-&gt;RemoteClientPlugin" style="stroke: #A80036; stroke-width: 2.5;"/><polygon fill="#A80036" points="566.94,364.1016,544.44,354.1016,554.44,364.1016,544.44,374.1016,566.94,364.1016" style="stroke: #A80036; stroke-width: 2.5;"/><!--MD5=[e41ad7885d08fa08fcd73e44afacc481]
link master to virtualReader--><path d="M338.3875,412.2816 C355.2975,449.0716 383.645,499.7391 422.5,531.6016 C460.9875,563.1641 508.615,586.9266 555.2575,604.6116 " fill="none" id="master-&gt;virtualReader" style="stroke: #A80036; stroke-width: 2.5;"/><polygon fill="#A80036" points="567.09,608.9791,549.444,591.8073,555.3632,604.6511,542.5193,610.5703,567.09,608.9791" style="stroke: #A80036; stroke-width: 2.5;"/><!--MD5=[d26fa9e2c724c81a5d7e5dc32c93f2cf]
reverse link master to virtualReader--><path d="M397.32,419.4841 C444.8875,451.9491 507.135,494.3116 562.5,531.6016 C599.2575,556.3591 640.3725,583.7891 674.02,606.1666 " fill="none" id="master&lt;-virtualReader" style="stroke: #0000FF; stroke-width: 2.5; stroke-dasharray: 7.0,7.0;"/><polygon fill="#0000FF" points="386.79,412.2941,399.7326,433.2402,397.1131,419.3428,411.0105,416.7232,386.79,412.2941" style="stroke: #0000FF; stroke-width: 2.5;"/><text fill="#0000FF" font-family="sans-serif" font-size="32.5" lengthAdjust="spacingAndGlyphs" textLength="157.5" x="565" y="522.8394">Card Event</text><!--MD5=[8ca21170aca10e44a36310a99fbf9ead]
link RemoteClientPlugin to virtualReader--><path d="M746.7075,411.7616 C745.85,460.6666 744.4775,538.8766 743.535,592.6091 " fill="none" id="RemoteClientPlugin-&gt;virtualReader" style="stroke: #A80036; stroke-width: 2.5;"/><polygon fill="#A80036" points="743.305,605.7091,753.7019,583.3897,743.5264,593.211,733.7051,583.0355,743.305,605.7091" style="stroke: #A80036; stroke-width: 2.5;"/><!--MD5=[de7c3639a480e012ebbd080caba8c9ba]
link RemoteClientPlugin to NativeServerService--><path d="M941.0175,364.1016 C1032.685,364.1016 1124.3525,364.1016 1216.02,364.1016 " fill="none" id="RemoteClientPlugin-NativeServerService" style="stroke: #A80036; stroke-width: 2.5;"/><polygon fill="#A80036" points="1229.545,364.1016,1207.045,354.1016,1217.045,364.1016,1207.045,374.1016,1229.545,364.1016" style="stroke: #A80036; stroke-width: 2.5;"/><polygon fill="#A80036" points="928.065,364.1016,950.565,374.1016,940.565,364.1016,950.565,354.1016,928.065,364.1016" style="stroke: #A80036; stroke-width: 2.5;"/><!--MD5=[36054617502d1ecf60bfed64ecb8db72]
reverse link NativeServerService to virtualReader--><path d="M1296.435,416.8491 C1170.005,470.4291 971.56,554.5291 849.6725,606.1816 " fill="none" id="NativeServerService&lt;-virtualReader" style="stroke: #A80036; stroke-width: 2.5;"/><polygon fill="#A80036" points="1308.44,411.7616,1283.8217,411.328,1296.9297,416.6364,1291.6214,429.7444,1308.44,411.7616" style="stroke: #A80036; stroke-width: 2.5;"/><!--MD5=[027ac3cf3d84557f1cdd1e6a11df3033]
link NativeServerService to Plugin--><path d="M1600.2875,364.1016 C1625.29,364.1016 1650.29,364.1016 1675.29,364.1016 " fill="none" id="NativeServerService-&gt;Plugin" style="stroke: #A80036; stroke-width: 2.5;"/><polygon fill="#A80036" points="1688.365,364.1016,1665.865,354.1016,1675.865,364.1016,1665.865,374.1016,1688.365,364.1016" style="stroke: #A80036; stroke-width: 2.5;"/><!--MD5=[45c22a4faee9c9602002af5cf2b9f1c5]
link NativeServerService to nativeReader--><path d="M1411.7075,412.1891 C1410.84,446.1691 1413.045,493.1466 1427.5,531.6016 C1436.16,554.6366 1450.69,577.0191 1465.575,596.0891 " fill="none" id="NativeServerService-&gt;nativeReader" style="stroke: #A80036; stroke-width: 2.5;"/><polygon fill="#A80036" points="1473.8475,606.3241,1467.4912,582.5365,1465.994,596.5992,1451.9314,595.1021,1473.8475,606.3241" style="stroke: #A80036; stroke-width: 2.5;"/><!--MD5=[f067c3bed2bc8f079565d13dac29e2d8]
reverse link NativeServerService to nativeReader--><path d="M1435.685,424.1141 C1454.9275,477.6166 1483.2275,556.3041 1500.995,605.7091 " fill="none" id="NativeServerService&lt;-nativeReader" style="stroke: #0000FF; stroke-width: 2.5; stroke-dasharray: 7.0,7.0;"/><polygon fill="#0000FF" points="1431.2425,411.7616,1429.4493,436.3183,1435.4738,423.5236,1448.2685,429.5482,1431.2425,411.7616" style="stroke: #0000FF; stroke-width: 2.5;"/><text fill="#0000FF" font-family="sans-serif" font-size="32.5" lengthAdjust="spacingAndGlyphs" textLength="157.5" x="1475" y="522.8394">Card Event</text><!--MD5=[f2f51e7a003928e004d0b7e3d5a5a367]
link Plugin to nativeReader--><path d="M1737.7325,411.6566 C1717.685,446.2141 1687.515,494.1791 1655,531.6016 C1634.4525,555.2491 1609.265,578.5316 1586.09,598.2016 " fill="none" id="Plugin-&gt;nativeReader" style="stroke: #A80036; stroke-width: 2.5;"/><polygon fill="#A80036" points="1576.2975,606.4016,1599.9678,599.6216,1585.8806,598.3757,1587.1265,584.2886,1576.2975,606.4016" style="stroke: #A80036; stroke-width: 2.5;"/><!--MD5=[19b42d82525af6e19ceb3ad49b035f9b]
link nativeReader to Card--><path d="M1510.0075,702.4141 C1503.36,748.8291 1495.365,822.6958 1500,886.6016 C1501.46,906.7338 1504.2825,928.6178 1507.24,948.1173 " fill="none" id="nativeReader-&gt;Card" style="stroke: #A80036; stroke-width: 2.5;"/><polygon fill="#A80036" points="1509.2925,961.1856,1515.6771,937.4056,1507.3513,948.8372,1495.9197,940.5115,1509.2925,961.1856" style="stroke: #A80036; stroke-width: 2.5;"/><!--MD5=[77feb0f63a61c36ed4acd3522d4bb02e]
reverse link nativeReader to Card--><path d="M1517.5,714.8241 C1517.5,783.8491 1517.5,897.4611 1517.5,960.6231 " fill="none" id="nativeReader&lt;-Card" style="stroke: #0000FF; stroke-width: 2.5; stroke-dasharray: 7.0,7.0;"/><polygon fill="#0000FF" points="1517.5,701.6416,1507.5,724.1416,1517.5,714.1416,1527.5,724.1416,1517.5,701.6416" style="stroke: #0000FF; stroke-width: 2.5;"/><text fill="#0000FF" font-family="sans-serif" font-size="32.5" lengthAdjust="spacingAndGlyphs" textLength="157.5" x="1520" y="877.8394">Card Event</text><!--MD5=[7ca964937a8e305794ff613fe2b1b2d8]
@startuml
title
    UC 4: RemoteClientPlugin - ObservableReader (07/10/2020)
end title


skinparam Shadowing false
skinparam component {
    BorderColor #D4AC0D
    BackgroundColor<<red>> #FDEDEC
    BorderColor<<red>> #E74C3C
    BackgroundColor<<purple>> #F4ECF7
    BorderColor<<purple>> #8E44AD
    BackgroundColor<<blue>> #EBF5FB
    BorderColor<<blue>> #3498DB
    BackgroundColor<<green>> #E9F7EF
    BorderColor<<green>> #27AE60
    BackgroundColor<<grey>> #EAECEE
    BorderColor<<grey>> #2C3E50
}
hide <<red>> stereotype
hide <<purple>> stereotype
hide <<blue>> stereotype
hide <<green>> stereotype
hide <<grey>> stereotype


package "Client App" {
    [<i>Ticketing Service</i>] as master
    package "Keyple Remote Virtual Lib" as virtualKeyple {
        [ObservableReader] as virtualReader <<blue>>
        [RemoteClientPlugin] <<green>>
    }
}
[Card]
package "Server App" {
    package "Keyple Remote Native Lib" as nativeKeyple {
        [ObservableReader] as nativeReader <<blue>>
        [Plugin] <<green>>
        [NativeServerService] <<green>>
    }
}

start -> master
master -> [RemoteClientPlugin]
master -> virtualReader
[RemoteClientPlugin] - -> virtualReader

[RemoteClientPlugin] <-> [NativeServerService]
virtualReader -up-> [NativeServerService]

[NativeServerService] -> [Plugin]
[NativeServerService] -> nativeReader
[Plugin] - -> nativeReader
nativeReader - -> [Card]

virtualReader .up.> master #Blue : <color:blue>Card Event
[Card] .up.> nativeReader #Blue : <color:blue>Card Event
nativeReader .up.> [NativeServerService] #Blue : <color:blue>Card Event

@enduml

PlantUML version 1.2020.09(Sun May 10 12:51:06 CEST 2020)
(GPL source distribution)
Java Runtime: OpenJDK Runtime Environment
JVM: OpenJDK 64-Bit Server VM
Java Version: 11.0.8+10-b944.34
Operating System: Windows 10
Default Encoding: Cp1252
Language: fr
Country: FR
--></g></svg>