<?xml version="1.0" encoding="UTF-8" standalone="no"?><svg xmlns="http://www.w3.org/2000/svg" xmlns:xlink="http://www.w3.org/1999/xlink" contentScriptType="application/ecmascript" contentStyleType="text/css" height="997.5px" preserveAspectRatio="none" style="width:2707px;height:997px;" version="1.1" viewBox="0 0 2707 997" width="2707.5px" zoomAndPan="magnify"><defs/><g><text fill="#000000" font-family="sans-serif" font-size="45" lengthAdjust="spacingAndGlyphs" textLength="1207.5" x="771.25" y="46.7139">UC 5: RemoteClientObservablePlugin - Reader (07/10/2020)</text><!--MD5=[894bca0b73d7f9a3a6f9deeed838767d]
cluster Client App--><polygon fill="#FFFFFF" points="120,116.6016,315,116.6016,332.5,175.625,1407.5,175.625,1407.5,759.1016,120,759.1016,120,116.6016" style="stroke: #000000; stroke-width: 3.75;"/><line style="stroke: #000000; stroke-width: 3.75;" x1="120" x2="332.5" y1="175.625" y2="175.625"/><text fill="#000000" font-family="sans-serif" font-size="35" font-weight="bold" lengthAdjust="spacingAndGlyphs" textLength="180" x="130" y="157.9346">Client App</text><!--MD5=[24dc29b071615c4dcac39c996c469546]
cluster virtualKeyple--><polygon fill="#FFFFFF" points="722.5,226.6016,1187.5,226.6016,1205,285.625,1347.5,285.625,1347.5,699.1016,722.5,699.1016,722.5,226.6016" style="stroke: #000000; stroke-width: 3.75;"/><line style="stroke: #000000; stroke-width: 3.75;" x1="722.5" x2="1205" y1="285.625" y2="285.625"/><text fill="#000000" font-family="sans-serif" font-size="35" font-weight="bold" lengthAdjust="spacingAndGlyphs" textLength="450" x="732.5" y="267.9346">Keyple Remote Virtual Lib</text><!--MD5=[057207eb3aecb7e32e9a99f8601ae8aa]
cluster Server App--><polygon fill="#FFFFFF" points="1467.5,116.6016,1680,116.6016,1697.5,175.625,2652.5,175.625,2652.5,759.1016,1467.5,759.1016,1467.5,116.6016" style="stroke: #000000; stroke-width: 3.75;"/><line style="stroke: #000000; stroke-width: 3.75;" x1="1467.5" x2="1697.5" y1="175.625" y2="175.625"/><text fill="#000000" font-family="sans-serif" font-size="35" font-weight="bold" lengthAdjust="spacingAndGlyphs" textLength="197.5" x="1477.5" y="157.9346">Server App</text><!--MD5=[06de4c2a8c4b5af4edb191b660abc35d]
cluster nativeKeyple--><polygon fill="#FFFFFF" points="1527.5,226.6016,1992.5,226.6016,2010,285.625,2592.5,285.625,2592.5,699.1016,1527.5,699.1016,1527.5,226.6016" style="stroke: #000000; stroke-width: 3.75;"/><line style="stroke: #000000; stroke-width: 3.75;" x1="1527.5" x2="2010" y1="285.625" y2="285.625"/><text fill="#000000" font-family="sans-serif" font-size="35" font-weight="bold" lengthAdjust="spacingAndGlyphs" textLength="450" x="1537.5" y="267.9346">Keyple Remote Native Lib</text><!--MD5=[e6001af16d4774e0fdad2715570119d9]
entity master--><rect fill="#FEFECE" height="94.0234" style="stroke: #D4AC0D; stroke-width: 3.75;" width="320" x="160" y="316.6016"/><rect fill="#FEFECE" height="12.5" style="stroke: #D4AC0D; stroke-width: 3.75;" width="25" x="147.5" y="329.1016"/><rect fill="#FEFECE" height="12.5" style="stroke: #D4AC0D; stroke-width: 3.75;" width="25" x="147.5" y="385.625"/><text fill="#000000" font-family="sans-serif" font-size="35" font-style="italic" lengthAdjust="spacingAndGlyphs" textLength="270" x="185" y="377.9346">Ticketing Service</text><!--MD5=[46c0e94453be0e63c5c0acba14348135]
entity virtualReader--><rect fill="#EBF5FB" height="94.0234" style="stroke: #3498DB; stroke-width: 3.75;" width="167.5" x="951.25" y="564.1016"/><rect fill="#EBF5FB" height="12.5" style="stroke: #3498DB; stroke-width: 3.75;" width="25" x="938.75" y="576.6016"/><rect fill="#EBF5FB" height="12.5" style="stroke: #3498DB; stroke-width: 3.75;" width="25" x="938.75" y="633.125"/><text fill="#000000" font-family="sans-serif" font-size="35" lengthAdjust="spacingAndGlyphs" textLength="117.5" x="976.25" y="625.4346">Reader</text><!--MD5=[72e725cd5d40f7a31d8a09808e7383e4]
entity RemoteClientObservablePlugin--><rect fill="#E9F7EF" height="94.0234" style="stroke: #27AE60; stroke-width: 3.75;" width="542.5" x="763.75" y="316.6016"/><rect fill="#E9F7EF" height="12.5" style="stroke: #27AE60; stroke-width: 3.75;" width="25" x="751.25" y="329.1016"/><rect fill="#E9F7EF" height="12.5" style="stroke: #27AE60; stroke-width: 3.75;" width="25" x="751.25" y="385.625"/><text fill="#000000" font-family="sans-serif" font-size="35" lengthAdjust="spacingAndGlyphs" textLength="492.5" x="788.75" y="377.9346">RemoteClientObservablePlugin</text><!--MD5=[2db0a362b33505ba32821d1f8f5f522c]
entity nativeReader--><rect fill="#EBF5FB" height="94.0234" style="stroke: #3498DB; stroke-width: 3.75;" width="167.5" x="1986.25" y="564.1016"/><rect fill="#EBF5FB" height="12.5" style="stroke: #3498DB; stroke-width: 3.75;" width="25" x="1973.75" y="576.6016"/><rect fill="#EBF5FB" height="12.5" style="stroke: #3498DB; stroke-width: 3.75;" width="25" x="1973.75" y="633.125"/><text fill="#000000" font-family="sans-serif" font-size="35" lengthAdjust="spacingAndGlyphs" textLength="117.5" x="2011.25" y="625.4346">Reader</text><!--MD5=[2ef2290090a60d0fe9b51c09a3d513b7]
entity ObservablePlugin--><rect fill="#E9F7EF" height="94.0234" style="stroke: #27AE60; stroke-width: 3.75;" width="330" x="2222.5" y="316.6016"/><rect fill="#E9F7EF" height="12.5" style="stroke: #27AE60; stroke-width: 3.75;" width="25" x="2210" y="329.1016"/><rect fill="#E9F7EF" height="12.5" style="stroke: #27AE60; stroke-width: 3.75;" width="25" x="2210" y="385.625"/><text fill="#000000" font-family="sans-serif" font-size="35" lengthAdjust="spacingAndGlyphs" textLength="280" x="2247.5" y="377.9346">ObservablePlugin</text><!--MD5=[fb45b75c48df496aff5e788cb555cfe7]
entity NativeServerService--><rect fill="#E9F7EF" height="94.0234" style="stroke: #27AE60; stroke-width: 3.75;" width="370" x="1567.5" y="316.6016"/><rect fill="#E9F7EF" height="12.5" style="stroke: #27AE60; stroke-width: 3.75;" width="25" x="1555" y="329.1016"/><rect fill="#E9F7EF" height="12.5" style="stroke: #27AE60; stroke-width: 3.75;" width="25" x="1555" y="385.625"/><text fill="#000000" font-family="sans-serif" font-size="35" lengthAdjust="spacingAndGlyphs" textLength="320" x="1592.5" y="377.9346">NativeServerService</text><!--MD5=[421c0c28c3c162af05b6849f8e632b78]
entity Card--><rect fill="#FEFECE" height="94.0234" style="stroke: #D4AC0D; stroke-width: 3.75;" width="127.5" x="2006.25" y="876.6016"/><rect fill="#FEFECE" height="12.5" style="stroke: #D4AC0D; stroke-width: 3.75;" width="25" x="1993.75" y="889.1016"/><rect fill="#FEFECE" height="12.5" style="stroke: #D4AC0D; stroke-width: 3.75;" width="25" x="1993.75" y="945.625"/><text fill="#000000" font-family="sans-serif" font-size="35" lengthAdjust="spacingAndGlyphs" textLength="77.5" x="2031.25" y="937.9346">Card</text><!--MD5=[c88a36799ca4d6dff2d7449eacfc25f7]
entity start--><ellipse cx="50" cy="364.1016" fill="#FEFECE" rx="20" ry="20" style="stroke: #A80036; stroke-width: 5.0;"/><text fill="#000000" font-family="sans-serif" font-size="35" lengthAdjust="spacingAndGlyphs" textLength="70" x="15" y="442.9346">start</text><!--MD5=[b0b76e5f08d084e3b42e05b3086adf1d]
link start to master--><path d="M73.2033,364.1016 C97.8315,364.1016 122.46,364.1016 147.0885,364.1016 " fill="none" id="start-&gt;master" style="stroke: #A80036; stroke-width: 2.5;"/><polygon fill="#A80036" points="159.9678,364.1016,137.4678,354.1016,147.4678,364.1016,137.4678,374.1016,159.9678,364.1016" style="stroke: #A80036; stroke-width: 2.5;"/><!--MD5=[195e59ee0f5047d6500cb329e4178028]
link master to RemoteClientObservablePlugin--><path d="M480.235,369.5416 C511.52,370.4016 544.0775,371.1516 574.5825,371.6016 C631.435,372.4391 692.2325,372.2316 750.3975,371.4966 " fill="none" id="master-&gt;RemoteClientObservablePlugin" style="stroke: #A80036; stroke-width: 2.5;"/><polygon fill="#A80036" points="763.5475,371.3216,740.9152,361.6247,751.0486,371.4895,741.1838,381.6229,763.5475,371.3216" style="stroke: #A80036; stroke-width: 2.5;"/><!--MD5=[7ae4fe07c834af4dd72c29fde50eacd0]
reverse link master to RemoteClientObservablePlugin--><path d="M493.3175,364.1016 C574.3925,364.1016 672.8525,364.1016 763.4775,364.1016 " fill="none" id="master&lt;-RemoteClientObservablePlugin" style="stroke: #008000; stroke-width: 2.5; stroke-dasharray: 7.0,7.0;"/><polygon fill="#008000" points="480.46,364.1016,502.96,374.1016,492.96,364.1016,502.96,354.1016,480.46,364.1016" style="stroke: #008000; stroke-width: 2.5;"/><text fill="#008000" font-family="sans-serif" font-size="32.5" lengthAdjust="spacingAndGlyphs" textLength="192.5" x="525.625" y="347.8394">Reader Event</text><!--MD5=[e41ad7885d08fa08fcd73e44afacc481]
link master to virtualReader--><path d="M452.81,411.6466 C593.76,459.4516 813.075,533.8341 938.42,576.3466 " fill="none" id="master-&gt;virtualReader" style="stroke: #A80036; stroke-width: 2.5;"/><polygon fill="#A80036" points="950.995,580.6116,932.8976,563.9162,939.157,576.5977,926.4755,582.857,950.995,580.6116" style="stroke: #A80036; stroke-width: 2.5;"/><!--MD5=[a9e6861faaa2a3bde8db2367a65cf76a]
link RemoteClientObservablePlugin to virtualReader--><path d="M1035,412.2141 C1035,451.5041 1035,508.4391 1035,550.9866 " fill="none" id="RemoteClientObservablePlugin-&gt;virtualReader" style="stroke: #A80036; stroke-width: 2.5;"/><polygon fill="#A80036" points="1035,563.6941,1045,541.1941,1035,551.1941,1025,541.1941,1035,563.6941" style="stroke: #A80036; stroke-width: 2.5;"/><!--MD5=[8b11ecd09a3428ad27a5ce2d8e8b02ce]
link RemoteClientObservablePlugin to NativeServerService--><path d="M1320.08,364.1016 C1398.2425,364.1016 1476.4025,364.1016 1554.565,364.1016 " fill="none" id="RemoteClientObservablePlugin-NativeServerService" style="stroke: #A80036; stroke-width: 2.5;"/><polygon fill="#A80036" points="1567.11,364.1016,1544.61,354.1016,1554.61,364.1016,1544.61,374.1016,1567.11,364.1016" style="stroke: #A80036; stroke-width: 2.5;"/><polygon fill="#A80036" points="1306.865,364.1016,1329.365,374.1016,1319.365,364.1016,1329.365,354.1016,1306.865,364.1016" style="stroke: #A80036; stroke-width: 2.5;"/><!--MD5=[36054617502d1ecf60bfed64ecb8db72]
reverse link NativeServerService to virtualReader--><path d="M1607.04,415.7641 C1460.4025,465.3241 1239.1225,540.1116 1119.2975,580.6116 " fill="none" id="NativeServerService&lt;-virtualReader" style="stroke: #A80036; stroke-width: 2.5;"/><polygon fill="#A80036" points="1619.225,411.6466,1594.7073,409.3812,1607.3837,415.6508,1601.1141,428.3272,1619.225,411.6466" style="stroke: #A80036; stroke-width: 2.5;"/><!--MD5=[8520c925c0a7e72f48e98bedf67c6f25]
link NativeServerService to ObservablePlugin--><path d="M1937.5075,370.3291 C1998.0575,371.6916 2065.645,372.4941 2127.5,371.6016 C2154.125,371.2166 2182.2825,370.6116 2209.8475,369.9091 " fill="none" id="NativeServerService-&gt;ObservablePlugin" style="stroke: #A80036; stroke-width: 2.5;"/><polygon fill="#A80036" points="2222.465,369.5791,2199.7099,360.1739,2209.9693,369.9076,2200.2356,380.167,2222.465,369.5791" style="stroke: #A80036; stroke-width: 2.5;"/><!--MD5=[45d694b34c10eda2cd200f3184987ec3]
reverse link NativeServerService to ObservablePlugin--><path d="M1950.65,364.1016 C2037.945,364.1016 2139.33,364.1016 2222.4425,364.1016 " fill="none" id="NativeServerService&lt;-ObservablePlugin" style="stroke: #008000; stroke-width: 2.5; stroke-dasharray: 7.0,7.0;"/><polygon fill="#008000" points="1937.875,364.1016,1960.375,374.1016,1950.375,364.1016,1960.375,354.1016,1937.875,364.1016" style="stroke: #008000; stroke-width: 2.5;"/><text fill="#008000" font-family="sans-serif" font-size="32.5" lengthAdjust="spacingAndGlyphs" textLength="192.5" x="1983.75" y="347.8394">Reader Event</text><!--MD5=[45c22a4faee9c9602002af5cf2b9f1c5]
link NativeServerService to nativeReader--><path d="M1811.475,411.6466 C1864.825,452.3916 1943.455,512.4491 1999.9775,555.6191 " fill="none" id="NativeServerService-&gt;nativeReader" style="stroke: #A80036; stroke-width: 2.5;"/><polygon fill="#A80036" points="2010.2625,563.4766,1998.4559,541.8698,2000.3302,555.8871,1986.3128,557.7615,2010.2625,563.4766" style="stroke: #A80036; stroke-width: 2.5;"/><!--MD5=[36cc873b700f4ce9b2b978a78a038af7]
link ObservablePlugin to nativeReader--><path d="M2328.525,411.6466 C2275.175,452.3916 2196.545,512.4491 2140.0225,555.6191 " fill="none" id="ObservablePlugin-&gt;nativeReader" style="stroke: #A80036; stroke-width: 2.5;"/><polygon fill="#A80036" points="2129.7375,563.4766,2153.6872,557.7615,2139.6698,555.8871,2141.5441,541.8698,2129.7375,563.4766" style="stroke: #A80036; stroke-width: 2.5;"/><!--MD5=[19b42d82525af6e19ceb3ad49b035f9b]
link nativeReader to Card--><path d="M2070,659.4741 C2070,713.5241 2070,803.9321 2070,863.1671 " fill="none" id="nativeReader-&gt;Card" style="stroke: #A80036; stroke-width: 2.5;"/><polygon fill="#A80036" points="2070,876.0428,2080,853.5428,2070,863.5428,2060,853.5428,2070,876.0428" style="stroke: #A80036; stroke-width: 2.5;"/><!--MD5=[f38af0d978c31ba1896c58a235635380]
@startuml
title
    UC 5: RemoteClientObservablePlugin - Reader (07/10/2020)
end title


skinparam Shadowing false
skinparam component {
    BorderColor #D4AC0D
    BackgroundColor<<red>> #FDEDEC
    BorderColor<<red>> #E74C3C
    BackgroundColor<<purple>> #F4ECF7
    BorderColor<<purple>> #8E44AD
    BackgroundColor<<blue>> #EBF5FB
    BorderColor<<blue>> #3498DB
    BackgroundColor<<green>> #E9F7EF
    BorderColor<<green>> #27AE60
    BackgroundColor<<grey>> #EAECEE
    BorderColor<<grey>> #2C3E50
}
hide <<red>> stereotype
hide <<purple>> stereotype
hide <<blue>> stereotype
hide <<green>> stereotype
hide <<grey>> stereotype


package "Client App" {
    [<i>Ticketing Service</i>] as master
    package "Keyple Remote Virtual Lib" as virtualKeyple {
        [Reader] as virtualReader <<blue>>
        [RemoteClientObservablePlugin] <<green>>
    }
}
[Card]
package "Server App" {
    package "Keyple Remote Native Lib" as nativeKeyple {
        [Reader] as nativeReader <<blue>>
        [ObservablePlugin] <<green>>
        [NativeServerService] <<green>>
    }
}

start -> master
master -> [RemoteClientObservablePlugin]
master -> virtualReader
[RemoteClientObservablePlugin] - -> virtualReader

[RemoteClientObservablePlugin] <-> [NativeServerService]
virtualReader -up-> [NativeServerService]

[NativeServerService] -> [ObservablePlugin]
[NativeServerService] -> nativeReader
[ObservablePlugin] - -> nativeReader
nativeReader - -> [Card]

[RemoteClientObservablePlugin] .left.> master #Green : <color:green>Reader Event
[ObservablePlugin] .left.> [NativeServerService] #Green : <color:green>Reader Event

@enduml

PlantUML version 1.2020.09(Sun May 10 12:51:06 CEST 2020)
(GPL source distribution)
Java Runtime: OpenJDK Runtime Environment
JVM: OpenJDK 64-Bit Server VM
Java Version: 11.0.8+10-b944.34
Operating System: Windows 10
Default Encoding: Cp1252
Language: fr
Country: FR
--></g></svg>