<?xml version="1.0" encoding="UTF-8" standalone="no"?><svg xmlns="http://www.w3.org/2000/svg" xmlns:xlink="http://www.w3.org/1999/xlink" contentScriptType="application/ecmascript" contentStyleType="text/css" height="927.5px" preserveAspectRatio="none" style="width:2160px;height:927px;" version="1.1" viewBox="0 0 2160 927" width="2160px" zoomAndPan="magnify"><defs/><g><text fill="#000000" font-family="sans-serif" font-size="45" lengthAdjust="spacingAndGlyphs" textLength="1067.5" x="567.5" y="46.7139">UC 7: RemotePoolClientPlugin - Reader (07/10/2020)</text><!--MD5=[894bca0b73d7f9a3a6f9deeed838767d]
cluster Client App--><polygon fill="#FFFFFF" points="120,116.6016,315,116.6016,332.5,175.625,1097.5,175.625,1097.5,756.6016,120,756.6016,120,116.6016" style="stroke: #000000; stroke-width: 3.75;"/><line style="stroke: #000000; stroke-width: 3.75;" x1="120" x2="332.5" y1="175.625" y2="175.625"/><text fill="#000000" font-family="sans-serif" font-size="35" font-weight="bold" lengthAdjust="spacingAndGlyphs" textLength="180" x="130" y="157.9346">Client App</text><!--MD5=[24dc29b071615c4dcac39c996c469546]
cluster virtualKeyple--><polygon fill="#FFFFFF" points="527.5,226.6016,992.5,226.6016,1010,285.625,1037.5,285.625,1037.5,696.6016,527.5,696.6016,527.5,226.6016" style="stroke: #000000; stroke-width: 3.75;"/><line style="stroke: #000000; stroke-width: 3.75;" x1="527.5" x2="1010" y1="285.625" y2="285.625"/><text fill="#000000" font-family="sans-serif" font-size="35" font-weight="bold" lengthAdjust="spacingAndGlyphs" textLength="450" x="537.5" y="267.9346">Keyple Remote Virtual Lib</text><!--MD5=[057207eb3aecb7e32e9a99f8601ae8aa]
cluster Server App--><polygon fill="#FFFFFF" points="1157.5,116.6016,1370,116.6016,1387.5,175.625,2105,175.625,2105,756.6016,1157.5,756.6016,1157.5,116.6016" style="stroke: #000000; stroke-width: 3.75;"/><line style="stroke: #000000; stroke-width: 3.75;" x1="1157.5" x2="1387.5" y1="175.625" y2="175.625"/><text fill="#000000" font-family="sans-serif" font-size="35" font-weight="bold" lengthAdjust="spacingAndGlyphs" textLength="197.5" x="1167.5" y="157.9346">Server App</text><!--MD5=[06de4c2a8c4b5af4edb191b660abc35d]
cluster nativeKeyple--><polygon fill="#FFFFFF" points="1217.5,226.6016,1682.5,226.6016,1700,285.625,2045,285.625,2045,696.6016,1217.5,696.6016,1217.5,226.6016" style="stroke: #000000; stroke-width: 3.75;"/><line style="stroke: #000000; stroke-width: 3.75;" x1="1217.5" x2="1700" y1="285.625" y2="285.625"/><text fill="#000000" font-family="sans-serif" font-size="35" font-weight="bold" lengthAdjust="spacingAndGlyphs" textLength="450" x="1227.5" y="267.9346">Keyple Remote Native Lib</text><!--MD5=[e6001af16d4774e0fdad2715570119d9]
entity master--><rect fill="#FEFECE" height="94.0234" style="stroke: #D4AC0D; stroke-width: 3.75;" width="320" x="160" y="316.6016"/><rect fill="#FEFECE" height="12.5" style="stroke: #D4AC0D; stroke-width: 3.75;" width="25" x="147.5" y="329.1016"/><rect fill="#FEFECE" height="12.5" style="stroke: #D4AC0D; stroke-width: 3.75;" width="25" x="147.5" y="385.625"/><text fill="#000000" font-family="sans-serif" font-size="35" font-style="italic" lengthAdjust="spacingAndGlyphs" textLength="270" x="185" y="377.9346">Ticketing Service</text><!--MD5=[46c0e94453be0e63c5c0acba14348135]
entity virtualReader--><rect fill="#EBF5FB" height="94.0234" style="stroke: #3498DB; stroke-width: 3.75;" width="167.5" x="698.75" y="561.6016"/><rect fill="#EBF5FB" height="12.5" style="stroke: #3498DB; stroke-width: 3.75;" width="25" x="686.25" y="574.1016"/><rect fill="#EBF5FB" height="12.5" style="stroke: #3498DB; stroke-width: 3.75;" width="25" x="686.25" y="630.625"/><text fill="#000000" font-family="sans-serif" font-size="35" lengthAdjust="spacingAndGlyphs" textLength="117.5" x="723.75" y="622.9346">Reader</text><!--MD5=[98fadbae30fcddf8d0c2ff31c65fa10e]
entity RemotePoolClientPlugin--><rect fill="#E9F7EF" height="94.0234" style="stroke: #27AE60; stroke-width: 3.75;" width="430" x="567.5" y="316.6016"/><rect fill="#E9F7EF" height="12.5" style="stroke: #27AE60; stroke-width: 3.75;" width="25" x="555" y="329.1016"/><rect fill="#E9F7EF" height="12.5" style="stroke: #27AE60; stroke-width: 3.75;" width="25" x="555" y="385.625"/><text fill="#000000" font-family="sans-serif" font-size="35" lengthAdjust="spacingAndGlyphs" textLength="380" x="592.5" y="377.9346">RemotePoolClientPlugin</text><!--MD5=[2db0a362b33505ba32821d1f8f5f522c]
entity nativeReader--><rect fill="#EBF5FB" height="94.0234" style="stroke: #3498DB; stroke-width: 3.75;" width="167.5" x="1601.25" y="561.6016"/><rect fill="#EBF5FB" height="12.5" style="stroke: #3498DB; stroke-width: 3.75;" width="25" x="1588.75" y="574.1016"/><rect fill="#EBF5FB" height="12.5" style="stroke: #3498DB; stroke-width: 3.75;" width="25" x="1588.75" y="630.625"/><text fill="#000000" font-family="sans-serif" font-size="35" lengthAdjust="spacingAndGlyphs" textLength="117.5" x="1626.25" y="622.9346">Reader</text><!--MD5=[f0b036cbba913203a311932c9557494e]
entity PoolPlugin--><rect fill="#E9F7EF" height="94.0234" style="stroke: #27AE60; stroke-width: 3.75;" width="217.5" x="1786.25" y="316.6016"/><rect fill="#E9F7EF" height="12.5" style="stroke: #27AE60; stroke-width: 3.75;" width="25" x="1773.75" y="329.1016"/><rect fill="#E9F7EF" height="12.5" style="stroke: #27AE60; stroke-width: 3.75;" width="25" x="1773.75" y="385.625"/><text fill="#000000" font-family="sans-serif" font-size="35" lengthAdjust="spacingAndGlyphs" textLength="167.5" x="1811.25" y="377.9346">PoolPlugin</text><!--MD5=[49fefe2710379822dc23e120feea192a]
entity NativePoolServerService--><rect fill="#E9F7EF" height="94.0234" style="stroke: #27AE60; stroke-width: 3.75;" width="440" x="1257.5" y="316.6016"/><rect fill="#E9F7EF" height="12.5" style="stroke: #27AE60; stroke-width: 3.75;" width="25" x="1245" y="329.1016"/><rect fill="#E9F7EF" height="12.5" style="stroke: #27AE60; stroke-width: 3.75;" width="25" x="1245" y="385.625"/><text fill="#000000" font-family="sans-serif" font-size="35" lengthAdjust="spacingAndGlyphs" textLength="390" x="1282.5" y="377.9346">NativePoolServerService</text><!--MD5=[421c0c28c3c162af05b6849f8e632b78]
entity Card--><rect fill="#FEFECE" height="94.0234" style="stroke: #D4AC0D; stroke-width: 3.75;" width="127.5" x="1621.25" y="806.6016"/><rect fill="#FEFECE" height="12.5" style="stroke: #D4AC0D; stroke-width: 3.75;" width="25" x="1608.75" y="819.1016"/><rect fill="#FEFECE" height="12.5" style="stroke: #D4AC0D; stroke-width: 3.75;" width="25" x="1608.75" y="875.625"/><text fill="#000000" font-family="sans-serif" font-size="35" lengthAdjust="spacingAndGlyphs" textLength="77.5" x="1646.25" y="867.9346">Card</text><!--MD5=[c88a36799ca4d6dff2d7449eacfc25f7]
entity start--><ellipse cx="50" cy="364.1016" fill="#FEFECE" rx="20" ry="20" style="stroke: #A80036; stroke-width: 5.0;"/><text fill="#000000" font-family="sans-serif" font-size="35" lengthAdjust="spacingAndGlyphs" textLength="70" x="15" y="442.9346">start</text><!--MD5=[b0b76e5f08d084e3b42e05b3086adf1d]
link start to master--><path d="M73.2033,364.1016 C97.8315,364.1016 122.46,364.1016 147.0885,364.1016 " fill="none" id="start-&gt;master" style="stroke: #A80036; stroke-width: 2.5;"/><polygon fill="#A80036" points="159.9678,364.1016,137.4678,354.1016,147.4678,364.1016,137.4678,374.1016,159.9678,364.1016" style="stroke: #A80036; stroke-width: 2.5;"/><!--MD5=[774238ae5711c2b357309f59344b3e54]
link master to RemotePoolClientPlugin--><path d="M480.79,364.1016 C505.2125,364.1016 529.6325,364.1016 554.055,364.1016 " fill="none" id="master-&gt;RemotePoolClientPlugin" style="stroke: #A80036; stroke-width: 2.5;"/><polygon fill="#A80036" points="566.825,364.1016,544.325,354.1016,554.325,364.1016,544.325,374.1016,566.825,364.1016" style="stroke: #A80036; stroke-width: 2.5;"/><!--MD5=[e41ad7885d08fa08fcd73e44afacc481]
link master to virtualReader--><path d="M406.9925,411.7441 C486.5525,453.0291 604.0425,513.9966 686.3575,556.7116 " fill="none" id="master-&gt;virtualReader" style="stroke: #A80036; stroke-width: 2.5;"/><polygon fill="#A80036" points="698.2375,562.8766,682.8709,543.6381,687.142,557.1199,673.6602,561.391,698.2375,562.8766" style="stroke: #A80036; stroke-width: 2.5;"/><!--MD5=[1e52869cca28c8164e715f9ef45ffc1a]
link RemotePoolClientPlugin to virtualReader--><path d="M782.5,411.7441 C782.5,450.3841 782.5,506.2641 782.5,548.2841 " fill="none" id="RemotePoolClientPlugin-&gt;virtualReader" style="stroke: #A80036; stroke-width: 2.5;"/><polygon fill="#A80036" points="782.5,560.8466,792.5,538.3466,782.5,548.3466,772.5,538.3466,782.5,560.8466" style="stroke: #A80036; stroke-width: 2.5;"/><!--MD5=[b98241220659c103f35a12415722f7a1]
link RemotePoolClientPlugin to NativePoolServerService--><path d="M1010.835,364.1016 C1088.805,364.1016 1166.7725,364.1016 1244.7425,364.1016 " fill="none" id="RemotePoolClientPlugin-NativePoolServerService" style="stroke: #A80036; stroke-width: 2.5;"/><polygon fill="#A80036" points="1257.2575,364.1016,1234.7575,354.1016,1244.7575,364.1016,1234.7575,374.1016,1257.2575,364.1016" style="stroke: #A80036; stroke-width: 2.5;"/><polygon fill="#A80036" points="997.6525,364.1016,1020.1525,374.1016,1010.1525,364.1016,1020.1525,354.1016,997.6525,364.1016" style="stroke: #A80036; stroke-width: 2.5;"/><!--MD5=[3cfb3e5185999c8d4eb350528fd8247c]
reverse link NativePoolServerService to virtualReader--><path d="M1334.205,416.0841 C1193.2125,464.7716 982.715,537.4616 866.7325,577.5141 " fill="none" id="NativePoolServerService&lt;-virtualReader" style="stroke: #A80036; stroke-width: 2.5;"/><polygon fill="#A80036" points="1346.775,411.7441,1322.2435,409.6338,1334.9593,415.8231,1328.77,428.539,1346.775,411.7441" style="stroke: #A80036; stroke-width: 2.5;"/><!--MD5=[2914e47462c972200f9eb3c3898f28ad]
link NativePoolServerService to PoolPlugin--><path d="M1697.665,364.1016 C1722.61,364.1016 1747.5525,364.1016 1772.4975,364.1016 " fill="none" id="NativePoolServerService-&gt;PoolPlugin" style="stroke: #A80036; stroke-width: 2.5;"/><polygon fill="#A80036" points="1785.5425,364.1016,1763.0425,354.1016,1773.0425,364.1016,1763.0425,374.1016,1785.5425,364.1016" style="stroke: #A80036; stroke-width: 2.5;"/><!--MD5=[c1a99220fc65fdd71c1fb817cc906f33]
link NativePoolServerService to nativeReader--><path d="M1516.53,411.7441 C1550.5125,451.0491 1599.92,508.1966 1636.4475,550.4441 " fill="none" id="NativePoolServerService-&gt;nativeReader" style="stroke: #A80036; stroke-width: 2.5;"/><polygon fill="#A80036" points="1645.44,560.8466,1638.2911,537.2851,1637.2655,551.39,1623.1606,550.3643,1645.44,560.8466" style="stroke: #A80036; stroke-width: 2.5;"/><!--MD5=[3ca7505b2b864527bf1272f44786d848]
link PoolPlugin to nativeReader--><path d="M1855.5,411.7441 C1821.1075,451.0491 1771.105,508.1966 1734.1375,550.4441 " fill="none" id="PoolPlugin-&gt;nativeReader" style="stroke: #A80036; stroke-width: 2.5;"/><polygon fill="#A80036" points="1725.0375,560.8466,1747.3802,550.4998,1733.2693,551.4398,1732.3294,537.3289,1725.0375,560.8466" style="stroke: #A80036; stroke-width: 2.5;"/><!--MD5=[19b42d82525af6e19ceb3ad49b035f9b]
link nativeReader to Card--><path d="M1685,656.7438 C1685,695.3831 1685,751.2633 1685,793.2843 " fill="none" id="nativeReader-&gt;Card" style="stroke: #A80036; stroke-width: 2.5;"/><polygon fill="#A80036" points="1685,805.8458,1695,783.3458,1685,793.3458,1675,783.3458,1685,805.8458" style="stroke: #A80036; stroke-width: 2.5;"/><!--MD5=[24d7cb81cd03b0c225b4b2e8a3dcd18f]
@startuml
title
    UC 7: RemotePoolClientPlugin - Reader (07/10/2020)
end title


skinparam Shadowing false
skinparam component {
    BorderColor #D4AC0D
    BackgroundColor<<red>> #FDEDEC
    BorderColor<<red>> #E74C3C
    BackgroundColor<<purple>> #F4ECF7
    BorderColor<<purple>> #8E44AD
    BackgroundColor<<blue>> #EBF5FB
    BorderColor<<blue>> #3498DB
    BackgroundColor<<green>> #E9F7EF
    BorderColor<<green>> #27AE60
    BackgroundColor<<grey>> #EAECEE
    BorderColor<<grey>> #2C3E50
}
hide <<red>> stereotype
hide <<purple>> stereotype
hide <<blue>> stereotype
hide <<green>> stereotype
hide <<grey>> stereotype


package "Client App" {
    [<i>Ticketing Service</i>] as master
    package "Keyple Remote Virtual Lib" as virtualKeyple {
        [Reader] as virtualReader <<blue>>
        [RemotePoolClientPlugin] <<green>>
    }
}
[Card]
package "Server App" {
    package "Keyple Remote Native Lib" as nativeKeyple {
        [Reader] as nativeReader <<blue>>
        [PoolPlugin] <<green>>
        [NativePoolServerService] <<green>>
    }
}

start -> master
master -> [RemotePoolClientPlugin]
master -> virtualReader
[RemotePoolClientPlugin] - -> virtualReader

[RemotePoolClientPlugin] <-> [NativePoolServerService]
virtualReader -up-> [NativePoolServerService]

[NativePoolServerService] -> [PoolPlugin]
[NativePoolServerService] -> nativeReader
[PoolPlugin] - -> nativeReader
nativeReader - -> [Card]

@enduml

PlantUML version 1.2020.09(Sun May 10 12:51:06 CEST 2020)
(GPL source distribution)
Java Runtime: OpenJDK Runtime Environment
JVM: OpenJDK 64-Bit Server VM
Java Version: 11.0.8+10-b944.34
Operating System: Windows 10
Default Encoding: Cp1252
Language: fr
Country: FR
--></g></svg>