<?xml version="1.0" encoding="UTF-8" standalone="no"?><svg xmlns="http://www.w3.org/2000/svg" xmlns:xlink="http://www.w3.org/1999/xlink" contentScriptType="application/ecmascript" contentStyleType="text/css" height="1477.5px" preserveAspectRatio="none" style="width:2465px;height:1477px;" version="1.1" viewBox="0 0 2465 1477" width="2465px" zoomAndPan="magnify"><defs/><g><!--MD5=[b0f84bcf31ca5d9c5117aa29b697e747]
cluster Terminal A with 'local' and 'remote' readers--><polygon fill="#FFFFFF" points="55,60,815,60,832.5,119.0234,892.5,119.0234,892.5,860,55,860,55,60" style="stroke: #000000; stroke-width: 3.75;"/><line style="stroke: #000000; stroke-width: 3.75;" x1="55" x2="832.5" y1="119.0234" y2="119.0234"/><text fill="#000000" font-family="sans-serif" font-size="35" font-weight="bold" lengthAdjust="spacingAndGlyphs" textLength="745" x="65" y="101.333">Terminal A with 'local' and 'remote' readers</text><!--MD5=[f2f32b766e4aa934c943334e1b64d869]
cluster Terminal B with 'local' reader--><polygon fill="#FFFFFF" points="952.5,60,1470,60,1487.5,119.0234,1507.5,119.0234,1507.5,1147.5,952.5,1147.5,952.5,60" style="stroke: #000000; stroke-width: 3.75;"/><line style="stroke: #000000; stroke-width: 3.75;" x1="952.5" x2="1487.5" y1="119.0234" y2="119.0234"/><text fill="#000000" font-family="sans-serif" font-size="35" font-weight="bold" lengthAdjust="spacingAndGlyphs" textLength="502.5" x="962.5" y="101.333">Terminal B with 'local' reader</text><!--MD5=[e896679b8d86153b5406c91596caca0e]
cluster Terminal C with 'local' and 'remote' readers--><polygon fill="#FFFFFF" points="1567.5,60,2330,60,2347.5,119.0234,2410,119.0234,2410,860,1567.5,860,1567.5,60" style="stroke: #000000; stroke-width: 3.75;"/><line style="stroke: #000000; stroke-width: 3.75;" x1="1567.5" x2="2347.5" y1="119.0234" y2="119.0234"/><text fill="#000000" font-family="sans-serif" font-size="35" font-weight="bold" lengthAdjust="spacingAndGlyphs" textLength="747.5" x="1577.5" y="101.333">Terminal C with 'local' and 'remote' readers</text><!--MD5=[492ce1a3376d55250d68a9b9c57d8699]
entity appA--><rect fill="#FEFECE" height="94.0234" style="stroke: #D4AC0D; stroke-width: 3.75;" width="222.5" x="468.75" y="150"/><rect fill="#FEFECE" height="12.5" style="stroke: #D4AC0D; stroke-width: 3.75;" width="25" x="456.25" y="162.5"/><rect fill="#FEFECE" height="12.5" style="stroke: #D4AC0D; stroke-width: 3.75;" width="25" x="456.25" y="219.0234"/><text fill="#000000" font-family="sans-serif" font-size="35" lengthAdjust="spacingAndGlyphs" textLength="172.5" x="493.75" y="211.333">Application</text><!--MD5=[92f7bc57783f7c3cc0d3d4ac2a438ba9]
entity remotePluginA--><rect fill="#FDEDEC" height="94.0234" style="stroke: #E74C3C; stroke-width: 3.75;" width="305" x="95" y="416.25"/><rect fill="#FDEDEC" height="12.5" style="stroke: #E74C3C; stroke-width: 3.75;" width="25" x="82.5" y="428.75"/><rect fill="#FDEDEC" height="12.5" style="stroke: #E74C3C; stroke-width: 3.75;" width="25" x="82.5" y="485.2734"/><text fill="#000000" font-family="sans-serif" font-size="35" font-weight="bold" lengthAdjust="spacingAndGlyphs" textLength="255" x="120" y="477.583">Remote Plugin</text><!--MD5=[715ebe8ad1fd68534f65631f37819374]
entity remoteReaderA--><rect fill="#EBF5FB" height="138.0469" style="stroke: #3498DB; stroke-width: 3.75;" width="200" x="230" y="682.5"/><rect fill="#EBF5FB" height="12.5" style="stroke: #3498DB; stroke-width: 3.75;" width="25" x="217.5" y="695"/><rect fill="#EBF5FB" height="12.5" style="stroke: #3498DB; stroke-width: 3.75;" width="25" x="217.5" y="795.5469"/><text fill="#000000" font-family="sans-serif" font-size="35" lengthAdjust="spacingAndGlyphs" textLength="122.5" x="255" y="743.833">Remote</text><text fill="#000000" font-family="sans-serif" font-size="35" lengthAdjust="spacingAndGlyphs" textLength="150" x="255" y="787.8564">Reader B</text><!--MD5=[e39a41f8452bdf926165fc1f6ec3bc2d]
entity localPluginA--><rect fill="#E9F7EF" height="138.0469" style="stroke: #27AE60; stroke-width: 3.75;" width="180" x="580" y="395"/><rect fill="#E9F7EF" height="12.5" style="stroke: #27AE60; stroke-width: 3.75;" width="25" x="567.5" y="407.5"/><rect fill="#E9F7EF" height="12.5" style="stroke: #27AE60; stroke-width: 3.75;" width="25" x="567.5" y="508.0469"/><text fill="#000000" font-family="sans-serif" font-size="35" lengthAdjust="spacingAndGlyphs" textLength="85" x="605" y="456.333">Local</text><text fill="#000000" font-family="sans-serif" font-size="35" lengthAdjust="spacingAndGlyphs" textLength="130" x="605" y="500.3564">Plugin A</text><!--MD5=[9a5aeb29b297e27abff191fb4703ad55]
entity localReaderA--><rect fill="#E9F7EF" height="138.0469" style="stroke: #27AE60; stroke-width: 3.75;" width="200" x="600" y="682.5"/><rect fill="#E9F7EF" height="12.5" style="stroke: #27AE60; stroke-width: 3.75;" width="25" x="587.5" y="695"/><rect fill="#E9F7EF" height="12.5" style="stroke: #27AE60; stroke-width: 3.75;" width="25" x="587.5" y="795.5469"/><text fill="#000000" font-family="sans-serif" font-size="35" lengthAdjust="spacingAndGlyphs" textLength="85" x="625" y="743.833">Local</text><text fill="#000000" font-family="sans-serif" font-size="35" lengthAdjust="spacingAndGlyphs" textLength="150" x="625" y="787.8564">Reader A</text><!--MD5=[e03933a285099eb05d74043a42f6bebf]
entity appB--><rect fill="#FEFECE" height="94.0234" style="stroke: #D4AC0D; stroke-width: 3.75;" width="222.5" x="1243.75" y="150"/><rect fill="#FEFECE" height="12.5" style="stroke: #D4AC0D; stroke-width: 3.75;" width="25" x="1231.25" y="162.5"/><rect fill="#FEFECE" height="12.5" style="stroke: #D4AC0D; stroke-width: 3.75;" width="25" x="1231.25" y="219.0234"/><text fill="#000000" font-family="sans-serif" font-size="35" lengthAdjust="spacingAndGlyphs" textLength="172.5" x="1268.75" y="211.333">Application</text><!--MD5=[3497f76c7268585b544040471d826e09]
entity localServiceB--><rect fill="#FDEDEC" height="94.0234" style="stroke: #E74C3C; stroke-width: 3.75;" width="287.5" x="993.75" y="416.25"/><rect fill="#FDEDEC" height="12.5" style="stroke: #E74C3C; stroke-width: 3.75;" width="25" x="981.25" y="428.75"/><rect fill="#FDEDEC" height="12.5" style="stroke: #E74C3C; stroke-width: 3.75;" width="25" x="981.25" y="485.2734"/><text fill="#000000" font-family="sans-serif" font-size="35" font-weight="bold" lengthAdjust="spacingAndGlyphs" textLength="237.5" x="1018.75" y="477.583">Local Service</text><!--MD5=[6d68b64d0873eb0a8dc450752ee60455]
entity localPluginB--><rect fill="#EBF5FB" height="138.0469" style="stroke: #3498DB; stroke-width: 3.75;" width="180" x="1195" y="682.5"/><rect fill="#EBF5FB" height="12.5" style="stroke: #3498DB; stroke-width: 3.75;" width="25" x="1182.5" y="695"/><rect fill="#EBF5FB" height="12.5" style="stroke: #3498DB; stroke-width: 3.75;" width="25" x="1182.5" y="795.5469"/><text fill="#000000" font-family="sans-serif" font-size="35" lengthAdjust="spacingAndGlyphs" textLength="85" x="1220" y="743.833">Local</text><text fill="#000000" font-family="sans-serif" font-size="35" lengthAdjust="spacingAndGlyphs" textLength="130" x="1220" y="787.8564">Plugin B</text><!--MD5=[326bec51df11f7e217066843974af772]
entity localReaderB--><rect fill="#EBF5FB" height="138.0469" style="stroke: #3498DB; stroke-width: 3.75;" width="200" x="1185" y="970"/><rect fill="#EBF5FB" height="12.5" style="stroke: #3498DB; stroke-width: 3.75;" width="25" x="1172.5" y="982.5"/><rect fill="#EBF5FB" height="12.5" style="stroke: #3498DB; stroke-width: 3.75;" width="25" x="1172.5" y="1083.0469"/><text fill="#000000" font-family="sans-serif" font-size="35" lengthAdjust="spacingAndGlyphs" textLength="85" x="1210" y="1031.333">Local</text><text fill="#000000" font-family="sans-serif" font-size="35" lengthAdjust="spacingAndGlyphs" textLength="150" x="1210" y="1075.3564">Reader B</text><!--MD5=[394db7846645763260abc37e1623959f]
entity appC--><rect fill="#FEFECE" height="94.0234" style="stroke: #D4AC0D; stroke-width: 3.75;" width="222.5" x="1981.25" y="150"/><rect fill="#FEFECE" height="12.5" style="stroke: #D4AC0D; stroke-width: 3.75;" width="25" x="1968.75" y="162.5"/><rect fill="#FEFECE" height="12.5" style="stroke: #D4AC0D; stroke-width: 3.75;" width="25" x="1968.75" y="219.0234"/><text fill="#000000" font-family="sans-serif" font-size="35" lengthAdjust="spacingAndGlyphs" textLength="172.5" x="2006.25" y="211.333">Application</text><!--MD5=[7742339b3dee183c30921183713190ec]
entity remotePluginC--><rect fill="#FDEDEC" height="94.0234" style="stroke: #E74C3C; stroke-width: 3.75;" width="305" x="1607.5" y="416.25"/><rect fill="#FDEDEC" height="12.5" style="stroke: #E74C3C; stroke-width: 3.75;" width="25" x="1595" y="428.75"/><rect fill="#FDEDEC" height="12.5" style="stroke: #E74C3C; stroke-width: 3.75;" width="25" x="1595" y="485.2734"/><text fill="#000000" font-family="sans-serif" font-size="35" font-weight="bold" lengthAdjust="spacingAndGlyphs" textLength="255" x="1632.5" y="477.583">Remote Plugin</text><!--MD5=[24e64ec056b1dc286800a991c10c8550]
entity remoteReaderC--><rect fill="#EBF5FB" height="138.0469" style="stroke: #3498DB; stroke-width: 3.75;" width="200" x="1747.5" y="682.5"/><rect fill="#EBF5FB" height="12.5" style="stroke: #3498DB; stroke-width: 3.75;" width="25" x="1735" y="695"/><rect fill="#EBF5FB" height="12.5" style="stroke: #3498DB; stroke-width: 3.75;" width="25" x="1735" y="795.5469"/><text fill="#000000" font-family="sans-serif" font-size="35" lengthAdjust="spacingAndGlyphs" textLength="122.5" x="1772.5" y="743.833">Remote</text><text fill="#000000" font-family="sans-serif" font-size="35" lengthAdjust="spacingAndGlyphs" textLength="150" x="1772.5" y="787.8564">Reader B</text><!--MD5=[ed58d6383dd6299d3fd6b2aee9fa2a9c]
entity localPluginC--><rect fill="#F4ECF7" height="138.0469" style="stroke: #8E44AD; stroke-width: 3.75;" width="182.5" x="2093.75" y="395"/><rect fill="#F4ECF7" height="12.5" style="stroke: #8E44AD; stroke-width: 3.75;" width="25" x="2081.25" y="407.5"/><rect fill="#F4ECF7" height="12.5" style="stroke: #8E44AD; stroke-width: 3.75;" width="25" x="2081.25" y="508.0469"/><text fill="#000000" font-family="sans-serif" font-size="35" lengthAdjust="spacingAndGlyphs" textLength="85" x="2118.75" y="456.333">Local</text><text fill="#000000" font-family="sans-serif" font-size="35" lengthAdjust="spacingAndGlyphs" textLength="132.5" x="2118.75" y="500.3564">Plugin C</text><!--MD5=[101b25349a095183ff90ba7ebec3dd3b]
entity localReaderC--><rect fill="#F4ECF7" height="138.0469" style="stroke: #8E44AD; stroke-width: 3.75;" width="202.5" x="2123.75" y="682.5"/><rect fill="#F4ECF7" height="12.5" style="stroke: #8E44AD; stroke-width: 3.75;" width="25" x="2111.25" y="695"/><rect fill="#F4ECF7" height="12.5" style="stroke: #8E44AD; stroke-width: 3.75;" width="25" x="2111.25" y="795.5469"/><text fill="#000000" font-family="sans-serif" font-size="35" lengthAdjust="spacingAndGlyphs" textLength="85" x="2148.75" y="743.833">Local</text><text fill="#000000" font-family="sans-serif" font-size="35" lengthAdjust="spacingAndGlyphs" textLength="152.5" x="2148.75" y="787.8564">Reader C</text><!--MD5=[97706d6bc3a2479187d78421cb19fd5d]
entity readerA--><rect fill="#E9F7EF" height="138.0469" style="stroke: #27AE60; stroke-width: 3.75;" width="360" x="520" y="970"/><rect fill="#E9F7EF" height="12.5" style="stroke: #27AE60; stroke-width: 3.75;" width="25" x="507.5" y="982.5"/><rect fill="#E9F7EF" height="12.5" style="stroke: #27AE60; stroke-width: 3.75;" width="25" x="507.5" y="1083.0469"/><text fill="#000000" font-family="sans-serif" font-size="35" lengthAdjust="spacingAndGlyphs" textLength="310" x="545" y="1031.333">Hardware Reader A</text><text fill="#000000" font-family="sans-serif" font-size="35" lengthAdjust="spacingAndGlyphs" textLength="75" x="545" y="1075.3564">(PO)</text><!--MD5=[dd4deb9cc63b37613601c38977f0eeaa]
entity readerB--><rect fill="#EBF5FB" height="138.0469" style="stroke: #3498DB; stroke-width: 3.75;" width="360" x="1105" y="1257.5"/><rect fill="#EBF5FB" height="12.5" style="stroke: #3498DB; stroke-width: 3.75;" width="25" x="1092.5" y="1270"/><rect fill="#EBF5FB" height="12.5" style="stroke: #3498DB; stroke-width: 3.75;" width="25" x="1092.5" y="1370.5469"/><text fill="#000000" font-family="sans-serif" font-size="35" lengthAdjust="spacingAndGlyphs" textLength="310" x="1130" y="1318.833">Hardware Reader B</text><text fill="#000000" font-family="sans-serif" font-size="35" lengthAdjust="spacingAndGlyphs" textLength="97.5" x="1130" y="1362.8564">(SAM)</text><!--MD5=[5f08c31cfab830314614782fcb9e2915]
entity readerC--><rect fill="#F4ECF7" height="138.0469" style="stroke: #8E44AD; stroke-width: 3.75;" width="362.5" x="2043.75" y="970"/><rect fill="#F4ECF7" height="12.5" style="stroke: #8E44AD; stroke-width: 3.75;" width="25" x="2031.25" y="982.5"/><rect fill="#F4ECF7" height="12.5" style="stroke: #8E44AD; stroke-width: 3.75;" width="25" x="2031.25" y="1083.0469"/><text fill="#000000" font-family="sans-serif" font-size="35" lengthAdjust="spacingAndGlyphs" textLength="312.5" x="2068.75" y="1031.333">Hardware Reader C</text><text fill="#000000" font-family="sans-serif" font-size="35" lengthAdjust="spacingAndGlyphs" textLength="75" x="2068.75" y="1075.3564">(PO)</text><!--MD5=[fb9e705d035e72632a6042a2a7ca029f]
link appA to remotePluginA--><path d="M522.0825,245.5075 C461.4275,293.165 366.6925,367.5975 305.87,415.3875 " fill="none" id="appA-remotePluginA" style="stroke: #A80036; stroke-width: 2.5;"/><!--MD5=[da4aab0a49e39f593932c4eecae87ebf]
link appA to remoteReaderA--><path d="M562.56,245.7225 C537.585,310.33 489.45,431.7075 442.5,532.5 C418.735,583.5225 389.2975,639.8975 366.4975,682.2925 " fill="none" id="appA-remoteReaderA" style="stroke: #D3D3D3; stroke-width: 2.5;"/><!--MD5=[872181754934b8bb9e169beccc28ace8]
link appA to localPluginA--><path d="M595.6775,245.5075 C609.88,286.7325 630.9825,347.9925 647.0775,394.7125 " fill="none" id="appA-localPluginA" style="stroke: #D3D3D3; stroke-width: 2.5;"/><!--MD5=[df64d3f3addaf0c81377e46d1ce8647d]
link appA to localReaderA--><path d="M660.7025,245.6875 C711.7675,279.5675 773.4475,330.9075 802.5,395 C845.925,490.8 791.22,609.5475 746.565,682.195 " fill="none" id="appA-localReaderA" style="stroke: #D3D3D3; stroke-width: 2.5;"/><!--MD5=[1c4ceefcbd9bb2f7573a19a6c0cd49fc]
link remotePluginA to remoteReaderA--><path d="M260.755,511.6375 C274.2375,557.805 295.275,629.84 310.625,682.405 " fill="none" id="remotePluginA-remoteReaderA" style="stroke: #3498DB; stroke-width: 2.5;"/><!--MD5=[9b713b1a0805f16152cb203f6cca8907]
link localPluginA to localReaderA--><path d="M677.11,533.1975 C681.8925,578.2325 688.17,637.35 692.9425,682.2825 " fill="none" id="localPluginA-localReaderA" style="stroke: #27AE60; stroke-width: 2.5;"/><!--MD5=[061ad854bafa23f803f44dc4ce21c46a]
link localReaderA to readerA--><path d="M700,820.6975 C700,865.7325 700,924.85 700,969.7825 " fill="none" id="localReaderA-readerA" style="stroke: #27AE60; stroke-width: 2.5;"/><!--MD5=[8df2bc4a03d501e42a87fcc717fda6f3]
link remotePluginA to localServiceB--><path d="M330.8,416.175 C395.95,381.8425 490.055,338.415 578.75,320 C696.245,295.605 731.9375,292.53 848.75,320 C927.2475,338.46 1008.7975,381.635 1065.13,415.88 " fill="none" id="remotePluginA-localServiceB" style="stroke: #A80036; stroke-width: 2.5;"/><!--MD5=[81859b6d30b43d48c823a5754661fab8]
link appB to localServiceB--><path d="M1317.115,245.5075 C1277.4375,293.165 1215.47,367.5975 1175.68,415.3875 " fill="none" id="appB-localServiceB" style="stroke: #A80036; stroke-width: 2.5;"/><!--MD5=[df8a1212ca9fa7993768db4bf844e72a]
link appB to localPluginB--><path d="M1352.25,245.3275 C1348.055,309.465 1339.0325,430.29 1325,532.5 C1318.0925,582.8075 1307.565,639.2125 1299.045,681.7975 " fill="none" id="appB-localPluginB" style="stroke: #D3D3D3; stroke-width: 2.5;"/><!--MD5=[e2249160656950652a139c1a1b1953f6]
link appB to localReaderB--><path d="M1372.2925,245.49 C1412.0925,357.41 1500.6025,653.51 1417.5,880 C1405.37,913.0575 1382.8075,943.9125 1359.6925,969.3275 " fill="none" id="appB-localReaderB" style="stroke: #D3D3D3; stroke-width: 2.5;"/><!--MD5=[cd8b4a5a0470ecc50602f6760d6ec266]
link localServiceB to localPluginB--><path d="M1161.1975,511.6375 C1185.3025,557.805 1222.915,629.84 1250.36,682.405 " fill="none" id="localServiceB-localPluginB" style="stroke: #3498DB; stroke-width: 2.5;"/><!--MD5=[f2e2fef3d25054ab8210fae1ec71ee96]
link localServiceB to localReaderB--><path d="M1129.3,511.6725 C1117.2125,589.98 1100.97,754.105 1150,880 C1162.88,913.0725 1185.9875,943.9325 1209.485,969.345 " fill="none" id="localServiceB-localReaderB" style="stroke: #3498DB; stroke-width: 2.5;"/><!--MD5=[b5f77873e7b5a73768aac5c3d5f81768]
link localPluginB to localReaderB--><path d="M1285,820.6975 C1285,865.7325 1285,924.85 1285,969.7825 " fill="none" id="localPluginB-localReaderB" style="stroke: #3498DB; stroke-width: 2.5;"/><!--MD5=[6d060afe8260565946b833e8f2042f81]
link localReaderB to readerB--><path d="M1285,1108.1975 C1285,1153.2313 1285,1212.35 1285,1257.282 " fill="none" id="localReaderB-readerB" style="stroke: #3498DB; stroke-width: 2.5;"/><!--MD5=[3189f7e849361964e34ecb05f0d4f7f6]
link localServiceB to remotePluginC--><path d="M1282.1825,463.75 C1390.4375,463.75 1498.6925,463.75 1606.95,463.75 " fill="none" id="localServiceB-remotePluginC" style="stroke: #A80036; stroke-width: 2.5;"/><!--MD5=[94f36155f12c3248d48ce4a761114286]
link appC to remotePluginC--><path d="M2034.5825,245.5075 C1973.9275,293.165 1879.1925,367.5975 1818.37,415.3875 " fill="none" id="appC-remotePluginC" style="stroke: #A80036; stroke-width: 2.5;"/><!--MD5=[bea5c14c528241127e023621f2f4c594]
link appC to remoteReaderC--><path d="M2074.8025,245.6025 C2049.52,310.07 2001.02,431.28 1955,532.5 C1931.92,583.2625 1903.8075,639.6475 1882.1175,682.1125 " fill="none" id="appC-remoteReaderC" style="stroke: #D3D3D3; stroke-width: 2.5;"/><!--MD5=[08fafded08dc9d2ff0889647220aaa77]
link appC to localPluginC--><path d="M2108.6125,245.5075 C2123.21,286.7325 2144.9,347.9925 2161.4425,394.7125 " fill="none" id="appC-localPluginC" style="stroke: #D3D3D3; stroke-width: 2.5;"/><!--MD5=[d46665cc9bbb2f858a9400ab11c514e3]
link appC to localReaderC--><path d="M2174.9675,245.2625 C2227.16,278.9575 2290.22,330.2525 2320,395 C2363.71,490.0375 2312.02,609.0025 2269.485,681.9025 " fill="none" id="appC-localReaderC" style="stroke: #D3D3D3; stroke-width: 2.5;"/><!--MD5=[0c4d43f982b81689d19193c08e864d0f]
link remotePluginC to remoteReaderC--><path d="M1774.0575,511.6375 C1788.3575,557.805 1810.67,629.84 1826.95,682.405 " fill="none" id="remotePluginC-remoteReaderC" style="stroke: #3498DB; stroke-width: 2.5;"/><!--MD5=[8c2aa53d51692afac2d7050031bbf915]
link localPluginC to localReaderC--><path d="M2194.48,533.1975 C2200.855,578.2325 2209.2275,637.35 2215.5875,682.2825 " fill="none" id="localPluginC-localReaderC" style="stroke: #8E44AD; stroke-width: 2.5;"/><!--MD5=[54b04f91ed7aaf76b037ed89a3577ed6]
link localReaderC to readerC--><path d="M2225,820.6975 C2225,865.7325 2225,924.85 2225,969.7825 " fill="none" id="localReaderC-readerC" style="stroke: #8E44AD; stroke-width: 2.5;"/><text fill="#888888" font-family="sans-serif" font-size="25" lengthAdjust="spacingAndGlyphs" textLength="1230" x="632.5" y="1445.9521">Keyple Remote Plugin - Concepts - Many Remote Plugins connected to one Local Service (30/10/2020)</text><!--MD5=[4a4dcfe44589ffe28231c848da8395ad]
@startuml
footer
    Keyple Remote Plugin - Concepts - Many Remote Plugins connected to one Local Service (30/10/2020)
end footer


skinparam Shadowing false
skinparam component {
    BorderColor #D4AC0D
    BackgroundColor<<red>> #FDEDEC
    BorderColor<<red>> #E74C3C
    BackgroundColor<<purple>> #F4ECF7
    BorderColor<<purple>> #8E44AD
    BackgroundColor<<blue>> #EBF5FB
    BorderColor<<blue>> #3498DB
    BackgroundColor<<green>> #E9F7EF
    BorderColor<<green>> #27AE60
    BackgroundColor<<grey>> #EAECEE
    BorderColor<<grey>> #2C3E50
}
hide <<red>> stereotype
hide <<purple>> stereotype
hide <<blue>> stereotype
hide <<green>> stereotype
hide <<grey>> stereotype


[Hardware Reader A\n(PO)] as readerA <<green>>
[Hardware Reader B\n(SAM)] as readerB <<blue>>
[Hardware Reader C\n(PO)] as readerC <<purple>>
package "Terminal A with 'local' and 'remote' readers" {
    [Application] as appA
    [**Remote Plugin**] as remotePluginA <<red>>
    [Remote\nReader B] as remoteReaderA <<blue>>
    [Local\nPlugin A] as localPluginA <<green>>
    [Local\nReader A] as localReaderA <<green>>
}
package "Terminal B with 'local' reader" {
    [Application] as appB
    [**Local Service**] as localServiceB <<red>>
    [Local\nPlugin B] as localPluginB <<blue>>
    [Local\nReader B] as localReaderB <<blue>>
}
package "Terminal C with 'local' and 'remote' readers" {
    [Application] as appC
    [**Remote Plugin**] as remotePluginC <<red>>
    [Remote\nReader B] as remoteReaderC <<blue>>
    [Local\nPlugin C] as localPluginC <<purple>>
    [Local\nReader C] as localReaderC <<purple>>
}


appA - - remotePluginA
appA - - remoteReaderA #LightGrey
appA - - localPluginA #LightGrey
appA - - localReaderA #LightGrey
remotePluginA - - remoteReaderA #3498DB
localPluginA - - localReaderA #27AE60
localReaderA - - readerA #27AE60

remotePluginA - localServiceB

appB - - localServiceB
appB - - localPluginB #LightGrey
appB - - localReaderB #LightGrey
localServiceB - - localPluginB #3498DB
localServiceB - - localReaderB #3498DB
localPluginB - - localReaderB #3498DB
localReaderB - - readerB #3498DB

localServiceB - remotePluginC

appC - - remotePluginC
appC - - remoteReaderC #LightGrey
appC - - localPluginC #LightGrey
appC - - localReaderC #LightGrey
remotePluginC - - remoteReaderC #3498DB
localPluginC - - localReaderC #8E44AD
localReaderC - - readerC #8E44AD

@enduml

PlantUML version 1.2020.09(Sun May 10 12:51:06 CEST 2020)
(GPL source distribution)
Java Runtime: OpenJDK Runtime Environment
JVM: OpenJDK 64-Bit Server VM
Java Version: 11.0.8+10-b944.34
Operating System: Windows 10
Default Encoding: Cp1252
Language: fr
Country: FR
--></g></svg>