<svg xmlns="http://www.w3.org/2000/svg" xmlns:xlink="http://www.w3.org/1999/xlink" contentStyleType="text/css" height="431px" preserveAspectRatio="none" style="width:419px;height:431px;background:#FFFFFF;" version="1.1" viewBox="0 0 419 431" width="419px" zoomAndPan="magnify"><defs/><g><!--class MessageDto--><g id="elem_MessageDto"><rect codeLine="78" fill="#EBF5FB" height="196.9688" id="MessageDto" rx="2.5" ry="2.5" style="stroke:#3498DB;stroke-width:2.0;" width="330.4111" x="45" y="7"/><ellipse cx="166.6592" cy="23" fill="#ADD1B2" rx="11" ry="11" style="stroke:#181818;stroke-width:1.0;"/><path d="M169.4248,18.875 Q169.5811,18.6563 169.7686,18.5469 Q169.9561,18.4375 170.1748,18.4375 Q170.5498,18.4375 170.7842,18.7031 Q171.0186,18.9531 171.0186,19.5625 L171.0186,21.0156 Q171.0186,21.625 170.7842,21.8906 Q170.5498,22.1563 170.1748,22.1563 Q169.8311,22.1563 169.6279,21.9531 Q169.4248,21.7656 169.3154,21.25 Q169.2686,20.8906 169.0811,20.7031 Q168.7529,20.3281 168.1436,20.1094 Q167.5342,19.8906 166.9092,19.8906 Q166.1436,19.8906 165.5029,20.2188 Q164.8779,20.5469 164.3779,21.2969 Q163.8936,22.0469 163.8936,23.0781 L163.8936,24.1719 Q163.8936,25.4063 164.7842,26.2344 Q165.6748,27.0469 167.2686,27.0469 Q168.2061,27.0469 168.8623,26.7969 Q169.2529,26.6406 169.6748,26.2031 Q169.9404,25.9375 170.0811,25.8594 Q170.2373,25.7813 170.4404,25.7813 Q170.7686,25.7813 171.0186,26.0469 Q171.2842,26.2969 171.2842,26.6406 Q171.2842,26.9844 170.9404,27.3906 Q170.4404,27.9688 169.6436,28.2969 Q168.5654,28.75 167.2686,28.75 Q165.7529,28.75 164.5498,28.125 Q163.5654,27.625 162.8779,26.5625 Q162.1904,25.4844 162.1904,24.2031 L162.1904,23.0469 Q162.1904,21.7188 162.7998,20.5781 Q163.4248,19.4219 164.5186,18.8125 Q165.6123,18.1875 166.8467,18.1875 Q167.5811,18.1875 168.2217,18.3594 Q168.8779,18.5156 169.4248,18.875 Z " fill="#000000"/><text fill="#000000" font-family="sans-serif" font-size="14" lengthAdjust="spacing" textLength="78.5928" x="187.1592" y="28.7969">MessageDto</text><line style="stroke:#3498DB;stroke-width:2.0;" x1="46" x2="374.4111" y1="39" y2="39"/><text fill="#000000" font-family="sans-serif" font-size="14" font-weight="bold" lengthAdjust="spacing" textLength="56.0273" x="51" y="58.1074">apiLevel</text><text fill="#000000" font-family="sans-serif" font-size="14" lengthAdjust="spacing" textLength="81.3135" x="110.917" y="58.1074">: Number = 2</text><text fill="#000000" font-family="sans-serif" font-size="14" font-weight="bold" lengthAdjust="spacing" textLength="64.5791" x="51" y="76.7285">sessionId</text><text fill="#000000" font-family="sans-serif" font-size="14" lengthAdjust="spacing" textLength="44.3516" x="119.4688" y="76.7285">: String</text><text fill="#000000" font-family="sans-serif" font-size="14" font-weight="bold" lengthAdjust="spacing" textLength="41.2275" x="51" y="95.3496">action</text><text fill="#000000" font-family="sans-serif" font-size="14" lengthAdjust="spacing" textLength="65.2764" x="96.1172" y="95.3496">: String = "</text><text fill="#000000" font-family="sans-serif" font-size="14" font-weight="bold" lengthAdjust="spacing" textLength="203.0479" x="161.3936" y="95.3496">EXECUTE_REMOTE_SERVICE</text><text fill="#000000" font-family="sans-serif" font-size="14" lengthAdjust="spacing" textLength="4.9697" x="364.4414" y="95.3496">"</text><text fill="#000000" font-family="sans-serif" font-size="14" font-weight="bold" lengthAdjust="spacing" textLength="84.0068" x="51" y="113.9707">clientNodeId</text><text fill="#000000" font-family="sans-serif" font-size="14" lengthAdjust="spacing" textLength="44.3516" x="138.8965" y="113.9707">: String</text><text fill="#808080" font-family="sans-serif" font-size="14" font-weight="bold" lengthAdjust="spacing" textLength="89.4824" x="51" y="132.5918">serverNodeId</text><text fill="#808080" font-family="sans-serif" font-size="14" lengthAdjust="spacing" textLength="29.5723" x="144.3721" y="132.5918">: null</text><text fill="#000000" font-family="sans-serif" font-size="14" font-weight="bold" lengthAdjust="spacing" textLength="117.5029" x="51" y="151.2129">localReaderName</text><text fill="#000000" font-family="sans-serif" font-size="14" lengthAdjust="spacing" textLength="44.3516" x="172.3926" y="151.2129">: String</text><text fill="#808080" font-family="sans-serif" font-size="14" font-weight="bold" lengthAdjust="spacing" textLength="132.2822" x="51" y="169.834">remoteReaderName</text><text fill="#808080" font-family="sans-serif" font-size="14" lengthAdjust="spacing" textLength="29.5723" x="187.1719" y="169.834">: null</text><text fill="#000000" font-family="sans-serif" font-size="14" font-weight="bold" lengthAdjust="spacing" textLength="33.4414" x="51" y="188.4551">body</text><text fill="#000000" font-family="sans-serif" font-size="14" lengthAdjust="spacing" textLength="44.3516" x="88.3311" y="188.4551">: String</text><line style="stroke:#3498DB;stroke-width:2.0;" x1="46" x2="374.4111" y1="195.9688" y2="195.9688"/></g><!--class ExecuteRemoteServiceBody--><g id="elem_ExecuteRemoteServiceBody"><rect codeLine="79" fill="#EBF5FB" height="141.1055" id="ExecuteRemoteServiceBody" rx="2.5" ry="2.5" style="stroke:#3498DB;stroke-width:2.0;" width="405.9072" x="7" y="283"/><ellipse cx="116.604" cy="299" fill="#ADD1B2" rx="11" ry="11" style="stroke:#181818;stroke-width:1.0;"/><path d="M119.3696,294.875 Q119.5259,294.6563 119.7134,294.5469 Q119.9009,294.4375 120.1196,294.4375 Q120.4946,294.4375 120.729,294.7031 Q120.9634,294.9531 120.9634,295.5625 L120.9634,297.0156 Q120.9634,297.625 120.729,297.8906 Q120.4946,298.1563 120.1196,298.1563 Q119.7759,298.1563 119.5728,297.9531 Q119.3696,297.7656 119.2603,297.25 Q119.2134,296.8906 119.0259,296.7031 Q118.6978,296.3281 118.0884,296.1094 Q117.479,295.8906 116.854,295.8906 Q116.0884,295.8906 115.4478,296.2188 Q114.8228,296.5469 114.3228,297.2969 Q113.8384,298.0469 113.8384,299.0781 L113.8384,300.1719 Q113.8384,301.4063 114.729,302.2344 Q115.6196,303.0469 117.2134,303.0469 Q118.1509,303.0469 118.8071,302.7969 Q119.1978,302.6406 119.6196,302.2031 Q119.8853,301.9375 120.0259,301.8594 Q120.1821,301.7813 120.3853,301.7813 Q120.7134,301.7813 120.9634,302.0469 Q121.229,302.2969 121.229,302.6406 Q121.229,302.9844 120.8853,303.3906 Q120.3853,303.9688 119.5884,304.2969 Q118.5103,304.75 117.2134,304.75 Q115.6978,304.75 114.4946,304.125 Q113.5103,303.625 112.8228,302.5625 Q112.1353,301.4844 112.1353,300.2031 L112.1353,299.0469 Q112.1353,297.7188 112.7446,296.5781 Q113.3696,295.4219 114.4634,294.8125 Q115.5571,294.1875 116.7915,294.1875 Q117.5259,294.1875 118.1665,294.3594 Q118.8228,294.5156 119.3696,294.875 Z " fill="#000000"/><text fill="#000000" font-family="sans-serif" font-size="14" lengthAdjust="spacing" textLength="178.1992" x="137.104" y="304.7969">ExecuteRemoteServiceBody</text><line style="stroke:#3498DB;stroke-width:2.0;" x1="8" x2="411.9072" y1="315" y2="315"/><text fill="#000000" font-family="sans-serif" font-size="14" font-weight="bold" lengthAdjust="spacing" textLength="87.9238" x="13" y="334.1074">coreApiLevel</text><text fill="#000000" font-family="sans-serif" font-size="14" lengthAdjust="spacing" textLength="81.3135" x="104.8135" y="334.1074">: Number = 2</text><text fill="#000000" font-family="sans-serif" font-size="14" font-weight="bold" lengthAdjust="spacing" textLength="60.71" x="13" y="352.7285">serviceId</text><text fill="#000000" font-family="sans-serif" font-size="14" lengthAdjust="spacing" textLength="44.3516" x="77.5996" y="352.7285">: String</text><text fill="#000000" font-family="sans-serif" font-size="14" font-weight="bold" lengthAdjust="spacing" textLength="64.5518" x="13" y="371.3496">inputData</text><text fill="#000000" font-family="sans-serif" font-size="14" lengthAdjust="spacing" textLength="56.0273" x="81.4414" y="371.3496">: Object?</text><text fill="#000000" font-family="sans-serif" font-size="14" font-weight="bold" lengthAdjust="spacing" textLength="121.3311" x="13" y="389.9707">initialCardContent</text><text fill="#000000" font-family="sans-serif" font-size="14" lengthAdjust="spacing" textLength="56.0273" x="138.2207" y="389.9707">: Object?</text><text fill="#000000" font-family="sans-serif" font-size="14" font-weight="bold" lengthAdjust="spacing" textLength="196.8203" x="13" y="408.5918">initialCardContentClassName</text><text fill="#000000" font-family="sans-serif" font-size="14" lengthAdjust="spacing" textLength="193.1973" x="213.71" y="408.5918">: String? = "java.util.Properties"</text><line style="stroke:#3498DB;stroke-width:2.0;" x1="8" x2="411.9072" y1="416.1055" y2="416.1055"/></g><!--reverse link MessageDto to ExecuteRemoteServiceBody--><g id="link_MessageDto_ExecuteRemoteServiceBody"><path codeLine="71" d="M210,216.079 C210,242.371 210,258.284 210,282.723 " fill="none" id="MessageDto-backto-ExecuteRemoteServiceBody" style="stroke:#3498DB;stroke-width:2.0;"/><polygon fill="#3498DB" points="210,204.079,206,210.079,210,216.079,214,210.079,210,204.079" style="stroke:#3498DB;stroke-width:2.0;"/><text fill="#000000" font-family="sans-serif" font-size="13" lengthAdjust="spacing" textLength="61.4199" x="211" y="249.0283">JsonString</text><text fill="#000000" font-family="sans-serif" font-size="13" lengthAdjust="spacing" textLength="7.23" x="202.6557" y="271.5854">1</text></g><!--SRC=[ZLNHRjem57tdAppsK2aIPOKmIjLkIcndwzRI2UYqFaqckGMl9aQsKuQc_VjkGc21CXWlHDVddcCVdzoSaAihClh8Rpa-r6edL6SACcE9j3O3In8W5sJgtDnUD9jJDrEnLjh4EW5x6kjPyz4qdHWh45aZWKQywjvJmaSh9sbZheHhrbuby2XJ8FJxXm5_E2FHUTIBUZlb5ebQKJloTyfjmZkyotVHFc5T5ZAsK-uG6j28jNRARqd8Q9jsA-MRw_vdqlPxvooiLE-7dBIw0N_x1iqXZGOPkgL2NznKE9BezCIHXJPFP27TbAIm8CzWhDGfqOy4pvgwRAQmhMQVP3eNHio8TM10k-KSWb2R10pD7IMlWnwZBDeBlDu2XdxGvPszGBhDoDXPsDeBv5j07lRQA5sSZ_TPljzA5rN2sXL-D9NnKmhMaYfjO8nUL9UGwG6KqeiNB29-cXYTfKcf7F68KxvVh8GmFw1l658E83d2Ttbf87dt3caPPvmUeDqWUTV77DIc4eE-Blwr2LM_P6QkuAZml80LsZwdKVUWzb_mEVVzWAtbD_Mj7OnLTbm_1nNd2QDE51vKNqFBh9VQPNLB-OC1I8zAJt9KeTsBkZmwgBt1bkzKARukxwel_qTyMMW7c2D-JBk0jcYRTwhIosrbbCQPIE_w8zuVhQOYuTyulH_nxmD-UuT_GpxuUesvZNCHSekf5nDWJfDVDO8_pnDpUGFFe3mFnsS_cut1a2jyCrQh5XjmHbmdnVBG6PbEresnmvLA7TlgdhTVt_FgPLki9AIkZsFv9UbbCR8lYeFcsWP7L0MPPagLB4h7GWr0e6TzCOF3H0Pcsi4Eka8sricool2xT8l_X3ZB6_Fs8Uv6nX0YTkDTh0q4H_mhklRvXzUVEIQSA9RknZyWTkytQz99eQWmc9xKeM7_1IgIjEF7-_nQVeXdSPevgKw_63q7uoJOEfuJyn9OgsCfyhkqjLeb81wEsFfP_Tykl2w_H1VaazLfURPL96-2XxlxLI9NXU7euMRrtNuHnFKBVSpq3UuF]--></g></svg>