<?xml version="1.0" encoding="UTF-8" standalone="no"?><svg xmlns="http://www.w3.org/2000/svg" xmlns:xlink="http://www.w3.org/1999/xlink" contentScriptType="application/ecmascript" contentStyleType="text/css" height="407px" preserveAspectRatio="none" style="width:189px;height:407px;" version="1.1" viewBox="0 0 189 407" width="189px" zoomAndPan="magnify"><defs/><g><ellipse cx="87.5" cy="20" fill="#000000" rx="10" ry="10" style="stroke: none; stroke-width: 1.0;"/><rect fill="#FEFECE" height="35.0938" rx="12.5" ry="12.5" style="stroke: #D4AC0D; stroke-width: 1.5;" width="107" x="34" y="50"/><text fill="#000000" font-family="sans-serif" font-size="12" lengthAdjust="spacingAndGlyphs" textLength="87" x="44" y="72.457">define selection</text><rect fill="#FEFECE" height="35.0938" rx="12.5" ry="12.5" style="stroke: #D4AC0D; stroke-width: 1.5;" width="80" x="47.5" y="154.0117"/><text fill="#000000" font-family="sans-serif" font-size="12" lengthAdjust="spacingAndGlyphs" textLength="60" x="57.5" y="176.4688">select card</text><rect fill="#FEFECE" height="35.0938" rx="12.5" ry="12.5" style="stroke: #D4AC0D; stroke-width: 1.5;" width="85" x="45" y="209.1055"/><text fill="#000000" font-family="sans-serif" font-size="12" lengthAdjust="spacingAndGlyphs" textLength="65" x="55" y="231.5625">identify card</text><rect fill="#FEFECE" height="35.0938" rx="12.5" ry="12.5" style="stroke: #D4AC0D; stroke-width: 1.5;" width="155" x="10" y="264.1992"/><text fill="#000000" font-family="sans-serif" font-size="12" lengthAdjust="spacingAndGlyphs" textLength="135" x="20" y="286.6563">process card application</text><rect fill="#FEFECE" height="35.0938" rx="12.5" ry="12.5" style="stroke: #D4AC0D; stroke-width: 1.5;" width="136" x="19.5" y="319.293"/><text fill="#000000" font-family="sans-serif" font-size="12" lengthAdjust="spacingAndGlyphs" textLength="116" x="29.5" y="341.75">release card channel</text><ellipse cx="87.5" cy="385.3867" fill="#FFFFFF" rx="11" ry="11" style="stroke: #000000; stroke-width: 1.0;"/><ellipse cx="87.5" cy="385.3867" fill="#000000" rx="6" ry="6" style="stroke: #7F7F7F; stroke-width: 1.0;"/><polygon fill="#FEFECE" points="53.5,105.0938,121.5,105.0938,133.5,117.0938,121.5,129.0938,53.5,129.0938,41.5,117.0938,53.5,105.0938" style="stroke: #A80036; stroke-width: 1.5;"/><text fill="#000000" font-family="sans-serif" font-size="11" lengthAdjust="spacingAndGlyphs" textLength="18" x="91.5" y="140.5127">yes</text><text fill="#000000" font-family="sans-serif" font-size="11" lengthAdjust="spacingAndGlyphs" textLength="68" x="53.5" y="121.5947">card present?</text><text fill="#000000" font-family="sans-serif" font-size="11" lengthAdjust="spacingAndGlyphs" textLength="12" x="133.5" y="114.6768">no</text><ellipse cx="167.5" cy="117.0938" fill="#FFFFFF" rx="11" ry="11" style="stroke: #000000; stroke-width: 1.0;"/><ellipse cx="167.5" cy="117.0938" fill="#000000" rx="6" ry="6" style="stroke: #7F7F7F; stroke-width: 1.0;"/><line style="stroke: #A80036; stroke-width: 1.5;" x1="87.5" x2="87.5" y1="30" y2="50"/><polygon fill="#A80036" points="83.5,40,87.5,50,91.5,40,87.5,44" style="stroke: #A80036; stroke-width: 1.0;"/><line style="stroke: #A80036; stroke-width: 1.5;" x1="87.5" x2="87.5" y1="189.1055" y2="209.1055"/><polygon fill="#A80036" points="83.5,199.1055,87.5,209.1055,91.5,199.1055,87.5,203.1055" style="stroke: #A80036; stroke-width: 1.0;"/><line style="stroke: #A80036; stroke-width: 1.5;" x1="87.5" x2="87.5" y1="244.1992" y2="264.1992"/><polygon fill="#A80036" points="83.5,254.1992,87.5,264.1992,91.5,254.1992,87.5,258.1992" style="stroke: #A80036; stroke-width: 1.0;"/><line style="stroke: #A80036; stroke-width: 1.5;" x1="87.5" x2="87.5" y1="299.293" y2="319.293"/><polygon fill="#A80036" points="83.5,309.293,87.5,319.293,91.5,309.293,87.5,313.293" style="stroke: #A80036; stroke-width: 1.0;"/><line style="stroke: #A80036; stroke-width: 1.5;" x1="87.5" x2="87.5" y1="354.3867" y2="374.3867"/><polygon fill="#A80036" points="83.5,364.3867,87.5,374.3867,91.5,364.3867,87.5,368.3867" style="stroke: #A80036; stroke-width: 1.0;"/><line style="stroke: #A80036; stroke-width: 1.5;" x1="87.5" x2="87.5" y1="129.0938" y2="154.0117"/><polygon fill="#A80036" points="83.5,144.0117,87.5,154.0117,91.5,144.0117,87.5,148.0117" style="stroke: #A80036; stroke-width: 1.0;"/><line style="stroke: #A80036; stroke-width: 1.5;" x1="133.5" x2="156.5" y1="117.0938" y2="117.0938"/><polygon fill="#A80036" points="146.5,113.0938,156.5,117.0938,146.5,121.0938,150.5,117.0938" style="stroke: #A80036; stroke-width: 1.0;"/><line style="stroke: #A80036; stroke-width: 1.5;" x1="87.5" x2="87.5" y1="85.0938" y2="105.0938"/><polygon fill="#A80036" points="83.5,95.0938,87.5,105.0938,91.5,95.0938,87.5,99.0938" style="stroke: #A80036; stroke-width: 1.0;"/><!--MD5=[d2c9a349d8a61948b3cc0a081c350b06]
@startuml
skinparam ClassBorderColor #D4AC0D
skinparam stereotypeABorderColor #A9DCDF
skinparam stereotypeIBorderColor #B4A7E5
skinparam stereotypeCBorderColor #ADD1B2
skinparam stereotypeEBorderColor #EB93DF
skinparam shadowing false

skinparam StateBorderColor #D4AC0D
skinparam ActivityBorderColor #D4AC0D

skinparam ClassBackgroundColor<<red>> #FDEDEC
skinparam ClassBorderColor<<red>> #E74C3C
hide <<red>> stereotype
skinparam ClassBackgroundColor<<purple>> #F4ECF7
skinparam ClassBorderColor<<purple>> #8E44AD
hide <<purple>> stereotype
skinparam ClassBackgroundColor<<blue>> #EBF5FB
skinparam ClassBorderColor<<blue>> #3498DB
hide <<blue>> stereotype
skinparam ClassBackgroundColor<<green>> #EAFAF1
skinparam ClassBorderColor<<green>> #2ECC71
hide <<green>> stereotype

skinparam ClassBackgroundColor<<orange>> #FDF2E9
skinparam ClassBorderColor<<orange>> #E67E22
hide <<orange>> stereotype

skinparam ClassBackgroundColor<<grey>> #EAECEE
skinparam ClassBorderColor<<grey>> #2C3E50
hide <<grey>> stereotype

start
:define selection;
if (card present?) then (yes)
  :select card;
  :identify card;
  :process card application;
  :release card channel;
  stop
else (no)
  stop
@enduml

PlantUML version 1.2020.09(Sun May 10 14:51:06 MUT 2020)
(GPL source distribution)
Java Runtime: OpenJDK Runtime Environment
JVM: OpenJDK 64-Bit Server VM
Java Version: 11.0.7+10-b765.64
Operating System: Windows 10
Default Encoding: Cp1252
Language: fr
Country: FR
--></g></svg>