<svg xmlns="http://www.w3.org/2000/svg" xmlns:xlink="http://www.w3.org/1999/xlink" contentStyleType="text/css" height="413px" preserveAspectRatio="none" style="width:516px;height:413px;background:#FFFFFF;" version="1.1" viewBox="0 0 516 413" width="516px" zoomAndPan="magnify"><defs/><g><rect fill="#D3D3D3" height="252.3281" style="stroke:#181818;stroke-width:1.0;" width="10" x="33.1724" y="88.9121"/><rect fill="#D3D3D3" height="252.3281" style="stroke:#181818;stroke-width:1.0;" width="10" x="159.6514" y="88.9121"/><rect fill="#D3D3D3" height="189.7461" style="stroke:#181818;stroke-width:1.0;" width="10" x="339.6748" y="120.2031"/><rect fill="#F5F5F5" height="144.4551" rx="5" ry="5" style="stroke:#000000;stroke-width:1.5;" width="500.9277" x="10" y="135.2031"/><line style="stroke:#181818;stroke-width:0.5;stroke-dasharray:5.0,5.0;" x1="38" x2="38" y1="55.6211" y2="359.2402"/><line style="stroke:#181818;stroke-width:0.5;stroke-dasharray:5.0,5.0;" x1="164.4238" x2="164.4238" y1="55.6211" y2="359.2402"/><line style="stroke:#181818;stroke-width:0.5;stroke-dasharray:5.0,5.0;" x1="344.0576" x2="344.0576" y1="55.6211" y2="359.2402"/><text fill="#000000" font-family="sans-serif" font-size="14" lengthAdjust="spacing" textLength="30.3447" x="20" y="52.1074">Card</text><ellipse cx="38.1724" cy="21" fill="#E2E2F0" rx="12" ry="12" style="stroke:#181818;stroke-width:0.5;"/><line style="stroke:#181818;stroke-width:0.5;" x1="26.1724" x2="50.1724" y1="35" y2="35"/><text fill="#000000" font-family="sans-serif" font-size="14" lengthAdjust="spacing" textLength="30.3447" x="20" y="373.3477">Card</text><ellipse cx="38.1724" cy="392.8613" fill="#E2E2F0" rx="12" ry="12" style="stroke:#181818;stroke-width:0.5;"/><line style="stroke:#181818;stroke-width:0.5;" x1="26.1724" x2="50.1724" y1="406.8613" y2="406.8613"/><rect fill="#E2E2F0" height="32.6211" rx="5" ry="5" style="stroke:#181818;stroke-width:0.5;" width="68.4551" x="130.4238" y="22"/><text fill="#000000" font-family="sans-serif" font-size="14" lengthAdjust="spacing" textLength="54.4551" x="137.4238" y="44.1074">Terminal</text><rect fill="#E2E2F0" height="32.6211" rx="5" ry="5" style="stroke:#181818;stroke-width:0.5;" width="68.4551" x="130.4238" y="358.2402"/><text fill="#000000" font-family="sans-serif" font-size="14" lengthAdjust="spacing" textLength="54.4551" x="137.4238" y="380.3477">Terminal</text><rect fill="#E2E2F0" height="32.6211" rx="5" ry="5" style="stroke:#181818;stroke-width:0.5;" width="55.2344" x="317.0576" y="22"/><text fill="#000000" font-family="sans-serif" font-size="14" lengthAdjust="spacing" textLength="41.2344" x="324.0576" y="44.1074">Server</text><rect fill="#E2E2F0" height="32.6211" rx="5" ry="5" style="stroke:#181818;stroke-width:0.5;" width="55.2344" x="317.0576" y="358.2402"/><text fill="#000000" font-family="sans-serif" font-size="14" lengthAdjust="spacing" textLength="41.2344" x="324.0576" y="380.3477">Server</text><rect fill="#D3D3D3" height="252.3281" style="stroke:#181818;stroke-width:1.0;" width="10" x="33.1724" y="88.9121"/><rect fill="#D3D3D3" height="252.3281" style="stroke:#181818;stroke-width:1.0;" width="10" x="159.6514" y="88.9121"/><rect fill="#D3D3D3" height="189.7461" style="stroke:#181818;stroke-width:1.0;" width="10" x="339.6748" y="120.2031"/><line style="stroke:#181818;stroke-width:1.0;" x1="157.6514" x2="147.6514" y1="88.9121" y2="84.9121"/><line style="stroke:#181818;stroke-width:1.0;" x1="157.6514" x2="147.6514" y1="88.9121" y2="92.9121"/><line style="stroke:#181818;stroke-width:1.0;stroke-dasharray:2.0,2.0;" x1="43.1724" x2="158.6514" y1="88.9121" y2="88.9121"/><text fill="#000000" font-family="sans-serif" font-size="13" lengthAdjust="spacing" textLength="88.1499" x="50.1724" y="83.6494">card is inserted</text><polygon fill="#3498DB" points="327.6748,116.2031,337.6748,120.2031,327.6748,124.2031,331.6748,120.2031" style="stroke:#3498DB;stroke-width:1.0;"/><line style="stroke:#3498DB;stroke-width:1.0;" x1="169.6514" x2="333.6748" y1="120.2031" y2="120.2031"/><text fill="#3498DB" font-family="sans-serif" font-size="13" font-weight="bold" lengthAdjust="spacing" textLength="151.0234" x="176.6514" y="114.9404">Execute Remote Service</text><path d="M15,135.2031 L82.4346,135.2031 L82.4346,144.4941 L72.4346,154.4941 L10,154.4941 L10,140.2031 A5,5 0 0 1 15,135.2031 " fill="#EEEEEE" style="stroke:#000000;stroke-width:1.5;"/><rect fill="none" height="144.4551" rx="5" ry="5" style="stroke:#000000;stroke-width:1.5;" width="500.9277" x="10" y="135.2031"/><text fill="#000000" font-family="sans-serif" font-size="13" font-weight="bold" lengthAdjust="spacing" textLength="27.4346" x="25" y="150.2314">loop</text><text fill="#000000" font-family="sans-serif" font-size="11" font-weight="bold" lengthAdjust="spacing" textLength="408.4932" x="97.4346" y="149.0732">[while there are actions to be performed with the card or the terminal's reader]</text><polygon fill="#27AE60" points="180.6514,173.7852,170.6514,177.7852,180.6514,181.7852,176.6514,177.7852" style="stroke:#27AE60;stroke-width:1.0;"/><line style="stroke:#27AE60;stroke-width:1.0;stroke-dasharray:2.0,2.0;" x1="174.6514" x2="338.6748" y1="177.7852" y2="177.7852"/><text fill="#27AE60" font-family="sans-serif" font-size="13" font-weight="bold" lengthAdjust="spacing" textLength="63.5591" x="186.6514" y="172.5225">Command</text><polygon fill="#181818" points="54.1724,205.0762,44.1724,209.0762,54.1724,213.0762,50.1724,209.0762" style="stroke:#181818;stroke-width:1.0;"/><line style="stroke:#181818;stroke-width:1.0;" x1="48.1724" x2="158.6514" y1="209.0762" y2="209.0762"/><text fill="#000000" font-family="sans-serif" font-size="13" lengthAdjust="spacing" textLength="57.0781" x="60.1724" y="203.8135">command</text><polygon fill="#181818" points="147.6514,236.3672,157.6514,240.3672,147.6514,244.3672,151.6514,240.3672" style="stroke:#181818;stroke-width:1.0;"/><line style="stroke:#181818;stroke-width:1.0;stroke-dasharray:2.0,2.0;" x1="43.1724" x2="153.6514" y1="240.3672" y2="240.3672"/><text fill="#000000" font-family="sans-serif" font-size="13" lengthAdjust="spacing" textLength="53.479" x="50.1724" y="235.1045">response</text><polygon fill="#3498DB" points="327.6748,267.6582,337.6748,271.6582,327.6748,275.6582,331.6748,271.6582" style="stroke:#3498DB;stroke-width:1.0;"/><line style="stroke:#3498DB;stroke-width:1.0;" x1="169.6514" x2="333.6748" y1="271.6582" y2="271.6582"/><text fill="#3498DB" font-family="sans-serif" font-size="13" font-weight="bold" lengthAdjust="spacing" textLength="62.1309" x="176.6514" y="266.3955">Response</text><polygon fill="#27AE60" points="180.6514,305.9492,170.6514,309.9492,180.6514,313.9492,176.6514,309.9492" style="stroke:#27AE60;stroke-width:1.0;"/><line style="stroke:#27AE60;stroke-width:1.0;stroke-dasharray:2.0,2.0;" x1="174.6514" x2="343.6748" y1="309.9492" y2="309.9492"/><text fill="#27AE60" font-family="sans-serif" font-size="13" font-weight="bold" lengthAdjust="spacing" textLength="125.7153" x="186.6514" y="304.6865">End Remote Service</text><line style="stroke:#181818;stroke-width:1.0;" x1="162.6514" x2="152.6514" y1="341.2402" y2="337.2402"/><line style="stroke:#181818;stroke-width:1.0;" x1="162.6514" x2="152.6514" y1="341.2402" y2="345.2402"/><line style="stroke:#181818;stroke-width:1.0;stroke-dasharray:2.0,2.0;" x1="38.1724" x2="163.6514" y1="341.2402" y2="341.2402"/><text fill="#000000" font-family="sans-serif" font-size="13" lengthAdjust="spacing" textLength="92.479" x="45.1724" y="335.9775">card is removed</text><!--SRC=[VL9DJy904BtlhvZ0WQIa2U8t0HAiLG-A2VPcEApjQ3UqktLs0VdtJZ-m68bjcaxwvhrvVRCzc4mWUWYVGYw4i2kb2qaoXuLPwoGmf97WP21wBMBnSuqwnXcHsKQfYbSQhOMX4BrIB7YUH-4ygkHGE-Lsq0aa9HsG5c8k1Ciu5Qj2QWUT22bNMcOrd2cc_6vuGTeWLR2jIY5A5V3zwRGXGByFtKVraRfxmXsCgZ6WB2ZD58U9aB5J6-cmHjfUrgeL_DVkwTdrrUtDSjgC-ICwZarcQ0HDuzJpmY-CroowmDpmgtIgOlGy8J9Z2kZUdPStR5EL8RWK2K6M3vinse8py8PG8BqRoZ61hN9fsLQRD5JLhicdPu5G9lpxm5VZUiosXvUpy6AmzFUsVums2FiCJ9vBdR2nYbkgZ_sz1gTLmot8qROeeItOBHxEFPBMiNmM3PK78-kBVrpx_Z7ZeKwEXFjd_HLvltFY_WslFC5swVMnElnIdiDl]--></g></svg>