<?xml version="1.0" encoding="utf-8"?>
<!-- Generator: Adobe Illustrator 23.1.0, SVG Export Plug-In . SVG Version: 6.00 Build 0)  -->
<svg version="1.1" id="Calque_1" xmlns="http://www.w3.org/2000/svg" xmlns:xlink="http://www.w3.org/1999/xlink" x="0px" y="0px"
	 viewBox="0 0 337.99 251.77" style="enable-background:new 0 0 337.99 251.77;" xml:space="preserve">
<style type="text/css">
	.st0{fill:#FFFFFF;}
	.st1{fill:#FFFFFF;}
	.st2{fill:#F69322;}
</style>
<g>
	<g>
		<rect id="XMLID_24_" x="94.14" y="76.94" class="st1" width="17.7" height="19.6"/>
		<path id="XMLID_23_" class="st1" d="M126.95,181.62h-15.12V113.3c0-2.46-1.96-4.59-4.59-4.59H88.86v18.35h4.78v54.55H79.13v18.18
			h63.45C135.82,195.34,130.37,189.04,126.95,181.62"/>
		<path id="XMLID_22_" class="st1" d="M296.52,127.07v-18.35h-31.79V76.94h-18.18v31.78h-30.8c6.8,4.5,12.28,10.85,15.71,18.35
			h15.09v36.37c0,19.99,16.38,36.37,36.37,36.37h13.6v-18.18h-13.6c-9.99,0-18.19-8.2-18.19-18.19v-36.37H296.52z"/>
		<path id="XMLID_19_" class="st1" d="M188.28,108.72H170.1c-19.99,0-36.37,16.38-36.37,36.53v18.18
			c0,19.99,16.38,36.37,36.37,36.37h12.87h5.31c19.99,0,36.37-16.38,36.37-36.37v-18.18C224.65,125.1,208.26,108.72,188.28,108.72
			 M206.46,163.43c0,9.99-8.19,18.19-18.19,18.19H170.1c-10,0-18.18-8.2-18.18-18.19v-18.18c0-9.99,8.19-18.18,18.18-18.18h18.18
			c10,0,18.19,8.19,18.19,18.18V163.43z"/>
	</g>
	<path id="XMLID_16_" class="st2" d="M48.85,189.2c0-6.19,3.16-9.28,9.48-9.28c0.84,0,1.68,0.06,2.52,0.17v13.54
		c2.88,0,4.31-2.11,4.31-6.33c0-2.06-0.19-4.12-0.58-6.18h4.08c0.39,1.8,0.58,3.99,0.58,6.56c0,7.39-3.48,11.09-10.43,11.09
		C52.17,198.78,48.85,195.59,48.85,189.2z M57.28,193.63v-8.7h-0.16c-2.82,0-4.23,1.42-4.23,4.27
		C52.89,191.92,54.36,193.4,57.28,193.63z"/>
	<path id="XMLID_14_" class="st2" d="M68.66,161c0.39,1.68,0.58,3.43,0.58,5.24c0,7.25-3.53,10.88-10.59,10.88
		c-6.54,0-9.81-3.62-9.81-10.88c0-1.81,0.19-3.56,0.58-5.24h4.08c-0.39,1.68-0.58,3.3-0.58,4.86c0,4.08,1.91,6.12,5.73,6.12
		c4.34,0,6.51-2.04,6.51-6.12c0-1.55-0.19-3.17-0.58-4.86H68.66z"/>
	<path id="XMLID_12_" class="st2" d="M41.47,152.46h27.77v5.15H41.47V152.46z"/>
	<path id="XMLID_9_" class="st2" d="M41.47,142.45h4.08v5.15h-4.08V142.45z M48.85,142.45h20.39v5.15H48.85V142.45z"/>
	<path id="XMLID_6_" class="st2" d="M49.69,137.6c-0.56-2.71-0.83-5.57-0.83-8.58c0-6.93,3.23-10.39,9.69-10.39
		c7.13,0,10.7,3.22,10.7,9.67c0,1.37-0.32,2.76-0.97,4.16h8.35v5.15H49.69z M63.92,132.45c0.7-1.28,1.05-2.66,1.05-4.14
		c0-3.07-2.16-4.6-6.47-4.6c-3.66,0-5.49,1.7-5.49,5.09c0,1.46,0.09,2.68,0.27,3.65H63.92z"/>
	<path id="XMLID_4_" class="st2" d="M68.27,114.74H64c0.91-2.26,1.36-4.88,1.36-7.85c0-2.22-0.71-3.32-2.14-3.32
		c-1.36,0-2.04,0.74-2.04,2.23v3.69c0,4.14-2.04,6.22-6.12,6.22c-4.27,0-6.41-3.02-6.41-9.07c0-2.56,0.39-4.98,1.17-7.25h4.27
		c-0.91,2.27-1.36,4.73-1.36,7.38c0,2.78,0.71,4.18,2.14,4.18c1.36,0,2.04-0.81,2.04-2.43v-3.3c0-4.53,2.04-6.8,6.12-6.8
		c4.27,0,6.41,2.89,6.41,8.66C69.44,109.92,69.05,112.47,68.27,114.74z"/>
	<path id="XMLID_1_" class="st2" d="M48.85,86.22c0-6.19,3.16-9.28,9.48-9.28c0.84,0,1.68,0.06,2.52,0.17v13.54
		c2.88,0,4.31-2.11,4.31-6.33c0-2.06-0.19-4.12-0.58-6.18h4.08c0.39,1.8,0.58,3.99,0.58,6.56c0,7.39-3.48,11.09-10.43,11.09
		C52.17,95.8,48.85,92.61,48.85,86.22z M57.28,90.65v-8.7h-0.16c-2.82,0-4.23,1.42-4.23,4.27C52.89,88.94,54.36,90.42,57.28,90.65z"
		/>
	<circle class="st2" cx="213.44" cy="69.28" r="17.31"/>
	<circle class="st2" cx="171.09" cy="86.78" r="7.66"/>
	<circle class="st2" cx="149.85" cy="61.81" r="9.85"/>
	
		<rect x="160.16" y="57.5" transform="matrix(0.7658 -0.6431 0.6431 0.7658 -10.9514 121.7692)" class="st2" width="3.09" height="36.84"/>
	
		<rect x="171.71" y="76.48" transform="matrix(0.9158 -0.4017 0.4017 0.9158 -15.047 84.2922)" class="st2" width="43.57" height="3.09"/>
</g>
</svg>
