<svg xmlns="http://www.w3.org/2000/svg" xmlns:xlink="http://www.w3.org/1999/xlink" contentStyleType="text/css" height="965px" preserveAspectRatio="none" style="width:1199px;height:965px;background:#FFFFFF;" version="1.1" viewBox="0 0 1199 965" width="1199px" zoomAndPan="magnify"><defs/><g><rect fill="#F0F0F0" height="953.1777" rx="5" ry="5" style="stroke:#181818;stroke-width:0.5;" width="456.8896" x="47.3447" y="6"/><text fill="#000000" font-family="sans-serif" font-size="13" font-weight="bold" lengthAdjust="spacing" textLength="54.1836" x="248.6978" y="20.0283">Terminal</text><rect fill="#F0F0F0" height="953.1777" rx="5" ry="5" style="stroke:#181818;stroke-width:0.5;" width="483.5049" x="710.3833" y="6"/><text fill="#000000" font-family="sans-serif" font-size="13" font-weight="bold" lengthAdjust="spacing" textLength="40.479" x="931.8962" y="20.0283">Server</text><rect fill="#D3D3D3" height="430.7832" style="stroke:#181818;stroke-width:1.0;" width="10" x="18.1724" y="456.7734"/><rect fill="#D3D3D3" height="14" style="stroke:#181818;stroke-width:1.0;" width="10" x="124.9409" y="386.4824"/><rect fill="#D3D3D3" height="42" style="stroke:#181818;stroke-width:1.0;" width="10" x="124.9409" y="488.0645"/><rect fill="#D3D3D3" height="31.291" style="stroke:#181818;stroke-width:1.0;" width="10" x="124.9409" y="586.3555"/><rect fill="#D3D3D3" height="825.6445" style="stroke:#181818;stroke-width:1.0;" width="10" x="434.9243" y="70.9121"/><rect fill="#D3D3D3" height="182.7852" style="stroke:#181818;stroke-width:1.0;" width="10" x="772.4141" y="94.2031"/><rect fill="#D3D3D3" height="155.4551" style="stroke:#181818;stroke-width:1.0;" width="10" x="772.4141" y="700.8105"/><rect fill="#D3D3D3" height="14" style="stroke:#181818;stroke-width:1.0;" width="10" x="1106.292" y="169.1152"/><rect fill="#D3D3D3" height="31.291" style="stroke:#181818;stroke-width:1.0;" width="10" x="1106.292" y="214.4063"/><rect fill="#D3D3D3" height="31.291" style="stroke:#181818;stroke-width:1.0;" width="10" x="1106.292" y="766.6836"/><line style="stroke:#181818;stroke-width:0.5;stroke-dasharray:5.0,5.0;" x1="23" x2="23" y1="60.9121" y2="905.5566"/><line style="stroke:#181818;stroke-width:0.5;stroke-dasharray:5.0,5.0;" x1="129.3447" x2="129.3447" y1="316.7988" y2="905.5566"/><line style="stroke:#181818;stroke-width:0.5;stroke-dasharray:5.0,5.0;" x1="439.6143" x2="439.6143" y1="60.9121" y2="905.5566"/><line style="stroke:#181818;stroke-width:0.5;stroke-dasharray:5.0,5.0;" x1="777.3833" x2="777.3833" y1="60.9121" y2="905.5566"/><line style="stroke:#181818;stroke-width:0.5;stroke-dasharray:5.0,5.0;" x1="1110.6958" x2="1110.6958" y1="134.0137" y2="905.5566"/><text fill="#000000" font-family="sans-serif" font-size="14" lengthAdjust="spacing" textLength="30.3447" x="5" y="57.3984">Card</text><ellipse cx="23.1724" cy="26.291" fill="#E2E2F0" rx="12" ry="12" style="stroke:#181818;stroke-width:0.5;"/><line style="stroke:#181818;stroke-width:0.5;" x1="11.1724" x2="35.1724" y1="40.291" y2="40.291"/><text fill="#000000" font-family="sans-serif" font-size="14" lengthAdjust="spacing" textLength="30.3447" x="5" y="919.6641">Card</text><ellipse cx="23.1724" cy="939.1777" fill="#E2E2F0" rx="12" ry="12" style="stroke:#181818;stroke-width:0.5;"/><line style="stroke:#181818;stroke-width:0.5;" x1="11.1724" x2="35.1724" y1="953.1777" y2="953.1777"/><rect fill="#E2E2F0" height="32.6211" rx="5" ry="5" style="stroke:#181818;stroke-width:0.5;" width="157.1924" x="51.3447" y="904.5566"/><text fill="#000000" font-family="sans-serif" font-size="14" lengthAdjust="spacing" textLength="143.1924" x="58.3447" y="926.6641">CardSelectionManager</text><rect fill="#E2E2F0" height="32.6211" rx="5" ry="5" style="stroke:#181818;stroke-width:0.5;" width="120.6201" x="379.6143" y="27.291"/><text fill="#000000" font-family="sans-serif" font-size="14" lengthAdjust="spacing" textLength="106.6201" x="386.6143" y="49.3984">Client application</text><rect fill="#E2E2F0" height="32.6211" rx="5" ry="5" style="stroke:#181818;stroke-width:0.5;" width="120.6201" x="379.6143" y="904.5566"/><text fill="#000000" font-family="sans-serif" font-size="14" lengthAdjust="spacing" textLength="106.6201" x="386.6143" y="926.6641">Client application</text><rect fill="#E2E2F0" height="32.6211" rx="5" ry="5" style="stroke:#181818;stroke-width:0.5;" width="126.0615" x="714.3833" y="27.291"/><text fill="#000000" font-family="sans-serif" font-size="14" lengthAdjust="spacing" textLength="112.0615" x="721.3833" y="49.3984">Server application</text><rect fill="#E2E2F0" height="32.6211" rx="5" ry="5" style="stroke:#181818;stroke-width:0.5;" width="126.0615" x="714.3833" y="904.5566"/><text fill="#000000" font-family="sans-serif" font-size="14" lengthAdjust="spacing" textLength="112.0615" x="721.3833" y="926.6641">Server application</text><rect fill="#E2E2F0" height="32.6211" rx="5" ry="5" style="stroke:#181818;stroke-width:0.5;" width="157.1924" x="1032.6958" y="904.5566"/><text fill="#000000" font-family="sans-serif" font-size="14" lengthAdjust="spacing" textLength="143.1924" x="1039.6958" y="926.6641">CardSelectionManager</text><rect fill="#D3D3D3" height="430.7832" style="stroke:#181818;stroke-width:1.0;" width="10" x="18.1724" y="456.7734"/><rect fill="#D3D3D3" height="14" style="stroke:#181818;stroke-width:1.0;" width="10" x="124.9409" y="386.4824"/><rect fill="#D3D3D3" height="42" style="stroke:#181818;stroke-width:1.0;" width="10" x="124.9409" y="488.0645"/><rect fill="#D3D3D3" height="31.291" style="stroke:#181818;stroke-width:1.0;" width="10" x="124.9409" y="586.3555"/><rect fill="#D3D3D3" height="825.6445" style="stroke:#181818;stroke-width:1.0;" width="10" x="434.9243" y="70.9121"/><rect fill="#D3D3D3" height="182.7852" style="stroke:#181818;stroke-width:1.0;" width="10" x="772.4141" y="94.2031"/><rect fill="#D3D3D3" height="155.4551" style="stroke:#181818;stroke-width:1.0;" width="10" x="772.4141" y="700.8105"/><rect fill="#D3D3D3" height="14" style="stroke:#181818;stroke-width:1.0;" width="10" x="1106.292" y="169.1152"/><rect fill="#D3D3D3" height="31.291" style="stroke:#181818;stroke-width:1.0;" width="10" x="1106.292" y="214.4063"/><rect fill="#D3D3D3" height="31.291" style="stroke:#181818;stroke-width:1.0;" width="10" x="1106.292" y="766.6836"/><polygon fill="#181818" points="760.4141,90.2031,770.4141,94.2031,760.4141,98.2031,764.4141,94.2031" style="stroke:#181818;stroke-width:1.0;"/><line style="stroke:#181818;stroke-width:1.0;" x1="444.9243" x2="766.4141" y1="94.2031" y2="94.2031"/><text fill="#000000" font-family="sans-serif" font-size="13" lengthAdjust="spacing" textLength="184.9771" x="451.9243" y="88.9404">Retrieve card selection scenario</text><polygon fill="#181818" points="1020.6958,121.4941,1030.6958,125.4941,1020.6958,129.4941,1024.6958,125.4941" style="stroke:#181818;stroke-width:1.0;"/><line style="stroke:#181818;stroke-width:1.0;" x1="782.4141" x2="1026.6958" y1="125.4941" y2="125.4941"/><text fill="#000000" font-family="sans-serif" font-size="13" lengthAdjust="spacing" textLength="26.0063" x="789.4141" y="120.2314">New</text><rect fill="#E2E2F0" height="32.6211" rx="5" ry="5" style="stroke:#181818;stroke-width:0.5;" width="157.1924" x="1032.6958" y="102.2031"/><text fill="#000000" font-family="sans-serif" font-size="14" lengthAdjust="spacing" textLength="143.1924" x="1039.6958" y="124.3105">CardSelectionManager</text><polygon fill="#181818" points="1094.292,165.1152,1104.292,169.1152,1094.292,173.1152,1098.292,169.1152" style="stroke:#181818;stroke-width:1.0;"/><line style="stroke:#181818;stroke-width:1.0;" x1="782.4141" x2="1100.292" y1="169.1152" y2="169.1152"/><text fill="#000000" font-family="sans-serif" font-size="13" lengthAdjust="spacing" textLength="182.8188" x="789.4141" y="163.8525">Prepare card selection scenario</text><polygon fill="#181818" points="793.4141,179.1152,783.4141,183.1152,793.4141,187.1152,789.4141,183.1152" style="stroke:#181818;stroke-width:1.0;"/><line style="stroke:#181818;stroke-width:1.0;stroke-dasharray:2.0,2.0;" x1="787.4141" x2="1110.292" y1="183.1152" y2="183.1152"/><polygon fill="#181818" points="1094.292,210.4063,1104.292,214.4063,1094.292,218.4063,1098.292,214.4063" style="stroke:#181818;stroke-width:1.0;"/><line style="stroke:#181818;stroke-width:1.0;" x1="782.4141" x2="1100.292" y1="214.4063" y2="214.4063"/><text fill="#FF0000" font-family="sans-serif" font-size="13" font-weight="bold" lengthAdjust="spacing" textLength="182.0571" x="789.4141" y="209.1436">exportCardSelectionScenario</text><text fill="#000000" font-family="sans-serif" font-size="13" font-weight="bold" lengthAdjust="spacing" textLength="8.6582" x="975.083" y="209.1436">()</text><polygon fill="#181818" points="793.4141,241.6973,783.4141,245.6973,793.4141,249.6973,789.4141,245.6973" style="stroke:#181818;stroke-width:1.0;"/><line style="stroke:#181818;stroke-width:1.0;stroke-dasharray:2.0,2.0;" x1="787.4141" x2="1110.292" y1="245.6973" y2="245.6973"/><text fill="#008000" font-family="sans-serif" font-size="13" font-weight="bold" lengthAdjust="spacing" textLength="210.2217" x="799.4141" y="240.4346">CardSelectionScenarioJsonString</text><polygon fill="#181818" points="455.9243,272.9883,445.9243,276.9883,455.9243,280.9883,451.9243,276.9883" style="stroke:#181818;stroke-width:1.0;"/><line style="stroke:#181818;stroke-width:1.0;stroke-dasharray:2.0,2.0;" x1="449.9243" x2="776.4141" y1="276.9883" y2="276.9883"/><text fill="#008000" font-family="sans-serif" font-size="13" font-weight="bold" lengthAdjust="spacing" textLength="210.2217" x="461.9243" y="271.7256">CardSelectionScenarioJsonString</text><polygon fill="#181818" points="219.5371,304.2793,209.5371,308.2793,219.5371,312.2793,215.5371,308.2793" style="stroke:#181818;stroke-width:1.0;"/><line style="stroke:#181818;stroke-width:1.0;" x1="213.5371" x2="433.9243" y1="308.2793" y2="308.2793"/><text fill="#000000" font-family="sans-serif" font-size="13" lengthAdjust="spacing" textLength="26.0063" x="225.5371" y="303.0166">New</text><rect fill="#E2E2F0" height="32.6211" rx="5" ry="5" style="stroke:#181818;stroke-width:0.5;" width="157.1924" x="51.3447" y="284.9883"/><text fill="#000000" font-family="sans-serif" font-size="14" lengthAdjust="spacing" textLength="143.1924" x="58.3447" y="307.0957">CardSelectionManager</text><polygon fill="#181818" points="145.9409,382.4824,135.9409,386.4824,145.9409,390.4824,141.9409,386.4824" style="stroke:#181818;stroke-width:1.0;"/><line style="stroke:#181818;stroke-width:1.0;" x1="139.9409" x2="433.9243" y1="386.4824" y2="386.4824"/><text fill="#FF0000" font-family="sans-serif" font-size="13" font-weight="bold" lengthAdjust="spacing" textLength="182.7681" x="151.9409" y="346.6377">importCardSelectionScenario</text><text fill="#000000" font-family="sans-serif" font-size="13" font-weight="bold" lengthAdjust="spacing" textLength="4.3291" x="338.3208" y="346.6377">(</text><text fill="#008000" font-family="sans-serif" font-size="13" font-weight="bold" lengthAdjust="spacing" textLength="210.2217" x="180.8354" y="363.9287">CardSelectionScenarioJsonString</text><text fill="#000000" font-family="sans-serif" font-size="13" font-weight="bold" lengthAdjust="spacing" textLength="4.3291" x="151.9409" y="381.2197">)</text><polygon fill="#181818" points="422.9243,396.4824,432.9243,400.4824,422.9243,404.4824,426.9243,400.4824" style="stroke:#181818;stroke-width:1.0;"/><line style="stroke:#181818;stroke-width:1.0;stroke-dasharray:2.0,2.0;" x1="129.9409" x2="428.9243" y1="400.4824" y2="400.4824"/><line style="stroke:#181818;stroke-width:1.0;" x1="432.9243" x2="422.9243" y1="456.7734" y2="452.7734"/><line style="stroke:#181818;stroke-width:1.0;" x1="432.9243" x2="422.9243" y1="456.7734" y2="460.7734"/><line style="stroke:#181818;stroke-width:1.0;stroke-dasharray:2.0,2.0;" x1="28.1724" x2="433.9243" y1="456.7734" y2="456.7734"/><text fill="#000000" font-family="sans-serif" font-size="13" lengthAdjust="spacing" textLength="113.4517" x="35.1724" y="451.5107">Card inserted event</text><polygon fill="#181818" points="145.9409,484.0645,135.9409,488.0645,145.9409,492.0645,141.9409,488.0645" style="stroke:#181818;stroke-width:1.0;"/><line style="stroke:#181818;stroke-width:1.0;" x1="139.9409" x2="433.9243" y1="488.0645" y2="488.0645"/><text fill="#000000" font-family="sans-serif" font-size="13" lengthAdjust="spacing" textLength="99.709" x="151.9409" y="482.8018">Process scenario</text><polygon fill="#181818" points="39.1724,498.0645,29.1724,502.0645,39.1724,506.0645,35.1724,502.0645" style="stroke:#181818;stroke-width:1.0;"/><line style="stroke:#181818;stroke-width:1.0;" x1="33.1724" x2="123.9409" y1="502.0645" y2="502.0645"/><polygon fill="#181818" points="112.9409,512.0645,122.9409,516.0645,112.9409,520.0645,116.9409,516.0645" style="stroke:#181818;stroke-width:1.0;"/><line style="stroke:#181818;stroke-width:1.0;stroke-dasharray:2.0,2.0;" x1="28.1724" x2="118.9409" y1="516.0645" y2="516.0645"/><polygon fill="#181818" points="422.9243,526.0645,432.9243,530.0645,422.9243,534.0645,426.9243,530.0645" style="stroke:#181818;stroke-width:1.0;"/><line style="stroke:#181818;stroke-width:1.0;stroke-dasharray:2.0,2.0;" x1="129.9409" x2="428.9243" y1="530.0645" y2="530.0645"/><polygon fill="#181818" points="145.9409,582.3555,135.9409,586.3555,145.9409,590.3555,141.9409,586.3555" style="stroke:#181818;stroke-width:1.0;"/><line style="stroke:#181818;stroke-width:1.0;" x1="139.9409" x2="433.9243" y1="586.3555" y2="586.3555"/><text fill="#FF0000" font-family="sans-serif" font-size="13" font-weight="bold" lengthAdjust="spacing" textLength="247.8188" x="151.9409" y="581.0928">exportProcessedCardSelectionScenario</text><text fill="#000000" font-family="sans-serif" font-size="13" font-weight="bold" lengthAdjust="spacing" textLength="8.6582" x="403.3716" y="581.0928">()</text><polygon fill="#181818" points="422.9243,613.6465,432.9243,617.6465,422.9243,621.6465,426.9243,617.6465" style="stroke:#181818;stroke-width:1.0;"/><line style="stroke:#181818;stroke-width:1.0;stroke-dasharray:2.0,2.0;" x1="129.9409" x2="428.9243" y1="617.6465" y2="617.6465"/><text fill="#0000FF" font-family="sans-serif" font-size="13" font-weight="bold" lengthAdjust="spacing" textLength="275.9834" x="136.9409" y="612.3838">ProcessedCardSelectionScenarioJsonString</text><polygon fill="#181818" points="760.4141,696.8105,770.4141,700.8105,760.4141,704.8105,764.4141,700.8105" style="stroke:#181818;stroke-width:1.0;"/><line style="stroke:#181818;stroke-width:1.0;" x1="444.9243" x2="766.4141" y1="700.8105" y2="700.8105"/><text fill="#000000" font-family="sans-serif" font-size="13" lengthAdjust="spacing" textLength="143.7744" x="451.9243" y="643.6748">Execute remote service (</text><text fill="#0000FF" font-family="sans-serif" font-size="13" font-weight="bold" lengthAdjust="spacing" textLength="275.9834" x="480.8188" y="660.9658">ProcessedCardSelectionScenarioJsonString</text><text fill="#000000" font-family="sans-serif" font-size="13" lengthAdjust="spacing" textLength="3.6118" x="756.8022" y="660.9658">,</text><text fill="#000000" font-family="sans-serif" font-size="13" lengthAdjust="spacing" textLength="10.8354" x="480.8188" y="678.2568">...</text><text fill="#000000" font-family="sans-serif" font-size="13" lengthAdjust="spacing" textLength="4.3291" x="451.9243" y="695.5479">)</text><polygon fill="#181818" points="1094.292,762.6836,1104.292,766.6836,1094.292,770.6836,1098.292,766.6836" style="stroke:#181818;stroke-width:1.0;"/><line style="stroke:#181818;stroke-width:1.0;" x1="782.4141" x2="1100.292" y1="766.6836" y2="766.6836"/><text fill="#FF0000" font-family="sans-serif" font-size="13" font-weight="bold" lengthAdjust="spacing" textLength="248.5298" x="789.4141" y="726.8389">importProcessedCardSelectionScenario</text><text fill="#000000" font-family="sans-serif" font-size="13" font-weight="bold" lengthAdjust="spacing" textLength="4.3291" x="1041.5557" y="726.8389">(</text><text fill="#0000FF" font-family="sans-serif" font-size="13" font-weight="bold" lengthAdjust="spacing" textLength="275.9834" x="818.3086" y="744.1299">ProcessedCardSelectionScenarioJsonString</text><text fill="#000000" font-family="sans-serif" font-size="13" font-weight="bold" lengthAdjust="spacing" textLength="4.3291" x="789.4141" y="761.4209">)</text><polygon fill="#181818" points="793.4141,793.9746,783.4141,797.9746,793.4141,801.9746,789.4141,797.9746" style="stroke:#181818;stroke-width:1.0;"/><line style="stroke:#181818;stroke-width:1.0;stroke-dasharray:2.0,2.0;" x1="787.4141" x2="1110.292" y1="797.9746" y2="797.9746"/><text fill="#000000" font-family="sans-serif" font-size="13" font-weight="bold" lengthAdjust="spacing" textLength="124.9854" x="799.4141" y="792.7119">cardSelectionResult</text><line style="stroke:#181818;stroke-width:1.0;" x1="782.4141" x2="824.4141" y1="829.2656" y2="829.2656"/><line style="stroke:#181818;stroke-width:1.0;" x1="824.4141" x2="824.4141" y1="829.2656" y2="842.2656"/><line style="stroke:#181818;stroke-width:1.0;" x1="783.4141" x2="824.4141" y1="842.2656" y2="842.2656"/><polygon fill="#181818" points="793.4141,838.2656,783.4141,842.2656,793.4141,846.2656,789.4141,842.2656" style="stroke:#181818;stroke-width:1.0;"/><text fill="#000000" font-family="sans-serif" font-size="13" lengthAdjust="spacing" textLength="141.6226" x="789.4141" y="824.0029">process card transaction</text><polygon fill="#181818" points="455.9243,852.2656,445.9243,856.2656,455.9243,860.2656,451.9243,856.2656" style="stroke:#181818;stroke-width:1.0;"/><line style="stroke:#181818;stroke-width:1.0;stroke-dasharray:2.0,2.0;" x1="449.9243" x2="776.4141" y1="856.2656" y2="856.2656"/><line style="stroke:#181818;stroke-width:1.0;" x1="432.9243" x2="422.9243" y1="887.5566" y2="883.5566"/><line style="stroke:#181818;stroke-width:1.0;" x1="432.9243" x2="422.9243" y1="887.5566" y2="891.5566"/><line style="stroke:#181818;stroke-width:1.0;stroke-dasharray:2.0,2.0;" x1="23.1724" x2="433.9243" y1="887.5566" y2="887.5566"/><text fill="#000000" font-family="sans-serif" font-size="13" lengthAdjust="spacing" textLength="117.7808" x="30.1724" y="882.2939">Card removed event</text><!--SRC=[fLJ1Zjem4BtxAqRiONUz3TrU4PiBegsgBbq1HovUPqIj1Zjo7CfAV7p7YGC99Tie5GUiyRmtpy_FkOMd9rX_dJ_FQS5O_alfJ5YnWwKfT38pLgE5Ju-CtVh6sO_5UhvObwsedN9lC9e9cun0v21fmLxD0KPhj3kbHJg2cy-F_iU8qocfCg5TXLXXYj8fev-55bkq5KEgY3LKBZ3b5eWiIvKK7jX0a9O4Q78rVOLsxmclpgus_-B9ot9FcLLpBREUpGGrxeN380fklgljJ_V5uXiBbIWEM7XuQ6p319RehC8zbYPIKvWAkKGjh39qCnNmH1760-S4N-3lxexBMIyMwPpTeoowmkh-V9nFfKcDdLXCOZnanhgMTQj0FFrOjiLmTyzvc786RosYZgy2l-Mq9d_qjgOWVEtfD8fgKsar-Nz2EcyhXms7kphUTKJjUZZ2-KPlt53j6ytvsLF6ZiSZYVNN6qLnBPPqUK9Gcknoc035ZPxEERL-iv7PtgTziKPYdfy3r6xtUFzbQ5VzjPNbjkOX1bUH2oem6P2zrxJ0-7s2VqMcurtF3oWBCjVYpj2Vxr8IuQvrsmF7V_0au_5ue-y7FjOgcdsTkyZeGDNjh98UsKGkCIzIvwszF11fpqBGogGwAtGkIj2LRm5By1JiKEby4FvkzgVtq02M-Vm3]--></g></svg>