<svg xmlns="http://www.w3.org/2000/svg" xmlns:xlink="http://www.w3.org/1999/xlink" contentStyleType="text/css" height="965px" preserveAspectRatio="none" style="width:1318px;height:965px;background:#FFFFFF;" version="1.1" viewBox="0 0 1318 965" width="1318px" zoomAndPan="magnify"><defs/><g><rect fill="#F0F0F0" height="953.1777" rx="5" ry="5" style="stroke:#181818;stroke-width:0.5;" width="456.8896" x="47.3447" y="6"/><text fill="#000000" font-family="sans-serif" font-size="13" font-weight="bold" lengthAdjust="spacing" textLength="54.1836" x="248.6978" y="20.0283">Terminal</text><rect fill="#F0F0F0" height="953.1777" rx="5" ry="5" style="stroke:#181818;stroke-width:0.5;" width="483.5049" x="828.5322" y="6"/><text fill="#000000" font-family="sans-serif" font-size="13" font-weight="bold" lengthAdjust="spacing" textLength="40.479" x="1050.0452" y="20.0283">Server</text><rect fill="#D3D3D3" height="430.7832" style="stroke:#181818;stroke-width:1.0;" width="10" x="18.1724" y="456.7734"/><rect fill="#D3D3D3" height="14" style="stroke:#181818;stroke-width:1.0;" width="10" x="124.9409" y="386.4824"/><rect fill="#D3D3D3" height="42" style="stroke:#181818;stroke-width:1.0;" width="10" x="124.9409" y="488.0645"/><rect fill="#D3D3D3" height="31.291" style="stroke:#181818;stroke-width:1.0;" width="10" x="124.9409" y="586.3555"/><rect fill="#D3D3D3" height="825.6445" style="stroke:#181818;stroke-width:1.0;" width="10" x="434.9243" y="70.9121"/><rect fill="#D3D3D3" height="182.7852" style="stroke:#181818;stroke-width:1.0;" width="10" x="890.563" y="94.2031"/><rect fill="#D3D3D3" height="155.4551" style="stroke:#181818;stroke-width:1.0;" width="10" x="890.563" y="700.8105"/><rect fill="#D3D3D3" height="14" style="stroke:#181818;stroke-width:1.0;" width="10" x="1224.4409" y="169.1152"/><rect fill="#D3D3D3" height="31.291" style="stroke:#181818;stroke-width:1.0;" width="10" x="1224.4409" y="214.4063"/><rect fill="#D3D3D3" height="31.291" style="stroke:#181818;stroke-width:1.0;" width="10" x="1224.4409" y="766.6836"/><line style="stroke:#181818;stroke-width:0.5;stroke-dasharray:5.0,5.0;" x1="23" x2="23" y1="60.9121" y2="905.5566"/><line style="stroke:#181818;stroke-width:0.5;stroke-dasharray:5.0,5.0;" x1="129.3447" x2="129.3447" y1="316.7988" y2="905.5566"/><line style="stroke:#181818;stroke-width:0.5;stroke-dasharray:5.0,5.0;" x1="439.6143" x2="439.6143" y1="60.9121" y2="905.5566"/><line style="stroke:#181818;stroke-width:0.5;stroke-dasharray:5.0,5.0;" x1="895.5322" x2="895.5322" y1="60.9121" y2="905.5566"/><line style="stroke:#181818;stroke-width:0.5;stroke-dasharray:5.0,5.0;" x1="1228.8447" x2="1228.8447" y1="134.0137" y2="905.5566"/><text fill="#000000" font-family="sans-serif" font-size="14" lengthAdjust="spacing" textLength="30.3447" x="5" y="57.3984">Card</text><ellipse cx="23.1724" cy="26.291" fill="#E2E2F0" rx="12" ry="12" style="stroke:#181818;stroke-width:0.5;"/><line style="stroke:#181818;stroke-width:0.5;" x1="11.1724" x2="35.1724" y1="40.291" y2="40.291"/><text fill="#000000" font-family="sans-serif" font-size="14" lengthAdjust="spacing" textLength="30.3447" x="5" y="919.6641">Card</text><ellipse cx="23.1724" cy="939.1777" fill="#E2E2F0" rx="12" ry="12" style="stroke:#181818;stroke-width:0.5;"/><line style="stroke:#181818;stroke-width:0.5;" x1="11.1724" x2="35.1724" y1="953.1777" y2="953.1777"/><rect fill="#E2E2F0" height="32.6211" rx="5" ry="5" style="stroke:#181818;stroke-width:0.5;" width="157.1924" x="51.3447" y="904.5566"/><text fill="#000000" font-family="sans-serif" font-size="14" lengthAdjust="spacing" textLength="143.1924" x="58.3447" y="926.6641">CardSelectionManager</text><rect fill="#E2E2F0" height="32.6211" rx="5" ry="5" style="stroke:#181818;stroke-width:0.5;" width="120.6201" x="379.6143" y="27.291"/><text fill="#000000" font-family="sans-serif" font-size="14" lengthAdjust="spacing" textLength="106.6201" x="386.6143" y="49.3984">Client application</text><rect fill="#E2E2F0" height="32.6211" rx="5" ry="5" style="stroke:#181818;stroke-width:0.5;" width="120.6201" x="379.6143" y="904.5566"/><text fill="#000000" font-family="sans-serif" font-size="14" lengthAdjust="spacing" textLength="106.6201" x="386.6143" y="926.6641">Client application</text><rect fill="#E2E2F0" height="32.6211" rx="5" ry="5" style="stroke:#181818;stroke-width:0.5;" width="126.0615" x="832.5322" y="27.291"/><text fill="#000000" font-family="sans-serif" font-size="14" lengthAdjust="spacing" textLength="112.0615" x="839.5322" y="49.3984">Server application</text><rect fill="#E2E2F0" height="32.6211" rx="5" ry="5" style="stroke:#181818;stroke-width:0.5;" width="126.0615" x="832.5322" y="904.5566"/><text fill="#000000" font-family="sans-serif" font-size="14" lengthAdjust="spacing" textLength="112.0615" x="839.5322" y="926.6641">Server application</text><rect fill="#E2E2F0" height="32.6211" rx="5" ry="5" style="stroke:#181818;stroke-width:0.5;" width="157.1924" x="1150.8447" y="904.5566"/><text fill="#000000" font-family="sans-serif" font-size="14" lengthAdjust="spacing" textLength="143.1924" x="1157.8447" y="926.6641">CardSelectionManager</text><rect fill="#D3D3D3" height="430.7832" style="stroke:#181818;stroke-width:1.0;" width="10" x="18.1724" y="456.7734"/><rect fill="#D3D3D3" height="14" style="stroke:#181818;stroke-width:1.0;" width="10" x="124.9409" y="386.4824"/><rect fill="#D3D3D3" height="42" style="stroke:#181818;stroke-width:1.0;" width="10" x="124.9409" y="488.0645"/><rect fill="#D3D3D3" height="31.291" style="stroke:#181818;stroke-width:1.0;" width="10" x="124.9409" y="586.3555"/><rect fill="#D3D3D3" height="825.6445" style="stroke:#181818;stroke-width:1.0;" width="10" x="434.9243" y="70.9121"/><rect fill="#D3D3D3" height="182.7852" style="stroke:#181818;stroke-width:1.0;" width="10" x="890.563" y="94.2031"/><rect fill="#D3D3D3" height="155.4551" style="stroke:#181818;stroke-width:1.0;" width="10" x="890.563" y="700.8105"/><rect fill="#D3D3D3" height="14" style="stroke:#181818;stroke-width:1.0;" width="10" x="1224.4409" y="169.1152"/><rect fill="#D3D3D3" height="31.291" style="stroke:#181818;stroke-width:1.0;" width="10" x="1224.4409" y="214.4063"/><rect fill="#D3D3D3" height="31.291" style="stroke:#181818;stroke-width:1.0;" width="10" x="1224.4409" y="766.6836"/><polygon fill="#181818" points="878.563,90.2031,888.563,94.2031,878.563,98.2031,882.563,94.2031" style="stroke:#181818;stroke-width:1.0;"/><line style="stroke:#181818;stroke-width:1.0;" x1="444.9243" x2="884.563" y1="94.2031" y2="94.2031"/><text fill="#000000" font-family="sans-serif" font-size="13" lengthAdjust="spacing" textLength="184.9771" x="451.9243" y="88.9404">Retrieve card selection scenario</text><polygon fill="#181818" points="1138.8447,121.4941,1148.8447,125.4941,1138.8447,129.4941,1142.8447,125.4941" style="stroke:#181818;stroke-width:1.0;"/><line style="stroke:#181818;stroke-width:1.0;" x1="900.563" x2="1144.8447" y1="125.4941" y2="125.4941"/><text fill="#000000" font-family="sans-serif" font-size="13" lengthAdjust="spacing" textLength="26.0063" x="907.563" y="120.2314">New</text><rect fill="#E2E2F0" height="32.6211" rx="5" ry="5" style="stroke:#181818;stroke-width:0.5;" width="157.1924" x="1150.8447" y="102.2031"/><text fill="#000000" font-family="sans-serif" font-size="14" lengthAdjust="spacing" textLength="143.1924" x="1157.8447" y="124.3105">CardSelectionManager</text><polygon fill="#181818" points="1212.4409,165.1152,1222.4409,169.1152,1212.4409,173.1152,1216.4409,169.1152" style="stroke:#181818;stroke-width:1.0;"/><line style="stroke:#181818;stroke-width:1.0;" x1="900.563" x2="1218.4409" y1="169.1152" y2="169.1152"/><text fill="#000000" font-family="sans-serif" font-size="13" lengthAdjust="spacing" textLength="182.8188" x="907.563" y="163.8525">Prepare card selection scenario</text><polygon fill="#181818" points="911.563,179.1152,901.563,183.1152,911.563,187.1152,907.563,183.1152" style="stroke:#181818;stroke-width:1.0;"/><line style="stroke:#181818;stroke-width:1.0;stroke-dasharray:2.0,2.0;" x1="905.563" x2="1228.4409" y1="183.1152" y2="183.1152"/><polygon fill="#181818" points="1212.4409,210.4063,1222.4409,214.4063,1212.4409,218.4063,1216.4409,214.4063" style="stroke:#181818;stroke-width:1.0;"/><line style="stroke:#181818;stroke-width:1.0;" x1="900.563" x2="1218.4409" y1="214.4063" y2="214.4063"/><text fill="#FF0000" font-family="sans-serif" font-size="13" font-weight="bold" lengthAdjust="spacing" textLength="182.0571" x="907.563" y="209.1436">exportCardSelectionScenario</text><text fill="#000000" font-family="sans-serif" font-size="13" font-weight="bold" lengthAdjust="spacing" textLength="8.6582" x="1093.2319" y="209.1436">()</text><polygon fill="#181818" points="911.563,241.6973,901.563,245.6973,911.563,249.6973,907.563,245.6973" style="stroke:#181818;stroke-width:1.0;"/><line style="stroke:#181818;stroke-width:1.0;stroke-dasharray:2.0,2.0;" x1="905.563" x2="1228.4409" y1="245.6973" y2="245.6973"/><text fill="#008000" font-family="sans-serif" font-size="13" font-weight="bold" lengthAdjust="spacing" textLength="210.2217" x="917.563" y="240.4346">CardSelectionScenarioJsonString</text><polygon fill="#181818" points="455.9243,272.9883,445.9243,276.9883,455.9243,280.9883,451.9243,276.9883" style="stroke:#181818;stroke-width:1.0;"/><line style="stroke:#181818;stroke-width:1.0;stroke-dasharray:2.0,2.0;" x1="449.9243" x2="894.563" y1="276.9883" y2="276.9883"/><text fill="#008000" font-family="sans-serif" font-size="13" font-weight="bold" lengthAdjust="spacing" textLength="210.2217" x="461.9243" y="271.7256">CardSelectionScenarioJsonString</text><polygon fill="#181818" points="219.5371,304.2793,209.5371,308.2793,219.5371,312.2793,215.5371,308.2793" style="stroke:#181818;stroke-width:1.0;"/><line style="stroke:#181818;stroke-width:1.0;" x1="213.5371" x2="433.9243" y1="308.2793" y2="308.2793"/><text fill="#000000" font-family="sans-serif" font-size="13" lengthAdjust="spacing" textLength="26.0063" x="225.5371" y="303.0166">New</text><rect fill="#E2E2F0" height="32.6211" rx="5" ry="5" style="stroke:#181818;stroke-width:0.5;" width="157.1924" x="51.3447" y="284.9883"/><text fill="#000000" font-family="sans-serif" font-size="14" lengthAdjust="spacing" textLength="143.1924" x="58.3447" y="307.0957">CardSelectionManager</text><polygon fill="#181818" points="145.9409,382.4824,135.9409,386.4824,145.9409,390.4824,141.9409,386.4824" style="stroke:#181818;stroke-width:1.0;"/><line style="stroke:#181818;stroke-width:1.0;" x1="139.9409" x2="433.9243" y1="386.4824" y2="386.4824"/><text fill="#FF0000" font-family="sans-serif" font-size="13" font-weight="bold" lengthAdjust="spacing" textLength="182.7681" x="151.9409" y="346.6377">importCardSelectionScenario</text><text fill="#000000" font-family="sans-serif" font-size="13" font-weight="bold" lengthAdjust="spacing" textLength="4.3291" x="338.3208" y="346.6377">(</text><text fill="#008000" font-family="sans-serif" font-size="13" font-weight="bold" lengthAdjust="spacing" textLength="210.2217" x="180.8354" y="363.9287">CardSelectionScenarioJsonString</text><text fill="#000000" font-family="sans-serif" font-size="13" font-weight="bold" lengthAdjust="spacing" textLength="4.3291" x="151.9409" y="381.2197">)</text><polygon fill="#181818" points="422.9243,396.4824,432.9243,400.4824,422.9243,404.4824,426.9243,400.4824" style="stroke:#181818;stroke-width:1.0;"/><line style="stroke:#181818;stroke-width:1.0;stroke-dasharray:2.0,2.0;" x1="129.9409" x2="428.9243" y1="400.4824" y2="400.4824"/><line style="stroke:#181818;stroke-width:1.0;" x1="432.9243" x2="422.9243" y1="456.7734" y2="452.7734"/><line style="stroke:#181818;stroke-width:1.0;" x1="432.9243" x2="422.9243" y1="456.7734" y2="460.7734"/><line style="stroke:#181818;stroke-width:1.0;stroke-dasharray:2.0,2.0;" x1="28.1724" x2="433.9243" y1="456.7734" y2="456.7734"/><text fill="#000000" font-family="sans-serif" font-size="13" lengthAdjust="spacing" textLength="113.4517" x="35.1724" y="451.5107">Card inserted event</text><polygon fill="#181818" points="145.9409,484.0645,135.9409,488.0645,145.9409,492.0645,141.9409,488.0645" style="stroke:#181818;stroke-width:1.0;"/><line style="stroke:#181818;stroke-width:1.0;" x1="139.9409" x2="433.9243" y1="488.0645" y2="488.0645"/><text fill="#000000" font-family="sans-serif" font-size="13" lengthAdjust="spacing" textLength="99.709" x="151.9409" y="482.8018">Process scenario</text><polygon fill="#181818" points="39.1724,498.0645,29.1724,502.0645,39.1724,506.0645,35.1724,502.0645" style="stroke:#181818;stroke-width:1.0;"/><line style="stroke:#181818;stroke-width:1.0;" x1="33.1724" x2="123.9409" y1="502.0645" y2="502.0645"/><polygon fill="#181818" points="112.9409,512.0645,122.9409,516.0645,112.9409,520.0645,116.9409,516.0645" style="stroke:#181818;stroke-width:1.0;"/><line style="stroke:#181818;stroke-width:1.0;stroke-dasharray:2.0,2.0;" x1="28.1724" x2="118.9409" y1="516.0645" y2="516.0645"/><polygon fill="#181818" points="422.9243,526.0645,432.9243,530.0645,422.9243,534.0645,426.9243,530.0645" style="stroke:#181818;stroke-width:1.0;"/><line style="stroke:#181818;stroke-width:1.0;stroke-dasharray:2.0,2.0;" x1="129.9409" x2="428.9243" y1="530.0645" y2="530.0645"/><polygon fill="#181818" points="145.9409,582.3555,135.9409,586.3555,145.9409,590.3555,141.9409,586.3555" style="stroke:#181818;stroke-width:1.0;"/><line style="stroke:#181818;stroke-width:1.0;" x1="139.9409" x2="433.9243" y1="586.3555" y2="586.3555"/><text fill="#FF0000" font-family="sans-serif" font-size="13" font-weight="bold" lengthAdjust="spacing" textLength="247.8188" x="151.9409" y="581.0928">exportProcessedCardSelectionScenario</text><text fill="#000000" font-family="sans-serif" font-size="13" font-weight="bold" lengthAdjust="spacing" textLength="8.6582" x="403.3716" y="581.0928">()</text><polygon fill="#181818" points="422.9243,613.6465,432.9243,617.6465,422.9243,621.6465,426.9243,617.6465" style="stroke:#181818;stroke-width:1.0;"/><line style="stroke:#181818;stroke-width:1.0;stroke-dasharray:2.0,2.0;" x1="129.9409" x2="428.9243" y1="617.6465" y2="617.6465"/><text fill="#0000FF" font-family="sans-serif" font-size="13" font-weight="bold" lengthAdjust="spacing" textLength="275.9834" x="136.9409" y="612.3838">ProcessedCardSelectionScenarioJsonString</text><polygon fill="#181818" points="878.563,696.8105,888.563,700.8105,878.563,704.8105,882.563,700.8105" style="stroke:#181818;stroke-width:1.0;"/><line style="stroke:#181818;stroke-width:1.0;" x1="444.9243" x2="884.563" y1="700.8105" y2="700.8105"/><text fill="#000000" font-family="sans-serif" font-size="13" lengthAdjust="spacing" textLength="143.7744" x="451.9243" y="643.6748">Execute remote service (</text><text fill="#000000" font-family="sans-serif" font-size="13" lengthAdjust="spacing" textLength="114.5371" x="480.8188" y="660.9658">initialCardContent =</text><text fill="#0000FF" font-family="sans-serif" font-size="13" font-weight="bold" lengthAdjust="spacing" textLength="275.9834" x="598.9678" y="660.9658">ProcessedCardSelectionScenarioJsonString</text><text fill="#000000" font-family="sans-serif" font-size="13" lengthAdjust="spacing" textLength="3.6118" x="874.9512" y="660.9658">,</text><text fill="#000000" font-family="sans-serif" font-size="13" lengthAdjust="spacing" textLength="10.8354" x="480.8188" y="678.2568">...</text><text fill="#000000" font-family="sans-serif" font-size="13" lengthAdjust="spacing" textLength="4.3291" x="451.9243" y="695.5479">)</text><polygon fill="#181818" points="1212.4409,762.6836,1222.4409,766.6836,1212.4409,770.6836,1216.4409,766.6836" style="stroke:#181818;stroke-width:1.0;"/><line style="stroke:#181818;stroke-width:1.0;" x1="900.563" x2="1218.4409" y1="766.6836" y2="766.6836"/><text fill="#FF0000" font-family="sans-serif" font-size="13" font-weight="bold" lengthAdjust="spacing" textLength="248.5298" x="907.563" y="726.8389">importProcessedCardSelectionScenario</text><text fill="#000000" font-family="sans-serif" font-size="13" font-weight="bold" lengthAdjust="spacing" textLength="4.3291" x="1159.7046" y="726.8389">(</text><text fill="#0000FF" font-family="sans-serif" font-size="13" font-weight="bold" lengthAdjust="spacing" textLength="275.9834" x="936.4575" y="744.1299">ProcessedCardSelectionScenarioJsonString</text><text fill="#000000" font-family="sans-serif" font-size="13" font-weight="bold" lengthAdjust="spacing" textLength="4.3291" x="907.563" y="761.4209">)</text><polygon fill="#181818" points="911.563,793.9746,901.563,797.9746,911.563,801.9746,907.563,797.9746" style="stroke:#181818;stroke-width:1.0;"/><line style="stroke:#181818;stroke-width:1.0;stroke-dasharray:2.0,2.0;" x1="905.563" x2="1228.4409" y1="797.9746" y2="797.9746"/><text fill="#000000" font-family="sans-serif" font-size="13" font-weight="bold" lengthAdjust="spacing" textLength="124.9854" x="917.563" y="792.7119">cardSelectionResult</text><line style="stroke:#181818;stroke-width:1.0;" x1="900.563" x2="942.563" y1="829.2656" y2="829.2656"/><line style="stroke:#181818;stroke-width:1.0;" x1="942.563" x2="942.563" y1="829.2656" y2="842.2656"/><line style="stroke:#181818;stroke-width:1.0;" x1="901.563" x2="942.563" y1="842.2656" y2="842.2656"/><polygon fill="#181818" points="911.563,838.2656,901.563,842.2656,911.563,846.2656,907.563,842.2656" style="stroke:#181818;stroke-width:1.0;"/><text fill="#000000" font-family="sans-serif" font-size="13" lengthAdjust="spacing" textLength="141.6226" x="907.563" y="824.0029">process card transaction</text><polygon fill="#181818" points="455.9243,852.2656,445.9243,856.2656,455.9243,860.2656,451.9243,856.2656" style="stroke:#181818;stroke-width:1.0;"/><line style="stroke:#181818;stroke-width:1.0;stroke-dasharray:2.0,2.0;" x1="449.9243" x2="894.563" y1="856.2656" y2="856.2656"/><line style="stroke:#181818;stroke-width:1.0;" x1="432.9243" x2="422.9243" y1="887.5566" y2="883.5566"/><line style="stroke:#181818;stroke-width:1.0;" x1="432.9243" x2="422.9243" y1="887.5566" y2="891.5566"/><line style="stroke:#181818;stroke-width:1.0;stroke-dasharray:2.0,2.0;" x1="23.1724" x2="433.9243" y1="887.5566" y2="887.5566"/><text fill="#000000" font-family="sans-serif" font-size="13" lengthAdjust="spacing" textLength="117.7808" x="30.1724" y="882.2939">Card removed event</text><!--SRC=[fLJ1Zjem4BtxAqRiONUz3TrU4UI2QAkgIrV0aOlN6L6hmOuSGrc9Z-yuSI1XoJRAYWFMUDwRv-VdtC9a0glliwSPBHZB_oYT2Iksi30xdKoDrMZXooDZjxvn-ck-cirNHIjgfzmh3AR29WCGEKXQi1TpWC4AxLPfaGxWvkkZ_p7YT4ggJ6XN8fQOedJAw2UXnGPjoP0gOWsL2qon1IBBKYM51zOGf2K1cbnENwBTUyAhiylDDpnvKUueisokP5QpcQ36lN0OHC7DJxNvxRvPV6MX4iK12myFjMqOmGATLRZ7maHg2bCXbwY5LOPkfWIUAC9uu9pWS_pRtd4vwzaYdRDzb4Mtixex7-TZQL9ZHnQJ60-PiQvXtJ8GZpyNRJ7StNCUffp16ukeuwl07pcjoH-zgIW8NtawZgBAL5gDFav8vstaiEPmMyUxZgXj1qSuN-krwwjzhJa_UyhOyNWaiVvweoYkn98kJmXAarqE4w2uqTCvfzPlrZBR-RJFraZCytE0ckqUxxyCpQg_jgBSrDp7u39oGGKcFRBtakumVf_WVv5fUTUp0yeTcMjnQ-ZFToc9SETlMsdbb4ZzkAdHpXDDFgpfasSU3eThVT_p1PTvxMhdHN1xgcu6cFJ8EdA1-Ivrtk_B0v7sBAIlYA-pGkUY05tvGB04JsaFbTPNuYziVteaDM0Hsdy0]--></g></svg>