<svg xmlns="http://www.w3.org/2000/svg" xmlns:xlink="http://www.w3.org/1999/xlink" contentStyleType="text/css" height="846px" preserveAspectRatio="none" style="width:748px;height:846px;background:#FFFFFF;" version="1.1" viewBox="0 0 748 846" width="748px" zoomAndPan="magnify"><defs/><g><!--class CardSelectionScenario--><g id="elem_CardSelectionScenario"><rect codeLine="120" fill="#E9F7EF" height="141.1055" id="CardSelectionScenario" rx="2.5" ry="2.5" style="stroke:#27AE60;stroke-width:2.0;" width="347.3438" x="230.5" y="7"/><ellipse cx="328.3257" cy="23" fill="#ADD1B2" rx="11" ry="11" style="stroke:#181818;stroke-width:1.0;"/><path d="M331.0913,18.875 Q331.2476,18.6563 331.4351,18.5469 Q331.6226,18.4375 331.8413,18.4375 Q332.2163,18.4375 332.4507,18.7031 Q332.6851,18.9531 332.6851,19.5625 L332.6851,21.0156 Q332.6851,21.625 332.4507,21.8906 Q332.2163,22.1563 331.8413,22.1563 Q331.4976,22.1563 331.2944,21.9531 Q331.0913,21.7656 330.9819,21.25 Q330.9351,20.8906 330.7476,20.7031 Q330.4194,20.3281 329.8101,20.1094 Q329.2007,19.8906 328.5757,19.8906 Q327.8101,19.8906 327.1694,20.2188 Q326.5444,20.5469 326.0444,21.2969 Q325.5601,22.0469 325.5601,23.0781 L325.5601,24.1719 Q325.5601,25.4063 326.4507,26.2344 Q327.3413,27.0469 328.9351,27.0469 Q329.8726,27.0469 330.5288,26.7969 Q330.9194,26.6406 331.3413,26.2031 Q331.6069,25.9375 331.7476,25.8594 Q331.9038,25.7813 332.1069,25.7813 Q332.4351,25.7813 332.6851,26.0469 Q332.9507,26.2969 332.9507,26.6406 Q332.9507,26.9844 332.6069,27.3906 Q332.1069,27.9688 331.3101,28.2969 Q330.2319,28.75 328.9351,28.75 Q327.4194,28.75 326.2163,28.125 Q325.2319,27.625 324.5444,26.5625 Q323.8569,25.4844 323.8569,24.2031 L323.8569,23.0469 Q323.8569,21.7188 324.4663,20.5781 Q325.0913,19.4219 326.1851,18.8125 Q327.2788,18.1875 328.5132,18.1875 Q329.2476,18.1875 329.8882,18.3594 Q330.5444,18.5156 331.0913,18.875 Z " fill="#000000"/><text fill="#000000" font-family="sans-serif" font-size="14" lengthAdjust="spacing" textLength="143.1924" x="348.8257" y="28.7969">CardSelectionScenario</text><line style="stroke:#27AE60;stroke-width:2.0;" x1="231.5" x2="576.8438" y1="39" y2="39"/><text fill="#000000" font-family="sans-serif" font-size="14" font-weight="bold" lengthAdjust="spacing" textLength="171.1582" x="236.5" y="58.1074">multiSelectionProcessing</text><text fill="#000000" font-family="sans-serif" font-size="14" lengthAdjust="spacing" textLength="164.1855" x="407.6582" y="58.1074">: MultiSelectionProcessing</text><text fill="#000000" font-family="sans-serif" font-size="14" font-weight="bold" lengthAdjust="spacing" textLength="102.6689" x="236.5" y="76.7285">channelControl</text><text fill="#000000" font-family="sans-serif" font-size="14" lengthAdjust="spacing" textLength="105.0615" x="339.1689" y="76.7285">: ChannelControl</text><text fill="#000000" font-family="sans-serif" font-size="14" font-weight="bold" lengthAdjust="spacing" textLength="92.6064" x="236.5" y="95.3496">cardSelectors</text><text fill="#000000" font-family="sans-serif" font-size="14" lengthAdjust="spacing" textLength="97.2617" x="329.1064" y="95.3496">: CardSelector[]</text><text fill="#000000" font-family="sans-serif" font-size="14" font-weight="bold" lengthAdjust="spacing" textLength="147.8135" x="236.5" y="113.9707">defaultCardSelections</text><text fill="#000000" font-family="sans-serif" font-size="14" lengthAdjust="spacing" textLength="147.8545" x="384.3135" y="113.9707">: DefaultCardSelection[]</text><text fill="#FF0000" font-family="sans-serif" font-size="14" font-style="italic" lengthAdjust="spacing" textLength="251.3848" x="236.5" y="132.5918">... additional properties are to be ignored</text><line style="stroke:#27AE60;stroke-width:2.0;" x1="231.5" x2="576.8438" y1="140.1055" y2="140.1055"/></g><!--class MultiSelectionProcessing--><g id="elem_MultiSelectionProcessing"><rect codeLine="56" fill="#FEFECE" height="85.2422" id="MultiSelectionProcessing" rx="2.5" ry="2.5" style="stroke:#D4AC0D;stroke-width:2.0;" width="188.4063" x="7" y="35"/><ellipse cx="22" cy="51" fill="#EB937F" rx="11" ry="11" style="stroke:#181818;stroke-width:1.0;"/><path d="M20.8594,51.7969 L20.8594,54.2969 L25.1875,54.2969 L25.1875,53.375 Q25.1875,52.7656 25.4219,52.5 Q25.6719,52.2344 26.0469,52.2344 Q26.4219,52.2344 26.6563,52.5 Q26.8906,52.7656 26.8906,53.375 L26.8906,56 L18.8906,56 Q18.2656,56 18,55.7656 Q17.75,55.5313 17.75,55.1406 Q17.75,54.7656 18.0156,54.5313 Q18.2813,54.2969 18.8906,54.2969 L19.1563,54.2969 L19.1563,47.6406 L18.8906,47.6406 Q18.2656,47.6406 18,47.4063 Q17.75,47.1719 17.75,46.7813 Q17.75,46.4063 18,46.1719 Q18.2656,45.9375 18.8906,45.9375 L26.5156,45.9375 L26.5156,48.5313 Q26.5156,49.1406 26.2813,49.4063 Q26.0625,49.6563 25.6719,49.6563 Q25.2969,49.6563 25.0625,49.4063 Q24.8281,49.1406 24.8281,48.5313 L24.8281,47.6406 L20.8594,47.6406 L20.8594,50.0938 L22.3438,50.0938 Q22.3438,49.4375 22.4688,49.25 Q22.7344,48.8438 23.2031,48.8438 Q23.5781,48.8438 23.8125,49.1094 Q24.0469,49.3594 24.0469,49.9688 L24.0469,51.9375 Q24.0469,52.4844 23.9219,52.6719 Q23.6563,53.0625 23.2031,53.0625 Q22.7344,53.0625 22.4688,52.6563 Q22.3438,52.4688 22.3438,51.7969 L20.8594,51.7969 Z " fill="#000000"/><text fill="#000000" font-family="sans-serif" font-size="14" lengthAdjust="spacing" textLength="156.4063" x="36" y="56.7969">MultiSelectionProcessing</text><line style="stroke:#D4AC0D;stroke-width:2.0;" x1="8" x2="194.4063" y1="67" y2="67"/><text fill="#000000" font-family="sans-serif" font-size="14" lengthAdjust="spacing" textLength="98" x="13" y="86.1074">FIRST_MATCH</text><text fill="#000000" font-family="sans-serif" font-size="14" lengthAdjust="spacing" textLength="101.1582" x="13" y="104.7285">PROCESS_ALL</text><line style="stroke:#D4AC0D;stroke-width:2.0;" x1="8" x2="194.4063" y1="112.2422" y2="112.2422"/></g><!--class ChannelControl--><g id="elem_ChannelControl"><rect codeLine="60" fill="#FEFECE" height="85.2422" id="ChannelControl" rx="2.5" ry="2.5" style="stroke:#D4AC0D;stroke-width:2.0;" width="129.2822" x="612.5" y="35"/><ellipse cx="627.5" cy="51" fill="#EB937F" rx="11" ry="11" style="stroke:#181818;stroke-width:1.0;"/><path d="M626.3594,51.7969 L626.3594,54.2969 L630.6875,54.2969 L630.6875,53.375 Q630.6875,52.7656 630.9219,52.5 Q631.1719,52.2344 631.5469,52.2344 Q631.9219,52.2344 632.1563,52.5 Q632.3906,52.7656 632.3906,53.375 L632.3906,56 L624.3906,56 Q623.7656,56 623.5,55.7656 Q623.25,55.5313 623.25,55.1406 Q623.25,54.7656 623.5156,54.5313 Q623.7813,54.2969 624.3906,54.2969 L624.6563,54.2969 L624.6563,47.6406 L624.3906,47.6406 Q623.7656,47.6406 623.5,47.4063 Q623.25,47.1719 623.25,46.7813 Q623.25,46.4063 623.5,46.1719 Q623.7656,45.9375 624.3906,45.9375 L632.0156,45.9375 L632.0156,48.5313 Q632.0156,49.1406 631.7813,49.4063 Q631.5625,49.6563 631.1719,49.6563 Q630.7969,49.6563 630.5625,49.4063 Q630.3281,49.1406 630.3281,48.5313 L630.3281,47.6406 L626.3594,47.6406 L626.3594,50.0938 L627.8438,50.0938 Q627.8438,49.4375 627.9688,49.25 Q628.2344,48.8438 628.7031,48.8438 Q629.0781,48.8438 629.3125,49.1094 Q629.5469,49.3594 629.5469,49.9688 L629.5469,51.9375 Q629.5469,52.4844 629.4219,52.6719 Q629.1563,53.0625 628.7031,53.0625 Q628.2344,53.0625 627.9688,52.6563 Q627.8438,52.4688 627.8438,51.7969 L626.3594,51.7969 Z " fill="#000000"/><text fill="#000000" font-family="sans-serif" font-size="14" lengthAdjust="spacing" textLength="97.2822" x="641.5" y="56.7969">ChannelControl</text><line style="stroke:#D4AC0D;stroke-width:2.0;" x1="613.5" x2="740.7822" y1="67" y2="67"/><text fill="#000000" font-family="sans-serif" font-size="14" lengthAdjust="spacing" textLength="84.8135" x="618.5" y="86.1074">KEEP_OPEN</text><text fill="#000000" font-family="sans-serif" font-size="14" lengthAdjust="spacing" textLength="101.1377" x="618.5" y="104.7285">CLOSE_AFTER</text><line style="stroke:#D4AC0D;stroke-width:2.0;" x1="613.5" x2="740.7822" y1="112.2422" y2="112.2422"/></g><!--class CardSelector--><g id="elem_CardSelector"><rect codeLine="121" fill="#E9F7EF" height="141.1055" id="CardSelector" rx="2.5" ry="2.5" style="stroke:#27AE60;stroke-width:2.0;" width="312.2754" x="76" y="208"/><ellipse cx="187.0361" cy="224" fill="#ADD1B2" rx="11" ry="11" style="stroke:#181818;stroke-width:1.0;"/><path d="M189.8018,219.875 Q189.958,219.6563 190.1455,219.5469 Q190.333,219.4375 190.5518,219.4375 Q190.9268,219.4375 191.1611,219.7031 Q191.3955,219.9531 191.3955,220.5625 L191.3955,222.0156 Q191.3955,222.625 191.1611,222.8906 Q190.9268,223.1563 190.5518,223.1563 Q190.208,223.1563 190.0049,222.9531 Q189.8018,222.7656 189.6924,222.25 Q189.6455,221.8906 189.458,221.7031 Q189.1299,221.3281 188.5205,221.1094 Q187.9111,220.8906 187.2861,220.8906 Q186.5205,220.8906 185.8799,221.2188 Q185.2549,221.5469 184.7549,222.2969 Q184.2705,223.0469 184.2705,224.0781 L184.2705,225.1719 Q184.2705,226.4063 185.1611,227.2344 Q186.0518,228.0469 187.6455,228.0469 Q188.583,228.0469 189.2393,227.7969 Q189.6299,227.6406 190.0518,227.2031 Q190.3174,226.9375 190.458,226.8594 Q190.6143,226.7813 190.8174,226.7813 Q191.1455,226.7813 191.3955,227.0469 Q191.6611,227.2969 191.6611,227.6406 Q191.6611,227.9844 191.3174,228.3906 Q190.8174,228.9688 190.0205,229.2969 Q188.9424,229.75 187.6455,229.75 Q186.1299,229.75 184.9268,229.125 Q183.9424,228.625 183.2549,227.5625 Q182.5674,226.4844 182.5674,225.2031 L182.5674,224.0469 Q182.5674,222.7188 183.1768,221.5781 Q183.8018,220.4219 184.8955,219.8125 Q185.9893,219.1875 187.2236,219.1875 Q187.958,219.1875 188.5986,219.3594 Q189.2549,219.5156 189.8018,219.875 Z " fill="#000000"/><text fill="#000000" font-family="sans-serif" font-size="14" lengthAdjust="spacing" textLength="81.7031" x="207.5361" y="229.7969">CardSelector</text><line style="stroke:#27AE60;stroke-width:2.0;" x1="77" x2="387.2754" y1="240" y2="240"/><text fill="#000000" font-family="sans-serif" font-size="14" font-weight="bold" lengthAdjust="spacing" textLength="139.2549" x="82" y="259.1074">logicalProtocolName</text><text fill="#000000" font-family="sans-serif" font-size="14" lengthAdjust="spacing" textLength="52.1377" x="221.2549" y="259.1074">: String?</text><text fill="#000000" font-family="sans-serif" font-size="14" font-weight="bold" lengthAdjust="spacing" textLength="133.0342" x="82" y="277.7285">powerOnDataRegex</text><text fill="#000000" font-family="sans-serif" font-size="14" lengthAdjust="spacing" textLength="52.1377" x="215.0342" y="277.7285">: String?</text><text fill="#000000" font-family="sans-serif" font-size="14" font-weight="bold" lengthAdjust="spacing" textLength="20.2275" x="82" y="296.3496">aid</text><text fill="#000000" font-family="sans-serif" font-size="14" lengthAdjust="spacing" textLength="52.1377" x="102.2275" y="296.3496">: String?</text><text fill="#000000" font-family="sans-serif" font-size="14" font-weight="bold" lengthAdjust="spacing" textLength="98.0479" x="82" y="314.9707">fileOccurrence</text><text fill="#000000" font-family="sans-serif" font-size="14" lengthAdjust="spacing" textLength="110.4824" x="180.0479" y="314.9707">: FileOccurrence?</text><text fill="#000000" font-family="sans-serif" font-size="14" font-weight="bold" lengthAdjust="spacing" textLength="146.9863" x="82" y="333.5918">fileControlInformation</text><text fill="#000000" font-family="sans-serif" font-size="14" lengthAdjust="spacing" textLength="153.2891" x="228.9863" y="333.5918">: FileControlInformation?</text><line style="stroke:#27AE60;stroke-width:2.0;" x1="77" x2="387.2754" y1="341.1055" y2="341.1055"/></g><!--class FileOccurrence--><g id="elem_FileOccurrence"><rect codeLine="71" fill="#FEFECE" height="122.4844" id="FileOccurrence" rx="2.5" ry="2.5" style="stroke:#D4AC0D;stroke-width:2.0;" width="126.917" x="25.5" y="409"/><ellipse cx="40.5" cy="425" fill="#EB937F" rx="11" ry="11" style="stroke:#181818;stroke-width:1.0;"/><path d="M39.3594,425.7969 L39.3594,428.2969 L43.6875,428.2969 L43.6875,427.375 Q43.6875,426.7656 43.9219,426.5 Q44.1719,426.2344 44.5469,426.2344 Q44.9219,426.2344 45.1563,426.5 Q45.3906,426.7656 45.3906,427.375 L45.3906,430 L37.3906,430 Q36.7656,430 36.5,429.7656 Q36.25,429.5313 36.25,429.1406 Q36.25,428.7656 36.5156,428.5313 Q36.7813,428.2969 37.3906,428.2969 L37.6563,428.2969 L37.6563,421.6406 L37.3906,421.6406 Q36.7656,421.6406 36.5,421.4063 Q36.25,421.1719 36.25,420.7813 Q36.25,420.4063 36.5,420.1719 Q36.7656,419.9375 37.3906,419.9375 L45.0156,419.9375 L45.0156,422.5313 Q45.0156,423.1406 44.7813,423.4063 Q44.5625,423.6563 44.1719,423.6563 Q43.7969,423.6563 43.5625,423.4063 Q43.3281,423.1406 43.3281,422.5313 L43.3281,421.6406 L39.3594,421.6406 L39.3594,424.0938 L40.8438,424.0938 Q40.8438,423.4375 40.9688,423.25 Q41.2344,422.8438 41.7031,422.8438 Q42.0781,422.8438 42.3125,423.1094 Q42.5469,423.3594 42.5469,423.9688 L42.5469,425.9375 Q42.5469,426.4844 42.4219,426.6719 Q42.1563,427.0625 41.7031,427.0625 Q41.2344,427.0625 40.9688,426.6563 Q40.8438,426.4688 40.8438,425.7969 L39.3594,425.7969 Z " fill="#000000"/><text fill="#000000" font-family="sans-serif" font-size="14" lengthAdjust="spacing" textLength="94.917" x="54.5" y="430.7969">FileOccurrence</text><line style="stroke:#D4AC0D;stroke-width:2.0;" x1="26.5" x2="151.417" y1="441" y2="441"/><text fill="#000000" font-family="sans-serif" font-size="14" lengthAdjust="spacing" textLength="40.4414" x="31.5" y="460.1074">FIRST</text><text fill="#000000" font-family="sans-serif" font-size="14" lengthAdjust="spacing" textLength="35.0137" x="31.5" y="478.7285">LAST</text><text fill="#000000" font-family="sans-serif" font-size="14" lengthAdjust="spacing" textLength="37.3379" x="31.5" y="497.3496">NEXT</text><text fill="#000000" font-family="sans-serif" font-size="14" lengthAdjust="spacing" textLength="72.3516" x="31.5" y="515.9707">PREVIOUS</text><line style="stroke:#D4AC0D;stroke-width:2.0;" x1="26.5" x2="151.417" y1="523.4844" y2="523.4844"/></g><!--class FileControlInformation--><g id="elem_FileControlInformation"><rect codeLine="77" fill="#FEFECE" height="122.4844" id="FileControlInformation" rx="2.5" ry="2.5" style="stroke:#D4AC0D;stroke-width:2.0;" width="169.7236" x="188" y="409"/><ellipse cx="203" cy="425" fill="#EB937F" rx="11" ry="11" style="stroke:#181818;stroke-width:1.0;"/><path d="M201.8594,425.7969 L201.8594,428.2969 L206.1875,428.2969 L206.1875,427.375 Q206.1875,426.7656 206.4219,426.5 Q206.6719,426.2344 207.0469,426.2344 Q207.4219,426.2344 207.6563,426.5 Q207.8906,426.7656 207.8906,427.375 L207.8906,430 L199.8906,430 Q199.2656,430 199,429.7656 Q198.75,429.5313 198.75,429.1406 Q198.75,428.7656 199.0156,428.5313 Q199.2813,428.2969 199.8906,428.2969 L200.1563,428.2969 L200.1563,421.6406 L199.8906,421.6406 Q199.2656,421.6406 199,421.4063 Q198.75,421.1719 198.75,420.7813 Q198.75,420.4063 199,420.1719 Q199.2656,419.9375 199.8906,419.9375 L207.5156,419.9375 L207.5156,422.5313 Q207.5156,423.1406 207.2813,423.4063 Q207.0625,423.6563 206.6719,423.6563 Q206.2969,423.6563 206.0625,423.4063 Q205.8281,423.1406 205.8281,422.5313 L205.8281,421.6406 L201.8594,421.6406 L201.8594,424.0938 L203.3438,424.0938 Q203.3438,423.4375 203.4688,423.25 Q203.7344,422.8438 204.2031,422.8438 Q204.5781,422.8438 204.8125,423.1094 Q205.0469,423.3594 205.0469,423.9688 L205.0469,425.9375 Q205.0469,426.4844 204.9219,426.6719 Q204.6563,427.0625 204.2031,427.0625 Q203.7344,427.0625 203.4688,426.6563 Q203.3438,426.4688 203.3438,425.7969 L201.8594,425.7969 Z " fill="#000000"/><text fill="#000000" font-family="sans-serif" font-size="14" lengthAdjust="spacing" textLength="137.7236" x="217" y="430.7969">FileControlInformation</text><line style="stroke:#D4AC0D;stroke-width:2.0;" x1="189" x2="356.7236" y1="441" y2="441"/><text fill="#000000" font-family="sans-serif" font-size="14" lengthAdjust="spacing" textLength="22.5518" x="194" y="460.1074">FCI</text><text fill="#000000" font-family="sans-serif" font-size="14" lengthAdjust="spacing" textLength="28" x="194" y="478.7285">FCP</text><text fill="#000000" font-family="sans-serif" font-size="14" lengthAdjust="spacing" textLength="30.3242" x="194" y="497.3496">FMD</text><text fill="#000000" font-family="sans-serif" font-size="14" lengthAdjust="spacing" textLength="106.5859" x="194" y="515.9707">NO_RESPONSE</text><line style="stroke:#D4AC0D;stroke-width:2.0;" x1="189" x2="356.7236" y1="523.4844" y2="523.4844"/></g><!--class DefaultCardSelection--><g id="elem_DefaultCardSelection"><rect codeLine="122" fill="#E9F7EF" height="66.6211" id="DefaultCardSelection" rx="2.5" ry="2.5" style="stroke:#27AE60;stroke-width:2.0;" width="306.9092" x="423.5" y="245"/><ellipse cx="506.5566" cy="261" fill="#ADD1B2" rx="11" ry="11" style="stroke:#181818;stroke-width:1.0;"/><path d="M509.3223,256.875 Q509.4785,256.6563 509.666,256.5469 Q509.8535,256.4375 510.0723,256.4375 Q510.4473,256.4375 510.6816,256.7031 Q510.916,256.9531 510.916,257.5625 L510.916,259.0156 Q510.916,259.625 510.6816,259.8906 Q510.4473,260.1563 510.0723,260.1563 Q509.7285,260.1563 509.5254,259.9531 Q509.3223,259.7656 509.2129,259.25 Q509.166,258.8906 508.9785,258.7031 Q508.6504,258.3281 508.041,258.1094 Q507.4316,257.8906 506.8066,257.8906 Q506.041,257.8906 505.4004,258.2188 Q504.7754,258.5469 504.2754,259.2969 Q503.791,260.0469 503.791,261.0781 L503.791,262.1719 Q503.791,263.4063 504.6816,264.2344 Q505.5723,265.0469 507.166,265.0469 Q508.1035,265.0469 508.7598,264.7969 Q509.1504,264.6406 509.5723,264.2031 Q509.8379,263.9375 509.9785,263.8594 Q510.1348,263.7813 510.3379,263.7813 Q510.666,263.7813 510.916,264.0469 Q511.1816,264.2969 511.1816,264.6406 Q511.1816,264.9844 510.8379,265.3906 Q510.3379,265.9688 509.541,266.2969 Q508.4629,266.75 507.166,266.75 Q505.6504,266.75 504.4473,266.125 Q503.4629,265.625 502.7754,264.5625 Q502.0879,263.4844 502.0879,262.2031 L502.0879,261.0469 Q502.0879,259.7188 502.6973,258.5781 Q503.3223,257.4219 504.416,256.8125 Q505.5098,256.1875 506.7441,256.1875 Q507.4785,256.1875 508.1191,256.3594 Q508.7754,256.5156 509.3223,256.875 Z " fill="#000000"/><text fill="#000000" font-family="sans-serif" font-size="14" lengthAdjust="spacing" textLength="132.2959" x="527.0566" y="266.7969">DefaultCardSelection</text><line style="stroke:#27AE60;stroke-width:2.0;" x1="424.5" x2="729.4092" y1="277" y2="277"/><text fill="#000000" font-family="sans-serif" font-size="14" font-weight="bold" lengthAdjust="spacing" textLength="147.0479" x="429.5" y="296.1074">cardSelectionRequest</text><text fill="#000000" font-family="sans-serif" font-size="14" lengthAdjust="spacing" textLength="147.8613" x="576.5479" y="296.1074">: CardSelectionRequest</text><line style="stroke:#27AE60;stroke-width:2.0;" x1="424.5" x2="729.4092" y1="303.6211" y2="303.6211"/></g><!--class CardSelectionRequest--><g id="elem_CardSelectionRequest"><rect codeLine="123" fill="#E9F7EF" height="85.2422" id="CardSelectionRequest" rx="2.5" ry="2.5" style="stroke:#27AE60;stroke-width:2.0;" width="285.082" x="434.5" y="427.5"/><ellipse cx="502.75" cy="443.5" fill="#ADD1B2" rx="11" ry="11" style="stroke:#181818;stroke-width:1.0;"/><path d="M505.5156,439.375 Q505.6719,439.1563 505.8594,439.0469 Q506.0469,438.9375 506.2656,438.9375 Q506.6406,438.9375 506.875,439.2031 Q507.1094,439.4531 507.1094,440.0625 L507.1094,441.5156 Q507.1094,442.125 506.875,442.3906 Q506.6406,442.6563 506.2656,442.6563 Q505.9219,442.6563 505.7188,442.4531 Q505.5156,442.2656 505.4063,441.75 Q505.3594,441.3906 505.1719,441.2031 Q504.8438,440.8281 504.2344,440.6094 Q503.625,440.3906 503,440.3906 Q502.2344,440.3906 501.5938,440.7188 Q500.9688,441.0469 500.4688,441.7969 Q499.9844,442.5469 499.9844,443.5781 L499.9844,444.6719 Q499.9844,445.9063 500.875,446.7344 Q501.7656,447.5469 503.3594,447.5469 Q504.2969,447.5469 504.9531,447.2969 Q505.3438,447.1406 505.7656,446.7031 Q506.0313,446.4375 506.1719,446.3594 Q506.3281,446.2813 506.5313,446.2813 Q506.8594,446.2813 507.1094,446.5469 Q507.375,446.7969 507.375,447.1406 Q507.375,447.4844 507.0313,447.8906 Q506.5313,448.4688 505.7344,448.7969 Q504.6563,449.25 503.3594,449.25 Q501.8438,449.25 500.6406,448.625 Q499.6563,448.125 498.9688,447.0625 Q498.2813,445.9844 498.2813,444.7031 L498.2813,443.5469 Q498.2813,442.2188 498.8906,441.0781 Q499.5156,439.9219 500.6094,439.3125 Q501.7031,438.6875 502.9375,438.6875 Q503.6719,438.6875 504.3125,438.8594 Q504.9688,439.0156 505.5156,439.375 Z " fill="#000000"/><text fill="#000000" font-family="sans-serif" font-size="14" lengthAdjust="spacing" textLength="140.082" x="523.25" y="449.2969">CardSelectionRequest</text><line style="stroke:#27AE60;stroke-width:2.0;" x1="435.5" x2="718.582" y1="459.5" y2="459.5"/><text fill="#000000" font-family="sans-serif" font-size="14" font-weight="bold" lengthAdjust="spacing" textLength="84.8066" x="440.5" y="478.6074">cardRequest</text><text fill="#000000" font-family="sans-serif" font-size="14" lengthAdjust="spacing" textLength="98.0547" x="525.3066" y="478.6074">: CardRequest?</text><text fill="#000000" font-family="sans-serif" font-size="14" font-weight="bold" lengthAdjust="spacing" textLength="220.9512" x="440.5" y="497.2285">successfulSelectionStatusWords</text><text fill="#000000" font-family="sans-serif" font-size="14" lengthAdjust="spacing" textLength="52.1309" x="661.4512" y="497.2285">: String[]</text><line style="stroke:#27AE60;stroke-width:2.0;" x1="435.5" x2="718.582" y1="504.7422" y2="504.7422"/></g><!--class CardRequest--><g id="elem_CardRequest"><rect codeLine="124" fill="#E9F7EF" height="85.2422" id="CardRequest" rx="2.5" ry="2.5" style="stroke:#27AE60;stroke-width:2.0;" width="289.7373" x="432" y="591"/><ellipse cx="531.374" cy="607" fill="#ADD1B2" rx="11" ry="11" style="stroke:#181818;stroke-width:1.0;"/><path d="M534.1396,602.875 Q534.2959,602.6563 534.4834,602.5469 Q534.6709,602.4375 534.8896,602.4375 Q535.2646,602.4375 535.499,602.7031 Q535.7334,602.9531 535.7334,603.5625 L535.7334,605.0156 Q535.7334,605.625 535.499,605.8906 Q535.2646,606.1563 534.8896,606.1563 Q534.5459,606.1563 534.3428,605.9531 Q534.1396,605.7656 534.0303,605.25 Q533.9834,604.8906 533.7959,604.7031 Q533.4678,604.3281 532.8584,604.1094 Q532.249,603.8906 531.624,603.8906 Q530.8584,603.8906 530.2178,604.2188 Q529.5928,604.5469 529.0928,605.2969 Q528.6084,606.0469 528.6084,607.0781 L528.6084,608.1719 Q528.6084,609.4063 529.499,610.2344 Q530.3896,611.0469 531.9834,611.0469 Q532.9209,611.0469 533.5771,610.7969 Q533.9678,610.6406 534.3896,610.2031 Q534.6553,609.9375 534.7959,609.8594 Q534.9521,609.7813 535.1553,609.7813 Q535.4834,609.7813 535.7334,610.0469 Q535.999,610.2969 535.999,610.6406 Q535.999,610.9844 535.6553,611.3906 Q535.1553,611.9688 534.3584,612.2969 Q533.2803,612.75 531.9834,612.75 Q530.4678,612.75 529.2646,612.125 Q528.2803,611.625 527.5928,610.5625 Q526.9053,609.4844 526.9053,608.2031 L526.9053,607.0469 Q526.9053,605.7188 527.5146,604.5781 Q528.1396,603.4219 529.2334,602.8125 Q530.3271,602.1875 531.5615,602.1875 Q532.2959,602.1875 532.9365,602.3594 Q533.5928,602.5156 534.1396,602.875 Z " fill="#000000"/><text fill="#000000" font-family="sans-serif" font-size="14" lengthAdjust="spacing" textLength="82.4893" x="551.874" y="612.7969">CardRequest</text><line style="stroke:#27AE60;stroke-width:2.0;" x1="433" x2="720.7373" y1="623" y2="623"/><text fill="#000000" font-family="sans-serif" font-size="14" font-weight="bold" lengthAdjust="spacing" textLength="96.4619" x="438" y="642.1074">apduRequests</text><text fill="#000000" font-family="sans-serif" font-size="14" lengthAdjust="spacing" textLength="100.3994" x="534.4619" y="642.1074">: ApduRequest[]</text><text fill="#000000" font-family="sans-serif" font-size="14" font-weight="bold" lengthAdjust="spacing" textLength="218.5791" x="438" y="660.7285">stopOnUnsuccessfulStatusWord</text><text fill="#000000" font-family="sans-serif" font-size="14" lengthAdjust="spacing" textLength="59.1582" x="656.5791" y="660.7285">: Boolean</text><line style="stroke:#27AE60;stroke-width:2.0;" x1="433" x2="720.7373" y1="668.2422" y2="668.2422"/></g><!--class ApduRequest--><g id="elem_ApduRequest"><rect codeLine="125" fill="#E9F7EF" height="103.8633" id="ApduRequest" rx="2.5" ry="2.5" style="stroke:#27AE60;stroke-width:2.0;" width="222.8408" x="465.5" y="736"/><ellipse cx="530.25" cy="752" fill="#ADD1B2" rx="11" ry="11" style="stroke:#181818;stroke-width:1.0;"/><path d="M533.0156,747.875 Q533.1719,747.6563 533.3594,747.5469 Q533.5469,747.4375 533.7656,747.4375 Q534.1406,747.4375 534.375,747.7031 Q534.6094,747.9531 534.6094,748.5625 L534.6094,750.0156 Q534.6094,750.625 534.375,750.8906 Q534.1406,751.1563 533.7656,751.1563 Q533.4219,751.1563 533.2188,750.9531 Q533.0156,750.7656 532.9063,750.25 Q532.8594,749.8906 532.6719,749.7031 Q532.3438,749.3281 531.7344,749.1094 Q531.125,748.8906 530.5,748.8906 Q529.7344,748.8906 529.0938,749.2188 Q528.4688,749.5469 527.9688,750.2969 Q527.4844,751.0469 527.4844,752.0781 L527.4844,753.1719 Q527.4844,754.4063 528.375,755.2344 Q529.2656,756.0469 530.8594,756.0469 Q531.7969,756.0469 532.4531,755.7969 Q532.8438,755.6406 533.2656,755.2031 Q533.5313,754.9375 533.6719,754.8594 Q533.8281,754.7813 534.0313,754.7813 Q534.3594,754.7813 534.6094,755.0469 Q534.875,755.2969 534.875,755.6406 Q534.875,755.9844 534.5313,756.3906 Q534.0313,756.9688 533.2344,757.2969 Q532.1563,757.75 530.8594,757.75 Q529.3438,757.75 528.1406,757.125 Q527.1563,756.625 526.4688,755.5625 Q525.7813,754.4844 525.7813,753.2031 L525.7813,752.0469 Q525.7813,750.7188 526.3906,749.5781 Q527.0156,748.4219 528.1094,747.8125 Q529.2031,747.1875 530.4375,747.1875 Q531.1719,747.1875 531.8125,747.3594 Q532.4688,747.5156 533.0156,747.875 Z " fill="#000000"/><text fill="#000000" font-family="sans-serif" font-size="14" lengthAdjust="spacing" textLength="84.8408" x="550.75" y="757.7969">ApduRequest</text><line style="stroke:#27AE60;stroke-width:2.0;" x1="466.5" x2="687.3408" y1="768" y2="768"/><text fill="#000000" font-family="sans-serif" font-size="14" font-weight="bold" lengthAdjust="spacing" textLength="33.4414" x="471.5" y="787.1074">apdu</text><text fill="#000000" font-family="sans-serif" font-size="14" lengthAdjust="spacing" textLength="44.3516" x="504.9414" y="787.1074">: String</text><text fill="#000000" font-family="sans-serif" font-size="14" font-weight="bold" lengthAdjust="spacing" textLength="158.71" x="471.5" y="805.7285">successfulStatusWords</text><text fill="#000000" font-family="sans-serif" font-size="14" lengthAdjust="spacing" textLength="52.1309" x="630.21" y="805.7285">: String[]</text><text fill="#000000" font-family="sans-serif" font-size="14" font-weight="bold" lengthAdjust="spacing" textLength="25.6553" x="471.5" y="824.3496">info</text><text fill="#000000" font-family="sans-serif" font-size="14" lengthAdjust="spacing" textLength="52.1377" x="497.1553" y="824.3496">: String?</text><line style="stroke:#27AE60;stroke-width:2.0;" x1="466.5" x2="687.3408" y1="831.8633" y2="831.8633"/></g><!--link MultiSelectionProcessing to CardSelectionScenario--><g id="link_MultiSelectionProcessing_CardSelectionScenario"><path codeLine="102" d="M195.096,77.5 C206.792,77.5 206.489,77.5 218.185,77.5 " fill="none" id="MultiSelectionProcessing-to-CardSelectionScenario" style="stroke:#3498DB;stroke-width:2.0;"/><polygon fill="#3498DB" points="230.185,77.5,224.185,73.5,218.185,77.5,224.185,81.5,230.185,77.5" style="stroke:#3498DB;stroke-width:2.0;"/><text fill="#000000" font-family="sans-serif" font-size="13" lengthAdjust="spacing" textLength="7.23" x="203.4756" y="73.7999">1</text></g><!--reverse link CardSelectionScenario to ChannelControl--><g id="link_CardSelectionScenario_ChannelControl"><path codeLine="103" d="M589.558,77.5 C601.082,77.5 600.605,77.5 612.129,77.5 " fill="none" id="CardSelectionScenario-backto-ChannelControl" style="stroke:#3498DB;stroke-width:2.0;"/><polygon fill="#3498DB" points="577.558,77.5,583.558,81.5,589.558,77.5,583.558,73.5,577.558,77.5" style="stroke:#3498DB;stroke-width:2.0;"/><text fill="#000000" font-family="sans-serif" font-size="13" lengthAdjust="spacing" textLength="7.23" x="597.2206" y="73.5483">1</text></g><!--reverse link CardSelectionScenario to CardSelector--><g id="link_CardSelectionScenario_CardSelector"><path codeLine="104" d="M335.9958,157.1796 C319.2358,176.5696 308.881,188.551 292.123,207.939 " fill="none" id="CardSelectionScenario-backto-CardSelector" style="stroke:#3498DB;stroke-width:2.0;"/><polygon fill="#3498DB" points="343.843,148.101,336.8932,150.0246,335.9958,157.1796,342.9456,155.256,343.843,148.101" style="stroke:#3498DB;stroke-width:2.0;"/><text fill="#000000" font-family="sans-serif" font-size="13" lengthAdjust="spacing" textLength="19.5127" x="278.3557" y="196.8237">1..*</text></g><!--reverse link CardSelectionScenario to DefaultCardSelection--><g id="link_CardSelectionScenario_DefaultCardSelection"><path codeLine="105" d="M472.3801,157.1572 C500.9291,189.9962 525.77,218.571 548.533,244.754 " fill="none" id="CardSelectionScenario-backto-DefaultCardSelection" style="stroke:#3498DB;stroke-width:2.0;"/><polygon fill="#3498DB" points="464.507,148.101,465.4248,155.2535,472.3801,157.1572,471.4623,150.0047,464.507,148.101" style="stroke:#3498DB;stroke-width:2.0;"/><text fill="#000000" font-family="sans-serif" font-size="13" lengthAdjust="spacing" textLength="19.5127" x="522.3531" y="233.793">1..*</text></g><!--reverse link CardSelector to FileOccurrence--><g id="link_CardSelector_FileOccurrence"><path codeLine="107" d="M172.1331,358.834 C157.4011,378.358 148.745,389.827 134.466,408.75 " fill="none" id="CardSelector-backto-FileOccurrence" style="stroke:#3498DB;stroke-width:2.0;stroke-dasharray:7.0,7.0;"/><polygon fill="#3498DB" points="179.361,349.255,172.554,351.6352,172.1331,358.834,178.94,356.4538,179.361,349.255" style="stroke:#3498DB;stroke-width:2.0;"/><text fill="#000000" font-family="sans-serif" font-size="13" lengthAdjust="spacing" textLength="21.6836" x="117.5533" y="397.7023">0..1</text></g><!--reverse link CardSelector to FileControlInformation--><g id="link_CardSelector_FileControlInformation"><path codeLine="108" d="M249.6295,360.9836 C253.8535,380.5076 255.87,389.827 259.964,408.75 " fill="none" id="CardSelector-backto-FileControlInformation" style="stroke:#3498DB;stroke-width:2.0;stroke-dasharray:7.0,7.0;"/><polygon fill="#3498DB" points="247.092,349.255,244.4512,355.9652,249.6295,360.9836,252.2703,354.2735,247.092,349.255" style="stroke:#3498DB;stroke-width:2.0;"/><text fill="#000000" font-family="sans-serif" font-size="13" lengthAdjust="spacing" textLength="21.6836" x="236.2981" y="397.7023">0..1</text></g><!--reverse link DefaultCardSelection to CardSelectionRequest--><g id="link_DefaultCardSelection_CardSelectionRequest"><path codeLine="110" d="M577,324.076 C577,355.929 577,392.565 577,427.242 " fill="none" id="DefaultCardSelection-backto-CardSelectionRequest" style="stroke:#3498DB;stroke-width:2.0;"/><polygon fill="#3498DB" points="577,312.076,573,318.076,577,324.076,581,318.076,577,312.076" style="stroke:#3498DB;stroke-width:2.0;"/><text fill="#000000" font-family="sans-serif" font-size="13" lengthAdjust="spacing" textLength="7.23" x="569.454" y="416.105">1</text></g><!--reverse link CardSelectionRequest to CardRequest--><g id="link_CardSelectionRequest_CardRequest"><path codeLine="112" d="M577,524.59 C577,548.609 577,566.728 577,590.77 " fill="none" id="CardSelectionRequest-backto-CardRequest" style="stroke:#3498DB;stroke-width:2.0;stroke-dasharray:7.0,7.0;"/><polygon fill="#3498DB" points="577,512.59,573,518.59,577,524.59,581,518.59,577,512.59" style="stroke:#3498DB;stroke-width:2.0;"/><text fill="#000000" font-family="sans-serif" font-size="13" lengthAdjust="spacing" textLength="21.6836" x="554.402" y="579.6374">0..1</text></g><!--reverse link CardRequest to ApduRequest--><g id="link_CardRequest_ApduRequest"><path codeLine="114" d="M577,688.171 C577,706.603 577,716.454 577,735.862 " fill="none" id="CardRequest-backto-ApduRequest" style="stroke:#3498DB;stroke-width:2.0;"/><polygon fill="#3498DB" points="577,676.171,573,682.171,577,688.171,581,682.171,577,676.171" style="stroke:#3498DB;stroke-width:2.0;"/><text fill="#000000" font-family="sans-serif" font-size="13" lengthAdjust="spacing" textLength="19.5127" x="556.7686" y="724.7708">1..*</text></g><!--SRC=[ZLPHR-8u47xFh_1r7oeXGLkWIwcwNGN7sKLB2IBqxghJ2NaJ0r6DdRMTuwhJ_lTpGXAS4ChoGZp-vll6uvb9Bi6dJs3n5JqX_M1Pbv0db2H2WaZAX4WG4d0FDah5ylxgQgEsDE2KYu27H7O2lhrQYIk5lrE2atP8si7Uky6a7sMqPksOOdLb_HQILSG8WCilS_Ho0zmxT-WEQ-OkSBjkp-tNp3s0Rj40rT5zu0oSaUFKpBS0sj1rkZNpHp1oO0yE3FDaFFq6UltXdJCohCy-0js1ZJvUw-I0TXluwetglAWDLY3ax5A17HUlO1Uf3M1a1_uXGaQS0Ru2-gnC9LkgtIpv6h4O2xm5KX51k7gBYJtY8YG2fXa57-oX0nst4JYk04TzUu1k6u6mokWuDwDk8n1LW6Wqx6dfx7newgJn6bwGOYdt-CKc2buPaHAOjBOGV6TkQQONGYdV7R7Wu7KjUCB2NDb5BeAeMIo7E7qRNZkQSax2CtmF3uA4Zu-Qra4EWk_GbaWqwEiwi3QHBlJ2U4YJLfqb8gRah72SmJBjFeBku5tj0_WEzVksKyYNzae4tsboNZy5PUSPkRVkw5tr0fhNUgwTMolANmGXxApqEaLbsaDtWDntjKjitbEvU66kgx_zYlXRfcthEaBdj3De5_RGhIdzLbNMqdecGc-wGDD5DXM3b0j0B4AVK18etTz-G1WM4GV_MK3_MgrjGbLKRiy43tGlH6pTQjs3fnDxkMkmmOmH2ZbJWjFK0LOi1QpKvq9cACFmrzyvIaykhEKgmMPefs4Zzth8XlfzMlqFqMEdqm4u3ACKW2c81O-9K94UUbWGe3ZuJe0UvLp3hPyMOSdsv07pxBZZkRzOFjaB-3LRp-OUHBw_j2UJWg5wujpl6qApfJT3qsm59vwFbhQxG7FjLRyJFIgAgw1y7GMOwZ0KroURuYr94-0heKFwd8DYlYF2OmvMU4xMvDzZ18x2O-CgeiGBWaG8meACrgrOJ5n-c35RSR75QMOA_F7Evo8HLJepWTdJnCuVfkZFHPvCzFlOU_PDWcF-WWYEy__P_l_9sRDvopdoPzxKHsLkcmgcp75WMkVaX_vMKDMQFDWRRkkmMM6i4UNB8gSo2TAwMYNqq8OAgqJ-eTjS7kvALxMfM1V2SPZajip9FgpBBfAAnnvxPePagPJwZ3ZN7pYir34uAZg7e8xFS2BqFIxILsTMtyzqBDbIyY3AxbDQLlCyQhKfMQaskBYvEDsM7_QVEoSfHBJUv1ornZpdcJfrEgsBQcV-ibTZpHNULeMpfSVKnNMdesEizSonsZ6yeKDAcSOWza5UDDTmGuJ6hY5jrcF5gSGUSc7ML8dDtaqJ-yLxth-QihM_U9cWis-gyZNRD3lhcuqvECrWdBO9T6hFFE9Xxty0]--></g></svg>