<svg xmlns="http://www.w3.org/2000/svg" xmlns:xlink="http://www.w3.org/1999/xlink" contentStyleType="text/css" height="281px" preserveAspectRatio="none" style="width:421px;height:281px;background:#FFFFFF;" version="1.1" viewBox="0 0 421 281" width="421px" zoomAndPan="magnify"><defs/><g><!--class CardSelectionResponse--><g id="elem_CardSelectionResponse"><rect codeLine="77" fill="#EBF5FB" height="122.4844" id="CardSelectionResponse" rx="2.5" ry="2.5" style="stroke:#3498DB;stroke-width:2.0;" width="310.0195" x="79.5" y="7"/><ellipse cx="154.7705" cy="23" fill="#ADD1B2" rx="11" ry="11" style="stroke:#181818;stroke-width:1.0;"/><path d="M157.5361,18.875 Q157.6924,18.6563 157.8799,18.5469 Q158.0674,18.4375 158.2861,18.4375 Q158.6611,18.4375 158.8955,18.7031 Q159.1299,18.9531 159.1299,19.5625 L159.1299,21.0156 Q159.1299,21.625 158.8955,21.8906 Q158.6611,22.1563 158.2861,22.1563 Q157.9424,22.1563 157.7393,21.9531 Q157.5361,21.7656 157.4268,21.25 Q157.3799,20.8906 157.1924,20.7031 Q156.8643,20.3281 156.2549,20.1094 Q155.6455,19.8906 155.0205,19.8906 Q154.2549,19.8906 153.6143,20.2188 Q152.9893,20.5469 152.4893,21.2969 Q152.0049,22.0469 152.0049,23.0781 L152.0049,24.1719 Q152.0049,25.4063 152.8955,26.2344 Q153.7861,27.0469 155.3799,27.0469 Q156.3174,27.0469 156.9736,26.7969 Q157.3643,26.6406 157.7861,26.2031 Q158.0518,25.9375 158.1924,25.8594 Q158.3486,25.7813 158.5518,25.7813 Q158.8799,25.7813 159.1299,26.0469 Q159.3955,26.2969 159.3955,26.6406 Q159.3955,26.9844 159.0518,27.3906 Q158.5518,27.9688 157.7549,28.2969 Q156.6768,28.75 155.3799,28.75 Q153.8643,28.75 152.6611,28.125 Q151.6768,27.625 150.9893,26.5625 Q150.3018,25.4844 150.3018,24.2031 L150.3018,23.0469 Q150.3018,21.7188 150.9111,20.5781 Q151.5361,19.4219 152.6299,18.8125 Q153.7236,18.1875 154.958,18.1875 Q155.6924,18.1875 156.333,18.3594 Q156.9893,18.5156 157.5361,18.875 Z " fill="#000000"/><text fill="#000000" font-family="sans-serif" font-size="14" lengthAdjust="spacing" textLength="150.9785" x="175.2705" y="28.7969">CardSelectionResponse</text><line style="stroke:#3498DB;stroke-width:2.0;" x1="80.5" x2="388.5195" y1="39" y2="39"/><text fill="#000000" font-family="sans-serif" font-size="14" font-weight="bold" lengthAdjust="spacing" textLength="80.9102" x="85.5" y="58.1074">hasMatched</text><text fill="#000000" font-family="sans-serif" font-size="14" lengthAdjust="spacing" textLength="59.1582" x="170.2998" y="58.1074">: Boolean</text><text fill="#000000" font-family="sans-serif" font-size="14" font-weight="bold" lengthAdjust="spacing" textLength="91.0137" x="85.5" y="76.7285">powerOnData</text><text fill="#000000" font-family="sans-serif" font-size="14" lengthAdjust="spacing" textLength="52.1377" x="180.4033" y="76.7285">: String?</text><text fill="#000000" font-family="sans-serif" font-size="14" font-weight="bold" lengthAdjust="spacing" textLength="182.8271" x="85.5" y="95.3496">selectApplicationResponse</text><text fill="#000000" font-family="sans-serif" font-size="14" lengthAdjust="spacing" textLength="111.3027" x="272.2168" y="95.3496">: ApduResponse?</text><text fill="#000000" font-family="sans-serif" font-size="14" font-weight="bold" lengthAdjust="spacing" textLength="96.4824" x="85.5" y="113.9707">cardResponse</text><text fill="#000000" font-family="sans-serif" font-size="14" lengthAdjust="spacing" textLength="108.9512" x="185.8721" y="113.9707">: CardResponse?</text><line style="stroke:#3498DB;stroke-width:2.0;" x1="80.5" x2="388.5195" y1="121.4844" y2="121.4844"/></g><!--class CardResponse--><g id="elem_CardResponse"><rect codeLine="78" fill="#EBF5FB" height="85.2422" id="CardResponse" rx="2.5" ry="2.5" style="stroke:#3498DB;stroke-width:2.0;" width="235.3232" x="7" y="189"/><ellipse cx="73.7188" cy="205" fill="#ADD1B2" rx="11" ry="11" style="stroke:#181818;stroke-width:1.0;"/><path d="M76.4844,200.875 Q76.6406,200.6563 76.8281,200.5469 Q77.0156,200.4375 77.2344,200.4375 Q77.6094,200.4375 77.8438,200.7031 Q78.0781,200.9531 78.0781,201.5625 L78.0781,203.0156 Q78.0781,203.625 77.8438,203.8906 Q77.6094,204.1563 77.2344,204.1563 Q76.8906,204.1563 76.6875,203.9531 Q76.4844,203.7656 76.375,203.25 Q76.3281,202.8906 76.1406,202.7031 Q75.8125,202.3281 75.2031,202.1094 Q74.5938,201.8906 73.9688,201.8906 Q73.2031,201.8906 72.5625,202.2188 Q71.9375,202.5469 71.4375,203.2969 Q70.9531,204.0469 70.9531,205.0781 L70.9531,206.1719 Q70.9531,207.4063 71.8438,208.2344 Q72.7344,209.0469 74.3281,209.0469 Q75.2656,209.0469 75.9219,208.7969 Q76.3125,208.6406 76.7344,208.2031 Q77,207.9375 77.1406,207.8594 Q77.2969,207.7813 77.5,207.7813 Q77.8281,207.7813 78.0781,208.0469 Q78.3438,208.2969 78.3438,208.6406 Q78.3438,208.9844 78,209.3906 Q77.5,209.9688 76.7031,210.2969 Q75.625,210.75 74.3281,210.75 Q72.8125,210.75 71.6094,210.125 Q70.625,209.625 69.9375,208.5625 Q69.25,207.4844 69.25,206.2031 L69.25,205.0469 Q69.25,203.7188 69.8594,202.5781 Q70.4844,201.4219 71.5781,200.8125 Q72.6719,200.1875 73.9063,200.1875 Q74.6406,200.1875 75.2813,200.3594 Q75.9375,200.5156 76.4844,200.875 Z " fill="#000000"/><text fill="#000000" font-family="sans-serif" font-size="14" lengthAdjust="spacing" textLength="93.3857" x="94.2188" y="210.7969">CardResponse</text><line style="stroke:#3498DB;stroke-width:2.0;" x1="8" x2="241.3232" y1="221" y2="221"/><text fill="#000000" font-family="sans-serif" font-size="14" font-weight="bold" lengthAdjust="spacing" textLength="151.6895" x="13" y="240.1074">isLogicalChannelOpen</text><text fill="#000000" font-family="sans-serif" font-size="14" lengthAdjust="spacing" textLength="59.1582" x="168.5791" y="240.1074">: Boolean</text><text fill="#000000" font-family="sans-serif" font-size="14" font-weight="bold" lengthAdjust="spacing" textLength="108.1377" x="13" y="258.7285">apduResponses</text><text fill="#000000" font-family="sans-serif" font-size="14" lengthAdjust="spacing" textLength="111.2959" x="125.0273" y="258.7285">: ApduResponse[]</text><line style="stroke:#3498DB;stroke-width:2.0;" x1="8" x2="241.3232" y1="266.2422" y2="266.2422"/></g><!--class ApduResponse--><g id="elem_ApduResponse"><rect codeLine="79" fill="#EBF5FB" height="85.2422" id="ApduResponse" rx="2.5" ry="2.5" style="stroke:#3498DB;stroke-width:2.0;" width="137.2412" x="277" y="189"/><ellipse cx="296.2768" cy="205" fill="#ADD1B2" rx="11" ry="11" style="stroke:#181818;stroke-width:1.0;"/><path d="M299.0424,200.875 Q299.1986,200.6563 299.3861,200.5469 Q299.5736,200.4375 299.7924,200.4375 Q300.1674,200.4375 300.4018,200.7031 Q300.6361,200.9531 300.6361,201.5625 L300.6361,203.0156 Q300.6361,203.625 300.4018,203.8906 Q300.1674,204.1563 299.7924,204.1563 Q299.4486,204.1563 299.2455,203.9531 Q299.0424,203.7656 298.933,203.25 Q298.8861,202.8906 298.6986,202.7031 Q298.3705,202.3281 297.7611,202.1094 Q297.1518,201.8906 296.5268,201.8906 Q295.7611,201.8906 295.1205,202.2188 Q294.4955,202.5469 293.9955,203.2969 Q293.5111,204.0469 293.5111,205.0781 L293.5111,206.1719 Q293.5111,207.4063 294.4018,208.2344 Q295.2924,209.0469 296.8861,209.0469 Q297.8236,209.0469 298.4799,208.7969 Q298.8705,208.6406 299.2924,208.2031 Q299.558,207.9375 299.6986,207.8594 Q299.8549,207.7813 300.058,207.7813 Q300.3861,207.7813 300.6361,208.0469 Q300.9018,208.2969 300.9018,208.6406 Q300.9018,208.9844 300.558,209.3906 Q300.058,209.9688 299.2611,210.2969 Q298.183,210.75 296.8861,210.75 Q295.3705,210.75 294.1674,210.125 Q293.183,209.625 292.4955,208.5625 Q291.808,207.4844 291.808,206.2031 L291.808,205.0469 Q291.808,203.7188 292.4174,202.5781 Q293.0424,201.4219 294.1361,200.8125 Q295.2299,200.1875 296.4643,200.1875 Q297.1986,200.1875 297.8393,200.3594 Q298.4955,200.5156 299.0424,200.875 Z " fill="#000000"/><text fill="#000000" font-family="sans-serif" font-size="14" lengthAdjust="spacing" textLength="95.7373" x="311.2271" y="210.7969">ApduResponse</text><line style="stroke:#3498DB;stroke-width:2.0;" x1="278" x2="413.2412" y1="221" y2="221"/><text fill="#000000" font-family="sans-serif" font-size="14" font-weight="bold" lengthAdjust="spacing" textLength="33.4414" x="283" y="240.1074">apdu</text><text fill="#000000" font-family="sans-serif" font-size="14" lengthAdjust="spacing" textLength="44.3516" x="320.3311" y="240.1074">: String</text><text fill="#000000" font-family="sans-serif" font-size="14" font-weight="bold" lengthAdjust="spacing" textLength="77" x="283" y="258.7285">statusWord</text><text fill="#000000" font-family="sans-serif" font-size="14" lengthAdjust="spacing" textLength="44.3516" x="363.8896" y="258.7285">: String</text><line style="stroke:#3498DB;stroke-width:2.0;" x1="278" x2="413.2412" y1="266.2422" y2="266.2422"/></g><!--reverse link CardSelectionResponse to CardResponse--><g id="link_CardSelectionResponse_CardResponse"><path codeLine="67" d="M186.7848,139.055 C173.2248,158.964 165.199,170.747 152.805,188.9425 " fill="none" id="CardSelectionResponse-backto-CardResponse" style="stroke:#3498DB;stroke-width:2.0;stroke-dasharray:7.0,7.0;"/><polygon fill="#3498DB" points="193.54,129.137,186.8564,131.8443,186.7848,139.055,193.4684,136.3477,193.54,129.137" style="stroke:#3498DB;stroke-width:2.0;"/><text fill="#000000" font-family="sans-serif" font-size="13" lengthAdjust="spacing" textLength="21.6836" x="134.6714" y="177.838">0..1</text></g><!--reverse link CardSelectionResponse to ApduResponse--><g id="link_CardSelectionResponse_ApduResponse"><path codeLine="68" d="M282.6292,139.0263 C296.3132,158.9353 304.431,170.747 316.937,188.9425 " fill="none" id="CardSelectionResponse-backto-ApduResponse" style="stroke:#3498DB;stroke-width:2.0;stroke-dasharray:7.0,7.0;"/><polygon fill="#3498DB" points="275.832,129.137,275.9342,136.3474,282.6292,139.0263,282.527,131.8159,275.832,129.137" style="stroke:#3498DB;stroke-width:2.0;"/><text fill="#000000" font-family="sans-serif" font-size="13" lengthAdjust="spacing" textLength="21.6836" x="289.7466" y="177.838">0..1</text></g><!--reverse link CardResponse to ApduResponse--><g id="link_CardResponse_ApduResponse"><path codeLine="70" d="M254.338,231.5 C265.89,231.5 265.442,231.5 276.994,231.5 " fill="none" id="CardResponse-backto-ApduResponse" style="stroke:#3498DB;stroke-width:2.0;"/><polygon fill="#3498DB" points="242.338,231.5,248.338,235.5,254.338,231.5,248.338,227.5,242.338,231.5" style="stroke:#3498DB;stroke-width:2.0;"/><text fill="#000000" font-family="sans-serif" font-size="13" lengthAdjust="spacing" textLength="19.5127" x="249.4769" y="227.6013">1..*</text></g><!--SRC=[ZPHXRzem48Q_vrVSsW-La802ePHgRPNOJbUDmbIe9ZHDavku92Ar8ziPGbF_-qn8Q48pM3v5xxrtpvrpyHbSNyFi2taWviMopf18OvPA1P5IALCGCBY2KEj4NRNReNwDVH4BwOk0gPOlNjiligtfSynesWnOqzzcrqZcLKKBtanYgjlMfu2zH9m1-dNtIEOTy2wzeJVSaxlWTRsUP-_9FI1zCY3xRXlm0BiOxybzG0xoS7TFlW0NenuQbEJH_VWhzEpX9NPBwjEKG7VWa8jpSpZGRC9KhsDpBZga6WB1ppIiX5p2Aj8XSBQ2tqogI70GBs1cvJfzZKsQfPOHJwYahw0qaqpeTS8SLyY0IRGvKJXrXXXXhzPuNp6wjZCW_LeZgbR4kEDsQusaOYJki6VGsNnaZ3Vzbh9GJ9NQ-cTXv2yvKmhAPHqfnQeSCfNcB8x5waCLwYyNKgGyoCaUyGWYzR3SWcq7dMDJyf45H-fz_YnPS7DZocA22JfGTkSa0zliWHL6Pj4ByVsO3FLRAfEO7GKdcIrZsmHvWuFiT_CbiMq75_YTNkdWEKwFypUcR1xNwtlkGNfXpNSzP-TgXNmd6UD7qOkDAsCFlG7n3h9ttloVok65l4zV_mzydR4TiqVa63kpTb6FzCleTPLiqEPEH9FnZ8ndsQteRse1eZAOifZvslpVZqmbWYi6VommJwCHKlL0jH-oeD4mLwOhXBa1UHvCn8h92STKqomwrJBYYziyghAYJfB4aK_BnJElamHf8HGPlccbOa8buTPwAtNyeT58ZSJ2W68KKivPF4aOhscPbh3gGoC_VkuWPNa7sMIN9Yq6rLIdwhlvAENOs-R47QM47sNJAykgF-f6gmKdvwrMvwGwsUdsyZwULMcroB8gjHfD6Ir2tOIJJglL-5TAjY4ZPpvvsYx8LfZEvYDoT66ANwtk6-t5Al1Tx2y0]--></g></svg>