<?xml version="1.0" encoding="UTF-8" standalone="no"?><svg xmlns="http://www.w3.org/2000/svg" xmlns:xlink="http://www.w3.org/1999/xlink" contentScriptType="application/ecmascript" contentStyleType="text/css" height="526px" preserveAspectRatio="none" style="width:2276px;height:526px;" version="1.1" viewBox="0 0 2276 526" width="2276px" zoomAndPan="magnify"><defs/><g><text fill="#000000" font-family="sans-serif" font-size="18" lengthAdjust="spacingAndGlyphs" textLength="564" x="862" y="17.4023">Keyple Plugin - Observable Reader Notifiers- 1.0.0 (10/11/2020)</text><!--MD5=[3fb92fba1735106d511c1d05a9f83ed2]
cluster root--><polygon fill="#FFFFFF" points="22,201.1992,237,201.1992,244,223.6875,2254,223.6875,2254,514.1992,22,514.1992,22,201.1992" style="stroke: #000000; stroke-width: 1.5;"/><line style="stroke: #000000; stroke-width: 1.5;" x1="22" x2="244" y1="223.6875" y2="223.6875"/><text fill="#000000" font-family="sans-serif" font-size="14" font-weight="bold" lengthAdjust="spacingAndGlyphs" textLength="209" x="26" y="216.7344">org.eclipse.keyple.core.plugin</text><!--MD5=[9d4f2f8fc0ef5fca8dbaabf8542dfdf0]
cluster reader--><polygon fill="#FFFFFF" points="46,244.1992,97,244.1992,104,266.6875,2230,266.6875,2230,490.1992,46,490.1992,46,244.1992" style="stroke: #000000; stroke-width: 1.5;"/><line style="stroke: #000000; stroke-width: 1.5;" x1="46" x2="104" y1="266.6875" y2="266.6875"/><text fill="#000000" font-family="sans-serif" font-size="14" font-weight="bold" lengthAdjust="spacingAndGlyphs" textLength="45" x="50" y="259.7344">reader</text><!--MD5=[b940e63541cb3de023976f6bd0dc6a31]
class ObservableReaderNotifier--><rect fill="#FEFECE" height="60.9551" id="ObservableReaderNotifier" style="stroke: #D4AC0D; stroke-width: 1.5;" width="245" x="966.5" y="279.1992"/><ellipse cx="1004.9" cy="295.1992" fill="#B4A7E5" rx="11" ry="11" style="stroke: #B4A7E5; stroke-width: 1.0;"/><path d="M1001.3277,291.4644 L1001.3277,289.3062 L1008.7071,289.3062 L1008.7071,291.4644 L1006.2418,291.4644 L1006.2418,299.541 L1008.7071,299.541 L1008.7071,301.6992 L1001.3277,301.6992 L1001.3277,299.541 L1003.7931,299.541 L1003.7931,291.4644 Z "/><ellipse cx="1029.1" cy="294.6992" fill="#84BE84" rx="3" ry="3" style="stroke: #038048; stroke-width: 1.0;"/><text fill="#000000" font-family="sans-serif" font-size="12" font-style="italic" lengthAdjust="spacingAndGlyphs" textLength="150" x="1035.1" y="299.7344">ObservableReaderNotifier</text><line style="stroke: #D4AC0D; stroke-width: 1.5;" x1="967.5" x2="1210.5" y1="311.1992" y2="311.1992"/><line style="stroke: #D4AC0D; stroke-width: 1.5;" x1="967.5" x2="1210.5" y1="319.1992" y2="319.1992"/><polygon fill="#4177AF" points="977.5,326.1992,973.5,332.1992,981.5,332.1992" style="stroke: #1963A0; stroke-width: 1.0;"/><text fill="#000000" font-family="sans-serif" font-size="11" lengthAdjust="spacingAndGlyphs" textLength="219" x="986.5" y="333.834">notifyObservers(final ReaderEvent event)</text><!--MD5=[c3a4ce1fc4261b60fbb12c0d8ff607dc]
class WaitForCardInsertionAutonomous--><rect fill="#FEFECE" height="48" id="WaitForCardInsertionAutonomous" style="stroke: #D4AC0D; stroke-width: 1.5;" width="233" x="62.5" y="413.1992"/><ellipse cx="77.5" cy="429.1992" fill="#B4A7E5" rx="11" ry="11" style="stroke: #B4A7E5; stroke-width: 1.0;"/><path d="M73.9277,425.4644 L73.9277,423.3062 L81.3071,423.3062 L81.3071,425.4644 L78.8418,425.4644 L78.8418,433.541 L81.3071,433.541 L81.3071,435.6992 L73.9277,435.6992 L73.9277,433.541 L76.3931,433.541 L76.3931,425.4644 Z "/><ellipse cx="96.5" cy="428.6992" fill="#84BE84" rx="3" ry="3" style="stroke: #038048; stroke-width: 1.0;"/><text fill="#000000" font-family="sans-serif" font-size="12" font-style="italic" lengthAdjust="spacingAndGlyphs" textLength="190" x="102.5" y="433.7344">WaitForCardInsertionAutonomous</text><line style="stroke: #D4AC0D; stroke-width: 1.5;" x1="63.5" x2="294.5" y1="445.1992" y2="445.1992"/><line style="stroke: #D4AC0D; stroke-width: 1.5;" x1="63.5" x2="294.5" y1="453.1992" y2="453.1992"/><!--MD5=[d69c631cfbddc7dbbf5dc02cfde5b1cb]
class WaitForCardInsertionBlocking--><rect fill="#FEFECE" height="73.9102" id="WaitForCardInsertionBlocking" style="stroke: #D4AC0D; stroke-width: 1.5;" width="209" x="330.5" y="400.1992"/><ellipse cx="345.5" cy="416.1992" fill="#B4A7E5" rx="11" ry="11" style="stroke: #B4A7E5; stroke-width: 1.0;"/><path d="M341.9277,412.4644 L341.9277,410.3062 L349.3071,410.3062 L349.3071,412.4644 L346.8418,412.4644 L346.8418,420.541 L349.3071,420.541 L349.3071,422.6992 L341.9277,422.6992 L341.9277,420.541 L344.3931,420.541 L344.3931,412.4644 Z "/><ellipse cx="364.5" cy="415.6992" fill="#84BE84" rx="3" ry="3" style="stroke: #038048; stroke-width: 1.0;"/><text fill="#000000" font-family="sans-serif" font-size="12" font-style="italic" lengthAdjust="spacingAndGlyphs" textLength="166" x="370.5" y="420.7344">WaitForCardInsertionBlocking</text><line style="stroke: #D4AC0D; stroke-width: 1.5;" x1="331.5" x2="538.5" y1="432.1992" y2="432.1992"/><line style="stroke: #D4AC0D; stroke-width: 1.5;" x1="331.5" x2="538.5" y1="440.1992" y2="440.1992"/><polygon fill="#4177AF" points="341.5,447.1992,337.5,453.1992,345.5,453.1992" style="stroke: #1963A0; stroke-width: 1.0;"/><text fill="#000000" font-family="sans-serif" font-size="11" lengthAdjust="spacingAndGlyphs" textLength="159" x="350.5" y="454.834">boolean waitForCardPresent()</text><polygon fill="#4177AF" points="341.5,460.1543,337.5,466.1543,345.5,466.1543" style="stroke: #1963A0; stroke-width: 1.0;"/><text fill="#000000" font-family="sans-serif" font-size="11" lengthAdjust="spacingAndGlyphs" textLength="124" x="350.5" y="467.7891">void stopWaitForCard()</text><!--MD5=[b8ce1d46d9d35b62440ff63f3e241fb5]
class WaitForCardInsertionNonBlocking--><rect fill="#FEFECE" height="48" id="WaitForCardInsertionNonBlocking" style="stroke: #D4AC0D; stroke-width: 1.5;" width="232" x="575" y="413.1992"/><ellipse cx="590" cy="429.1992" fill="#B4A7E5" rx="11" ry="11" style="stroke: #B4A7E5; stroke-width: 1.0;"/><path d="M586.4277,425.4644 L586.4277,423.3062 L593.8071,423.3062 L593.8071,425.4644 L591.3418,425.4644 L591.3418,433.541 L593.8071,433.541 L593.8071,435.6992 L586.4277,435.6992 L586.4277,433.541 L588.8931,433.541 L588.8931,425.4644 Z "/><ellipse cx="609" cy="428.6992" fill="#84BE84" rx="3" ry="3" style="stroke: #038048; stroke-width: 1.0;"/><text fill="#000000" font-family="sans-serif" font-size="12" font-style="italic" lengthAdjust="spacingAndGlyphs" textLength="189" x="615" y="433.7344">WaitForCardInsertionNonBlocking</text><line style="stroke: #D4AC0D; stroke-width: 1.5;" x1="576" x2="806" y1="445.1992" y2="445.1992"/><line style="stroke: #D4AC0D; stroke-width: 1.5;" x1="576" x2="806" y1="453.1992" y2="453.1992"/><!--MD5=[2310b7580d8b0b63444ace6eabbb6c34]
class WaitForCardRemovalAutonomous--><rect fill="#FEFECE" height="48" id="WaitForCardRemovalAutonomous" style="stroke: #D4AC0D; stroke-width: 1.5;" width="233" x="842.5" y="413.1992"/><ellipse cx="857.5" cy="429.1992" fill="#B4A7E5" rx="11" ry="11" style="stroke: #B4A7E5; stroke-width: 1.0;"/><path d="M853.9277,425.4644 L853.9277,423.3062 L861.3071,423.3062 L861.3071,425.4644 L858.8418,425.4644 L858.8418,433.541 L861.3071,433.541 L861.3071,435.6992 L853.9277,435.6992 L853.9277,433.541 L856.3931,433.541 L856.3931,425.4644 Z "/><ellipse cx="876.5" cy="428.6992" fill="#84BE84" rx="3" ry="3" style="stroke: #038048; stroke-width: 1.0;"/><text fill="#000000" font-family="sans-serif" font-size="12" font-style="italic" lengthAdjust="spacingAndGlyphs" textLength="190" x="882.5" y="433.7344">WaitForCardRemovalAutonomous</text><line style="stroke: #D4AC0D; stroke-width: 1.5;" x1="843.5" x2="1074.5" y1="445.1992" y2="445.1992"/><line style="stroke: #D4AC0D; stroke-width: 1.5;" x1="843.5" x2="1074.5" y1="453.1992" y2="453.1992"/><!--MD5=[c495498fa64e1ed9e005aecb8b4175f3]
class WaitForCardRemovalBlocking--><rect fill="#FEFECE" height="73.9102" id="WaitForCardRemovalBlocking" style="stroke: #D4AC0D; stroke-width: 1.5;" width="216" x="1111" y="400.1992"/><ellipse cx="1129.15" cy="416.1992" fill="#B4A7E5" rx="11" ry="11" style="stroke: #B4A7E5; stroke-width: 1.0;"/><path d="M1125.5777,412.4644 L1125.5777,410.3062 L1132.9571,410.3062 L1132.9571,412.4644 L1130.4918,412.4644 L1130.4918,420.541 L1132.9571,420.541 L1132.9571,422.6992 L1125.5777,422.6992 L1125.5777,420.541 L1128.0431,420.541 L1128.0431,412.4644 Z "/><ellipse cx="1148.85" cy="415.6992" fill="#84BE84" rx="3" ry="3" style="stroke: #038048; stroke-width: 1.0;"/><text fill="#000000" font-family="sans-serif" font-size="12" font-style="italic" lengthAdjust="spacingAndGlyphs" textLength="166" x="1154.85" y="420.7344">WaitForCardRemovalBlocking</text><line style="stroke: #D4AC0D; stroke-width: 1.5;" x1="1112" x2="1326" y1="432.1992" y2="432.1992"/><line style="stroke: #D4AC0D; stroke-width: 1.5;" x1="1112" x2="1326" y1="440.1992" y2="440.1992"/><polygon fill="#4177AF" points="1122,447.1992,1118,453.1992,1126,453.1992" style="stroke: #1963A0; stroke-width: 1.0;"/><text fill="#000000" font-family="sans-serif" font-size="11" lengthAdjust="spacingAndGlyphs" textLength="190" x="1131" y="454.834">boolean waitForCardAbsentNative()</text><polygon fill="#4177AF" points="1122,460.1543,1118,466.1543,1126,466.1543" style="stroke: #1963A0; stroke-width: 1.0;"/><text fill="#000000" font-family="sans-serif" font-size="11" lengthAdjust="spacingAndGlyphs" textLength="169" x="1131" y="467.7891">void stopWaitForCardRemoval()</text><!--MD5=[895e12c8fcbee256da28e43fd1d09330]
class WaitForCardRemovalNonBlocking--><rect fill="#FEFECE" height="48" id="WaitForCardRemovalNonBlocking" style="stroke: #D4AC0D; stroke-width: 1.5;" width="232" x="1362" y="413.1992"/><ellipse cx="1377" cy="429.1992" fill="#B4A7E5" rx="11" ry="11" style="stroke: #B4A7E5; stroke-width: 1.0;"/><path d="M1373.4277,425.4644 L1373.4277,423.3062 L1380.8071,423.3062 L1380.8071,425.4644 L1378.3418,425.4644 L1378.3418,433.541 L1380.8071,433.541 L1380.8071,435.6992 L1373.4277,435.6992 L1373.4277,433.541 L1375.8931,433.541 L1375.8931,425.4644 Z "/><ellipse cx="1396" cy="428.6992" fill="#84BE84" rx="3" ry="3" style="stroke: #038048; stroke-width: 1.0;"/><text fill="#000000" font-family="sans-serif" font-size="12" font-style="italic" lengthAdjust="spacingAndGlyphs" textLength="189" x="1402" y="433.7344">WaitForCardRemovalNonBlocking</text><line style="stroke: #D4AC0D; stroke-width: 1.5;" x1="1363" x2="1593" y1="445.1992" y2="445.1992"/><line style="stroke: #D4AC0D; stroke-width: 1.5;" x1="1363" x2="1593" y1="453.1992" y2="453.1992"/><!--MD5=[df4cb8f166b57ae99ee93d1893ca6362]
class DontWaitForCardRemovalDuringProcessing--><rect fill="#FEFECE" height="48" id="DontWaitForCardRemovalDuringProcessing" style="stroke: #D4AC0D; stroke-width: 1.5;" width="288" x="1629" y="413.1992"/><ellipse cx="1644" cy="429.1992" fill="#B4A7E5" rx="11" ry="11" style="stroke: #B4A7E5; stroke-width: 1.0;"/><path d="M1640.4277,425.4644 L1640.4277,423.3062 L1647.8071,423.3062 L1647.8071,425.4644 L1645.3418,425.4644 L1645.3418,433.541 L1647.8071,433.541 L1647.8071,435.6992 L1640.4277,435.6992 L1640.4277,433.541 L1642.8931,433.541 L1642.8931,425.4644 Z "/><ellipse cx="1663" cy="428.6992" fill="#84BE84" rx="3" ry="3" style="stroke: #038048; stroke-width: 1.0;"/><text fill="#000000" font-family="sans-serif" font-size="12" font-style="italic" lengthAdjust="spacingAndGlyphs" textLength="245" x="1669" y="433.7344">DontWaitForCardRemovalDuringProcessing</text><line style="stroke: #D4AC0D; stroke-width: 1.5;" x1="1630" x2="1916" y1="445.1992" y2="445.1992"/><line style="stroke: #D4AC0D; stroke-width: 1.5;" x1="1630" x2="1916" y1="453.1992" y2="453.1992"/><!--MD5=[ac2d54aa4d18200a2085b2c8e002adc0]
class WaitForCardRemovalDuringProcessing--><rect fill="#FEFECE" height="48" id="WaitForCardRemovalDuringProcessing" style="stroke: #D4AC0D; stroke-width: 1.5;" width="261" x="1952.5" y="413.1992"/><ellipse cx="1967.5" cy="429.1992" fill="#B4A7E5" rx="11" ry="11" style="stroke: #B4A7E5; stroke-width: 1.0;"/><path d="M1963.9277,425.4644 L1963.9277,423.3062 L1971.3071,423.3062 L1971.3071,425.4644 L1968.8418,425.4644 L1968.8418,433.541 L1971.3071,433.541 L1971.3071,435.6992 L1963.9277,435.6992 L1963.9277,433.541 L1966.3931,433.541 L1966.3931,425.4644 Z "/><ellipse cx="1986.5" cy="428.6992" fill="#84BE84" rx="3" ry="3" style="stroke: #038048; stroke-width: 1.0;"/><text fill="#000000" font-family="sans-serif" font-size="12" font-style="italic" lengthAdjust="spacingAndGlyphs" textLength="218" x="1992.5" y="433.7344">WaitForCardRemovalDuringProcessing</text><line style="stroke: #D4AC0D; stroke-width: 1.5;" x1="1953.5" x2="2212.5" y1="445.1992" y2="445.1992"/><line style="stroke: #D4AC0D; stroke-width: 1.5;" x1="1953.5" x2="2212.5" y1="453.1992" y2="453.1992"/><!--MD5=[e86a4777f2c0372cf9fb3cd047e1466e]
class Reader--><rect fill="#FEFECE" height="48" id="Reader" style="stroke: #D4AC0D; stroke-width: 1.5;" width="85" x="1046.5" y="29.1992"/><ellipse cx="1061.5" cy="45.1992" fill="#B4A7E5" rx="11" ry="11" style="stroke: #B4A7E5; stroke-width: 1.0;"/><path d="M1057.9277,41.4644 L1057.9277,39.3062 L1065.3071,39.3062 L1065.3071,41.4644 L1062.8418,41.4644 L1062.8418,49.541 L1065.3071,49.541 L1065.3071,51.6992 L1057.9277,51.6992 L1057.9277,49.541 L1060.3931,49.541 L1060.3931,41.4644 Z "/><ellipse cx="1080.5" cy="44.6992" fill="#84BE84" rx="3" ry="3" style="stroke: #038048; stroke-width: 1.0;"/><text fill="#000000" font-family="sans-serif" font-size="12" font-style="italic" lengthAdjust="spacingAndGlyphs" textLength="42" x="1086.5" y="49.7344">Reader</text><line style="stroke: #D4AC0D; stroke-width: 1.5;" x1="1047.5" x2="1130.5" y1="61.1992" y2="61.1992"/><line style="stroke: #D4AC0D; stroke-width: 1.5;" x1="1047.5" x2="1130.5" y1="69.1992" y2="69.1992"/><!--MD5=[e2341a3d5316e117132fc49473ae3219]
class ObservableReader--><rect fill="#FEFECE" height="48" id="ObservableReader" style="stroke: #D4AC0D; stroke-width: 1.5;" width="151" x="1013.5" y="137.1992"/><ellipse cx="1028.5" cy="153.1992" fill="#B4A7E5" rx="11" ry="11" style="stroke: #B4A7E5; stroke-width: 1.0;"/><path d="M1024.9277,149.4644 L1024.9277,147.3062 L1032.3071,147.3062 L1032.3071,149.4644 L1029.8418,149.4644 L1029.8418,157.541 L1032.3071,157.541 L1032.3071,159.6992 L1024.9277,159.6992 L1024.9277,157.541 L1027.3931,157.541 L1027.3931,149.4644 Z "/><ellipse cx="1047.5" cy="152.6992" fill="#84BE84" rx="3" ry="3" style="stroke: #038048; stroke-width: 1.0;"/><text fill="#000000" font-family="sans-serif" font-size="12" font-style="italic" lengthAdjust="spacingAndGlyphs" textLength="108" x="1053.5" y="157.7344">ObservableReader</text><line style="stroke: #D4AC0D; stroke-width: 1.5;" x1="1014.5" x2="1163.5" y1="169.1992" y2="169.1992"/><line style="stroke: #D4AC0D; stroke-width: 1.5;" x1="1014.5" x2="1163.5" y1="177.1992" y2="177.1992"/><!--MD5=[495ccb80ac82bdc45a1b0288016f2c00]
reverse link Reader to ObservableReader--><path d="M1089,97.2192 C1089,110.7792 1089,125.2392 1089,136.8792 " fill="none" id="Reader&lt;-ObservableReader" style="stroke: #27AE60; stroke-width: 1.0;"/><polygon fill="none" points="1082,97.1992,1089,77.1992,1096,97.1992,1082,97.1992" style="stroke: #27AE60; stroke-width: 1.0;"/><!--MD5=[77be2c078e34aa2dfe5639fff6304c16]
reverse link ObservableReader to ObservableReaderNotifier--><path d="M1089,205.7492 C1089,229.3692 1089,257.9592 1089,279.0092 " fill="none" id="ObservableReader&lt;-ObservableReaderNotifier" style="stroke: #27AE60; stroke-width: 1.0;"/><polygon fill="none" points="1082,205.4092,1089,185.4092,1096,205.4092,1082,205.4092" style="stroke: #27AE60; stroke-width: 1.0;"/><!--MD5=[39a55d8915488313ca77b5a344ed9694]
reverse link ObservableReaderNotifier to WaitForCardInsertionAutonomous--><path d="M946.21,320.8092 C789.8,333.3592 532.02,358.3892 313,400.1992 C294.78,403.6792 275.4,408.3192 257.2,413.1092 " fill="none" id="ObservableReaderNotifier&lt;-WaitForCardInsertionAutonomous" style="stroke: #27AE60; stroke-width: 1.0;"/><polygon fill="none" points="945.69,313.8292,966.18,319.2292,946.8,327.7892,945.69,313.8292" style="stroke: #27AE60; stroke-width: 1.0;"/><!--MD5=[236811c37fdffa40c986f3043aaa4951]
reverse link ObservableReaderNotifier to WaitForCardInsertionBlocking--><path d="M946.52,330.0592 C839.09,345.7792 688.46,370.2192 558,400.1992 C552.04,401.5692 545.94,403.0592 539.79,404.6292 " fill="none" id="ObservableReaderNotifier&lt;-WaitForCardInsertionBlocking" style="stroke: #27AE60; stroke-width: 1.0;"/><polygon fill="none" points="945.6,323.1192,966.4,327.1792,947.61,336.9792,945.6,323.1192" style="stroke: #27AE60; stroke-width: 1.0;"/><!--MD5=[b64fb9cf6080afaec88323d4498d3239]
reverse link ObservableReaderNotifier to WaitForCardInsertionNonBlocking--><path d="M976.26,346.2492 C908.21,367.7092 823.46,394.4292 764.09,413.1492 " fill="none" id="ObservableReaderNotifier&lt;-WaitForCardInsertionNonBlocking" style="stroke: #27AE60; stroke-width: 1.0;"/><polygon fill="none" points="974.26,339.5392,995.44,340.1992,978.47,352.8892,974.26,339.5392" style="stroke: #27AE60; stroke-width: 1.0;"/><!--MD5=[f1f2c8091b130067dc6783631a257274]
reverse link ObservableReaderNotifier to WaitForCardRemovalAutonomous--><path d="M1043.65,354.4792 C1023.27,374.1492 1000.05,396.5692 983.09,412.9392 " fill="none" id="ObservableReaderNotifier&lt;-WaitForCardRemovalAutonomous" style="stroke: #27AE60; stroke-width: 1.0;"/><polygon fill="none" points="1038.94,349.2992,1058.19,340.4392,1048.66,359.3692,1038.94,349.2992" style="stroke: #27AE60; stroke-width: 1.0;"/><!--MD5=[cab668c2e1a4066e8d804d283426268c]
reverse link ObservableReaderNotifier to WaitForCardRemovalBlocking--><path d="M1134.48,354.6092 C1149.83,369.4292 1166.79,385.7992 1181.46,399.9592 " fill="none" id="ObservableReaderNotifier&lt;-WaitForCardRemovalBlocking" style="stroke: #27AE60; stroke-width: 1.0;"/><polygon fill="none" points="1129.34,359.3692,1119.81,340.4392,1139.06,349.2992,1129.34,359.3692" style="stroke: #27AE60; stroke-width: 1.0;"/><!--MD5=[80e6790618337d98f63c004d889c61ec]
reverse link ObservableReaderNotifier to WaitForCardRemovalNonBlocking--><path d="M1199.86,346.4692 C1266.3,367.8992 1348.82,394.5192 1406.66,413.1792 " fill="none" id="ObservableReaderNotifier&lt;-WaitForCardRemovalNonBlocking" style="stroke: #27AE60; stroke-width: 1.0;"/><polygon fill="none" points="1197.58,353.0892,1180.69,340.2792,1201.88,339.7592,1197.58,353.0892" style="stroke: #27AE60; stroke-width: 1.0;"/><!--MD5=[723d7ba3cfc8fd59eb0bc09cb1b5fca1]
reverse link ObservableReaderNotifier to DontWaitForCardRemovalDuringProcessing--><path d="M1231.48,333.0892 C1336.84,350.1292 1483.69,374.8892 1612,400.1992 C1631.95,404.1392 1653.22,408.6592 1673.54,413.1392 " fill="none" id="ObservableReaderNotifier&lt;-DontWaitForCardRemovalDuringProcessing" style="stroke: #27AE60; stroke-width: 1.0;"/><polygon fill="none" points="1230.27,339.9792,1211.64,329.8892,1232.5,326.1592,1230.27,339.9792" style="stroke: #27AE60; stroke-width: 1.0;"/><!--MD5=[349b3fdf09aa29e12b6e542d027019d1]
reverse link ObservableReaderNotifier to WaitForCardRemovalDuringProcessing--><path d="M1231.57,319.9592 C1400.38,332.2592 1689.6,357.5692 1935,400.1992 C1955.06,403.6892 1976.44,408.3292 1996.54,413.1192 " fill="none" id="ObservableReaderNotifier&lt;-WaitForCardRemovalDuringProcessing" style="stroke: #27AE60; stroke-width: 1.0;"/><polygon fill="none" points="1231.04,326.9392,1211.59,318.5192,1232.04,312.9792,1231.04,326.9392" style="stroke: #27AE60; stroke-width: 1.0;"/><!--MD5=[ab77a87b8830712eaa75daa92392534b]
@startuml
title
    Keyple Plugin - Observable Reader Notifiers- 1.0.0 (10/11/2020)
end title



skinparam Shadowing false
skinparam ClassFontStyle italic
skinparam ClassBorderColor #D4AC0D
skinparam stereotypeABorderColor #A9DCDF
skinparam stereotypeIBorderColor #B4A7E5
skinparam stereotypeCBorderColor #ADD1B2
skinparam stereotypeEBorderColor #EB93DF
skinparam ClassBackgroundColor<<red>> #FDEDEC
skinparam ClassBorderColor<<red>> #E74C3C
hide <<red>> stereotype
skinparam ClassBackgroundColor<<purple>> #F4ECF7
skinparam ClassBorderColor<<purple>> #8E44AD
hide <<purple>> stereotype
skinparam ClassBackgroundColor<<blue>> #EBF5FB
skinparam ClassBorderColor<<blue>> #3498DB
hide <<blue>> stereotype
skinparam ClassBackgroundColor<<green>> #E9F7EF
skinparam ClassBorderColor<<green>> #27AE60
hide <<green>> stereotype
skinparam ClassBackgroundColor<<grey>> #EAECEE
skinparam ClassBorderColor<<grey>> #2C3E50
hide <<grey>> stereotype

+interface Reader {
}

+interface ObservableReader {
}

package "org.eclipse.keyple.core.plugin" as root {

    package "reader"{

        +interface ObservableReaderNotifier {
            ~notifyObservers(final ReaderEvent event)
        }

        +interface WaitForCardInsertionAutonomous {
        }

        +interface WaitForCardInsertionBlocking {
          ~boolean waitForCardPresent()
          ~void stopWaitForCard()
        }

        +interface WaitForCardInsertionNonBlocking {
        }

        +interface WaitForCardRemovalAutonomous {
        }

        +interface WaitForCardRemovalBlocking {
          ~boolean waitForCardAbsentNative()
          ~void stopWaitForCardRemoval()
        }

        +interface WaitForCardRemovalNonBlocking {
        }

        +interface DontWaitForCardRemovalDuringProcessing {
        }

        +interface WaitForCardRemovalDuringProcessing {
        }

    }
}


Reader <|- - ObservableReader #27AE60
ObservableReader <|- - ObservableReaderNotifier #27AE60
ObservableReaderNotifier <|- - WaitForCardInsertionAutonomous #27AE60
ObservableReaderNotifier <|- - WaitForCardInsertionBlocking #27AE60
ObservableReaderNotifier <|- - WaitForCardInsertionNonBlocking #27AE60
ObservableReaderNotifier <|- - WaitForCardRemovalAutonomous #27AE60
ObservableReaderNotifier <|- - WaitForCardRemovalBlocking #27AE60
ObservableReaderNotifier <|- - WaitForCardRemovalNonBlocking #27AE60
ObservableReaderNotifier <|- - DontWaitForCardRemovalDuringProcessing #27AE60
ObservableReaderNotifier <|- - WaitForCardRemovalDuringProcessing #27AE60

@enduml

PlantUML version 1.2020.09(Sun May 10 12:51:06 CEST 2020)
(GPL source distribution)
Java Runtime: OpenJDK Runtime Environment
JVM: OpenJDK 64-Bit Server VM
Java Version: 11.0.6+8-b520.43
Operating System: Mac OS X
Default Encoding: UTF-8
Language: fr
Country: FR
--></g></svg>