<?xml version="1.0" encoding="UTF-8" standalone="no"?><svg xmlns="http://www.w3.org/2000/svg" xmlns:xlink="http://www.w3.org/1999/xlink" contentScriptType="application/ecmascript" contentStyleType="text/css" height="1492.5px" preserveAspectRatio="none" style="width:2820px;height:1492px;" version="1.1" viewBox="0 0 2820 1492" width="2820px" zoomAndPan="magnify"><defs/><g><!--MD5=[1fff3fe7a94d23d943315cfc56fec618]
cluster Terminal A with 'local' reader--><polygon fill="#FFFFFF" points="40,15,555,15,572.5,74.0234,645,74.0234,645,1160,40,1160,40,15" style="stroke: #000000; stroke-width: 3.75;"/><line style="stroke: #000000; stroke-width: 3.75;" x1="40" x2="572.5" y1="74.0234" y2="74.0234"/><text fill="#000000" font-family="sans-serif" font-size="35" font-weight="bold" lengthAdjust="spacingAndGlyphs" textLength="500" x="50" y="56.333">Terminal A with 'local' reader</text><!--MD5=[4b0fb3407be455c7d0a263d150ff2415]
cluster Terminal with 'remote' reader--><polygon fill="#FFFFFF" points="705,15,1230,15,1247.5,74.0234,1715,74.0234,1715,847.5,705,847.5,705,15" style="stroke: #000000; stroke-width: 3.75;"/><line style="stroke: #000000; stroke-width: 3.75;" x1="705" x2="1247.5" y1="74.0234" y2="74.0234"/><text fill="#000000" font-family="sans-serif" font-size="35" font-weight="bold" lengthAdjust="spacingAndGlyphs" textLength="510" x="715" y="56.333">Terminal with 'remote' reader</text><!--MD5=[f2f32b766e4aa934c943334e1b64d869]
cluster Terminal B with 'local' reader--><polygon fill="#FFFFFF" points="1775,15,2292.5,15,2310,74.0234,2777.5,74.0234,2777.5,1160,1775,1160,1775,15" style="stroke: #000000; stroke-width: 3.75;"/><line style="stroke: #000000; stroke-width: 3.75;" x1="1775" x2="2310" y1="74.0234" y2="74.0234"/><text fill="#000000" font-family="sans-serif" font-size="35" font-weight="bold" lengthAdjust="spacingAndGlyphs" textLength="502.5" x="1785" y="56.333">Terminal B with 'local' reader</text><!--MD5=[492ce1a3376d55250d68a9b9c57d8699]
entity appA--><rect fill="#FEFECE" height="119.0234" style="stroke: #D4AC0D; stroke-width: 3.75;" width="272.5" x="331.25" y="105"/><rect fill="#FEFECE" height="25" style="stroke: #D4AC0D; stroke-width: 3.75;" width="37.5" x="553.75" y="117.5"/><rect fill="#FEFECE" height="5" style="stroke: #D4AC0D; stroke-width: 3.75;" width="10" x="548.75" y="122.5"/><rect fill="#FEFECE" height="5" style="stroke: #D4AC0D; stroke-width: 3.75;" width="10" x="548.75" y="132.5"/><text fill="#000000" font-family="sans-serif" font-size="35" lengthAdjust="spacingAndGlyphs" textLength="172.5" x="368.75" y="191.333">Application</text><!--MD5=[fc4eaf5d1305252cc9e9dbd4f9b65146]
entity localServiceA--><rect fill="#FDEDEC" height="119.0234" style="stroke: #E74C3C; stroke-width: 3.75;" width="337.5" x="81.25" y="375"/><rect fill="#FDEDEC" height="25" style="stroke: #E74C3C; stroke-width: 3.75;" width="37.5" x="368.75" y="387.5"/><rect fill="#FDEDEC" height="5" style="stroke: #E74C3C; stroke-width: 3.75;" width="10" x="363.75" y="392.5"/><rect fill="#FDEDEC" height="5" style="stroke: #E74C3C; stroke-width: 3.75;" width="10" x="363.75" y="402.5"/><text fill="#000000" font-family="sans-serif" font-size="35" font-weight="bold" lengthAdjust="spacingAndGlyphs" textLength="237.5" x="118.75" y="461.333">Local Service</text><!--MD5=[e39a41f8452bdf926165fc1f6ec3bc2d]
entity localPluginA--><rect fill="#E9F7EF" height="163.0469" style="stroke: #27AE60; stroke-width: 3.75;" width="230" x="282.5" y="645"/><rect fill="#E9F7EF" height="25" style="stroke: #27AE60; stroke-width: 3.75;" width="37.5" x="462.5" y="657.5"/><rect fill="#E9F7EF" height="5" style="stroke: #27AE60; stroke-width: 3.75;" width="10" x="457.5" y="662.5"/><rect fill="#E9F7EF" height="5" style="stroke: #27AE60; stroke-width: 3.75;" width="10" x="457.5" y="672.5"/><text fill="#000000" font-family="sans-serif" font-size="35" lengthAdjust="spacingAndGlyphs" textLength="85" x="320" y="731.333">Local</text><text fill="#000000" font-family="sans-serif" font-size="35" lengthAdjust="spacingAndGlyphs" textLength="130" x="320" y="775.3564">Plugin A</text><!--MD5=[9a5aeb29b297e27abff191fb4703ad55]
entity localReaderA--><rect fill="#E9F7EF" height="163.0469" style="stroke: #27AE60; stroke-width: 3.75;" width="250" x="272.5" y="957.5"/><rect fill="#E9F7EF" height="25" style="stroke: #27AE60; stroke-width: 3.75;" width="37.5" x="472.5" y="970"/><rect fill="#E9F7EF" height="5" style="stroke: #27AE60; stroke-width: 3.75;" width="10" x="467.5" y="975"/><rect fill="#E9F7EF" height="5" style="stroke: #27AE60; stroke-width: 3.75;" width="10" x="467.5" y="985"/><text fill="#000000" font-family="sans-serif" font-size="35" lengthAdjust="spacingAndGlyphs" textLength="85" x="310" y="1043.833">Local</text><text fill="#000000" font-family="sans-serif" font-size="35" lengthAdjust="spacingAndGlyphs" textLength="150" x="310" y="1087.8564">Reader A</text><!--MD5=[4541fb81c80c07473fe4b07432ef0971]
entity app--><rect fill="#FEFECE" height="119.0234" style="stroke: #D4AC0D; stroke-width: 3.75;" width="272.5" x="1163.75" y="105"/><rect fill="#FEFECE" height="25" style="stroke: #D4AC0D; stroke-width: 3.75;" width="37.5" x="1386.25" y="117.5"/><rect fill="#FEFECE" height="5" style="stroke: #D4AC0D; stroke-width: 3.75;" width="10" x="1381.25" y="122.5"/><rect fill="#FEFECE" height="5" style="stroke: #D4AC0D; stroke-width: 3.75;" width="10" x="1381.25" y="132.5"/><text fill="#000000" font-family="sans-serif" font-size="35" lengthAdjust="spacingAndGlyphs" textLength="172.5" x="1201.25" y="191.333">Application</text><!--MD5=[8c57e6c545067fd40d80e498aee73352]
entity remotePlugin--><rect fill="#FDEDEC" height="119.0234" style="stroke: #E74C3C; stroke-width: 3.75;" width="355" x="990" y="375"/><rect fill="#FDEDEC" height="25" style="stroke: #E74C3C; stroke-width: 3.75;" width="37.5" x="1295" y="387.5"/><rect fill="#FDEDEC" height="5" style="stroke: #E74C3C; stroke-width: 3.75;" width="10" x="1290" y="392.5"/><rect fill="#FDEDEC" height="5" style="stroke: #E74C3C; stroke-width: 3.75;" width="10" x="1290" y="402.5"/><text fill="#000000" font-family="sans-serif" font-size="35" font-weight="bold" lengthAdjust="spacingAndGlyphs" textLength="255" x="1027.5" y="461.333">Remote Plugin</text><!--MD5=[715ebe8ad1fd68534f65631f37819374]
entity remoteReaderA--><rect fill="#E9F7EF" height="163.0469" style="stroke: #27AE60; stroke-width: 3.75;" width="250" x="745" y="645"/><rect fill="#E9F7EF" height="25" style="stroke: #27AE60; stroke-width: 3.75;" width="37.5" x="945" y="657.5"/><rect fill="#E9F7EF" height="5" style="stroke: #27AE60; stroke-width: 3.75;" width="10" x="940" y="662.5"/><rect fill="#E9F7EF" height="5" style="stroke: #27AE60; stroke-width: 3.75;" width="10" x="940" y="672.5"/><text fill="#000000" font-family="sans-serif" font-size="35" lengthAdjust="spacingAndGlyphs" textLength="122.5" x="782.5" y="731.333">Remote</text><text fill="#000000" font-family="sans-serif" font-size="35" lengthAdjust="spacingAndGlyphs" textLength="150" x="782.5" y="775.3564">Reader A</text><!--MD5=[83cccebbcb67811b9cef30e5b71ae2f4]
entity remoteReaderB--><rect fill="#EBF5FB" height="163.0469" style="stroke: #3498DB; stroke-width: 3.75;" width="250" x="1082.5" y="645"/><rect fill="#EBF5FB" height="25" style="stroke: #3498DB; stroke-width: 3.75;" width="37.5" x="1282.5" y="657.5"/><rect fill="#EBF5FB" height="5" style="stroke: #3498DB; stroke-width: 3.75;" width="10" x="1277.5" y="662.5"/><rect fill="#EBF5FB" height="5" style="stroke: #3498DB; stroke-width: 3.75;" width="10" x="1277.5" y="672.5"/><text fill="#000000" font-family="sans-serif" font-size="35" lengthAdjust="spacingAndGlyphs" textLength="122.5" x="1120" y="731.333">Remote</text><text fill="#000000" font-family="sans-serif" font-size="35" lengthAdjust="spacingAndGlyphs" textLength="150" x="1120" y="775.3564">Reader B</text><!--MD5=[24e64ec056b1dc286800a991c10c8550]
entity remoteReaderC--><rect fill="#F4ECF7" height="163.0469" style="stroke: #8E44AD; stroke-width: 3.75;" width="252.5" x="1421.25" y="645"/><rect fill="#F4ECF7" height="25" style="stroke: #8E44AD; stroke-width: 3.75;" width="37.5" x="1623.75" y="657.5"/><rect fill="#F4ECF7" height="5" style="stroke: #8E44AD; stroke-width: 3.75;" width="10" x="1618.75" y="662.5"/><rect fill="#F4ECF7" height="5" style="stroke: #8E44AD; stroke-width: 3.75;" width="10" x="1618.75" y="672.5"/><text fill="#000000" font-family="sans-serif" font-size="35" lengthAdjust="spacingAndGlyphs" textLength="122.5" x="1458.75" y="731.333">Remote</text><text fill="#000000" font-family="sans-serif" font-size="35" lengthAdjust="spacingAndGlyphs" textLength="152.5" x="1458.75" y="775.3564">Reader C</text><!--MD5=[e03933a285099eb05d74043a42f6bebf]
entity appB--><rect fill="#FEFECE" height="119.0234" style="stroke: #D4AC0D; stroke-width: 3.75;" width="272.5" x="2131.25" y="105"/><rect fill="#FEFECE" height="25" style="stroke: #D4AC0D; stroke-width: 3.75;" width="37.5" x="2353.75" y="117.5"/><rect fill="#FEFECE" height="5" style="stroke: #D4AC0D; stroke-width: 3.75;" width="10" x="2348.75" y="122.5"/><rect fill="#FEFECE" height="5" style="stroke: #D4AC0D; stroke-width: 3.75;" width="10" x="2348.75" y="132.5"/><text fill="#000000" font-family="sans-serif" font-size="35" lengthAdjust="spacingAndGlyphs" textLength="172.5" x="2168.75" y="191.333">Application</text><!--MD5=[3497f76c7268585b544040471d826e09]
entity localServiceB--><rect fill="#FDEDEC" height="119.0234" style="stroke: #E74C3C; stroke-width: 3.75;" width="337.5" x="2098.75" y="375"/><rect fill="#FDEDEC" height="25" style="stroke: #E74C3C; stroke-width: 3.75;" width="37.5" x="2386.25" y="387.5"/><rect fill="#FDEDEC" height="5" style="stroke: #E74C3C; stroke-width: 3.75;" width="10" x="2381.25" y="392.5"/><rect fill="#FDEDEC" height="5" style="stroke: #E74C3C; stroke-width: 3.75;" width="10" x="2381.25" y="402.5"/><text fill="#000000" font-family="sans-serif" font-size="35" font-weight="bold" lengthAdjust="spacingAndGlyphs" textLength="237.5" x="2136.25" y="461.333">Local Service</text><!--MD5=[6d68b64d0873eb0a8dc450752ee60455]
entity localPluginB--><rect fill="#EBF5FB" height="163.0469" style="stroke: #3498DB; stroke-width: 3.75;" width="230" x="1907.5" y="645"/><rect fill="#EBF5FB" height="25" style="stroke: #3498DB; stroke-width: 3.75;" width="37.5" x="2087.5" y="657.5"/><rect fill="#EBF5FB" height="5" style="stroke: #3498DB; stroke-width: 3.75;" width="10" x="2082.5" y="662.5"/><rect fill="#EBF5FB" height="5" style="stroke: #3498DB; stroke-width: 3.75;" width="10" x="2082.5" y="672.5"/><text fill="#000000" font-family="sans-serif" font-size="35" lengthAdjust="spacingAndGlyphs" textLength="85" x="1945" y="731.333">Local</text><text fill="#000000" font-family="sans-serif" font-size="35" lengthAdjust="spacingAndGlyphs" textLength="130" x="1945" y="775.3564">Plugin B</text><!--MD5=[326bec51df11f7e217066843974af772]
entity localReaderB--><rect fill="#EBF5FB" height="163.0469" style="stroke: #3498DB; stroke-width: 3.75;" width="250" x="1897.5" y="957.5"/><rect fill="#EBF5FB" height="25" style="stroke: #3498DB; stroke-width: 3.75;" width="37.5" x="2097.5" y="970"/><rect fill="#EBF5FB" height="5" style="stroke: #3498DB; stroke-width: 3.75;" width="10" x="2092.5" y="975"/><rect fill="#EBF5FB" height="5" style="stroke: #3498DB; stroke-width: 3.75;" width="10" x="2092.5" y="985"/><text fill="#000000" font-family="sans-serif" font-size="35" lengthAdjust="spacingAndGlyphs" textLength="85" x="1935" y="1043.833">Local</text><text fill="#000000" font-family="sans-serif" font-size="35" lengthAdjust="spacingAndGlyphs" textLength="150" x="1935" y="1087.8564">Reader B</text><!--MD5=[ed58d6383dd6299d3fd6b2aee9fa2a9c]
entity localPluginC--><rect fill="#F4ECF7" height="163.0469" style="stroke: #8E44AD; stroke-width: 3.75;" width="232.5" x="2411.25" y="645"/><rect fill="#F4ECF7" height="25" style="stroke: #8E44AD; stroke-width: 3.75;" width="37.5" x="2593.75" y="657.5"/><rect fill="#F4ECF7" height="5" style="stroke: #8E44AD; stroke-width: 3.75;" width="10" x="2588.75" y="662.5"/><rect fill="#F4ECF7" height="5" style="stroke: #8E44AD; stroke-width: 3.75;" width="10" x="2588.75" y="672.5"/><text fill="#000000" font-family="sans-serif" font-size="35" lengthAdjust="spacingAndGlyphs" textLength="85" x="2448.75" y="731.333">Local</text><text fill="#000000" font-family="sans-serif" font-size="35" lengthAdjust="spacingAndGlyphs" textLength="132.5" x="2448.75" y="775.3564">Plugin C</text><!--MD5=[101b25349a095183ff90ba7ebec3dd3b]
entity localReaderC--><rect fill="#F4ECF7" height="163.0469" style="stroke: #8E44AD; stroke-width: 3.75;" width="252.5" x="2401.25" y="957.5"/><rect fill="#F4ECF7" height="25" style="stroke: #8E44AD; stroke-width: 3.75;" width="37.5" x="2603.75" y="970"/><rect fill="#F4ECF7" height="5" style="stroke: #8E44AD; stroke-width: 3.75;" width="10" x="2598.75" y="975"/><rect fill="#F4ECF7" height="5" style="stroke: #8E44AD; stroke-width: 3.75;" width="10" x="2598.75" y="985"/><text fill="#000000" font-family="sans-serif" font-size="35" lengthAdjust="spacingAndGlyphs" textLength="85" x="2438.75" y="1043.833">Local</text><text fill="#000000" font-family="sans-serif" font-size="35" lengthAdjust="spacingAndGlyphs" textLength="152.5" x="2438.75" y="1087.8564">Reader C</text><!--MD5=[97706d6bc3a2479187d78421cb19fd5d]
entity readerA--><rect fill="#E9F7EF" height="163.0469" style="stroke: #27AE60; stroke-width: 3.75;" width="410" x="192.5" y="1270"/><rect fill="#E9F7EF" height="25" style="stroke: #27AE60; stroke-width: 3.75;" width="37.5" x="552.5" y="1282.5"/><rect fill="#E9F7EF" height="5" style="stroke: #27AE60; stroke-width: 3.75;" width="10" x="547.5" y="1287.5"/><rect fill="#E9F7EF" height="5" style="stroke: #27AE60; stroke-width: 3.75;" width="10" x="547.5" y="1297.5"/><text fill="#000000" font-family="sans-serif" font-size="35" lengthAdjust="spacingAndGlyphs" textLength="310" x="230" y="1356.333">Hardware Reader A</text><text fill="#000000" font-family="sans-serif" font-size="35" lengthAdjust="spacingAndGlyphs" textLength="75" x="230" y="1400.3564">(PO)</text><!--MD5=[dd4deb9cc63b37613601c38977f0eeaa]
entity readerB--><rect fill="#EBF5FB" height="163.0469" style="stroke: #3498DB; stroke-width: 3.75;" width="410" x="1817.5" y="1270"/><rect fill="#EBF5FB" height="25" style="stroke: #3498DB; stroke-width: 3.75;" width="37.5" x="2177.5" y="1282.5"/><rect fill="#EBF5FB" height="5" style="stroke: #3498DB; stroke-width: 3.75;" width="10" x="2172.5" y="1287.5"/><rect fill="#EBF5FB" height="5" style="stroke: #3498DB; stroke-width: 3.75;" width="10" x="2172.5" y="1297.5"/><text fill="#000000" font-family="sans-serif" font-size="35" lengthAdjust="spacingAndGlyphs" textLength="310" x="1855" y="1356.333">Hardware Reader B</text><text fill="#000000" font-family="sans-serif" font-size="35" lengthAdjust="spacingAndGlyphs" textLength="75" x="1855" y="1400.3564">(PO)</text><!--MD5=[5f08c31cfab830314614782fcb9e2915]
entity readerC--><rect fill="#F4ECF7" height="163.0469" style="stroke: #8E44AD; stroke-width: 3.75;" width="412.5" x="2321.25" y="1270"/><rect fill="#F4ECF7" height="25" style="stroke: #8E44AD; stroke-width: 3.75;" width="37.5" x="2683.75" y="1282.5"/><rect fill="#F4ECF7" height="5" style="stroke: #8E44AD; stroke-width: 3.75;" width="10" x="2678.75" y="1287.5"/><rect fill="#F4ECF7" height="5" style="stroke: #8E44AD; stroke-width: 3.75;" width="10" x="2678.75" y="1297.5"/><text fill="#000000" font-family="sans-serif" font-size="35" lengthAdjust="spacingAndGlyphs" textLength="312.5" x="2358.75" y="1356.333">Hardware Reader C</text><text fill="#000000" font-family="sans-serif" font-size="35" lengthAdjust="spacingAndGlyphs" textLength="75" x="2358.75" y="1400.3564">(PO)</text><!--MD5=[872181754934b8bb9e169beccc28ace8]
link appA to localPluginA--><path d="M471.175,225.845 C474.2625,291.63 476.2375,401.61 462.5,495 C455.05,545.65 439.565,600.9 425.58,644.4125 " fill="none" id="appA-localPluginA" style="stroke: #D3D3D3; stroke-width: 2.5;"/><!--MD5=[df64d3f3addaf0c81377e46d1ce8647d]
link appA to localReaderA--><path d="M493.015,225.2 C543.46,348.02 643.7,642.465 555,867.5 C541.92,900.6825 518.9,931.1875 494.43,956.8675 " fill="none" id="appA-localReaderA" style="stroke: #D3D3D3; stroke-width: 2.5;"/><!--MD5=[95b0cafeb0ff47933d32aabfa9f2da2c]
link appA to localServiceA--><path d="M420.305,225 C384.0725,269.145 334.25,329.8525 297.8525,374.195 " fill="none" id="appA-localServiceA" style="stroke: #A80036; stroke-width: 2.5;"/><!--MD5=[9b713b1a0805f16152cb203f6cca8907]
link localPluginA to localReaderA--><path d="M397.5,807.94 C397.5,853.85 397.5,911.465 397.5,957.33 " fill="none" id="localPluginA-localReaderA" style="stroke: #27AE60; stroke-width: 2.5;"/><!--MD5=[82ac601dd08a7d402bcad24440e95844]
link localServiceA to localPluginA--><path d="M279.85,495.4275 C301.905,538.2275 332.195,597.0125 356.5175,644.215 " fill="none" id="localServiceA-localPluginA" style="stroke: #27AE60; stroke-width: 2.5;"/><!--MD5=[6a997ed4b49109a86b6644e27e4a3289]
link localServiceA to localReaderA--><path d="M234.185,495.675 C214.1183,580.7725 187.7123,742.6275 237.5,867.5 C250.8075,900.875 274.2,931.4425 299.0575,957.115 " fill="none" id="localServiceA-localReaderA" style="stroke: #27AE60; stroke-width: 2.5;"/><!--MD5=[061ad854bafa23f803f44dc4ce21c46a]
link localReaderA to readerA--><path d="M397.5,1120.44 C397.5,1166.35 397.5,1223.9643 397.5,1269.8295 " fill="none" id="localReaderA-readerA" style="stroke: #27AE60; stroke-width: 2.5;"/><!--MD5=[b97915d650206280001a2bdc0b828dc4]
link localServiceA to remotePlugin--><path d="M419.3425,435 C609.5475,435 799.7525,435 989.96,435 " fill="none" id="localServiceA-remotePlugin" style="stroke: #A80036; stroke-width: 2.5;"/><!--MD5=[fcbe8f378ea262bfa23bcac2f0bc6e93]
link app to remotePlugin--><path d="M1271.25,225 C1249.1775,269.145 1218.825,329.8525 1196.6525,374.195 " fill="none" id="app-remotePlugin" style="stroke: #A80036; stroke-width: 2.5;"/><!--MD5=[e81922a9262f7b5c0d85a687ed2a9563]
link app to remoteReaderA--><path d="M1163.5825,215.355 C1088.045,248.715 998.81,300.705 945,375 C887.6025,454.2475 872.485,568.52 869.3225,644.3975 " fill="none" id="app-remoteReaderA" style="stroke: #D3D3D3; stroke-width: 2.5;"/><!--MD5=[afd6b76a7c885c5e5257591f40a99beb]
link app to remoteReaderB--><path d="M1336.035,225.0525 C1372.625,291.055 1419.66,402.1275 1387.5,495 C1368.155,550.87 1328.8925,603.4525 1291.9625,644.0825 " fill="none" id="app-remoteReaderB" style="stroke: #D3D3D3; stroke-width: 2.5;"/><!--MD5=[e6647fafd4f4f15a0555d2b2e4930401]
link app to remoteReaderC--><path d="M1335.965,225.2225 C1360.645,266.1475 1393.1975,322.84 1417.5,375 C1459.5275,465.2 1498.035,573.0825 1522.0475,644.7325 " fill="none" id="app-remoteReaderC" style="stroke: #D3D3D3; stroke-width: 2.5;"/><!--MD5=[bf391bf76abec8bd6e1c70dee5eecee1]
link remotePlugin to remoteReaderA--><path d="M1107.2975,495.4275 C1062.8125,538.2275 1001.7175,597.0125 952.66,644.215 " fill="none" id="remotePlugin-remoteReaderA" style="stroke: #27AE60; stroke-width: 2.5;"/><!--MD5=[14818a61795318ab21f59e436d0faa29]
link remotePlugin to remoteReaderB--><path d="M1175.595,495.4275 C1181.575,538.2275 1189.79,597.0125 1196.385,644.215 " fill="none" id="remotePlugin-remoteReaderB" style="stroke: #3498DB; stroke-width: 2.5;"/><!--MD5=[6daa68d6c29f80fbe913eb2b56cd82d3]
link remotePlugin to remoteReaderC--><path d="M1244.3975,495.4275 C1301.435,538.3925 1379.8525,597.4625 1442.635,644.755 " fill="none" id="remotePlugin-remoteReaderC" style="stroke: #8E44AD; stroke-width: 2.5;"/><!--MD5=[d9e7b457afac6b8f4fabeb23e62a584e]
link remotePlugin to localServiceB--><path d="M1345.82,435 C1596.6425,435 1847.4625,435 2098.285,435 " fill="none" id="remotePlugin-localServiceB" style="stroke: #A80036; stroke-width: 2.5;"/><!--MD5=[df8a1212ca9fa7993768db4bf844e72a]
link appB to localPluginB--><path d="M2183.64,225.7075 C2137.375,262.745 2083.64,314.965 2055,375 C2014.155,460.62 2011.0225,571.395 2014.805,644.8725 " fill="none" id="appB-localPluginB" style="stroke: #D3D3D3; stroke-width: 2.5;"/><!--MD5=[e2249160656950652a139c1a1b1953f6]
link appB to localReaderB--><path d="M2175.24,225.03 C2120.135,262.7225 2051.555,315.8575 2002.5,375 C1916.205,479.0425 1894.5225,513.675 1862.5,645 C1839.0725,741.075 1825.875,775.6425 1862.5,867.5 C1875.8075,900.875 1899.2,931.4425 1924.0575,957.115 " fill="none" id="appB-localReaderB" style="stroke: #D3D3D3; stroke-width: 2.5;"/><!--MD5=[81859b6d30b43d48c823a5754661fab8]
link appB to localServiceB--><path d="M2267.5,225 C2267.5,269.145 2267.5,329.8525 2267.5,374.195 " fill="none" id="appB-localServiceB" style="stroke: #A80036; stroke-width: 2.5;"/><!--MD5=[b5f77873e7b5a73768aac5c3d5f81768]
link localPluginB to localReaderB--><path d="M2022.5,807.94 C2022.5,853.85 2022.5,911.465 2022.5,957.33 " fill="none" id="localPluginB-localReaderB" style="stroke: #3498DB; stroke-width: 2.5;"/><!--MD5=[cd8b4a5a0470ecc50602f6760d6ec266]
link localServiceB to localPluginB--><path d="M2217.92,495.4275 C2181.2875,538.2275 2130.9725,597.0125 2090.5725,644.215 " fill="none" id="localServiceB-localPluginB" style="stroke: #3498DB; stroke-width: 2.5;"/><!--MD5=[f2e2fef3d25054ab8210fae1ec71ee96]
link localServiceB to localReaderB--><path d="M2265.635,495.035 C2260.7525,580.725 2243.165,744.9275 2180,867.5 C2163.295,899.9175 2138.565,930.61 2113.625,956.71 " fill="none" id="localServiceB-localReaderB" style="stroke: #3498DB; stroke-width: 2.5;"/><!--MD5=[6d060afe8260565946b833e8f2042f81]
link localReaderB to readerB--><path d="M2022.5,1120.44 C2022.5,1166.35 2022.5,1223.9643 2022.5,1269.8295 " fill="none" id="localReaderB-readerB" style="stroke: #3498DB; stroke-width: 2.5;"/><!--MD5=[2665e075423f6f081aff8e1e0540cd1e]
link appB to localPluginC--><path d="M2349.3575,225.305 C2395.535,262.5525 2449.86,315.125 2480,375 C2522.85,460.1475 2531.125,571.025 2531.05,644.655 " fill="none" id="appB-localPluginC" style="stroke: #D3D3D3; stroke-width: 2.5;"/><!--MD5=[f504bb2cce8bb0ee5c50a27b689b4041]
link appB to localReaderC--><path d="M2352.94,225.585 C2405.675,264.0625 2472.5525,317.8375 2522.5,375 C2615.025,480.9 2649.4,509.6225 2687.5,645 C2714.275,740.1925 2724.125,775.6425 2687.5,867.5 C2674.2,900.875 2650.8,931.4425 2625.95,957.115 " fill="none" id="appB-localReaderC" style="stroke: #D3D3D3; stroke-width: 2.5;"/><!--MD5=[3a683f5c64a8babbdb185a466b90ab35]
link localServiceB to localPluginC--><path d="M2320.115,495.4275 C2358.9925,538.2275 2412.385,597.0125 2455.26,644.215 " fill="none" id="localServiceB-localPluginC" style="stroke: #8E44AD; stroke-width: 2.5;"/><!--MD5=[f6b695a7511aa5da1a39ccbaddca40f1]
link localServiceB to localReaderC--><path d="M2271.295,495.14 C2278.995,580.965 2301.765,745.335 2367.5,867.5 C2385.1,900.2075 2410.7125,931.2025 2436.3075,957.4875 " fill="none" id="localServiceB-localReaderC" style="stroke: #8E44AD; stroke-width: 2.5;"/><!--MD5=[8c2aa53d51692afac2d7050031bbf915]
link localPluginC to localReaderC--><path d="M2527.5,807.94 C2527.5,853.85 2527.5,911.465 2527.5,957.33 " fill="none" id="localPluginC-localReaderC" style="stroke: #8E44AD; stroke-width: 2.5;"/><!--MD5=[54b04f91ed7aaf76b037ed89a3577ed6]
link localReaderC to readerC--><path d="M2527.5,1120.44 C2527.5,1166.35 2527.5,1223.9643 2527.5,1269.8295 " fill="none" id="localReaderC-readerC" style="stroke: #8E44AD; stroke-width: 2.5;"/><text fill="#888888" font-family="sans-serif" font-size="25" lengthAdjust="spacingAndGlyphs" textLength="1182.5" x="802.5" y="1471.499">Keyple Distributed - Concepts - One Remote Plugin connected to many Local Services (03/11/2020)</text><!--MD5=[fadb9598c0589aa69c17dcc3f83f868e]
@startuml
footer
    Keyple Distributed - Concepts - One Remote Plugin connected to many Local Services (03/11/2020)
end footer

' == THEME ==

'Couleurs issues de : https://htmlcolorcodes.com/fr/tableau-de-couleur/tableau-de-couleur-design-plat/
!define COLOR_RED E74C3C
!define COLOR_PURPLE 8E44AD
!define COLOR_BLUE 3498DB
!define COLOR_GREEN 27AE60
!define COLOR_GREY 2C3E50
skinparam Shadowing false
skinparam component {
    BorderColor #D4AC0D
    ' Red
    BackgroundColor<<red>> #FDEDEC
    BorderColor<<red>> #E74C3C
    ' Purple
    BackgroundColor<<purple>> #F4ECF7
    BorderColor<<purple>> #8E44AD
    ' blue
    BackgroundColor<<blue>> #EBF5FB
    BorderColor<<blue>> #3498DB
    ' Green
    BackgroundColor<<green>> #E9F7EF
    BorderColor<<green>> #27AE60
    ' Grey
    BackgroundColor<<grey>> #EAECEE
    BorderColor<<grey>> #2C3E50
}
hide <<red>> stereotype
hide <<purple>> stereotype
hide <<blue>> stereotype
hide <<green>> stereotype
hide <<grey>> stereotype

' == CONTENT ==

[Hardware Reader A\n(PO)] as readerA <<green>>
[Hardware Reader B\n(PO)] as readerB <<blue>>
[Hardware Reader C\n(PO)] as readerC <<purple>>
package "Terminal A with 'local' reader" {
    [Application] as appA
    [**Local Service**] as localServiceA <<red>>
    [Local\nPlugin A] as localPluginA <<green>>
    [Local\nReader A] as localReaderA <<green>>
}
package "Terminal with 'remote' reader" {
    [Application] as app
    [**Remote Plugin**] as remotePlugin <<red>>
    [Remote\nReader A] as remoteReaderA <<green>>
    [Remote\nReader B] as remoteReaderB <<blue>>
    [Remote\nReader C] as remoteReaderC <<purple>>
}
package "Terminal B with 'local' reader" {
    [Application] as appB
    [**Local Service**] as localServiceB <<red>>
    [Local\nPlugin B] as localPluginB <<blue>>
    [Local\nReader B] as localReaderB <<blue>>
    [Local\nPlugin C] as localPluginC <<purple>>
    [Local\nReader C] as localReaderC <<purple>>
}

'utilisation

appA - - localPluginA #LightGrey
appA - - localReaderA #LightGrey
appA - - localServiceA
localPluginA - - localReaderA #COLOR_GREEN
localServiceA - - localPluginA #COLOR_GREEN
localServiceA - - localReaderA #COLOR_GREEN
localReaderA - - readerA #COLOR_GREEN

localServiceA - remotePlugin

app - - remotePlugin
app - - remoteReaderA #LightGrey
app - - remoteReaderB #LightGrey
app - - remoteReaderC #LightGrey
remotePlugin - - remoteReaderA #COLOR_GREEN
remotePlugin - - remoteReaderB #COLOR_BLUE
remotePlugin - - remoteReaderC #COLOR_PURPLE

remotePlugin - localServiceB

appB - - localPluginB #LightGrey
appB - - localReaderB #LightGrey
appB - - localServiceB
localPluginB - - localReaderB #COLOR_BLUE
localServiceB - - localPluginB #COLOR_BLUE
localServiceB - - localReaderB #COLOR_BLUE
localReaderB - - readerB #COLOR_BLUE

appB - - localPluginC #LightGrey
appB - - localReaderC #LightGrey
localServiceB - - localPluginC #COLOR_PURPLE
localServiceB - - localReaderC #COLOR_PURPLE
localPluginC - - localReaderC #COLOR_PURPLE
localReaderC - - readerC #COLOR_PURPLE

@enduml

@startuml
footer
    Keyple Distributed - Concepts - One Remote Plugin connected to many Local Services (03/11/2020)
end footer


skinparam Shadowing false
skinparam component {
    BorderColor #D4AC0D
    BackgroundColor<<red>> #FDEDEC
    BorderColor<<red>> #E74C3C
    BackgroundColor<<purple>> #F4ECF7
    BorderColor<<purple>> #8E44AD
    BackgroundColor<<blue>> #EBF5FB
    BorderColor<<blue>> #3498DB
    BackgroundColor<<green>> #E9F7EF
    BorderColor<<green>> #27AE60
    BackgroundColor<<grey>> #EAECEE
    BorderColor<<grey>> #2C3E50
}
hide <<red>> stereotype
hide <<purple>> stereotype
hide <<blue>> stereotype
hide <<green>> stereotype
hide <<grey>> stereotype


[Hardware Reader A\n(PO)] as readerA <<green>>
[Hardware Reader B\n(PO)] as readerB <<blue>>
[Hardware Reader C\n(PO)] as readerC <<purple>>
package "Terminal A with 'local' reader" {
    [Application] as appA
    [**Local Service**] as localServiceA <<red>>
    [Local\nPlugin A] as localPluginA <<green>>
    [Local\nReader A] as localReaderA <<green>>
}
package "Terminal with 'remote' reader" {
    [Application] as app
    [**Remote Plugin**] as remotePlugin <<red>>
    [Remote\nReader A] as remoteReaderA <<green>>
    [Remote\nReader B] as remoteReaderB <<blue>>
    [Remote\nReader C] as remoteReaderC <<purple>>
}
package "Terminal B with 'local' reader" {
    [Application] as appB
    [**Local Service**] as localServiceB <<red>>
    [Local\nPlugin B] as localPluginB <<blue>>
    [Local\nReader B] as localReaderB <<blue>>
    [Local\nPlugin C] as localPluginC <<purple>>
    [Local\nReader C] as localReaderC <<purple>>
}


appA - - localPluginA #LightGrey
appA - - localReaderA #LightGrey
appA - - localServiceA
localPluginA - - localReaderA #27AE60
localServiceA - - localPluginA #27AE60
localServiceA - - localReaderA #27AE60
localReaderA - - readerA #27AE60

localServiceA - remotePlugin

app - - remotePlugin
app - - remoteReaderA #LightGrey
app - - remoteReaderB #LightGrey
app - - remoteReaderC #LightGrey
remotePlugin - - remoteReaderA #27AE60
remotePlugin - - remoteReaderB #3498DB
remotePlugin - - remoteReaderC #8E44AD

remotePlugin - localServiceB

appB - - localPluginB #LightGrey
appB - - localReaderB #LightGrey
appB - - localServiceB
localPluginB - - localReaderB #3498DB
localServiceB - - localPluginB #3498DB
localServiceB - - localReaderB #3498DB
localReaderB - - readerB #3498DB

appB - - localPluginC #LightGrey
appB - - localReaderC #LightGrey
localServiceB - - localPluginC #8E44AD
localServiceB - - localReaderC #8E44AD
localPluginC - - localReaderC #8E44AD
localReaderC - - readerC #8E44AD

@enduml

PlantUML version 1.2020.20(Sat Nov 21 11:02:45 CET 2020)
(GPL source distribution)
Java Runtime: OpenJDK Runtime Environment
JVM: OpenJDK 64-Bit Server VM
Default Encoding: Cp1252
Language: fr
Country: FR
--></g></svg>